<svg width="83" height="19" viewBox="0 0 83 19" fill="none" xmlns="http://www.w3.org/2000/svg">
<path d="M0.0600002 9.84V8.1L7.94 2.92V5.9L3.18 8.9V9.04L7.94 12.04V15.04L0.0600002 9.84ZM61.9741 18.02L67.9341 0.2H70.3741L64.4141 18.02H61.9741ZM74.5733 12.04L79.3333 9.04V8.9L74.5733 5.9V2.92L82.4533 8.08V9.82L74.5733 15.04V12.04Z" fill="url(#paint0_linear)" fill-opacity="0.7"/>
<path d="M17.0122 15.24C16.2255 15.24 15.5255 15.1133 14.9122 14.86C14.2989 14.5933 13.7855 14.2267 13.3722 13.76C12.9589 13.28 12.6455 12.7 12.4322 12.02C12.2189 11.34 12.1122 10.58 12.1122 9.74C12.1122 8.9 12.2189 8.14667 12.4322 7.48C12.6455 6.8 12.9589 6.22 13.3722 5.74C13.7855 5.26 14.2989 4.89333 14.9122 4.64C15.5255 4.38667 16.2255 4.26 17.0122 4.26C18.0789 4.26 18.9655 4.5 19.6722 4.98C20.3922 5.46 20.9055 6.13333 21.2122 7L18.8122 8.04C18.7189 7.64 18.5255 7.3 18.2322 7.02C17.9389 6.74 17.5322 6.6 17.0122 6.6C16.4122 6.6 15.9589 6.8 15.6522 7.2C15.3455 7.58667 15.1922 8.11333 15.1922 8.78V10.74C15.1922 11.4067 15.3455 11.9333 15.6522 12.32C15.9589 12.7067 16.4122 12.9 17.0122 12.9C17.5455 12.9 17.9655 12.76 18.2722 12.48C18.5922 12.1867 18.8255 11.8067 18.9722 11.34L21.2722 12.34C20.9255 13.34 20.3855 14.0733 19.6522 14.54C18.9322 15.0067 18.0522 15.24 17.0122 15.24ZM28.6666 15.24C27.8932 15.24 27.1999 15.1133 26.5866 14.86C25.9866 14.6067 25.4732 14.24 25.0466 13.76C24.6332 13.28 24.3132 12.7 24.0866 12.02C23.8599 11.34 23.7466 10.58 23.7466 9.74C23.7466 8.9 23.8599 8.14 24.0866 7.46C24.3132 6.78 24.6332 6.20667 25.0466 5.74C25.4732 5.26 25.9866 4.89333 26.5866 4.64C27.1999 4.38667 27.8932 4.26 28.6666 4.26C29.4399 4.26 30.1266 4.38667 30.7266 4.64C31.3399 4.89333 31.8532 5.26 32.2666 5.74C32.6932 6.20667 33.0199 6.78 33.2466 7.46C33.4732 8.14 33.5866 8.9 33.5866 9.74C33.5866 10.58 33.4732 11.34 33.2466 12.02C33.0199 12.7 32.6932 13.28 32.2666 13.76C31.8532 14.24 31.3399 14.6067 30.7266 14.86C30.1266 15.1133 29.4399 15.24 28.6666 15.24ZM28.6666 12.9C29.2532 12.9 29.7066 12.72 30.0266 12.36C30.3466 12 30.5066 11.4867 30.5066 10.82V8.68C30.5066 8.01333 30.3466 7.5 30.0266 7.14C29.7066 6.78 29.2532 6.6 28.6666 6.6C28.0799 6.6 27.6266 6.78 27.3066 7.14C26.9866 7.5 26.8266 8.01333 26.8266 8.68V10.82C26.8266 11.4867 26.9866 12 27.3066 12.36C27.6266 12.72 28.0799 12.9 28.6666 12.9ZM43.5356 13.24H43.4356C43.3556 13.52 43.229 13.7867 43.0556 14.04C42.8823 14.28 42.669 14.4933 42.4156 14.68C42.1756 14.8533 41.8956 14.9867 41.5756 15.08C41.269 15.1867 40.949 15.24 40.6156 15.24C39.2823 15.24 38.2756 14.7733 37.5956 13.84C36.9156 12.8933 36.5756 11.5267 36.5756 9.74C36.5756 7.95333 36.9156 6.59333 37.5956 5.66C38.2756 4.72667 39.2823 4.26 40.6156 4.26C41.2956 4.26 41.8956 4.44667 42.4156 4.82C42.949 5.19333 43.289 5.67333 43.4356 6.26H43.5356V0.2H46.4956V15H43.5356V13.24ZM41.5956 12.84C42.1556 12.84 42.6156 12.7067 42.9756 12.44C43.349 12.16 43.5356 11.78 43.5356 11.3V8.2C43.5356 7.72 43.349 7.34667 42.9756 7.08C42.6156 6.8 42.1556 6.66 41.5956 6.66C41.0356 6.66 40.569 6.86 40.1956 7.26C39.8356 7.64667 39.6556 8.17333 39.6556 8.84V10.66C39.6556 11.3267 39.8356 11.86 40.1956 12.26C40.569 12.6467 41.0356 12.84 41.5956 12.84ZM55.0436 15.24C54.2436 15.24 53.5303 15.1133 52.9036 14.86C52.2769 14.5933 51.7436 14.2267 51.3036 13.76C50.8769 13.28 50.5503 12.7 50.3236 12.02C50.1103 11.34 50.0036 10.58 50.0036 9.74C50.0036 8.91333 50.1103 8.16667 50.3236 7.5C50.5369 6.82 50.8503 6.24 51.2636 5.76C51.6903 5.28 52.2103 4.91333 52.8236 4.66C53.4369 4.39333 54.1369 4.26 54.9236 4.26C55.7903 4.26 56.5303 4.40667 57.1436 4.7C57.7703 4.99333 58.2769 5.38667 58.6636 5.88C59.0636 6.37333 59.3503 6.94667 59.5236 7.6C59.7103 8.24 59.8036 8.91333 59.8036 9.62V10.5H53.0636V10.66C53.0636 11.3533 53.2503 11.9067 53.6236 12.32C53.9969 12.72 54.5836 12.92 55.3836 12.92C55.9969 12.92 56.4969 12.8 56.8836 12.56C57.2703 12.3067 57.6303 12.0067 57.9636 11.66L59.4436 13.5C58.9769 14.0467 58.3636 14.4733 57.6036 14.78C56.8569 15.0867 56.0036 15.24 55.0436 15.24ZM54.9836 6.44C54.3836 6.44 53.9103 6.64 53.5636 7.04C53.2303 7.42667 53.0636 7.94667 53.0636 8.6V8.76H56.7436V8.58C56.7436 7.94 56.5969 7.42667 56.3036 7.04C56.0236 6.64 55.5836 6.44 54.9836 6.44Z" fill="white" fill-opacity="0.7"/>
<defs>
<linearGradient id="paint0_linear" x1="41.5" y1="-6" x2="41.5" y2="20" gradientUnits="userSpaceOnUse">
<stop stop-color="#FEDA7C"/>
<stop offset="1" stop-color="#F5C879"/>
</linearGradient>
</defs>
</svg>
