<svg width="165" height="164" viewBox="0 0 165 164" fill="none" xmlns="http://www.w3.org/2000/svg">
<path d="M115.801 32.746C135.414 45.1292 149.524 70.3007 143.962 92.6039C138.399 114.907 113.229 134.427 85.9292 135.85C58.5635 137.19 29.0671 120.433 21.955 98.3561C14.8619 76.1287 30.2185 48.6647 50.5618 34.7818C70.8397 20.8145 96.1042 20.4283 115.801 32.746Z" fill="url(#paint0_linear)"/>
<mask id="path-2-inside-1" fill="white">
<path d="M101.465 90.5545L97.3214 94.6982L84.6232 82L97.3214 69.3018L101.465 73.4455C103.868 75.8482 108 74.142 108 70.7411V59.8304C108 57.7179 106.282 56 104.17 56H93.2589C89.858 56 88.1402 60.1205 90.5545 62.5348L94.6982 66.6786L82 79.3768L69.3018 66.6786L73.4455 62.5348C75.8482 60.1321 74.142 56 70.7411 56H59.8304C57.7179 56 56 57.7179 56 59.8304V70.7411C56 74.142 60.1205 75.8598 62.5348 73.4455L66.6786 69.3018L79.3768 82L66.6786 94.6982L62.5348 90.5545C60.1321 88.1518 56 89.858 56 93.2589V104.17C56 106.282 57.7179 108 59.8304 108H70.7411C74.142 108 75.8598 103.879 73.4455 101.465L69.3018 97.3214L82 84.6232L94.6982 97.3214L90.5545 101.465C88.1518 103.868 89.858 108 93.2589 108H104.17C106.282 108 108 106.282 108 104.17V93.2589C108 89.858 103.868 88.1402 101.465 90.5545ZM93.2589 59.3545H104.17C104.437 59.3545 104.646 59.575 104.646 59.8304V70.7411C104.646 71.1705 104.135 71.3795 103.833 71.0777L92.9223 60.167C92.6205 59.8652 92.8295 59.3545 93.2589 59.3545ZM60.167 71.0777C59.8652 71.3795 59.3545 71.1705 59.3545 70.7411V59.8304C59.3545 59.5634 59.575 59.3545 59.8304 59.3545H70.7411C71.1705 59.3545 71.3795 59.8652 71.0777 60.167L60.167 71.0777ZM70.7411 104.646H59.8304C59.5634 104.646 59.3545 104.425 59.3545 104.17V93.2589C59.3545 92.8295 59.8652 92.6205 60.167 92.9223L71.0777 103.833C71.3795 104.135 71.1705 104.646 70.7411 104.646ZM104.17 104.646H93.2589C92.8295 104.646 92.6205 104.135 92.9223 103.833L103.833 92.9223C104.135 92.6205 104.646 92.8295 104.646 93.2589V104.17C104.657 104.437 104.437 104.646 104.17 104.646Z"/>
</mask>
<path d="M101.465 90.5545L104.294 93.3829L104.3 93.3761L101.465 90.5545ZM97.3214 94.6982L94.493 97.5266L97.3214 100.355L100.15 97.5266L97.3214 94.6982ZM84.6232 82L81.7948 79.1716L78.9664 82L81.7948 84.8284L84.6232 82ZM97.3214 69.3018L100.15 66.4734L97.3214 63.6449L94.493 66.4734L97.3214 69.3018ZM101.465 73.4455L104.294 70.6171V70.6171L101.465 73.4455ZM90.5545 62.5348L93.3829 59.7064V59.7064L90.5545 62.5348ZM94.6982 66.6786L97.5266 69.507L100.355 66.6786L97.5266 63.8501L94.6982 66.6786ZM82 79.3768L79.1716 82.2052L82 85.0336L84.8284 82.2052L82 79.3768ZM69.3018 66.6786L66.4734 63.8501L63.6449 66.6786L66.4734 69.507L69.3018 66.6786ZM73.4455 62.5348L76.274 65.3632L73.4455 62.5348ZM62.5348 73.4455L59.7064 70.6171H59.7064L62.5348 73.4455ZM66.6786 69.3018L69.507 66.4734L66.6786 63.6449L63.8501 66.4734L66.6786 69.3018ZM79.3768 82L82.2052 84.8284L85.0336 82L82.2052 79.1716L79.3768 82ZM66.6786 94.6982L63.8501 97.5266L66.6786 100.355L69.507 97.5266L66.6786 94.6982ZM62.5348 90.5545L59.7064 93.3829H59.7064L62.5348 90.5545ZM73.4455 101.465L70.6171 104.294L73.4455 101.465ZM69.3018 97.3214L66.4734 94.493L63.6449 97.3214L66.4734 100.15L69.3018 97.3214ZM82 84.6232L84.8284 81.7948L82 78.9664L79.1716 81.7948L82 84.6232ZM94.6982 97.3214L97.5266 100.15L100.355 97.3214L97.5266 94.493L94.6982 97.3214ZM90.5545 101.465L93.3829 104.294L90.5545 101.465ZM103.833 71.0777L106.661 68.2493L103.833 71.0777ZM92.9223 60.167L90.0939 62.9954L92.9223 60.167ZM60.167 92.9223L62.9954 90.0939L60.167 92.9223ZM71.0777 103.833L68.2493 106.661L71.0777 103.833ZM104.646 104.17H100.646V104.257L100.649 104.343L104.646 104.17ZM98.6368 87.726L94.493 91.8698L100.15 97.5266L104.294 93.3829L98.6368 87.726ZM100.15 91.8698L87.4516 79.1716L81.7948 84.8284L94.493 97.5266L100.15 91.8698ZM87.4516 84.8284L100.15 72.1302L94.493 66.4734L81.7948 79.1716L87.4516 84.8284ZM94.493 72.1302L98.6368 76.274L104.294 70.6171L100.15 66.4734L94.493 72.1302ZM98.6368 76.274C103.553 81.1904 112 77.7142 112 70.7411H104C104 70.7573 103.998 70.7441 104.008 70.7122C104.018 70.6815 104.033 70.6514 104.051 70.6262C104.068 70.6022 104.083 70.5883 104.092 70.5816C104.1 70.5753 104.104 70.5735 104.105 70.5732C104.106 70.5728 104.11 70.5711 104.12 70.57C104.13 70.5688 104.15 70.5679 104.178 70.5728C104.208 70.5779 104.239 70.5882 104.268 70.6027C104.297 70.6178 104.305 70.6283 104.294 70.6171L98.6368 76.274ZM112 70.7411V59.8304H104V70.7411H112ZM112 59.8304C112 55.5087 108.491 52 104.17 52V60C104.151 60 104.125 59.9955 104.099 59.9846C104.076 59.9749 104.06 59.9629 104.049 59.9514C104.037 59.94 104.025 59.9238 104.015 59.9008C104.005 59.8752 104 59.8488 104 59.8304H112ZM104.17 52H93.2589V60H104.17V52ZM93.2589 52C86.3042 52 82.785 60.4222 87.726 65.3632L93.3829 59.7064C93.3688 59.6923 93.3779 59.698 93.3924 59.726C93.4063 59.753 93.4167 59.7842 93.4219 59.8146C93.4269 59.8436 93.4261 59.8648 93.4247 59.8766C93.4234 59.8878 93.4213 59.8933 93.4205 59.8954C93.4196 59.8974 93.4173 59.9025 93.4108 59.9108C93.4038 59.9196 93.39 59.9345 93.3666 59.951C93.342 59.9683 93.3129 59.983 93.2837 59.9923C93.2533 60.002 93.2415 60 93.2589 60V52ZM87.726 65.3632L91.8698 69.507L97.5266 63.8501L93.3829 59.7064L87.726 65.3632ZM91.8698 63.8501L79.1716 76.5484L84.8284 82.2052L97.5266 69.507L91.8698 63.8501ZM84.8284 76.5484L72.1302 63.8501L66.4734 69.507L79.1716 82.2052L84.8284 76.5484ZM72.1302 69.507L76.274 65.3632L70.6171 59.7064L66.4734 63.8501L72.1302 69.507ZM76.274 65.3632C81.1904 60.4468 77.7142 52 70.7411 52V60C70.7573 60 70.7441 60.0018 70.7122 59.9916C70.6815 59.9818 70.6514 59.9665 70.6262 59.9487C70.6022 59.9317 70.5883 59.9165 70.5816 59.908C70.5753 59.9 70.5735 59.8957 70.5732 59.8949C70.5728 59.894 70.5711 59.89 70.57 59.8803C70.5688 59.8701 70.5679 59.8501 70.5728 59.8219C70.5779 59.7922 70.5882 59.7607 70.6027 59.7325C70.6178 59.7032 70.6283 59.6952 70.6171 59.7064L76.274 65.3632ZM70.7411 52H59.8304V60H70.7411V52ZM59.8304 52C55.5087 52 52 55.5087 52 59.8304H60C60 59.8488 59.9955 59.8752 59.9846 59.9008C59.9749 59.9238 59.9629 59.94 59.9514 59.9514C59.94 59.9629 59.9238 59.9749 59.9008 59.9846C59.8752 59.9955 59.8488 60 59.8304 60V52ZM52 59.8304V70.7411H60V59.8304H52ZM52 70.7411C52 77.6958 60.4222 81.215 65.3632 76.274L59.7064 70.6171C59.6923 70.6312 59.698 70.6221 59.726 70.6076C59.753 70.5937 59.7842 70.5833 59.8146 70.5781C59.8436 70.5731 59.8648 70.5739 59.8766 70.5753C59.8878 70.5766 59.8933 70.5787 59.8954 70.5795C59.8974 70.5804 59.9025 70.5827 59.9108 70.5892C59.9196 70.5962 59.9345 70.61 59.951 70.6334C59.9683 70.658 59.983 70.6871 59.9923 70.7163C60.002 70.7467 60 70.7585 60 70.7411H52ZM65.3632 76.274L69.507 72.1302L63.8501 66.4734L59.7064 70.6171L65.3632 76.274ZM63.8501 72.1302L76.5484 84.8284L82.2052 79.1716L69.507 66.4734L63.8501 72.1302ZM76.5484 79.1716L63.8501 91.8698L69.507 97.5266L82.2052 84.8284L76.5484 79.1716ZM69.507 91.8698L65.3632 87.726L59.7064 93.3829L63.8501 97.5266L69.507 91.8698ZM65.3632 87.726C60.4468 82.8096 52 86.2858 52 93.2589H60C60 93.2427 60.0018 93.2559 59.9916 93.2878C59.9818 93.3185 59.9665 93.3486 59.9487 93.3738C59.9317 93.3978 59.9165 93.4117 59.908 93.4184C59.9 93.4247 59.8957 93.4265 59.8949 93.4268C59.894 93.4272 59.89 93.4289 59.8803 93.43C59.8701 93.4312 59.8501 93.4321 59.8219 93.4272C59.7922 93.4221 59.7607 93.4118 59.7325 93.3973C59.7032 93.3822 59.6952 93.3717 59.7064 93.3829L65.3632 87.726ZM52 93.2589V104.17H60V93.2589H52ZM52 104.17C52 108.491 55.5087 112 59.8304 112V104C59.8488 104 59.8752 104.005 59.9008 104.015C59.9238 104.025 59.94 104.037 59.9514 104.049C59.9629 104.06 59.9749 104.076 59.9846 104.099C59.9955 104.125 60 104.151 60 104.17H52ZM59.8304 112H70.7411V104H59.8304V112ZM70.7411 112C77.6958 112 81.215 103.578 76.274 98.6368L70.6171 104.294C70.6312 104.308 70.6221 104.302 70.6076 104.274C70.5937 104.247 70.5833 104.216 70.5781 104.185C70.5731 104.156 70.5739 104.135 70.5753 104.123C70.5766 104.112 70.5787 104.107 70.5795 104.105C70.5804 104.103 70.5827 104.098 70.5892 104.089C70.5962 104.08 70.61 104.065 70.6334 104.049C70.658 104.032 70.6871 104.017 70.7163 104.008C70.7467 103.998 70.7585 104 70.7411 104V112ZM76.274 98.6368L72.1302 94.493L66.4734 100.15L70.6171 104.294L76.274 98.6368ZM72.1302 100.15L84.8284 87.4516L79.1716 81.7948L66.4734 94.493L72.1302 100.15ZM79.1716 87.4516L91.8698 100.15L97.5266 94.493L84.8284 81.7948L79.1716 87.4516ZM91.8698 94.493L87.726 98.6368L93.3829 104.294L97.5266 100.15L91.8698 94.493ZM87.726 98.6368C82.8096 103.553 86.2858 112 93.2589 112V104C93.2427 104 93.2559 103.998 93.2878 104.008C93.3185 104.018 93.3486 104.033 93.3738 104.051C93.3978 104.068 93.4117 104.083 93.4184 104.092C93.4247 104.1 93.4265 104.104 93.4268 104.105C93.4272 104.106 93.4289 104.11 93.43 104.12C93.4312 104.13 93.4321 104.15 93.4272 104.178C93.4221 104.208 93.4118 104.239 93.3973 104.268C93.3822 104.297 93.3717 104.305 93.3829 104.294L87.726 98.6368ZM93.2589 112H104.17V104H93.2589V112ZM104.17 112C108.491 112 112 108.491 112 104.17H104C104 104.151 104.005 104.125 104.015 104.099C104.025 104.076 104.037 104.06 104.049 104.049C104.06 104.037 104.076 104.025 104.099 104.015C104.125 104.005 104.151 104 104.17 104V112ZM112 104.17V93.2589H104V104.17H112ZM112 93.2589C112 86.311 103.565 82.7743 98.6299 87.7329L104.3 93.3761C104.312 93.3643 104.304 93.375 104.274 93.3906C104.245 93.4057 104.212 93.4165 104.181 93.4218C104.151 93.427 104.13 93.4261 104.118 93.4248C104.108 93.4235 104.103 93.4215 104.102 93.421C104.101 93.4206 104.096 93.4188 104.089 93.4128C104.081 93.4064 104.066 93.393 104.05 93.3699C104.032 93.3455 104.018 93.3162 104.008 93.2864C103.998 93.2554 104 93.2427 104 93.2589H112ZM93.2589 63.3545H104.17V55.3545H93.2589V63.3545ZM104.17 63.3545C102.164 63.3545 100.646 61.7205 100.646 59.8304H108.646C108.646 57.4295 106.709 55.3545 104.17 55.3545V63.3545ZM100.646 59.8304V70.7411H108.646V59.8304H100.646ZM100.646 70.7411C100.646 67.5839 104.46 66.0475 106.661 68.2493L101.005 73.9061C103.81 76.7115 108.646 74.7572 108.646 70.7411H100.646ZM106.661 68.2493L95.7507 57.3385L90.0939 62.9954L101.005 73.9061L106.661 68.2493ZM95.7507 57.3385C97.9525 59.5403 96.4161 63.3545 93.2589 63.3545V55.3545C89.2428 55.3545 87.2885 60.19 90.0939 62.9954L95.7507 57.3385ZM57.3385 68.2493C59.5403 66.0475 63.3545 67.5839 63.3545 70.7411H55.3545C55.3545 74.7572 60.19 76.7115 62.9954 73.9061L57.3385 68.2493ZM63.3545 70.7411V59.8304H55.3545V70.7411H63.3545ZM63.3545 59.8304C63.3545 61.8356 61.7205 63.3545 59.8304 63.3545V55.3545C57.4295 55.3545 55.3545 57.2911 55.3545 59.8304H63.3545ZM59.8304 63.3545H70.7411V55.3545H59.8304V63.3545ZM70.7411 63.3545C67.5839 63.3545 66.0475 59.5403 68.2493 57.3385L73.9061 62.9954C76.7115 60.19 74.7572 55.3545 70.7411 55.3545V63.3545ZM68.2493 57.3385L57.3385 68.2493L62.9954 73.9061L73.9061 62.9954L68.2493 57.3385ZM70.7411 100.646H59.8304V108.646H70.7411V100.646ZM59.8304 100.646C61.8357 100.646 63.3545 102.28 63.3545 104.17H55.3545C55.3545 106.57 57.2911 108.646 59.8304 108.646V100.646ZM63.3545 104.17V93.2589H55.3545V104.17H63.3545ZM63.3545 93.2589C63.3545 96.4161 59.5403 97.9525 57.3385 95.7507L62.9954 90.0939C60.19 87.2885 55.3545 89.2428 55.3545 93.2589H63.3545ZM57.3385 95.7507L68.2493 106.661L73.9061 101.005L62.9954 90.0939L57.3385 95.7507ZM68.2493 106.661C66.0475 104.46 67.5839 100.646 70.7411 100.646V108.646C74.7572 108.646 76.7115 103.81 73.9061 101.005L68.2493 106.661ZM104.17 100.646H93.2589V108.646H104.17V100.646ZM93.2589 100.646C96.4161 100.646 97.9525 104.46 95.7507 106.661L90.0939 101.005C87.2885 103.81 89.2428 108.646 93.2589 108.646V100.646ZM95.7507 106.661L106.661 95.7507L101.005 90.0939L90.0939 101.005L95.7507 106.661ZM106.661 95.7507C104.46 97.9525 100.646 96.4161 100.646 93.2589H108.646C108.646 89.2428 103.81 87.2885 101.005 90.0939L106.661 95.7507ZM100.646 93.2589V104.17H108.646V93.2589H100.646ZM100.649 104.343C100.552 102.106 102.395 100.646 104.17 100.646V108.646C106.478 108.646 108.762 106.767 108.642 103.996L100.649 104.343Z" fill="url(#paint1_linear)" mask="url(#path-2-inside-1)"/>
<defs>
<linearGradient id="paint0_linear" x1="47.606" y1="36.9191" x2="125.487" y2="113.46" gradientUnits="userSpaceOnUse">
<stop stop-opacity="0.02"/>
<stop offset="1" stop-opacity="0.05"/>
</linearGradient>
<linearGradient id="paint1_linear" x1="82" y1="56" x2="84.8013" y2="109.194" gradientUnits="userSpaceOnUse">
<stop stop-color="#FC6E40"/>
<stop offset="1" stop-color="#EE4137"/>
</linearGradient>
</defs>
</svg>
