<svg width="427" height="258" viewBox="0 0 427 258" fill="none" xmlns="http://www.w3.org/2000/svg">
<path d="M164.06 121.84V120.1L171.94 114.92V117.9L167.18 120.9V121.04L171.94 124.04V127.04L164.06 121.84ZM225.974 130.02L231.934 112.2H234.374L228.414 130.02H225.974ZM238.573 124.04L243.333 121.04V120.9L238.573 117.9V114.92L246.453 120.08V121.82L238.573 127.04V124.04Z" fill="url(#paint0_linear)" fill-opacity="0.7"/>
<path d="M181.012 127.24C180.226 127.24 179.526 127.113 178.912 126.86C178.299 126.593 177.786 126.227 177.372 125.76C176.959 125.28 176.646 124.7 176.432 124.02C176.219 123.34 176.112 122.58 176.112 121.74C176.112 120.9 176.219 120.147 176.432 119.48C176.646 118.8 176.959 118.22 177.372 117.74C177.786 117.26 178.299 116.893 178.912 116.64C179.526 116.387 180.226 116.26 181.012 116.26C182.079 116.26 182.966 116.5 183.672 116.98C184.392 117.46 184.906 118.133 185.212 119L182.812 120.04C182.719 119.64 182.526 119.3 182.232 119.02C181.939 118.74 181.532 118.6 181.012 118.6C180.412 118.6 179.959 118.8 179.652 119.2C179.346 119.587 179.192 120.113 179.192 120.78V122.74C179.192 123.407 179.346 123.933 179.652 124.32C179.959 124.707 180.412 124.9 181.012 124.9C181.546 124.9 181.966 124.76 182.272 124.48C182.592 124.187 182.826 123.807 182.972 123.34L185.272 124.34C184.926 125.34 184.386 126.073 183.652 126.54C182.932 127.007 182.052 127.24 181.012 127.24ZM192.667 127.24C191.893 127.24 191.2 127.113 190.587 126.86C189.987 126.607 189.473 126.24 189.047 125.76C188.633 125.28 188.313 124.7 188.087 124.02C187.86 123.34 187.747 122.58 187.747 121.74C187.747 120.9 187.86 120.14 188.087 119.46C188.313 118.78 188.633 118.207 189.047 117.74C189.473 117.26 189.987 116.893 190.587 116.64C191.2 116.387 191.893 116.26 192.667 116.26C193.44 116.26 194.127 116.387 194.727 116.64C195.34 116.893 195.853 117.26 196.267 117.74C196.693 118.207 197.02 118.78 197.247 119.46C197.473 120.14 197.587 120.9 197.587 121.74C197.587 122.58 197.473 123.34 197.247 124.02C197.02 124.7 196.693 125.28 196.267 125.76C195.853 126.24 195.34 126.607 194.727 126.86C194.127 127.113 193.44 127.24 192.667 127.24ZM192.667 124.9C193.253 124.9 193.707 124.72 194.027 124.36C194.347 124 194.507 123.487 194.507 122.82V120.68C194.507 120.013 194.347 119.5 194.027 119.14C193.707 118.78 193.253 118.6 192.667 118.6C192.08 118.6 191.627 118.78 191.307 119.14C190.987 119.5 190.827 120.013 190.827 120.68V122.82C190.827 123.487 190.987 124 191.307 124.36C191.627 124.72 192.08 124.9 192.667 124.9ZM207.536 125.24H207.436C207.356 125.52 207.229 125.787 207.056 126.04C206.882 126.28 206.669 126.493 206.416 126.68C206.176 126.853 205.896 126.987 205.576 127.08C205.269 127.187 204.949 127.24 204.616 127.24C203.282 127.24 202.276 126.773 201.596 125.84C200.916 124.893 200.576 123.527 200.576 121.74C200.576 119.953 200.916 118.593 201.596 117.66C202.276 116.727 203.282 116.26 204.616 116.26C205.296 116.26 205.896 116.447 206.416 116.82C206.949 117.193 207.289 117.673 207.436 118.26H207.536V112.2H210.496V127H207.536V125.24ZM205.596 124.84C206.156 124.84 206.616 124.707 206.976 124.44C207.349 124.16 207.536 123.78 207.536 123.3V120.2C207.536 119.72 207.349 119.347 206.976 119.08C206.616 118.8 206.156 118.66 205.596 118.66C205.036 118.66 204.569 118.86 204.196 119.26C203.836 119.647 203.656 120.173 203.656 120.84V122.66C203.656 123.327 203.836 123.86 204.196 124.26C204.569 124.647 205.036 124.84 205.596 124.84ZM219.044 127.24C218.244 127.24 217.53 127.113 216.904 126.86C216.277 126.593 215.744 126.227 215.304 125.76C214.877 125.28 214.55 124.7 214.324 124.02C214.11 123.34 214.004 122.58 214.004 121.74C214.004 120.913 214.11 120.167 214.324 119.5C214.537 118.82 214.85 118.24 215.264 117.76C215.69 117.28 216.21 116.913 216.824 116.66C217.437 116.393 218.137 116.26 218.924 116.26C219.79 116.26 220.53 116.407 221.144 116.7C221.77 116.993 222.277 117.387 222.664 117.88C223.064 118.373 223.35 118.947 223.524 119.6C223.71 120.24 223.804 120.913 223.804 121.62V122.5H217.064V122.66C217.064 123.353 217.25 123.907 217.624 124.32C217.997 124.72 218.584 124.92 219.384 124.92C219.997 124.92 220.497 124.8 220.884 124.56C221.27 124.307 221.63 124.007 221.964 123.66L223.444 125.5C222.977 126.047 222.364 126.473 221.604 126.78C220.857 127.087 220.004 127.24 219.044 127.24ZM218.984 118.44C218.384 118.44 217.91 118.64 217.564 119.04C217.23 119.427 217.064 119.947 217.064 120.6V120.76H220.744V120.58C220.744 119.94 220.597 119.427 220.304 119.04C220.024 118.64 219.584 118.44 218.984 118.44Z" fill="white" fill-opacity="0.7"/>
<path d="M22.078 234.228H26.824C27.636 234.228 28.266 234.457 28.714 234.914C29.1713 235.371 29.4 235.978 29.4 236.734C29.4 237.107 29.3487 237.425 29.246 237.686C29.1527 237.947 29.022 238.162 28.854 238.33C28.6953 238.498 28.504 238.624 28.28 238.708C28.0653 238.783 27.832 238.825 27.58 238.834V238.918C27.8133 238.918 28.056 238.96 28.308 239.044C28.5693 239.128 28.8073 239.263 29.022 239.45C29.2367 239.627 29.414 239.861 29.554 240.15C29.7033 240.439 29.778 240.794 29.778 241.214C29.778 241.597 29.7127 241.961 29.582 242.306C29.4607 242.642 29.288 242.936 29.064 243.188C28.84 243.44 28.574 243.641 28.266 243.79C27.958 243.93 27.622 244 27.258 244H22.078V234.228ZM24.206 242.208H26.656C26.936 242.208 27.1553 242.133 27.314 241.984C27.482 241.825 27.566 241.606 27.566 241.326V240.85C27.566 240.57 27.482 240.355 27.314 240.206C27.1553 240.047 26.936 239.968 26.656 239.968H24.206V242.208ZM24.206 238.232H26.32C26.6 238.232 26.8193 238.153 26.978 237.994C27.1367 237.835 27.216 237.616 27.216 237.336V236.916C27.216 236.636 27.1367 236.417 26.978 236.258C26.8193 236.099 26.6 236.02 26.32 236.02H24.206V238.232ZM34.4119 234.228V240.22C34.4119 240.911 34.5472 241.429 34.8179 241.774C35.0886 242.11 35.5412 242.278 36.1759 242.278C36.8106 242.278 37.2632 242.11 37.5339 241.774C37.8046 241.429 37.9399 240.911 37.9399 240.22V234.228H40.0119V239.996C40.0119 240.715 39.9419 241.34 39.8019 241.872C39.6712 242.395 39.4519 242.829 39.1439 243.174C38.8359 243.51 38.4392 243.762 37.9539 243.93C37.4686 244.089 36.8759 244.168 36.1759 244.168C35.4759 244.168 34.8832 244.089 34.3979 243.93C33.9126 243.762 33.5159 243.51 33.2079 243.174C32.8999 242.829 32.6759 242.395 32.5359 241.872C32.4052 241.34 32.3399 240.715 32.3399 239.996V234.228H34.4119ZM47.1706 236.118V244H45.0426V236.118H42.3966V234.228H49.8166V236.118H47.1706ZM56.5315 236.118V244H54.4035V236.118H51.7575V234.228H59.1775V236.118H56.5315ZM65.1778 244.168C64.5338 244.168 63.9458 244.061 63.4138 243.846C62.8818 243.631 62.4291 243.314 62.0558 242.894C61.6824 242.465 61.3931 241.937 61.1878 241.312C60.9824 240.677 60.8798 239.945 60.8798 239.114C60.8798 238.283 60.9824 237.555 61.1878 236.93C61.3931 236.295 61.6824 235.768 62.0558 235.348C62.4291 234.919 62.8818 234.597 63.4138 234.382C63.9458 234.167 64.5338 234.06 65.1778 234.06C65.8218 234.06 66.4098 234.167 66.9418 234.382C67.4738 234.597 67.9264 234.919 68.2998 235.348C68.6731 235.768 68.9624 236.295 69.1678 236.93C69.3731 237.555 69.4758 238.283 69.4758 239.114C69.4758 239.945 69.3731 240.677 69.1678 241.312C68.9624 241.937 68.6731 242.465 68.2998 242.894C67.9264 243.314 67.4738 243.631 66.9418 243.846C66.4098 244.061 65.8218 244.168 65.1778 244.168ZM65.1778 242.278C65.8218 242.278 66.3211 242.068 66.6758 241.648C67.0398 241.228 67.2218 240.626 67.2218 239.842V238.386C67.2218 237.602 67.0398 237 66.6758 236.58C66.3211 236.16 65.8218 235.95 65.1778 235.95C64.5338 235.95 64.0298 236.16 63.6658 236.58C63.3111 237 63.1338 237.602 63.1338 238.386V239.842C63.1338 240.626 63.3111 241.228 63.6658 241.648C64.0298 242.068 64.5338 242.278 65.1778 242.278ZM75.2139 239.38L74.2759 237.42H74.2339V244H72.2319V234.228H74.5559L77.2299 238.848L78.1679 240.808H78.2099V234.228H80.2119V244H77.8879L75.2139 239.38Z" fill="url(#paint1_linear)" fill-opacity="0.7"/>
<rect x="0.5" y="223.5" width="108" height="33.6508" rx="5.5" stroke="url(#paint2_linear)" stroke-opacity="0.7"/>
<path d="M120 219.41L118.449 218L114.5 221.59L110.551 218L109 219.41L112.949 223L109 226.59L110.551 228L114.5 224.41L118.449 228L120 226.59L116.051 223L120 219.41Z" fill="url(#paint3_linear)" fill-opacity="0.7"/>
<path d="M219 197V245H311" stroke="url(#paint4_linear)" stroke-opacity="0.7" stroke-width="3"/>
<path d="M229 228.479L247.273 210.266L272.909 235.819L301 207.819" stroke="url(#paint5_linear)" stroke-opacity="0.7" stroke-width="3"/>
<path d="M304.5 211.819L297 204.319L306.5 202.319L304.5 211.819Z" fill="url(#paint6_linear)" fill-opacity="0.7"/>
<g filter="url(#filter0_d)">
<circle cx="406.73" cy="200.243" r="5.71622" stroke="url(#paint7_linear)" stroke-opacity="0.7"/>
</g>
<g filter="url(#filter1_d)">
<circle cx="399.27" cy="174.757" r="3.22973" stroke="url(#paint8_linear)" stroke-opacity="0.7"/>
</g>
<g filter="url(#filter2_d)">
<circle cx="389.014" cy="203.662" r="6.64865" stroke="url(#paint9_linear)" stroke-opacity="0.7"/>
</g>
<g filter="url(#filter3_d)">
<circle cx="389.013" cy="189.986" r="3.54054" stroke="url(#paint10_linear)" stroke-opacity="0.7"/>
</g>
<g filter="url(#filter4_d)">
<circle cx="401.446" cy="216.716" r="4.78378" stroke="url(#paint11_linear)" stroke-opacity="0.7"/>
</g>
<g filter="url(#filter5_d)">
<circle cx="395.541" cy="155.486" r="1.98649" stroke="url(#paint12_linear)" stroke-opacity="0.7"/>
</g>
<g filter="url(#filter6_d)">
<circle cx="363.216" cy="185.946" r="5.71622" stroke="url(#paint13_linear)" stroke-opacity="0.7"/>
</g>
<rect x="-1" y="1" width="153" height="91.4815" rx="7" transform="matrix(1 0 0 -1 274 93.4815)" stroke="url(#paint14_linear)" stroke-opacity="0.7" stroke-width="2" stroke-miterlimit="1"/>
<rect x="-1" y="1" width="34" height="26" rx="4" transform="matrix(1 0 0 -1 332 61)" stroke="url(#paint15_linear)" stroke-opacity="0.7" stroke-width="2" stroke-miterlimit="1" stroke-dasharray="4 2"/>
<rect x="-1" y="1" width="34" height="26" rx="4" transform="matrix(1 0 0 -1 284 61)" stroke="url(#paint16_linear)" stroke-opacity="0.7" stroke-width="2" stroke-miterlimit="1" stroke-dasharray="4 2"/>
<rect x="-1" y="1" width="34" height="26" rx="4" transform="matrix(1 0 0 -1 380 61)" stroke="url(#paint17_linear)" stroke-opacity="0.7" stroke-width="2" stroke-miterlimit="1" stroke-dasharray="4 2"/>
<line x1="289" y1="73" x2="311.37" y2="73" stroke="url(#paint18_linear)" stroke-opacity="0.7" stroke-width="2" stroke-miterlimit="1"/>
<line x1="339" y1="73" x2="361.37" y2="73" stroke="url(#paint19_linear)" stroke-opacity="0.7" stroke-width="2" stroke-miterlimit="1"/>
<line x1="388" y1="73" x2="410.37" y2="73" stroke="url(#paint20_linear)" stroke-opacity="0.7" stroke-width="2" stroke-miterlimit="1"/>
<circle cx="412" cy="9" r="2.5" stroke="url(#paint21_linear)" stroke-opacity="0.7" stroke-miterlimit="1"/>
<circle cx="405" cy="9" r="2.5" stroke="url(#paint22_linear)" stroke-opacity="0.7" stroke-miterlimit="1"/>
<circle cx="398" cy="9" r="2.5" stroke="url(#paint23_linear)" stroke-opacity="0.7" stroke-miterlimit="1"/>
<defs>
<filter id="filter0_d" x="394.513" y="191.027" width="24.4324" height="24.4324" filterUnits="userSpaceOnUse" color-interpolation-filters="sRGB">
<feFlood flood-opacity="0" result="BackgroundImageFix"/>
<feColorMatrix in="SourceAlpha" type="matrix" values="0 0 0 0 0 0 0 0 0 0 0 0 0 0 0 0 0 0 127 0"/>
<feOffset dy="3"/>
<feGaussianBlur stdDeviation="3"/>
<feColorMatrix type="matrix" values="0 0 0 0 0 0 0 0 0 0 0 0 0 0 0 0 0 0 0.25 0"/>
<feBlend mode="normal" in2="BackgroundImageFix" result="effect1_dropShadow"/>
<feBlend mode="normal" in="SourceGraphic" in2="effect1_dropShadow" result="shape"/>
</filter>
<filter id="filter1_d" x="389.541" y="168.027" width="19.4595" height="19.4595" filterUnits="userSpaceOnUse" color-interpolation-filters="sRGB">
<feFlood flood-opacity="0" result="BackgroundImageFix"/>
<feColorMatrix in="SourceAlpha" type="matrix" values="0 0 0 0 0 0 0 0 0 0 0 0 0 0 0 0 0 0 127 0"/>
<feOffset dy="3"/>
<feGaussianBlur stdDeviation="3"/>
<feColorMatrix type="matrix" values="0 0 0 0 0 0 0 0 0 0 0 0 0 0 0 0 0 0 0.25 0"/>
<feBlend mode="normal" in2="BackgroundImageFix" result="effect1_dropShadow"/>
<feBlend mode="normal" in="SourceGraphic" in2="effect1_dropShadow" result="shape"/>
</filter>
<filter id="filter2_d" x="375.865" y="193.514" width="26.2973" height="26.2973" filterUnits="userSpaceOnUse" color-interpolation-filters="sRGB">
<feFlood flood-opacity="0" result="BackgroundImageFix"/>
<feColorMatrix in="SourceAlpha" type="matrix" values="0 0 0 0 0 0 0 0 0 0 0 0 0 0 0 0 0 0 127 0"/>
<feOffset dy="3"/>
<feGaussianBlur stdDeviation="3"/>
<feColorMatrix type="matrix" values="0 0 0 0 0 0 0 0 0 0 0 0 0 0 0 0 0 0 0.25 0"/>
<feBlend mode="normal" in2="BackgroundImageFix" result="effect1_dropShadow"/>
<feBlend mode="normal" in="SourceGraphic" in2="effect1_dropShadow" result="shape"/>
</filter>
<filter id="filter3_d" x="378.973" y="182.946" width="20.0811" height="20.0811" filterUnits="userSpaceOnUse" color-interpolation-filters="sRGB">
<feFlood flood-opacity="0" result="BackgroundImageFix"/>
<feColorMatrix in="SourceAlpha" type="matrix" values="0 0 0 0 0 0 0 0 0 0 0 0 0 0 0 0 0 0 127 0"/>
<feOffset dy="3"/>
<feGaussianBlur stdDeviation="3"/>
<feColorMatrix type="matrix" values="0 0 0 0 0 0 0 0 0 0 0 0 0 0 0 0 0 0 0.25 0"/>
<feBlend mode="normal" in2="BackgroundImageFix" result="effect1_dropShadow"/>
<feBlend mode="normal" in="SourceGraphic" in2="effect1_dropShadow" result="shape"/>
</filter>
<filter id="filter4_d" x="390.162" y="208.432" width="22.5676" height="22.5676" filterUnits="userSpaceOnUse" color-interpolation-filters="sRGB">
<feFlood flood-opacity="0" result="BackgroundImageFix"/>
<feColorMatrix in="SourceAlpha" type="matrix" values="0 0 0 0 0 0 0 0 0 0 0 0 0 0 0 0 0 0 127 0"/>
<feOffset dy="3"/>
<feGaussianBlur stdDeviation="3"/>
<feColorMatrix type="matrix" values="0 0 0 0 0 0 0 0 0 0 0 0 0 0 0 0 0 0 0.25 0"/>
<feBlend mode="normal" in2="BackgroundImageFix" result="effect1_dropShadow"/>
<feBlend mode="normal" in="SourceGraphic" in2="effect1_dropShadow" result="shape"/>
</filter>
<filter id="filter5_d" x="387.054" y="150" width="16.973" height="16.973" filterUnits="userSpaceOnUse" color-interpolation-filters="sRGB">
<feFlood flood-opacity="0" result="BackgroundImageFix"/>
<feColorMatrix in="SourceAlpha" type="matrix" values="0 0 0 0 0 0 0 0 0 0 0 0 0 0 0 0 0 0 127 0"/>
<feOffset dy="3"/>
<feGaussianBlur stdDeviation="3"/>
<feColorMatrix type="matrix" values="0 0 0 0 0 0 0 0 0 0 0 0 0 0 0 0 0 0 0.25 0"/>
<feBlend mode="normal" in2="BackgroundImageFix" result="effect1_dropShadow"/>
<feBlend mode="normal" in="SourceGraphic" in2="effect1_dropShadow" result="shape"/>
</filter>
<filter id="filter6_d" x="351" y="176.73" width="24.4324" height="24.4324" filterUnits="userSpaceOnUse" color-interpolation-filters="sRGB">
<feFlood flood-opacity="0" result="BackgroundImageFix"/>
<feColorMatrix in="SourceAlpha" type="matrix" values="0 0 0 0 0 0 0 0 0 0 0 0 0 0 0 0 0 0 127 0"/>
<feOffset dy="3"/>
<feGaussianBlur stdDeviation="3"/>
<feColorMatrix type="matrix" values="0 0 0 0 0 0 0 0 0 0 0 0 0 0 0 0 0 0 0.25 0"/>
<feBlend mode="normal" in2="BackgroundImageFix" result="effect1_dropShadow"/>
<feBlend mode="normal" in="SourceGraphic" in2="effect1_dropShadow" result="shape"/>
</filter>
<linearGradient id="paint0_linear" x1="205.5" y1="106" x2="205.5" y2="132" gradientUnits="userSpaceOnUse">
<stop stop-color="#FEDA7C"/>
<stop offset="1" stop-color="#F5C879"/>
</linearGradient>
<linearGradient id="paint1_linear" x1="55" y1="230" x2="55" y2="250" gradientUnits="userSpaceOnUse">
<stop stop-color="#FEDA7C"/>
<stop offset="1" stop-color="#F5C879"/>
</linearGradient>
<linearGradient id="paint2_linear" x1="54.5" y1="223" x2="54.5" y2="257.651" gradientUnits="userSpaceOnUse">
<stop stop-color="#FEDA7C"/>
<stop offset="1" stop-color="#F5C879"/>
</linearGradient>
<linearGradient id="paint3_linear" x1="114.5" y1="218" x2="114.5" y2="228" gradientUnits="userSpaceOnUse">
<stop stop-color="#FEDA7C"/>
<stop offset="1" stop-color="#F5C879"/>
</linearGradient>
<linearGradient id="paint4_linear" x1="265" y1="197" x2="265" y2="245" gradientUnits="userSpaceOnUse">
<stop stop-color="#FEDA7C"/>
<stop offset="1" stop-color="#F5C879"/>
</linearGradient>
<linearGradient id="paint5_linear" x1="265" y1="207.819" x2="265" y2="235.819" gradientUnits="userSpaceOnUse">
<stop stop-color="#FEDA7C"/>
<stop offset="1" stop-color="#F5C879"/>
</linearGradient>
<linearGradient id="paint6_linear" x1="301.789" y1="202.16" x2="301.466" y2="211.716" gradientUnits="userSpaceOnUse">
<stop stop-color="#FEDA7C"/>
<stop offset="1" stop-color="#F5C879"/>
</linearGradient>
<linearGradient id="paint7_linear" x1="406.73" y1="194.027" x2="406.73" y2="206.459" gradientUnits="userSpaceOnUse">
<stop stop-color="#FEDA7C"/>
<stop offset="1" stop-color="#F5C879"/>
</linearGradient>
<linearGradient id="paint8_linear" x1="399.27" y1="171.027" x2="399.27" y2="178.486" gradientUnits="userSpaceOnUse">
<stop stop-color="#FEDA7C"/>
<stop offset="1" stop-color="#F5C879"/>
</linearGradient>
<linearGradient id="paint9_linear" x1="389.014" y1="196.514" x2="389.014" y2="210.811" gradientUnits="userSpaceOnUse">
<stop stop-color="#FEDA7C"/>
<stop offset="1" stop-color="#F5C879"/>
</linearGradient>
<linearGradient id="paint10_linear" x1="389.014" y1="185.946" x2="389.014" y2="194.027" gradientUnits="userSpaceOnUse">
<stop stop-color="#FEDA7C"/>
<stop offset="1" stop-color="#F5C879"/>
</linearGradient>
<linearGradient id="paint11_linear" x1="401.446" y1="211.432" x2="401.446" y2="222" gradientUnits="userSpaceOnUse">
<stop stop-color="#FEDA7C"/>
<stop offset="1" stop-color="#F5C879"/>
</linearGradient>
<linearGradient id="paint12_linear" x1="395.541" y1="153" x2="395.541" y2="157.973" gradientUnits="userSpaceOnUse">
<stop stop-color="#FEDA7C"/>
<stop offset="1" stop-color="#F5C879"/>
</linearGradient>
<linearGradient id="paint13_linear" x1="363.216" y1="179.73" x2="363.216" y2="192.162" gradientUnits="userSpaceOnUse">
<stop stop-color="#FEDA7C"/>
<stop offset="1" stop-color="#F5C879"/>
</linearGradient>
<linearGradient id="paint14_linear" x1="75.5" y1="0" x2="75.5" y2="89.4815" gradientUnits="userSpaceOnUse">
<stop stop-color="#FEDA7C"/>
<stop offset="1" stop-color="#F5C879"/>
</linearGradient>
<linearGradient id="paint15_linear" x1="16" y1="0" x2="16" y2="24" gradientUnits="userSpaceOnUse">
<stop stop-color="#FEDA7C"/>
<stop offset="1" stop-color="#F5C879"/>
</linearGradient>
<linearGradient id="paint16_linear" x1="16" y1="0" x2="16" y2="24" gradientUnits="userSpaceOnUse">
<stop stop-color="#FEDA7C"/>
<stop offset="1" stop-color="#F5C879"/>
</linearGradient>
<linearGradient id="paint17_linear" x1="16" y1="0" x2="16" y2="24" gradientUnits="userSpaceOnUse">
<stop stop-color="#FEDA7C"/>
<stop offset="1" stop-color="#F5C879"/>
</linearGradient>
<linearGradient id="paint18_linear" x1="300.185" y1="74" x2="300.185" y2="75" gradientUnits="userSpaceOnUse">
<stop stop-color="#FEDA7C"/>
<stop offset="1" stop-color="#F5C879"/>
</linearGradient>
<linearGradient id="paint19_linear" x1="350.185" y1="74" x2="350.185" y2="75" gradientUnits="userSpaceOnUse">
<stop stop-color="#FEDA7C"/>
<stop offset="1" stop-color="#F5C879"/>
</linearGradient>
<linearGradient id="paint20_linear" x1="399.185" y1="74" x2="399.185" y2="75" gradientUnits="userSpaceOnUse">
<stop stop-color="#FEDA7C"/>
<stop offset="1" stop-color="#F5C879"/>
</linearGradient>
<linearGradient id="paint21_linear" x1="412" y1="7" x2="412" y2="11" gradientUnits="userSpaceOnUse">
<stop stop-color="#FEDA7C"/>
<stop offset="1" stop-color="#F5C879"/>
</linearGradient>
<linearGradient id="paint22_linear" x1="405" y1="7" x2="405" y2="11" gradientUnits="userSpaceOnUse">
<stop stop-color="#FEDA7C"/>
<stop offset="1" stop-color="#F5C879"/>
</linearGradient>
<linearGradient id="paint23_linear" x1="398" y1="7" x2="398" y2="11" gradientUnits="userSpaceOnUse">
<stop stop-color="#FEDA7C"/>
<stop offset="1" stop-color="#F5C879"/>
</linearGradient>
</defs>
</svg>
