<svg width="310" height="282" viewBox="0 0 310 282" fill="none" xmlns="http://www.w3.org/2000/svg">
<path d="M264.957 275.602V274.794L268.619 272.387V273.772L266.407 275.166V275.231L268.619 276.625V278.019L264.957 275.602ZM293.725 279.403L296.495 271.123H297.628L294.859 279.403H293.725ZM299.58 276.625L301.791 275.231V275.166L299.58 273.772V272.387L303.241 274.785V275.593L299.58 278.019V276.625Z" fill="url(#paint0_linear)" fill-opacity="0.7"/>
<path d="M272.834 278.112C272.468 278.112 272.143 278.053 271.858 277.935C271.573 277.811 271.335 277.641 271.143 277.424C270.951 277.201 270.805 276.931 270.706 276.615C270.607 276.299 270.557 275.946 270.557 275.556C270.557 275.166 270.607 274.816 270.706 274.506C270.805 274.19 270.951 273.92 271.143 273.697C271.335 273.474 271.573 273.304 271.858 273.186C272.143 273.069 272.468 273.01 272.834 273.01C273.33 273.01 273.742 273.121 274.07 273.344C274.404 273.567 274.643 273.88 274.785 274.283L273.67 274.766C273.627 274.58 273.537 274.422 273.401 274.292C273.265 274.162 273.076 274.097 272.834 274.097C272.555 274.097 272.345 274.19 272.202 274.376C272.06 274.555 271.988 274.8 271.988 275.11V276.021C271.988 276.33 272.06 276.575 272.202 276.755C272.345 276.934 272.555 277.024 272.834 277.024C273.082 277.024 273.277 276.959 273.419 276.829C273.568 276.693 273.677 276.516 273.745 276.299L274.813 276.764C274.652 277.229 274.401 277.569 274.061 277.786C273.726 278.003 273.317 278.112 272.834 278.112ZM278.249 278.112C277.89 278.112 277.568 278.053 277.283 277.935C277.004 277.817 276.765 277.647 276.567 277.424C276.375 277.201 276.226 276.931 276.121 276.615C276.016 276.299 275.963 275.946 275.963 275.556C275.963 275.166 276.016 274.813 276.121 274.497C276.226 274.181 276.375 273.914 276.567 273.697C276.765 273.474 277.004 273.304 277.283 273.186C277.568 273.069 277.89 273.01 278.249 273.01C278.608 273.01 278.927 273.069 279.206 273.186C279.491 273.304 279.73 273.474 279.922 273.697C280.12 273.914 280.272 274.181 280.377 274.497C280.483 274.813 280.535 275.166 280.535 275.556C280.535 275.946 280.483 276.299 280.377 276.615C280.272 276.931 280.12 277.201 279.922 277.424C279.73 277.647 279.491 277.817 279.206 277.935C278.927 278.053 278.608 278.112 278.249 278.112ZM278.249 277.024C278.522 277.024 278.732 276.941 278.881 276.773C279.03 276.606 279.104 276.368 279.104 276.058V275.063C279.104 274.754 279.03 274.515 278.881 274.348C278.732 274.181 278.522 274.097 278.249 274.097C277.977 274.097 277.766 274.181 277.617 274.348C277.469 274.515 277.394 274.754 277.394 275.063V276.058C277.394 276.368 277.469 276.606 277.617 276.773C277.766 276.941 277.977 277.024 278.249 277.024ZM285.158 277.182H285.112C285.074 277.312 285.015 277.436 284.935 277.554C284.854 277.665 284.755 277.765 284.638 277.851C284.526 277.932 284.396 277.994 284.247 278.037C284.105 278.087 283.956 278.112 283.801 278.112C283.182 278.112 282.714 277.895 282.398 277.461C282.082 277.021 281.924 276.386 281.924 275.556C281.924 274.726 282.082 274.094 282.398 273.66C282.714 273.227 283.182 273.01 283.801 273.01C284.117 273.01 284.396 273.096 284.638 273.27C284.885 273.443 285.043 273.666 285.112 273.939H285.158V271.123H286.533V278H285.158V277.182ZM284.257 276.996C284.517 276.996 284.73 276.934 284.898 276.811C285.071 276.68 285.158 276.504 285.158 276.281V274.84C285.158 274.617 285.071 274.444 284.898 274.32C284.73 274.19 284.517 274.125 284.257 274.125C283.996 274.125 283.78 274.218 283.606 274.404C283.439 274.583 283.355 274.828 283.355 275.138V275.983C283.355 276.293 283.439 276.541 283.606 276.727C283.78 276.907 283.996 276.996 284.257 276.996ZM290.505 278.112C290.133 278.112 289.802 278.053 289.511 277.935C289.22 277.811 288.972 277.641 288.767 277.424C288.569 277.201 288.417 276.931 288.312 276.615C288.213 276.299 288.163 275.946 288.163 275.556C288.163 275.172 288.213 274.825 288.312 274.515C288.411 274.199 288.557 273.93 288.749 273.707C288.947 273.484 289.189 273.313 289.474 273.196C289.759 273.072 290.084 273.01 290.449 273.01C290.852 273.01 291.196 273.078 291.481 273.214C291.772 273.35 292.007 273.533 292.187 273.762C292.373 273.992 292.506 274.258 292.587 274.562C292.673 274.859 292.717 275.172 292.717 275.5V275.909H289.585V275.983C289.585 276.306 289.672 276.563 289.845 276.755C290.019 276.941 290.291 277.034 290.663 277.034C290.948 277.034 291.18 276.978 291.36 276.866C291.54 276.749 291.707 276.609 291.862 276.448L292.55 277.303C292.333 277.557 292.048 277.755 291.695 277.898C291.348 278.04 290.951 278.112 290.505 278.112ZM290.477 274.023C290.198 274.023 289.979 274.116 289.817 274.301C289.663 274.481 289.585 274.723 289.585 275.026V275.101H291.295V275.017C291.295 274.72 291.227 274.481 291.091 274.301C290.96 274.116 290.756 274.023 290.477 274.023Z" fill="white" fill-opacity="0.7"/>
<path d="M10.2585 14.0352H12.4637C12.841 14.0352 13.1337 14.1415 13.3419 14.354C13.5543 14.5665 13.6606 14.8484 13.6606 15.1996C13.6606 15.3731 13.6367 15.5205 13.589 15.642C13.5457 15.7634 13.485 15.8631 13.4069 15.9412C13.3332 16.0193 13.2443 16.0778 13.1402 16.1168C13.0405 16.1515 12.932 16.171 12.8149 16.1754V16.2144C12.9234 16.2144 13.0361 16.2339 13.1532 16.273C13.2746 16.312 13.3852 16.3749 13.485 16.4616C13.5847 16.544 13.6671 16.6524 13.7322 16.7869C13.8015 16.9213 13.8362 17.0861 13.8362 17.2812C13.8362 17.459 13.8059 17.6282 13.7452 17.7886C13.6888 17.9448 13.6086 18.0814 13.5045 18.1985C13.4004 18.3155 13.2768 18.4088 13.1337 18.4782C12.9906 18.5432 12.8345 18.5757 12.6653 18.5757H10.2585V14.0352ZM11.2472 17.7431H12.3856C12.5157 17.7431 12.6176 17.7084 12.6913 17.639C12.7694 17.5653 12.8084 17.4634 12.8084 17.3333V17.1121C12.8084 16.982 12.7694 16.8823 12.6913 16.8129C12.6176 16.7392 12.5157 16.7023 12.3856 16.7023H11.2472V17.7431ZM11.2472 15.8957H12.2295C12.3596 15.8957 12.4615 15.8588 12.5352 15.7851C12.6089 15.7114 12.6458 15.6094 12.6458 15.4793V15.2842C12.6458 15.1541 12.6089 15.0522 12.5352 14.9785C12.4615 14.9047 12.3596 14.8679 12.2295 14.8679H11.2472V15.8957ZM15.9894 14.0352V16.8194C15.9894 17.1403 16.0522 17.381 16.178 17.5414C16.3038 17.6976 16.5141 17.7756 16.809 17.7756C17.1039 17.7756 17.3142 17.6976 17.44 17.5414C17.5657 17.381 17.6286 17.1403 17.6286 16.8194V14.0352H18.5914V16.7153C18.5914 17.0492 18.5589 17.3398 18.4938 17.587C18.4331 17.8298 18.3312 18.0315 18.1881 18.1919C18.045 18.3481 17.8606 18.4652 17.6351 18.5432C17.4096 18.6169 17.1342 18.6538 16.809 18.6538C16.4837 18.6538 16.2084 18.6169 15.9829 18.5432C15.7573 18.4652 15.573 18.3481 15.4299 18.1919C15.2868 18.0315 15.1827 17.8298 15.1177 17.587C15.057 17.3398 15.0266 17.0492 15.0266 16.7153V14.0352H15.9894ZM21.9176 14.9134V18.5757H20.9289V14.9134H19.6994V14.0352H23.1471V14.9134H21.9176ZM26.2671 14.9134V18.5757H25.2784V14.9134H24.0489V14.0352H27.4966V14.9134H26.2671ZM30.2846 18.6538C29.9854 18.6538 29.7122 18.6039 29.465 18.5042C29.2178 18.4044 29.0075 18.257 28.834 18.0618C28.6605 17.8624 28.5261 17.6173 28.4307 17.3268C28.3353 17.0319 28.2876 16.6914 28.2876 16.3055C28.2876 15.9195 28.3353 15.5813 28.4307 15.2907C28.5261 14.9958 28.6605 14.7508 28.834 14.5556C29.0075 14.3561 29.2178 14.2065 29.465 14.1068C29.7122 14.007 29.9854 13.9572 30.2846 13.9572C30.5838 13.9572 30.8571 14.007 31.1042 14.1068C31.3514 14.2065 31.5618 14.3561 31.7352 14.5556C31.9087 14.7508 32.0431 14.9958 32.1385 15.2907C32.234 15.5813 32.2817 15.9195 32.2817 16.3055C32.2817 16.6914 32.234 17.0319 32.1385 17.3268C32.0431 17.6173 31.9087 17.8624 31.7352 18.0618C31.5618 18.257 31.3514 18.4044 31.1042 18.5042C30.8571 18.6039 30.5838 18.6538 30.2846 18.6538ZM30.2846 17.7756C30.5838 17.7756 30.8159 17.678 30.9807 17.4829C31.1498 17.2877 31.2343 17.008 31.2343 16.6437V15.9672C31.2343 15.6029 31.1498 15.3232 30.9807 15.1281C30.8159 14.9329 30.5838 14.8353 30.2846 14.8353C29.9854 14.8353 29.7512 14.9329 29.5821 15.1281C29.4173 15.3232 29.3349 15.6029 29.3349 15.9672V16.6437C29.3349 17.008 29.4173 17.2877 29.5821 17.4829C29.7512 17.678 29.9854 17.7756 30.2846 17.7756ZM34.9479 16.4291L34.512 15.5184H34.4925V18.5757H33.5623V14.0352H34.6421L35.8846 16.1819L36.3204 17.0926H36.3399V14.0352H37.2702V18.5757H36.1903L34.9479 16.4291Z" fill="url(#paint1_linear)" fill-opacity="0.7"/>
<rect x="0.232323" y="9.55557" width="50.1818" height="15.6357" rx="2.55556" stroke="url(#paint2_linear)" stroke-opacity="0.4" stroke-width="0.464646"/>
<path d="M55.7576 7.65515L55.0369 7L53.202 8.66808L51.3672 7L50.6465 7.65515L52.4814 9.32323L50.6465 10.9913L51.3672 11.6465L53.202 9.97838L55.0369 11.6465L55.7576 10.9913L53.9227 9.32323L55.7576 7.65515Z" fill="url(#paint3_linear)" fill-opacity="0.7"/>
<path d="M229 176V198.303H271.747" stroke="url(#paint4_linear)" stroke-opacity="0.4" stroke-width="1.39394"/>
<path d="M233.646 190.627L242.137 182.164L254.049 194.037L267.101 181.027" stroke="url(#paint5_linear)" stroke-opacity="0.4" stroke-width="1.39394"/>
<path d="M268.727 182.886L265.243 179.401L269.657 178.472L268.727 182.886Z" fill="url(#paint6_linear)" fill-opacity="0.7"/>
<rect x="-0.464646" y="0.464646" width="71.0909" height="42.5065" rx="3.25253" transform="matrix(1 0 0 -1 237 43.5066)" stroke="url(#paint7_linear)" stroke-opacity="0.4" stroke-width="0.929293" stroke-miterlimit="1"/>
<rect x="-0.464646" y="0.464646" width="15.798" height="12.0808" rx="1.85859" transform="matrix(1 0 0 -1 263.949 28.4142)" stroke="url(#paint8_linear)" stroke-opacity="0.4" stroke-width="0.929293" stroke-miterlimit="1" stroke-dasharray="1.86 0.93"/>
<rect x="-0.464646" y="0.464646" width="15.798" height="12.0808" rx="1.85859" transform="matrix(1 0 0 -1 241.646 28.4142)" stroke="url(#paint9_linear)" stroke-opacity="0.4" stroke-width="0.929293" stroke-miterlimit="1" stroke-dasharray="1.86 0.93"/>
<rect x="-0.464646" y="0.464646" width="15.798" height="12.0808" rx="1.85859" transform="matrix(1 0 0 -1 286.253 28.4142)" stroke="url(#paint10_linear)" stroke-opacity="0.4" stroke-width="0.929293" stroke-miterlimit="1" stroke-dasharray="1.86 0.93"/>
<line x1="243.97" y1="33.9899" x2="254.364" y2="33.9899" stroke="url(#paint11_linear)" stroke-opacity="0.4" stroke-width="0.929293" stroke-miterlimit="1"/>
<line x1="267.202" y1="33.9899" x2="277.596" y2="33.9899" stroke="url(#paint12_linear)" stroke-opacity="0.4" stroke-width="0.929293" stroke-miterlimit="1"/>
<line x1="289.97" y1="33.9899" x2="300.364" y2="33.9899" stroke="url(#paint13_linear)" stroke-opacity="0.4" stroke-width="0.929293" stroke-miterlimit="1"/>
<g filter="url(#filter0_d)">
<circle cx="303.755" cy="95.3811" r="3.01233" stroke="url(#paint14_linear)" stroke-opacity="0.6" stroke-width="0.464646"/>
</g>
<g filter="url(#filter1_d)">
<circle cx="299.862" cy="82.078" r="1.71447" stroke="url(#paint15_linear)" stroke-opacity="0.6" stroke-width="0.464646"/>
</g>
<g filter="url(#filter2_d)">
<circle cx="294.508" cy="97.1656" r="3.49903" stroke="url(#paint16_linear)" stroke-opacity="0.6" stroke-width="0.464646"/>
</g>
<g filter="url(#filter3_d)">
<circle cx="294.508" cy="90.0274" r="1.8767" stroke="url(#paint17_linear)" stroke-opacity="0.6" stroke-width="0.464646"/>
</g>
<g filter="url(#filter4_d)">
<circle cx="300.997" cy="103.979" r="2.52563" stroke="url(#paint18_linear)" stroke-opacity="0.6" stroke-width="0.464646"/>
</g>
<g filter="url(#filter5_d)">
<circle cx="297.915" cy="72.0195" r="1.06554" stroke="url(#paint19_linear)" stroke-opacity="0.6" stroke-width="0.464646"/>
</g>
<g filter="url(#filter6_d)">
<circle cx="281.043" cy="87.9184" r="3.01233" stroke="url(#paint20_linear)" stroke-opacity="0.6" stroke-width="0.464646"/>
</g>
<defs>
<filter id="filter0_d" x="297.723" y="90.7425" width="12.0651" height="12.0651" filterUnits="userSpaceOnUse" color-interpolation-filters="sRGB">
<feFlood flood-opacity="0" result="BackgroundImageFix"/>
<feColorMatrix in="SourceAlpha" type="matrix" values="0 0 0 0 0 0 0 0 0 0 0 0 0 0 0 0 0 0 127 0"/>
<feOffset dy="1.39394"/>
<feGaussianBlur stdDeviation="1.39394"/>
<feColorMatrix type="matrix" values="0 0 0 0 0 0 0 0 0 0 0 0 0 0 0 0 0 0 0.25 0"/>
<feBlend mode="normal" in2="BackgroundImageFix" result="effect1_dropShadow"/>
<feBlend mode="normal" in="SourceGraphic" in2="effect1_dropShadow" result="shape"/>
</filter>
<filter id="filter1_d" x="295.127" y="78.7373" width="9.46934" height="9.46934" filterUnits="userSpaceOnUse" color-interpolation-filters="sRGB">
<feFlood flood-opacity="0" result="BackgroundImageFix"/>
<feColorMatrix in="SourceAlpha" type="matrix" values="0 0 0 0 0 0 0 0 0 0 0 0 0 0 0 0 0 0 127 0"/>
<feOffset dy="1.39394"/>
<feGaussianBlur stdDeviation="1.39394"/>
<feColorMatrix type="matrix" values="0 0 0 0 0 0 0 0 0 0 0 0 0 0 0 0 0 0 0.25 0"/>
<feBlend mode="normal" in2="BackgroundImageFix" result="effect1_dropShadow"/>
<feBlend mode="normal" in="SourceGraphic" in2="effect1_dropShadow" result="shape"/>
</filter>
<filter id="filter2_d" x="287.989" y="92.0403" width="13.0385" height="13.0385" filterUnits="userSpaceOnUse" color-interpolation-filters="sRGB">
<feFlood flood-opacity="0" result="BackgroundImageFix"/>
<feColorMatrix in="SourceAlpha" type="matrix" values="0 0 0 0 0 0 0 0 0 0 0 0 0 0 0 0 0 0 127 0"/>
<feOffset dy="1.39394"/>
<feGaussianBlur stdDeviation="1.39394"/>
<feColorMatrix type="matrix" values="0 0 0 0 0 0 0 0 0 0 0 0 0 0 0 0 0 0 0.25 0"/>
<feBlend mode="normal" in2="BackgroundImageFix" result="effect1_dropShadow"/>
<feBlend mode="normal" in="SourceGraphic" in2="effect1_dropShadow" result="shape"/>
</filter>
<filter id="filter3_d" x="289.611" y="86.5245" width="9.79381" height="9.79381" filterUnits="userSpaceOnUse" color-interpolation-filters="sRGB">
<feFlood flood-opacity="0" result="BackgroundImageFix"/>
<feColorMatrix in="SourceAlpha" type="matrix" values="0 0 0 0 0 0 0 0 0 0 0 0 0 0 0 0 0 0 127 0"/>
<feOffset dy="1.39394"/>
<feGaussianBlur stdDeviation="1.39394"/>
<feColorMatrix type="matrix" values="0 0 0 0 0 0 0 0 0 0 0 0 0 0 0 0 0 0 0.25 0"/>
<feBlend mode="normal" in2="BackgroundImageFix" result="effect1_dropShadow"/>
<feBlend mode="normal" in="SourceGraphic" in2="effect1_dropShadow" result="shape"/>
</filter>
<filter id="filter4_d" x="295.452" y="99.8275" width="11.0917" height="11.0917" filterUnits="userSpaceOnUse" color-interpolation-filters="sRGB">
<feFlood flood-opacity="0" result="BackgroundImageFix"/>
<feColorMatrix in="SourceAlpha" type="matrix" values="0 0 0 0 0 0 0 0 0 0 0 0 0 0 0 0 0 0 127 0"/>
<feOffset dy="1.39394"/>
<feGaussianBlur stdDeviation="1.39394"/>
<feColorMatrix type="matrix" values="0 0 0 0 0 0 0 0 0 0 0 0 0 0 0 0 0 0 0.25 0"/>
<feBlend mode="normal" in2="BackgroundImageFix" result="effect1_dropShadow"/>
<feBlend mode="normal" in="SourceGraphic" in2="effect1_dropShadow" result="shape"/>
</filter>
<filter id="filter5_d" x="293.829" y="69.3277" width="8.17148" height="8.17148" filterUnits="userSpaceOnUse" color-interpolation-filters="sRGB">
<feFlood flood-opacity="0" result="BackgroundImageFix"/>
<feColorMatrix in="SourceAlpha" type="matrix" values="0 0 0 0 0 0 0 0 0 0 0 0 0 0 0 0 0 0 127 0"/>
<feOffset dy="1.39394"/>
<feGaussianBlur stdDeviation="1.39394"/>
<feColorMatrix type="matrix" values="0 0 0 0 0 0 0 0 0 0 0 0 0 0 0 0 0 0 0.25 0"/>
<feBlend mode="normal" in2="BackgroundImageFix" result="effect1_dropShadow"/>
<feBlend mode="normal" in="SourceGraphic" in2="effect1_dropShadow" result="shape"/>
</filter>
<filter id="filter6_d" x="275.01" y="83.2798" width="12.0651" height="12.0651" filterUnits="userSpaceOnUse" color-interpolation-filters="sRGB">
<feFlood flood-opacity="0" result="BackgroundImageFix"/>
<feColorMatrix in="SourceAlpha" type="matrix" values="0 0 0 0 0 0 0 0 0 0 0 0 0 0 0 0 0 0 127 0"/>
<feOffset dy="1.39394"/>
<feGaussianBlur stdDeviation="1.39394"/>
<feColorMatrix type="matrix" values="0 0 0 0 0 0 0 0 0 0 0 0 0 0 0 0 0 0 0.25 0"/>
<feBlend mode="normal" in2="BackgroundImageFix" result="effect1_dropShadow"/>
<feBlend mode="normal" in="SourceGraphic" in2="effect1_dropShadow" result="shape"/>
</filter>
<linearGradient id="paint0_linear" x1="284.212" y1="269" x2="284.212" y2="281.081" gradientUnits="userSpaceOnUse">
<stop stop-color="#FEDA7C"/>
<stop offset="1" stop-color="#F5C879"/>
</linearGradient>
<linearGradient id="paint1_linear" x1="25.5555" y1="12.5757" x2="25.5555" y2="21.8687" gradientUnits="userSpaceOnUse">
<stop stop-color="#FEDA7C"/>
<stop offset="1" stop-color="#F5C879"/>
</linearGradient>
<linearGradient id="paint2_linear" x1="25.3232" y1="9.32324" x2="25.3232" y2="25.4236" gradientUnits="userSpaceOnUse">
<stop stop-color="#FEDA7C"/>
<stop offset="1" stop-color="#F5C879"/>
</linearGradient>
<linearGradient id="paint3_linear" x1="53.202" y1="7" x2="53.202" y2="11.6465" gradientUnits="userSpaceOnUse">
<stop stop-color="#FEDA7C"/>
<stop offset="1" stop-color="#F5C879"/>
</linearGradient>
<linearGradient id="paint4_linear" x1="250.374" y1="176" x2="250.374" y2="198.303" gradientUnits="userSpaceOnUse">
<stop stop-color="#FEDA7C"/>
<stop offset="1" stop-color="#F5C879"/>
</linearGradient>
<linearGradient id="paint5_linear" x1="250.374" y1="181.027" x2="250.374" y2="194.037" gradientUnits="userSpaceOnUse">
<stop stop-color="#FEDA7C"/>
<stop offset="1" stop-color="#F5C879"/>
</linearGradient>
<linearGradient id="paint6_linear" x1="267.468" y1="178.397" x2="267.317" y2="182.838" gradientUnits="userSpaceOnUse">
<stop stop-color="#FEDA7C"/>
<stop offset="1" stop-color="#F5C879"/>
</linearGradient>
<linearGradient id="paint7_linear" x1="35.0808" y1="0" x2="35.0808" y2="41.5773" gradientUnits="userSpaceOnUse">
<stop stop-color="#FEDA7C"/>
<stop offset="1" stop-color="#F5C879"/>
</linearGradient>
<linearGradient id="paint8_linear" x1="7.43434" y1="0" x2="7.43434" y2="11.1515" gradientUnits="userSpaceOnUse">
<stop stop-color="#FEDA7C"/>
<stop offset="1" stop-color="#F5C879"/>
</linearGradient>
<linearGradient id="paint9_linear" x1="7.43434" y1="0" x2="7.43434" y2="11.1515" gradientUnits="userSpaceOnUse">
<stop stop-color="#FEDA7C"/>
<stop offset="1" stop-color="#F5C879"/>
</linearGradient>
<linearGradient id="paint10_linear" x1="7.43434" y1="0" x2="7.43434" y2="11.1515" gradientUnits="userSpaceOnUse">
<stop stop-color="#FEDA7C"/>
<stop offset="1" stop-color="#F5C879"/>
</linearGradient>
<linearGradient id="paint11_linear" x1="249.167" y1="34.4545" x2="249.167" y2="35.4545" gradientUnits="userSpaceOnUse">
<stop stop-color="#FEDA7C"/>
<stop offset="1" stop-color="#F5C879"/>
</linearGradient>
<linearGradient id="paint12_linear" x1="272.399" y1="34.4545" x2="272.399" y2="35.4545" gradientUnits="userSpaceOnUse">
<stop stop-color="#FEDA7C"/>
<stop offset="1" stop-color="#F5C879"/>
</linearGradient>
<linearGradient id="paint13_linear" x1="295.167" y1="34.4545" x2="295.167" y2="35.4545" gradientUnits="userSpaceOnUse">
<stop stop-color="#FEDA7C"/>
<stop offset="1" stop-color="#F5C879"/>
</linearGradient>
<linearGradient id="paint14_linear" x1="303.755" y1="92.1364" x2="303.755" y2="98.6257" gradientUnits="userSpaceOnUse">
<stop stop-color="#FEDA7C"/>
<stop offset="1" stop-color="#F5C879"/>
</linearGradient>
<linearGradient id="paint15_linear" x1="299.862" y1="80.1312" x2="299.862" y2="84.0248" gradientUnits="userSpaceOnUse">
<stop stop-color="#FEDA7C"/>
<stop offset="1" stop-color="#F5C879"/>
</linearGradient>
<linearGradient id="paint16_linear" x1="294.508" y1="93.4343" x2="294.508" y2="100.897" gradientUnits="userSpaceOnUse">
<stop stop-color="#FEDA7C"/>
<stop offset="1" stop-color="#F5C879"/>
</linearGradient>
<linearGradient id="paint17_linear" x1="294.508" y1="87.9184" x2="294.508" y2="92.1364" gradientUnits="userSpaceOnUse">
<stop stop-color="#FEDA7C"/>
<stop offset="1" stop-color="#F5C879"/>
</linearGradient>
<linearGradient id="paint18_linear" x1="300.997" y1="101.221" x2="300.997" y2="106.737" gradientUnits="userSpaceOnUse">
<stop stop-color="#FEDA7C"/>
<stop offset="1" stop-color="#F5C879"/>
</linearGradient>
<linearGradient id="paint19_linear" x1="297.915" y1="70.7217" x2="297.915" y2="73.3174" gradientUnits="userSpaceOnUse">
<stop stop-color="#FEDA7C"/>
<stop offset="1" stop-color="#F5C879"/>
</linearGradient>
<linearGradient id="paint20_linear" x1="281.043" y1="84.6737" x2="281.043" y2="91.163" gradientUnits="userSpaceOnUse">
<stop stop-color="#FEDA7C"/>
<stop offset="1" stop-color="#F5C879"/>
</linearGradient>
</defs>
</svg>
