<svg viewBox="0 0 1440 349" fill="none" xmlns="http://www.w3.org/2000/svg">
<mask id="mask0" mask-type="alpha" maskUnits="userSpaceOnUse" x="0" y="0" width="1440" height="349">
<rect width="1440" height="348.758" fill="#C4C4C4"/>
</mask>
<g mask="url(#mask0)">
<path fill-rule="evenodd" clip-rule="evenodd" d="M1237.03 38.0654C1229.01 -26.1558 1138.24 -57.2365 1061.56 -25.893C984.885 5.45085 970.485 -81.4487 972.23 55.2006C972.81 100.586 867.838 122.564 901.807 156.719C952.437 207.626 1086.74 139.424 1119.12 123.708C1151.51 107.992 1245.05 102.286 1237.03 38.0647L1237.03 38.0654Z" fill="url(#paint0_linear)"/>
<path fill-rule="evenodd" clip-rule="evenodd" d="M302.85 62.378C293.5 126.419 372.73 180.526 454.981 170.708C537.232 160.89 527.997 248.49 562.665 116.3C574.179 72.3957 681.216 79.1333 657.556 37.1725C622.293 -25.3685 474.686 4.64997 439.289 11.1856C403.892 17.7213 312.199 -1.66327 302.85 62.3786L302.85 62.378Z" fill="url(#paint1_linear)"/>
<path fill-rule="evenodd" clip-rule="evenodd" d="M-79.9336 -48.5685C-143.912 3.41091 -132.932 117.629 -62.802 174.87C7.32841 232.111 -77.5321 306.079 65.9996 211.187C113.67 179.671 187.565 272.298 207.253 214.207C236.597 127.625 99.705 36.4255 67.468 13.9395C35.231 -8.54649 -15.9555 -100.548 -79.9344 -48.5683L-79.9336 -48.5685Z" fill="url(#paint2_linear)"/>
<path d="M-73.7725 251.545L-47.6011 234.178C-21.4297 216.81 30.913 182.076 83.2557 182.076C135.598 182.076 187.941 216.81 240.284 205.196C292.627 194.016 344.969 135.401 397.312 129.974C449.655 124.547 501.998 170.136 554.34 187.829C606.683 204.87 659.026 194.016 711.368 199.443C763.711 204.87 816.054 228.75 868.397 216.81C920.739 204.87 973.082 159.281 1025.42 124.221C1077.77 89.8124 1130.11 65.9324 1182.45 83.6253C1234.8 100.667 1287.14 159.281 1339.48 193.69C1391.82 228.75 1444.17 239.605 1470.34 245.792L1496.51 251.545V8.40341H1470.34C1444.17 8.40341 1391.82 8.40341 1339.48 8.40341C1287.14 8.40341 1234.8 8.40341 1182.45 8.40341C1130.11 8.40341 1077.77 8.40341 1025.42 8.40341C973.082 8.40341 920.739 8.40341 868.397 8.40341C816.054 8.40341 763.711 8.40341 711.368 8.40341C659.026 8.40341 606.683 8.40341 554.34 8.40341C501.998 8.40341 449.655 8.40341 397.312 8.40341C344.969 8.40341 292.627 8.40341 240.284 8.40341C187.941 8.40341 135.598 8.40341 83.2557 8.40341C30.913 8.40341 -21.4297 8.40341 -47.6011 8.40341H-73.7725V251.545Z" fill="#424242"/>
<path d="M-61.2817 244.883L-35.1104 227.516C-8.93901 210.149 43.4037 175.414 95.7464 175.414C148.089 175.414 200.432 210.149 252.775 198.535C305.117 187.354 357.46 128.74 409.803 123.313C462.146 117.885 514.488 163.474 566.831 181.167C619.174 198.209 671.516 187.354 723.859 192.782C776.202 198.209 828.545 222.089 880.887 210.149C933.23 198.209 985.573 152.62 1037.92 117.56C1090.26 83.151 1142.6 59.271 1194.94 76.9639C1247.29 94.0055 1299.63 152.62 1351.97 187.029C1404.31 222.089 1456.66 232.943 1482.83 239.131L1509 244.883V1.742H1482.83C1456.66 1.742 1404.31 1.742 1351.97 1.742C1299.63 1.742 1247.29 1.742 1194.94 1.742C1142.6 1.742 1090.26 1.742 1037.92 1.742C985.573 1.742 933.23 1.742 880.887 1.742C828.545 1.742 776.202 1.742 723.859 1.742C671.516 1.742 619.174 1.742 566.831 1.742C514.488 1.742 462.146 1.742 409.803 1.742C357.46 1.742 305.117 1.742 252.775 1.742C200.432 1.742 148.089 1.742 95.7464 1.742C43.4037 1.742 -8.93901 1.742 -35.1104 1.742H-61.2817V244.883Z" fill="#282A2D"/>
</g>
<defs>
<linearGradient id="paint0_linear" x1="889.009" y1="134.007" x2="1147.1" y2="-83.4485" gradientUnits="userSpaceOnUse">
<stop stop-opacity="0.02"/>
<stop offset="1" stop-opacity="0.05"/>
</linearGradient>
<linearGradient id="paint1_linear" x1="663.851" y1="62.4708" x2="357.211" y2="203.435" gradientUnits="userSpaceOnUse">
<stop stop-opacity="0.02"/>
<stop offset="1" stop-opacity="0.05"/>
</linearGradient>
<linearGradient id="paint2_linear" x1="189.435" y1="242.8" x2="-153.245" y2="98.6732" gradientUnits="userSpaceOnUse">
<stop stop-opacity="0.02"/>
<stop offset="1" stop-opacity="0.05"/>
</linearGradient>
</defs>
</svg>
