<svg width="1440" height="292" viewBox="0 0 1440 292" fill="none" xmlns="http://www.w3.org/2000/svg">
<path d="M-76 292L-44.5696 271.143C-13.1392 250.286 49.7217 208.571 112.583 208.571C175.443 208.571 238.304 250.286 301.165 236.338C364.026 222.911 426.887 152.518 489.747 146C552.608 139.482 615.469 194.232 678.33 215.48C741.191 235.946 804.052 222.911 866.913 229.429C929.773 235.946 992.634 264.625 1055.49 250.286C1118.36 235.946 1181.22 181.196 1244.08 139.091C1306.94 97.7679 1369.8 69.0893 1432.66 90.3375C1495.52 110.804 1558.38 181.196 1621.24 222.52C1684.1 264.625 1746.96 277.661 1778.39 285.091L1809.83 292V0H1778.39C1746.96 0 1684.1 0 1621.24 0C1558.38 0 1495.52 0 1432.66 0C1369.8 0 1306.94 0 1244.08 0C1181.22 0 1118.36 0 1055.49 0C992.634 0 929.773 0 866.913 0C804.052 0 741.191 0 678.33 0C615.469 0 552.608 0 489.747 0C426.887 0 364.026 0 301.165 0C238.304 0 175.443 0 112.583 0C49.7217 0 -13.1392 0 -44.5696 0H-76V292Z" fill="#282A2D"/>
</svg>
