<svg width="1440" height="292" viewBox="0 0 1440 292" fill="none" xmlns="http://www.w3.org/2000/svg">
<path d="M-91 292L-59.5696 271.143C-28.1392 250.286 34.7217 208.571 97.5825 208.571C160.443 208.571 223.304 250.286 286.165 236.338C349.026 222.911 411.887 152.518 474.747 146C537.608 139.482 600.469 194.232 663.33 215.48C726.191 235.946 789.052 222.911 851.913 229.429C914.773 235.946 977.634 264.625 1040.49 250.286C1103.36 235.946 1166.22 181.196 1229.08 139.091C1291.94 97.7679 1354.8 69.0893 1417.66 90.3375C1480.52 110.804 1543.38 181.196 1606.24 222.52C1669.1 264.625 1731.96 277.661 1763.39 285.091L1794.83 292V0H1763.39C1731.96 0 1669.1 0 1606.24 0C1543.38 0 1480.52 0 1417.66 0C1354.8 0 1291.94 0 1229.08 0C1166.22 0 1103.36 0 1040.49 0C977.634 0 914.773 0 851.913 0C789.052 0 726.191 0 663.33 0C600.469 0 537.608 0 474.747 0C411.887 0 349.026 0 286.165 0C223.304 0 160.443 0 97.5825 0C34.7217 0 -28.1392 0 -59.5696 0H-91V292Z" fill="#424242"/>
</svg>
