<svg width="1440" height="301" viewBox="0 0 1440 301" fill="none" xmlns="http://www.w3.org/2000/svg">
<path d="M-59.2875 301L-27.8571 279.5C3.57336 258 66.4342 215 129.295 215C192.156 215 255.017 258 317.878 243.622C380.738 229.781 443.599 157.219 506.46 150.5C569.321 143.781 632.182 200.219 695.043 222.122C757.903 243.219 820.764 229.781 883.625 236.5C946.486 243.219 1009.35 272.781 1072.21 258C1135.07 243.219 1197.93 186.781 1260.79 143.378C1323.65 100.781 1386.51 71.2188 1449.37 93.1219C1512.23 114.219 1575.09 186.781 1637.96 229.378C1700.82 272.781 1763.68 286.219 1795.11 293.878L1826.54 301V0H1795.11C1763.68 0 1700.82 0 1637.96 0C1575.09 0 1512.23 0 1449.37 0C1386.51 0 1323.65 0 1260.79 0C1197.93 0 1135.07 0 1072.21 0C1009.35 0 946.486 0 883.625 0C820.764 0 757.903 0 695.043 0C632.182 0 569.321 0 506.46 0C443.599 0 380.738 0 317.878 0C255.017 0 192.156 0 129.295 0C66.4342 0 3.57336 0 -27.8571 0H-59.2875V301Z" fill="#282A2D" fill-opacity="0.9"/>
</svg>
