<svg viewBox="0 0 222 416" fill="none" xmlns="http://www.w3.org/2000/svg">
<g filter="url(#filter0_dd)">
<path d="M10.1208 260.009C-24.5031 254.235 -37.3355 181.451 -20.908 159.564C-4.48041 137.675 21.3218 71.903 61.0733 90.1652C100.825 108.428 97.2113 162.179 101.383 199.742C106.859 249.051 75.8301 270.967 10.1208 260.009Z" fill="black"/>
</g>
<path d="M7.63969 267.979C-30.1803 261.672 -44.1973 182.17 -26.2533 158.262C-8.30931 134.353 19.8747 62.5094 63.2957 82.4574C106.717 102.406 102.77 161.118 107.327 202.149C113.308 256.01 79.4147 279.949 7.63969 267.979Z" fill="url(#paint0_linear)"/>
<defs>
<filter id="filter0_dd" x="-148" y="0" width="370" height="415.774" filterUnits="userSpaceOnUse" color-interpolation-filters="sRGB">
<feFlood flood-opacity="0" result="BackgroundImageFix"/>
<feColorMatrix in="SourceAlpha" type="matrix" values="0 0 0 0 0 0 0 0 0 0 0 0 0 0 0 0 0 0 127 0"/>
<feOffset dy="33"/>
<feGaussianBlur stdDeviation="60"/>
<feColorMatrix type="matrix" values="0 0 0 0 1 0 0 0 0 0 0 0 0 0 0 0 0 0 0.2 0"/>
<feBlend mode="normal" in2="BackgroundImageFix" result="effect1_dropShadow"/>
<feColorMatrix in="SourceAlpha" type="matrix" values="0 0 0 0 0 0 0 0 0 0 0 0 0 0 0 0 0 0 127 0"/>
<feOffset dy="25"/>
<feGaussianBlur stdDeviation="25"/>
<feColorMatrix type="matrix" values="0 0 0 0 0 0 0 0 0 0 0 0 0 0 0 0 0 0 0.12 0"/>
<feBlend mode="normal" in2="effect1_dropShadow" result="effect2_dropShadow"/>
<feBlend mode="normal" in="SourceGraphic" in2="effect2_dropShadow" result="shape"/>
</filter>
<linearGradient id="paint0_linear" x1="64.5994" y1="114.1" x2="-1.10521" y2="214.45" gradientUnits="userSpaceOnUse">
<stop stop-color="#FC6E40"/>
<stop offset="1" stop-color="#EE4137"/>
</linearGradient>
</defs>
</svg>
