<svg width="67" height="235" viewBox="0 0 67 235" fill="none" xmlns="http://www.w3.org/2000/svg">
<path fill-rule="evenodd" clip-rule="evenodd" d="M-43.4765 232.52C-3.33767 246.159 40.9368 201.56 44.3954 147.412C47.8537 93.264 103.18 109.631 22.1564 71.5785C-4.754 58.9404 12.3159 -9.20326 -17.5261 1.04594C-62.0044 16.3218 -60.224 114.97 -60.224 138.547C-60.224 162.124 -83.6154 218.881 -43.4762 232.52L-43.4765 232.52Z" fill="url(#paint0_linear)"/>
<g filter="url(#filter0_dd)">
<path d="M0.534863 172.053C-2.8938 171.642 -2.56809 168.155 -2.52773 165.7C-2.48737 163.246 -1.22514 160.731 2.1931 160.407C5.61156 160.083 10.3187 161.285 6.34498 163.801C2.37125 166.317 3.9633 172.465 0.534646 172.053H0.534863Z" fill="black"/>
</g>
<path d="M0.534863 172.053C-2.8938 171.642 -2.56809 168.155 -2.52773 165.7C-2.48737 163.246 -1.22514 160.731 2.1931 160.407C5.61156 160.083 10.3187 161.285 6.34498 163.801C2.37125 166.317 3.9633 172.465 0.534646 172.053H0.534863Z" fill="url(#paint1_linear)"/>
<g filter="url(#filter1_dd)">
<path d="M-6.75498 158.398C-14.9615 157.03 -18.0031 139.779 -14.1094 134.591C-10.2157 129.403 -4.10011 113.813 5.32181 118.142C14.7437 122.471 13.8873 135.21 14.8761 144.114C16.1739 155.801 8.81948 160.996 -6.75498 158.398Z" fill="black"/>
</g>
<path d="M-6.75498 158.398C-14.9615 157.03 -18.0031 139.779 -14.1094 134.591C-10.2157 129.403 -4.10011 113.813 5.32181 118.142C14.7437 122.471 13.8873 135.21 14.8761 144.114C16.1739 155.801 8.81948 160.996 -6.75498 158.398Z" fill="url(#paint2_linear)"/>
<defs>
<filter id="filter0_dd" x="-28.5927" y="141.477" width="62.493" height="63.795" filterUnits="userSpaceOnUse" color-interpolation-filters="sRGB">
<feFlood flood-opacity="0" result="BackgroundImageFix"/>
<feColorMatrix in="SourceAlpha" type="matrix" values="0 0 0 0 0 0 0 0 0 0 0 0 0 0 0 0 0 0 127 0"/>
<feOffset dy="7.16067"/>
<feGaussianBlur stdDeviation="13.0194"/>
<feColorMatrix type="matrix" values="0 0 0 0 0 0 0 0 0 0 0 0 0 0 0 0 0 0 0.2 0"/>
<feBlend mode="normal" in2="BackgroundImageFix" result="effect1_dropShadow"/>
<feColorMatrix in="SourceAlpha" type="matrix" values="0 0 0 0 0 0 0 0 0 0 0 0 0 0 0 0 0 0 127 0"/>
<feOffset dy="5.42475"/>
<feGaussianBlur stdDeviation="5.42475"/>
<feColorMatrix type="matrix" values="0 0 0 0 0 0 0 0 0 0 0 0 0 0 0 0 0 0 0.12 0"/>
<feBlend mode="normal" in2="effect1_dropShadow" result="effect2_dropShadow"/>
<feBlend mode="normal" in="SourceGraphic" in2="effect2_dropShadow" result="shape"/>
</filter>
<filter id="filter1_dd" x="-41.8291" y="98.5135" width="82.8902" height="93.7397" filterUnits="userSpaceOnUse" color-interpolation-filters="sRGB">
<feFlood flood-opacity="0" result="BackgroundImageFix"/>
<feColorMatrix in="SourceAlpha" type="matrix" values="0 0 0 0 0 0 0 0 0 0 0 0 0 0 0 0 0 0 127 0"/>
<feOffset dy="7.16067"/>
<feGaussianBlur stdDeviation="13.0194"/>
<feColorMatrix type="matrix" values="0 0 0 0 1 0 0 0 0 0 0 0 0 0 0 0 0 0 0.2 0"/>
<feBlend mode="normal" in2="BackgroundImageFix" result="effect1_dropShadow"/>
<feColorMatrix in="SourceAlpha" type="matrix" values="0 0 0 0 0 0 0 0 0 0 0 0 0 0 0 0 0 0 127 0"/>
<feOffset dy="5.42475"/>
<feGaussianBlur stdDeviation="5.42475"/>
<feColorMatrix type="matrix" values="0 0 0 0 0 0 0 0 0 0 0 0 0 0 0 0 0 0 0.12 0"/>
<feBlend mode="normal" in2="effect1_dropShadow" result="effect2_dropShadow"/>
<feBlend mode="normal" in="SourceGraphic" in2="effect2_dropShadow" result="shape"/>
</filter>
<linearGradient id="paint0_linear" x1="-0.48201" y1="1.91169e-06" x2="-54.8114" y2="214.281" gradientUnits="userSpaceOnUse">
<stop stop-opacity="0.02"/>
<stop offset="1" stop-opacity="0.05"/>
</linearGradient>
<linearGradient id="paint1_linear" x1="0.551717" y1="161.79" x2="4.55328" y2="171.774" gradientUnits="userSpaceOnUse">
<stop stop-color="#FEDA7C"/>
<stop offset="1" stop-color="#F5C879"/>
</linearGradient>
<linearGradient id="paint2_linear" x1="5.6047" y1="125.008" x2="-8.65253" y2="146.783" gradientUnits="userSpaceOnUse">
<stop stop-color="#FC6E40"/>
<stop offset="1" stop-color="#EE4137"/>
</linearGradient>
</defs>
</svg>
