<svg viewBox="0 0 220 978" fill="none" xmlns="http://www.w3.org/2000/svg">
<g filter="url(#filter0_dd)">
<path d="M-320.522 423.865C-455.744 423.865 -432.148 570.04 -335.766 644.86C-239.384 719.681 -215.27 888.759 -170.427 799.742C-125.584 710.725 53.6023 714.448 67.886 587.718C77.1163 505.825 142.911 420.568 54.0407 405.452C-34.8294 390.336 -1.38902 29.7301 -132.837 96.0532C-244.602 152.444 -271.911 423.865 -320.522 423.865Z" fill="black"/>
</g>
<path d="M-324.3 422.758C-462.667 422.758 -438.523 572.332 -339.899 648.893C-241.276 725.453 -216.601 898.464 -170.715 807.377C-124.83 716.29 58.5239 720.099 73.1397 590.422C82.5846 506.624 149.909 419.385 58.9724 403.917C-31.9644 388.45 2.25371 19.4576 -132.252 87.323C-246.615 145.026 -274.559 422.758 -324.3 422.758Z" fill="url(#paint0_linear)"/>
<defs>
<filter id="filter0_dd" x="-535.024" y="0.919189" width="755" height="977.081" filterUnits="userSpaceOnUse" color-interpolation-filters="sRGB">
<feFlood flood-opacity="0" result="BackgroundImageFix"/>
<feColorMatrix in="SourceAlpha" type="matrix" values="0 0 0 0 0 0 0 0 0 0 0 0 0 0 0 0 0 0 127 0"/>
<feOffset dy="33"/>
<feGaussianBlur stdDeviation="60"/>
<feColorMatrix type="matrix" values="0 0 0 0 1 0 0 0 0 0 0 0 0 0 0 0 0 0 0.2 0"/>
<feBlend mode="normal" in2="BackgroundImageFix" result="effect1_dropShadow"/>
<feColorMatrix in="SourceAlpha" type="matrix" values="0 0 0 0 0 0 0 0 0 0 0 0 0 0 0 0 0 0 127 0"/>
<feOffset dy="25"/>
<feGaussianBlur stdDeviation="25"/>
<feColorMatrix type="matrix" values="0 0 0 0 0 0 0 0 0 0 0 0 0 0 0 0 0 0 0.12 0"/>
<feBlend mode="normal" in2="effect1_dropShadow" result="effect2_dropShadow"/>
<feBlend mode="normal" in="SourceGraphic" in2="effect2_dropShadow" result="shape"/>
</filter>
<linearGradient id="paint0_linear" x1="-73.3958" y1="801.967" x2="-237.4" y2="549.051" gradientUnits="userSpaceOnUse">
<stop stop-color="#EF6F50"/>
<stop offset="1" stop-color="#EE4137"/>
</linearGradient>
</defs>
</svg>
