<svg viewBox="0 0 269 351" fill="none" xmlns="http://www.w3.org/2000/svg">
<g filter="url(#filter0_dd)">
<path d="M227.326 123.488C234.706 145.347 226.392 173.091 207.523 186.916C188.746 200.648 159.414 200.461 143.908 187.663C128.494 174.865 126.906 149.55 134.192 127.878C141.479 106.206 157.639 88.1771 177.256 87.0561C196.873 85.9352 219.947 101.722 227.326 123.488Z" fill="black"/>
</g>
<path d="M230.188 122.06C238.088 145.46 229.188 175.16 208.988 189.96C188.888 204.66 157.488 204.46 140.888 190.76C124.388 177.06 122.688 149.96 130.488 126.76C138.288 103.56 155.588 84.2601 176.588 83.0601C197.588 81.8601 222.288 98.7601 230.188 122.06Z" fill="url(#paint0_linear)"/>
<defs>
<filter id="filter0_dd" x="0" y="0" width="340" height="350.239" filterUnits="userSpaceOnUse" color-interpolation-filters="sRGB">
<feFlood flood-opacity="0" result="BackgroundImageFix"/>
<feColorMatrix in="SourceAlpha" type="matrix" values="0 0 0 0 0 0 0 0 0 0 0 0 0 0 0 0 0 0 127 0"/>
<feOffset dx="-10" dy="33"/>
<feGaussianBlur stdDeviation="60"/>
<feColorMatrix type="matrix" values="0 0 0 0 1 0 0 0 0 0 0 0 0 0 0 0 0 0 0.2 0"/>
<feBlend mode="normal" in2="BackgroundImageFix" result="effect1_dropShadow"/>
<feColorMatrix in="SourceAlpha" type="matrix" values="0 0 0 0 0 0 0 0 0 0 0 0 0 0 0 0 0 0 127 0"/>
<feOffset dx="-10" dy="25"/>
<feGaussianBlur stdDeviation="25"/>
<feColorMatrix type="matrix" values="0 0 0 0 0 0 0 0 0 0 0 0 0 0 0 0 0 0 0.12 0"/>
<feBlend mode="normal" in2="effect1_dropShadow" result="effect2_dropShadow"/>
<feBlend mode="normal" in="SourceGraphic" in2="effect2_dropShadow" result="shape"/>
</filter>
<linearGradient id="paint0_linear" x1="205.278" y1="93.9644" x2="181.283" y2="178.524" gradientUnits="userSpaceOnUse">
<stop stop-color="#FC6E40"/>
<stop offset="1" stop-color="#EE4137"/>
</linearGradient>
</defs>
</svg>
