<svg viewBox="0 0 237 310" fill="none" xmlns="http://www.w3.org/2000/svg">
<g filter="url(#filter0_dd)">
<path d="M70.6714 99.0214C78.0671 92.5522 86.1351 86.1313 93.3387 87.0968C100.542 88.0624 106.929 96.4627 111.444 105.78C115.91 115.146 118.503 125.429 115.574 135.278C112.644 145.126 104.192 154.54 94.3472 156.568C84.4542 158.596 73.2166 153.237 65.5808 145.657C57.945 138.03 53.911 128.229 55.2557 120.07C56.6004 111.911 63.3237 105.491 70.6714 99.0214Z" fill="black"/>
</g>
<path d="M69.2385 96.2235C77.3738 89.1074 86.2486 82.0444 94.1725 83.1065C102.096 84.1686 109.122 93.4089 114.088 103.658C119.001 113.961 121.854 125.272 118.631 136.106C115.409 146.939 106.111 157.295 95.2819 159.525C84.3997 161.755 72.0383 155.861 63.6389 147.523C55.2396 139.133 50.8021 128.352 52.2813 119.377C53.7604 110.403 61.1561 103.34 69.2385 96.2235Z" fill="url(#paint0_linear)"/>
<defs>
<filter id="filter0_dd" x="-65" y="0" width="301.818" height="310" filterUnits="userSpaceOnUse" color-interpolation-filters="sRGB">
<feFlood flood-opacity="0" result="BackgroundImageFix"/>
<feColorMatrix in="SourceAlpha" type="matrix" values="0 0 0 0 0 0 0 0 0 0 0 0 0 0 0 0 0 0 127 0"/>
<feOffset dy="33"/>
<feGaussianBlur stdDeviation="60"/>
<feColorMatrix type="matrix" values="0 0 0 0 1 0 0 0 0 0 0 0 0 0 0 0 0 0 0.2 0"/>
<feBlend mode="normal" in2="BackgroundImageFix" result="effect1_dropShadow"/>
<feColorMatrix in="SourceAlpha" type="matrix" values="0 0 0 0 0 0 0 0 0 0 0 0 0 0 0 0 0 0 127 0"/>
<feOffset dy="25"/>
<feGaussianBlur stdDeviation="25"/>
<feColorMatrix type="matrix" values="0 0 0 0 0 0 0 0 0 0 0 0 0 0 0 0 0 0 0.12 0"/>
<feBlend mode="normal" in2="effect1_dropShadow" result="effect2_dropShadow"/>
<feBlend mode="normal" in="SourceGraphic" in2="effect2_dropShadow" result="shape"/>
</filter>
<linearGradient id="paint0_linear" x1="58.3179" y1="102.976" x2="108.379" y2="114.356" gradientUnits="userSpaceOnUse">
<stop stop-color="#FC6E40"/>
<stop offset="1" stop-color="#EE4137"/>
</linearGradient>
</defs>
</svg>
