<svg xmlns="http://www.w3.org/2000/svg" fill="none" viewBox="0 0 220 229"><path fill="url(#paint0_linear)" stroke="#fff" d="M216.5 119.682c0 58.44-47.491 105.818-106.078 105.818-58.586 0-106.077-47.378-106.077-105.818S51.836 13.864 110.422 13.864c58.587 0 106.078 47.377 106.078 105.818z"/><path stroke="#fff" stroke-width="6" d="M216.774 117.977c0 58.713-48.071 107.426-106.927 107.426-58.857 0-106.57-47.596-106.57-106.309"/><path stroke="#fff" stroke-width="6" d="M3 119.34C3 60.627 50.746 12 109.602 12c58.857 0 106.894 47.264 106.894 105.977"/><circle cx="108" cy="12" r="12" fill="#F98E64"/><path fill="#fff" d="M109.741 11.795a1.946 1.946 0 1 1-3.893-.001 1.946 1.946 0 0 1 3.893 0z"/><path fill="#222" fill-opacity=".8" d="M32.006 73.228v6.048c0 .933.173 1.643.518 2.128.346.476.952.714 1.82.714.868 0 1.475-.238 1.82-.714.346-.485.518-1.195.518-2.128v-6.048h1.176v5.768c0 .71-.065 1.325-.196 1.848-.121.523-.322.957-.602 1.302-.28.345-.649.602-1.106.77-.448.168-.998.252-1.652.252-.653 0-1.204-.084-1.652-.252a2.419 2.419 0 0 1-1.064-.77c-.27-.345-.466-.78-.588-1.302-.112-.523-.168-1.139-.168-1.848v-5.768h1.176zM40.346 83v-7.224h1.12v1.176h.056c.084-.187.178-.36.28-.518.112-.168.243-.313.392-.434.16-.121.341-.215.546-.28a2.13 2.13 0 0 1 .728-.112c.476 0 .915.117 1.316.35.402.224.7.597.896 1.12h.028c.131-.392.374-.733.728-1.022.364-.299.854-.448 1.47-.448.738 0 1.312.243 1.722.728.42.476.63 1.153.63 2.03V83h-1.12v-4.438c0-.644-.126-1.13-.378-1.456-.252-.327-.653-.49-1.204-.49-.224 0-.438.028-.644.084-.196.056-.373.14-.532.252a1.217 1.217 0 0 0-.378.434c-.093.168-.14.369-.14.602V83h-1.12v-4.438c0-.644-.126-1.13-.378-1.456-.252-.327-.644-.49-1.176-.49-.224 0-.438.028-.644.084-.205.056-.387.14-.546.252-.158.112-.289.257-.392.434-.093.168-.14.369-.14.602V83h-1.12zm17.543 0c-.42 0-.723-.112-.91-.336a1.702 1.702 0 0 1-.336-.84h-.07c-.159.448-.42.784-.784 1.008-.364.224-.798.336-1.302.336-.765 0-1.363-.196-1.792-.588-.42-.392-.63-.924-.63-1.596 0-.681.247-1.204.742-1.568.504-.364 1.283-.546 2.338-.546h1.428v-.714c0-.513-.14-.905-.42-1.176-.28-.27-.71-.406-1.288-.406-.439 0-.807.098-1.106.294-.29.196-.532.457-.728.784l-.672-.63c.196-.392.509-.723.938-.994.43-.28.97-.42 1.624-.42.877 0 1.559.215 2.044.644.485.43.728 1.027.728 1.792v3.976h.826V83h-.63zm-3.22-.784c.28 0 .537-.033.77-.098.233-.065.434-.159.602-.28.168-.121.299-.261.392-.42.093-.159.14-.331.14-.518v-1.19H55.09c-.644 0-1.115.093-1.414.28a.908.908 0 0 0-.434.812v.294c0 .355.126.63.378.826.261.196.611.294 1.05.294zm9.457-8.134c-.243 0-.42-.056-.532-.168a.69.69 0 0 1-.154-.462v-.182c0-.187.052-.336.154-.448.112-.121.29-.182.532-.182.243 0 .415.06.518.182a.605.605 0 0 1 .168.448v.182c0 .187-.056.34-.168.462-.103.112-.275.168-.518.168zm-.56 1.694h1.12V83h-1.12v-7.224zM67.136 83v-7.224h1.12v1.176h.056c.084-.187.178-.36.28-.518.112-.168.243-.313.392-.434.159-.121.34-.215.546-.28a2.13 2.13 0 0 1 .728-.112c.476 0 .915.117 1.316.35.401.224.7.597.896 1.12h.028c.13-.392.373-.733.728-1.022.364-.299.854-.448 1.47-.448.737 0 1.311.243 1.722.728.42.476.63 1.153.63 2.03V83h-1.12v-4.438c0-.644-.126-1.13-.378-1.456-.252-.327-.653-.49-1.204-.49-.224 0-.439.028-.644.084-.196.056-.373.14-.532.252a1.215 1.215 0 0 0-.378.434c-.093.168-.14.369-.14.602V83h-1.12v-4.438c0-.644-.126-1.13-.378-1.456-.252-.327-.644-.49-1.176-.49-.224 0-.438.028-.644.084-.205.056-.387.14-.546.252-.159.112-.29.257-.392.434-.093.168-.14.369-.14.602V83h-1.12zm15.009.168a3.29 3.29 0 0 1-1.344-.266 3.007 3.007 0 0 1-1.022-.756c-.28-.336-.5-.733-.658-1.19a5.129 5.129 0 0 1-.224-1.568c0-.57.075-1.087.224-1.554a3.57 3.57 0 0 1 .658-1.19 2.93 2.93 0 0 1 1.022-.77 3.29 3.29 0 0 1 1.344-.266c.485 0 .92.089 1.302.266.382.177.71.425.98.742.27.308.476.677.616 1.106.15.43.224.9.224 1.414v.532h-5.194v.336c0 .308.047.597.14.868.103.261.243.49.42.686.187.196.41.35.672.462.27.112.574.168.91.168.457 0 .854-.107 1.19-.322.345-.215.611-.523.798-.924l.798.574a2.82 2.82 0 0 1-1.092 1.204c-.495.299-1.083.448-1.764.448zm0-6.622c-.308 0-.588.056-.84.168a1.875 1.875 0 0 0-.658.448 2.354 2.354 0 0 0-.574 1.568v.098h3.99v-.154c0-.644-.178-1.157-.532-1.54-.346-.392-.808-.588-1.386-.588zM87.183 83v-7.224h1.12v1.33h.07c.13-.345.364-.653.7-.924.336-.27.798-.406 1.386-.406h.433v1.12h-.657c-.607 0-1.083.117-1.428.35-.337.224-.505.509-.505.854V83h-1.12zm7.38.168c-.672 0-1.237-.126-1.694-.378a3.958 3.958 0 0 1-1.162-1.036l.798-.644c.28.355.593.63.938.826.345.187.747.28 1.204.28.476 0 .845-.103 1.106-.308.27-.205.406-.495.406-.868a.997.997 0 0 0-.28-.714c-.177-.205-.504-.345-.98-.42l-.574-.084a5.178 5.178 0 0 1-.924-.21 2.946 2.946 0 0 1-.742-.392 1.86 1.86 0 0 1-.49-.616 2.057 2.057 0 0 1-.168-.868c0-.355.065-.663.196-.924.13-.27.308-.495.532-.672.233-.177.509-.308.826-.392.317-.093.658-.14 1.022-.14.588 0 1.078.103 1.47.308.401.205.751.49 1.05.854l-.742.672c-.159-.224-.392-.425-.7-.602-.308-.187-.695-.28-1.162-.28-.467 0-.821.103-1.064.308-.233.196-.35.467-.35.812 0 .355.117.611.35.77.243.159.588.275 1.036.35l.56.084c.803.121 1.372.355 1.708.7.336.336.504.78.504 1.33 0 .7-.238 1.25-.714 1.652-.476.401-1.13.602-1.96.602zm9.972-.168c-.42 0-.723-.112-.91-.336a1.708 1.708 0 0 1-.336-.84h-.07c-.158.448-.42.784-.784 1.008-.364.224-.798.336-1.302.336-.765 0-1.362-.196-1.792-.588-.42-.392-.63-.924-.63-1.596 0-.681.248-1.204.742-1.568.504-.364 1.284-.546 2.338-.546h1.428v-.714c0-.513-.14-.905-.42-1.176-.28-.27-.709-.406-1.288-.406-.438 0-.807.098-1.106.294a2.456 2.456 0 0 0-.728.784l-.672-.63c.196-.392.509-.723.938-.994.43-.28.971-.42 1.624-.42.878 0 1.559.215 2.044.644.486.43.728 1.027.728 1.792v3.976h.826V83h-.63zm-3.22-.784c.28 0 .537-.033.77-.098a1.88 1.88 0 0 0 .602-.28c.168-.121.299-.261.392-.42a.997.997 0 0 0 .14-.518v-1.19h-1.484c-.644 0-1.115.093-1.414.28a.908.908 0 0 0-.434.812v.294c0 .355.126.63.378.826.262.196.612.294 1.05.294zm1.344-7.784c-.242 0-.452-.042-.63-.126-.177-.084-.34-.163-.49-.238a3.078 3.078 0 0 0-.574-.252 1.165 1.165 0 0 0-.406-.084.876.876 0 0 0-.42.098 2.233 2.233 0 0 0-.392.28l-.462-.56c.131-.187.304-.355.518-.504.215-.159.486-.238.812-.238.243 0 .453.042.63.126.178.084.341.163.49.238.224.121.411.21.56.266.159.047.299.07.42.07a.87.87 0 0 0 .42-.098c.122-.065.252-.159.392-.28l.462.56a2.25 2.25 0 0 1-.518.518c-.214.15-.485.224-.812.224zm6.905 8.736c-.485 0-.929-.089-1.33-.266a2.972 2.972 0 0 1-1.036-.756 3.773 3.773 0 0 1-.658-1.19 4.843 4.843 0 0 1-.238-1.568c0-.57.079-1.087.238-1.554.159-.467.378-.863.658-1.19a2.897 2.897 0 0 1 1.036-.77 3.255 3.255 0 0 1 1.33-.266c.485 0 .924.089 1.316.266.401.177.747.434 1.036.77.289.327.513.723.672 1.19.159.467.238.985.238 1.554 0 .579-.079 1.101-.238 1.568a3.632 3.632 0 0 1-.672 1.19 2.972 2.972 0 0 1-1.036.756 3.16 3.16 0 0 1-1.316.266zm0-.994c.607 0 1.101-.187 1.484-.56.383-.373.574-.943.574-1.708V78.87c0-.765-.191-1.335-.574-1.708-.383-.373-.877-.56-1.484-.56s-1.101.187-1.484.56c-.383.373-.574.943-.574 1.708v1.036c0 .765.191 1.335.574 1.708.383.373.877.56 1.484.56zm8.552.826v-7.224h1.12v1.176h.056a2.41 2.41 0 0 1 .742-.98c.327-.243.761-.364 1.302-.364.747 0 1.335.243 1.764.728.439.476.658 1.153.658 2.03V83h-1.12v-4.438c0-1.297-.546-1.946-1.638-1.946-.224 0-.443.028-.658.084a1.91 1.91 0 0 0-.56.252 1.296 1.296 0 0 0-.406.434c-.093.168-.14.369-.14.602V83h-1.12zm10.757.168c-.485 0-.928-.089-1.33-.266a2.98 2.98 0 0 1-1.036-.756 3.773 3.773 0 0 1-.658-1.19 4.87 4.87 0 0 1-.238-1.568c0-.57.08-1.087.238-1.554.159-.467.378-.863.658-1.19.29-.336.635-.593 1.036-.77a3.259 3.259 0 0 1 1.33-.266c.486 0 .924.089 1.316.266.402.177.747.434 1.036.77.29.327.514.723.672 1.19.159.467.238.985.238 1.554 0 .579-.079 1.101-.238 1.568a3.597 3.597 0 0 1-.672 1.19 2.962 2.962 0 0 1-1.036.756c-.392.177-.83.266-1.316.266zm0-.994c.607 0 1.102-.187 1.484-.56.383-.373.574-.943.574-1.708V78.87c0-.765-.191-1.335-.574-1.708-.382-.373-.877-.56-1.484-.56-.606 0-1.101.187-1.484.56-.382.373-.574.943-.574 1.708v1.036c0 .765.192 1.335.574 1.708.383.373.878.56 1.484.56zm13.005-.35h-.056a3.43 3.43 0 0 1-.28.504 1.9 1.9 0 0 1-.392.434 1.96 1.96 0 0 1-.574.294 2.48 2.48 0 0 1-.784.112c-.747 0-1.339-.238-1.778-.714-.439-.485-.658-1.167-.658-2.044v-4.634h1.12v4.438c0 1.297.551 1.946 1.652 1.946.224 0 .439-.028.644-.084a1.71 1.71 0 0 0 .56-.252 1.2 1.2 0 0 0 .392-.42c.103-.177.154-.387.154-.63v-4.998h1.12V83h-1.12v-1.176zM145.453 83v-7.224h1.12v1.176h.056c.177-.41.425-.737.742-.98.327-.243.761-.364 1.302-.364.747 0 1.335.243 1.764.728.439.476.658 1.153.658 2.03V83h-1.12v-4.438c0-1.297-.546-1.946-1.638-1.946-.224 0-.443.028-.658.084a1.91 1.91 0 0 0-.56.252 1.296 1.296 0 0 0-.406.434c-.093.168-.14.369-.14.602V83h-1.12zm8.587-8.918c-.243 0-.42-.056-.532-.168a.689.689 0 0 1-.154-.462v-.182c0-.187.051-.336.154-.448.112-.121.289-.182.532-.182.243 0 .415.06.518.182a.605.605 0 0 1 .168.448v.182c0 .187-.056.34-.168.462-.103.112-.275.168-.518.168zm-.56 1.694h1.12V83h-1.12v-7.224zM158.646 83l-2.534-7.224h1.12l1.26 3.584.784 2.464h.07l.784-2.464 1.288-3.584h1.078L159.948 83h-1.302zm7.971.168c-.494 0-.942-.089-1.344-.266a3.014 3.014 0 0 1-1.022-.756 3.773 3.773 0 0 1-.658-1.19 5.141 5.141 0 0 1-.224-1.568c0-.57.075-1.087.224-1.554.159-.467.378-.863.658-1.19.29-.336.63-.593 1.022-.77.402-.177.85-.266 1.344-.266.486 0 .92.089 1.302.266.383.177.71.425.98.742.271.308.476.677.616 1.106.15.43.224.9.224 1.414v.532h-5.194v.336c0 .308.047.597.14.868.103.261.243.49.42.686.187.196.411.35.672.462.271.112.574.168.91.168.458 0 .854-.107 1.19-.322.346-.215.612-.523.798-.924l.798.574a2.816 2.816 0 0 1-1.092 1.204c-.494.299-1.082.448-1.764.448zm0-6.622c-.308 0-.588.056-.84.168a1.879 1.879 0 0 0-.658.448c-.177.196-.317.43-.42.7-.102.261-.154.55-.154.868v.098h3.99v-.154c0-.644-.177-1.157-.532-1.54-.345-.392-.807-.588-1.386-.588zM171.655 83v-7.224h1.12v1.33h.07c.131-.345.364-.653.7-.924.336-.27.798-.406 1.386-.406h.434v1.12h-.658c-.607 0-1.083.117-1.428.35-.336.224-.504.509-.504.854V83h-1.12zm7.381.168c-.672 0-1.237-.126-1.694-.378a3.949 3.949 0 0 1-1.162-1.036l.798-.644c.28.355.592.63.938.826.345.187.746.28 1.204.28.476 0 .844-.103 1.106-.308.27-.205.406-.495.406-.868a1 1 0 0 0-.28-.714c-.178-.205-.504-.345-.98-.42l-.574-.084a5.178 5.178 0 0 1-.924-.21 2.934 2.934 0 0 1-.742-.392 1.848 1.848 0 0 1-.49-.616 2.057 2.057 0 0 1-.168-.868c0-.355.065-.663.196-.924.13-.27.308-.495.532-.672.233-.177.508-.308.826-.392.317-.093.658-.14 1.022-.14.588 0 1.078.103 1.47.308.401.205.751.49 1.05.854l-.742.672c-.159-.224-.392-.425-.7-.602-.308-.187-.696-.28-1.162-.28-.467 0-.822.103-1.064.308-.234.196-.35.467-.35.812 0 .355.116.611.35.77.242.159.588.275 1.036.35l.56.084c.802.121 1.372.355 1.708.7.336.336.504.78.504 1.33 0 .7-.238 1.25-.714 1.652-.476.401-1.13.602-1.96.602zm7.452 0c-.485 0-.929-.089-1.33-.266a2.972 2.972 0 0 1-1.036-.756 3.773 3.773 0 0 1-.658-1.19 4.843 4.843 0 0 1-.238-1.568c0-.57.079-1.087.238-1.554.159-.467.378-.863.658-1.19a2.897 2.897 0 0 1 1.036-.77 3.255 3.255 0 0 1 1.33-.266c.485 0 .924.089 1.316.266.401.177.747.434 1.036.77.289.327.513.723.672 1.19.159.467.238.985.238 1.554 0 .579-.079 1.101-.238 1.568a3.632 3.632 0 0 1-.672 1.19 2.972 2.972 0 0 1-1.036.756 3.16 3.16 0 0 1-1.316.266zm0-.994c.607 0 1.101-.187 1.484-.56.383-.373.574-.943.574-1.708V78.87c0-.765-.191-1.335-.574-1.708-.383-.373-.877-.56-1.484-.56s-1.101.187-1.484.56c-.383.373-.574.943-.574 1.708v1.036c0 .765.191 1.335.574 1.708.383.373.877.56 1.484.56zM44.37 99.824h-.056c-.439.896-1.143 1.344-2.114 1.344-.448 0-.854-.089-1.218-.266a2.703 2.703 0 0 1-.938-.756 3.64 3.64 0 0 1-.588-1.19 5.812 5.812 0 0 1-.196-1.568c0-.579.065-1.101.196-1.568a3.64 3.64 0 0 1 .588-1.19 2.71 2.71 0 0 1 .938-.756c.364-.177.77-.266 1.218-.266.504 0 .933.112 1.288.336.364.215.64.55.826 1.008h.056V90.64h1.12V101h-1.12v-1.176zm-1.862.336c.252 0 .49-.033.714-.098.233-.065.434-.159.602-.28.168-.13.299-.285.392-.462.103-.187.154-.397.154-.63v-2.688c0-.196-.051-.378-.154-.546a1.287 1.287 0 0 0-.392-.448 1.888 1.888 0 0 0-.602-.28 2.242 2.242 0 0 0-.714-.112c-.635 0-1.134.2-1.498.602-.364.392-.546.91-.546 1.554v1.232c0 .644.182 1.167.546 1.568.364.392.863.588 1.498.588zm8.163 1.008a3.26 3.26 0 0 1-1.33-.266 2.963 2.963 0 0 1-1.036-.756c-.28-.336-.5-.733-.658-1.19a4.851 4.851 0 0 1-.238-1.568c0-.57.08-1.087.238-1.554a3.57 3.57 0 0 1 .658-1.19c.29-.336.635-.593 1.036-.77a3.255 3.255 0 0 1 1.33-.266c.486 0 .924.089 1.316.266.401.177.747.434 1.036.77.29.327.513.723.672 1.19.159.467.238.985.238 1.554 0 .579-.08 1.101-.238 1.568a3.622 3.622 0 0 1-.672 1.19c-.29.327-.635.579-1.036.756-.392.177-.83.266-1.316.266zm0-.994c.607 0 1.102-.187 1.484-.56.383-.373.574-.943.574-1.708V96.87c0-.765-.191-1.335-.574-1.708-.383-.373-.877-.56-1.484-.56-.606 0-1.101.187-1.484.56-.383.373-.574.943-.574 1.708v1.036c0 .765.191 1.335.574 1.708.383.373.878.56 1.484.56zm11.24.994c-.503 0-.956-.089-1.357-.266a2.83 2.83 0 0 1-1.022-.756 3.525 3.525 0 0 1-.63-1.19c-.14-.467-.21-.99-.21-1.568 0-.579.07-1.101.21-1.568.15-.467.36-.863.63-1.19.28-.327.62-.579 1.022-.756a3.327 3.327 0 0 1 1.358-.266c.718 0 1.292.159 1.722.476.438.308.765.714.98 1.218l-.938.476a1.7 1.7 0 0 0-.644-.868c-.299-.205-.672-.308-1.12-.308-.336 0-.63.056-.882.168a1.62 1.62 0 0 0-.63.448 1.812 1.812 0 0 0-.378.686c-.084.261-.126.55-.126.868v1.232c0 .635.168 1.157.504 1.568.345.401.85.602 1.512.602.905 0 1.558-.42 1.96-1.26l.812.546a2.854 2.854 0 0 1-1.05 1.246c-.458.308-1.032.462-1.722.462zm5.614-.168c-.392 0-.69-.107-.896-.322-.196-.224-.294-.504-.294-.84V90.64h1.12v9.38h1.064v.98h-.994zm3.254-8.918c-.242 0-.42-.056-.532-.168a.69.69 0 0 1-.154-.462v-.182c0-.187.052-.336.154-.448.112-.121.29-.182.532-.182.243 0 .416.06.518.182a.605.605 0 0 1 .168.448v.182c0 .187-.056.34-.168.462-.102.112-.275.168-.518.168zm-.56 1.694h1.12V101h-1.12v-7.224zm6.286 7.392c-.494 0-.942-.089-1.344-.266a3 3 0 0 1-1.022-.756c-.28-.336-.5-.733-.658-1.19a5.132 5.132 0 0 1-.224-1.568c0-.57.075-1.087.224-1.554.159-.467.378-.863.658-1.19a2.93 2.93 0 0 1 1.022-.77c.402-.177.85-.266 1.344-.266.486 0 .92.089 1.302.266.383.177.71.425.98.742.27.308.476.677.616 1.106.15.43.224.9.224 1.414v.532h-5.194v.336c0 .308.047.597.14.868.103.261.243.49.42.686.187.196.41.35.672.462.27.112.574.168.91.168.458 0 .854-.107 1.19-.322.346-.215.612-.523.798-.924l.798.574a2.818 2.818 0 0 1-1.092 1.204c-.494.299-1.082.448-1.764.448zm0-6.622c-.308 0-.588.056-.84.168a1.876 1.876 0 0 0-.658.448 2.356 2.356 0 0 0-.574 1.568v.098h3.99v-.154c0-.644-.177-1.157-.532-1.54-.345-.392-.807-.588-1.386-.588zM81.543 101v-7.224h1.12v1.176h.056c.177-.41.425-.737.742-.98.326-.243.76-.364 1.302-.364.746 0 1.334.243 1.764.728.439.476.658 1.153.658 2.03V101h-1.12v-4.438c0-1.297-.546-1.946-1.638-1.946-.224 0-.444.028-.658.084-.206.056-.392.14-.56.252a1.293 1.293 0 0 0-.406.434c-.093.168-.14.369-.14.602V101h-1.12zm9.623 0c-.392 0-.69-.107-.896-.322-.196-.224-.294-.513-.294-.868v-5.054h-1.19v-.98h.672c.243 0 .406-.047.49-.14.093-.103.14-.275.14-.518v-1.344h1.008v2.002h1.582v.98h-1.582v5.264h1.47v.98h-1.4zm6.043.168c-.494 0-.942-.089-1.344-.266a3 3 0 0 1-1.022-.756c-.28-.336-.499-.733-.658-1.19a5.129 5.129 0 0 1-.224-1.568c0-.57.075-1.087.224-1.554a3.57 3.57 0 0 1 .658-1.19 2.93 2.93 0 0 1 1.022-.77 3.29 3.29 0 0 1 1.344-.266c.486 0 .92.089 1.302.266.383.177.71.425.98.742.271.308.476.677.616 1.106.15.43.224.9.224 1.414v.532h-5.194v.336c0 .308.047.597.14.868.103.261.243.49.42.686.187.196.411.35.672.462.271.112.574.168.91.168.458 0 .854-.107 1.19-.322.346-.215.612-.523.798-.924l.798.574a2.815 2.815 0 0 1-1.092 1.204c-.494.299-1.082.448-1.764.448zm0-6.622c-.308 0-.588.056-.84.168a1.875 1.875 0 0 0-.658.448 2.354 2.354 0 0 0-.574 1.568v.098h3.99v-.154c0-.644-.177-1.157-.532-1.54-.345-.392-.807-.588-1.386-.588zm11.133 6.622c-.495 0-.943-.089-1.344-.266a2.996 2.996 0 0 1-1.022-.756c-.28-.336-.5-.733-.658-1.19a5.11 5.11 0 0 1-.224-1.568c0-.57.074-1.087.224-1.554a3.56 3.56 0 0 1 .658-1.19c.289-.336.63-.593 1.022-.77a3.289 3.289 0 0 1 1.344-.266c.485 0 .919.089 1.302.266.382.177.709.425.98.742.27.308.476.677.616 1.106.149.43.224.9.224 1.414v.532h-5.194v.336c0 .308.046.597.14.868.102.261.242.49.42.686.186.196.41.35.672.462.27.112.574.168.91.168.457 0 .854-.107 1.19-.322.345-.215.611-.523.798-.924l.798.574a2.827 2.827 0 0 1-1.092 1.204c-.495.299-1.083.448-1.764.448zm0-6.622c-.308 0-.588.056-.84.168a1.87 1.87 0 0 0-.658.448 2.348 2.348 0 0 0-.574 1.568v.098h3.99v-.154c0-.644-.178-1.157-.532-1.54-.346-.392-.808-.588-1.386-.588zM122.008 101c-.42 0-.724-.112-.91-.336a1.69 1.69 0 0 1-.336-.84h-.07c-.159.448-.42.784-.784 1.008-.364.224-.798.336-1.302.336-.766 0-1.363-.196-1.792-.588-.42-.392-.63-.924-.63-1.596 0-.681.247-1.204.742-1.568.504-.364 1.283-.546 2.338-.546h1.428v-.714c0-.513-.14-.905-.42-1.176-.28-.27-.71-.406-1.288-.406-.439 0-.808.098-1.106.294-.29.196-.532.457-.728.784l-.672-.63c.196-.392.508-.723.938-.994.429-.28.97-.42 1.624-.42.877 0 1.558.215 2.044.644.485.43.728 1.027.728 1.792v3.976h.826v.98h-.63zm-3.22-.784c.28 0 .536-.033.77-.098.233-.065.434-.159.602-.28.168-.121.298-.261.392-.42.093-.159.14-.331.14-.518v-1.19h-1.484c-.644 0-1.116.093-1.414.28-.29.187-.434.457-.434.812v.294c0 .355.126.63.378.826.261.196.611.294 1.05.294zm7.114.784c-.392 0-.69-.107-.896-.322-.196-.224-.294-.513-.294-.868v-5.054h-1.19v-.98h.672c.243 0 .406-.047.49-.14.094-.103.14-.275.14-.518v-1.344h1.008v2.002h1.582v.98h-1.582v5.264h1.47v.98h-1.4zm3.382 0v-7.224h1.12v1.33h.07c.131-.345.364-.653.7-.924.336-.27.798-.406 1.386-.406h.434v1.12h-.658c-.606 0-1.082.117-1.428.35-.336.224-.504.509-.504.854v4.9h-1.12zm10.406 0c-.42 0-.723-.112-.91-.336a1.708 1.708 0 0 1-.336-.84h-.07c-.158.448-.42.784-.784 1.008-.364.224-.798.336-1.302.336-.765 0-1.362-.196-1.792-.588-.42-.392-.63-.924-.63-1.596 0-.681.248-1.204.742-1.568.504-.364 1.284-.546 2.338-.546h1.428v-.714c0-.513-.14-.905-.42-1.176-.28-.27-.709-.406-1.288-.406-.438 0-.807.098-1.106.294a2.457 2.457 0 0 0-.728.784l-.672-.63c.196-.392.509-.723.938-.994.43-.28.971-.42 1.624-.42.878 0 1.559.215 2.044.644.486.43.728 1.027.728 1.792v3.976h.826v.98h-.63zm-3.22-.784c.28 0 .537-.033.77-.098.234-.065.434-.159.602-.28.168-.121.299-.261.392-.42a.997.997 0 0 0 .14-.518v-1.19h-1.484c-.644 0-1.115.093-1.414.28a.908.908 0 0 0-.434.812v.294c0 .355.126.63.378.826.262.196.612.294 1.05.294zm7.006.784l-2.534-7.224h1.12l1.26 3.584.784 2.464h.07l.784-2.464 1.288-3.584h1.078L144.778 101h-1.302zm7.971.168c-.495 0-.943-.089-1.344-.266a2.996 2.996 0 0 1-1.022-.756c-.28-.336-.5-.733-.658-1.19a5.11 5.11 0 0 1-.224-1.568c0-.57.074-1.087.224-1.554a3.56 3.56 0 0 1 .658-1.19c.289-.336.63-.593 1.022-.77a3.289 3.289 0 0 1 1.344-.266c.485 0 .919.089 1.302.266.382.177.709.425.98.742.27.308.476.677.616 1.106.149.43.224.9.224 1.414v.532h-5.194v.336c0 .308.046.597.14.868.102.261.242.49.42.686.186.196.41.35.672.462.27.112.574.168.91.168.457 0 .854-.107 1.19-.322.345-.215.611-.523.798-.924l.798.574a2.827 2.827 0 0 1-1.092 1.204c-.495.299-1.083.448-1.764.448zm0-6.622c-.308 0-.588.056-.84.168a1.87 1.87 0 0 0-.658.448 2.348 2.348 0 0 0-.574 1.568v.098h3.99v-.154c0-.644-.178-1.157-.532-1.54-.346-.392-.808-.588-1.386-.588zm.112-1.736l-.728-.336 1.19-2.38 1.022.49-1.484 2.226zm7.095 8.358c-.672 0-1.236-.126-1.694-.378a3.961 3.961 0 0 1-1.162-1.036l.798-.644c.28.355.593.63.938.826.346.187.747.28 1.204.28.476 0 .845-.103 1.106-.308.271-.205.406-.495.406-.868a.996.996 0 0 0-.28-.714c-.177-.205-.504-.345-.98-.42l-.574-.084a5.178 5.178 0 0 1-.924-.21 2.951 2.951 0 0 1-.742-.392 1.874 1.874 0 0 1-.49-.616 2.057 2.057 0 0 1-.168-.868c0-.355.066-.663.196-.924.131-.27.308-.495.532-.672.234-.177.509-.308.826-.392a3.61 3.61 0 0 1 1.022-.14c.588 0 1.078.103 1.47.308.402.205.752.49 1.05.854l-.742.672c-.158-.224-.392-.425-.7-.602-.308-.187-.695-.28-1.162-.28-.466 0-.821.103-1.064.308-.233.196-.35.467-.35.812 0 .355.117.611.35.77.243.159.588.275 1.036.35l.56.084c.803.121 1.372.355 1.708.7.336.336.504.78.504 1.33 0 .7-.238 1.251-.714 1.652s-1.129.602-1.96.602zm12.721-1.344h-.056c-.438.896-1.143 1.344-2.114 1.344-.448 0-.854-.089-1.218-.266a2.71 2.71 0 0 1-.938-.756 3.64 3.64 0 0 1-.588-1.19 5.84 5.84 0 0 1-.196-1.568c0-.579.066-1.101.196-1.568a3.64 3.64 0 0 1 .588-1.19c.262-.327.574-.579.938-.756.364-.177.77-.266 1.218-.266.504 0 .934.112 1.288.336.364.215.64.55.826 1.008h.056V90.64h1.12V101h-1.12v-1.176zm-1.862.336c.252 0 .49-.033.714-.098a1.88 1.88 0 0 0 .602-.28c.168-.13.299-.285.392-.462.103-.187.154-.397.154-.63v-2.688c0-.196-.051-.378-.154-.546a1.283 1.283 0 0 0-.392-.448 1.88 1.88 0 0 0-.602-.28 2.242 2.242 0 0 0-.714-.112c-.634 0-1.134.2-1.498.602-.364.392-.546.91-.546 1.554v1.232c0 .644.182 1.167.546 1.568.364.392.864.588 1.498.588zm8.149 1.008a3.3 3.3 0 0 1-1.344-.266 3.006 3.006 0 0 1-1.022-.756 3.773 3.773 0 0 1-.658-1.19 5.141 5.141 0 0 1-.224-1.568c0-.57.075-1.087.224-1.554.159-.467.378-.863.658-1.19.29-.336.63-.593 1.022-.77.402-.177.85-.266 1.344-.266.486 0 .92.089 1.302.266.383.177.71.425.98.742.271.308.476.677.616 1.106.15.43.224.9.224 1.414v.532h-5.194v.336c0 .308.047.597.14.868.103.261.243.49.42.686.187.196.411.35.672.462.271.112.574.168.91.168.458 0 .854-.107 1.19-.322.346-.215.612-.523.798-.924l.798.574a2.814 2.814 0 0 1-1.092 1.204c-.494.299-1.082.448-1.764.448zm0-6.622c-.308 0-.588.056-.84.168a1.879 1.879 0 0 0-.658.448c-.177.196-.317.43-.42.7-.102.261-.154.55-.154.868v.098h3.99v-.154c0-.644-.177-1.157-.532-1.54-.345-.392-.807-.588-1.386-.588zm-137.998 17.23h1.12v1.176h.056c.186-.457.457-.793.812-1.008.364-.224.798-.336 1.302-.336.448 0 .854.089 1.218.266.364.177.672.429.924.756.261.327.457.723.588 1.19.14.467.21.989.21 1.568 0 .579-.07 1.101-.21 1.568-.131.467-.327.863-.588 1.19-.252.327-.56.579-.924.756-.364.177-.77.266-1.218.266-.98 0-1.685-.448-2.114-1.344h-.056v3.976h-1.12v-10.024zm2.982 6.384c.634 0 1.134-.196 1.498-.588.364-.401.546-.924.546-1.568v-1.232c0-.644-.182-1.162-.546-1.554-.364-.401-.864-.602-1.498-.602-.252 0-.495.037-.728.112-.224.065-.42.159-.588.28a1.432 1.432 0 0 0-.406.448c-.094.168-.14.35-.14.546v2.688c0 .233.046.443.14.63.102.177.238.331.406.462.168.121.364.215.588.28a2.7 2.7 0 0 0 .728.098zm7.925 1.008c-.495 0-.943-.089-1.344-.266a3 3 0 0 1-1.022-.756c-.28-.336-.5-.733-.658-1.19a5.129 5.129 0 0 1-.224-1.568c0-.569.074-1.087.224-1.554a3.57 3.57 0 0 1 .658-1.19c.29-.336.63-.593 1.022-.77.401-.177.85-.266 1.344-.266.485 0 .92.089 1.302.266.382.177.71.425.98.742.27.308.476.677.616 1.106.15.429.224.901.224 1.414v.532h-5.194v.336c0 .308.046.597.14.868.102.261.242.49.42.686.186.196.41.35.672.462.27.112.574.168.91.168.457 0 .854-.107 1.19-.322a2.1 2.1 0 0 0 .798-.924l.798.574a2.819 2.819 0 0 1-1.092 1.204c-.495.299-1.083.448-1.764.448zm0-6.622c-.308 0-.588.056-.84.168a1.88 1.88 0 0 0-.658.448 2.354 2.354 0 0 0-.574 1.568v.098h3.99v-.154c0-.644-.178-1.157-.532-1.54-.346-.392-.808-.588-1.386-.588zm7.207 6.622c-.672 0-1.236-.126-1.694-.378a3.956 3.956 0 0 1-1.162-1.036l.798-.644c.28.355.593.63.938.826.346.187.747.28 1.204.28.476 0 .845-.103 1.106-.308.271-.205.406-.495.406-.868a.998.998 0 0 0-.28-.714c-.177-.205-.504-.345-.98-.42l-.574-.084a5.23 5.23 0 0 1-.924-.21 2.945 2.945 0 0 1-.742-.392 1.857 1.857 0 0 1-.49-.616 2.058 2.058 0 0 1-.168-.868c0-.355.066-.663.196-.924.131-.271.308-.495.532-.672.234-.177.509-.308.826-.392.318-.093.658-.14 1.022-.14.588 0 1.078.103 1.47.308.402.205.752.49 1.05.854l-.742.672c-.158-.224-.392-.425-.7-.602-.308-.187-.695-.28-1.162-.28-.466 0-.821.103-1.064.308-.233.196-.35.467-.35.812 0 .355.117.611.35.77.243.159.588.275 1.036.35l.56.084c.803.121 1.372.355 1.708.7.336.336.504.779.504 1.33 0 .7-.238 1.251-.714 1.652s-1.129.602-1.96.602zm9.343-1.344h-.056c-.439.896-1.144 1.344-2.114 1.344-.448 0-.854-.089-1.218-.266a2.704 2.704 0 0 1-.938-.756 3.64 3.64 0 0 1-.588-1.19 5.816 5.816 0 0 1-.196-1.568c0-.579.065-1.101.196-1.568a3.64 3.64 0 0 1 .588-1.19c.261-.327.574-.579.938-.756.364-.177.77-.266 1.218-.266.504 0 .933.112 1.288.336.364.215.639.551.826 1.008h.056v-1.176h1.12V121.8h-1.12v-3.976zm-1.862.336c.252 0 .49-.033.714-.098.233-.065.434-.159.602-.28.168-.131.298-.285.392-.462.102-.187.154-.397.154-.63v-2.688c0-.196-.052-.378-.154-.546a1.286 1.286 0 0 0-.392-.448 1.887 1.887 0 0 0-.602-.28 2.234 2.234 0 0 0-.714-.112c-.635 0-1.134.201-1.498.602-.364.392-.546.91-.546 1.554v1.232c0 .644.182 1.167.546 1.568.364.392.863.588 1.498.588zm9.885-.336h-.056a3.393 3.393 0 0 1-.28.504 1.898 1.898 0 0 1-.392.434c-.159.121-.35.219-.574.294a2.472 2.472 0 0 1-.784.112c-.747 0-1.34-.238-1.778-.714-.439-.485-.658-1.167-.658-2.044v-4.634h1.12v4.438c0 1.297.55 1.946 1.652 1.946.224 0 .438-.028.644-.084.214-.056.401-.14.56-.252a1.203 1.203 0 0 0 .546-1.05v-4.998h1.12V119h-1.12v-1.176zm4.135-7.742c-.243 0-.42-.056-.532-.168a.69.69 0 0 1-.154-.462v-.182c0-.187.051-.336.154-.448.112-.121.29-.182.532-.182.242 0 .415.061.518.182a.605.605 0 0 1 .168.448v.182a.653.653 0 0 1-.168.462c-.103.112-.276.168-.518.168zm-.56 1.694h1.12V119h-1.12v-7.224zm5.74 7.392c-.672 0-1.237-.126-1.694-.378a3.958 3.958 0 0 1-1.162-1.036l.798-.644c.28.355.592.63.938.826.345.187.746.28 1.204.28.476 0 .844-.103 1.106-.308.27-.205.406-.495.406-.868a.997.997 0 0 0-.28-.714c-.178-.205-.504-.345-.98-.42l-.574-.084a5.23 5.23 0 0 1-.924-.21 2.946 2.946 0 0 1-.742-.392 1.86 1.86 0 0 1-.49-.616 2.058 2.058 0 0 1-.168-.868c0-.355.065-.663.196-.924.13-.271.308-.495.532-.672.233-.177.508-.308.826-.392.317-.093.658-.14 1.022-.14.588 0 1.078.103 1.47.308.401.205.751.49 1.05.854l-.742.672c-.159-.224-.392-.425-.7-.602-.308-.187-.696-.28-1.162-.28-.467 0-.822.103-1.064.308-.234.196-.35.467-.35.812 0 .355.116.611.35.77.242.159.588.275 1.036.35l.56.084c.802.121 1.372.355 1.708.7.336.336.504.779.504 1.33 0 .7-.238 1.251-.714 1.652s-1.13.602-1.96.602zM94.43 119c-.42 0-.723-.112-.91-.336a1.702 1.702 0 0 1-.336-.84h-.07c-.159.448-.42.784-.784 1.008-.364.224-.798.336-1.302.336-.765 0-1.363-.196-1.792-.588-.42-.392-.63-.924-.63-1.596 0-.681.247-1.204.742-1.568.504-.364 1.283-.546 2.338-.546h1.428v-.714c0-.513-.14-.905-.42-1.176-.28-.271-.71-.406-1.288-.406-.439 0-.807.098-1.106.294a2.45 2.45 0 0 0-.728.784l-.672-.63c.196-.392.509-.723.938-.994.43-.28.97-.42 1.624-.42.877 0 1.559.215 2.044.644.485.429.728 1.027.728 1.792v3.976h.826v.98h-.63zm-3.22-.784c.28 0 .537-.033.77-.098.233-.065.434-.159.602-.28a1.38 1.38 0 0 0 .392-.42c.093-.159.14-.331.14-.518v-1.19h-1.484c-.644 0-1.115.093-1.414.28a.908.908 0 0 0-.434.812v.294c0 .355.126.63.378.826.261.196.611.294 1.05.294zm7.689.952c-.672 0-1.237-.126-1.695-.378a3.958 3.958 0 0 1-1.162-1.036l.798-.644c.28.355.593.63.939.826.345.187.746.28 1.204.28.476 0 .844-.103 1.106-.308.27-.205.406-.495.406-.868a1 1 0 0 0-.28-.714c-.178-.205-.504-.345-.98-.42l-.575-.084a5.23 5.23 0 0 1-.924-.21 2.946 2.946 0 0 1-.741-.392 1.86 1.86 0 0 1-.49-.616 2.058 2.058 0 0 1-.168-.868c0-.355.065-.663.196-.924.13-.271.307-.495.531-.672.234-.177.51-.308.826-.392.318-.093.658-.14 1.022-.14.588 0 1.079.103 1.471.308.401.205.751.49 1.05.854l-.742.672c-.159-.224-.392-.425-.7-.602-.309-.187-.696-.28-1.163-.28-.466 0-.82.103-1.063.308-.234.196-.35.467-.35.812 0 .355.116.611.35.77.242.159.587.275 1.035.35l.56.084c.803.121 1.373.355 1.709.7.336.336.504.779.504 1.33 0 .7-.238 1.251-.714 1.652s-1.13.602-1.96.602zm8.1-10.528h1.12v4.312h.056c.187-.457.458-.793.812-1.008.364-.224.798-.336 1.302-.336.448 0 .854.089 1.218.266.364.177.672.429.924.756.262.327.458.723.588 1.19.14.467.21.989.21 1.568 0 .579-.07 1.101-.21 1.568-.13.467-.326.863-.588 1.19-.252.327-.56.579-.924.756-.364.177-.77.266-1.218.266-.98 0-1.684-.448-2.114-1.344h-.056V119H107v-10.36zm2.982 9.52c.635 0 1.134-.196 1.498-.588.364-.401.546-.924.546-1.568v-1.232c0-.644-.182-1.162-.546-1.554-.364-.401-.863-.602-1.498-.602-.252 0-.494.037-.728.112-.224.065-.42.159-.588.28a1.437 1.437 0 0 0-.406.448 1.11 1.11 0 0 0-.14.546v2.688c0 .233.047.443.14.63.103.177.238.331.406.462.168.121.364.215.588.28.234.065.476.098.728.098zm9.661-.336h-.056a3.34 3.34 0 0 1-.28.504 1.877 1.877 0 0 1-.392.434c-.158.121-.35.219-.574.294a2.471 2.471 0 0 1-.784.112c-.746 0-1.339-.238-1.778-.714-.438-.485-.658-1.167-.658-2.044v-4.634h1.12v4.438c0 1.297.551 1.946 1.652 1.946.224 0 .439-.028.644-.084a1.7 1.7 0 0 0 .56-.252 1.2 1.2 0 0 0 .392-.42 1.23 1.23 0 0 0 .154-.63v-4.998h1.12V119h-1.12v-1.176zm5.746 1.344c-.672 0-1.237-.126-1.694-.378a3.949 3.949 0 0 1-1.162-1.036l.798-.644c.28.355.592.63.938.826.345.187.746.28 1.204.28.476 0 .844-.103 1.106-.308.27-.205.406-.495.406-.868a1 1 0 0 0-.28-.714c-.178-.205-.504-.345-.98-.42l-.574-.084a5.23 5.23 0 0 1-.924-.21 2.934 2.934 0 0 1-.742-.392 1.845 1.845 0 0 1-.49-.616 2.058 2.058 0 0 1-.168-.868c0-.355.065-.663.196-.924.13-.271.308-.495.532-.672.233-.177.508-.308.826-.392.317-.093.658-.14 1.022-.14.588 0 1.078.103 1.47.308.401.205.751.49 1.05.854l-.742.672c-.159-.224-.392-.425-.7-.602-.308-.187-.696-.28-1.162-.28-.467 0-.822.103-1.064.308-.234.196-.35.467-.35.812 0 .355.116.611.35.77.242.159.588.275 1.036.35l.56.084c.802.121 1.372.355 1.708.7.336.336.504.779.504 1.33 0 .7-.238 1.251-.714 1.652s-1.13.602-1.96.602zm7.41 0a3.33 3.33 0 0 1-1.358-.266 2.825 2.825 0 0 1-1.022-.756 3.514 3.514 0 0 1-.63-1.19 5.449 5.449 0 0 1-.21-1.568c0-.579.07-1.101.21-1.568.149-.467.359-.863.63-1.19.28-.327.62-.579 1.022-.756a3.33 3.33 0 0 1 1.358-.266c.718 0 1.292.159 1.722.476.438.308.765.714.98 1.218l-.938.476a1.705 1.705 0 0 0-.644-.868c-.299-.205-.672-.308-1.12-.308-.336 0-.63.056-.882.168a1.623 1.623 0 0 0-.63.448 1.812 1.812 0 0 0-.378.686 2.826 2.826 0 0 0-.126.868v1.232c0 .635.168 1.157.504 1.568.345.401.849.602 1.512.602.905 0 1.558-.42 1.96-1.26l.812.546a2.86 2.86 0 0 1-1.05 1.246c-.458.308-1.032.462-1.722.462zm9.673-.168c-.42 0-.724-.112-.91-.336a1.69 1.69 0 0 1-.336-.84h-.07c-.159.448-.42.784-.784 1.008-.364.224-.798.336-1.302.336-.766 0-1.363-.196-1.792-.588-.42-.392-.63-.924-.63-1.596 0-.681.247-1.204.742-1.568.504-.364 1.283-.546 2.338-.546h1.428v-.714c0-.513-.14-.905-.42-1.176-.28-.271-.71-.406-1.288-.406-.439 0-.808.098-1.106.294-.29.196-.532.457-.728.784l-.672-.63c.196-.392.508-.723.938-.994.429-.28.97-.42 1.624-.42.877 0 1.558.215 2.044.644.485.429.728 1.027.728 1.792v3.976h.826v.98h-.63zm-3.22-.784c.28 0 .536-.033.77-.098a1.89 1.89 0 0 0 .602-.28c.168-.121.298-.261.392-.42.093-.159.14-.331.14-.518v-1.19h-1.484c-.644 0-1.116.093-1.414.28-.29.187-.434.457-.434.812v.294c0 .355.126.63.378.826.261.196.611.294 1.05.294zm5.518.784v-7.224h1.12v1.176h.056c.084-.187.178-.359.28-.518.112-.168.243-.313.392-.434.159-.121.341-.215.546-.28.206-.075.448-.112.728-.112.476 0 .915.117 1.316.35.402.224.7.597.896 1.12h.028c.131-.392.374-.733.728-1.022.364-.299.854-.448 1.47-.448.738 0 1.312.243 1.722.728.42.476.63 1.153.63 2.03V119h-1.12v-4.438c0-.644-.126-1.129-.378-1.456-.252-.327-.653-.49-1.204-.49a2.44 2.44 0 0 0-.644.084 1.75 1.75 0 0 0-.532.252 1.23 1.23 0 0 0-.518 1.036V119h-1.12v-4.438c0-.644-.126-1.129-.378-1.456-.252-.327-.644-.49-1.176-.49a2.44 2.44 0 0 0-.644.084c-.205.056-.387.14-.546.252a1.367 1.367 0 0 0-.392.434c-.093.168-.14.369-.14.602V119h-1.12zm15.023.168a3.26 3.26 0 0 1-1.33-.266 2.964 2.964 0 0 1-1.036-.756 3.776 3.776 0 0 1-.658-1.19 4.843 4.843 0 0 1-.238-1.568c0-.569.079-1.087.238-1.554.159-.467.378-.863.658-1.19a2.893 2.893 0 0 1 1.036-.77 3.26 3.26 0 0 1 1.33-.266c.485 0 .924.089 1.316.266.401.177.747.434 1.036.77.289.327.513.723.672 1.19.159.467.238.985.238 1.554 0 .579-.079 1.101-.238 1.568a3.636 3.636 0 0 1-.672 1.19 2.964 2.964 0 0 1-1.036.756 3.164 3.164 0 0 1-1.316.266zm0-.994c.607 0 1.101-.187 1.484-.56.383-.373.574-.943.574-1.708v-1.036c0-.765-.191-1.335-.574-1.708-.383-.373-.877-.56-1.484-.56s-1.101.187-1.484.56c-.383.373-.574.943-.574 1.708v1.036c0 .765.191 1.335.574 1.708.383.373.877.56 1.484.56zm7.344.994c-.672 0-1.237-.126-1.694-.378a3.961 3.961 0 0 1-1.162-1.036l.798-.644c.28.355.593.63.938.826.345.187.747.28 1.204.28.476 0 .845-.103 1.106-.308.271-.205.406-.495.406-.868a.996.996 0 0 0-.28-.714c-.177-.205-.504-.345-.98-.42l-.574-.084a5.23 5.23 0 0 1-.924-.21 2.951 2.951 0 0 1-.742-.392 1.858 1.858 0 0 1-.49-.616 2.058 2.058 0 0 1-.168-.868c0-.355.065-.663.196-.924a1.89 1.89 0 0 1 .532-.672c.233-.177.509-.308.826-.392.317-.093.658-.14 1.022-.14.588 0 1.078.103 1.47.308.401.205.751.49 1.05.854l-.742.672c-.159-.224-.392-.425-.7-.602-.308-.187-.695-.28-1.162-.28-.467 0-.821.103-1.064.308-.233.196-.35.467-.35.812 0 .355.117.611.35.77.243.159.588.275 1.036.35l.56.084c.803.121 1.372.355 1.708.7.336.336.504.779.504 1.33 0 .7-.238 1.251-.714 1.652s-1.129.602-1.96.602zm13.351-.168c-.42 0-.724-.112-.91-.336a1.69 1.69 0 0 1-.336-.84h-.07c-.159.448-.42.784-.784 1.008-.364.224-.798.336-1.302.336-.766 0-1.363-.196-1.792-.588-.42-.392-.63-.924-.63-1.596 0-.681.247-1.204.742-1.568.504-.364 1.283-.546 2.338-.546h1.428v-.714c0-.513-.14-.905-.42-1.176-.28-.271-.71-.406-1.288-.406-.439 0-.808.098-1.106.294-.29.196-.532.457-.728.784l-.672-.63c.196-.392.508-.723.938-.994.429-.28.97-.42 1.624-.42.877 0 1.558.215 2.044.644.485.429.728 1.027.728 1.792v3.976h.826v.98h-.63zm-3.22-.784c.28 0 .536-.033.77-.098a1.89 1.89 0 0 0 .602-.28c.168-.121.298-.261.392-.42.093-.159.14-.331.14-.518v-1.19h-1.484c-.644 0-1.116.093-1.414.28-.29.187-.434.457-.434.812v.294c0 .355.126.63.378.826.261.196.611.294 1.05.294zm-124.72 18.952c-.672 0-1.237-.126-1.694-.378a3.958 3.958 0 0 1-1.162-1.036l.798-.644c.28.355.593.63.938.826.345.187.747.28 1.204.28.476 0 .845-.103 1.106-.308.27-.205.406-.495.406-.868a.997.997 0 0 0-.28-.714c-.177-.205-.504-.345-.98-.42l-.574-.084a5.23 5.23 0 0 1-.924-.21 2.946 2.946 0 0 1-.742-.392 1.86 1.86 0 0 1-.49-.616 2.058 2.058 0 0 1-.168-.868c0-.355.065-.663.196-.924.13-.271.308-.495.532-.672.233-.177.509-.308.826-.392.317-.093.658-.14 1.022-.14.588 0 1.078.103 1.47.308.401.205.751.49 1.05.854l-.742.672c-.159-.224-.392-.425-.7-.602-.308-.187-.695-.28-1.162-.28-.467 0-.821.103-1.064.308-.233.196-.35.467-.35.812 0 .355.117.611.35.77.243.159.588.275 1.036.35l.56.084c.803.121 1.372.355 1.708.7.336.336.504.779.504 1.33 0 .7-.238 1.251-.714 1.652s-1.13.602-1.96.602zm7.452 0a3.26 3.26 0 0 1-1.33-.266 2.964 2.964 0 0 1-1.036-.756 3.77 3.77 0 0 1-.658-1.19 4.851 4.851 0 0 1-.238-1.568c0-.569.08-1.087.238-1.554.159-.467.378-.863.658-1.19.29-.336.635-.593 1.036-.77a3.26 3.26 0 0 1 1.33-.266c.486 0 .924.089 1.316.266.402.177.747.434 1.036.77.29.327.514.723.672 1.19.159.467.238.985.238 1.554 0 .579-.079 1.101-.238 1.568a3.625 3.625 0 0 1-.672 1.19c-.289.327-.634.579-1.036.756-.392.177-.83.266-1.316.266zm0-.994c.607 0 1.102-.187 1.484-.56.383-.373.574-.943.574-1.708v-1.036c0-.765-.191-1.335-.574-1.708-.382-.373-.877-.56-1.484-.56-.606 0-1.101.187-1.484.56-.382.373-.574.943-.574 1.708v1.036c0 .765.192 1.335.574 1.708.383.373.878.56 1.484.56zm6.364.826c-.392 0-.69-.107-.896-.322-.196-.224-.294-.504-.294-.84v-9.198h1.12v9.38h1.064v.98h-.994zm7.147-1.176h-.056a3.403 3.403 0 0 1-.28.504 1.903 1.903 0 0 1-.392.434 1.97 1.97 0 0 1-.574.294 2.473 2.473 0 0 1-.784.112c-.747 0-1.34-.238-1.778-.714-.439-.485-.658-1.167-.658-2.044v-4.634h1.12v4.438c0 1.297.55 1.946 1.652 1.946.224 0 .438-.028.644-.084a1.71 1.71 0 0 0 .56-.252 1.203 1.203 0 0 0 .546-1.05v-4.998h1.12V137h-1.12v-1.176zm6.263-6.216c.718 0 1.292.159 1.722.476.438.308.765.709.98 1.204l-.938.49a1.7 1.7 0 0 0-.644-.868c-.299-.205-.672-.308-1.12-.308-.336 0-.63.056-.882.168a1.623 1.623 0 0 0-.63.448 1.812 1.812 0 0 0-.378.686 2.826 2.826 0 0 0-.126.868v1.232c0 .635.168 1.157.504 1.568.345.401.85.602 1.512.602.905 0 1.558-.42 1.96-1.26l.812.546a2.973 2.973 0 0 1-.938 1.176c-.41.299-.92.471-1.526.518l-.14.7.042.042c.177-.056.36-.084.546-.084.27 0 .494.079.672.238.186.159.28.387.28.686 0 .196-.042.369-.126.518-.084.149-.2.271-.35.364-.14.093-.304.163-.49.21a2.4 2.4 0 0 1-.588.07c-.383 0-.686-.065-.91-.196a1.587 1.587 0 0 1-.476-.378l.532-.574c.084.103.196.191.336.266a.99.99 0 0 0 .518.126.766.766 0 0 0 .434-.112c.121-.065.182-.173.182-.322 0-.131-.06-.247-.182-.35-.122-.093-.378-.168-.77-.224l-.392-.056.182-.924c-.906-.093-1.606-.476-2.1-1.148-.486-.672-.728-1.545-.728-2.618 0-.579.07-1.101.21-1.568.15-.467.36-.863.63-1.19a2.83 2.83 0 0 1 1.022-.756 3.332 3.332 0 0 1 1.358-.266zM89.447 137c-.42 0-.724-.112-.91-.336a1.702 1.702 0 0 1-.336-.84h-.07c-.159.448-.42.784-.784 1.008-.364.224-.798.336-1.302.336-.766 0-1.363-.196-1.792-.588-.42-.392-.63-.924-.63-1.596 0-.681.247-1.204.742-1.568.504-.364 1.283-.546 2.338-.546h1.428v-.714c0-.513-.14-.905-.42-1.176-.28-.271-.71-.406-1.288-.406-.439 0-.808.098-1.106.294a2.45 2.45 0 0 0-.728.784l-.672-.63c.196-.392.508-.723.938-.994.43-.28.97-.42 1.624-.42.877 0 1.558.215 2.044.644.485.429.728 1.027.728 1.792v3.976h.826v.98h-.63zm-3.22-.784c.28 0 .536-.033.77-.098.233-.065.434-.159.602-.28a1.38 1.38 0 0 0 .392-.42c.093-.159.14-.331.14-.518v-1.19h-1.484c-.644 0-1.116.093-1.414.28a.908.908 0 0 0-.434.812v.294c0 .355.126.63.378.826.261.196.611.294 1.05.294zm1.344-7.784c-.243 0-.453-.042-.63-.126-.178-.084-.34-.163-.49-.238a3.128 3.128 0 0 0-.574-.252 1.169 1.169 0 0 0-.406-.084.876.876 0 0 0-.42.098 2.223 2.223 0 0 0-.392.28l-.462-.56c.13-.187.303-.355.518-.504.215-.159.485-.238.812-.238.242 0 .453.042.63.126.177.084.34.163.49.238.224.121.41.21.56.266.159.047.299.07.42.07a.876.876 0 0 0 .42-.098c.121-.065.252-.159.392-.28l.462.56a2.27 2.27 0 0 1-.518.518c-.215.149-.486.224-.812.224zm6.904 8.736a3.26 3.26 0 0 1-1.33-.266 2.964 2.964 0 0 1-1.036-.756 3.77 3.77 0 0 1-.658-1.19 4.851 4.851 0 0 1-.238-1.568c0-.569.08-1.087.238-1.554.159-.467.378-.863.658-1.19.29-.336.635-.593 1.036-.77a3.26 3.26 0 0 1 1.33-.266c.486 0 .924.089 1.316.266.402.177.747.434 1.036.77.29.327.514.723.672 1.19.159.467.238.985.238 1.554 0 .579-.079 1.101-.238 1.568a3.625 3.625 0 0 1-.672 1.19c-.289.327-.634.579-1.036.756-.392.177-.83.266-1.316.266zm0-.994c.607 0 1.102-.187 1.484-.56.383-.373.574-.943.574-1.708v-1.036c0-.765-.191-1.335-.574-1.708-.382-.373-.877-.56-1.484-.56-.606 0-1.101.187-1.484.56-.382.373-.574.943-.574 1.708v1.036c0 .765.192 1.335.574 1.708.383.373.878.56 1.484.56zm13.173-.35h-.056c-.439.896-1.143 1.344-2.114 1.344-.448 0-.854-.089-1.218-.266a2.7 2.7 0 0 1-.938-.756 3.64 3.64 0 0 1-.588-1.19 5.8 5.8 0 0 1-.196-1.568 5.8 5.8 0 0 1 .196-1.568 3.64 3.64 0 0 1 .588-1.19 2.7 2.7 0 0 1 .938-.756c.364-.177.77-.266 1.218-.266.504 0 .933.112 1.288.336.364.215.639.551.826 1.008h.056v-1.176h1.12V139.8h-1.12v-3.976zm-1.862.336c.252 0 .49-.033.714-.098a1.89 1.89 0 0 0 .602-.28c.168-.131.299-.285.392-.462.103-.187.154-.397.154-.63v-2.688c0-.196-.051-.378-.154-.546a1.283 1.283 0 0 0-.392-.448 1.89 1.89 0 0 0-.602-.28 2.234 2.234 0 0 0-.714-.112c-.635 0-1.134.201-1.498.602-.364.392-.546.91-.546 1.554v1.232c0 .644.182 1.167.546 1.568.364.392.863.588 1.498.588zm9.885-.336h-.056a3.43 3.43 0 0 1-.28.504 1.9 1.9 0 0 1-.392.434c-.159.121-.35.219-.574.294a2.471 2.471 0 0 1-.784.112c-.747 0-1.339-.238-1.778-.714-.439-.485-.658-1.167-.658-2.044v-4.634h1.12v4.438c0 1.297.551 1.946 1.652 1.946.224 0 .439-.028.644-.084a1.71 1.71 0 0 0 .56-.252 1.2 1.2 0 0 0 .392-.42 1.23 1.23 0 0 0 .154-.63v-4.998h1.12V137h-1.12v-1.176zm6.291 1.344c-.495 0-.943-.089-1.344-.266a2.996 2.996 0 0 1-1.022-.756 3.776 3.776 0 0 1-.658-1.19 5.141 5.141 0 0 1-.224-1.568c0-.569.075-1.087.224-1.554.159-.467.378-.863.658-1.19.289-.336.63-.593 1.022-.77a3.294 3.294 0 0 1 1.344-.266c.485 0 .919.089 1.302.266.383.177.709.425.98.742.271.308.476.677.616 1.106.149.429.224.901.224 1.414v.532h-5.194v.336c0 .308.047.597.14.868.103.261.243.49.42.686.187.196.411.35.672.462.271.112.574.168.91.168.457 0 .854-.107 1.19-.322.345-.215.611-.523.798-.924l.798.574a2.814 2.814 0 0 1-1.092 1.204c-.495.299-1.083.448-1.764.448zm0-6.622c-.308 0-.588.056-.84.168a1.883 1.883 0 0 0-.658.448 2.348 2.348 0 0 0-.574 1.568v.098h3.99v-.154c0-.644-.177-1.157-.532-1.54-.345-.392-.807-.588-1.386-.588zm8.416 6.454v-7.224h1.12v1.176h.056c.084-.187.178-.359.28-.518.112-.168.243-.313.392-.434.159-.121.341-.215.546-.28.206-.075.448-.112.728-.112.476 0 .915.117 1.316.35.402.224.7.597.896 1.12h.028c.131-.392.374-.733.728-1.022.364-.299.854-.448 1.47-.448.738 0 1.312.243 1.722.728.42.476.63 1.153.63 2.03V137h-1.12v-4.438c0-.644-.126-1.129-.378-1.456-.252-.327-.653-.49-1.204-.49a2.44 2.44 0 0 0-.644.084 1.75 1.75 0 0 0-.532.252 1.23 1.23 0 0 0-.518 1.036V137h-1.12v-4.438c0-.644-.126-1.129-.378-1.456-.252-.327-.644-.49-1.176-.49a2.44 2.44 0 0 0-.644.084c-.205.056-.387.14-.546.252a1.367 1.367 0 0 0-.392.434c-.093.168-.14.369-.14.602V137h-1.12zm15.009.168c-.495 0-.943-.089-1.344-.266a2.996 2.996 0 0 1-1.022-.756 3.776 3.776 0 0 1-.658-1.19 5.141 5.141 0 0 1-.224-1.568c0-.569.075-1.087.224-1.554.159-.467.378-.863.658-1.19.289-.336.63-.593 1.022-.77a3.294 3.294 0 0 1 1.344-.266c.485 0 .919.089 1.302.266.383.177.709.425.98.742.271.308.476.677.616 1.106.149.429.224.901.224 1.414v.532h-5.194v.336c0 .308.047.597.14.868.103.261.243.49.42.686.187.196.411.35.672.462.271.112.574.168.91.168.457 0 .854-.107 1.19-.322.345-.215.611-.523.798-.924l.798.574a2.814 2.814 0 0 1-1.092 1.204c-.495.299-1.083.448-1.764.448zm0-6.622c-.308 0-.588.056-.84.168a1.883 1.883 0 0 0-.658.448 2.348 2.348 0 0 0-.574 1.568v.098h3.99v-.154c0-.644-.177-1.157-.532-1.54-.345-.392-.807-.588-1.386-.588zm6.227 6.454c-.392 0-.69-.107-.896-.322-.196-.224-.294-.504-.294-.84v-9.198h1.12v9.38h1.064v.98h-.994zm2.695-10.36h1.12v4.312h.056c.177-.411.425-.737.742-.98.327-.243.761-.364 1.302-.364.747 0 1.335.243 1.764.728.439.476.658 1.153.658 2.03V137h-1.12v-4.438c0-1.297-.546-1.946-1.638-1.946-.224 0-.443.028-.658.084a1.91 1.91 0 0 0-.56.252 1.299 1.299 0 0 0-.406.434c-.093.168-.14.369-.14.602V137h-1.12v-10.36zm10.757 10.528a3.26 3.26 0 0 1-1.33-.266 2.964 2.964 0 0 1-1.036-.756 3.776 3.776 0 0 1-.658-1.19 4.843 4.843 0 0 1-.238-1.568c0-.569.079-1.087.238-1.554.159-.467.378-.863.658-1.19a2.893 2.893 0 0 1 1.036-.77 3.26 3.26 0 0 1 1.33-.266c.485 0 .924.089 1.316.266.401.177.747.434 1.036.77.289.327.513.723.672 1.19.159.467.238.985.238 1.554 0 .579-.079 1.101-.238 1.568a3.636 3.636 0 0 1-.672 1.19 2.964 2.964 0 0 1-1.036.756 3.164 3.164 0 0 1-1.316.266zm0-.994c.607 0 1.101-.187 1.484-.56.383-.373.574-.943.574-1.708v-1.036c0-.765-.191-1.335-.574-1.708-.383-.373-.877-.56-1.484-.56s-1.101.187-1.484.56c-.383.373-.574.943-.574 1.708v1.036c0 .765.191 1.335.574 1.708.383.373.877.56 1.484.56zm5.174.826v-7.224h1.12v1.33h.07c.131-.345.364-.653.7-.924.336-.271.798-.406 1.386-.406h.434v1.12h-.658c-.607 0-1.083.117-1.428.35-.336.224-.504.509-.504.854v4.9h-1.12zM30.267 155c-.42 0-.723-.112-.91-.336a1.702 1.702 0 0 1-.336-.84h-.07c-.159.448-.42.784-.784 1.008-.364.224-.798.336-1.302.336-.765 0-1.363-.196-1.792-.588-.42-.392-.63-.924-.63-1.596 0-.681.247-1.204.742-1.568.504-.364 1.283-.546 2.338-.546h1.428v-.714c0-.513-.14-.905-.42-1.176-.28-.271-.71-.406-1.288-.406-.439 0-.807.098-1.106.294a2.45 2.45 0 0 0-.728.784l-.672-.63c.196-.392.509-.723.938-.994.43-.28.97-.42 1.624-.42.877 0 1.559.215 2.044.644.485.429.728 1.027.728 1.792v3.976h.826v.98h-.63zm-3.22-.784c.28 0 .537-.033.77-.098.233-.065.434-.159.602-.28a1.38 1.38 0 0 0 .392-.42c.093-.159.14-.331.14-.518v-1.19h-1.484c-.644 0-1.115.093-1.414.28a.908.908 0 0 0-.434.812v.294c0 .355.126.63.378.826.261.196.611.294 1.05.294zm7.114.784c-.392 0-.69-.107-.895-.322-.197-.224-.294-.513-.294-.868v-5.054h-1.19v-.98h.671c.243 0 .406-.047.49-.14.094-.103.14-.275.14-.518v-1.344h1.009v2.002h1.581v.98h-1.581v5.264h1.47v.98h-1.4zm6.044.168c-.495 0-.943-.089-1.344-.266a3 3 0 0 1-1.022-.756 3.77 3.77 0 0 1-.658-1.19 5.132 5.132 0 0 1-.224-1.568c0-.569.075-1.087.224-1.554.159-.467.378-.863.658-1.19.29-.336.63-.593 1.022-.77.401-.177.85-.266 1.344-.266.485 0 .92.089 1.302.266.383.177.71.425.98.742.27.308.476.677.616 1.106.15.429.224.901.224 1.414v.532h-5.194v.336c0 .308.047.597.14.868.103.261.243.49.42.686.187.196.41.35.672.462.27.112.574.168.91.168.457 0 .854-.107 1.19-.322a2.1 2.1 0 0 0 .798-.924l.798.574a2.818 2.818 0 0 1-1.092 1.204c-.495.299-1.083.448-1.764.448zm0-6.622c-.308 0-.588.056-.84.168a1.88 1.88 0 0 0-.658.448 2.356 2.356 0 0 0-.574 1.568v.098h3.99v-.154c0-.644-.177-1.157-.532-1.54-.345-.392-.807-.588-1.386-.588zM45.243 155v-7.224h1.12v1.176h.056c.177-.411.424-.737.742-.98.326-.243.76-.364 1.302-.364.746 0 1.334.243 1.764.728.438.476.658 1.153.658 2.03V155h-1.12v-4.438c0-1.297-.546-1.946-1.638-1.946-.224 0-.444.028-.658.084-.206.056-.392.14-.56.252a1.296 1.296 0 0 0-.406.434c-.094.168-.14.369-.14.602V155h-1.12zm12.647-1.176h-.056c-.439.896-1.144 1.344-2.114 1.344-.448 0-.854-.089-1.218-.266a2.704 2.704 0 0 1-.938-.756 3.64 3.64 0 0 1-.588-1.19 5.816 5.816 0 0 1-.196-1.568c0-.579.065-1.101.196-1.568a3.64 3.64 0 0 1 .588-1.19c.261-.327.574-.579.938-.756.364-.177.77-.266 1.218-.266.504 0 .933.112 1.288.336.364.215.639.551.826 1.008h.056v-4.312h1.12V155h-1.12v-1.176zm-1.862.336c.252 0 .49-.033.714-.098.233-.065.434-.159.602-.28.168-.131.298-.285.392-.462.102-.187.154-.397.154-.63v-2.688c0-.196-.052-.378-.154-.546a1.286 1.286 0 0 0-.392-.448 1.887 1.887 0 0 0-.602-.28 2.234 2.234 0 0 0-.714-.112c-.635 0-1.134.201-1.498.602-.364.392-.546.91-.546 1.554v1.232c0 .644.182 1.167.546 1.568.364.392.863.588 1.498.588zm8.149 1.008c-.495 0-.943-.089-1.344-.266a3 3 0 0 1-1.022-.756 3.77 3.77 0 0 1-.658-1.19 5.132 5.132 0 0 1-.224-1.568c0-.569.074-1.087.224-1.554.158-.467.378-.863.658-1.19.29-.336.63-.593 1.022-.77.401-.177.85-.266 1.344-.266.485 0 .92.089 1.302.266.382.177.71.425.98.742.27.308.476.677.616 1.106.15.429.224.901.224 1.414v.532h-5.194v.336c0 .308.046.597.14.868.102.261.242.49.42.686.186.196.41.35.672.462.27.112.574.168.91.168.457 0 .854-.107 1.19-.322a2.1 2.1 0 0 0 .798-.924l.798.574a2.818 2.818 0 0 1-1.092 1.204c-.495.299-1.083.448-1.764.448zm0-6.622c-.308 0-.588.056-.84.168a1.88 1.88 0 0 0-.658.448 2.356 2.356 0 0 0-.574 1.568v.098h3.99v-.154c0-.644-.178-1.157-.532-1.54-.346-.392-.808-.588-1.386-.588zM69.214 155v-7.224h1.12v1.33h.07c.131-.345.364-.653.7-.924.336-.271.798-.406 1.386-.406h.434v1.12h-.658c-.606 0-1.082.117-1.428.35-.336.224-.504.509-.504.854v4.9h-1.12zm10.406 0c-.42 0-.723-.112-.91-.336a1.7 1.7 0 0 1-.336-.84h-.07c-.158.448-.42.784-.784 1.008-.364.224-.798.336-1.302.336-.765 0-1.362-.196-1.792-.588-.42-.392-.63-.924-.63-1.596 0-.681.248-1.204.742-1.568.504-.364 1.284-.546 2.338-.546h1.428v-.714c0-.513-.14-.905-.42-1.176-.28-.271-.71-.406-1.288-.406-.438 0-.807.098-1.106.294a2.45 2.45 0 0 0-.728.784l-.672-.63c.196-.392.509-.723.938-.994.43-.28.97-.42 1.624-.42.878 0 1.559.215 2.044.644.486.429.728 1.027.728 1.792v3.976h.826v.98h-.63zm-3.22-.784c.28 0 .537-.033.77-.098.234-.065.434-.159.602-.28.168-.121.299-.261.392-.42.094-.159.14-.331.14-.518v-1.19H76.82c-.644 0-1.115.093-1.414.28a.908.908 0 0 0-.434.812v.294c0 .355.126.63.378.826.262.196.612.294 1.05.294zm1.344-7.784c-.242 0-.452-.042-.63-.126-.177-.084-.34-.163-.49-.238a3.13 3.13 0 0 0-.574-.252 1.17 1.17 0 0 0-.406-.084.876.876 0 0 0-.42.098 2.22 2.22 0 0 0-.392.28l-.462-.56c.13-.187.304-.355.518-.504.215-.159.486-.238.812-.238.243 0 .453.042.63.126.178.084.34.163.49.238.224.121.41.21.56.266a1.5 1.5 0 0 0 .42.07.876.876 0 0 0 .42-.098c.122-.065.252-.159.392-.28l.462.56c-.13.187-.303.359-.518.518-.214.149-.485.224-.812.224zm6.905 8.736a3.26 3.26 0 0 1-1.33-.266 2.964 2.964 0 0 1-1.036-.756 3.77 3.77 0 0 1-.658-1.19 4.851 4.851 0 0 1-.238-1.568c0-.569.08-1.087.238-1.554.159-.467.378-.863.658-1.19.29-.336.635-.593 1.036-.77a3.26 3.26 0 0 1 1.33-.266c.485 0 .924.089 1.316.266.401.177.746.434 1.036.77.29.327.513.723.672 1.19.159.467.238.985.238 1.554 0 .579-.08 1.101-.238 1.568a3.625 3.625 0 0 1-.672 1.19c-.29.327-.635.579-1.036.756-.392.177-.83.266-1.316.266zm0-.994c.606 0 1.101-.187 1.484-.56.383-.373.574-.943.574-1.708v-1.036c0-.765-.191-1.335-.574-1.708-.383-.373-.877-.56-1.484-.56s-1.102.187-1.484.56c-.383.373-.574.943-.574 1.708v1.036c0 .765.191 1.335.574 1.708.382.373.877.56 1.484.56zM98.45 155c-.42 0-.723-.112-.91-.336a1.7 1.7 0 0 1-.336-.84h-.07c-.158.448-.42.784-.784 1.008-.364.224-.798.336-1.302.336-.765 0-1.362-.196-1.792-.588-.42-.392-.63-.924-.63-1.596 0-.681.248-1.204.742-1.568.504-.364 1.284-.546 2.338-.546h1.428v-.714c0-.513-.14-.905-.42-1.176-.28-.271-.709-.406-1.288-.406-.438 0-.807.098-1.106.294a2.45 2.45 0 0 0-.728.784l-.672-.63c.196-.392.509-.723.938-.994.43-.28.971-.42 1.624-.42.878 0 1.559.215 2.044.644.486.429.728 1.027.728 1.792v3.976h.826v.98h-.63zm-3.22-.784c.28 0 .537-.033.77-.098.234-.065.434-.159.602-.28.168-.121.299-.261.392-.42.094-.159.14-.331.14-.518v-1.19h-1.484c-.644 0-1.115.093-1.414.28a.908.908 0 0 0-.434.812v.294c0 .355.126.63.378.826.262.196.612.294 1.05.294zm7.689.952c-.672 0-1.237-.126-1.694-.378a3.961 3.961 0 0 1-1.162-1.036l.798-.644c.28.355.593.63.938.826.345.187.747.28 1.204.28.476 0 .845-.103 1.106-.308.271-.205.406-.495.406-.868a.996.996 0 0 0-.28-.714c-.177-.205-.504-.345-.98-.42l-.574-.084a5.23 5.23 0 0 1-.924-.21 2.951 2.951 0 0 1-.742-.392 1.858 1.858 0 0 1-.49-.616 2.058 2.058 0 0 1-.168-.868c0-.355.065-.663.196-.924a1.89 1.89 0 0 1 .532-.672c.233-.177.509-.308.826-.392.317-.093.658-.14 1.022-.14.588 0 1.078.103 1.47.308.401.205.751.49 1.05.854l-.742.672c-.159-.224-.392-.425-.7-.602-.308-.187-.695-.28-1.162-.28-.467 0-.821.103-1.064.308-.233.196-.35.467-.35.812 0 .355.117.611.35.77.243.159.588.275 1.036.35l.56.084c.803.121 1.372.355 1.708.7.336.336.504.779.504 1.33 0 .7-.238 1.251-.714 1.652s-1.129.602-1.96.602zm8.101-.168v-7.224h1.12v1.176h.056c.177-.411.424-.737.742-.98.326-.243.76-.364 1.302-.364.746 0 1.334.243 1.764.728.438.476.658 1.153.658 2.03V155h-1.12v-4.438c0-1.297-.546-1.946-1.638-1.946-.224 0-.444.028-.658.084-.206.056-.392.14-.56.252a1.289 1.289 0 0 0-.406.434c-.094.168-.14.369-.14.602V155h-1.12zm10.743.168c-.495 0-.943-.089-1.344-.266a2.996 2.996 0 0 1-1.022-.756c-.28-.336-.5-.733-.658-1.19a5.11 5.11 0 0 1-.224-1.568c0-.569.074-1.087.224-1.554a3.56 3.56 0 0 1 .658-1.19c.289-.336.63-.593 1.022-.77a3.294 3.294 0 0 1 1.344-.266c.485 0 .919.089 1.302.266.382.177.709.425.98.742.27.308.476.677.616 1.106.149.429.224.901.224 1.414v.532h-5.194v.336c0 .308.046.597.14.868.102.261.242.49.42.686.186.196.41.35.672.462.27.112.574.168.91.168.457 0 .854-.107 1.19-.322.345-.215.611-.523.798-.924l.798.574a2.827 2.827 0 0 1-1.092 1.204c-.495.299-1.083.448-1.764.448zm0-6.622c-.308 0-.588.056-.84.168a1.874 1.874 0 0 0-.658.448 2.16 2.16 0 0 0-.42.7 2.348 2.348 0 0 0-.154.868v.098h3.99v-.154c0-.644-.178-1.157-.532-1.54-.346-.392-.808-.588-1.386-.588zm7.725 6.622c-.504 0-.956-.089-1.358-.266a2.834 2.834 0 0 1-1.022-.756 3.55 3.55 0 0 1-.63-1.19 5.449 5.449 0 0 1-.21-1.568c0-.579.07-1.101.21-1.568.15-.467.36-.863.63-1.19.28-.327.621-.579 1.022-.756a3.334 3.334 0 0 1 1.358-.266c.719 0 1.293.159 1.722.476.439.308.766.714.98 1.218l-.938.476a1.694 1.694 0 0 0-.644-.868c-.298-.205-.672-.308-1.12-.308-.336 0-.63.056-.882.168a1.623 1.623 0 0 0-.63.448 1.812 1.812 0 0 0-.378.686 2.826 2.826 0 0 0-.126.868v1.232c0 .635.168 1.157.504 1.568.346.401.85.602 1.512.602.906 0 1.559-.42 1.96-1.26l.812.546a2.847 2.847 0 0 1-1.05 1.246c-.457.308-1.031.462-1.722.462zm7.057 0a3.3 3.3 0 0 1-1.344-.266 3.006 3.006 0 0 1-1.022-.756 3.776 3.776 0 0 1-.658-1.19 5.141 5.141 0 0 1-.224-1.568c0-.569.075-1.087.224-1.554.159-.467.378-.863.658-1.19.29-.336.63-.593 1.022-.77a3.3 3.3 0 0 1 1.344-.266c.486 0 .92.089 1.302.266.383.177.71.425.98.742.271.308.476.677.616 1.106.15.429.224.901.224 1.414v.532h-5.194v.336c0 .308.047.597.14.868.103.261.243.49.42.686.187.196.411.35.672.462.271.112.574.168.91.168.458 0 .854-.107 1.19-.322.346-.215.612-.523.798-.924l.798.574a2.814 2.814 0 0 1-1.092 1.204c-.494.299-1.082.448-1.764.448zm0-6.622c-.308 0-.588.056-.84.168a1.883 1.883 0 0 0-.658.448 2.195 2.195 0 0 0-.42.7 2.369 2.369 0 0 0-.154.868v.098h3.99v-.154c0-.644-.177-1.157-.532-1.54-.345-.392-.807-.588-1.386-.588zm7.208 6.622c-.672 0-1.237-.126-1.694-.378a3.961 3.961 0 0 1-1.162-1.036l.798-.644c.28.355.593.63.938.826.345.187.747.28 1.204.28.476 0 .845-.103 1.106-.308.271-.205.406-.495.406-.868a.996.996 0 0 0-.28-.714c-.177-.205-.504-.345-.98-.42l-.574-.084a5.23 5.23 0 0 1-.924-.21 2.951 2.951 0 0 1-.742-.392 1.858 1.858 0 0 1-.49-.616 2.058 2.058 0 0 1-.168-.868c0-.355.065-.663.196-.924a1.89 1.89 0 0 1 .532-.672c.233-.177.509-.308.826-.392.317-.093.658-.14 1.022-.14.588 0 1.078.103 1.47.308.401.205.751.49 1.05.854l-.742.672c-.159-.224-.392-.425-.7-.602-.308-.187-.695-.28-1.162-.28-.467 0-.821.103-1.064.308-.233.196-.35.467-.35.812 0 .355.117.611.35.77.243.159.588.275 1.036.35l.56.084c.803.121 1.372.355 1.708.7.336.336.504.779.504 1.33 0 .7-.238 1.251-.714 1.652s-1.129.602-1.96.602zm6.81 0c-.672 0-1.236-.126-1.694-.378a3.961 3.961 0 0 1-1.162-1.036l.798-.644c.28.355.593.63.938.826.346.187.747.28 1.204.28.476 0 .845-.103 1.106-.308.271-.205.406-.495.406-.868a.996.996 0 0 0-.28-.714c-.177-.205-.504-.345-.98-.42l-.574-.084a5.23 5.23 0 0 1-.924-.21 2.951 2.951 0 0 1-.742-.392 1.87 1.87 0 0 1-.49-.616 2.058 2.058 0 0 1-.168-.868c0-.355.066-.663.196-.924a1.89 1.89 0 0 1 .532-.672 2.35 2.35 0 0 1 .826-.392c.318-.093.658-.14 1.022-.14.588 0 1.078.103 1.47.308.402.205.752.49 1.05.854l-.742.672c-.158-.224-.392-.425-.7-.602-.308-.187-.695-.28-1.162-.28-.466 0-.821.103-1.064.308-.233.196-.35.467-.35.812 0 .355.117.611.35.77.243.159.588.275 1.036.35l.56.084c.803.121 1.372.355 1.708.7.336.336.504.779.504 1.33 0 .7-.238 1.251-.714 1.652s-1.129.602-1.96.602zm5.282-9.086c-.242 0-.42-.056-.532-.168a.693.693 0 0 1-.154-.462v-.182a.64.64 0 0 1 .154-.448c.112-.121.29-.182.532-.182.243 0 .416.061.518.182a.605.605 0 0 1 .168.448v.182a.653.653 0 0 1-.168.462c-.102.112-.275.168-.518.168zm-.56 1.694h1.12V155h-1.12v-7.224zm8.19 6.048h-.056c-.438.896-1.143 1.344-2.114 1.344-.448 0-.854-.089-1.218-.266a2.71 2.71 0 0 1-.938-.756 3.64 3.64 0 0 1-.588-1.19 5.84 5.84 0 0 1-.196-1.568c0-.579.066-1.101.196-1.568a3.64 3.64 0 0 1 .588-1.19 2.71 2.71 0 0 1 .938-.756c.364-.177.77-.266 1.218-.266.504 0 .934.112 1.288.336.364.215.64.551.826 1.008h.056v-4.312h1.12V155h-1.12v-1.176zm-1.862.336c.252 0 .49-.033.714-.098a1.88 1.88 0 0 0 .602-.28c.168-.131.299-.285.392-.462.103-.187.154-.397.154-.63v-2.688c0-.196-.051-.378-.154-.546a1.283 1.283 0 0 0-.392-.448 1.88 1.88 0 0 0-.602-.28 2.234 2.234 0 0 0-.714-.112c-.634 0-1.134.201-1.498.602-.364.392-.546.91-.546 1.554v1.232c0 .644.182 1.167.546 1.568.364.392.864.588 1.498.588zm10.684.84c-.42 0-.724-.112-.91-.336a1.69 1.69 0 0 1-.336-.84h-.07c-.159.448-.42.784-.784 1.008-.364.224-.798.336-1.302.336-.766 0-1.363-.196-1.792-.588-.42-.392-.63-.924-.63-1.596 0-.681.247-1.204.742-1.568.504-.364 1.283-.546 2.338-.546h1.428v-.714c0-.513-.14-.905-.42-1.176-.28-.271-.71-.406-1.288-.406-.439 0-.808.098-1.106.294-.29.196-.532.457-.728.784l-.672-.63c.196-.392.508-.723.938-.994.429-.28.97-.42 1.624-.42.877 0 1.558.215 2.044.644.485.429.728 1.027.728 1.792v3.976h.826v.98h-.63zm-3.22-.784c.28 0 .536-.033.77-.098a1.89 1.89 0 0 0 .602-.28c.168-.121.298-.261.392-.42.093-.159.14-.331.14-.518v-1.19h-1.484c-.644 0-1.116.093-1.414.28-.29.187-.434.457-.434.812v.294c0 .355.126.63.378.826.261.196.611.294 1.05.294zm10.138-.392h-.056c-.439.896-1.143 1.344-2.114 1.344-.448 0-.854-.089-1.218-.266a2.7 2.7 0 0 1-.938-.756 3.64 3.64 0 0 1-.588-1.19 5.8 5.8 0 0 1-.196-1.568 5.8 5.8 0 0 1 .196-1.568 3.64 3.64 0 0 1 .588-1.19 2.7 2.7 0 0 1 .938-.756c.364-.177.77-.266 1.218-.266.504 0 .933.112 1.288.336.364.215.639.551.826 1.008h.056v-4.312h1.12V155h-1.12v-1.176zm-1.862.336c.252 0 .49-.033.714-.098a1.89 1.89 0 0 0 .602-.28c.168-.131.299-.285.392-.462.103-.187.154-.397.154-.63v-2.688c0-.196-.051-.378-.154-.546a1.283 1.283 0 0 0-.392-.448 1.89 1.89 0 0 0-.602-.28 2.234 2.234 0 0 0-.714-.112c-.635 0-1.134.201-1.498.602-.364.392-.546.91-.546 1.554v1.232c0 .644.182 1.167.546 1.568.364.392.863.588 1.498.588zm8.149 1.008c-.495 0-.943-.089-1.344-.266a2.996 2.996 0 0 1-1.022-.756 3.776 3.776 0 0 1-.658-1.19 5.141 5.141 0 0 1-.224-1.568c0-.569.075-1.087.224-1.554.159-.467.378-.863.658-1.19.289-.336.63-.593 1.022-.77a3.294 3.294 0 0 1 1.344-.266c.485 0 .919.089 1.302.266.383.177.709.425.98.742.271.308.476.677.616 1.106.149.429.224.901.224 1.414v.532h-5.194v.336c0 .308.047.597.14.868.103.261.243.49.42.686.187.196.411.35.672.462.271.112.574.168.91.168.457 0 .854-.107 1.19-.322.345-.215.611-.523.798-.924l.798.574a2.814 2.814 0 0 1-1.092 1.204c-.495.299-1.083.448-1.764.448zm0-6.622c-.308 0-.588.056-.84.168a1.883 1.883 0 0 0-.658.448 2.348 2.348 0 0 0-.574 1.568v.098h3.99v-.154c0-.644-.177-1.157-.532-1.54-.345-.392-.807-.588-1.386-.588zm7.208 6.622c-.672 0-1.237-.126-1.694-.378a3.949 3.949 0 0 1-1.162-1.036l.798-.644c.28.355.592.63.938.826.345.187.746.28 1.204.28.476 0 .844-.103 1.106-.308.27-.205.406-.495.406-.868a1 1 0 0 0-.28-.714c-.178-.205-.504-.345-.98-.42l-.574-.084a5.23 5.23 0 0 1-.924-.21 2.934 2.934 0 0 1-.742-.392 1.845 1.845 0 0 1-.49-.616 2.058 2.058 0 0 1-.168-.868c0-.355.065-.663.196-.924.13-.271.308-.495.532-.672.233-.177.508-.308.826-.392.317-.093.658-.14 1.022-.14.588 0 1.078.103 1.47.308.401.205.751.49 1.05.854l-.742.672c-.159-.224-.392-.425-.7-.602-.308-.187-.696-.28-1.162-.28-.467 0-.822.103-1.064.308-.234.196-.35.467-.35.812 0 .355.116.611.35.77.242.159.588.275 1.036.35l.56.084c.802.121 1.372.355 1.708.7.336.336.504.779.504 1.33 0 .7-.238 1.251-.714 1.652s-1.13.602-1.96.602zm-146.9 18c-.495 0-.943-.089-1.344-.266a3 3 0 0 1-1.023-.756 3.77 3.77 0 0 1-.658-1.19 5.132 5.132 0 0 1-.224-1.568c0-.569.075-1.087.224-1.554.16-.467.378-.863.658-1.19.29-.336.63-.593 1.023-.77.4-.177.849-.266 1.343-.266.486 0 .92.089 1.302.266.383.177.71.425.98.742.271.308.477.677.617 1.106.149.429.223.901.223 1.414v.532h-5.194v.336c0 .308.047.597.14.868.103.261.243.49.42.686.187.196.411.35.672.462.271.112.575.168.91.168.458 0 .854-.107 1.19-.322a2.1 2.1 0 0 0 .798-.924l.798.574a2.818 2.818 0 0 1-1.091 1.204c-.495.299-1.083.448-1.765.448zm0-6.622c-.309 0-.589.056-.84.168a1.88 1.88 0 0 0-.658.448 2.354 2.354 0 0 0-.574 1.568v.098h3.99v-.154c0-.644-.178-1.157-.532-1.54-.346-.392-.808-.588-1.387-.588zm11.132 6.622c-.495 0-.943-.089-1.344-.266a3 3 0 0 1-1.022-.756c-.28-.336-.5-.733-.658-1.19a5.129 5.129 0 0 1-.224-1.568c0-.569.074-1.087.224-1.554a3.57 3.57 0 0 1 .658-1.19c.289-.336.63-.593 1.022-.77.401-.177.849-.266 1.344-.266.485 0 .919.089 1.302.266.382.177.709.425.98.742.27.308.476.677.616 1.106.149.429.224.901.224 1.414v.532H54.87v.336c0 .308.046.597.14.868.102.261.242.49.42.686.186.196.41.35.672.462.27.112.574.168.91.168.457 0 .854-.107 1.19-.322a2.1 2.1 0 0 0 .798-.924l.798.574a2.819 2.819 0 0 1-1.092 1.204c-.495.299-1.083.448-1.764.448zm0-6.622c-.308 0-.588.056-.84.168a1.88 1.88 0 0 0-.658.448 2.354 2.354 0 0 0-.574 1.568v.098h3.99v-.154c0-.644-.178-1.157-.532-1.54-.346-.392-.808-.588-1.386-.588zM60.92 173l2.674-3.64-2.562-3.584h1.316l1.834 2.688h.042l1.904-2.688h1.246l-2.548 3.5L67.43 173h-1.316l-1.876-2.828h-.042L62.166 173H60.92zm8.062-7.224h1.12v1.176h.056c.187-.457.457-.793.812-1.008.364-.224.798-.336 1.302-.336.448 0 .854.089 1.218.266.364.177.672.429.924.756.261.327.457.723.588 1.19.14.467.21.989.21 1.568 0 .579-.07 1.101-.21 1.568-.13.467-.327.863-.588 1.19-.252.327-.56.579-.924.756-.364.177-.77.266-1.218.266-.98 0-1.685-.448-2.114-1.344h-.056v3.976h-1.12v-10.024zm2.982 6.384c.635 0 1.134-.196 1.498-.588.364-.401.546-.924.546-1.568v-1.232c0-.644-.182-1.162-.546-1.554-.364-.401-.863-.602-1.498-.602-.252 0-.495.037-.728.112-.224.065-.42.159-.588.28a1.433 1.433 0 0 0-.406.448c-.093.168-.14.35-.14.546v2.688c0 .233.047.443.14.63.103.177.238.331.406.462.168.121.364.215.588.28a2.7 2.7 0 0 0 .728.098zm7.925 1.008c-.495 0-.943-.089-1.344-.266a3 3 0 0 1-1.022-.756 3.77 3.77 0 0 1-.658-1.19 5.132 5.132 0 0 1-.224-1.568c0-.569.075-1.087.224-1.554.159-.467.378-.863.658-1.19.29-.336.63-.593 1.022-.77.401-.177.85-.266 1.344-.266.485 0 .92.089 1.302.266.383.177.71.425.98.742.27.308.476.677.616 1.106.15.429.224.901.224 1.414v.532h-5.194v.336c0 .308.047.597.14.868.103.261.243.49.42.686.187.196.41.35.672.462.27.112.574.168.91.168.457 0 .854-.107 1.19-.322a2.1 2.1 0 0 0 .798-.924l.798.574a2.818 2.818 0 0 1-1.092 1.204c-.495.299-1.083.448-1.764.448zm0-6.622c-.308 0-.588.056-.84.168a1.88 1.88 0 0 0-.658.448 2.354 2.354 0 0 0-.574 1.568v.098h3.99v-.154c0-.644-.177-1.157-.532-1.54-.345-.392-.807-.588-1.386-.588zm7.726 6.622c-.504 0-.957-.089-1.358-.266a2.831 2.831 0 0 1-1.022-.756 3.525 3.525 0 0 1-.63-1.19 5.449 5.449 0 0 1-.21-1.568c0-.579.07-1.101.21-1.568.149-.467.359-.863.63-1.19.28-.327.62-.579 1.022-.756a3.332 3.332 0 0 1 1.358-.266c.718 0 1.292.159 1.722.476.438.308.765.714.98 1.218l-.938.476a1.7 1.7 0 0 0-.644-.868c-.3-.205-.672-.308-1.12-.308-.336 0-.63.056-.882.168a1.623 1.623 0 0 0-.63.448 1.812 1.812 0 0 0-.378.686 2.826 2.826 0 0 0-.126.868v1.232c0 .635.168 1.157.504 1.568.345.401.849.602 1.512.602.905 0 1.558-.42 1.96-1.26l.812.546a2.85 2.85 0 0 1-1.05 1.246c-.458.308-1.032.462-1.722.462zm6.019-.168c-.392 0-.691-.107-.896-.322-.196-.224-.294-.513-.294-.868v-5.054h-1.19v-.98h.672c.242 0 .406-.047.49-.14.093-.103.14-.275.14-.518v-1.344h1.008v2.002h1.582v.98h-1.582v5.264h1.47v.98h-1.4zm8.632 0c-.42 0-.724-.112-.91-.336a1.69 1.69 0 0 1-.336-.84h-.07c-.159.448-.42.784-.784 1.008-.364.224-.798.336-1.302.336-.766 0-1.363-.196-1.792-.588-.42-.392-.63-.924-.63-1.596 0-.681.247-1.204.742-1.568.504-.364 1.283-.546 2.338-.546h1.428v-.714c0-.513-.14-.905-.42-1.176-.28-.271-.71-.406-1.288-.406-.439 0-.808.098-1.106.294a2.45 2.45 0 0 0-.728.784l-.672-.63c.196-.392.508-.723.938-.994.43-.28.97-.42 1.624-.42.877 0 1.558.215 2.044.644.485.429.728 1.027.728 1.792v3.976h.826v.98h-.63zm-3.22-.784c.28 0 .536-.033.77-.098a1.89 1.89 0 0 0 .602-.28c.168-.121.298-.261.392-.42.093-.159.14-.331.14-.518v-1.19h-1.484c-.644 0-1.115.093-1.414.28a.908.908 0 0 0-.434.812v.294c0 .355.126.63.378.826.261.196.611.294 1.05.294zm7.114.784c-.392 0-.69-.107-.896-.322-.196-.224-.294-.513-.294-.868v-5.054h-1.19v-.98h.672c.243 0 .406-.047.49-.14.094-.103.14-.275.14-.518v-1.344h1.008v2.002h1.582v.98h-1.582v5.264h1.47v.98h-1.4zm3.943-8.918c-.243 0-.42-.056-.532-.168a.688.688 0 0 1-.154-.462v-.182c0-.187.051-.336.154-.448.112-.121.289-.182.532-.182.242 0 .415.061.518.182a.605.605 0 0 1 .168.448v.182a.653.653 0 0 1-.168.462c-.103.112-.276.168-.518.168zm-.56 1.694h1.12V173h-1.12v-7.224zm5.166 7.224l-2.534-7.224h1.12l1.26 3.584.784 2.464h.07l.784-2.464 1.288-3.584h1.078L116.011 173h-1.302zm10.491 0c-.42 0-.723-.112-.91-.336a1.708 1.708 0 0 1-.336-.84h-.07c-.159.448-.42.784-.784 1.008-.364.224-.798.336-1.302.336-.765 0-1.363-.196-1.792-.588-.42-.392-.63-.924-.63-1.596 0-.681.247-1.204.742-1.568.504-.364 1.283-.546 2.338-.546h1.428v-.714c0-.513-.14-.905-.42-1.176-.28-.271-.709-.406-1.288-.406-.439 0-.807.098-1.106.294a2.454 2.454 0 0 0-.728.784l-.672-.63c.196-.392.509-.723.938-.994.429-.28.971-.42 1.624-.42.877 0 1.559.215 2.044.644.485.429.728 1.027.728 1.792v3.976h.826v.98h-.63zm-3.22-.784c.28 0 .537-.033.77-.098a1.89 1.89 0 0 0 .602-.28c.168-.121.299-.261.392-.42.093-.159.14-.331.14-.518v-1.19H122.4c-.644 0-1.115.093-1.414.28a.908.908 0 0 0-.434.812v.294c0 .355.126.63.378.826.261.196.611.294 1.05.294zm7.689.952c-.672 0-1.237-.126-1.694-.378a3.949 3.949 0 0 1-1.162-1.036l.798-.644c.28.355.592.63.938.826.345.187.746.28 1.204.28.476 0 .844-.103 1.106-.308.27-.205.406-.495.406-.868a1 1 0 0 0-.28-.714c-.178-.205-.504-.345-.98-.42l-.574-.084a5.23 5.23 0 0 1-.924-.21 2.934 2.934 0 0 1-.742-.392 1.845 1.845 0 0 1-.49-.616 2.058 2.058 0 0 1-.168-.868c0-.355.065-.663.196-.924.13-.271.308-.495.532-.672.233-.177.508-.308.826-.392.317-.093.658-.14 1.022-.14.588 0 1.078.103 1.47.308.401.205.751.49 1.05.854l-.742.672c-.159-.224-.392-.425-.7-.602-.308-.187-.696-.28-1.162-.28-.467 0-.822.103-1.064.308-.234.196-.35.467-.35.812 0 .355.116.611.35.77.242.159.588.275 1.036.35l.56.084c.802.121 1.372.355 1.708.7.336.336.504.779.504 1.33 0 .7-.238 1.251-.714 1.652s-1.13.602-1.96.602zm12.72-1.344h-.056c-.438.896-1.143 1.344-2.114 1.344-.448 0-.854-.089-1.218-.266a2.71 2.71 0 0 1-.938-.756 3.64 3.64 0 0 1-.588-1.19 5.84 5.84 0 0 1-.196-1.568c0-.579.066-1.101.196-1.568a3.64 3.64 0 0 1 .588-1.19 2.71 2.71 0 0 1 .938-.756c.364-.177.77-.266 1.218-.266.504 0 .934.112 1.288.336.364.215.64.551.826 1.008h.056v-4.312h1.12V173h-1.12v-1.176zm-1.862.336c.252 0 .49-.033.714-.098a1.88 1.88 0 0 0 .602-.28c.168-.131.299-.285.392-.462.103-.187.154-.397.154-.63v-2.688c0-.196-.051-.378-.154-.546a1.283 1.283 0 0 0-.392-.448 1.88 1.88 0 0 0-.602-.28 2.234 2.234 0 0 0-.714-.112c-.634 0-1.134.201-1.498.602-.364.392-.546.91-.546 1.554v1.232c0 .644.182 1.167.546 1.568.364.392.864.588 1.498.588zm10.684.84c-.42 0-.724-.112-.91-.336a1.69 1.69 0 0 1-.336-.84h-.07c-.159.448-.42.784-.784 1.008-.364.224-.798.336-1.302.336-.766 0-1.363-.196-1.792-.588-.42-.392-.63-.924-.63-1.596 0-.681.247-1.204.742-1.568.504-.364 1.283-.546 2.338-.546h1.428v-.714c0-.513-.14-.905-.42-1.176-.28-.271-.71-.406-1.288-.406-.439 0-.808.098-1.106.294-.29.196-.532.457-.728.784l-.672-.63c.196-.392.508-.723.938-.994.429-.28.97-.42 1.624-.42.877 0 1.558.215 2.044.644.485.429.728 1.027.728 1.792v3.976h.826v.98h-.63zm-3.22-.784c.28 0 .536-.033.77-.098a1.89 1.89 0 0 0 .602-.28c.168-.121.298-.261.392-.42.093-.159.14-.331.14-.518v-1.19h-1.484c-.644 0-1.116.093-1.414.28-.29.187-.434.457-.434.812v.294c0 .355.126.63.378.826.261.196.611.294 1.05.294zm11.067.952c-.672 0-1.237-.126-1.694-.378a3.949 3.949 0 0 1-1.162-1.036l.798-.644c.28.355.592.63.938.826.345.187.746.28 1.204.28.476 0 .844-.103 1.106-.308.27-.205.406-.495.406-.868a1 1 0 0 0-.28-.714c-.178-.205-.504-.345-.98-.42l-.574-.084a5.23 5.23 0 0 1-.924-.21 2.934 2.934 0 0 1-.742-.392 1.845 1.845 0 0 1-.49-.616 2.058 2.058 0 0 1-.168-.868c0-.355.065-.663.196-.924.13-.271.308-.495.532-.672.233-.177.508-.308.826-.392.317-.093.658-.14 1.022-.14.588 0 1.078.103 1.47.308.401.205.751.49 1.05.854l-.742.672c-.159-.224-.392-.425-.7-.602-.308-.187-.696-.28-1.162-.28-.467 0-.822.103-1.064.308-.234.196-.35.467-.35.812 0 .355.116.611.35.77.242.159.588.275 1.036.35l.56.084c.802.121 1.372.355 1.708.7.336.336.504.779.504 1.33 0 .7-.238 1.251-.714 1.652s-1.13.602-1.96.602zm9.174-1.344h-.056a3.43 3.43 0 0 1-.28.504 1.9 1.9 0 0 1-.392.434c-.159.121-.35.219-.574.294a2.471 2.471 0 0 1-.784.112c-.747 0-1.339-.238-1.778-.714-.439-.485-.658-1.167-.658-2.044v-4.634h1.12v4.438c0 1.297.551 1.946 1.652 1.946.224 0 .439-.028.644-.084a1.71 1.71 0 0 0 .56-.252 1.2 1.2 0 0 0 .392-.42 1.23 1.23 0 0 0 .154-.63v-4.998h1.12V173h-1.12v-1.176zm8.825 1.176c-.42 0-.723-.112-.91-.336a1.708 1.708 0 0 1-.336-.84h-.07c-.159.448-.42.784-.784 1.008-.364.224-.798.336-1.302.336-.765 0-1.363-.196-1.792-.588-.42-.392-.63-.924-.63-1.596 0-.681.247-1.204.742-1.568.504-.364 1.283-.546 2.338-.546h1.428v-.714c0-.513-.14-.905-.42-1.176-.28-.271-.709-.406-1.288-.406-.439 0-.807.098-1.106.294a2.454 2.454 0 0 0-.728.784l-.672-.63c.196-.392.509-.723.938-.994.429-.28.971-.42 1.624-.42.877 0 1.559.215 2.044.644.485.429.728 1.027.728 1.792v3.976h.826v.98h-.63zm-3.22-.784c.28 0 .537-.033.77-.098a1.89 1.89 0 0 0 .602-.28c.168-.121.299-.261.392-.42.093-.159.14-.331.14-.518v-1.19h-1.484c-.644 0-1.115.093-1.414.28a.908.908 0 0 0-.434.812v.294c0 .355.126.63.378.826.261.196.611.294 1.05.294zm-88.004 18.952c-.495 0-.943-.089-1.344-.266a3 3 0 0 1-1.022-.756 3.77 3.77 0 0 1-.658-1.19 5.132 5.132 0 0 1-.224-1.568c0-.569.074-1.087.224-1.554.158-.467.378-.863.658-1.19.29-.336.63-.593 1.022-.77.401-.177.85-.266 1.344-.266.485 0 .92.089 1.302.266.382.177.71.425.98.742.27.308.476.677.616 1.106.15.429.224.901.224 1.414v.532H83.76v.336c0 .308.046.597.14.868.102.261.242.49.42.686.186.196.41.35.672.462.27.112.574.168.91.168.457 0 .854-.107 1.19-.322a2.1 2.1 0 0 0 .798-.924l.798.574a2.818 2.818 0 0 1-1.092 1.204c-.495.299-1.083.448-1.764.448zm0-6.622c-.308 0-.588.056-.84.168a1.88 1.88 0 0 0-.658.448 2.356 2.356 0 0 0-.574 1.568v.098h3.99v-.154c0-.644-.178-1.157-.532-1.54-.346-.392-.808-.588-1.386-.588zM90.87 191v-7.224h1.12v1.176h.056c.084-.187.178-.359.28-.518.112-.168.243-.313.392-.434.159-.121.341-.215.546-.28.206-.075.448-.112.728-.112.476 0 .915.117 1.316.35.402.224.7.597.896 1.12h.028a2.21 2.21 0 0 1 .728-1.022c.364-.299.854-.448 1.47-.448.738 0 1.312.243 1.722.728.42.476.63 1.153.63 2.03V191h-1.12v-4.438c0-.644-.126-1.129-.378-1.456-.252-.327-.653-.49-1.204-.49-.224 0-.438.028-.644.084-.196.056-.373.14-.532.252a1.217 1.217 0 0 0-.378.434c-.093.168-.14.369-.14.602V191h-1.12v-4.438c0-.644-.126-1.129-.378-1.456-.252-.327-.644-.49-1.176-.49-.224 0-.438.028-.644.084-.205.056-.387.14-.546.252-.158.112-.289.257-.392.434-.093.168-.14.369-.14.602V191h-1.12zm12.293-7.224h1.12v1.176h.056c.187-.457.457-.793.812-1.008.364-.224.798-.336 1.302-.336.448 0 .854.089 1.218.266.364.177.672.429.924.756.261.327.457.723.588 1.19.14.467.21.989.21 1.568 0 .579-.07 1.101-.21 1.568a3.318 3.318 0 0 1-.588 1.19c-.252.327-.56.579-.924.756-.364.177-.77.266-1.218.266-.98 0-1.685-.448-2.114-1.344h-.056v3.976h-1.12v-10.024zm2.982 6.384c.635 0 1.134-.196 1.498-.588.364-.401.546-.924.546-1.568v-1.232c0-.644-.182-1.162-.546-1.554-.364-.401-.863-.602-1.498-.602-.252 0-.495.037-.728.112-.224.065-.42.159-.588.28a1.437 1.437 0 0 0-.406.448 1.11 1.11 0 0 0-.14.546v2.688c0 .233.047.443.14.63.103.177.238.331.406.462.168.121.364.215.588.28.233.065.476.098.728.098zm5.209.84v-7.224h1.12v1.33h.07c.131-.345.364-.653.7-.924.336-.271.798-.406 1.386-.406h.434v1.12h-.658c-.607 0-1.083.117-1.428.35-.336.224-.504.509-.504.854v4.9h-1.12zm7.858.168a3.3 3.3 0 0 1-1.344-.266 3.006 3.006 0 0 1-1.022-.756 3.776 3.776 0 0 1-.658-1.19 5.141 5.141 0 0 1-.224-1.568c0-.569.075-1.087.224-1.554.159-.467.378-.863.658-1.19.29-.336.63-.593 1.022-.77a3.3 3.3 0 0 1 1.344-.266c.486 0 .92.089 1.302.266.383.177.71.425.98.742.271.308.476.677.616 1.106.15.429.224.901.224 1.414v.532h-5.194v.336c0 .308.047.597.14.868.103.261.243.49.42.686.187.196.411.35.672.462.271.112.574.168.91.168.458 0 .854-.107 1.19-.322.346-.215.612-.523.798-.924l.798.574a2.814 2.814 0 0 1-1.092 1.204c-.494.299-1.082.448-1.764.448zm0-6.622c-.308 0-.588.056-.84.168a1.883 1.883 0 0 0-.658.448 2.195 2.195 0 0 0-.42.7 2.369 2.369 0 0 0-.154.868v.098h3.99v-.154c0-.644-.177-1.157-.532-1.54-.345-.392-.807-.588-1.386-.588zm7.208 6.622c-.672 0-1.237-.126-1.694-.378a3.961 3.961 0 0 1-1.162-1.036l.798-.644c.28.355.593.63.938.826.345.187.747.28 1.204.28.476 0 .845-.103 1.106-.308.271-.205.406-.495.406-.868a.996.996 0 0 0-.28-.714c-.177-.205-.504-.345-.98-.42l-.574-.084a5.23 5.23 0 0 1-.924-.21 2.951 2.951 0 0 1-.742-.392 1.858 1.858 0 0 1-.49-.616 2.058 2.058 0 0 1-.168-.868c0-.355.065-.663.196-.924a1.89 1.89 0 0 1 .532-.672c.233-.177.509-.308.826-.392.317-.093.658-.14 1.022-.14.588 0 1.078.103 1.47.308.401.205.751.49 1.05.854l-.742.672c-.159-.224-.392-.425-.7-.602-.308-.187-.695-.28-1.162-.28-.467 0-.821.103-1.064.308-.233.196-.35.467-.35.812 0 .355.117.611.35.77.243.159.588.275 1.036.35l.56.084c.803.121 1.372.355 1.708.7.336.336.504.779.504 1.33 0 .7-.238 1.251-.714 1.652s-1.129.602-1.96.602zm9.972-.168c-.42 0-.723-.112-.91-.336a1.708 1.708 0 0 1-.336-.84h-.07c-.158.448-.42.784-.784 1.008-.364.224-.798.336-1.302.336-.765 0-1.362-.196-1.792-.588-.42-.392-.63-.924-.63-1.596 0-.681.248-1.204.742-1.568.504-.364 1.284-.546 2.338-.546h1.428v-.714c0-.513-.14-.905-.42-1.176-.28-.271-.709-.406-1.288-.406-.438 0-.807.098-1.106.294a2.454 2.454 0 0 0-.728.784l-.672-.63c.196-.392.509-.723.938-.994.43-.28.971-.42 1.624-.42.878 0 1.559.215 2.044.644.486.429.728 1.027.728 1.792v3.976h.826v.98h-.63zm-3.22-.784c.28 0 .537-.033.77-.098a1.88 1.88 0 0 0 .602-.28c.168-.121.299-.261.392-.42a.997.997 0 0 0 .14-.518v-1.19h-1.484c-.644 0-1.115.093-1.414.28a.908.908 0 0 0-.434.812v.294c0 .355.126.63.378.826.262.196.612.294 1.05.294zm6.369.952c-.298 0-.518-.075-.658-.224-.13-.149-.196-.345-.196-.588v-.182c0-.243.066-.439.196-.588.14-.149.36-.224.658-.224.299 0 .514.075.644.224.14.149.21.345.21.588v.182c0 .243-.07.439-.21.588-.13.149-.345.224-.644.224z"/><path fill="#F98E64" d="M103.629 47.168v.36c0 .296.242.538.539.538h3.775v3.775c0 .297.242.54.539.54h.359c.297 0 .54-.243.54-.54v-3.775h3.774a.54.54 0 0 0 .539-.539v-.36a.54.54 0 0 0-.539-.539h-3.774v-3.774a.541.541 0 0 0-.54-.54h-.359a.54.54 0 0 0-.539.54v3.774h-3.775a.54.54 0 0 0-.539.54zm-8.47 13.166l.507.508a.54.54 0 0 0 .764 0l5.797-5.797a.535.535 0 0 0 .157-.382v-.382a9.307 9.307 0 0 0 6.269 2.413 9.325 9.325 0 0 0 9.346-9.225c.068-5.258-4.21-9.536-9.468-9.468a9.326 9.326 0 0 0-9.225 9.346c0 2.413.912 4.61 2.413 6.269h-.382a.552.552 0 0 0-.382.157l-5.797 5.797a.54.54 0 0 0 0 .764zm5.585-12.987a7.903 7.903 0 0 1 7.909-7.908 7.903 7.903 0 0 1 7.908 7.908 7.903 7.903 0 0 1-7.908 7.91 7.903 7.903 0 0 1-7.909-7.91z"/><defs><linearGradient id="paint0_linear" x1="110.422" x2="139.375" y1="13.364" y2="215.571" gradientUnits="userSpaceOnUse"><stop stop-opacity=".02"/><stop offset="1" stop-opacity=".05"/></linearGradient></defs></svg>