<svg width="220" height="228" viewBox="0 0 220 228" fill="none" xmlns="http://www.w3.org/2000/svg">
<path d="M110.727 224.607C51.8494 224.607 3.00013 176.505 3.00013 117.61C3.00013 58.7152 50.7297 10.9714 109.607 10.9714" stroke="#F98E64" stroke-width="6"/>
<path d="M109.36 10.6072C168.237 10.6072 217 58.3843 217 117.279C217 176.174 169.603 224.243 110.726 224.243" stroke="white" stroke-width="6"/>
<circle cx="111" cy="12" r="12" fill="#F98E64"/>
<path d="M112.257 11.8258C112.257 12.8571 111.409 13.693 110.363 13.693C109.317 13.693 108.469 12.8571 108.469 11.8258C108.469 10.7946 109.317 9.95862 110.363 9.95862C111.409 9.95862 112.257 10.7946 112.257 11.8258Z" fill="white"/>
<path fill-rule="evenodd" clip-rule="evenodd" d="M110.363 16.1827C112.803 16.1827 114.782 14.232 114.782 11.8258C114.782 9.41962 112.803 7.46899 110.363 7.46899C107.922 7.46899 105.944 9.41962 105.944 11.8258C105.944 14.232 107.922 16.1827 110.363 16.1827ZM110.363 14.9379C112.106 14.9379 113.519 13.5446 113.519 11.8258C113.519 10.1071 112.106 8.7138 110.363 8.7138C108.62 8.7138 107.207 10.1071 107.207 11.8258C107.207 13.5446 108.62 14.9379 110.363 14.9379Z" fill="white"/>
<path d="M39.4657 110V94.644H46.7257C47.4443 94.644 48.0897 94.7687 48.6617 95.018C49.2337 95.2527 49.7177 95.5827 50.1137 96.008C50.5244 96.4333 50.8397 96.954 51.0597 97.57C51.2797 98.1713 51.3897 98.8313 51.3897 99.55C51.3897 100.283 51.2797 100.951 51.0597 101.552C50.8397 102.153 50.5244 102.667 50.1137 103.092C49.7177 103.517 49.2337 103.855 48.6617 104.104C48.0897 104.339 47.4443 104.456 46.7257 104.456H42.8097V110H39.4657ZM42.8097 101.552H46.3297C46.8283 101.552 47.217 101.427 47.4957 101.178C47.789 100.914 47.9357 100.533 47.9357 100.034V99.066C47.9357 98.5673 47.789 98.1933 47.4957 97.944C47.217 97.68 46.8283 97.548 46.3297 97.548H42.8097V101.552ZM54.8932 110V94.644H65.3432V97.614H58.2372V100.76H64.3312V103.708H58.2372V107.03H65.3432V110H54.8932ZM74.2185 110.264C72.8691 110.264 71.7251 110.037 70.7865 109.582C69.8478 109.113 69.0485 108.511 68.3885 107.778L70.5885 105.556C71.6298 106.729 72.9131 107.316 74.4385 107.316C75.2598 107.316 75.8685 107.147 76.2645 106.81C76.6605 106.473 76.8585 106.025 76.8585 105.468C76.8585 105.043 76.7411 104.691 76.5065 104.412C76.2718 104.119 75.7951 103.921 75.0765 103.818L73.5585 103.62C71.9305 103.415 70.7351 102.923 69.9725 102.146C69.2245 101.369 68.8505 100.335 68.8505 99.044C68.8505 98.3547 68.9825 97.724 69.2465 97.152C69.5105 96.58 69.8845 96.0887 70.3685 95.678C70.8671 95.2673 71.4685 94.952 72.1725 94.732C72.8911 94.4973 73.7051 94.38 74.6145 94.38C75.7731 94.38 76.7925 94.5633 77.6725 94.93C78.5525 95.2967 79.3078 95.832 79.9385 96.536L77.7165 98.78C77.3498 98.3547 76.9025 98.01 76.3745 97.746C75.8611 97.4673 75.2085 97.328 74.4165 97.328C73.6685 97.328 73.1111 97.46 72.7445 97.724C72.3778 97.988 72.1945 98.3547 72.1945 98.824C72.1945 99.352 72.3338 99.7333 72.6125 99.968C72.9058 100.203 73.3751 100.371 74.0205 100.474L75.5385 100.716C77.1225 100.965 78.2958 101.457 79.0585 102.19C79.8211 102.909 80.2025 103.935 80.2025 105.27C80.2025 106.003 80.0705 106.678 79.8065 107.294C79.5425 107.91 79.1538 108.438 78.6405 108.878C78.1418 109.318 77.5185 109.663 76.7705 109.912C76.0225 110.147 75.1718 110.264 74.2185 110.264ZM94.195 114.048H92.127C90.939 114.048 90.0736 113.769 89.531 113.212C88.9883 112.655 88.717 111.848 88.717 110.792V110.154C87.0743 109.861 85.769 109.061 84.801 107.756C83.8476 106.436 83.371 104.625 83.371 102.322C83.371 101.017 83.5323 99.8727 83.855 98.89C84.1776 97.8927 84.6323 97.064 85.219 96.404C85.8056 95.7293 86.517 95.2233 87.353 94.886C88.189 94.5487 89.113 94.38 90.125 94.38C91.137 94.38 92.061 94.5487 92.897 94.886C93.733 95.2233 94.4443 95.7293 95.031 96.404C95.6176 97.064 96.0723 97.8927 96.395 98.89C96.7176 99.8727 96.879 101.017 96.879 102.322C96.879 104.551 96.4243 106.319 95.515 107.624C94.6203 108.929 93.3956 109.751 91.841 110.088V111.32H94.195V114.048ZM90.125 107.294C91.137 107.294 91.9216 106.964 92.479 106.304C93.051 105.644 93.337 104.698 93.337 103.466V101.178C93.337 99.946 93.051 99 92.479 98.34C91.9216 97.68 91.137 97.35 90.125 97.35C89.113 97.35 88.321 97.68 87.749 98.34C87.1916 99 86.913 99.946 86.913 101.178V103.466C86.913 104.698 87.1916 105.644 87.749 106.304C88.321 106.964 89.113 107.294 90.125 107.294ZM103.828 94.644V104.06C103.828 105.145 104.041 105.959 104.466 106.502C104.891 107.03 105.603 107.294 106.6 107.294C107.597 107.294 108.309 107.03 108.734 106.502C109.159 105.959 109.372 105.145 109.372 104.06V94.644H112.628V103.708C112.628 104.837 112.518 105.82 112.298 106.656C112.093 107.477 111.748 108.159 111.264 108.702C110.78 109.23 110.157 109.626 109.394 109.89C108.631 110.139 107.7 110.264 106.6 110.264C105.5 110.264 104.569 110.139 103.806 109.89C103.043 109.626 102.42 109.23 101.936 108.702C101.452 108.159 101.1 107.477 100.88 106.656C100.675 105.82 100.572 104.837 100.572 103.708V94.644H103.828ZM116.331 110V107.338H118.311V97.306H116.331V94.644H123.635V97.306H121.655V107.338H123.635V110H116.331ZM132.384 110.264C131.034 110.264 129.89 110.037 128.952 109.582C128.013 109.113 127.214 108.511 126.554 107.778L128.754 105.556C129.795 106.729 131.078 107.316 132.604 107.316C133.425 107.316 134.034 107.147 134.43 106.81C134.826 106.473 135.024 106.025 135.024 105.468C135.024 105.043 134.906 104.691 134.672 104.412C134.437 104.119 133.96 103.921 133.242 103.818L131.724 103.62C130.096 103.415 128.9 102.923 128.138 102.146C127.39 101.369 127.016 100.335 127.016 99.044C127.016 98.3547 127.148 97.724 127.412 97.152C127.676 96.58 128.05 96.0887 128.534 95.678C129.032 95.2673 129.634 94.952 130.338 94.732C131.056 94.4973 131.87 94.38 132.78 94.38C133.938 94.38 134.958 94.5633 135.838 94.93C136.718 95.2967 137.473 95.832 138.104 96.536L135.882 98.78C135.515 98.3547 135.068 98.01 134.54 97.746C134.026 97.4673 133.374 97.328 132.582 97.328C131.834 97.328 131.276 97.46 130.91 97.724C130.543 97.988 130.36 98.3547 130.36 98.824C130.36 99.352 130.499 99.7333 130.778 99.968C131.071 100.203 131.54 100.371 132.186 100.474L133.704 100.716C135.288 100.965 136.461 101.457 137.224 102.19C137.986 102.909 138.368 103.935 138.368 105.27C138.368 106.003 138.236 106.678 137.972 107.294C137.708 107.91 137.319 108.438 136.806 108.878C136.307 109.318 135.684 109.663 134.936 109.912C134.188 110.147 133.337 110.264 132.384 110.264ZM151.59 110L150.49 106.348H145.364L144.264 110H140.876L145.936 94.644H150.072L155.066 110H151.59ZM147.96 97.68H147.85L146.156 103.51H149.676L147.96 97.68ZM164.37 110V94.644H174.82V97.614H167.714V100.76H173.808V103.708H167.714V107.03H174.82V110H164.37ZM55.0015 123.644H62.4595C63.7355 123.644 64.7255 124.003 65.4295 124.722C66.1481 125.441 66.5075 126.394 66.5075 127.582C66.5075 128.169 66.4268 128.667 66.2655 129.078C66.1188 129.489 65.9135 129.826 65.6495 130.09C65.4001 130.354 65.0995 130.552 64.7475 130.684C64.4101 130.801 64.0435 130.867 63.6475 130.882V131.014C64.0141 131.014 64.3955 131.08 64.7915 131.212C65.2021 131.344 65.5761 131.557 65.9135 131.85C66.2508 132.129 66.5295 132.495 66.7495 132.95C66.9841 133.405 67.1015 133.962 67.1015 134.622C67.1015 135.223 66.9988 135.795 66.7935 136.338C66.6028 136.866 66.3315 137.328 65.9795 137.724C65.6275 138.12 65.2095 138.435 64.7255 138.67C64.2415 138.89 63.7135 139 63.1415 139H55.0015V123.644ZM58.3455 136.184H62.1955C62.6355 136.184 62.9801 136.067 63.2295 135.832C63.4935 135.583 63.6255 135.238 63.6255 134.798V134.05C63.6255 133.61 63.4935 133.273 63.2295 133.038C62.9801 132.789 62.6355 132.664 62.1955 132.664H58.3455V136.184ZM58.3455 129.936H61.6675C62.1075 129.936 62.4521 129.811 62.7015 129.562C62.9508 129.313 63.0755 128.968 63.0755 128.528V127.868C63.0755 127.428 62.9508 127.083 62.7015 126.834C62.4521 126.585 62.1075 126.46 61.6675 126.46H58.3455V129.936ZM74.0093 139H70.6653V123.644H77.9473C78.6513 123.644 79.2893 123.761 79.8613 123.996C80.4333 124.231 80.9173 124.568 81.3133 125.008C81.724 125.433 82.0393 125.947 82.2593 126.548C82.4793 127.149 82.5893 127.817 82.5893 128.55C82.5893 129.591 82.3546 130.501 81.8853 131.278C81.4306 132.055 80.734 132.62 79.7953 132.972L82.8093 139H79.0913L76.4073 133.368H74.0093V139ZM77.5293 130.552C78.028 130.552 78.4166 130.427 78.6953 130.178C78.9886 129.914 79.1353 129.533 79.1353 129.034V128.066C79.1353 127.567 78.9886 127.193 78.6953 126.944C78.4166 126.68 78.028 126.548 77.5293 126.548H74.0093V130.552H77.5293ZM85.8855 139V136.338H87.8655V126.306H85.8855V123.644H93.1895V126.306H91.2095V136.338H93.1895V139H85.8855ZM96.9656 139V123.644H107.416V126.614H100.31V129.76H106.404V132.708H100.31V136.03H107.416V139H96.9656ZM111.319 139V123.644H121.505V126.614H114.663V129.76H120.493V132.708H114.663V139H111.319ZM124.584 139V136.338H126.564V126.306H124.584V123.644H131.888V126.306H129.908V136.338H131.888V139H124.584ZM140.35 131.74L138.876 128.66H138.81V139H135.664V123.644H139.316L143.518 130.904L144.992 133.984H145.058V123.644H148.204V139H144.552L140.35 131.74ZM162.32 136.558H162.21C162.093 137.335 161.697 137.981 161.022 138.494C160.347 139.007 159.431 139.264 158.272 139.264C157.392 139.264 156.571 139.095 155.808 138.758C155.045 138.421 154.378 137.922 153.806 137.262C153.234 136.602 152.787 135.781 152.464 134.798C152.141 133.815 151.98 132.679 151.98 131.388C151.98 130.097 152.149 128.953 152.486 127.956C152.823 126.959 153.293 126.123 153.894 125.448C154.51 124.773 155.243 124.26 156.094 123.908C156.945 123.556 157.891 123.38 158.932 123.38C160.311 123.38 161.499 123.681 162.496 124.282C163.493 124.869 164.278 125.756 164.85 126.944L162.122 128.506C161.887 127.905 161.521 127.399 161.022 126.988C160.523 126.563 159.827 126.35 158.932 126.35C157.891 126.35 157.062 126.651 156.446 127.252C155.83 127.853 155.522 128.799 155.522 130.09V132.554C155.522 133.83 155.83 134.776 156.446 135.392C157.062 135.993 157.891 136.294 158.932 136.294C159.343 136.294 159.731 136.25 160.098 136.162C160.465 136.059 160.787 135.913 161.066 135.722C161.345 135.517 161.557 135.275 161.704 134.996C161.865 134.717 161.946 134.387 161.946 134.006V133.236H159.086V130.442H165.136V139H162.32V136.558Z" fill="#222222"/>
<path d="M114.838 176.979H111.05V180.714H109.788V176.979H106V175.734H109.788V172H111.05V175.734H114.838V176.979Z" fill="#222222" fill-opacity="0.6"/>
</svg>
