<svg width="120" height="40" viewBox="0 0 120 40" fill="none" xmlns="http://www.w3.org/2000/svg">
<path d="M22.078 16.228H26.824C27.636 16.228 28.266 16.4567 28.714 16.914C29.1713 17.3713 29.4 17.978 29.4 18.734C29.4 19.1073 29.3487 19.4247 29.246 19.686C29.1527 19.9473 29.022 20.162 28.854 20.33C28.6953 20.498 28.504 20.624 28.28 20.708C28.0653 20.7827 27.832 20.8247 27.58 20.834V20.918C27.8133 20.918 28.056 20.96 28.308 21.044C28.5693 21.128 28.8073 21.2633 29.022 21.45C29.2367 21.6273 29.414 21.8607 29.554 22.15C29.7033 22.4393 29.778 22.794 29.778 23.214C29.778 23.5967 29.7127 23.9607 29.582 24.306C29.4607 24.642 29.288 24.936 29.064 25.188C28.84 25.44 28.574 25.6407 28.266 25.79C27.958 25.93 27.622 26 27.258 26H22.078V16.228ZM24.206 24.208H26.656C26.936 24.208 27.1553 24.1333 27.314 23.984C27.482 23.8253 27.566 23.606 27.566 23.326V22.85C27.566 22.57 27.482 22.3553 27.314 22.206C27.1553 22.0473 26.936 21.968 26.656 21.968H24.206V24.208ZM24.206 20.232H26.32C26.6 20.232 26.8193 20.1527 26.978 19.994C27.1367 19.8353 27.216 19.616 27.216 19.336V18.916C27.216 18.636 27.1367 18.4167 26.978 18.258C26.8193 18.0993 26.6 18.02 26.32 18.02H24.206V20.232ZM34.4119 16.228V22.22C34.4119 22.9107 34.5472 23.4287 34.8179 23.774C35.0886 24.11 35.5412 24.278 36.1759 24.278C36.8106 24.278 37.2632 24.11 37.5339 23.774C37.8046 23.4287 37.9399 22.9107 37.9399 22.22V16.228H40.0119V21.996C40.0119 22.7147 39.9419 23.34 39.8019 23.872C39.6712 24.3947 39.4519 24.8287 39.1439 25.174C38.8359 25.51 38.4392 25.762 37.9539 25.93C37.4686 26.0887 36.8759 26.168 36.1759 26.168C35.4759 26.168 34.8832 26.0887 34.3979 25.93C33.9126 25.762 33.5159 25.51 33.2079 25.174C32.8999 24.8287 32.6759 24.3947 32.5359 23.872C32.4052 23.34 32.3399 22.7147 32.3399 21.996V16.228H34.4119ZM47.1706 18.118V26H45.0426V18.118H42.3966V16.228H49.8166V18.118H47.1706ZM56.5315 18.118V26H54.4035V18.118H51.7575V16.228H59.1775V18.118H56.5315ZM65.1778 26.168C64.5338 26.168 63.9458 26.0607 63.4138 25.846C62.8818 25.6313 62.4291 25.314 62.0558 24.894C61.6824 24.4647 61.3931 23.9373 61.1878 23.312C60.9824 22.6773 60.8798 21.9447 60.8798 21.114C60.8798 20.2833 60.9824 19.5553 61.1878 18.93C61.3931 18.2953 61.6824 17.768 62.0558 17.348C62.4291 16.9187 62.8818 16.5967 63.4138 16.382C63.9458 16.1673 64.5338 16.06 65.1778 16.06C65.8218 16.06 66.4098 16.1673 66.9418 16.382C67.4738 16.5967 67.9264 16.9187 68.2998 17.348C68.6731 17.768 68.9624 18.2953 69.1678 18.93C69.3731 19.5553 69.4758 20.2833 69.4758 21.114C69.4758 21.9447 69.3731 22.6773 69.1678 23.312C68.9624 23.9373 68.6731 24.4647 68.2998 24.894C67.9264 25.314 67.4738 25.6313 66.9418 25.846C66.4098 26.0607 65.8218 26.168 65.1778 26.168ZM65.1778 24.278C65.8218 24.278 66.3211 24.068 66.6758 23.648C67.0398 23.228 67.2218 22.626 67.2218 21.842V20.386C67.2218 19.602 67.0398 19 66.6758 18.58C66.3211 18.16 65.8218 17.95 65.1778 17.95C64.5338 17.95 64.0298 18.16 63.6658 18.58C63.3111 19 63.1338 19.602 63.1338 20.386V21.842C63.1338 22.626 63.3111 23.228 63.6658 23.648C64.0298 24.068 64.5338 24.278 65.1778 24.278ZM75.2139 21.38L74.2759 19.42H74.2339V26H72.2319V16.228H74.5559L77.2299 20.848L78.1679 22.808H78.2099V16.228H80.2119V26H77.8879L75.2139 21.38Z" fill="url(#paint0_linear)" fill-opacity="0.7"/>
<rect x="0.5" y="5.5" width="108" height="33.6508" rx="5.5" stroke="url(#paint1_linear)" stroke-opacity="0.7"/>
<path d="M120 1.41L118.449 0L114.5 3.59L110.551 0L109 1.41L112.949 5L109 8.59L110.551 10L114.5 6.41L118.449 10L120 8.59L116.051 5L120 1.41Z" fill="url(#paint2_linear)" fill-opacity="0.7"/>
<defs>
<linearGradient id="paint0_linear" x1="55" y1="12" x2="55" y2="32" gradientUnits="userSpaceOnUse">
<stop stop-color="#FEDA7C"/>
<stop offset="1" stop-color="#F5C879"/>
</linearGradient>
<linearGradient id="paint1_linear" x1="54.5" y1="5" x2="54.5" y2="39.6508" gradientUnits="userSpaceOnUse">
<stop stop-color="#FEDA7C"/>
<stop offset="1" stop-color="#F5C879"/>
</linearGradient>
<linearGradient id="paint2_linear" x1="114.5" y1="0" x2="114.5" y2="10" gradientUnits="userSpaceOnUse">
<stop stop-color="#FEDA7C"/>
<stop offset="1" stop-color="#F5C879"/>
</linearGradient>
</defs>
</svg>
