<svg width="110" height="110" viewBox="0 0 110 110" fill="none" xmlns="http://www.w3.org/2000/svg">
<path d="M27.4073 56.6113V55.4498L32.6671 51.9922V53.9814L29.4898 55.9838V56.0773L32.6671 58.0798V60.0822L27.4073 56.6113ZM38.7227 60.2157C38.1976 60.2157 37.7304 60.1312 37.321 59.9621C36.9116 59.7841 36.5689 59.5393 36.293 59.2279C36.0171 58.9075 35.808 58.5203 35.6656 58.0664C35.5232 57.6125 35.452 57.1052 35.452 56.5445C35.452 55.9838 35.5232 55.481 35.6656 55.036C35.808 54.5821 36.0171 54.195 36.293 53.8746C36.5689 53.5542 36.9116 53.3094 37.321 53.1403C37.7304 52.9712 38.1976 52.8867 38.7227 52.8867C39.4347 52.8867 40.0265 53.0469 40.4982 53.3673C40.9788 53.6877 41.3215 54.1371 41.5262 54.7156L39.9242 55.4098C39.8619 55.1428 39.7328 54.9159 39.5371 54.729C39.3413 54.5421 39.0698 54.4486 38.7227 54.4486C38.3222 54.4486 38.0196 54.5821 37.8149 54.8491C37.6102 55.1072 37.5079 55.4587 37.5079 55.9037V57.212C37.5079 57.657 37.6102 58.0086 37.8149 58.2667C38.0196 58.5248 38.3222 58.6538 38.7227 58.6538C39.0787 58.6538 39.3591 58.5604 39.5638 58.3735C39.7773 58.1777 39.9331 57.924 40.031 57.6125L41.5662 58.28C41.3348 58.9475 40.9744 59.437 40.4849 59.7485C40.0043 60.06 39.4169 60.2157 38.7227 60.2157ZM46.5019 60.2157C45.9857 60.2157 45.5229 60.1312 45.1135 59.9621C44.713 59.793 44.3704 59.5482 44.0856 59.2279C43.8097 58.9075 43.5961 58.5203 43.4448 58.0664C43.2935 57.6125 43.2179 57.1052 43.2179 56.5445C43.2179 55.9838 43.2935 55.4765 43.4448 55.0227C43.5961 54.5688 43.8097 54.1861 44.0856 53.8746C44.3704 53.5542 44.713 53.3094 45.1135 53.1403C45.5229 52.9712 45.9857 52.8867 46.5019 52.8867C47.0181 52.8867 47.4765 52.9712 47.8769 53.1403C48.2863 53.3094 48.629 53.5542 48.9049 53.8746C49.1897 54.1861 49.4077 54.5688 49.559 55.0227C49.7103 55.4765 49.786 55.9838 49.786 56.5445C49.786 57.1052 49.7103 57.6125 49.559 58.0664C49.4077 58.5203 49.1897 58.9075 48.9049 59.2279C48.629 59.5482 48.2863 59.793 47.8769 59.9621C47.4765 60.1312 47.0181 60.2157 46.5019 60.2157ZM46.5019 58.6538C46.8935 58.6538 47.1961 58.5337 47.4097 58.2934C47.6233 58.0531 47.7301 57.7104 47.7301 57.2654V55.837C47.7301 55.392 47.6233 55.0494 47.4097 54.8091C47.1961 54.5688 46.8935 54.4486 46.5019 54.4486C46.1103 54.4486 45.8077 54.5688 45.5941 54.8091C45.3805 55.0494 45.2737 55.392 45.2737 55.837V57.2654C45.2737 57.7104 45.3805 58.0531 45.5941 58.2934C45.8077 58.5337 46.1103 58.6538 46.5019 58.6538ZM56.4269 58.8808H56.3601C56.3067 59.0677 56.2222 59.2457 56.1065 59.4147C55.9908 59.5749 55.8484 59.7173 55.6793 59.8419C55.5191 59.9576 55.3322 60.0466 55.1186 60.1089C54.9139 60.1801 54.7003 60.2157 54.4778 60.2157C53.5878 60.2157 52.9159 59.9042 52.462 59.2813C52.0081 58.6494 51.7811 57.7371 51.7811 56.5445C51.7811 55.3519 52.0081 54.4442 52.462 53.8212C52.9159 53.1982 53.5878 52.8867 54.4778 52.8867C54.9317 52.8867 55.3322 53.0113 55.6793 53.2605C56.0353 53.5097 56.2622 53.8301 56.3601 54.2217H56.4269V50.1767H58.4027V60.0555H56.4269V58.8808ZM55.132 58.6138C55.5058 58.6138 55.8128 58.5248 56.0531 58.3468C56.3023 58.1599 56.4269 57.9062 56.4269 57.5858V55.5166C56.4269 55.1962 56.3023 54.947 56.0531 54.769C55.8128 54.5821 55.5058 54.4887 55.132 54.4887C54.7582 54.4887 54.4467 54.6222 54.1975 54.8892C53.9572 55.1473 53.837 55.4988 53.837 55.9438V57.1586C53.837 57.6036 53.9572 57.9596 54.1975 58.2266C54.4467 58.4847 54.7582 58.6138 55.132 58.6138ZM64.1084 60.2157C63.5744 60.2157 63.0982 60.1312 62.6799 59.9621C62.2616 59.7841 61.9056 59.5393 61.6119 59.2279C61.3272 58.9075 61.1091 58.5203 60.9578 58.0664C60.8154 57.6125 60.7442 57.1052 60.7442 56.5445C60.7442 55.9927 60.8154 55.4943 60.9578 55.0494C61.1002 54.5955 61.3094 54.2083 61.5852 53.8879C61.87 53.5675 62.2171 53.3228 62.6265 53.1537C63.0359 52.9757 63.5032 52.8867 64.0283 52.8867C64.6068 52.8867 65.1007 52.9846 65.5101 53.1804C65.9284 53.3762 66.2666 53.6387 66.5247 53.968C66.7917 54.2973 66.983 54.68 67.0987 55.1161C67.2233 55.5433 67.2856 55.9927 67.2856 56.4644V57.0518H62.7867V57.1586C62.7867 57.6214 62.9113 57.9908 63.1605 58.2667C63.4097 58.5337 63.8013 58.6672 64.3353 58.6672C64.7447 58.6672 65.0785 58.5871 65.3366 58.4269C65.5947 58.2578 65.8349 58.0575 66.0574 57.8261L67.0453 59.0543C66.7338 59.4192 66.3244 59.704 65.8171 59.9087C65.3188 60.1134 64.7492 60.2157 64.1084 60.2157ZM64.0683 54.3418C63.6678 54.3418 63.3519 54.4753 63.1205 54.7423C62.898 55.0004 62.7867 55.3475 62.7867 55.7836V55.8904H65.2431V55.7702C65.2431 55.343 65.1452 55.0004 64.9494 54.7423C64.7625 54.4753 64.4688 54.3418 64.0683 54.3418ZM68.7344 62.0714L72.7127 50.1767H74.3413L70.3631 62.0714H68.7344ZM77.1443 58.0798L80.3215 56.0773V55.9838L77.1443 53.9814V51.9922L82.4041 55.4365V56.5979L77.1443 60.0822V58.0798Z" fill="url(#paint0_linear)"/>
<path d="M77.2964 21.8576C90.3875 30.1233 99.8061 46.925 96.0933 61.8122C92.3804 76.6995 75.5798 89.7285 57.3571 90.6789C39.0906 91.5729 19.4021 80.3883 14.6548 65.6518C9.92021 50.8152 20.1706 32.4832 33.7496 23.2165C47.2849 13.8934 64.1488 13.6356 77.2964 21.8576Z" fill="url(#paint1_linear)"/>
<defs>
<linearGradient id="paint0_linear" x1="43.7813" y1="49.2282" x2="47.3059" y2="65.0678" gradientUnits="userSpaceOnUse">
<stop stop-color="#FC6E40"/>
<stop offset="1" stop-color="#EE4137"/>
</linearGradient>
<linearGradient id="paint1_linear" x1="31.7766" y1="24.6431" x2="83.7615" y2="75.7333" gradientUnits="userSpaceOnUse">
<stop stop-opacity="0.02"/>
<stop offset="1" stop-opacity="0.05"/>
</linearGradient>
</defs>
</svg>
