<svg width="356" height="319" viewBox="0 0 356 319" fill="none" xmlns="http://www.w3.org/2000/svg">
<path d="M333.976 159.138C333.976 245.288 264.138 315.126 177.988 315.126C91.8382 315.126 22 245.288 22 159.138" stroke="#F98E64" stroke-width="6"/>
<path d="M334 160C334 73.8501 264.638 2.99995 178.488 2.99995C92.3387 2.99995 22.0001 73.3501 22.0001 159.5" stroke="#F98E64" stroke-width="6"/>
<circle cx="337.036" cy="160.036" r="18.0361" fill="#F98E64"/>
<path d="M330.699 165.398H344.348V167.348H330.699V165.398Z" fill="white"/>
<path d="M341.999 153.699L335.574 160.124L333.049 157.609L331.674 158.983L335.574 162.883L343.373 155.084L341.999 153.699Z" fill="white"/>
<circle cx="18.0361" cy="160.036" r="18.0361" fill="#F98E64"/>
<path d="M18.7627 160.524L11.4661 167.348L9.74927 165.742L15.329 160.524L9.74927 155.305L11.4661 153.699L18.7627 160.524Z" fill="white"/>
<path d="M27.5369 160.524L20.2404 167.348L18.5236 165.742L24.1033 160.524L18.5236 155.305L20.2404 153.699L27.5369 160.524Z" fill="white"/>
<path d="M49.6389 143.852H56.2429C57.4215 143.852 58.4875 144.043 59.4409 144.424C60.4115 144.805 61.2349 145.377 61.9109 146.14C62.6042 146.885 63.1329 147.83 63.4969 148.974C63.8782 150.101 64.0689 151.418 64.0689 152.926C64.0689 154.434 63.8782 155.76 63.4969 156.904C63.1329 158.031 62.6042 158.975 61.9109 159.738C61.2349 160.483 60.4115 161.047 59.4409 161.428C58.4875 161.809 57.4215 162 56.2429 162H49.6389V143.852ZM56.2429 158.958C57.5255 158.958 58.5395 158.585 59.2849 157.84C60.0475 157.077 60.4289 155.916 60.4289 154.356V151.496C60.4289 149.936 60.0475 148.783 59.2849 148.038C58.5395 147.275 57.5255 146.894 56.2429 146.894H53.0709V158.958H56.2429ZM68.7346 162V143.852H80.6946V146.894H72.1666V151.288H79.7066V154.33H72.1666V158.958H80.6946V162H68.7346ZM91.1365 162.312C89.5765 162.312 88.2505 162.035 87.1585 161.48C86.0838 160.925 85.1565 160.197 84.3765 159.296L86.6905 157.06C87.3145 157.788 88.0078 158.343 88.7705 158.724C89.5505 159.105 90.4085 159.296 91.3445 159.296C92.4018 159.296 93.1991 159.071 93.7365 158.62C94.2738 158.152 94.5425 157.528 94.5425 156.748C94.5425 156.141 94.3691 155.647 94.0225 155.266C93.6758 154.885 93.0258 154.607 92.0725 154.434L90.3565 154.174C86.7338 153.602 84.9225 151.843 84.9225 148.896C84.9225 148.081 85.0698 147.345 85.3645 146.686C85.6765 146.027 86.1185 145.464 86.6905 144.996C87.2625 144.528 87.9471 144.173 88.7445 143.93C89.5591 143.67 90.4778 143.54 91.5005 143.54C92.8698 143.54 94.0658 143.765 95.0885 144.216C96.1111 144.667 96.9865 145.334 97.7145 146.218L95.3745 148.428C94.9238 147.873 94.3778 147.423 93.7365 147.076C93.0951 146.729 92.2891 146.556 91.3185 146.556C90.3305 146.556 89.5851 146.747 89.0825 147.128C88.5971 147.492 88.3545 148.012 88.3545 148.688C88.3545 149.381 88.5538 149.893 88.9525 150.222C89.3511 150.551 89.9925 150.794 90.8765 150.95L92.5665 151.262C94.4038 151.591 95.7558 152.181 96.6225 153.03C97.5065 153.862 97.9485 155.032 97.9485 156.54C97.9485 157.407 97.7925 158.195 97.4805 158.906C97.1858 159.599 96.7438 160.206 96.1545 160.726C95.5825 161.229 94.8718 161.619 94.0225 161.896C93.1905 162.173 92.2285 162.312 91.1365 162.312ZM102.559 162V143.852H114.519V146.894H105.991V151.288H113.531V154.33H105.991V158.958H114.519V162H102.559ZM124.519 152.692L122.647 148.922H122.569V162H119.319V143.852H123.089L128.549 153.16L130.421 156.93H130.499V143.852H133.749V162H129.979L124.519 152.692ZM143.388 162L137.46 143.852H140.97L143.752 152.692L145.364 158.724H145.442L147.028 152.692L149.81 143.852H153.216L147.288 162H143.388ZM163.39 162.312C162.194 162.312 161.111 162.113 160.14 161.714C159.17 161.315 158.338 160.717 157.644 159.92C156.968 159.123 156.44 158.143 156.058 156.982C155.677 155.821 155.486 154.469 155.486 152.926C155.486 151.401 155.677 150.057 156.058 148.896C156.44 147.717 156.968 146.729 157.644 145.932C158.338 145.135 159.17 144.537 160.14 144.138C161.111 143.739 162.194 143.54 163.39 143.54C164.586 143.54 165.67 143.739 166.64 144.138C167.611 144.537 168.443 145.135 169.136 145.932C169.83 146.729 170.358 147.717 170.722 148.896C171.104 150.057 171.294 151.401 171.294 152.926C171.294 154.469 171.104 155.821 170.722 156.982C170.358 158.143 169.83 159.123 169.136 159.92C168.443 160.717 167.611 161.315 166.64 161.714C165.67 162.113 164.586 162.312 163.39 162.312ZM163.39 159.27C164.69 159.27 165.722 158.837 166.484 157.97C167.264 157.103 167.654 155.89 167.654 154.33V151.522C167.654 149.962 167.264 148.749 166.484 147.882C165.722 147.015 164.69 146.582 163.39 146.582C162.09 146.582 161.05 147.015 160.27 147.882C159.508 148.749 159.126 149.962 159.126 151.522V154.33C159.126 155.89 159.508 157.103 160.27 157.97C161.05 158.837 162.09 159.27 163.39 159.27ZM175.946 162V143.852H179.378V158.958H186.528V162H175.946ZM193.084 162L187.156 143.852H190.666L193.448 152.692L195.06 158.724H195.138L196.724 152.692L199.506 143.852H202.912L196.984 162H193.084ZM205.868 162V159.244H208.26V146.608H205.868V143.852H214.11V146.608H211.692V159.244H214.11V162H205.868ZM232.488 148.974H232.384L230.98 151.86L227.262 158.724L223.544 151.86L222.14 148.974H222.036V162H218.786V143.852H222.66L227.314 152.718H227.418L232.02 143.852H235.738V162H232.488V148.974ZM241.183 162V143.852H253.143V146.894H244.615V151.288H252.155V154.33H244.615V158.958H253.143V162H241.183ZM263.143 152.692L261.271 148.922H261.193V162H257.943V143.852H261.713L267.173 153.16L269.045 156.93H269.123V143.852H272.373V162H268.603L263.143 152.692ZM284.924 146.894V162H281.492V146.894H276.344V143.852H290.072V146.894H284.924ZM300.541 162.312C299.345 162.312 298.262 162.113 297.291 161.714C296.321 161.315 295.489 160.717 294.795 159.92C294.119 159.123 293.591 158.143 293.209 156.982C292.828 155.821 292.637 154.469 292.637 152.926C292.637 151.401 292.828 150.057 293.209 148.896C293.591 147.717 294.119 146.729 294.795 145.932C295.489 145.135 296.321 144.537 297.291 144.138C298.262 143.739 299.345 143.54 300.541 143.54C301.737 143.54 302.821 143.739 303.791 144.138C304.762 144.537 305.594 145.135 306.287 145.932C306.981 146.729 307.509 147.717 307.873 148.896C308.255 150.057 308.445 151.401 308.445 152.926C308.445 154.469 308.255 155.821 307.873 156.982C307.509 158.143 306.981 159.123 306.287 159.92C305.594 160.717 304.762 161.315 303.791 161.714C302.821 162.113 301.737 162.312 300.541 162.312ZM300.541 159.27C301.841 159.27 302.873 158.837 303.635 157.97C304.415 157.103 304.805 155.89 304.805 154.33V151.522C304.805 149.962 304.415 148.749 303.635 147.882C302.873 147.015 301.841 146.582 300.541 146.582C299.241 146.582 298.201 147.015 297.421 147.882C296.659 148.749 296.277 149.962 296.277 151.522V154.33C296.277 155.89 296.659 157.103 297.421 157.97C298.201 158.837 299.241 159.27 300.541 159.27Z" fill="#222222"/>
<path d="M184.649 230.8H178.799V236.649H176.85V230.8H171V228.85H176.85V223H178.799V228.85H184.649V230.8Z" fill="#222222" fill-opacity="0.6"/>
</svg>
