<svg xmlns="http://www.w3.org/2000/svg" fill="none" viewBox="0 0 220 237"><ellipse cx="110.641" cy="119.471" fill="url(#paint0_linear)" rx="105.44" ry="106.454"/><path stroke="#F98E64" stroke-width="6" d="M217 120.662c0-59.092-47.867-106.995-106.913-106.995C51.04 13.667 3.174 61.57 3.174 120.662"/><path stroke="#F98E64" stroke-width="6" d="M216.827 120.593c0 59.091-47.867 106.995-106.914 106.995C50.867 227.588 3 179.684 3 120.593"/><path fill="#282A2D" d="M29.284 81.264V90h-1.176v-8.736H25v-1.036h7.392v1.036h-3.108zm6.424 8.904c-.486 0-.93-.089-1.33-.266a2.97 2.97 0 0 1-1.036-.756c-.28-.336-.5-.733-.658-1.19a4.851 4.851 0 0 1-.238-1.568c0-.57.079-1.087.238-1.554a3.57 3.57 0 0 1 .658-1.19c.289-.336.634-.593 1.036-.77a3.255 3.255 0 0 1 1.33-.266c.485 0 .924.089 1.316.266.4.177.746.434 1.036.77.289.327.513.723.672 1.19.158.467.238.985.238 1.554 0 .579-.08 1.101-.238 1.568a3.622 3.622 0 0 1-.672 1.19c-.29.327-.635.579-1.036.756-.392.177-.831.266-1.316.266zm0-.994c.606 0 1.1-.187 1.484-.56.382-.373.574-.943.574-1.708V85.87c0-.765-.192-1.335-.574-1.708-.383-.373-.878-.56-1.484-.56-.607 0-1.102.187-1.484.56-.383.373-.574.943-.574 1.708v1.036c0 .765.19 1.335.574 1.708.382.373.877.56 1.484.56zm9.724-.35h-.056c-.44.896-1.144 1.344-2.114 1.344-.448 0-.854-.089-1.218-.266a2.71 2.71 0 0 1-.938-.756 3.64 3.64 0 0 1-.588-1.19 5.812 5.812 0 0 1-.196-1.568c0-.579.065-1.101.196-1.568a3.64 3.64 0 0 1 .588-1.19 2.71 2.71 0 0 1 .938-.756c.364-.177.77-.266 1.218-.266.504 0 .933.112 1.288.336.364.215.639.55.826 1.008h.056V79.64h1.12V90h-1.12v-1.176zm-1.862.336c.252 0 .49-.033.714-.098.233-.065.434-.159.602-.28.168-.13.298-.285.392-.462.102-.187.154-.397.154-.63v-2.688c0-.196-.052-.378-.154-.546a1.287 1.287 0 0 0-.392-.448 1.888 1.888 0 0 0-.602-.28 2.242 2.242 0 0 0-.714-.112c-.635 0-1.134.2-1.498.602-.364.392-.546.91-.546 1.554v1.232c0 .644.182 1.167.546 1.568.364.392.863.588 1.498.588zm8.093 1.008c-.486 0-.929-.089-1.33-.266a2.973 2.973 0 0 1-1.036-.756c-.28-.336-.5-.733-.658-1.19a4.854 4.854 0 0 1-.238-1.568c0-.57.079-1.087.238-1.554.158-.467.378-.863.658-1.19.289-.336.634-.593 1.036-.77a3.256 3.256 0 0 1 1.33-.266c.485 0 .924.089 1.316.266.401.177.746.434 1.036.77.289.327.513.723.672 1.19.158.467.238.985.238 1.554 0 .579-.08 1.101-.238 1.568a3.618 3.618 0 0 1-.672 1.19 2.97 2.97 0 0 1-1.036.756c-.392.177-.831.266-1.316.266zm0-.994c.606 0 1.101-.187 1.484-.56.382-.373.574-.943.574-1.708V85.87c0-.765-.192-1.335-.574-1.708-.383-.373-.878-.56-1.484-.56-.607 0-1.102.187-1.484.56-.383.373-.574.943-.574 1.708v1.036c0 .765.191 1.335.574 1.708.382.373.877.56 1.484.56zm11.142.994c-.485 0-.928-.089-1.33-.266a2.973 2.973 0 0 1-1.036-.756c-.28-.336-.5-.733-.658-1.19a4.854 4.854 0 0 1-.238-1.568c0-.57.08-1.087.238-1.554.159-.467.378-.863.658-1.19.29-.336.635-.593 1.036-.77a3.256 3.256 0 0 1 1.33-.266c.486 0 .924.089 1.316.266.402.177.747.434 1.036.77.29.327.514.723.672 1.19.159.467.238.985.238 1.554 0 .579-.08 1.101-.238 1.568a3.618 3.618 0 0 1-.672 1.19 2.97 2.97 0 0 1-1.036.756c-.392.177-.83.266-1.316.266zm0-.994c.607 0 1.102-.187 1.484-.56.383-.373.574-.943.574-1.708V85.87c0-.765-.191-1.335-.574-1.708-.382-.373-.877-.56-1.484-.56-.606 0-1.101.187-1.484.56-.382.373-.574.943-.574 1.708v1.036c0 .765.192 1.335.574 1.708.383.373.878.56 1.484.56zm8.413-6.398h1.12v1.176h.056c.186-.457.457-.793.812-1.008.364-.224.798-.336 1.302-.336.448 0 .854.089 1.218.266.364.177.672.43.924.756.261.327.457.723.588 1.19.14.467.21.99.21 1.568 0 .579-.07 1.101-.21 1.568-.13.467-.327.863-.588 1.19-.252.327-.56.579-.924.756-.364.177-.77.266-1.218.266-.98 0-1.685-.448-2.114-1.344h-.056V92.8h-1.12V82.776zM74.2 89.16c.635 0 1.134-.196 1.498-.588.364-.401.546-.924.546-1.568v-1.232c0-.644-.182-1.162-.546-1.554-.364-.401-.863-.602-1.498-.602-.252 0-.495.037-.728.112-.224.065-.42.159-.588.28-.168.121-.303.27-.406.448-.093.168-.14.35-.14.546v2.688c0 .233.047.443.14.63.103.177.238.331.406.462.168.121.364.215.588.28.233.065.476.098.728.098zm5.139.84v-7.224h1.12v1.33h.07c.13-.345.364-.653.7-.924.336-.27.798-.406 1.386-.406h.434v1.12h-.658c-.607 0-1.083.117-1.428.35-.336.224-.504.509-.504.854V90h-1.12zm7.802.168c-.485 0-.928-.089-1.33-.266a2.97 2.97 0 0 1-1.036-.756c-.28-.336-.5-.733-.658-1.19a4.851 4.851 0 0 1-.238-1.568c0-.57.08-1.087.238-1.554a3.57 3.57 0 0 1 .658-1.19c.29-.336.635-.593 1.036-.77a3.255 3.255 0 0 1 1.33-.266c.485 0 .924.089 1.316.266.402.177.747.434 1.036.77.29.327.514.723.672 1.19.159.467.238.985.238 1.554 0 .579-.08 1.101-.238 1.568a3.622 3.622 0 0 1-.672 1.19c-.29.327-.634.579-1.036.756-.392.177-.83.266-1.316.266zm0-.994c.607 0 1.102-.187 1.484-.56.383-.373.574-.943.574-1.708V85.87c0-.765-.191-1.335-.574-1.708-.382-.373-.877-.56-1.484-.56s-1.101.187-1.484.56c-.382.373-.574.943-.574 1.708v1.036c0 .765.192 1.335.574 1.708.383.373.877.56 1.484.56zm5.104-6.398h1.12v8.344c0 .504-.126.91-.378 1.218-.252.308-.648.462-1.19.462h-.728v-.98h1.176v-9.044zm.56-1.694c-.243 0-.42-.056-.532-.168a.69.69 0 0 1-.154-.462v-.182c0-.187.052-.336.154-.448.112-.121.29-.182.532-.182.243 0 .415.06.518.182a.605.605 0 0 1 .168.448v.182c0 .187-.056.34-.168.462-.102.112-.275.168-.518.168zm5.656 9.086c-.495 0-.942-.089-1.344-.266a3.008 3.008 0 0 1-1.022-.756c-.28-.336-.5-.733-.658-1.19a5.132 5.132 0 0 1-.224-1.568c0-.57.075-1.087.224-1.554.159-.467.378-.863.658-1.19a2.93 2.93 0 0 1 1.022-.77c.401-.177.85-.266 1.344-.266.486 0 .92.089 1.302.266.383.177.709.425.98.742.271.308.476.677.616 1.106.149.43.224.9.224 1.414v.532h-5.194v.336c0 .308.047.597.14.868.103.261.243.49.42.686.187.196.41.35.672.462.27.112.574.168.91.168.457 0 .854-.107 1.19-.322.345-.215.611-.523.798-.924l.798.574a2.816 2.816 0 0 1-1.092 1.204c-.494.299-1.082.448-1.764.448zm0-6.622c-.308 0-.588.056-.84.168a1.876 1.876 0 0 0-.658.448 2.356 2.356 0 0 0-.574 1.568v.098h3.99v-.154c0-.644-.177-1.157-.532-1.54-.345-.392-.807-.588-1.386-.588zM105.025 90c-.392 0-.691-.107-.896-.322-.196-.224-.294-.513-.294-.868v-5.054h-1.19v-.98h.672c.242 0 .406-.047.49-.14.093-.103.14-.275.14-.518v-1.344h1.008v2.002h1.582v.98h-1.582v5.264h1.47V90h-1.4zm5.987.168c-.485 0-.928-.089-1.33-.266a2.98 2.98 0 0 1-1.036-.756 3.773 3.773 0 0 1-.658-1.19 4.87 4.87 0 0 1-.238-1.568c0-.57.08-1.087.238-1.554.159-.467.378-.863.658-1.19.29-.336.635-.593 1.036-.77a3.259 3.259 0 0 1 1.33-.266c.486 0 .924.089 1.316.266.402.177.747.434 1.036.77.29.327.514.723.672 1.19.159.467.238.985.238 1.554 0 .579-.079 1.101-.238 1.568a3.597 3.597 0 0 1-.672 1.19 2.962 2.962 0 0 1-1.036.756c-.392.177-.83.266-1.316.266zm0-.994c.607 0 1.102-.187 1.484-.56.383-.373.574-.943.574-1.708V85.87c0-.765-.191-1.335-.574-1.708-.382-.373-.877-.56-1.484-.56-.606 0-1.101.187-1.484.56-.382.373-.574.943-.574 1.708v1.036c0 .765.192 1.335.574 1.708.383.373.878.56 1.484.56zm13.663.826c-.42 0-.724-.112-.91-.336a1.69 1.69 0 0 1-.336-.84h-.07c-.159.448-.42.784-.784 1.008-.364.224-.798.336-1.302.336-.766 0-1.363-.196-1.792-.588-.42-.392-.63-.924-.63-1.596 0-.681.247-1.204.742-1.568.504-.364 1.283-.546 2.338-.546h1.428v-.714c0-.513-.14-.905-.42-1.176-.28-.27-.71-.406-1.288-.406-.439 0-.808.098-1.106.294-.29.196-.532.457-.728.784l-.672-.63c.196-.392.508-.723.938-.994.429-.28.97-.42 1.624-.42.877 0 1.558.215 2.044.644.485.43.728 1.027.728 1.792v3.976h.826V90h-.63zm-3.22-.784c.28 0 .536-.033.77-.098a1.89 1.89 0 0 0 .602-.28c.168-.121.298-.261.392-.42.093-.159.14-.331.14-.518v-1.19h-1.484c-.644 0-1.116.093-1.414.28-.29.187-.434.457-.434.812v.294c0 .355.126.63.378.826.261.196.611.294 1.05.294zm11.538 1.582c0 .747-.294 1.293-.882 1.638-.578.355-1.451.532-2.618.532-1.129 0-1.941-.154-2.436-.462-.494-.308-.742-.747-.742-1.316 0-.392.103-.7.308-.924.206-.215.486-.373.84-.476v-.154c-.429-.205-.644-.541-.644-1.008 0-.364.117-.64.35-.826.234-.196.532-.34.896-.434v-.056a2.384 2.384 0 0 1-1.008-.882c-.233-.383-.35-.826-.35-1.33 0-.364.066-.7.196-1.008.131-.308.313-.57.546-.784.243-.224.528-.397.854-.518.336-.121.71-.182 1.12-.182.514 0 .971.093 1.372.28v-.126c0-.28.066-.509.196-.686.131-.187.346-.28.644-.28h1.078v.98h-1.372v.462c.262.224.462.495.602.812.15.308.224.658.224 1.05 0 .364-.065.7-.196 1.008-.13.308-.317.574-.56.798a2.491 2.491 0 0 1-.854.504 3.278 3.278 0 0 1-1.12.182c-.233 0-.466-.023-.7-.07a2.22 2.22 0 0 0-.658.294.576.576 0 0 0-.294.518c0 .215.103.36.308.434.206.075.472.112.798.112h1.54c.896 0 1.545.173 1.946.518.411.336.616.803.616 1.4zm-1.05.084a.85.85 0 0 0-.336-.7c-.214-.168-.602-.252-1.162-.252h-2.408c-.448.205-.672.532-.672.98 0 .317.117.588.35.812.243.224.649.336 1.218.336h1.036c.626 0 1.111-.098 1.456-.294.346-.196.518-.49.518-.882zm-2.506-4.186c.476 0 .854-.112 1.134-.336.28-.233.42-.588.42-1.064v-.392c0-.476-.14-.826-.42-1.05-.28-.233-.658-.35-1.134-.35-.476 0-.854.117-1.134.35-.28.224-.42.574-.42 1.05v.392c0 .476.14.83.42 1.064.28.224.658.336 1.134.336zm7.511 3.472c-.486 0-.929-.089-1.33-.266a2.962 2.962 0 0 1-1.036-.756c-.28-.336-.5-.733-.658-1.19a4.843 4.843 0 0 1-.238-1.568c0-.57.079-1.087.238-1.554a3.56 3.56 0 0 1 .658-1.19 2.888 2.888 0 0 1 1.036-.77 3.252 3.252 0 0 1 1.33-.266c.485 0 .924.089 1.316.266.401.177.746.434 1.036.77.289.327.513.723.672 1.19.158.467.238.985.238 1.554a4.87 4.87 0 0 1-.238 1.568 3.632 3.632 0 0 1-.672 1.19 2.98 2.98 0 0 1-1.036.756 3.16 3.16 0 0 1-1.316.266zm0-.994c.606 0 1.101-.187 1.484-.56.382-.373.574-.943.574-1.708V85.87c0-.765-.192-1.335-.574-1.708-.383-.373-.878-.56-1.484-.56-.607 0-1.102.187-1.484.56-.383.373-.574.943-.574 1.708v1.036c0 .765.191 1.335.574 1.708.382.373.877.56 1.484.56zm5.104.826v-7.224h1.12v1.33h.07c.13-.345.364-.653.7-.924.336-.27.798-.406 1.386-.406h.434v1.12h-.658c-.607 0-1.083.117-1.428.35-.336.224-.504.509-.504.854V90h-1.12zm10.336 0c-.42 0-.724-.112-.91-.336a1.69 1.69 0 0 1-.336-.84h-.07c-.159.448-.42.784-.784 1.008-.364.224-.798.336-1.302.336-.766 0-1.363-.196-1.792-.588-.42-.392-.63-.924-.63-1.596 0-.681.247-1.204.742-1.568.504-.364 1.283-.546 2.338-.546h1.428v-.714c0-.513-.14-.905-.42-1.176-.28-.27-.71-.406-1.288-.406-.439 0-.808.098-1.106.294-.29.196-.532.457-.728.784l-.672-.63c.196-.392.508-.723.938-.994.429-.28.97-.42 1.624-.42.877 0 1.558.215 2.044.644.485.43.728 1.027.728 1.792v3.976h.826V90h-.63zm-3.22-.784c.28 0 .536-.033.77-.098a1.89 1.89 0 0 0 .602-.28c.168-.121.298-.261.392-.42.093-.159.14-.331.14-.518v-1.19h-1.484c-.644 0-1.116.093-1.414.28-.29.187-.434.457-.434.812v.294c0 .355.126.63.378.826.261.196.611.294 1.05.294zm9.317-8.134c-.243 0-.42-.056-.532-.168a.689.689 0 0 1-.154-.462v-.182c0-.187.051-.336.154-.448.112-.121.289-.182.532-.182.242 0 .415.06.518.182a.605.605 0 0 1 .168.448v.182c0 .187-.056.34-.168.462-.103.112-.276.168-.518.168zm-.56 1.694h1.12V90h-1.12v-7.224zm3.5 7.224v-7.224h1.12v1.33h.07c.13-.345.364-.653.7-.924.336-.27.798-.406 1.386-.406h.434v1.12h-.658c-.607 0-1.083.117-1.428.35-.336.224-.504.509-.504.854V90h-1.12zm10.336 0c-.42 0-.724-.112-.91-.336a1.69 1.69 0 0 1-.336-.84h-.07c-.159.448-.42.784-.784 1.008-.364.224-.798.336-1.302.336-.766 0-1.363-.196-1.792-.588-.42-.392-.63-.924-.63-1.596 0-.681.247-1.204.742-1.568.504-.364 1.283-.546 2.338-.546h1.428v-.714c0-.513-.14-.905-.42-1.176-.28-.27-.71-.406-1.288-.406-.439 0-.808.098-1.106.294-.29.196-.532.457-.728.784l-.672-.63c.196-.392.508-.723.938-.994.429-.28.97-.42 1.624-.42.877 0 1.558.215 2.044.644.485.43.728 1.027.728 1.792v3.976h.826V90h-.63zm-3.22-.784c.28 0 .536-.033.77-.098a1.89 1.89 0 0 0 .602-.28c.168-.121.298-.261.392-.42.093-.159.14-.331.14-.518v-1.19h-1.484c-.644 0-1.116.093-1.414.28-.29.187-.434.457-.434.812v.294c0 .355.126.63.378.826.261.196.611.294 1.05.294zm10.927.952c-.672 0-1.237-.126-1.694-.378a3.961 3.961 0 0 1-1.162-1.036l.798-.644c.28.355.593.63.938.826.345.187.747.28 1.204.28.476 0 .845-.103 1.106-.308.271-.205.406-.495.406-.868a.996.996 0 0 0-.28-.714c-.177-.205-.504-.345-.98-.42l-.574-.084a5.178 5.178 0 0 1-.924-.21 2.951 2.951 0 0 1-.742-.392 1.86 1.86 0 0 1-.49-.616 2.057 2.057 0 0 1-.168-.868c0-.355.065-.663.196-.924.131-.27.308-.495.532-.672.233-.177.509-.308.826-.392.317-.093.658-.14 1.022-.14.588 0 1.078.103 1.47.308.401.205.751.49 1.05.854l-.742.672c-.159-.224-.392-.425-.7-.602-.308-.187-.695-.28-1.162-.28-.467 0-.821.103-1.064.308-.233.196-.35.467-.35.812 0 .355.117.611.35.77.243.159.588.275 1.036.35l.56.084c.803.121 1.372.355 1.708.7.336.336.504.78.504 1.33 0 .7-.238 1.25-.714 1.652-.476.401-1.129.602-1.96.602zm7.368 0c-.495 0-.943-.089-1.344-.266a3.004 3.004 0 0 1-1.022-.756 3.773 3.773 0 0 1-.658-1.19 5.141 5.141 0 0 1-.224-1.568c0-.57.075-1.087.224-1.554.159-.467.378-.863.658-1.19.289-.336.63-.593 1.022-.77a3.289 3.289 0 0 1 1.344-.266c.485 0 .919.089 1.302.266.383.177.709.425.98.742.271.308.476.677.616 1.106.149.43.224.9.224 1.414v.532h-5.194v.336c0 .308.047.597.14.868.103.261.243.49.42.686.187.196.411.35.672.462.271.112.574.168.91.168.457 0 .854-.107 1.19-.322.345-.215.611-.523.798-.924l.798.574a2.816 2.816 0 0 1-1.092 1.204c-.495.299-1.083.448-1.764.448zm0-6.622c-.308 0-.588.056-.84.168a1.879 1.879 0 0 0-.658.448 2.348 2.348 0 0 0-.574 1.568v.098h3.99v-.154c0-.644-.177-1.157-.532-1.54-.345-.392-.807-.588-1.386-.588zM191.804 90v-7.224h1.12v1.33h.07c.13-.345.364-.653.7-.924.336-.27.798-.406 1.386-.406h.434v1.12h-.658c-.607 0-1.083.117-1.428.35-.336.224-.504.509-.504.854V90h-1.12zM41.256 100.776h1.12v1.176h.056c.187-.457.457-.793.812-1.008.364-.224.798-.336 1.302-.336.448 0 .854.089 1.218.266.364.177.672.429.924.756.261.327.457.723.588 1.19.14.467.21.989.21 1.568 0 .579-.07 1.101-.21 1.568-.13.467-.327.863-.588 1.19-.252.327-.56.579-.924.756-.364.177-.77.266-1.218.266-.98 0-1.685-.448-2.114-1.344h-.056v3.976h-1.12v-10.024zm2.982 6.384c.635 0 1.134-.196 1.498-.588.364-.401.546-.924.546-1.568v-1.232c0-.644-.182-1.162-.546-1.554-.364-.401-.863-.602-1.498-.602-.252 0-.495.037-.728.112-.224.065-.42.159-.588.28a1.433 1.433 0 0 0-.406.448c-.093.168-.14.35-.14.546v2.688c0 .233.047.443.14.63.103.177.238.331.406.462.168.121.364.215.588.28a2.7 2.7 0 0 0 .728.098zm10.389.84c-.42 0-.723-.112-.91-.336a1.7 1.7 0 0 1-.336-.84h-.07c-.159.448-.42.784-.784 1.008-.364.224-.798.336-1.302.336-.765 0-1.363-.196-1.792-.588-.42-.392-.63-.924-.63-1.596 0-.681.247-1.204.742-1.568.504-.364 1.283-.546 2.338-.546h1.428v-.714c0-.513-.14-.905-.42-1.176-.28-.271-.71-.406-1.288-.406-.439 0-.807.098-1.106.294a2.45 2.45 0 0 0-.728.784l-.672-.63c.196-.392.509-.723.938-.994.43-.28.97-.42 1.624-.42.877 0 1.559.215 2.044.644.485.429.728 1.027.728 1.792v3.976h.826v.98h-.63zm-3.22-.784c.28 0 .537-.033.77-.098.233-.065.434-.159.602-.28.168-.121.299-.261.392-.42.093-.159.14-.331.14-.518v-1.19h-1.484c-.644 0-1.115.093-1.414.28a.908.908 0 0 0-.434.812v.294c0 .355.126.63.378.826.261.196.611.294 1.05.294zm7.619.952c-.673 0-1.237-.126-1.695-.378a3.958 3.958 0 0 1-1.162-1.036l.799-.644c.28.355.592.63.938.826.345.187.746.28 1.203.28.477 0 .845-.103 1.106-.308.271-.205.406-.495.406-.868a.997.997 0 0 0-.28-.714c-.177-.205-.504-.345-.98-.42l-.573-.084a5.23 5.23 0 0 1-.924-.21 2.946 2.946 0 0 1-.742-.392 1.858 1.858 0 0 1-.49-.616 2.058 2.058 0 0 1-.168-.868c0-.355.065-.663.196-.924.13-.271.308-.495.532-.672.233-.177.508-.308.825-.392.318-.093.658-.14 1.022-.14.588 0 1.078.103 1.47.308.402.205.752.49 1.05.854l-.741.672c-.16-.224-.392-.425-.7-.602-.309-.187-.696-.28-1.163-.28-.466 0-.82.103-1.063.308-.234.196-.35.467-.35.812 0 .355.116.611.35.77.242.159.587.275 1.035.35l.56.084c.803.121 1.372.355 1.709.7.336.336.504.779.504 1.33 0 .7-.239 1.251-.715 1.652-.475.401-1.129.602-1.96.602zm6.74 0c-.672 0-1.237-.126-1.694-.378a3.958 3.958 0 0 1-1.162-1.036l.798-.644c.28.355.592.63.938.826.345.187.746.28 1.204.28.476 0 .844-.103 1.106-.308.27-.205.406-.495.406-.868a.997.997 0 0 0-.28-.714c-.178-.205-.504-.345-.98-.42l-.574-.084a5.23 5.23 0 0 1-.924-.21 2.946 2.946 0 0 1-.742-.392 1.86 1.86 0 0 1-.49-.616 2.058 2.058 0 0 1-.168-.868c0-.355.065-.663.196-.924.13-.271.308-.495.532-.672.233-.177.508-.308.826-.392.317-.093.658-.14 1.022-.14.588 0 1.078.103 1.47.308.401.205.751.49 1.05.854l-.742.672c-.159-.224-.392-.425-.7-.602-.308-.187-.696-.28-1.162-.28-.467 0-.822.103-1.064.308-.234.196-.35.467-.35.812 0 .355.116.611.35.77.242.159.588.275 1.036.35l.56.084c.802.121 1.372.355 1.708.7.336.336.504.779.504 1.33 0 .7-.238 1.251-.714 1.652s-1.13.602-1.96.602zm9.902-.168c-.42 0-.723-.112-.91-.336a1.702 1.702 0 0 1-.336-.84h-.07c-.159.448-.42.784-.784 1.008-.364.224-.798.336-1.302.336-.765 0-1.363-.196-1.792-.588-.42-.392-.63-.924-.63-1.596 0-.681.247-1.204.742-1.568.504-.364 1.283-.546 2.338-.546h1.428v-.714c0-.513-.14-.905-.42-1.176-.28-.271-.71-.406-1.288-.406-.439 0-.807.098-1.106.294a2.45 2.45 0 0 0-.728.784l-.672-.63c.196-.392.509-.723.938-.994.43-.28.97-.42 1.624-.42.877 0 1.559.215 2.044.644.485.429.728 1.027.728 1.792v3.976h.826v.98h-.63zm-3.22-.784c.28 0 .537-.033.77-.098.233-.065.434-.159.602-.28a1.38 1.38 0 0 0 .392-.42c.093-.159.14-.331.14-.518v-1.19h-1.484c-.644 0-1.115.093-1.414.28a.908.908 0 0 0-.434.812v.294c0 .355.126.63.378.826.261.196.611.294 1.05.294zm10.069-.392h-.056c-.44.896-1.144 1.344-2.114 1.344-.448 0-.854-.089-1.218-.266a2.703 2.703 0 0 1-.939-.756 3.64 3.64 0 0 1-.587-1.19 5.812 5.812 0 0 1-.197-1.568c0-.579.066-1.101.197-1.568a3.64 3.64 0 0 1 .588-1.19c.26-.327.573-.579.938-.756.364-.177.77-.266 1.218-.266.504 0 .933.112 1.288.336.364.215.639.551.825 1.008h.056V97.64h1.12V108h-1.12v-1.176zm-1.862.336c.251 0 .49-.033.713-.098.234-.065.434-.159.603-.28.167-.131.298-.285.391-.462.103-.187.154-.397.154-.63v-2.688c0-.196-.05-.378-.154-.546a1.286 1.286 0 0 0-.391-.448 1.888 1.888 0 0 0-.603-.28 2.234 2.234 0 0 0-.713-.112c-.635 0-1.135.201-1.499.602-.364.392-.546.91-.546 1.554v1.232c0 .644.183 1.167.546 1.568.364.392.864.588 1.498.588zm8.093 1.008a3.26 3.26 0 0 1-1.33-.266 2.964 2.964 0 0 1-1.036-.756 3.77 3.77 0 0 1-.658-1.19 4.851 4.851 0 0 1-.238-1.568c0-.569.079-1.087.238-1.554.158-.467.378-.863.658-1.19.289-.336.634-.593 1.036-.77a3.26 3.26 0 0 1 1.33-.266c.485 0 .924.089 1.316.266.4.177.746.434 1.036.77.289.327.513.723.672 1.19.158.467.238.985.238 1.554 0 .579-.08 1.101-.238 1.568a3.625 3.625 0 0 1-.672 1.19c-.29.327-.635.579-1.036.756-.392.177-.831.266-1.316.266zm0-.994c.606 0 1.1-.187 1.484-.56.382-.373.574-.943.574-1.708v-1.036c0-.765-.192-1.335-.574-1.708-.383-.373-.878-.56-1.484-.56-.607 0-1.102.187-1.484.56-.383.373-.574.943-.574 1.708v1.036c0 .765.19 1.335.574 1.708.382.373.877.56 1.484.56zm8.412-6.398h1.12v1.176h.056c.187-.457.457-.793.812-1.008.364-.224.798-.336 1.302-.336.448 0 .854.089 1.218.266.364.177.672.429.924.756.262.327.458.723.588 1.19.14.467.21.989.21 1.568 0 .579-.07 1.101-.21 1.568-.13.467-.326.863-.588 1.19-.252.327-.56.579-.924.756-.364.177-.77.266-1.218.266-.98 0-1.684-.448-2.114-1.344h-.056v3.976h-1.12v-10.024zm2.982 6.384c.635 0 1.134-.196 1.498-.588.364-.401.546-.924.546-1.568v-1.232c0-.644-.182-1.162-.546-1.554-.364-.401-.863-.602-1.498-.602-.252 0-.495.037-.728.112-.224.065-.42.159-.588.28a1.433 1.433 0 0 0-.406.448c-.093.168-.14.35-.14.546v2.688c0 .233.047.443.14.63.103.177.238.331.406.462.168.121.364.215.588.28a2.7 2.7 0 0 0 .728.098zm10.389.84c-.42 0-.723-.112-.91-.336a1.708 1.708 0 0 1-.336-.84h-.07c-.158.448-.42.784-.784 1.008-.364.224-.798.336-1.302.336-.765 0-1.362-.196-1.792-.588-.42-.392-.63-.924-.63-1.596 0-.681.248-1.204.742-1.568.504-.364 1.284-.546 2.338-.546h1.428v-.714c0-.513-.14-.905-.42-1.176-.28-.271-.709-.406-1.288-.406-.438 0-.807.098-1.106.294a2.454 2.454 0 0 0-.728.784l-.672-.63c.196-.392.509-.723.938-.994.43-.28.971-.42 1.624-.42.878 0 1.559.215 2.044.644.486.429.728 1.027.728 1.792v3.976h.826v.98h-.63zm-3.22-.784c.28 0 .537-.033.77-.098a1.88 1.88 0 0 0 .602-.28c.168-.121.299-.261.392-.42a.997.997 0 0 0 .14-.518v-1.19h-1.484c-.644 0-1.115.093-1.414.28a.908.908 0 0 0-.434.812v.294c0 .355.126.63.378.826.262.196.612.294 1.05.294zm5.449.784v-7.224h1.12v1.33h.07c.13-.345.364-.653.7-.924.336-.271.798-.406 1.386-.406h.434v1.12h-.658c-.607 0-1.083.117-1.428.35-.336.224-.504.509-.504.854v4.9h-1.12zm10.336 0c-.42 0-.724-.112-.91-.336a1.69 1.69 0 0 1-.336-.84h-.07c-.159.448-.42.784-.784 1.008-.364.224-.798.336-1.302.336-.766 0-1.363-.196-1.792-.588-.42-.392-.63-.924-.63-1.596 0-.681.247-1.204.742-1.568.504-.364 1.283-.546 2.338-.546h1.428v-.714c0-.513-.14-.905-.42-1.176-.28-.271-.71-.406-1.288-.406-.439 0-.808.098-1.106.294-.29.196-.532.457-.728.784l-.672-.63c.196-.392.508-.723.938-.994.429-.28.97-.42 1.624-.42.877 0 1.558.215 2.044.644.485.429.728 1.027.728 1.792v3.976h.826v.98h-.63zm-3.22-.784c.28 0 .536-.033.77-.098a1.89 1.89 0 0 0 .602-.28c.168-.121.298-.261.392-.42.093-.159.14-.331.14-.518v-1.19h-1.484c-.644 0-1.116.093-1.414.28-.29.187-.434.457-.434.812v.294c0 .355.126.63.378.826.261.196.611.294 1.05.294zm11.487.952a3.26 3.26 0 0 1-1.33-.266 2.964 2.964 0 0 1-1.036-.756 3.776 3.776 0 0 1-.658-1.19 4.843 4.843 0 0 1-.238-1.568c0-.569.079-1.087.238-1.554.159-.467.378-.863.658-1.19a2.893 2.893 0 0 1 1.036-.77 3.26 3.26 0 0 1 1.33-.266c.485 0 .924.089 1.316.266.401.177.747.434 1.036.77.289.327.513.723.672 1.19.159.467.238.985.238 1.554 0 .579-.079 1.101-.238 1.568a3.636 3.636 0 0 1-.672 1.19 2.964 2.964 0 0 1-1.036.756 3.164 3.164 0 0 1-1.316.266zm0-.994c.607 0 1.101-.187 1.484-.56.383-.373.574-.943.574-1.708v-1.036c0-.765-.191-1.335-.574-1.708-.383-.373-.877-.56-1.484-.56s-1.101.187-1.484.56c-.383.373-.574.943-.574 1.708v1.036c0 .765.191 1.335.574 1.708.383.373.877.56 1.484.56zm11.1.994c-.504 0-.956-.089-1.358-.266a2.834 2.834 0 0 1-1.022-.756 3.55 3.55 0 0 1-.63-1.19 5.449 5.449 0 0 1-.21-1.568c0-.579.07-1.101.21-1.568.15-.467.36-.863.63-1.19.28-.327.621-.579 1.022-.756a3.334 3.334 0 0 1 1.358-.266c.719 0 1.293.159 1.722.476.439.308.766.714.98 1.218l-.938.476a1.694 1.694 0 0 0-.644-.868c-.298-.205-.672-.308-1.12-.308-.336 0-.63.056-.882.168a1.623 1.623 0 0 0-.63.448 1.812 1.812 0 0 0-.378.686 2.826 2.826 0 0 0-.126.868v1.232c0 .635.168 1.157.504 1.568.346.401.85.602 1.512.602.906 0 1.559-.42 1.96-1.26l.812.546a2.847 2.847 0 0 1-1.05 1.246c-.457.308-1.031.462-1.722.462zm7.001 0c-.485 0-.928-.089-1.33-.266a2.973 2.973 0 0 1-1.036-.756 3.776 3.776 0 0 1-.658-1.19 4.87 4.87 0 0 1-.238-1.568c0-.569.08-1.087.238-1.554.159-.467.378-.863.658-1.19.29-.336.635-.593 1.036-.77a3.264 3.264 0 0 1 1.33-.266c.486 0 .924.089 1.316.266.402.177.747.434 1.036.77.29.327.514.723.672 1.19.159.467.238.985.238 1.554 0 .579-.079 1.101-.238 1.568a3.6 3.6 0 0 1-.672 1.19 2.955 2.955 0 0 1-1.036.756 3.16 3.16 0 0 1-1.316.266zm0-.994c.607 0 1.102-.187 1.484-.56.383-.373.574-.943.574-1.708v-1.036c0-.765-.191-1.335-.574-1.708-.382-.373-.877-.56-1.484-.56-.606 0-1.101.187-1.484.56-.382.373-.574.943-.574 1.708v1.036c0 .765.192 1.335.574 1.708.383.373.878.56 1.484.56zm.112-7.364l-.728-.336 1.19-2.38 1.022.49-1.484 2.226zm9.612 7.014h-.056c-.438.896-1.143 1.344-2.114 1.344-.448 0-.854-.089-1.218-.266a2.71 2.71 0 0 1-.938-.756 3.64 3.64 0 0 1-.588-1.19 5.84 5.84 0 0 1-.196-1.568c0-.579.066-1.101.196-1.568a3.64 3.64 0 0 1 .588-1.19 2.71 2.71 0 0 1 .938-.756c.364-.177.77-.266 1.218-.266.504 0 .934.112 1.288.336.364.215.64.551.826 1.008h.056V97.64h1.12V108h-1.12v-1.176zm-1.862.336c.252 0 .49-.033.714-.098a1.88 1.88 0 0 0 .602-.28c.168-.131.299-.285.392-.462.103-.187.154-.397.154-.63v-2.688c0-.196-.051-.378-.154-.546a1.283 1.283 0 0 0-.392-.448 1.88 1.88 0 0 0-.602-.28 2.234 2.234 0 0 0-.714-.112c-.634 0-1.134.201-1.498.602-.364.392-.546.91-.546 1.554v1.232c0 .644.182 1.167.546 1.568.364.392.864.588 1.498.588zm5.923-8.078c-.242 0-.42-.056-.532-.168a.694.694 0 0 1-.154-.462v-.182a.64.64 0 0 1 .154-.448c.112-.121.29-.182.532-.182.243 0 .416.06.518.182a.605.605 0 0 1 .168.448v.182c0 .187-.056.34-.168.462-.102.112-.275.168-.518.168zm-.56 1.694h1.12V108h-1.12v-7.224zm9.59 8.022c0 .747-.294 1.293-.882 1.638-.578.355-1.451.532-2.618.532-1.129 0-1.941-.154-2.436-.462-.494-.308-.742-.747-.742-1.316 0-.392.103-.7.308-.924.206-.215.486-.373.84-.476v-.154c-.429-.205-.644-.541-.644-1.008 0-.364.117-.639.35-.826.234-.196.532-.341.896-.434v-.056a2.38 2.38 0 0 1-1.008-.882c-.233-.383-.35-.826-.35-1.33 0-.364.066-.7.196-1.008.131-.308.313-.569.546-.784a2.56 2.56 0 0 1 .854-.518 3.29 3.29 0 0 1 1.12-.182c.514 0 .971.093 1.372.28v-.126c0-.28.066-.509.196-.686.131-.187.346-.28.644-.28h1.078v.98h-1.372v.462c.262.224.462.495.602.812.15.308.224.658.224 1.05 0 .364-.065.7-.196 1.008-.13.308-.317.574-.56.798a2.482 2.482 0 0 1-.854.504 3.285 3.285 0 0 1-1.12.182c-.233 0-.466-.023-.7-.07a2.205 2.205 0 0 0-.658.294.576.576 0 0 0-.294.518c0 .215.103.359.308.434.206.075.472.112.798.112h1.54c.896 0 1.545.173 1.946.518.411.336.616.803.616 1.4zm-1.05.084a.85.85 0 0 0-.336-.7c-.214-.168-.602-.252-1.162-.252h-2.408c-.448.205-.672.532-.672.98 0 .317.117.588.35.812.243.224.649.336 1.218.336h1.036c.626 0 1.111-.098 1.456-.294.346-.196.518-.49.518-.882zm-2.506-4.186c.476 0 .854-.112 1.134-.336.28-.233.42-.588.42-1.064v-.392c0-.476-.14-.826-.42-1.05-.28-.233-.658-.35-1.134-.35-.476 0-.854.117-1.134.35-.28.224-.42.574-.42 1.05v.392c0 .476.14.831.42 1.064.28.224.658.336 1.134.336zm7.511 3.472a3.26 3.26 0 0 1-1.33-.266 2.964 2.964 0 0 1-1.036-.756 3.776 3.776 0 0 1-.658-1.19 4.843 4.843 0 0 1-.238-1.568c0-.569.079-1.087.238-1.554.159-.467.378-.863.658-1.19a2.893 2.893 0 0 1 1.036-.77 3.26 3.26 0 0 1 1.33-.266c.485 0 .924.089 1.316.266.401.177.747.434 1.036.77.289.327.513.723.672 1.19.159.467.238.985.238 1.554 0 .579-.079 1.101-.238 1.568a3.636 3.636 0 0 1-.672 1.19 2.964 2.964 0 0 1-1.036.756 3.164 3.164 0 0 1-1.316.266zm0-.994c.607 0 1.101-.187 1.484-.56.383-.373.574-.943.574-1.708v-1.036c0-.765-.191-1.335-.574-1.708-.383-.373-.877-.56-1.484-.56s-1.101.187-1.484.56c-.383.373-.574.943-.574 1.708v1.036c0 .765.191 1.335.574 1.708.383.373.877.56 1.484.56zm5.544-.812c.299 0 .514.079.644.238.14.149.21.345.21.588v.196c0 .383-.112.803-.336 1.26a3.697 3.697 0 0 1-.938 1.218h-.938c.28-.299.504-.583.672-.854.178-.261.304-.555.378-.882a.706.706 0 0 1-.42-.266.862.862 0 0 1-.126-.476v-.196c0-.243.066-.439.196-.588.14-.159.36-.238.658-.238zM35.184 124.824h-.055c-.44.896-1.144 1.344-2.114 1.344-.449 0-.855-.089-1.218-.266a2.703 2.703 0 0 1-.939-.756 3.64 3.64 0 0 1-.588-1.19 5.812 5.812 0 0 1-.195-1.568c0-.579.065-1.101.195-1.568a3.64 3.64 0 0 1 .588-1.19c.262-.327.575-.579.939-.756.363-.177.77-.266 1.217-.266.505 0 .934.112 1.288.336.364.215.64.551.827 1.008h.056v-4.312h1.12V126h-1.12v-1.176zm-1.861.336c.252 0 .49-.033.713-.098.234-.065.434-.159.602-.28.169-.131.3-.285.393-.462.102-.187.154-.397.154-.63v-2.688c0-.196-.052-.378-.154-.546a1.287 1.287 0 0 0-.392-.448 1.888 1.888 0 0 0-.603-.28 2.234 2.234 0 0 0-.714-.112c-.634 0-1.134.201-1.498.602-.364.392-.546.91-.546 1.554v1.232c0 .644.183 1.167.547 1.568.363.392.863.588 1.497.588zm8.079 1.008c-.495 0-.943-.089-1.344-.266a3 3 0 0 1-1.022-.756c-.28-.336-.5-.733-.658-1.19a5.129 5.129 0 0 1-.224-1.568c0-.569.074-1.087.224-1.554a3.57 3.57 0 0 1 .658-1.19c.289-.336.63-.593 1.022-.77.4-.177.849-.266 1.344-.266.485 0 .919.089 1.302.266.382.177.709.425.98.742.27.308.476.677.616 1.106.149.429.224.901.224 1.414v.532H39.33v.336c0 .308.046.597.14.868.102.261.242.49.42.686.186.196.41.35.672.462.27.112.574.168.91.168.457 0 .854-.107 1.19-.322a2.1 2.1 0 0 0 .798-.924l.798.574a2.819 2.819 0 0 1-1.092 1.204c-.495.299-1.083.448-1.764.448zm0-6.622c-.308 0-.588.056-.84.168a1.88 1.88 0 0 0-.658.448 2.354 2.354 0 0 0-.574 1.568v.098h3.99v-.154c0-.644-.178-1.157-.532-1.54-.346-.392-.808-.588-1.386-.588zm5.527-2.464c-.242 0-.42-.056-.532-.168a.69.69 0 0 1-.154-.462v-.182c0-.187.051-.336.154-.448.112-.121.29-.182.532-.182.243 0 .415.061.518.182a.605.605 0 0 1 .168.448v.182a.653.653 0 0 1-.168.462c-.103.112-.275.168-.518.168zm-.56 1.694h1.12V126h-1.12v-7.224zM48.973 126l2.674-3.64-2.562-3.584h1.316l1.834 2.688h.042l1.904-2.688h1.246l-2.548 3.5L55.483 126h-1.316l-1.876-2.828h-.042L50.22 126h-1.246zm13.242 0c-.42 0-.724-.112-.91-.336a1.7 1.7 0 0 1-.336-.84h-.07c-.159.448-.42.784-.784 1.008-.364.224-.798.336-1.302.336-.766 0-1.363-.196-1.792-.588-.42-.392-.63-.924-.63-1.596 0-.681.247-1.204.742-1.568.504-.364 1.283-.546 2.338-.546h1.428v-.714c0-.513-.14-.905-.42-1.176-.28-.271-.71-.406-1.288-.406-.439 0-.808.098-1.106.294a2.45 2.45 0 0 0-.728.784l-.672-.63c.196-.392.508-.723.938-.994.43-.28.97-.42 1.624-.42.877 0 1.559.215 2.044.644.485.429.728 1.027.728 1.792v3.976h.826v.98h-.63zm-3.22-.784c.28 0 .537-.033.77-.098.233-.065.434-.159.602-.28.168-.121.299-.261.392-.42.093-.159.14-.331.14-.518v-1.19h-1.484c-.644 0-1.115.093-1.414.28a.908.908 0 0 0-.434.812v.294c0 .355.126.63.378.826.261.196.611.294 1.05.294zm5.448.784v-7.224h1.12v1.176h.056c.178-.411.425-.737.742-.98.327-.243.761-.364 1.302-.364.747 0 1.335.243 1.764.728.44.476.658 1.153.658 2.03V126h-1.12v-4.438c0-1.297-.546-1.946-1.638-1.946-.224 0-.443.028-.658.084-.205.056-.392.14-.56.252a1.296 1.296 0 0 0-.406.434c-.093.168-.14.369-.14.602V126h-1.12zm12.577-1.176h-.056c-.438.896-1.143 1.344-2.114 1.344-.448 0-.854-.089-1.218-.266a2.704 2.704 0 0 1-.938-.756 3.64 3.64 0 0 1-.588-1.19 5.816 5.816 0 0 1-.196-1.568c0-.579.066-1.101.196-1.568a3.64 3.64 0 0 1 .588-1.19c.262-.327.574-.579.938-.756.364-.177.77-.266 1.218-.266.504 0 .934.112 1.288.336.364.215.64.551.826 1.008h.056v-4.312h1.12V126h-1.12v-1.176zm-1.862.336c.252 0 .49-.033.714-.098.234-.065.434-.159.602-.28.168-.131.3-.285.392-.462.103-.187.154-.397.154-.63v-2.688c0-.196-.05-.378-.154-.546a1.286 1.286 0 0 0-.392-.448 1.887 1.887 0 0 0-.602-.28 2.234 2.234 0 0 0-.714-.112c-.634 0-1.134.201-1.498.602-.364.392-.546.91-.546 1.554v1.232c0 .644.182 1.167.546 1.568.364.392.864.588 1.498.588zm8.093 1.008a3.26 3.26 0 0 1-1.33-.266 2.964 2.964 0 0 1-1.036-.756 3.77 3.77 0 0 1-.657-1.19 4.851 4.851 0 0 1-.238-1.568c0-.569.079-1.087.238-1.554.158-.467.378-.863.657-1.19.29-.336.635-.593 1.036-.77a3.26 3.26 0 0 1 1.33-.266c.486 0 .924.089 1.316.266.402.177.747.434 1.037.77.289.327.513.723.671 1.19.16.467.238.985.238 1.554 0 .579-.079 1.101-.238 1.568a3.625 3.625 0 0 1-.672 1.19c-.289.327-.634.579-1.035.756-.392.177-.831.266-1.317.266zm0-.994c.607 0 1.102-.187 1.484-.56.383-.373.575-.943.575-1.708v-1.036c0-.765-.192-1.335-.575-1.708-.382-.373-.877-.56-1.484-.56-.606 0-1.1.187-1.484.56-.382.373-.573.943-.573 1.708v1.036c0 .765.19 1.335.573 1.708.383.373.878.56 1.484.56zm8.413.826v-7.224h1.12v1.176h.056c.084-.187.177-.359.28-.518.112-.168.243-.313.392-.434.159-.121.34-.215.546-.28.205-.075.448-.112.728-.112.476 0 .915.117 1.316.35.401.224.7.597.896 1.12h.028a2.21 2.21 0 0 1 .728-1.022c.364-.299.854-.448 1.47-.448.737 0 1.311.243 1.722.728.42.476.63 1.153.63 2.03V126h-1.12v-4.438c0-.644-.126-1.129-.378-1.456-.252-.327-.653-.49-1.204-.49-.224 0-.439.028-.644.084-.196.056-.373.14-.532.252a1.217 1.217 0 0 0-.378.434c-.093.168-.14.369-.14.602V126h-1.12v-4.438c0-.644-.126-1.129-.378-1.456-.252-.327-.644-.49-1.176-.49-.224 0-.439.028-.644.084-.205.056-.387.14-.546.252-.159.112-.29.257-.392.434-.093.168-.14.369-.14.602V126h-1.12zm17.473 0c-.42 0-.724-.112-.91-.336a1.69 1.69 0 0 1-.336-.84h-.07c-.159.448-.42.784-.784 1.008-.364.224-.798.336-1.302.336-.766 0-1.363-.196-1.792-.588-.42-.392-.63-.924-.63-1.596 0-.681.247-1.204.742-1.568.504-.364 1.283-.546 2.338-.546h1.428v-.714c0-.513-.14-.905-.42-1.176-.28-.271-.71-.406-1.288-.406-.439 0-.808.098-1.106.294-.29.196-.532.457-.728.784l-.672-.63c.196-.392.508-.723.938-.994.429-.28.97-.42 1.624-.42.877 0 1.558.215 2.044.644.485.429.728 1.027.728 1.792v3.976h.826v.98h-.63zm-3.22-.784c.28 0 .536-.033.77-.098a1.89 1.89 0 0 0 .602-.28c.168-.121.298-.261.392-.42.093-.159.14-.331.14-.518v-1.19h-1.484c-.644 0-1.116.093-1.414.28-.29.187-.434.457-.434.812v.294c0 .355.126.63.378.826.261.196.611.294 1.05.294zm6.008-8.134c-.242 0-.42-.056-.532-.168a.693.693 0 0 1-.154-.462v-.182a.64.64 0 0 1 .154-.448c.112-.121.29-.182.532-.182.243 0 .416.061.518.182a.605.605 0 0 1 .168.448v.182a.653.653 0 0 1-.168.462c-.102.112-.275.168-.518.168zm-.56 1.694h1.12V126h-1.12v-7.224zm5.67 7.392c-.672 0-1.236-.126-1.694-.378a3.961 3.961 0 0 1-1.162-1.036l.798-.644c.28.355.593.63.938.826.346.187.747.28 1.204.28.476 0 .845-.103 1.106-.308.271-.205.406-.495.406-.868a.996.996 0 0 0-.28-.714c-.177-.205-.504-.345-.98-.42l-.574-.084a5.23 5.23 0 0 1-.924-.21 2.951 2.951 0 0 1-.742-.392 1.87 1.87 0 0 1-.49-.616 2.058 2.058 0 0 1-.168-.868c0-.355.066-.663.196-.924a1.89 1.89 0 0 1 .532-.672 2.35 2.35 0 0 1 .826-.392c.318-.093.658-.14 1.022-.14.588 0 1.078.103 1.47.308.402.205.752.49 1.05.854l-.742.672c-.158-.224-.392-.425-.7-.602-.308-.187-.695-.28-1.162-.28-.466 0-.821.103-1.064.308-.233.196-.35.467-.35.812 0 .355.117.611.35.77.243.159.588.275 1.036.35l.56.084c.803.121 1.372.355 1.708.7.336.336.504.779.504 1.33 0 .7-.238 1.251-.714 1.652s-1.129.602-1.96.602zm8.521-9.086c-.243 0-.42-.056-.532-.168a.688.688 0 0 1-.154-.462v-.182c0-.187.051-.336.154-.448.112-.121.289-.182.532-.182.243 0 .415.061.518.182a.605.605 0 0 1 .168.448v.182a.653.653 0 0 1-.168.462c-.103.112-.275.168-.518.168zm-.56 1.694h1.12V126h-1.12v-7.224zm3.5 7.224v-7.224h1.12v1.176h.056c.177-.411.425-.737.742-.98.327-.243.761-.364 1.302-.364.747 0 1.335.243 1.764.728.439.476.658 1.153.658 2.03V126h-1.12v-4.438c0-1.297-.546-1.946-1.638-1.946-.224 0-.443.028-.658.084a1.91 1.91 0 0 0-.56.252 1.299 1.299 0 0 0-.406.434c-.093.168-.14.369-.14.602V126h-1.12zm9.553 0c-.392 0-.691-.107-.896-.322-.196-.224-.294-.513-.294-.868v-5.054h-1.19v-.98h.672c.243 0 .406-.047.49-.14.093-.103.14-.275.14-.518v-1.344h1.008v2.002h1.582v.98h-1.582v5.264h1.47v.98h-1.4zm5.974.168c-.495 0-.943-.089-1.344-.266a2.996 2.996 0 0 1-1.022-.756c-.28-.336-.5-.733-.658-1.19a5.11 5.11 0 0 1-.224-1.568c0-.569.074-1.087.224-1.554a3.56 3.56 0 0 1 .658-1.19c.289-.336.63-.593 1.022-.77a3.294 3.294 0 0 1 1.344-.266c.485 0 .919.089 1.302.266.382.177.709.425.98.742.27.308.476.677.616 1.106.149.429.224.901.224 1.414v.532h-5.194v.336c0 .308.046.597.14.868.102.261.242.49.42.686.186.196.41.35.672.462.27.112.574.168.91.168.457 0 .854-.107 1.19-.322.345-.215.611-.523.798-.924l.798.574a2.827 2.827 0 0 1-1.092 1.204c-.495.299-1.083.448-1.764.448zm0-6.622c-.308 0-.588.056-.84.168a1.874 1.874 0 0 0-.658.448 2.16 2.16 0 0 0-.42.7 2.348 2.348 0 0 0-.154.868v.098h3.99v-.154c0-.644-.178-1.157-.532-1.54-.346-.392-.808-.588-1.386-.588zM148.99 126v-7.224h1.12v1.33h.07c.131-.345.364-.653.7-.924.336-.271.798-.406 1.386-.406h.434v1.12h-.658c-.606 0-1.082.117-1.428.35-.336.224-.504.509-.504.854v4.9h-1.12zm10.336 0c-.42 0-.723-.112-.91-.336a1.708 1.708 0 0 1-.336-.84h-.07c-.158.448-.42.784-.784 1.008-.364.224-.798.336-1.302.336-.765 0-1.362-.196-1.792-.588-.42-.392-.63-.924-.63-1.596 0-.681.248-1.204.742-1.568.504-.364 1.284-.546 2.338-.546h1.428v-.714c0-.513-.14-.905-.42-1.176-.28-.271-.709-.406-1.288-.406-.438 0-.807.098-1.106.294a2.454 2.454 0 0 0-.728.784l-.672-.63c.196-.392.509-.723.938-.994.43-.28.971-.42 1.624-.42.878 0 1.559.215 2.044.644.486.429.728 1.027.728 1.792v3.976h.826v.98h-.63zm-3.22-.784c.28 0 .537-.033.77-.098a1.88 1.88 0 0 0 .602-.28c.168-.121.299-.261.392-.42a.997.997 0 0 0 .14-.518v-1.19h-1.484c-.644 0-1.115.093-1.414.28a.908.908 0 0 0-.434.812v.294c0 .355.126.63.378.826.262.196.612.294 1.05.294zm7.045.784c-.392 0-.691-.107-.896-.322-.196-.224-.294-.513-.294-.868v-5.054h-1.19v-.98h.672c.242 0 .406-.047.49-.14.093-.103.14-.275.14-.518v-1.344h1.008v2.002h1.582v.98h-1.582v5.264h1.47v.98h-1.4zm3.872-8.918c-.243 0-.42-.056-.532-.168a.688.688 0 0 1-.154-.462v-.182c0-.187.051-.336.154-.448.112-.121.289-.182.532-.182.243 0 .415.061.518.182a.605.605 0 0 1 .168.448v.182a.653.653 0 0 1-.168.462c-.103.112-.275.168-.518.168zm-.56 1.694h1.12V126h-1.12v-7.224zm5.096 7.224l-2.534-7.224h1.12l1.26 3.584.784 2.464h.07l.784-2.464 1.288-3.584h1.078L172.861 126h-1.302zm7.915.168c-.485 0-.928-.089-1.33-.266a2.973 2.973 0 0 1-1.036-.756 3.776 3.776 0 0 1-.658-1.19 4.87 4.87 0 0 1-.238-1.568c0-.569.08-1.087.238-1.554.159-.467.378-.863.658-1.19.29-.336.635-.593 1.036-.77a3.264 3.264 0 0 1 1.33-.266c.486 0 .924.089 1.316.266.402.177.747.434 1.036.77.29.327.514.723.672 1.19.159.467.238.985.238 1.554 0 .579-.079 1.101-.238 1.568a3.6 3.6 0 0 1-.672 1.19 2.955 2.955 0 0 1-1.036.756 3.16 3.16 0 0 1-1.316.266zm0-.994c.607 0 1.102-.187 1.484-.56.383-.373.574-.943.574-1.708v-1.036c0-.765-.191-1.335-.574-1.708-.382-.373-.877-.56-1.484-.56-.606 0-1.101.187-1.484.56-.382.373-.574.943-.574 1.708v1.036c0 .765.192 1.335.574 1.708.383.373.878.56 1.484.56zm11.129.994c-.495 0-.943-.089-1.344-.266a2.996 2.996 0 0 1-1.022-.756c-.28-.336-.5-.733-.658-1.19a5.11 5.11 0 0 1-.224-1.568c0-.569.074-1.087.224-1.554a3.56 3.56 0 0 1 .658-1.19c.289-.336.63-.593 1.022-.77a3.294 3.294 0 0 1 1.344-.266c.485 0 .919.089 1.302.266.382.177.709.425.98.742.27.308.476.677.616 1.106.149.429.224.901.224 1.414v.532h-5.194v.336c0 .308.046.597.14.868.102.261.242.49.42.686.186.196.41.35.672.462.27.112.574.168.91.168.457 0 .854-.107 1.19-.322.345-.215.611-.523.798-.924l.798.574a2.827 2.827 0 0 1-1.092 1.204c-.495.299-1.083.448-1.764.448zm0-6.622c-.308 0-.588.056-.84.168a1.874 1.874 0 0 0-.658.448 2.16 2.16 0 0 0-.42.7 2.348 2.348 0 0 0-.154.868v.098h3.99v-.154c0-.644-.178-1.157-.532-1.54-.346-.392-.808-.588-1.386-.588zM34.141 144.168c-.504 0-.956-.089-1.358-.266a2.83 2.83 0 0 1-1.022-.756 3.525 3.525 0 0 1-.63-1.19 5.449 5.449 0 0 1-.21-1.568c0-.579.07-1.101.21-1.568.15-.467.36-.863.63-1.19a2.83 2.83 0 0 1 1.022-.756 3.332 3.332 0 0 1 1.358-.266c.719 0 1.293.159 1.722.476.439.308.766.714.98 1.218l-.938.476a1.7 1.7 0 0 0-.644-.868c-.299-.205-.672-.308-1.12-.308-.336 0-.63.056-.882.168a1.623 1.623 0 0 0-.63.448 1.812 1.812 0 0 0-.378.686 2.826 2.826 0 0 0-.126.868v1.232c0 .635.168 1.157.504 1.568.346.401.85.602 1.512.602.906 0 1.559-.42 1.96-1.26l.812.546a2.852 2.852 0 0 1-1.05 1.246c-.457.308-1.031.462-1.722.462zm7.001 0a3.26 3.26 0 0 1-1.33-.266 2.965 2.965 0 0 1-1.036-.756 3.77 3.77 0 0 1-.658-1.19 4.854 4.854 0 0 1-.238-1.568c0-.569.08-1.087.238-1.554.159-.467.378-.863.658-1.19.29-.336.635-.593 1.036-.77a3.26 3.26 0 0 1 1.33-.266c.485 0 .924.089 1.316.266.401.177.747.434 1.036.77.29.327.514.723.672 1.19.159.467.238.985.238 1.554 0 .579-.08 1.101-.238 1.568a3.621 3.621 0 0 1-.672 1.19c-.29.327-.635.579-1.036.756-.392.177-.83.266-1.316.266zm0-.994c.607 0 1.101-.187 1.484-.56.383-.373.574-.943.574-1.708v-1.036c0-.765-.191-1.335-.574-1.708-.383-.373-.877-.56-1.484-.56s-1.101.187-1.484.56c-.383.373-.574.943-.574 1.708v1.036c0 .765.191 1.335.574 1.708.383.373.877.56 1.484.56zm5.104.826v-7.224h1.12v1.176h.056c.084-.187.178-.359.28-.518.112-.168.243-.313.392-.434.159-.121.34-.215.546-.28.206-.075.448-.112.728-.112.476 0 .915.117 1.316.35.402.224.7.597.896 1.12h.028c.13-.392.373-.733.728-1.022.364-.299.854-.448 1.47-.448.738 0 1.312.243 1.722.728.42.476.63 1.153.63 2.03V144h-1.12v-4.438c0-.644-.126-1.129-.378-1.456-.252-.327-.653-.49-1.204-.49-.224 0-.439.028-.644.084-.196.056-.373.14-.532.252a1.22 1.22 0 0 0-.378.434c-.093.168-.14.369-.14.602V144h-1.12v-4.438c0-.644-.126-1.129-.378-1.456-.252-.327-.644-.49-1.176-.49-.224 0-.438.028-.644.084-.205.056-.387.14-.546.252-.159.112-.29.257-.392.434-.093.168-.14.369-.14.602V144h-1.12zm20.781 0c-.42 0-.723-.112-.91-.336a1.7 1.7 0 0 1-.336-.84h-.07c-.158.448-.42.784-.784 1.008-.364.224-.798.336-1.302.336-.765 0-1.362-.196-1.792-.588-.42-.392-.63-.924-.63-1.596 0-.681.248-1.204.742-1.568.504-.364 1.284-.546 2.338-.546h1.428v-.714c0-.513-.14-.905-.42-1.176-.28-.271-.709-.406-1.288-.406-.438 0-.807.098-1.106.294a2.45 2.45 0 0 0-.728.784l-.672-.63c.196-.392.509-.723.938-.994.43-.28.971-.42 1.624-.42.878 0 1.559.215 2.044.644.486.429.728 1.027.728 1.792v3.976h.826v.98h-.63zm-3.22-.784c.28 0 .537-.033.77-.098.234-.065.434-.159.602-.28.168-.121.299-.261.392-.42.094-.159.14-.331.14-.518v-1.19h-1.484c-.644 0-1.115.093-1.414.28a.908.908 0 0 0-.434.812v.294c0 .355.126.63.378.826.262.196.612.294 1.05.294zm8.757-6.44h1.12v1.176h.056c.187-.457.458-.793.813-1.008.364-.224.797-.336 1.302-.336.447 0 .853.089 1.218.266.364.177.672.429.924.756.26.327.457.723.588 1.19.14.467.21.989.21 1.568 0 .579-.07 1.101-.21 1.568-.131.467-.327.863-.588 1.19-.252.327-.56.579-.924.756-.364.177-.77.266-1.218.266-.98 0-1.685-.448-2.115-1.344h-.055v3.976h-1.12v-10.024zm2.983 6.384c.634 0 1.133-.196 1.498-.588.364-.401.546-.924.546-1.568v-1.232c0-.644-.182-1.162-.546-1.554-.365-.401-.864-.602-1.499-.602-.252 0-.494.037-.728.112-.224.065-.42.159-.587.28a1.432 1.432 0 0 0-.406.448c-.094.168-.14.35-.14.546v2.688c0 .233.046.443.14.63.102.177.237.331.406.462.168.121.364.215.588.28a2.7 2.7 0 0 0 .727.098zm7.869 1.008a3.26 3.26 0 0 1-1.33-.266 2.963 2.963 0 0 1-1.036-.756c-.28-.336-.5-.733-.658-1.19a4.851 4.851 0 0 1-.238-1.568c0-.569.079-1.087.238-1.554a3.57 3.57 0 0 1 .658-1.19c.289-.336.634-.593 1.036-.77a3.26 3.26 0 0 1 1.33-.266c.485 0 .924.089 1.316.266.4.177.746.434 1.036.77.289.327.513.723.672 1.19.158.467.238.985.238 1.554 0 .579-.08 1.101-.238 1.568a3.625 3.625 0 0 1-.672 1.19c-.29.327-.635.579-1.036.756-.392.177-.831.266-1.316.266zm0-.994c.606 0 1.1-.187 1.484-.56.382-.373.574-.943.574-1.708v-1.036c0-.765-.192-1.335-.574-1.708-.383-.373-.878-.56-1.484-.56-.607 0-1.102.187-1.484.56-.383.373-.574.943-.574 1.708v1.036c0 .765.19 1.335.574 1.708.382.373.877.56 1.484.56zm7.274.994c-.672 0-1.237-.126-1.694-.378a3.956 3.956 0 0 1-1.162-1.036l.798-.644c.28.355.592.63.938.826.345.187.746.28 1.204.28.476 0 .844-.103 1.106-.308.27-.205.406-.495.406-.868a.998.998 0 0 0-.28-.714c-.178-.205-.504-.345-.98-.42l-.574-.084a5.23 5.23 0 0 1-.924-.21 2.945 2.945 0 0 1-.742-.392 1.857 1.857 0 0 1-.49-.616 2.058 2.058 0 0 1-.168-.868c0-.355.065-.663.196-.924.13-.271.308-.495.532-.672.233-.177.508-.308.826-.392.317-.093.658-.14 1.022-.14.588 0 1.078.103 1.47.308.4.205.75.49 1.05.854l-.742.672c-.16-.224-.392-.425-.7-.602-.308-.187-.696-.28-1.162-.28-.467 0-.822.103-1.064.308-.234.196-.35.467-.35.812 0 .355.116.611.35.77.242.159.588.275 1.036.35l.56.084c.802.121 1.372.355 1.708.7.336.336.504.779.504 1.33 0 .7-.238 1.251-.714 1.652s-1.13.602-1.96.602zm6.74 0c-.672 0-1.237-.126-1.694-.378a3.958 3.958 0 0 1-1.162-1.036l.798-.644c.28.355.593.63.938.826.345.187.746.28 1.204.28.476 0 .845-.103 1.106-.308.27-.205.406-.495.406-.868a.997.997 0 0 0-.28-.714c-.177-.205-.504-.345-.98-.42l-.574-.084a5.23 5.23 0 0 1-.924-.21 2.946 2.946 0 0 1-.742-.392 1.858 1.858 0 0 1-.49-.616 2.058 2.058 0 0 1-.168-.868c0-.355.065-.663.196-.924.13-.271.308-.495.532-.672.233-.177.508-.308.826-.392.317-.093.658-.14 1.022-.14.588 0 1.078.103 1.47.308.401.205.751.49 1.05.854l-.742.672c-.159-.224-.392-.425-.7-.602-.308-.187-.696-.28-1.162-.28-.467 0-.822.103-1.064.308-.234.196-.35.467-.35.812 0 .355.117.611.35.77.242.159.588.275 1.036.35l.56.084c.803.121 1.372.355 1.708.7.336.336.504.779.504 1.33 0 .7-.238 1.251-.714 1.652s-1.13.602-1.96.602zm5.212-9.086c-.243 0-.42-.056-.532-.168a.688.688 0 0 1-.154-.462v-.182c0-.187.051-.336.154-.448.112-.121.289-.182.532-.182.243 0 .415.061.518.182a.605.605 0 0 1 .168.448v.182a.653.653 0 0 1-.168.462c-.103.112-.275.168-.518.168zm-.56 1.694h1.12V144h-1.12v-7.224zm3.5-3.136h1.12v4.312h.056c.187-.457.457-.793.812-1.008.364-.224.798-.336 1.302-.336.448 0 .854.089 1.218.266.364.177.672.429.924.756.261.327.457.723.588 1.19.14.467.21.989.21 1.568 0 .579-.07 1.101-.21 1.568a3.318 3.318 0 0 1-.588 1.19c-.252.327-.56.579-.924.756-.364.177-.77.266-1.218.266-.98 0-1.685-.448-2.114-1.344h-.056V144h-1.12v-10.36zm2.982 9.52c.635 0 1.134-.196 1.498-.588.364-.401.546-.924.546-1.568v-1.232c0-.644-.182-1.162-.546-1.554-.364-.401-.863-.602-1.498-.602-.252 0-.495.037-.728.112-.224.065-.42.159-.588.28a1.437 1.437 0 0 0-.406.448 1.11 1.11 0 0 0-.14.546v2.688c0 .233.047.443.14.63.103.177.238.331.406.462.168.121.364.215.588.28.233.065.476.098.728.098zm5.699-8.078c-.243 0-.42-.056-.532-.168a.688.688 0 0 1-.154-.462v-.182c0-.187.051-.336.154-.448.112-.121.289-.182.532-.182.243 0 .415.061.518.182a.605.605 0 0 1 .168.448v.182a.653.653 0 0 1-.168.462c-.103.112-.275.168-.518.168zm-.56 1.694h1.12V144h-1.12v-7.224zm4.69 7.224c-.392 0-.691-.107-.896-.322-.196-.224-.294-.504-.294-.84v-9.198h1.12v9.38h1.064v.98h-.994zm3.185-8.918c-.243 0-.42-.056-.532-.168a.688.688 0 0 1-.154-.462v-.182c0-.187.051-.336.154-.448.112-.121.289-.182.532-.182.242 0 .415.061.518.182a.605.605 0 0 1 .168.448v.182a.653.653 0 0 1-.168.462c-.103.112-.276.168-.518.168zm-.56 1.694h1.12V144h-1.12v-7.224zm8.12 6.048h-.056c-.439.896-1.144 1.344-2.114 1.344-.448 0-.854-.089-1.218-.266a2.7 2.7 0 0 1-.938-.756 3.64 3.64 0 0 1-.588-1.19 5.8 5.8 0 0 1-.196-1.568 5.8 5.8 0 0 1 .196-1.568 3.64 3.64 0 0 1 .588-1.19 2.7 2.7 0 0 1 .938-.756c.364-.177.77-.266 1.218-.266.504 0 .933.112 1.288.336.364.215.639.551.826 1.008h.056v-4.312h1.12V144h-1.12v-1.176zm-1.862.336c.252 0 .49-.033.714-.098a1.89 1.89 0 0 0 .602-.28c.168-.131.298-.285.392-.462.102-.187.154-.397.154-.63v-2.688c0-.196-.052-.378-.154-.546a1.293 1.293 0 0 0-.392-.448 1.89 1.89 0 0 0-.602-.28 2.234 2.234 0 0 0-.714-.112c-.635 0-1.134.201-1.498.602-.364.392-.546.91-.546 1.554v1.232c0 .644.182 1.167.546 1.568.364.392.863.588 1.498.588zm10.613.84c-.42 0-.724-.112-.91-.336a1.69 1.69 0 0 1-.336-.84h-.07c-.159.448-.42.784-.784 1.008-.364.224-.798.336-1.302.336-.766 0-1.363-.196-1.792-.588-.42-.392-.63-.924-.63-1.596 0-.681.247-1.204.742-1.568.504-.364 1.283-.546 2.338-.546h1.428v-.714c0-.513-.14-.905-.42-1.176-.28-.271-.71-.406-1.288-.406-.439 0-.808.098-1.106.294-.29.196-.532.457-.728.784l-.672-.63c.196-.392.508-.723.938-.994.429-.28.97-.42 1.624-.42.877 0 1.558.215 2.044.644.485.429.728 1.027.728 1.792v3.976h.826v.98h-.63zm-3.22-.784c.28 0 .536-.033.77-.098a1.89 1.89 0 0 0 .602-.28c.168-.121.298-.261.392-.42.093-.159.14-.331.14-.518v-1.19h-1.484c-.644 0-1.116.093-1.414.28-.29.187-.434.457-.434.812v.294c0 .355.126.63.378.826.261.196.611.294 1.05.294zm10.068-.392h-.056c-.438.896-1.143 1.344-2.114 1.344-.448 0-.854-.089-1.218-.266a2.71 2.71 0 0 1-.938-.756 3.64 3.64 0 0 1-.588-1.19 5.84 5.84 0 0 1-.196-1.568c0-.579.066-1.101.196-1.568a3.64 3.64 0 0 1 .588-1.19 2.71 2.71 0 0 1 .938-.756c.364-.177.77-.266 1.218-.266.504 0 .934.112 1.288.336.364.215.64.551.826 1.008h.056v-4.312h1.12V144h-1.12v-1.176zm-1.862.336c.252 0 .49-.033.714-.098a1.88 1.88 0 0 0 .602-.28c.168-.131.299-.285.392-.462.103-.187.154-.397.154-.63v-2.688c0-.196-.051-.378-.154-.546a1.283 1.283 0 0 0-.392-.448 1.88 1.88 0 0 0-.602-.28 2.234 2.234 0 0 0-.714-.112c-.634 0-1.134.201-1.498.602-.364.392-.546.91-.546 1.554v1.232c0 .644.182 1.167.546 1.568.364.392.864.588 1.498.588zm8.079 1.008a3.3 3.3 0 0 1-1.344-.266 3.006 3.006 0 0 1-1.022-.756 3.776 3.776 0 0 1-.658-1.19 5.141 5.141 0 0 1-.224-1.568c0-.569.075-1.087.224-1.554.159-.467.378-.863.658-1.19.29-.336.63-.593 1.022-.77a3.3 3.3 0 0 1 1.344-.266c.486 0 .92.089 1.302.266.383.177.71.425.98.742.271.308.476.677.616 1.106.15.429.224.901.224 1.414v.532h-5.194v.336c0 .308.047.597.14.868.103.261.243.49.42.686.187.196.411.35.672.462.271.112.574.168.91.168.458 0 .854-.107 1.19-.322.346-.215.612-.523.798-.924l.798.574a2.814 2.814 0 0 1-1.092 1.204c-.494.299-1.082.448-1.764.448zm0-6.622c-.308 0-.588.056-.84.168a1.883 1.883 0 0 0-.658.448 2.195 2.195 0 0 0-.42.7 2.369 2.369 0 0 0-.154.868v.098h3.99v-.154c0-.644-.177-1.157-.532-1.54-.345-.392-.807-.588-1.386-.588zm12.896 5.278h-.056c-.438.896-1.143 1.344-2.114 1.344-.448 0-.854-.089-1.218-.266a2.71 2.71 0 0 1-.938-.756 3.64 3.64 0 0 1-.588-1.19 5.84 5.84 0 0 1-.196-1.568c0-.579.066-1.101.196-1.568a3.64 3.64 0 0 1 .588-1.19 2.71 2.71 0 0 1 .938-.756c.364-.177.77-.266 1.218-.266.504 0 .934.112 1.288.336.364.215.64.551.826 1.008h.056v-4.312h1.12V144h-1.12v-1.176zm-1.862.336c.252 0 .49-.033.714-.098a1.88 1.88 0 0 0 .602-.28c.168-.131.299-.285.392-.462.103-.187.154-.397.154-.63v-2.688c0-.196-.051-.378-.154-.546a1.283 1.283 0 0 0-.392-.448 1.88 1.88 0 0 0-.602-.28 2.234 2.234 0 0 0-.714-.112c-.634 0-1.134.201-1.498.602-.364.392-.546.91-.546 1.554v1.232c0 .644.182 1.167.546 1.568.364.392.864.588 1.498.588zm8.08 1.008c-.495 0-.943-.089-1.344-.266a2.996 2.996 0 0 1-1.022-.756c-.28-.336-.5-.733-.658-1.19a5.11 5.11 0 0 1-.224-1.568c0-.569.074-1.087.224-1.554a3.56 3.56 0 0 1 .658-1.19c.289-.336.63-.593 1.022-.77a3.294 3.294 0 0 1 1.344-.266c.485 0 .919.089 1.302.266.382.177.709.425.98.742.27.308.476.677.616 1.106.149.429.224.901.224 1.414v.532h-5.194v.336c0 .308.046.597.14.868.102.261.242.49.42.686.186.196.41.35.672.462.27.112.574.168.91.168.457 0 .854-.107 1.19-.322.345-.215.611-.523.798-.924l.798.574a2.827 2.827 0 0 1-1.092 1.204c-.495.299-1.083.448-1.764.448zm0-6.622c-.308 0-.588.056-.84.168a1.874 1.874 0 0 0-.658.448 2.16 2.16 0 0 0-.42.7 2.348 2.348 0 0 0-.154.868v.098h3.99v-.154c0-.644-.178-1.157-.532-1.54-.346-.392-.808-.588-1.386-.588zm10.446 6.622c-.672 0-1.237-.126-1.694-.378a3.949 3.949 0 0 1-1.162-1.036l.798-.644c.28.355.592.63.938.826.345.187.746.28 1.204.28.476 0 .844-.103 1.106-.308.27-.205.406-.495.406-.868a1 1 0 0 0-.28-.714c-.178-.205-.504-.345-.98-.42l-.574-.084a5.23 5.23 0 0 1-.924-.21 2.934 2.934 0 0 1-.742-.392 1.845 1.845 0 0 1-.49-.616 2.058 2.058 0 0 1-.168-.868c0-.355.065-.663.196-.924.13-.271.308-.495.532-.672.233-.177.508-.308.826-.392.317-.093.658-.14 1.022-.14.588 0 1.078.103 1.47.308.401.205.751.49 1.05.854l-.742.672c-.159-.224-.392-.425-.7-.602-.308-.187-.696-.28-1.162-.28-.467 0-.822.103-1.064.308-.234.196-.35.467-.35.812 0 .355.116.611.35.77.242.159.588.275 1.036.35l.56.084c.802.121 1.372.355 1.708.7.336.336.504.779.504 1.33 0 .7-.238 1.251-.714 1.652s-1.13.602-1.96.602zm7.368 0c-.495 0-.943-.089-1.344-.266a2.996 2.996 0 0 1-1.022-.756 3.776 3.776 0 0 1-.658-1.19 5.141 5.141 0 0 1-.224-1.568c0-.569.075-1.087.224-1.554.159-.467.378-.863.658-1.19.289-.336.63-.593 1.022-.77a3.294 3.294 0 0 1 1.344-.266c.485 0 .919.089 1.302.266.383.177.709.425.98.742.271.308.476.677.616 1.106.149.429.224.901.224 1.414v.532h-5.194v.336c0 .308.047.597.14.868.103.261.243.49.42.686.187.196.411.35.672.462.271.112.574.168.91.168.457 0 .854-.107 1.19-.322.345-.215.611-.523.798-.924l.798.574a2.814 2.814 0 0 1-1.092 1.204c-.495.299-1.083.448-1.764.448zm0-6.622c-.308 0-.588.056-.84.168a1.883 1.883 0 0 0-.658.448 2.348 2.348 0 0 0-.574 1.568v.098h3.99v-.154c0-.644-.177-1.157-.532-1.54-.345-.392-.807-.588-1.386-.588zM192.85 144v-7.224h1.12v1.33h.07c.13-.345.364-.653.7-.924.336-.271.798-.406 1.386-.406h.434v1.12h-.658c-.607 0-1.083.117-1.428.35-.336.224-.504.509-.504.854v4.9h-1.12zm-140.807 7.64h1.12v4.312h.056c.177-.411.425-.737.742-.98.327-.243.76-.364 1.302-.364.747 0 1.335.243 1.764.728.439.476.658 1.153.658 2.03V162h-1.12v-4.438c0-1.297-.546-1.946-1.638-1.946-.224 0-.443.028-.658.084-.205.056-.392.14-.56.252a1.296 1.296 0 0 0-.406.434c-.093.168-.14.369-.14.602V162h-1.12v-10.36zm10.687 10.528a3.26 3.26 0 0 1-1.33-.266 2.965 2.965 0 0 1-1.036-.756 3.77 3.77 0 0 1-.658-1.19 4.854 4.854 0 0 1-.238-1.568c0-.569.08-1.087.238-1.554.159-.467.378-.863.658-1.19.29-.336.635-.593 1.036-.77a3.26 3.26 0 0 1 1.33-.266c.485 0 .924.089 1.316.266.401.177.747.434 1.036.77.29.327.513.723.672 1.19.159.467.238.985.238 1.554 0 .579-.08 1.101-.238 1.568a3.621 3.621 0 0 1-.672 1.19c-.29.327-.635.579-1.036.756-.392.177-.83.266-1.316.266zm0-.994c.607 0 1.101-.187 1.484-.56.383-.373.574-.943.574-1.708v-1.036c0-.765-.191-1.335-.574-1.708-.383-.373-.877-.56-1.484-.56s-1.101.187-1.484.56c-.383.373-.574.943-.574 1.708v1.036c0 .765.191 1.335.574 1.708.383.373.877.56 1.484.56zm7.274.994c-.672 0-1.237-.126-1.694-.378a3.958 3.958 0 0 1-1.162-1.036l.798-.644c.28.355.593.63.938.826.345.187.747.28 1.204.28.476 0 .845-.103 1.106-.308.27-.205.406-.495.406-.868a.997.997 0 0 0-.28-.714c-.177-.205-.504-.345-.98-.42l-.574-.084a5.23 5.23 0 0 1-.924-.21 2.946 2.946 0 0 1-.742-.392 1.858 1.858 0 0 1-.49-.616 2.058 2.058 0 0 1-.168-.868c0-.355.065-.663.196-.924.13-.271.308-.495.532-.672.233-.177.509-.308.826-.392.317-.093.658-.14 1.022-.14.588 0 1.078.103 1.47.308.401.205.751.49 1.05.854l-.742.672c-.159-.224-.392-.425-.7-.602-.308-.187-.695-.28-1.162-.28-.467 0-.821.103-1.064.308-.233.196-.35.467-.35.812 0 .355.117.611.35.77.243.159.588.275 1.036.35l.56.084c.803.121 1.372.355 1.708.7.336.336.504.779.504 1.33 0 .7-.238 1.251-.714 1.652s-1.13.602-1.96.602zm4.652-7.392h1.12v1.176h.056c.187-.457.458-.793.812-1.008.364-.224.798-.336 1.302-.336.448 0 .854.089 1.218.266.364.177.672.429.924.756.262.327.458.723.588 1.19.14.467.21.989.21 1.568 0 .579-.07 1.101-.21 1.568-.13.467-.326.863-.588 1.19-.252.327-.56.579-.924.756-.364.177-.77.266-1.218.266-.98 0-1.684-.448-2.114-1.344h-.056v3.976h-1.12v-10.024zm2.982 6.384c.635 0 1.134-.196 1.498-.588.364-.401.546-.924.546-1.568v-1.232c0-.644-.182-1.162-.546-1.554-.364-.401-.863-.602-1.498-.602-.252 0-.494.037-.728.112-.224.065-.42.159-.588.28a1.432 1.432 0 0 0-.406.448c-.093.168-.14.35-.14.546v2.688c0 .233.047.443.14.63.103.177.238.331.406.462.168.121.364.215.588.28a2.7 2.7 0 0 0 .728.098zm7.855 1.008c-.494 0-.942-.089-1.344-.266a3 3 0 0 1-1.022-.756c-.28-.336-.499-.733-.658-1.19a5.129 5.129 0 0 1-.224-1.568c0-.569.075-1.087.224-1.554a3.57 3.57 0 0 1 .658-1.19c.29-.336.63-.593 1.022-.77.402-.177.85-.266 1.344-.266.486 0 .92.089 1.302.266.383.177.71.425.98.742.271.308.476.677.616 1.106.15.429.224.901.224 1.414v.532h-5.194v.336c0 .308.047.597.14.868.103.261.243.49.42.686.187.196.411.35.672.462.271.112.574.168.91.168.458 0 .854-.107 1.19-.322a2.1 2.1 0 0 0 .798-.924l.798.574a2.819 2.819 0 0 1-1.092 1.204c-.494.299-1.082.448-1.764.448zm0-6.622c-.308 0-.588.056-.84.168a1.88 1.88 0 0 0-.658.448 2.354 2.354 0 0 0-.574 1.568v.098h3.99v-.154c0-.644-.177-1.157-.532-1.54-.345-.392-.807-.588-1.386-.588zm9.588 5.278h-.056c-.439.896-1.143 1.344-2.114 1.344-.448 0-.854-.089-1.218-.266a2.703 2.703 0 0 1-.938-.756 3.64 3.64 0 0 1-.588-1.19 5.812 5.812 0 0 1-.196-1.568c0-.579.065-1.101.196-1.568a3.64 3.64 0 0 1 .588-1.19c.261-.327.574-.579.938-.756.364-.177.77-.266 1.218-.266.504 0 .933.112 1.288.336.364.215.64.551.826 1.008h.056v-4.312h1.12V162h-1.12v-1.176zm-1.862.336c.252 0 .49-.033.714-.098.233-.065.434-.159.602-.28.168-.131.299-.285.392-.462.103-.187.154-.397.154-.63v-2.688c0-.196-.051-.378-.154-.546a1.287 1.287 0 0 0-.392-.448 1.888 1.888 0 0 0-.602-.28 2.234 2.234 0 0 0-.714-.112c-.635 0-1.134.201-1.498.602-.364.392-.546.91-.546 1.554v1.232c0 .644.182 1.167.546 1.568.364.392.863.588 1.498.588zm10.613.84c-.42 0-.723-.112-.91-.336a1.708 1.708 0 0 1-.336-.84h-.07c-.159.448-.42.784-.784 1.008-.364.224-.798.336-1.302.336-.765 0-1.363-.196-1.792-.588-.42-.392-.63-.924-.63-1.596 0-.681.247-1.204.742-1.568.504-.364 1.283-.546 2.338-.546h1.428v-.714c0-.513-.14-.905-.42-1.176-.28-.271-.709-.406-1.288-.406-.439 0-.807.098-1.106.294a2.45 2.45 0 0 0-.728.784l-.672-.63c.196-.392.509-.723.938-.994.43-.28.971-.42 1.624-.42.877 0 1.559.215 2.044.644.485.429.728 1.027.728 1.792v3.976h.826v.98h-.63zm-3.22-.784c.28 0 .537-.033.77-.098a1.89 1.89 0 0 0 .602-.28c.168-.121.299-.261.392-.42.093-.159.14-.331.14-.518v-1.19h-1.484c-.644 0-1.115.093-1.414.28a.908.908 0 0 0-.434.812v.294c0 .355.126.63.378.826.261.196.611.294 1.05.294zm10.069-.392h-.056c-.439.896-1.144 1.344-2.114 1.344-.448 0-.854-.089-1.218-.266a2.7 2.7 0 0 1-.938-.756 3.64 3.64 0 0 1-.588-1.19 5.8 5.8 0 0 1-.196-1.568 5.8 5.8 0 0 1 .196-1.568 3.64 3.64 0 0 1 .588-1.19 2.7 2.7 0 0 1 .938-.756c.364-.177.77-.266 1.218-.266.504 0 .933.112 1.288.336.364.215.639.551.826 1.008h.056v-4.312h1.12V162h-1.12v-1.176zm-1.862.336c.252 0 .49-.033.714-.098a1.89 1.89 0 0 0 .602-.28c.168-.131.298-.285.392-.462.102-.187.154-.397.154-.63v-2.688c0-.196-.052-.378-.154-.546a1.293 1.293 0 0 0-.392-.448 1.89 1.89 0 0 0-.602-.28 2.234 2.234 0 0 0-.714-.112c-.635 0-1.134.201-1.498.602-.364.392-.546.91-.546 1.554v1.232c0 .644.182 1.167.546 1.568.364.392.863.588 1.498.588zm8.093 1.008c-.486 0-.929-.089-1.33-.266a2.955 2.955 0 0 1-1.036-.756c-.28-.336-.5-.733-.658-1.19a4.843 4.843 0 0 1-.238-1.568c0-.569.079-1.087.238-1.554a3.56 3.56 0 0 1 .658-1.19 2.884 2.884 0 0 1 1.036-.77 3.257 3.257 0 0 1 1.33-.266c.485 0 .924.089 1.316.266.401.177.746.434 1.036.77.289.327.513.723.672 1.19.158.467.238.985.238 1.554a4.87 4.87 0 0 1-.238 1.568 3.636 3.636 0 0 1-.672 1.19c-.29.327-.635.579-1.036.756a3.164 3.164 0 0 1-1.316.266zm0-.994c.606 0 1.101-.187 1.484-.56.382-.373.574-.943.574-1.708v-1.036c0-.765-.192-1.335-.574-1.708-.383-.373-.878-.56-1.484-.56-.607 0-1.102.187-1.484.56-.383.373-.574.943-.574 1.708v1.036c0 .765.191 1.335.574 1.708.382.373.877.56 1.484.56zm8.412.826v-7.224h1.12v1.176h.056a2.41 2.41 0 0 1 .742-.98c.327-.243.761-.364 1.302-.364.747 0 1.335.243 1.764.728.439.476.658 1.153.658 2.03V162h-1.12v-4.438c0-1.297-.546-1.946-1.638-1.946-.224 0-.443.028-.658.084a1.91 1.91 0 0 0-.56.252 1.299 1.299 0 0 0-.406.434c-.093.168-.14.369-.14.602V162h-1.12zm13.207 0c-.42 0-.723-.112-.91-.336a1.708 1.708 0 0 1-.336-.84h-.07c-.158.448-.42.784-.784 1.008-.364.224-.798.336-1.302.336-.765 0-1.362-.196-1.792-.588-.42-.392-.63-.924-.63-1.596 0-.681.248-1.204.742-1.568.504-.364 1.284-.546 2.338-.546h1.428v-.714c0-.513-.14-.905-.42-1.176-.28-.271-.709-.406-1.288-.406-.438 0-.807.098-1.106.294a2.454 2.454 0 0 0-.728.784l-.672-.63c.196-.392.509-.723.938-.994.43-.28.971-.42 1.624-.42.878 0 1.559.215 2.044.644.486.429.728 1.027.728 1.792v3.976h.826v.98h-.63zm-3.22-.784c.28 0 .537-.033.77-.098a1.88 1.88 0 0 0 .602-.28c.168-.121.299-.261.392-.42a.997.997 0 0 0 .14-.518v-1.19h-1.484c-.644 0-1.115.093-1.414.28a.908.908 0 0 0-.434.812v.294c0 .355.126.63.378.826.262.196.612.294 1.05.294zm8.001-6.44h1.092l.77 3.122.77 3.164h.028l.882-3.164.91-3.122h.994l.938 3.122.896 3.164h.028l.742-3.164.784-3.122h1.05L151.278 162h-1.386l-1.008-3.472-.63-2.198h-.028l-.616 2.198-1.008 3.472h-1.358l-1.932-7.224zm14.15 7.392c-.495 0-.943-.089-1.344-.266a2.996 2.996 0 0 1-1.022-.756 3.776 3.776 0 0 1-.658-1.19 5.141 5.141 0 0 1-.224-1.568c0-.569.075-1.087.224-1.554.159-.467.378-.863.658-1.19.289-.336.63-.593 1.022-.77a3.294 3.294 0 0 1 1.344-.266c.485 0 .919.089 1.302.266.383.177.709.425.98.742.271.308.476.677.616 1.106.149.429.224.901.224 1.414v.532h-5.194v.336c0 .308.047.597.14.868.103.261.243.49.42.686.187.196.411.35.672.462.271.112.574.168.91.168.457 0 .854-.107 1.19-.322.345-.215.611-.523.798-.924l.798.574a2.814 2.814 0 0 1-1.092 1.204c-.495.299-1.083.448-1.764.448zm0-6.622c-.308 0-.588.056-.84.168a1.883 1.883 0 0 0-.658.448 2.348 2.348 0 0 0-.574 1.568v.098h3.99v-.154c0-.644-.177-1.157-.532-1.54-.345-.392-.807-.588-1.386-.588zm4.968-3.906h1.12v4.312h.056c.186-.457.457-.793.812-1.008.364-.224.798-.336 1.302-.336.448 0 .854.089 1.218.266.364.177.672.429.924.756.261.327.457.723.588 1.19.14.467.21.989.21 1.568 0 .579-.07 1.101-.21 1.568a3.318 3.318 0 0 1-.588 1.19c-.252.327-.56.579-.924.756-.364.177-.77.266-1.218.266-.98 0-1.685-.448-2.114-1.344h-.056V162h-1.12v-10.36zm2.982 9.52c.634 0 1.134-.196 1.498-.588.364-.401.546-.924.546-1.568v-1.232c0-.644-.182-1.162-.546-1.554-.364-.401-.864-.602-1.498-.602-.252 0-.495.037-.728.112-.224.065-.42.159-.588.28a1.425 1.425 0 0 0-.406.448c-.094.168-.14.35-.14.546v2.688c0 .233.046.443.14.63.102.177.238.331.406.462.168.121.364.215.588.28.233.065.476.098.728.098zm5.579-.798c.299 0 .514.079.644.238.14.149.21.345.21.588v.196c0 .383-.112.803-.336 1.26a3.697 3.697 0 0 1-.938 1.218h-.938c.28-.299.504-.583.672-.854.178-.261.304-.555.378-.882a.706.706 0 0 1-.42-.266.862.862 0 0 1-.126-.476v-.196c0-.243.066-.439.196-.588.14-.159.36-.238.658-.238zM42.523 180.168c-.672 0-1.236-.126-1.694-.378a3.958 3.958 0 0 1-1.162-1.036l.798-.644c.28.355.593.63.938.826.346.187.747.28 1.205.28.476 0 .844-.103 1.106-.308.27-.205.406-.495.406-.868a.997.997 0 0 0-.28-.714c-.178-.205-.505-.345-.98-.42l-.575-.084a5.23 5.23 0 0 1-.923-.21 2.946 2.946 0 0 1-.742-.392 1.86 1.86 0 0 1-.49-.616 2.058 2.058 0 0 1-.169-.868c0-.355.066-.663.197-.924.13-.271.307-.495.532-.672.233-.177.508-.308.826-.392.317-.093.657-.14 1.022-.14.588 0 1.078.103 1.47.308.4.205.75.49 1.05.854l-.742.672c-.16-.224-.393-.425-.7-.602-.309-.187-.696-.28-1.163-.28-.466 0-.82.103-1.064.308-.233.196-.35.467-.35.812 0 .355.117.611.35.77.243.159.588.275 1.036.35l.56.084c.803.121 1.373.355 1.709.7.335.336.503.779.503 1.33 0 .7-.238 1.251-.714 1.652-.475.401-1.129.602-1.96.602zm7.369 0c-.495 0-.943-.089-1.344-.266a3 3 0 0 1-1.022-.756 3.77 3.77 0 0 1-.658-1.19 5.132 5.132 0 0 1-.224-1.568c0-.569.075-1.087.224-1.554.158-.467.378-.863.658-1.19.29-.336.63-.593 1.022-.77.401-.177.85-.266 1.344-.266.485 0 .92.089 1.302.266.383.177.71.425.98.742.27.308.476.677.616 1.106.15.429.224.901.224 1.414v.532H47.82v.336c0 .308.047.597.14.868.102.261.242.49.42.686.186.196.41.35.672.462.27.112.574.168.91.168.457 0 .854-.107 1.19-.322a2.1 2.1 0 0 0 .798-.924l.798.574a2.818 2.818 0 0 1-1.092 1.204c-.495.299-1.083.448-1.764.448zm0-6.622c-.308 0-.588.056-.84.168a1.88 1.88 0 0 0-.658.448 2.354 2.354 0 0 0-.574 1.568v.098h3.99v-.154c0-.644-.178-1.157-.532-1.54-.346-.392-.807-.588-1.386-.588zm11.057 7.252c0 .747-.294 1.293-.882 1.638-.578.355-1.45.532-2.618.532-1.129 0-1.94-.154-2.436-.462-.494-.308-.742-.747-.742-1.316 0-.392.103-.7.308-.924.206-.215.486-.373.84-.476v-.154c-.429-.205-.644-.541-.644-1.008 0-.364.117-.639.35-.826.234-.196.532-.341.896-.434v-.056a2.376 2.376 0 0 1-1.008-.882c-.233-.383-.35-.826-.35-1.33 0-.364.066-.7.196-1.008a2.24 2.24 0 0 1 .546-.784 2.55 2.55 0 0 1 .854-.518c.336-.121.71-.182 1.12-.182.514 0 .971.093 1.372.28v-.126c0-.28.066-.509.196-.686.131-.187.346-.28.644-.28h1.078v.98h-1.372v.462c.262.224.462.495.602.812.15.308.224.658.224 1.05 0 .364-.065.7-.196 1.008a2.29 2.29 0 0 1-.56.798 2.484 2.484 0 0 1-.854.504c-.336.121-.709.182-1.12.182-.233 0-.466-.023-.7-.07a2.197 2.197 0 0 0-.658.294.576.576 0 0 0-.294.518c0 .215.103.359.308.434.206.075.472.112.798.112h1.54c.896 0 1.545.173 1.946.518.411.336.616.803.616 1.4zm-1.05.084a.85.85 0 0 0-.336-.7c-.214-.168-.602-.252-1.162-.252h-2.408c-.448.205-.672.532-.672.98 0 .317.117.588.35.812.243.224.65.336 1.218.336h1.036c.626 0 1.111-.098 1.456-.294.346-.196.518-.49.518-.882zm-2.506-4.186c.476 0 .854-.112 1.134-.336.28-.233.42-.588.42-1.064v-.392c0-.476-.14-.826-.42-1.05-.28-.233-.658-.35-1.134-.35-.476 0-.854.117-1.134.35-.28.224-.42.574-.42 1.05v.392c0 .476.14.831.42 1.064.28.224.658.336 1.134.336zm9.26 2.128h-.056a3.403 3.403 0 0 1-.28.504 1.9 1.9 0 0 1-.392.434 1.97 1.97 0 0 1-.574.294 2.472 2.472 0 0 1-.784.112c-.746 0-1.34-.238-1.778-.714-.439-.485-.658-1.167-.658-2.044v-4.634h1.12v4.438c0 1.297.55 1.946 1.652 1.946.224 0 .439-.028.644-.084a1.71 1.71 0 0 0 .56-.252 1.203 1.203 0 0 0 .546-1.05v-4.998h1.12V180h-1.12v-1.176zm4.065-7.742c-.242 0-.42-.056-.532-.168a.69.69 0 0 1-.154-.462v-.182c0-.187.052-.336.154-.448.112-.121.29-.182.532-.182.243 0 .416.061.518.182a.605.605 0 0 1 .168.448v.182a.653.653 0 0 1-.168.462c-.102.112-.275.168-.518.168zm-.56 1.694h1.12V180h-1.12v-7.224zm3.5 7.224v-7.224h1.12v1.176h.056c.178-.411.425-.737.742-.98.327-.243.76-.364 1.302-.364.747 0 1.335.243 1.764.728.439.476.658 1.153.658 2.03V180h-1.12v-4.438c0-1.297-.546-1.946-1.638-1.946-.224 0-.443.028-.658.084-.205.056-.392.14-.56.252a1.296 1.296 0 0 0-.406.434c-.093.168-.14.369-.14.602V180h-1.12zm12.577-1.176h-.056c-.438.896-1.143 1.344-2.114 1.344-.448 0-.854-.089-1.218-.266a2.703 2.703 0 0 1-.938-.756 3.64 3.64 0 0 1-.588-1.19 5.812 5.812 0 0 1-.196-1.568c0-.579.066-1.101.196-1.568a3.64 3.64 0 0 1 .588-1.19c.262-.327.574-.579.938-.756.364-.177.77-.266 1.218-.266.504 0 .934.112 1.288.336.364.215.64.551.826 1.008h.056v-4.312h1.12V180h-1.12v-1.176zm-1.862.336c.252 0 .49-.033.714-.098.234-.065.434-.159.602-.28.168-.131.299-.285.392-.462.103-.187.154-.397.154-.63v-2.688c0-.196-.051-.378-.154-.546a1.287 1.287 0 0 0-.392-.448 1.888 1.888 0 0 0-.602-.28 2.234 2.234 0 0 0-.714-.112c-.634 0-1.134.201-1.498.602-.364.392-.546.91-.546 1.554v1.232c0 .644.182 1.167.546 1.568.364.392.864.588 1.498.588zm8.093 1.008a3.26 3.26 0 0 1-1.33-.266 2.963 2.963 0 0 1-1.036-.756c-.28-.336-.499-.733-.658-1.19a4.851 4.851 0 0 1-.238-1.568c0-.569.08-1.087.238-1.554a3.57 3.57 0 0 1 .658-1.19c.29-.336.635-.593 1.036-.77a3.26 3.26 0 0 1 1.33-.266c.486 0 .924.089 1.316.266.402.177.747.434 1.036.77.29.327.514.723.672 1.19.159.467.238.985.238 1.554 0 .579-.079 1.101-.238 1.568a3.625 3.625 0 0 1-.672 1.19c-.289.327-.634.579-1.036.756-.392.177-.83.266-1.316.266zm0-.994c.607 0 1.102-.187 1.484-.56.383-.373.574-.943.574-1.708v-1.036c0-.765-.191-1.335-.574-1.708-.382-.373-.877-.56-1.484-.56-.606 0-1.101.187-1.484.56-.382.373-.574.943-.574 1.708v1.036c0 .765.192 1.335.574 1.708.383.373.878.56 1.484.56zm11.143.994a3.26 3.26 0 0 1-1.33-.266 2.964 2.964 0 0 1-1.036-.756 3.776 3.776 0 0 1-.658-1.19 4.843 4.843 0 0 1-.238-1.568c0-.569.079-1.087.238-1.554.159-.467.378-.863.658-1.19a2.893 2.893 0 0 1 1.036-.77 3.26 3.26 0 0 1 1.33-.266c.485 0 .924.089 1.316.266.401.177.747.434 1.036.77.289.327.513.723.672 1.19.159.467.238.985.238 1.554 0 .579-.079 1.101-.238 1.568a3.636 3.636 0 0 1-.672 1.19 2.964 2.964 0 0 1-1.036.756 3.164 3.164 0 0 1-1.316.266zm0-.994c.607 0 1.101-.187 1.484-.56.383-.373.574-.943.574-1.708v-1.036c0-.765-.191-1.335-.574-1.708-.383-.373-.877-.56-1.484-.56s-1.101.187-1.484.56c-.383.373-.574.943-.574 1.708v1.036c0 .765.191 1.335.574 1.708.383.373.877.56 1.484.56zm7.274.994c-.672 0-1.237-.126-1.694-.378a3.961 3.961 0 0 1-1.162-1.036l.798-.644c.28.355.593.63.938.826.345.187.747.28 1.204.28.476 0 .845-.103 1.106-.308.271-.205.406-.495.406-.868a.996.996 0 0 0-.28-.714c-.177-.205-.504-.345-.98-.42l-.574-.084a5.23 5.23 0 0 1-.924-.21 2.951 2.951 0 0 1-.742-.392 1.858 1.858 0 0 1-.49-.616 2.058 2.058 0 0 1-.168-.868c0-.355.065-.663.196-.924a1.89 1.89 0 0 1 .532-.672c.233-.177.509-.308.826-.392.317-.093.658-.14 1.022-.14.588 0 1.078.103 1.47.308.401.205.751.49 1.05.854l-.742.672c-.159-.224-.392-.425-.7-.602-.308-.187-.695-.28-1.162-.28-.467 0-.821.103-1.064.308-.233.196-.35.467-.35.812 0 .355.117.611.35.77.243.159.588.275 1.036.35l.56.084c.803.121 1.372.355 1.708.7.336.336.504.779.504 1.33 0 .7-.238 1.251-.714 1.652s-1.129.602-1.96.602zm7.961-7.392h1.12v1.176h.056c.186-.457.457-.793.812-1.008.364-.224.798-.336 1.302-.336.448 0 .854.089 1.218.266.364.177.672.429.924.756.261.327.457.723.588 1.19.14.467.21.989.21 1.568 0 .579-.07 1.101-.21 1.568a3.318 3.318 0 0 1-.588 1.19c-.252.327-.56.579-.924.756-.364.177-.77.266-1.218.266-.98 0-1.685-.448-2.114-1.344h-.056v3.976h-1.12v-10.024zm2.982 6.384c.634 0 1.134-.196 1.498-.588.364-.401.546-.924.546-1.568v-1.232c0-.644-.182-1.162-.546-1.554-.364-.401-.864-.602-1.498-.602-.252 0-.495.037-.728.112-.224.065-.42.159-.588.28a1.425 1.425 0 0 0-.406.448c-.094.168-.14.35-.14.546v2.688c0 .233.046.443.14.63.102.177.238.331.406.462.168.121.364.215.588.28.233.065.476.098.728.098zm10.389.84c-.42 0-.723-.112-.91-.336a1.708 1.708 0 0 1-.336-.84h-.07c-.159.448-.42.784-.784 1.008-.364.224-.798.336-1.302.336-.765 0-1.363-.196-1.792-.588-.42-.392-.63-.924-.63-1.596 0-.681.247-1.204.742-1.568.504-.364 1.283-.546 2.338-.546h1.428v-.714c0-.513-.14-.905-.42-1.176-.28-.271-.709-.406-1.288-.406-.439 0-.807.098-1.106.294a2.454 2.454 0 0 0-.728.784l-.672-.63c.196-.392.509-.723.938-.994.429-.28.971-.42 1.624-.42.877 0 1.559.215 2.044.644.485.429.728 1.027.728 1.792v3.976h.826v.98h-.63zm-3.22-.784c.28 0 .537-.033.77-.098a1.89 1.89 0 0 0 .602-.28c.168-.121.299-.261.392-.42.093-.159.14-.331.14-.518v-1.19h-1.484c-.644 0-1.115.093-1.414.28a.908.908 0 0 0-.434.812v.294c0 .355.126.63.378.826.261.196.611.294 1.05.294zm10.068-.392h-.056c-.438.896-1.143 1.344-2.114 1.344-.448 0-.854-.089-1.218-.266a2.71 2.71 0 0 1-.938-.756 3.64 3.64 0 0 1-.588-1.19 5.84 5.84 0 0 1-.196-1.568c0-.579.066-1.101.196-1.568a3.64 3.64 0 0 1 .588-1.19 2.71 2.71 0 0 1 .938-.756c.364-.177.77-.266 1.218-.266.504 0 .934.112 1.288.336.364.215.64.551.826 1.008h.056v-4.312h1.12V180h-1.12v-1.176zm-1.862.336c.252 0 .49-.033.714-.098a1.88 1.88 0 0 0 .602-.28c.168-.131.299-.285.392-.462.103-.187.154-.397.154-.63v-2.688c0-.196-.051-.378-.154-.546a1.283 1.283 0 0 0-.392-.448 1.88 1.88 0 0 0-.602-.28 2.234 2.234 0 0 0-.714-.112c-.634 0-1.134.201-1.498.602-.364.392-.546.91-.546 1.554v1.232c0 .644.182 1.167.546 1.568.364.392.864.588 1.498.588zm5.363.84v-7.224h1.12v1.33h.07c.131-.345.364-.653.7-.924.336-.271.798-.406 1.386-.406h.434v1.12h-.658c-.606 0-1.082.117-1.428.35-.336.224-.504.509-.504.854v4.9h-1.12zm7.803.168c-.486 0-.929-.089-1.33-.266a2.955 2.955 0 0 1-1.036-.756c-.28-.336-.5-.733-.658-1.19a4.843 4.843 0 0 1-.238-1.568c0-.569.079-1.087.238-1.554a3.56 3.56 0 0 1 .658-1.19 2.884 2.884 0 0 1 1.036-.77 3.257 3.257 0 0 1 1.33-.266c.485 0 .924.089 1.316.266.401.177.746.434 1.036.77.289.327.513.723.672 1.19.158.467.238.985.238 1.554a4.87 4.87 0 0 1-.238 1.568 3.636 3.636 0 0 1-.672 1.19c-.29.327-.635.579-1.036.756a3.164 3.164 0 0 1-1.316.266zm0-.994c.606 0 1.101-.187 1.484-.56.382-.373.574-.943.574-1.708v-1.036c0-.765-.192-1.335-.574-1.708-.383-.373-.878-.56-1.484-.56-.607 0-1.102.187-1.484.56-.383.373-.574.943-.574 1.708v1.036c0 .765.191 1.335.574 1.708.382.373.877.56 1.484.56zm1.036-7.742c-.243 0-.453-.042-.63-.126a21.586 21.586 0 0 1-.49-.238 3.148 3.148 0 0 0-.574-.252 1.173 1.173 0 0 0-.406-.084.874.874 0 0 0-.42.098 2.198 2.198 0 0 0-.392.28l-.462-.56c.13-.187.303-.355.518-.504.214-.159.485-.238.812-.238.242 0 .452.042.63.126.177.084.34.163.49.238.224.121.41.21.56.266.158.047.298.07.42.07a.88.88 0 0 0 .42-.098c.121-.065.252-.159.392-.28l.462.56a2.29 2.29 0 0 1-.518.518c-.215.149-.486.224-.812.224zm6.784 8.736c-.495 0-.943-.089-1.344-.266a2.996 2.996 0 0 1-1.022-.756c-.28-.336-.5-.733-.658-1.19a5.11 5.11 0 0 1-.224-1.568c0-.569.074-1.087.224-1.554a3.56 3.56 0 0 1 .658-1.19c.289-.336.63-.593 1.022-.77a3.294 3.294 0 0 1 1.344-.266c.485 0 .919.089 1.302.266.382.177.709.425.98.742.27.308.476.677.616 1.106.149.429.224.901.224 1.414v.532h-5.194v.336c0 .308.046.597.14.868.102.261.242.49.42.686.186.196.41.35.672.462.27.112.574.168.91.168.457 0 .854-.107 1.19-.322.345-.215.611-.523.798-.924l.798.574a2.827 2.827 0 0 1-1.092 1.204c-.495.299-1.083.448-1.764.448zm0-6.622c-.308 0-.588.056-.84.168a1.874 1.874 0 0 0-.658.448 2.16 2.16 0 0 0-.42.7 2.348 2.348 0 0 0-.154.868v.098h3.99v-.154c0-.644-.178-1.157-.532-1.54-.346-.392-.808-.588-1.386-.588zm7.137 6.622c-.672 0-1.236-.126-1.694-.378a3.961 3.961 0 0 1-1.162-1.036l.798-.644c.28.355.593.63.938.826.346.187.747.28 1.204.28.476 0 .845-.103 1.106-.308.271-.205.406-.495.406-.868a.996.996 0 0 0-.28-.714c-.177-.205-.504-.345-.98-.42l-.574-.084a5.23 5.23 0 0 1-.924-.21 2.951 2.951 0 0 1-.742-.392 1.87 1.87 0 0 1-.49-.616 2.058 2.058 0 0 1-.168-.868c0-.355.066-.663.196-.924a1.89 1.89 0 0 1 .532-.672 2.35 2.35 0 0 1 .826-.392c.318-.093.658-.14 1.022-.14.588 0 1.078.103 1.47.308.402.205.752.49 1.05.854l-.742.672c-.158-.224-.392-.425-.7-.602-.308-.187-.695-.28-1.162-.28-.466 0-.821.103-1.064.308-.233.196-.35.467-.35.812 0 .355.117.611.35.77.243.159.588.275 1.036.35l.56.084c.803.121 1.372.355 1.708.7.336.336.504.779.504 1.33 0 .7-.238 1.251-.714 1.652s-1.129.602-1.96.602zm12.581-1.344h-.056c-.438.896-1.143 1.344-2.114 1.344-.448 0-.854-.089-1.218-.266a2.71 2.71 0 0 1-.938-.756 3.64 3.64 0 0 1-.588-1.19 5.84 5.84 0 0 1-.196-1.568c0-.579.066-1.101.196-1.568a3.64 3.64 0 0 1 .588-1.19 2.71 2.71 0 0 1 .938-.756c.364-.177.77-.266 1.218-.266.504 0 .934.112 1.288.336.364.215.64.551.826 1.008h.056v-4.312h1.12V180h-1.12v-1.176zm-1.862.336c.252 0 .49-.033.714-.098a1.88 1.88 0 0 0 .602-.28c.168-.131.299-.285.392-.462.103-.187.154-.397.154-.63v-2.688c0-.196-.051-.378-.154-.546a1.283 1.283 0 0 0-.392-.448 1.88 1.88 0 0 0-.602-.28 2.234 2.234 0 0 0-.714-.112c-.634 0-1.134.201-1.498.602-.364.392-.546.91-.546 1.554v1.232c0 .644.182 1.167.546 1.568.364.392.864.588 1.498.588zm8.079 1.008a3.3 3.3 0 0 1-1.344-.266 3.006 3.006 0 0 1-1.022-.756 3.776 3.776 0 0 1-.658-1.19 5.141 5.141 0 0 1-.224-1.568c0-.569.075-1.087.224-1.554.159-.467.378-.863.658-1.19.29-.336.63-.593 1.022-.77a3.3 3.3 0 0 1 1.344-.266c.486 0 .92.089 1.302.266.383.177.71.425.98.742.271.308.476.677.616 1.106.15.429.224.901.224 1.414v.532h-5.194v.336c0 .308.047.597.14.868.103.261.243.49.42.686.187.196.411.35.672.462.271.112.574.168.91.168.458 0 .854-.107 1.19-.322.346-.215.612-.523.798-.924l.798.574a2.814 2.814 0 0 1-1.092 1.204c-.494.299-1.082.448-1.764.448zm0-6.622c-.308 0-.588.056-.84.168a1.883 1.883 0 0 0-.658.448 2.195 2.195 0 0 0-.42.7 2.369 2.369 0 0 0-.154.868v.098h3.99v-.154c0-.644-.177-1.157-.532-1.54-.345-.392-.807-.588-1.386-.588zm-118.04 23.278h-.055c-.439.896-1.143 1.344-2.114 1.344-.448 0-.854-.089-1.218-.266a2.704 2.704 0 0 1-.938-.756 3.64 3.64 0 0 1-.588-1.19 5.816 5.816 0 0 1-.196-1.568c0-.579.065-1.101.196-1.568a3.64 3.64 0 0 1 .588-1.19c.261-.327.574-.579.938-.756.364-.177.77-.266 1.218-.266.504 0 .933.112 1.288.336.364.215.64.551.826 1.008h.056v-4.312h1.12V198h-1.12v-1.176zm-1.861.336c.252 0 .49-.033.714-.098.233-.065.434-.159.602-.28.168-.131.299-.285.392-.462.103-.187.154-.397.154-.63v-2.688c0-.196-.051-.378-.154-.546a1.286 1.286 0 0 0-.392-.448 1.887 1.887 0 0 0-.602-.28 2.234 2.234 0 0 0-.714-.112c-.635 0-1.134.201-1.498.602-.364.392-.546.91-.546 1.554v1.232c0 .644.182 1.167.546 1.568.364.392.863.588 1.498.588zm8.079 1.008c-.495 0-.943-.089-1.344-.266a3 3 0 0 1-1.022-.756 3.77 3.77 0 0 1-.658-1.19 5.132 5.132 0 0 1-.224-1.568c0-.569.075-1.087.224-1.554.159-.467.378-.863.658-1.19.29-.336.63-.593 1.022-.77.401-.177.85-.266 1.344-.266.485 0 .92.089 1.302.266.383.177.71.425.98.742.27.308.476.677.616 1.106.15.429.224.901.224 1.414v.532h-5.194v.336c0 .308.047.597.14.868.103.261.243.49.42.686.187.196.41.35.672.462.27.112.574.168.91.168.457 0 .854-.107 1.19-.322a2.1 2.1 0 0 0 .798-.924l.798.574a2.818 2.818 0 0 1-1.092 1.204c-.495.299-1.083.448-1.764.448zm0-6.622c-.308 0-.588.056-.84.168a1.88 1.88 0 0 0-.658.448 2.354 2.354 0 0 0-.574 1.568v.098h3.99v-.154c0-.644-.177-1.157-.532-1.54-.345-.392-.807-.588-1.386-.588zm7.138 6.622c-.672 0-1.237-.126-1.694-.378a3.958 3.958 0 0 1-1.162-1.036l.798-.644c.28.355.592.63.938.826.345.187.746.28 1.204.28.476 0 .844-.103 1.106-.308.27-.205.406-.495.406-.868a.997.997 0 0 0-.28-.714c-.178-.205-.504-.345-.98-.42l-.574-.084a5.23 5.23 0 0 1-.924-.21 2.946 2.946 0 0 1-.742-.392 1.858 1.858 0 0 1-.49-.616 2.058 2.058 0 0 1-.168-.868c0-.355.065-.663.196-.924.13-.271.308-.495.532-.672.233-.177.508-.308.826-.392.317-.093.658-.14 1.022-.14.588 0 1.078.103 1.47.308.4.205.75.49 1.05.854l-.742.672c-.16-.224-.392-.425-.7-.602-.308-.187-.696-.28-1.162-.28-.467 0-.822.103-1.064.308-.234.196-.35.467-.35.812 0 .355.116.611.35.77.242.159.588.275 1.036.35l.56.084c.802.121 1.372.355 1.708.7.336.336.504.779.504 1.33 0 .7-.238 1.251-.714 1.652s-1.13.602-1.96.602zm5.212-9.086c-.243 0-.42-.056-.532-.168a.69.69 0 0 1-.154-.462v-.182c0-.187.051-.336.154-.448.112-.121.29-.182.532-.182.242 0 .415.061.518.182a.605.605 0 0 1 .168.448v.182a.653.653 0 0 1-.168.462c-.103.112-.276.168-.518.168zm-.56 1.694h1.12V198h-1.12v-7.224zm9.59 8.022c0 .747-.294 1.293-.882 1.638-.579.355-1.451.532-2.618.532-1.13 0-1.942-.154-2.436-.462-.495-.308-.742-.747-.742-1.316 0-.392.103-.7.308-.924.205-.215.485-.373.84-.476v-.154c-.43-.205-.644-.541-.644-1.008 0-.364.117-.639.35-.826.233-.196.532-.341.896-.434v-.056a2.375 2.375 0 0 1-1.008-.882c-.234-.383-.35-.826-.35-1.33 0-.364.065-.7.196-1.008.13-.308.313-.569.546-.784a2.55 2.55 0 0 1 .854-.518c.336-.121.71-.182 1.12-.182.513 0 .97.093 1.372.28v-.126c0-.28.065-.509.196-.686.13-.187.345-.28.644-.28H93.4v.98h-1.372v.462c.261.224.462.495.602.812.15.308.224.658.224 1.05 0 .364-.066.7-.196 1.008-.13.308-.317.574-.56.798a2.485 2.485 0 0 1-.854.504c-.336.121-.71.182-1.12.182-.233 0-.467-.023-.7-.07a2.197 2.197 0 0 0-.658.294.576.576 0 0 0-.294.518c0 .215.103.359.308.434.205.075.471.112.798.112h1.54c.896 0 1.544.173 1.946.518.41.336.616.803.616 1.4zm-1.05.084a.85.85 0 0 0-.336-.7c-.215-.168-.602-.252-1.162-.252h-2.408c-.448.205-.672.532-.672.98 0 .317.116.588.35.812.242.224.648.336 1.218.336h1.036c.625 0 1.11-.098 1.456-.294.345-.196.518-.49.518-.882zm-2.506-4.186c.476 0 .854-.112 1.134-.336.28-.233.42-.588.42-1.064v-.392c0-.476-.14-.826-.42-1.05-.28-.233-.658-.35-1.134-.35-.476 0-.854.117-1.134.35-.28.224-.42.574-.42 1.05v.392c0 .476.14.831.42 1.064.28.224.658.336 1.134.336zM94.986 198v-7.224h1.12v1.176h.056c.178-.411.425-.737.742-.98.327-.243.761-.364 1.302-.364.747 0 1.335.243 1.764.728.439.476.658 1.153.658 2.03V198h-1.12v-4.438c0-1.297-.546-1.946-1.638-1.946-.224 0-.443.028-.658.084-.205.056-.392.14-.56.252a1.295 1.295 0 0 0-.406.434c-.093.168-.14.369-.14.602V198h-1.12zm15.886-1.176h-.056c-.439.896-1.143 1.344-2.114 1.344-.448 0-.854-.089-1.218-.266a2.7 2.7 0 0 1-.938-.756 3.64 3.64 0 0 1-.588-1.19 5.8 5.8 0 0 1-.196-1.568 5.8 5.8 0 0 1 .196-1.568 3.64 3.64 0 0 1 .588-1.19 2.7 2.7 0 0 1 .938-.756c.364-.177.77-.266 1.218-.266.504 0 .933.112 1.288.336.364.215.639.551.826 1.008h.056v-4.312h1.12V198h-1.12v-1.176zm-1.862.336c.252 0 .49-.033.714-.098a1.89 1.89 0 0 0 .602-.28c.168-.131.299-.285.392-.462.103-.187.154-.397.154-.63v-2.688c0-.196-.051-.378-.154-.546a1.283 1.283 0 0 0-.392-.448 1.89 1.89 0 0 0-.602-.28 2.234 2.234 0 0 0-.714-.112c-.635 0-1.134.201-1.498.602-.364.392-.546.91-.546 1.554v1.232c0 .644.182 1.167.546 1.568.364.392.863.588 1.498.588zm8.079 1.008c-.495 0-.943-.089-1.344-.266a2.996 2.996 0 0 1-1.022-.756 3.776 3.776 0 0 1-.658-1.19 5.141 5.141 0 0 1-.224-1.568c0-.569.075-1.087.224-1.554.159-.467.378-.863.658-1.19.289-.336.63-.593 1.022-.77a3.294 3.294 0 0 1 1.344-.266c.485 0 .919.089 1.302.266.383.177.709.425.98.742.271.308.476.677.616 1.106.149.429.224.901.224 1.414v.532h-5.194v.336c0 .308.047.597.14.868.103.261.243.49.42.686.187.196.411.35.672.462.271.112.574.168.91.168.457 0 .854-.107 1.19-.322.345-.215.611-.523.798-.924l.798.574a2.814 2.814 0 0 1-1.092 1.204c-.495.299-1.083.448-1.764.448zm0-6.622c-.308 0-.588.056-.84.168a1.883 1.883 0 0 0-.658.448 2.348 2.348 0 0 0-.574 1.568v.098h3.99v-.154c0-.644-.177-1.157-.532-1.54-.345-.392-.807-.588-1.386-.588zm5.36.21h-1.176v-.98h1.176v-1.456c0-.504.13-.91.392-1.218.261-.308.658-.462 1.19-.462h1.092v.98h-1.554v2.156h4.046V198h-1.12v-6.244h-2.926V198h-1.12v-6.244zm4.606-2.674c-.243 0-.42-.056-.532-.168a.688.688 0 0 1-.154-.462v-.182c0-.187.051-.336.154-.448.112-.121.289-.182.532-.182.242 0 .415.061.518.182a.605.605 0 0 1 .168.448v.182a.653.653 0 0 1-.168.462c-.103.112-.276.168-.518.168zM130 198v-7.224h1.12v1.176h.056c.177-.411.425-.737.742-.98.327-.243.761-.364 1.302-.364.747 0 1.335.243 1.764.728.439.476.658 1.153.658 2.03V198h-1.12v-4.438c0-1.297-.546-1.946-1.638-1.946-.224 0-.443.028-.658.084a1.91 1.91 0 0 0-.56.252 1.299 1.299 0 0 0-.406.434c-.093.168-.14.369-.14.602V198H130zm8.517-8.918c-.243 0-.42-.056-.532-.168a.688.688 0 0 1-.154-.462v-.182c0-.187.051-.336.154-.448.112-.121.289-.182.532-.182.243 0 .415.061.518.182a.605.605 0 0 1 .168.448v.182a.653.653 0 0 1-.168.462c-.103.112-.275.168-.518.168zm-.56 1.694h1.12V198h-1.12v-7.224zm8.12 6.048h-.056c-.439.896-1.143 1.344-2.114 1.344-.448 0-.854-.089-1.218-.266a2.7 2.7 0 0 1-.938-.756 3.64 3.64 0 0 1-.588-1.19 5.8 5.8 0 0 1-.196-1.568 5.8 5.8 0 0 1 .196-1.568 3.64 3.64 0 0 1 .588-1.19 2.7 2.7 0 0 1 .938-.756c.364-.177.77-.266 1.218-.266.504 0 .933.112 1.288.336.364.215.639.551.826 1.008h.056v-4.312h1.12V198h-1.12v-1.176zm-1.862.336c.252 0 .49-.033.714-.098a1.89 1.89 0 0 0 .602-.28c.168-.131.299-.285.392-.462.103-.187.154-.397.154-.63v-2.688c0-.196-.051-.378-.154-.546a1.283 1.283 0 0 0-.392-.448 1.89 1.89 0 0 0-.602-.28 2.234 2.234 0 0 0-.714-.112c-.635 0-1.134.201-1.498.602-.364.392-.546.91-.546 1.554v1.232c0 .644.182 1.167.546 1.568.364.392.863.588 1.498.588zm8.093 1.008a3.26 3.26 0 0 1-1.33-.266 2.964 2.964 0 0 1-1.036-.756 3.776 3.776 0 0 1-.658-1.19 4.843 4.843 0 0 1-.238-1.568c0-.569.079-1.087.238-1.554.159-.467.378-.863.658-1.19a2.893 2.893 0 0 1 1.036-.77 3.26 3.26 0 0 1 1.33-.266c.485 0 .924.089 1.316.266.401.177.747.434 1.036.77.289.327.513.723.672 1.19.159.467.238.985.238 1.554 0 .579-.079 1.101-.238 1.568a3.636 3.636 0 0 1-.672 1.19 2.964 2.964 0 0 1-1.036.756 3.164 3.164 0 0 1-1.316.266zm0-.994c.607 0 1.101-.187 1.484-.56.383-.373.574-.943.574-1.708v-1.036c0-.765-.191-1.335-.574-1.708-.383-.373-.877-.56-1.484-.56s-1.101.187-1.484.56c-.383.373-.574.943-.574 1.708v1.036c0 .765.191 1.335.574 1.708.383.373.877.56 1.484.56zm7.274.994c-.672 0-1.237-.126-1.694-.378a3.961 3.961 0 0 1-1.162-1.036l.798-.644c.28.355.593.63.938.826.345.187.747.28 1.204.28.476 0 .845-.103 1.106-.308.271-.205.406-.495.406-.868a.996.996 0 0 0-.28-.714c-.177-.205-.504-.345-.98-.42l-.574-.084a5.23 5.23 0 0 1-.924-.21 2.951 2.951 0 0 1-.742-.392 1.858 1.858 0 0 1-.49-.616 2.058 2.058 0 0 1-.168-.868c0-.355.065-.663.196-.924a1.89 1.89 0 0 1 .532-.672c.233-.177.509-.308.826-.392.317-.093.658-.14 1.022-.14.588 0 1.078.103 1.47.308.401.205.751.49 1.05.854l-.742.672c-.159-.224-.392-.425-.7-.602-.308-.187-.695-.28-1.162-.28-.467 0-.821.103-1.064.308-.233.196-.35.467-.35.812 0 .355.117.611.35.77.243.159.588.275 1.036.35l.56.084c.803.121 1.372.355 1.708.7.336.336.504.779.504 1.33 0 .7-.238 1.251-.714 1.652s-1.129.602-1.96.602zm5.298 0c-.299 0-.518-.075-.658-.224-.131-.149-.196-.345-.196-.588v-.182c0-.243.065-.439.196-.588.14-.149.359-.224.658-.224.299 0 .513.075.644.224.14.149.21.345.21.588v.182c0 .243-.07.439-.21.588-.131.149-.345.224-.644.224zM77.854 57.356V55.79l7.092-4.662v2.682l-4.284 2.7v.126l4.284 2.7v2.7l-7.092-4.68zm55.723 7.362l5.364-16.038h2.196l-5.364 16.038h-2.196zm11.339-5.382l4.284-2.7v-.126l-4.284-2.7v-2.682l7.092 4.644v1.566l-7.092 4.698v-2.7z"/><path fill="#FC6E40" d="M93.111 62.216c-.708 0-1.338-.114-1.89-.342a3.897 3.897 0 0 1-1.386-.99 4.371 4.371 0 0 1-.846-1.566c-.192-.612-.288-1.296-.288-2.052s.096-1.434.288-2.034a4.371 4.371 0 0 1 .846-1.566 3.624 3.624 0 0 1 1.386-.99c.552-.228 1.182-.342 1.89-.342.96 0 1.758.216 2.394.648.648.432 1.11 1.038 1.386 1.818l-2.16.936a1.81 1.81 0 0 0-.522-.918c-.264-.252-.63-.378-1.098-.378-.54 0-.948.18-1.224.54-.276.348-.414.822-.414 1.422v1.764c0 .6.138 1.074.414 1.422.276.348.684.522 1.224.522.48 0 .858-.126 1.134-.378a2.29 2.29 0 0 0 .63-1.026l2.07.9c-.312.9-.798 1.56-1.458 1.98-.648.42-1.44.63-2.376.63zm10.489 0c-.696 0-1.32-.114-1.872-.342a3.816 3.816 0 0 1-1.386-.99 4.594 4.594 0 0 1-.864-1.566c-.204-.612-.306-1.296-.306-2.052s.102-1.44.306-2.052c.204-.612.492-1.128.864-1.548a3.816 3.816 0 0 1 1.386-.99c.552-.228 1.176-.342 1.872-.342.696 0 1.314.114 1.854.342a3.624 3.624 0 0 1 1.386.99c.384.42.678.936.882 1.548.204.612.306 1.296.306 2.052s-.102 1.44-.306 2.052a4.434 4.434 0 0 1-.882 1.566 3.624 3.624 0 0 1-1.386.99c-.54.228-1.158.342-1.854.342zm0-2.106c.528 0 .936-.162 1.224-.486.288-.324.432-.786.432-1.386v-1.926c0-.6-.144-1.062-.432-1.386-.288-.324-.696-.486-1.224-.486s-.936.162-1.224.486c-.288.324-.432.786-.432 1.386v1.926c0 .6.144 1.062.432 1.386.288.324.696.486 1.224.486zm13.382.306h-.09a2.473 2.473 0 0 1-.342.72 2.622 2.622 0 0 1-.576.576 2.451 2.451 0 0 1-.756.36 2.611 2.611 0 0 1-.864.144c-1.2 0-2.106-.42-2.718-1.26-.612-.852-.918-2.082-.918-3.69s.306-2.832.918-3.672c.612-.84 1.518-1.26 2.718-1.26.612 0 1.152.168 1.62.504.48.336.786.768.918 1.296h.09V48.68h2.664V62h-2.664v-1.584zm-1.746-.36c.504 0 .918-.12 1.242-.36.336-.252.504-.594.504-1.026v-2.79c0-.432-.168-.768-.504-1.008-.324-.252-.738-.378-1.242-.378s-.924.18-1.26.54c-.324.348-.486.822-.486 1.422v1.638c0 .6.162 1.08.486 1.44a1.68 1.68 0 0 0 1.26.522zm12.103 2.16c-.72 0-1.362-.114-1.926-.342a4.225 4.225 0 0 1-1.44-.99 4.434 4.434 0 0 1-.882-1.566c-.192-.612-.288-1.296-.288-2.052 0-.744.096-1.416.288-2.016a4.371 4.371 0 0 1 .846-1.566 3.782 3.782 0 0 1 1.404-.99c.552-.24 1.182-.36 1.89-.36.78 0 1.446.132 1.998.396a3.69 3.69 0 0 1 1.368 1.062c.36.444.618.96.774 1.548a6.46 6.46 0 0 1 .252 1.818v.792h-6.066v.144c0 .624.168 1.122.504 1.494.336.36.864.54 1.584.54.552 0 1.002-.108 1.35-.324a5.62 5.62 0 0 0 .972-.81l1.332 1.656c-.42.492-.972.876-1.656 1.152-.672.276-1.44.414-2.304.414zm-.054-7.92c-.54 0-.966.18-1.278.54-.3.348-.45.816-.45 1.404v.144h3.312v-.162c0-.576-.132-1.038-.396-1.386-.252-.36-.648-.54-1.188-.54z"/><circle cx="110.5" cy="11.5" r="11.5" fill="#F98E64"/><path fill="#fff" d="M106.014 14.473h8.702v1.243h-8.702v-1.243zM113.218 7.014l-4.096 4.096-1.61-1.604-.877.877 2.487 2.486 4.973-4.973-.877-.882z"/><circle cx="110.5" cy="225.5" r="11.5" fill="#F98E64"/><path fill="#fff" d="M106.014 228.473h8.702v1.243h-8.702v-1.243zM113.218 221.014l-4.096 4.096-1.61-1.604-.877.877 2.487 2.486 4.973-4.973-.877-.882z"/><defs><linearGradient id="paint0_linear" x1="110.641" x2="139.966" y1="13.017" y2="215.383" gradientUnits="userSpaceOnUse"><stop stop-opacity=".02"/><stop offset="1" stop-opacity=".05"/></linearGradient></defs></svg>