<svg width="220" height="237" viewBox="0 0 220 237" fill="none" xmlns="http://www.w3.org/2000/svg">
<path d="M109.273 12C168.151 12 217 60.1023 217 118.997C217 177.892 169.27 225.636 110.393 225.636" stroke="#F98E64" stroke-width="6"/>
<path d="M110.64 226C51.763 226 3.00004 178.223 3.00004 119.328C3.00004 60.4332 50.3966 12.3645 109.274 12.3645" stroke="#F98E64" stroke-width="6"/>
<path d="M14.9834 108.04H20.2434C21.1634 108.04 22.0034 108.187 22.7634 108.48C23.5234 108.773 24.17 109.213 24.7034 109.8C25.2367 110.373 25.65 111.1 25.9434 111.98C26.2367 112.847 26.3834 113.86 26.3834 115.02C26.3834 116.18 26.2367 117.2 25.9434 118.08C25.65 118.947 25.2367 119.673 24.7034 120.26C24.17 120.833 23.5234 121.267 22.7634 121.56C22.0034 121.853 21.1634 122 20.2434 122H14.9834V108.04ZM20.2434 119.3C21.15 119.3 21.8634 119.047 22.3834 118.54C22.9034 118.033 23.1634 117.22 23.1634 116.1V113.94C23.1634 112.82 22.9034 112.007 22.3834 111.5C21.8634 110.993 21.15 110.74 20.2434 110.74H18.0234V119.3H20.2434ZM28.9287 122V108.04H38.4287V110.74H31.9687V113.6H37.5087V116.28H31.9687V119.3H38.4287V122H28.9287ZM45.5971 122.24C44.3704 122.24 43.3304 122.033 42.4771 121.62C41.6238 121.193 40.8971 120.647 40.2971 119.98L42.2971 117.96C43.2438 119.027 44.4104 119.56 45.7971 119.56C46.5438 119.56 47.0971 119.407 47.4571 119.1C47.8171 118.793 47.9971 118.387 47.9971 117.88C47.9971 117.493 47.8904 117.173 47.6771 116.92C47.4638 116.653 47.0304 116.473 46.3771 116.38L44.9971 116.2C43.5171 116.013 42.4304 115.567 41.7371 114.86C41.0571 114.153 40.7171 113.213 40.7171 112.04C40.7171 111.413 40.8371 110.84 41.0771 110.32C41.3171 109.8 41.6571 109.353 42.0971 108.98C42.5504 108.607 43.0971 108.32 43.7371 108.12C44.3904 107.907 45.1304 107.8 45.9571 107.8C47.0104 107.8 47.9371 107.967 48.7371 108.3C49.5371 108.633 50.2238 109.12 50.7971 109.76L48.7771 111.8C48.4438 111.413 48.0371 111.1 47.5571 110.86C47.0904 110.607 46.4971 110.48 45.7771 110.48C45.0971 110.48 44.5904 110.6 44.2571 110.84C43.9238 111.08 43.7571 111.413 43.7571 111.84C43.7571 112.32 43.8838 112.667 44.1371 112.88C44.4038 113.093 44.8304 113.247 45.4171 113.34L46.7971 113.56C48.2371 113.787 49.3038 114.233 49.9971 114.9C50.6904 115.553 51.0371 116.487 51.0371 117.7C51.0371 118.367 50.9171 118.98 50.6771 119.54C50.4371 120.1 50.0838 120.58 49.6171 120.98C49.1638 121.38 48.5971 121.693 47.9171 121.92C47.2371 122.133 46.4638 122.24 45.5971 122.24ZM53.5576 122V108.04H63.0576V110.74H56.5976V113.6H62.1376V116.28H56.5976V119.3H63.0576V122H53.5576ZM69.966 115.4L68.626 112.6H68.566V122H65.706V108.04H69.026L72.846 114.64L74.186 117.44H74.246V108.04H77.106V122H73.786L69.966 115.4ZM83.4187 122L78.9187 108.04H81.9987L84.0787 114.74L85.1787 119.12H85.2387L86.2987 114.74L88.3787 108.04H91.3587L86.8187 122H83.4187ZM98.1615 122.24C97.2415 122.24 96.4015 122.087 95.6415 121.78C94.8815 121.473 94.2348 121.02 93.7015 120.42C93.1682 119.807 92.7548 119.053 92.4615 118.16C92.1682 117.253 92.0215 116.207 92.0215 115.02C92.0215 113.833 92.1682 112.793 92.4615 111.9C92.7548 110.993 93.1682 110.24 93.7015 109.64C94.2348 109.027 94.8815 108.567 95.6415 108.26C96.4015 107.953 97.2415 107.8 98.1615 107.8C99.0815 107.8 99.9215 107.953 100.681 108.26C101.441 108.567 102.088 109.027 102.621 109.64C103.155 110.24 103.568 110.993 103.861 111.9C104.155 112.793 104.301 113.833 104.301 115.02C104.301 116.207 104.155 117.253 103.861 118.16C103.568 119.053 103.155 119.807 102.621 120.42C102.088 121.02 101.441 121.473 100.681 121.78C99.9215 122.087 99.0815 122.24 98.1615 122.24ZM98.1615 119.54C99.0815 119.54 99.7948 119.24 100.301 118.64C100.821 118.04 101.081 117.18 101.081 116.06V113.98C101.081 112.86 100.821 112 100.301 111.4C99.7948 110.8 99.0815 110.5 98.1615 110.5C97.2415 110.5 96.5215 110.8 96.0015 111.4C95.4948 112 95.2415 112.86 95.2415 113.98V116.06C95.2415 117.18 95.4948 118.04 96.0015 118.64C96.5215 119.24 97.2415 119.54 98.1615 119.54ZM106.839 122V108.04H109.879V119.3H115.199V122H106.839ZM119.239 122L114.739 108.04H117.819L119.899 114.74L120.999 119.12H121.059L122.119 114.74L124.199 108.04H127.179L122.639 122H119.239ZM128.467 122V119.58H130.267V110.46H128.467V108.04H135.107V110.46H133.307V119.58H135.107V122H128.467ZM148.08 112.84H148.02L147 114.88L144.28 119.82L141.62 114.9L140.56 112.7H140.5V122H137.64V108.04H140.86L144.28 114.58H144.32L147.7 108.04H150.94V122H148.08V112.84ZM154.026 122V108.04H163.526V110.74H157.066V113.6H162.606V116.28H157.066V119.3H163.526V122H154.026ZM170.435 115.4L169.095 112.6H169.035V122H166.175V108.04H169.495L173.315 114.64L174.655 117.44H174.715V108.04H177.575V122H174.255L170.435 115.4ZM186.467 110.74V122H183.427V110.74H179.647V108.04H190.247V110.74H186.467ZM197.419 122.24C196.499 122.24 195.659 122.087 194.899 121.78C194.139 121.473 193.493 121.02 192.959 120.42C192.426 119.807 192.013 119.053 191.719 118.16C191.426 117.253 191.279 116.207 191.279 115.02C191.279 113.833 191.426 112.793 191.719 111.9C192.013 110.993 192.426 110.24 192.959 109.64C193.493 109.027 194.139 108.567 194.899 108.26C195.659 107.953 196.499 107.8 197.419 107.8C198.339 107.8 199.179 107.953 199.939 108.26C200.699 108.567 201.346 109.027 201.879 109.64C202.413 110.24 202.826 110.993 203.119 111.9C203.413 112.793 203.559 113.833 203.559 115.02C203.559 116.207 203.413 117.253 203.119 118.16C202.826 119.053 202.413 119.807 201.879 120.42C201.346 121.02 200.699 121.473 199.939 121.78C199.179 122.087 198.339 122.24 197.419 122.24ZM197.419 119.54C198.339 119.54 199.053 119.24 199.559 118.64C200.079 118.04 200.339 117.18 200.339 116.06V113.98C200.339 112.86 200.079 112 199.559 111.4C199.053 110.8 198.339 110.5 197.419 110.5C196.499 110.5 195.779 110.8 195.259 111.4C194.753 112 194.499 112.86 194.499 113.98V116.06C194.499 117.18 194.753 118.04 195.259 118.64C195.779 119.24 196.499 119.54 197.419 119.54Z" fill="#222222"/>
<path d="M114.837 171.372H111.05V175.106H109.787V171.372H106V170.127H109.787V166.393H111.05V170.127H114.837V171.372Z" fill="#222222" fill-opacity="0.6"/>
<circle cx="109.5" cy="11.5" r="11.5" transform="rotate(90 109.5 11.5)" fill="#F98E64"/>
<path d="M109.189 11.9632L104.838 7.31086L105.862 6.21619L109.189 9.77387L112.517 6.21619L113.541 7.31086L109.189 11.9632Z" fill="white"/>
<path d="M109.189 17.5578L104.838 12.9055L105.862 11.8108L109.189 15.3685L112.517 11.8108L113.541 12.9055L109.189 17.5578Z" fill="white"/>
<circle cx="109.5" cy="225.5" r="11.5" fill="#F98E64"/>
<path d="M105.014 228.473H113.716V229.716H105.014V228.473Z" fill="white"/>
<path d="M112.218 221.014L108.122 225.11L106.512 223.506L105.635 224.383L108.122 226.869L113.095 221.896L112.218 221.014Z" fill="white"/>
</svg>
