<svg width="220" height="229" viewBox="0 0 220 229" fill="none" xmlns="http://www.w3.org/2000/svg">
<path d="M109.273 11.6072C168.151 11.6072 217 59.7095 217 118.604C217 177.499 169.27 225.243 110.393 225.243" stroke="#F98E64" stroke-width="6"/>
<path d="M110.64 225.607C51.763 225.607 3.00004 177.83 3.00004 118.935C3.00004 60.0403 50.3966 11.9717 109.274 11.9717" stroke="#282A2D" stroke-width="6"/>
<path d="M66.8889 104.644H72.6749C73.6869 104.644 74.6109 104.805 75.4469 105.128C76.2829 105.451 76.9943 105.935 77.5809 106.58C78.1676 107.211 78.6223 108.01 78.9449 108.978C79.2676 109.931 79.4289 111.046 79.4289 112.322C79.4289 113.598 79.2676 114.72 78.9449 115.688C78.6223 116.641 78.1676 117.441 77.5809 118.086C76.9943 118.717 76.2829 119.193 75.4469 119.516C74.6109 119.839 73.6869 120 72.6749 120H66.8889V104.644ZM72.6749 117.03C73.6723 117.03 74.4569 116.751 75.0289 116.194C75.6009 115.637 75.8869 114.742 75.8869 113.51V111.134C75.8869 109.902 75.6009 109.007 75.0289 108.45C74.4569 107.893 73.6723 107.614 72.6749 107.614H70.2329V117.03H72.6749ZM83.2188 120V104.644H93.6688V107.614H86.5628V110.76H92.6568V113.708H86.5628V117.03H93.6688V120H83.2188ZM102.544 120.264C101.195 120.264 100.051 120.037 99.112 119.582C98.1734 119.113 97.374 118.511 96.714 117.778L98.914 115.556C99.9554 116.729 101.239 117.316 102.764 117.316C103.585 117.316 104.194 117.147 104.59 116.81C104.986 116.473 105.184 116.025 105.184 115.468C105.184 115.043 105.067 114.691 104.832 114.412C104.597 114.119 104.121 113.921 103.402 113.818L101.884 113.62C100.256 113.415 99.0607 112.923 98.298 112.146C97.55 111.369 97.176 110.335 97.176 109.044C97.176 108.355 97.308 107.724 97.572 107.152C97.836 106.58 98.21 106.089 98.694 105.678C99.1927 105.267 99.794 104.952 100.498 104.732C101.217 104.497 102.031 104.38 102.94 104.38C104.099 104.38 105.118 104.563 105.998 104.93C106.878 105.297 107.633 105.832 108.264 106.536L106.042 108.78C105.675 108.355 105.228 108.01 104.7 107.746C104.187 107.467 103.534 107.328 102.742 107.328C101.994 107.328 101.437 107.46 101.07 107.724C100.703 107.988 100.52 108.355 100.52 108.824C100.52 109.352 100.659 109.733 100.938 109.968C101.231 110.203 101.701 110.371 102.346 110.474L103.864 110.716C105.448 110.965 106.621 111.457 107.384 112.19C108.147 112.909 108.528 113.935 108.528 115.27C108.528 116.003 108.396 116.678 108.132 117.294C107.868 117.91 107.479 118.438 106.966 118.878C106.467 119.318 105.844 119.663 105.096 119.912C104.348 120.147 103.497 120.264 102.544 120.264ZM111.697 120V117.338H113.677V107.306H111.697V104.644H119.001V107.306H117.021V117.338H119.001V120H111.697ZM132.523 117.558H132.413C132.295 118.335 131.899 118.981 131.225 119.494C130.55 120.007 129.633 120.264 128.475 120.264C127.595 120.264 126.773 120.095 126.011 119.758C125.248 119.421 124.581 118.922 124.009 118.262C123.437 117.602 122.989 116.781 122.667 115.798C122.344 114.815 122.183 113.679 122.183 112.388C122.183 111.097 122.351 109.953 122.689 108.956C123.026 107.959 123.495 107.123 124.097 106.448C124.713 105.773 125.446 105.26 126.297 104.908C127.147 104.556 128.093 104.38 129.135 104.38C130.513 104.38 131.701 104.681 132.699 105.282C133.696 105.869 134.481 106.756 135.053 107.944L132.325 109.506C132.09 108.905 131.723 108.399 131.225 107.988C130.726 107.563 130.029 107.35 129.135 107.35C128.093 107.35 127.265 107.651 126.649 108.252C126.033 108.853 125.725 109.799 125.725 111.09V113.554C125.725 114.83 126.033 115.776 126.649 116.392C127.265 116.993 128.093 117.294 129.135 117.294C129.545 117.294 129.934 117.25 130.301 117.162C130.667 117.059 130.99 116.913 131.269 116.722C131.547 116.517 131.76 116.275 131.907 115.996C132.068 115.717 132.149 115.387 132.149 115.006V114.236H129.289V111.442H135.339V120H132.523V117.558ZM144.265 112.74L142.791 109.66H142.725V120H139.579V104.644H143.231L147.433 111.904L148.907 114.984H148.973V104.644H152.119V120H148.467L144.265 112.74Z" fill="#222222"/>
<path d="M114.837 170.979H111.05V174.714H109.787V170.979H106V169.734H109.787V166H111.05V169.734H114.837V170.979Z" fill="#222222" fill-opacity="0.6"/>
<ellipse cx="109.678" cy="11.5432" rx="11.5432" ry="11.6783" transform="rotate(90 109.678 11.5432)" fill="#F98E64"/>
<path d="M109.979 17.28L105.077 12.0989L106.23 10.8799L109.979 14.8418L113.728 10.8799L114.882 12.0989L109.979 17.28Z" fill="white"/>
<path d="M110.113 11.5264L106.186 7.37637L107.11 6.3999L110.113 9.57342L113.116 6.3999L114.04 7.37637L110.113 11.5264Z" fill="white"/>
</svg>
