<svg xmlns="http://www.w3.org/2000/svg" fill="none" viewBox="0 0 220 229"><ellipse cx="110.641" cy="117.471" fill="url(#paint0_linear)" rx="105.44" ry="106.454"/><path stroke="#282A2D" stroke-width="6" d="M217 118.662c0-59.092-47.867-106.995-106.913-106.995C51.04 11.667 3.173 59.57 3.173 118.662"/><path stroke="#282A2D" stroke-width="6" d="M216.827 118.593c0 59.091-47.867 106.995-106.914 106.995C50.867 225.588 3 177.684 3 118.593"/><ellipse cx="110.115" cy="11.543" fill="#F98E64" rx="11.543" ry="11.678" transform="rotate(90 110.115 11.543)"/><path fill="#282A2D" d="M110.416 17.28l-4.903-5.181 1.154-1.22 3.749 3.963 3.749-3.962 1.153 1.219-4.902 5.181z"/><path fill="#282A2D" d="M110.549 11.526l-3.927-4.15.924-.976 3.003 3.173 3.003-3.173.924.976-3.927 4.15zM26.927 96.154a4.423 4.423 0 0 1-1.722-.322 3.683 3.683 0 0 1-1.302-.966c-.355-.429-.63-.956-.826-1.582-.196-.634-.294-1.362-.294-2.184 0-.821.098-1.544.294-2.17.196-.625.471-1.152.826-1.582.364-.429.798-.751 1.302-.966a4.263 4.263 0 0 1 1.722-.336c.625 0 1.195.112 1.708.336.513.215.947.537 1.302.966.364.43.644.957.84 1.582.196.626.294 1.349.294 2.17 0 .822-.098 1.55-.294 2.184-.196.626-.476 1.153-.84 1.582-.355.42-.789.742-1.302.966a4.385 4.385 0 0 1-1.708.322zm0-1.05c.42 0 .807-.074 1.162-.224.355-.149.658-.364.91-.644.261-.28.462-.616.602-1.008.14-.392.21-.83.21-1.316v-1.624c0-.485-.07-.924-.21-1.316a2.871 2.871 0 0 0-.602-1.008 2.528 2.528 0 0 0-.91-.644 2.965 2.965 0 0 0-1.162-.224c-.42 0-.807.075-1.162.224-.355.15-.663.364-.924.644a2.99 2.99 0 0 0-.588 1.008c-.14.392-.21.831-.21 1.316v1.624c0 .486.07.924.21 1.316.14.392.336.728.588 1.008.261.28.57.495.924.644.355.15.742.224 1.162.224zm9.567-8.89h3.276a4.27 4.27 0 0 1 1.652.308c.494.206.914.514 1.26.924.354.402.625.91.812 1.526.186.607.28 1.316.28 2.128s-.094 1.526-.28 2.142c-.187.607-.458 1.116-.812 1.526a3.314 3.314 0 0 1-1.26.91 4.269 4.269 0 0 1-1.652.308h-3.276v-9.772zm3.276 8.736c.401 0 .77-.065 1.106-.196.336-.14.625-.34.868-.602.242-.261.429-.578.56-.952.14-.382.21-.816.21-1.302v-1.596c0-.485-.07-.914-.21-1.288a2.661 2.661 0 0 0-.56-.966 2.313 2.313 0 0 0-.868-.588 2.847 2.847 0 0 0-1.106-.21h-2.1v7.7h2.1zm8.72 1.204a3.29 3.29 0 0 1-1.344-.266 3.007 3.007 0 0 1-1.022-.756c-.28-.336-.5-.732-.658-1.19a5.132 5.132 0 0 1-.224-1.568c0-.569.075-1.087.224-1.554.159-.466.378-.863.658-1.19.29-.336.63-.592 1.022-.77a3.29 3.29 0 0 1 1.344-.266c.485 0 .92.089 1.302.266.383.178.71.425.98.742.27.308.476.677.616 1.106.15.43.224.901.224 1.414v.532h-5.194v.336c0 .308.047.598.14.868.103.262.243.49.42.686.187.196.41.35.672.462.27.112.574.168.91.168.457 0 .854-.107 1.19-.322.346-.214.611-.522.798-.924l.798.574a2.82 2.82 0 0 1-1.092 1.204c-.494.299-1.082.448-1.764.448zm0-6.622c-.308 0-.588.056-.84.168a1.876 1.876 0 0 0-.658.448 2.355 2.355 0 0 0-.574 1.568v.098h3.99v-.154c0-.644-.177-1.157-.532-1.54-.345-.392-.807-.588-1.386-.588zm7.138 6.622c-.672 0-1.237-.126-1.694-.378a3.956 3.956 0 0 1-1.162-1.036l.798-.644c.28.355.593.63.938.826.345.187.746.28 1.204.28.476 0 .844-.102 1.106-.308.27-.205.406-.494.406-.868a.997.997 0 0 0-.28-.714c-.178-.205-.504-.345-.98-.42l-.574-.084a5.16 5.16 0 0 1-.924-.21 2.943 2.943 0 0 1-.742-.392 1.86 1.86 0 0 1-.49-.616 2.057 2.057 0 0 1-.168-.868c0-.354.065-.662.196-.924.13-.27.308-.494.532-.672.233-.177.509-.308.826-.392.317-.093.658-.14 1.022-.14.588 0 1.078.103 1.47.308.401.206.751.49 1.05.854l-.742.672c-.159-.224-.392-.424-.7-.602-.308-.186-.695-.28-1.162-.28-.467 0-.822.103-1.064.308-.233.196-.35.467-.35.812 0 .355.117.612.35.77.242.159.588.276 1.036.35l.56.084c.802.122 1.372.355 1.708.7.336.336.504.78.504 1.33 0 .7-.238 1.251-.714 1.652-.476.402-1.13.602-1.96.602zm5.212-9.086c-.243 0-.42-.056-.532-.168a.69.69 0 0 1-.154-.462v-.182c0-.186.051-.336.154-.448.112-.121.29-.182.532-.182.243 0 .415.061.518.182a.606.606 0 0 1 .168.448v.182c0 .187-.056.341-.168.462-.103.112-.275.168-.518.168zm-.56 1.694h1.12v7.224h-1.12v-7.224zm9.59 8.022c0 .747-.294 1.293-.882 1.638-.579.355-1.451.532-2.618.532-1.13 0-1.941-.154-2.436-.462-.495-.308-.742-.746-.742-1.316 0-.392.103-.7.308-.924.205-.214.485-.373.84-.476v-.154c-.43-.205-.644-.541-.644-1.008 0-.364.117-.639.35-.826.233-.196.532-.34.896-.434v-.056c-.43-.205-.765-.499-1.008-.882-.233-.382-.35-.826-.35-1.33 0-.364.065-.7.196-1.008.13-.308.313-.569.546-.784.243-.224.527-.396.854-.518.336-.121.71-.182 1.12-.182.513 0 .97.094 1.372.28v-.126c0-.28.065-.508.196-.686.13-.186.345-.28.644-.28h1.078v.98h-1.372v.462c.261.224.462.495.602.812.15.308.224.658.224 1.05 0 .364-.065.7-.196 1.008-.13.308-.317.574-.56.798a2.495 2.495 0 0 1-.854.504c-.336.122-.71.182-1.12.182-.233 0-.467-.023-.7-.07a2.217 2.217 0 0 0-.658.294.576.576 0 0 0-.294.518c0 .215.103.36.308.434.205.075.471.112.798.112h1.54c.896 0 1.545.173 1.946.518.41.336.616.803.616 1.4zm-1.05.084a.85.85 0 0 0-.336-.7c-.215-.168-.602-.252-1.162-.252h-2.408c-.448.206-.672.532-.672.98 0 .318.117.588.35.812.243.224.649.336 1.218.336h1.036c.625 0 1.11-.098 1.456-.294.345-.196.518-.49.518-.882zm-2.506-4.186c.476 0 .854-.112 1.134-.336.28-.233.42-.588.42-1.064v-.392c0-.476-.14-.826-.42-1.05-.28-.233-.658-.35-1.134-.35-.476 0-.854.117-1.134.35-.28.224-.42.574-.42 1.05v.392c0 .476.14.831.42 1.064.28.224.658.336 1.134.336zm4.863 3.304v-7.224h1.12v1.176h.056c.177-.41.424-.737.742-.98.326-.242.76-.364 1.302-.364.746 0 1.334.243 1.763.728.44.476.659 1.153.659 2.03v4.634h-1.12v-4.438c0-1.297-.546-1.946-1.638-1.946-.225 0-.444.028-.659.084-.205.056-.392.14-.56.252a1.293 1.293 0 0 0-.406.434c-.093.168-.14.369-.14.602v5.012h-1.12zm13.981.168a3.29 3.29 0 0 1-1.344-.266 3.007 3.007 0 0 1-1.022-.756c-.28-.336-.5-.732-.658-1.19a5.128 5.128 0 0 1-.224-1.568c0-.569.075-1.087.224-1.554.159-.466.378-.863.658-1.19.29-.336.63-.592 1.022-.77a3.29 3.29 0 0 1 1.344-.266c.486 0 .92.089 1.302.266.383.178.71.425.98.742.27.308.476.677.616 1.106.15.43.224.901.224 1.414v.532h-5.194v.336c0 .308.047.598.14.868.103.262.243.49.42.686.187.196.41.35.672.462.27.112.574.168.91.168.458 0 .854-.107 1.19-.322.345-.214.611-.522.798-.924l.798.574a2.82 2.82 0 0 1-1.092 1.204c-.495.299-1.082.448-1.764.448zm0-6.622c-.308 0-.588.056-.84.168a1.875 1.875 0 0 0-.658.448 2.355 2.355 0 0 0-.574 1.568v.098h3.99v-.154c0-.644-.177-1.157-.532-1.54-.345-.392-.807-.588-1.386-.588zm.112-1.736l-.728-.336 1.19-2.38 1.022.49-1.484 2.226zm10.894 8.358c-.485 0-.928-.088-1.33-.266a2.97 2.97 0 0 1-1.036-.756c-.28-.336-.499-.732-.658-1.19a4.85 4.85 0 0 1-.238-1.568c0-.569.08-1.087.238-1.554.159-.466.378-.863.658-1.19.29-.336.635-.592 1.036-.77a3.255 3.255 0 0 1 1.33-.266c.486 0 .924.089 1.316.266.402.178.747.434 1.036.77.29.327.514.724.672 1.19.159.467.238.985.238 1.554 0 .579-.079 1.102-.238 1.568a3.62 3.62 0 0 1-.672 1.19c-.289.327-.634.579-1.036.756-.392.178-.83.266-1.316.266zm0-.994c.607 0 1.102-.186 1.484-.56.383-.373.574-.942.574-1.708v-1.036c0-.765-.191-1.334-.574-1.708-.382-.373-.877-.56-1.484-.56-.606 0-1.101.187-1.484.56-.382.374-.574.943-.574 1.708v1.036c0 .766.192 1.335.574 1.708.383.374.878.56 1.484.56zm5.104.826v-7.224h1.12v1.176h.056c.178-.41.425-.737.742-.98.327-.242.761-.364 1.302-.364.747 0 1.335.243 1.764.728.439.476.658 1.153.658 2.03v4.634h-1.12v-4.438c0-1.297-.546-1.946-1.638-1.946-.224 0-.443.028-.658.084a1.91 1.91 0 0 0-.56.252 1.296 1.296 0 0 0-.406.434c-.093.168-.14.369-.14.602v5.012h-1.12zm12.577-1.176h-.056c-.438.896-1.143 1.344-2.114 1.344-.448 0-.854-.088-1.218-.266a2.716 2.716 0 0 1-.938-.756 3.639 3.639 0 0 1-.588-1.19 5.84 5.84 0 0 1-.196-1.568c0-.578.066-1.101.196-1.568a3.64 3.64 0 0 1 .588-1.19c.262-.326.574-.578.938-.756.364-.177.77-.266 1.218-.266.504 0 .934.112 1.288.336.364.215.64.551.826 1.008h.056v-4.312h1.12v10.36h-1.12V94.81zm-1.862.336c.252 0 .49-.032.714-.098.234-.065.434-.158.602-.28.168-.13.299-.284.392-.462.103-.186.154-.396.154-.63v-2.688c0-.196-.051-.378-.154-.546a1.284 1.284 0 0 0-.392-.448 1.883 1.883 0 0 0-.602-.28 2.245 2.245 0 0 0-.714-.112c-.634 0-1.134.201-1.498.602-.364.392-.546.91-.546 1.554v1.232c0 .644.182 1.167.546 1.568.364.392.864.588 1.498.588zm8.079 1.008c-.494 0-.942-.088-1.344-.266a3.014 3.014 0 0 1-1.022-.756 3.772 3.772 0 0 1-.658-1.19 5.14 5.14 0 0 1-.224-1.568c0-.569.075-1.087.224-1.554.159-.466.378-.863.658-1.19.29-.336.63-.592 1.022-.77.402-.177.85-.266 1.344-.266.486 0 .92.089 1.302.266.383.178.71.425.98.742.271.308.476.677.616 1.106.15.43.224.901.224 1.414v.532h-5.194v.336c0 .308.047.598.14.868.103.262.243.49.42.686.187.196.411.35.672.462.271.112.574.168.91.168.458 0 .854-.107 1.19-.322.346-.214.612-.522.798-.924l.798.574a2.816 2.816 0 0 1-1.092 1.204c-.494.299-1.082.448-1.764.448zm0-6.622c-.308 0-.588.056-.84.168a1.879 1.879 0 0 0-.658.448 2.2 2.2 0 0 0-.42.7 2.37 2.37 0 0 0-.154.868v.098h3.99v-.154c0-.644-.177-1.157-.532-1.54-.345-.392-.807-.588-1.386-.588zm10.965 6.622c-.504 0-.957-.088-1.358-.266a2.832 2.832 0 0 1-1.022-.756 3.514 3.514 0 0 1-.63-1.19c-.14-.466-.21-.989-.21-1.568 0-.578.07-1.101.21-1.568.149-.466.359-.863.63-1.19.28-.326.62-.578 1.022-.756a3.326 3.326 0 0 1 1.358-.266c.718 0 1.292.159 1.722.476.438.308.765.714.98 1.218l-.938.476a1.706 1.706 0 0 0-.644-.868c-.299-.205-.672-.308-1.12-.308-.336 0-.63.056-.882.168a1.62 1.62 0 0 0-.63.448 1.812 1.812 0 0 0-.378.686c-.084.262-.126.551-.126.868v1.232c0 .635.168 1.158.504 1.568.345.402.849.602 1.512.602.905 0 1.558-.42 1.96-1.26l.812.546a2.862 2.862 0 0 1-1.05 1.246c-.458.308-1.032.462-1.722.462zm7.001 0a3.25 3.25 0 0 1-1.33-.266 2.962 2.962 0 0 1-1.036-.756c-.28-.336-.5-.732-.658-1.19a4.843 4.843 0 0 1-.238-1.568c0-.569.079-1.087.238-1.554.158-.466.378-.863.658-1.19a2.89 2.89 0 0 1 1.036-.77 3.252 3.252 0 0 1 1.33-.266c.485 0 .924.089 1.316.266.401.178.746.434 1.036.77.289.327.513.724.672 1.19.158.467.238.985.238 1.554a4.87 4.87 0 0 1-.238 1.568 3.631 3.631 0 0 1-.672 1.19 2.98 2.98 0 0 1-1.036.756 3.158 3.158 0 0 1-1.316.266zm0-.994c.606 0 1.101-.186 1.484-.56.382-.373.574-.942.574-1.708v-1.036c0-.765-.192-1.334-.574-1.708-.383-.373-.878-.56-1.484-.56-.607 0-1.102.187-1.484.56-.383.374-.574.943-.574 1.708v1.036c0 .766.191 1.335.574 1.708.382.374.877.56 1.484.56zm6.294.826c-.392 0-.691-.107-.896-.322-.196-.224-.294-.504-.294-.84v-9.198h1.12v9.38h1.064v.98h-.994zm5.354.168c-.485 0-.929-.088-1.33-.266a2.972 2.972 0 0 1-1.036-.756 3.772 3.772 0 0 1-.658-1.19 4.843 4.843 0 0 1-.238-1.568c0-.569.079-1.087.238-1.554.159-.466.378-.863.658-1.19a2.898 2.898 0 0 1 1.036-.77 3.255 3.255 0 0 1 1.33-.266c.485 0 .924.089 1.316.266.401.178.747.434 1.036.77.289.327.513.724.672 1.19.159.467.238.985.238 1.554 0 .579-.079 1.102-.238 1.568a3.631 3.631 0 0 1-.672 1.19 2.972 2.972 0 0 1-1.036.756 3.158 3.158 0 0 1-1.316.266zm0-.994c.607 0 1.101-.186 1.484-.56.383-.373.574-.942.574-1.708v-1.036c0-.765-.191-1.334-.574-1.708-.383-.373-.877-.56-1.484-.56s-1.101.187-1.484.56c-.383.374-.574.943-.574 1.708v1.036c0 .766.191 1.335.574 1.708.383.374.877.56 1.484.56zm7.792.994c-.504 0-.957-.088-1.358-.266a2.84 2.84 0 0 1-1.022-.756 3.514 3.514 0 0 1-.63-1.19c-.14-.466-.21-.989-.21-1.568 0-.578.07-1.101.21-1.568.149-.466.359-.863.63-1.19.28-.326.621-.578 1.022-.756a3.326 3.326 0 0 1 1.358-.266c.719 0 1.293.159 1.722.476.439.308.765.714.98 1.218l-.938.476a1.7 1.7 0 0 0-.644-.868c-.299-.205-.672-.308-1.12-.308-.336 0-.63.056-.882.168a1.62 1.62 0 0 0-.63.448 1.812 1.812 0 0 0-.378.686c-.084.262-.126.551-.126.868v1.232c0 .635.168 1.158.504 1.568.345.402.849.602 1.512.602.905 0 1.559-.42 1.96-1.26l.812.546a2.849 2.849 0 0 1-1.05 1.246c-.457.308-1.031.462-1.722.462zm9.603-.168c-.42 0-.723-.112-.91-.336a1.708 1.708 0 0 1-.336-.84h-.07c-.159.448-.42.784-.784 1.008-.364.224-.798.336-1.302.336-.765 0-1.363-.196-1.792-.588-.42-.392-.63-.924-.63-1.596 0-.681.247-1.204.742-1.568.504-.364 1.283-.546 2.338-.546h1.428v-.714c0-.513-.14-.905-.42-1.176-.28-.27-.709-.406-1.288-.406-.439 0-.807.098-1.106.294a2.458 2.458 0 0 0-.728.784l-.672-.63c.196-.392.509-.723.938-.994.429-.28.971-.42 1.624-.42.877 0 1.559.215 2.044.644.485.43.728 1.027.728 1.792v3.976h.826v.98h-.63zm-3.22-.784c.28 0 .537-.032.77-.098.233-.065.434-.158.602-.28.168-.121.299-.261.392-.42.093-.158.14-.331.14-.518v-1.19h-1.484c-.644 0-1.115.094-1.414.28a.909.909 0 0 0-.434.812v.294c0 .355.126.63.378.826.261.196.611.294 1.05.294zm5.449.784v-7.224h1.12v1.176h.056c.084-.186.177-.359.28-.518a1.93 1.93 0 0 1 .392-.434c.158-.121.34-.214.546-.28.205-.074.448-.112.728-.112.476 0 .914.117 1.316.35.401.224.7.598.896 1.12h.028c.13-.392.373-.732.728-1.022.364-.298.854-.448 1.47-.448.737 0 1.311.243 1.722.728.42.476.63 1.153.63 2.03v4.634h-1.12v-4.438c0-.644-.126-1.129-.378-1.456-.252-.326-.654-.49-1.204-.49-.224 0-.439.028-.644.084a1.74 1.74 0 0 0-.532.252 1.209 1.209 0 0 0-.378.434c-.094.168-.14.369-.14.602v5.012h-1.12v-4.438c0-.644-.126-1.129-.378-1.456-.252-.326-.644-.49-1.176-.49-.224 0-.439.028-.644.084a1.71 1.71 0 0 0-.546.252 1.34 1.34 0 0 0-.392.434c-.094.168-.14.369-.14.602v5.012h-1.12zm14.952.168c-.485 0-.928-.088-1.33-.266a2.98 2.98 0 0 1-1.036-.756 3.772 3.772 0 0 1-.658-1.19 4.87 4.87 0 0 1-.238-1.568c0-.569.08-1.087.238-1.554.159-.466.378-.863.658-1.19.29-.336.635-.592 1.036-.77a3.259 3.259 0 0 1 1.33-.266c.486 0 .924.089 1.316.266a2.89 2.89 0 0 1 1.036.77c.29.327.514.724.672 1.19.159.467.238.985.238 1.554 0 .579-.079 1.102-.238 1.568a3.596 3.596 0 0 1-.672 1.19 2.962 2.962 0 0 1-1.036.756c-.392.178-.83.266-1.316.266zm0-.994c.607 0 1.102-.186 1.484-.56.383-.373.574-.942.574-1.708v-1.036c0-.765-.191-1.334-.574-1.708-.382-.373-.877-.56-1.484-.56-.606 0-1.101.187-1.484.56-.382.374-.574.943-.574 1.708v1.036c0 .766.192 1.335.574 1.708.383.374.878.56 1.484.56zm7.274.994c-.672 0-1.236-.126-1.694-.378a3.96 3.96 0 0 1-1.162-1.036l.798-.644c.28.355.593.63.938.826.346.187.747.28 1.204.28.476 0 .845-.102 1.106-.308.271-.205.406-.494.406-.868a.996.996 0 0 0-.28-.714c-.177-.205-.504-.345-.98-.42l-.574-.084a5.16 5.16 0 0 1-.924-.21 2.948 2.948 0 0 1-.742-.392 1.874 1.874 0 0 1-.49-.616 2.057 2.057 0 0 1-.168-.868c0-.354.066-.662.196-.924.131-.27.308-.494.532-.672.234-.177.509-.308.826-.392a3.61 3.61 0 0 1 1.022-.14c.588 0 1.078.103 1.47.308.402.206.752.49 1.05.854l-.742.672c-.158-.224-.392-.424-.7-.602-.308-.186-.695-.28-1.162-.28-.466 0-.821.103-1.064.308-.233.196-.35.467-.35.812 0 .355.117.612.35.77.243.159.588.276 1.036.35l.56.084c.803.122 1.372.355 1.708.7.336.336.504.78.504 1.33 0 .7-.238 1.251-.714 1.652-.476.402-1.129.602-1.96.602zM23.595 113.986c-.392 0-.69-.107-.896-.322-.196-.224-.294-.513-.294-.868v-5.054h-1.19v-.98h.672c.242 0 .406-.046.49-.14.093-.102.14-.275.14-.518v-1.344h1.008v2.002h1.582v.98h-1.582v5.264h1.47v.98h-1.4zm7.764-1.176h-.056a3.403 3.403 0 0 1-.28.504 1.88 1.88 0 0 1-.392.434c-.159.122-.35.22-.574.294a2.472 2.472 0 0 1-.784.112c-.747 0-1.34-.238-1.778-.714-.439-.485-.658-1.166-.658-2.044v-4.634h1.12v4.438c0 1.298.55 1.946 1.652 1.946.224 0 .439-.028.644-.084a1.71 1.71 0 0 0 .56-.252 1.203 1.203 0 0 0 .546-1.05v-4.998h1.12v7.224h-1.12v-1.176zm8.125 0h-.056c-.439.896-1.143 1.344-2.114 1.344-.448 0-.854-.088-1.218-.266a2.704 2.704 0 0 1-.938-.756 3.63 3.63 0 0 1-.588-1.19 5.811 5.811 0 0 1-.196-1.568c0-.578.065-1.101.196-1.568a3.65 3.65 0 0 1 .588-1.19c.261-.326.574-.578.938-.756.364-.177.77-.266 1.218-.266.504 0 .933.112 1.288.336.364.215.64.551.826 1.008h.056v-4.312h1.12v10.36h-1.12v-1.176zm-1.862.336c.252 0 .49-.032.714-.098.233-.065.434-.158.602-.28.168-.13.299-.284.392-.462.103-.186.154-.396.154-.63v-2.688c0-.196-.051-.378-.154-.546a1.295 1.295 0 0 0-.392-.448 1.909 1.909 0 0 0-.602-.28 2.262 2.262 0 0 0-.714-.112c-.635 0-1.134.201-1.498.602-.364.392-.546.91-.546 1.554v1.232c0 .644.182 1.167.546 1.568.364.392.863.588 1.498.588zm8.093 1.008c-.485 0-.929-.088-1.33-.266a2.965 2.965 0 0 1-1.036-.756 3.76 3.76 0 0 1-.658-1.19 4.85 4.85 0 0 1-.238-1.568c0-.569.08-1.087.238-1.554.159-.466.378-.863.658-1.19.29-.336.635-.592 1.036-.77a3.26 3.26 0 0 1 1.33-.266c.485 0 .924.089 1.316.266.401.178.747.434 1.036.77.29.327.514.724.672 1.19.159.467.238.985.238 1.554 0 .579-.08 1.102-.238 1.568a3.611 3.611 0 0 1-.672 1.19c-.29.327-.635.579-1.036.756-.392.178-.83.266-1.316.266zm0-.994c.607 0 1.101-.186 1.484-.56.383-.373.574-.942.574-1.708v-1.036c0-.765-.191-1.334-.574-1.708-.383-.373-.877-.56-1.484-.56s-1.101.187-1.484.56c-.383.374-.574.943-.574 1.708v1.036c0 .766.192 1.335.574 1.708.383.374.877.56 1.484.56zm13.033-.35h-.056c-.439.896-1.144 1.344-2.114 1.344-.448 0-.854-.088-1.218-.266a2.703 2.703 0 0 1-.938-.756 3.63 3.63 0 0 1-.588-1.19 5.807 5.807 0 0 1-.196-1.568c0-.578.065-1.101.196-1.568a3.65 3.65 0 0 1 .588-1.19c.261-.326.574-.578.938-.756.364-.177.77-.266 1.218-.266.504 0 .933.112 1.288.336.364.215.639.551.826 1.008h.056v-1.176h1.12v10.024h-1.12v-3.976zm-1.862.336c.252 0 .49-.032.714-.098.233-.065.434-.158.602-.28.168-.13.298-.284.392-.462.102-.186.154-.396.154-.63v-2.688c0-.196-.052-.378-.154-.546a1.295 1.295 0 0 0-.392-.448 1.91 1.91 0 0 0-.602-.28 2.262 2.262 0 0 0-.714-.112c-.635 0-1.134.201-1.498.602-.364.392-.546.91-.546 1.554v1.232c0 .644.182 1.167.546 1.568.364.392.863.588 1.498.588zm9.815-.336h-.056a3.403 3.403 0 0 1-.28.504 1.88 1.88 0 0 1-.392.434c-.159.122-.35.22-.574.294a2.472 2.472 0 0 1-.784.112c-.747 0-1.34-.238-1.778-.714-.439-.485-.658-1.166-.658-2.044v-4.634h1.12v4.438c0 1.298.55 1.946 1.652 1.946.224 0 .439-.028.644-.084a1.71 1.71 0 0 0 .56-.252 1.203 1.203 0 0 0 .546-1.05v-4.998h1.12v7.224H66.7v-1.176zm6.22 1.344a3.28 3.28 0 0 1-1.343-.266 3 3 0 0 1-1.022-.756 3.76 3.76 0 0 1-.658-1.19 5.127 5.127 0 0 1-.224-1.568c0-.569.075-1.087.224-1.554.159-.466.378-.863.658-1.19a2.94 2.94 0 0 1 1.022-.77c.401-.177.85-.266 1.344-.266.485 0 .92.089 1.302.266.382.178.71.425.98.742.27.308.476.677.616 1.106.15.43.224.901.224 1.414v.532H70.85v.336c0 .308.047.598.14.868.103.262.243.49.42.686.187.196.41.35.672.462.27.112.574.168.91.168.457 0 .854-.107 1.19-.322.345-.214.611-.522.798-.924l.798.574a2.818 2.818 0 0 1-1.092 1.204c-.495.299-1.083.448-1.764.448zm0-6.622c-.307 0-.587.056-.84.168a1.88 1.88 0 0 0-.657.448c-.178.196-.318.43-.42.7a2.36 2.36 0 0 0-.154.868v.098h3.99v-.154c0-.644-.178-1.157-.532-1.54-.346-.392-.808-.588-1.386-.588zm8.669.21h-1.176v-.98h1.176v-1.456c0-.504.13-.91.392-1.218.261-.308.658-.462 1.19-.462h1.092v.98H82.71v2.156h1.554v.98H82.71v6.244h-1.12v-6.244zm6.822 6.412c-.485 0-.928-.088-1.33-.266a2.964 2.964 0 0 1-1.036-.756 3.76 3.76 0 0 1-.658-1.19 4.847 4.847 0 0 1-.238-1.568c0-.569.08-1.087.238-1.554.16-.466.378-.863.658-1.19.29-.336.635-.592 1.036-.77a3.26 3.26 0 0 1 1.33-.266c.486 0 .924.089 1.316.266.402.178.747.434 1.036.77.29.327.514.724.672 1.19.16.467.238.985.238 1.554 0 .579-.079 1.102-.238 1.568a3.615 3.615 0 0 1-.672 1.19c-.289.327-.634.579-1.036.756-.392.178-.83.266-1.316.266zm0-.994c.607 0 1.102-.186 1.484-.56.383-.373.574-.942.574-1.708v-1.036c0-.765-.19-1.334-.574-1.708-.382-.373-.877-.56-1.484-.56-.606 0-1.1.187-1.484.56-.382.374-.574.943-.574 1.708v1.036c0 .766.192 1.335.574 1.708.383.374.878.56 1.484.56zm5.664-8.092c-.242 0-.42-.056-.532-.168a.69.69 0 0 1-.154-.462v-.182c0-.186.052-.336.154-.448.112-.121.29-.182.532-.182.243 0 .416.061.518.182a.607.607 0 0 1 .168.448v.182a.653.653 0 0 1-.168.462c-.102.112-.275.168-.518.168zm-.56 1.694h1.12v7.224h-1.12v-7.224zm9.525 7.392c-.495 0-.943-.088-1.344-.266a2.996 2.996 0 0 1-1.022-.756 3.765 3.765 0 0 1-.658-1.19 5.124 5.124 0 0 1-.224-1.568c0-.569.075-1.087.224-1.554.159-.466.378-.863.658-1.19.289-.336.63-.592 1.022-.77a3.294 3.294 0 0 1 1.344-.266c.485 0 .919.089 1.302.266.383.178.709.425.98.742.271.308.476.677.616 1.106.149.43.224.901.224 1.414v.532h-5.194v.336c0 .308.047.598.14.868.103.262.243.49.42.686.187.196.411.35.672.462.271.112.574.168.91.168.457 0 .854-.107 1.19-.322.345-.214.611-.522.798-.924l.798.574a2.814 2.814 0 0 1-1.092 1.204c-.495.299-1.083.448-1.764.448zm0-6.622c-.308 0-.588.056-.84.168a1.883 1.883 0 0 0-.658.448 2.352 2.352 0 0 0-.574 1.568v.098h3.99v-.154c0-.644-.177-1.157-.532-1.54-.345-.392-.807-.588-1.386-.588zm7.138 6.622c-.672 0-1.237-.126-1.694-.378a3.935 3.935 0 0 1-1.162-1.036l.798-.644c.28.355.592.63.938.826.345.187.746.28 1.204.28.476 0 .844-.102 1.106-.308.27-.205.406-.494.406-.868a1 1 0 0 0-.28-.714c-.178-.205-.504-.345-.98-.42l-.574-.084a5.06 5.06 0 0 1-.924-.21 2.903 2.903 0 0 1-.742-.392 1.845 1.845 0 0 1-.49-.616 2.055 2.055 0 0 1-.168-.868c0-.354.065-.662.196-.924.13-.27.308-.494.532-.672.233-.177.508-.308.826-.392.317-.093.658-.14 1.022-.14.588 0 1.078.103 1.47.308.401.206.751.49 1.05.854l-.742.672c-.159-.224-.392-.424-.7-.602-.308-.186-.696-.28-1.162-.28-.467 0-.822.103-1.064.308-.234.196-.35.467-.35.812 0 .355.116.612.35.77.242.159.588.276 1.036.35l.56.084c.802.122 1.372.355 1.708.7.336.336.504.78.504 1.33 0 .7-.238 1.251-.714 1.652-.476.402-1.13.602-1.96.602zm6.152-.168c-.392 0-.691-.107-.896-.322-.196-.224-.294-.513-.294-.868v-5.054h-1.19v-.98h.672c.243 0 .406-.046.49-.14.093-.102.14-.275.14-.518v-1.344h1.008v2.002h1.582v.98h-1.582v5.264h1.47v.98h-1.4zm3.312 0v-7.224h1.12v1.33h.07c.131-.345.364-.653.7-.924.336-.27.798-.406 1.386-.406h.434v1.12h-.658c-.606 0-1.082.117-1.428.35-.336.224-.504.509-.504.854v4.9h-1.12zm9.593-1.176h-.056a3.43 3.43 0 0 1-.28.504 1.88 1.88 0 0 1-.392.434c-.159.122-.35.22-.574.294a2.471 2.471 0 0 1-.784.112c-.747 0-1.339-.238-1.778-.714-.439-.485-.658-1.166-.658-2.044v-4.634h1.12v4.438c0 1.298.551 1.946 1.652 1.946.224 0 .439-.028.644-.084a1.71 1.71 0 0 0 .56-.252 1.2 1.2 0 0 0 .392-.42 1.23 1.23 0 0 0 .154-.63v-4.998h1.12v7.224h-1.12v-1.176zm5.101 1.176c-.392 0-.691-.107-.896-.322-.196-.224-.294-.513-.294-.868v-5.054h-1.19v-.98h.672c.243 0 .406-.046.49-.14.093-.102.14-.275.14-.518v-1.344h1.008v2.002h1.582v.98h-1.582v5.264h1.47v.98h-1.4zm7.764-1.176h-.056a3.34 3.34 0 0 1-.28.504 1.857 1.857 0 0 1-.392.434c-.158.122-.35.22-.574.294a2.471 2.471 0 0 1-.784.112c-.746 0-1.339-.238-1.778-.714-.438-.485-.658-1.166-.658-2.044v-4.634h1.12v4.438c0 1.298.551 1.946 1.652 1.946.224 0 .439-.028.644-.084a1.7 1.7 0 0 0 .56-.252 1.2 1.2 0 0 0 .392-.42 1.23 1.23 0 0 0 .154-.63v-4.998h1.12v7.224h-1.12v-1.176zm3.505 1.176v-7.224h1.12v1.33h.07c.131-.345.364-.653.7-.924.336-.27.798-.406 1.386-.406h.434v1.12h-.658c-.606 0-1.082.117-1.428.35-.336.224-.504.509-.504.854v4.9h-1.12zm10.336 0c-.42 0-.723-.112-.91-.336a1.708 1.708 0 0 1-.336-.84h-.07c-.158.448-.42.784-.784 1.008-.364.224-.798.336-1.302.336-.765 0-1.362-.196-1.792-.588-.42-.392-.63-.924-.63-1.596 0-.681.248-1.204.742-1.568.504-.364 1.284-.546 2.338-.546h1.428v-.714c0-.513-.14-.905-.42-1.176-.28-.27-.709-.406-1.288-.406-.438 0-.807.098-1.106.294a2.464 2.464 0 0 0-.728.784l-.672-.63c.196-.392.509-.723.938-.994.43-.28.971-.42 1.624-.42.878 0 1.559.215 2.044.644.486.43.728 1.027.728 1.792v3.976h.826v.98h-.63zm-3.22-.784c.28 0 .537-.032.77-.098a1.86 1.86 0 0 0 .602-.28c.168-.121.299-.261.392-.42a.995.995 0 0 0 .14-.518v-1.19h-1.484c-.644 0-1.115.094-1.414.28a.91.91 0 0 0-.434.812v.294c0 .355.126.63.378.826.262.196.612.294 1.05.294zm10.069-.392h-.056c-.439.896-1.144 1.344-2.114 1.344-.448 0-.854-.088-1.218-.266a2.7 2.7 0 0 1-.938-.756 3.63 3.63 0 0 1-.588-1.19 5.795 5.795 0 0 1-.196-1.568c0-.578.065-1.101.196-1.568a3.65 3.65 0 0 1 .588-1.19c.261-.326.574-.578.938-.756.364-.177.77-.266 1.218-.266.504 0 .933.112 1.288.336.364.215.639.551.826 1.008h.056v-4.312h1.12v10.36h-1.12v-1.176zm-1.862.336c.252 0 .49-.032.714-.098a1.87 1.87 0 0 0 .602-.28c.168-.13.298-.284.392-.462.102-.186.154-.396.154-.63v-2.688c0-.196-.052-.378-.154-.546a1.302 1.302 0 0 0-.392-.448 1.913 1.913 0 0 0-.602-.28 2.262 2.262 0 0 0-.714-.112c-.635 0-1.134.201-1.498.602-.364.392-.546.91-.546 1.554v1.232c0 .644.182 1.167.546 1.568.364.392.863.588 1.498.588zm8.093 1.008a3.24 3.24 0 0 1-1.33-.266 2.955 2.955 0 0 1-1.036-.756c-.28-.336-.5-.732-.658-1.19a4.839 4.839 0 0 1-.238-1.568c0-.569.079-1.087.238-1.554a3.57 3.57 0 0 1 .658-1.19 2.896 2.896 0 0 1 1.036-.77 3.257 3.257 0 0 1 1.33-.266c.485 0 .924.089 1.316.266.401.178.746.434 1.036.77.289.327.513.724.672 1.19.158.467.238.985.238 1.554 0 .579-.08 1.102-.238 1.568a3.625 3.625 0 0 1-.672 1.19c-.29.327-.635.579-1.036.756a3.148 3.148 0 0 1-1.316.266zm0-.994c.606 0 1.101-.186 1.484-.56.382-.373.574-.942.574-1.708v-1.036c0-.765-.192-1.334-.574-1.708-.383-.373-.878-.56-1.484-.56-.607 0-1.102.187-1.484.56-.383.374-.574.943-.574 1.708v1.036c0 .766.191 1.335.574 1.708.382.374.877.56 1.484.56zm11.128.994c-.494 0-.942-.088-1.344-.266a3.006 3.006 0 0 1-1.022-.756 3.765 3.765 0 0 1-.658-1.19 5.137 5.137 0 0 1-.224-1.568c0-.569.075-1.087.224-1.554.159-.466.378-.863.658-1.19.29-.336.63-.592 1.022-.77a3.3 3.3 0 0 1 1.344-.266c.486 0 .92.089 1.302.266.383.178.71.425.98.742.271.308.476.677.616 1.106.15.43.224.901.224 1.414v.532h-5.194v.336c0 .308.047.598.14.868.103.262.243.49.42.686.187.196.411.35.672.462.271.112.574.168.91.168.458 0 .854-.107 1.19-.322.346-.214.612-.522.798-.924l.798.574a2.814 2.814 0 0 1-1.092 1.204c-.494.299-1.082.448-1.764.448zm0-6.622c-.308 0-.588.056-.84.168a1.883 1.883 0 0 0-.658.448c-.177.196-.317.43-.42.7a2.373 2.373 0 0 0-.154.868v.098h3.99v-.154c0-.644-.177-1.157-.532-1.54-.345-.392-.807-.588-1.386-.588zm4.968 6.454v-7.224h1.12v1.176h.056c.084-.186.177-.359.28-.518.112-.168.243-.312.392-.434.159-.121.341-.214.546-.28.205-.074.448-.112.728-.112.476 0 .915.117 1.316.35.401.224.7.598.896 1.12h.028c.131-.392.373-.732.728-1.022.364-.298.854-.448 1.47-.448.737 0 1.311.243 1.722.728.42.476.63 1.153.63 2.03v4.634h-1.12v-4.438c0-.644-.126-1.129-.378-1.456-.252-.326-.653-.49-1.204-.49-.224 0-.439.028-.644.084a1.75 1.75 0 0 0-.532.252 1.226 1.226 0 0 0-.518 1.036v5.012h-1.12v-4.438c0-.644-.126-1.129-.378-1.456-.252-.326-.644-.49-1.176-.49-.224 0-.439.028-.644.084-.205.056-.387.14-.546.252a1.355 1.355 0 0 0-.392.434c-.093.168-.14.369-.14.602v5.012h-1.12zM19.223 124.762h1.12v1.176h.056c.187-.457.458-.793.812-1.008.364-.224.798-.336 1.302-.336.448 0 .854.089 1.218.266.364.178.672.43.924.756.262.327.458.724.588 1.19.14.467.21.99.21 1.568 0 .579-.07 1.102-.21 1.568-.13.467-.326.864-.588 1.19-.252.327-.56.579-.924.756-.364.178-.77.266-1.218.266-.98 0-1.684-.448-2.114-1.344h-.056v3.976h-1.12v-10.024zm2.982 6.384c.635 0 1.134-.196 1.498-.588.364-.401.546-.924.546-1.568v-1.232c0-.644-.182-1.162-.546-1.554-.364-.401-.863-.602-1.498-.602-.252 0-.494.038-.728.112a1.93 1.93 0 0 0-.588.28 1.444 1.444 0 0 0-.406.448c-.093.168-.14.35-.14.546v2.688c0 .234.047.444.14.63.103.178.238.332.406.462.168.122.364.215.588.28.234.066.476.098.728.098zm5.14.84v-7.224h1.12v1.33h.07c.13-.345.363-.653.7-.924.335-.27.797-.406 1.386-.406h.434v1.12h-.659c-.606 0-1.082.117-1.428.35-.335.224-.503.509-.503.854v4.9h-1.12zm10.335 0c-.42 0-.723-.112-.91-.336a1.702 1.702 0 0 1-.336-.84h-.07c-.158.448-.42.784-.784 1.008-.364.224-.798.336-1.302.336-.765 0-1.362-.196-1.792-.588-.42-.392-.63-.924-.63-1.596 0-.681.248-1.204.742-1.568.504-.364 1.284-.546 2.338-.546h1.428v-.714c0-.513-.14-.905-.42-1.176-.28-.27-.709-.406-1.288-.406-.438 0-.807.098-1.106.294-.289.196-.532.458-.728.784l-.672-.63c.196-.392.51-.723.938-.994.43-.28.971-.42 1.624-.42.878 0 1.56.215 2.044.644.486.43.728 1.027.728 1.792v3.976h.826v.98h-.63zm-3.22-.784c.28 0 .537-.032.77-.098.234-.065.434-.158.602-.28a1.38 1.38 0 0 0 .392-.42 1 1 0 0 0 .14-.518v-1.19H34.88c-.644 0-1.115.094-1.414.28a.909.909 0 0 0-.434.812v.294c0 .355.126.63.378.826.262.196.612.294 1.05.294zm.42-7.406l-.728-.336 1.19-2.38 1.022.49-1.484 2.226zm6.625 8.19c-.392 0-.69-.107-.896-.322-.196-.224-.294-.513-.294-.868v-5.054h-1.19v-.98h.672c.243 0 .406-.046.49-.14.093-.102.14-.275.14-.518v-1.344h1.008v2.002h1.582v.98h-1.582v5.264h1.47v.98h-1.4zm3.872-8.918c-.242 0-.42-.056-.532-.168a.69.69 0 0 1-.154-.462v-.182c0-.186.051-.336.154-.448.112-.121.29-.182.532-.182.243 0 .415.061.518.182a.607.607 0 0 1 .168.448v.182a.653.653 0 0 1-.168.462c-.103.112-.275.168-.518.168zm-.56 1.694h1.12v7.224h-1.12v-7.224zm6.188 7.392c-.504 0-.957-.088-1.358-.266a2.83 2.83 0 0 1-1.022-.756 3.516 3.516 0 0 1-.63-1.19 5.444 5.444 0 0 1-.21-1.568c0-.578.07-1.101.21-1.568.15-.466.36-.863.63-1.19.28-.326.62-.578 1.022-.756a3.332 3.332 0 0 1 1.358-.266c.719 0 1.293.159 1.722.476.439.308.766.714.98 1.218l-.938.476a1.705 1.705 0 0 0-.644-.868c-.298-.205-.672-.308-1.12-.308-.336 0-.63.056-.882.168a1.623 1.623 0 0 0-.63.448 1.82 1.82 0 0 0-.378.686 2.83 2.83 0 0 0-.126.868v1.232c0 .635.168 1.158.504 1.568.346.402.85.602 1.512.602.905 0 1.559-.42 1.96-1.26l.812.546a2.852 2.852 0 0 1-1.05 1.246c-.457.308-1.031.462-1.722.462zm9.603-.168c-.42 0-.723-.112-.91-.336a1.7 1.7 0 0 1-.336-.84h-.07c-.159.448-.42.784-.784 1.008-.364.224-.798.336-1.302.336-.765 0-1.363-.196-1.792-.588-.42-.392-.63-.924-.63-1.596 0-.681.248-1.204.742-1.568.504-.364 1.283-.546 2.338-.546h1.428v-.714c0-.513-.14-.905-.42-1.176-.28-.27-.71-.406-1.288-.406-.439 0-.807.098-1.106.294a2.46 2.46 0 0 0-.728.784l-.672-.63c.196-.392.509-.723.938-.994.43-.28.97-.42 1.624-.42.877 0 1.559.215 2.044.644.486.43.728 1.027.728 1.792v3.976h.826v.98h-.63zm-3.22-.784c.28 0 .537-.032.77-.098.233-.065.434-.158.602-.28.168-.121.299-.261.392-.42.093-.158.14-.331.14-.518v-1.19h-1.484c-.644 0-1.115.094-1.414.28a.909.909 0 0 0-.434.812v.294c0 .355.126.63.378.826.261.196.611.294 1.05.294zm6.3-.854c.298 0 .513.08.643.238.14.15.21.346.21.588v.196c0 .383-.112.803-.336 1.26a3.705 3.705 0 0 1-.938 1.218h-.938c.28-.298.504-.583.672-.854a2.57 2.57 0 0 0 .378-.882.698.698 0 0 1-.42-.266.86.86 0 0 1-.126-.476v-.196c0-.242.066-.438.196-.588.14-.158.36-.238.658-.238zm6.409-5.586h1.12v1.176h.055c.187-.457.458-.793.813-1.008.364-.224.797-.336 1.302-.336.448 0 .853.089 1.218.266.364.178.671.43.923.756.262.327.458.724.588 1.19.14.467.21.99.21 1.568 0 .579-.07 1.102-.21 1.568a3.3 3.3 0 0 1-.588 1.19c-.252.327-.56.579-.924.756-.364.178-.77.266-1.218.266-.98 0-1.684-.448-2.114-1.344h-.056v3.976h-1.12v-10.024zm2.982 6.384c.634 0 1.134-.196 1.498-.588.364-.401.546-.924.546-1.568v-1.232c0-.644-.183-1.162-.547-1.554-.363-.401-.863-.602-1.497-.602-.252 0-.495.038-.728.112a1.93 1.93 0 0 0-.588.28 1.443 1.443 0 0 0-.407.448c-.093.168-.14.35-.14.546v2.688c0 .234.047.444.14.63.103.178.239.332.407.462.167.122.363.215.587.28.234.066.477.098.729.098zm10.389.84c-.42 0-.724-.112-.91-.336a1.7 1.7 0 0 1-.336-.84h-.07c-.16.448-.42.784-.784 1.008-.364.224-.798.336-1.302.336-.766 0-1.363-.196-1.792-.588-.42-.392-.63-.924-.63-1.596 0-.681.247-1.204.742-1.568.504-.364 1.283-.546 2.338-.546h1.428v-.714c0-.513-.14-.905-.42-1.176-.28-.27-.71-.406-1.288-.406-.44 0-.808.098-1.106.294a2.46 2.46 0 0 0-.728.784l-.672-.63c.196-.392.508-.723.938-.994.429-.28.97-.42 1.624-.42.877 0 1.558.215 2.044.644.485.43.728 1.027.728 1.792v3.976h.826v.98h-.63zm-3.22-.784c.28 0 .536-.032.77-.098.233-.065.434-.158.602-.28.168-.121.298-.261.392-.42.093-.158.14-.331.14-.518v-1.19h-1.484c-.644 0-1.116.094-1.414.28a.909.909 0 0 0-.434.812v.294c0 .355.126.63.378.826.26.196.61.294 1.05.294zm5.448.784v-7.224h1.12v1.33h.07c.13-.345.364-.653.7-.924.336-.27.798-.406 1.386-.406h.434v1.12h-.658c-.607 0-1.083.117-1.428.35-.336.224-.504.509-.504.854v4.9h-1.12zm10.336 0c-.42 0-.723-.112-.91-.336a1.702 1.702 0 0 1-.336-.84h-.07c-.159.448-.42.784-.784 1.008-.364.224-.798.336-1.302.336-.765 0-1.363-.196-1.792-.588-.42-.392-.63-.924-.63-1.596 0-.681.247-1.204.742-1.568.504-.364 1.283-.546 2.338-.546h1.428v-.714c0-.513-.14-.905-.42-1.176-.28-.27-.71-.406-1.288-.406-.439 0-.807.098-1.106.294-.29.196-.532.458-.728.784l-.672-.63c.196-.392.509-.723.938-.994.43-.28.97-.42 1.624-.42.877 0 1.559.215 2.044.644.485.43.728 1.027.728 1.792v3.976h.826v.98h-.63zm-3.22-.784c.28 0 .537-.032.77-.098.233-.065.434-.158.602-.28a1.38 1.38 0 0 0 .392-.42c.093-.158.14-.331.14-.518v-1.19h-1.484c-.644 0-1.115.094-1.414.28a.909.909 0 0 0-.434.812v.294c0 .355.126.63.378.826.261.196.611.294 1.05.294zm13.377-.392h-.056c-.439.896-1.143 1.344-2.114 1.344-.448 0-.854-.088-1.218-.266a2.7 2.7 0 0 1-.938-.756 3.63 3.63 0 0 1-.588-1.19 5.795 5.795 0 0 1-.196-1.568c0-.578.065-1.101.196-1.568a3.65 3.65 0 0 1 .588-1.19c.261-.326.574-.578.938-.756.364-.177.77-.266 1.218-.266.504 0 .933.112 1.288.336.364.215.639.551.826 1.008h.056v-1.176h1.12v10.024h-1.12v-3.976zm-1.862.336c.252 0 .49-.032.714-.098a1.87 1.87 0 0 0 .602-.28c.168-.13.299-.284.392-.462.103-.186.154-.396.154-.63v-2.688c0-.196-.051-.378-.154-.546a1.292 1.292 0 0 0-.392-.448 1.913 1.913 0 0 0-.602-.28 2.262 2.262 0 0 0-.714-.112c-.635 0-1.134.201-1.498.602-.364.392-.546.91-.546 1.554v1.232c0 .644.182 1.167.546 1.568.364.392.863.588 1.498.588zm9.815-.336h-.056a3.34 3.34 0 0 1-.28.504 1.857 1.857 0 0 1-.392.434c-.158.122-.35.22-.574.294a2.471 2.471 0 0 1-.784.112c-.746 0-1.339-.238-1.778-.714-.438-.485-.658-1.166-.658-2.044v-4.634h1.12v4.438c0 1.298.551 1.946 1.652 1.946.224 0 .439-.028.644-.084a1.7 1.7 0 0 0 .56-.252 1.2 1.2 0 0 0 .392-.42 1.23 1.23 0 0 0 .154-.63v-4.998h1.12v7.224h-1.12v-1.176zm6.221 1.344c-.494 0-.942-.088-1.344-.266a3.006 3.006 0 0 1-1.022-.756 3.765 3.765 0 0 1-.658-1.19 5.137 5.137 0 0 1-.224-1.568c0-.569.075-1.087.224-1.554.159-.466.378-.863.658-1.19.29-.336.63-.592 1.022-.77a3.3 3.3 0 0 1 1.344-.266c.486 0 .92.089 1.302.266.383.178.71.425.98.742.271.308.476.677.616 1.106.15.43.224.901.224 1.414v.532h-5.194v.336c0 .308.047.598.14.868.103.262.243.49.42.686.187.196.411.35.672.462.271.112.574.168.91.168.458 0 .854-.107 1.19-.322.346-.214.612-.522.798-.924l.798.574a2.814 2.814 0 0 1-1.092 1.204c-.494.299-1.082.448-1.764.448zm0-6.622c-.308 0-.588.056-.84.168a1.883 1.883 0 0 0-.658.448c-.177.196-.317.43-.42.7a2.373 2.373 0 0 0-.154.868v.098h3.99v-.154c0-.644-.177-1.157-.532-1.54-.345-.392-.807-.588-1.386-.588zm10.964 6.622c-.504 0-.956-.088-1.358-.266a2.834 2.834 0 0 1-1.022-.756 3.54 3.54 0 0 1-.63-1.19 5.444 5.444 0 0 1-.21-1.568c0-.578.07-1.101.21-1.568.15-.466.36-.863.63-1.19.28-.326.621-.578 1.022-.756a3.334 3.334 0 0 1 1.358-.266c.719 0 1.293.159 1.722.476.439.308.766.714.98 1.218l-.938.476a1.699 1.699 0 0 0-.644-.868c-.298-.205-.672-.308-1.12-.308-.336 0-.63.056-.882.168a1.623 1.623 0 0 0-.63.448 1.82 1.82 0 0 0-.378.686 2.83 2.83 0 0 0-.126.868v1.232c0 .635.168 1.158.504 1.568.346.402.85.602 1.512.602.906 0 1.559-.42 1.96-1.26l.812.546a2.847 2.847 0 0 1-1.05 1.246c-.457.308-1.031.462-1.722.462zm7.001 0c-.485 0-.928-.088-1.33-.266a2.973 2.973 0 0 1-1.036-.756 3.765 3.765 0 0 1-.658-1.19 4.866 4.866 0 0 1-.238-1.568c0-.569.08-1.087.238-1.554.159-.466.378-.863.658-1.19.29-.336.635-.592 1.036-.77a3.264 3.264 0 0 1 1.33-.266c.486 0 .924.089 1.316.266.402.178.747.434 1.036.77.29.327.514.724.672 1.19.159.467.238.985.238 1.554 0 .579-.079 1.102-.238 1.568a3.59 3.59 0 0 1-.672 1.19 2.955 2.955 0 0 1-1.036.756c-.392.178-.83.266-1.316.266zm0-.994c.607 0 1.102-.186 1.484-.56.383-.373.574-.942.574-1.708v-1.036c0-.765-.191-1.334-.574-1.708-.382-.373-.877-.56-1.484-.56-.606 0-1.101.187-1.484.56-.382.374-.574.943-.574 1.708v1.036c0 .766.192 1.335.574 1.708.383.374.878.56 1.484.56zm5.104.826v-7.224h1.12v1.176h.056c.178-.41.425-.737.742-.98.327-.242.761-.364 1.302-.364.747 0 1.335.243 1.764.728.439.476.658 1.153.658 2.03v4.634h-1.12v-4.438c0-1.297-.546-1.946-1.638-1.946-.224 0-.443.028-.658.084a1.91 1.91 0 0 0-.56.252 1.299 1.299 0 0 0-.406.434c-.093.168-.14.369-.14.602v5.012h-1.12zm10.127.168c-.672 0-1.236-.126-1.694-.378a3.947 3.947 0 0 1-1.162-1.036l.798-.644c.28.355.593.63.938.826.346.187.747.28 1.204.28.476 0 .845-.102 1.106-.308.271-.205.406-.494.406-.868a.996.996 0 0 0-.28-.714c-.177-.205-.504-.345-.98-.42l-.574-.084a5.06 5.06 0 0 1-.924-.21 2.92 2.92 0 0 1-.742-.392 1.87 1.87 0 0 1-.49-.616 2.055 2.055 0 0 1-.168-.868c0-.354.066-.662.196-.924.131-.27.308-.494.532-.672a2.35 2.35 0 0 1 .826-.392c.318-.093.658-.14 1.022-.14.588 0 1.078.103 1.47.308.402.206.752.49 1.05.854l-.742.672c-.158-.224-.392-.424-.7-.602-.308-.186-.695-.28-1.162-.28-.466 0-.821.103-1.064.308-.233.196-.35.467-.35.812 0 .355.117.612.35.77.243.159.588.276 1.036.35l.56.084c.803.122 1.372.355 1.708.7.336.336.504.78.504 1.33 0 .7-.238 1.251-.714 1.652-.476.402-1.129.602-1.96.602zm5.213-9.086c-.243 0-.42-.056-.532-.168a.688.688 0 0 1-.154-.462v-.182c0-.186.051-.336.154-.448.112-.121.289-.182.532-.182.242 0 .415.061.518.182a.607.607 0 0 1 .168.448v.182a.653.653 0 0 1-.168.462c-.103.112-.276.168-.518.168zm-.56 1.694h1.12v7.224h-1.12v-7.224zm9.59 8.022c0 .747-.294 1.293-.882 1.638-.579.355-1.452.532-2.618.532-1.13 0-1.942-.154-2.436-.462-.495-.308-.742-.746-.742-1.316 0-.392.102-.7.308-.924.205-.214.485-.373.84-.476v-.154c-.43-.205-.644-.541-.644-1.008 0-.364.116-.639.35-.826.233-.196.532-.34.896-.434v-.056a2.368 2.368 0 0 1-1.008-.882c-.234-.382-.35-.826-.35-1.33 0-.364.065-.7.196-1.008.13-.308.312-.569.546-.784.242-.224.527-.396.854-.518a3.285 3.285 0 0 1 1.12-.182c.513 0 .97.094 1.372.28v-.126c0-.28.065-.508.196-.686.13-.186.345-.28.644-.28h1.078v.98h-1.372v.462c.261.224.462.495.602.812.149.308.224.658.224 1.05 0 .364-.066.7-.196 1.008a2.303 2.303 0 0 1-.56.798 2.491 2.491 0 0 1-.854.504c-.336.122-.71.182-1.12.182-.234 0-.467-.023-.7-.07a2.245 2.245 0 0 0-.658.294.577.577 0 0 0-.294.518c0 .215.102.36.308.434.205.075.471.112.798.112h1.54c.896 0 1.544.173 1.946.518.41.336.616.803.616 1.4zm-1.05.084a.85.85 0 0 0-.336-.7c-.215-.168-.602-.252-1.162-.252h-2.408c-.448.206-.672.532-.672.98 0 .318.116.588.35.812.242.224.648.336 1.218.336h1.036c.625 0 1.11-.098 1.456-.294.345-.196.518-.49.518-.882zm-2.506-4.186c.476 0 .854-.112 1.134-.336.28-.233.42-.588.42-1.064v-.392c0-.476-.14-.826-.42-1.05-.28-.233-.658-.35-1.134-.35-.476 0-.854.117-1.134.35-.28.224-.42.574-.42 1.05v.392c0 .476.14.831.42 1.064.28.224.658.336 1.134.336zm10.071 3.304c-.42 0-.723-.112-.91-.336a1.708 1.708 0 0 1-.336-.84h-.07c-.158.448-.42.784-.784 1.008-.364.224-.798.336-1.302.336-.765 0-1.362-.196-1.792-.588-.42-.392-.63-.924-.63-1.596 0-.681.248-1.204.742-1.568.504-.364 1.284-.546 2.338-.546h1.428v-.714c0-.513-.14-.905-.42-1.176-.28-.27-.709-.406-1.288-.406-.438 0-.807.098-1.106.294a2.464 2.464 0 0 0-.728.784l-.672-.63c.196-.392.509-.723.938-.994.43-.28.971-.42 1.624-.42.878 0 1.559.215 2.044.644.486.43.728 1.027.728 1.792v3.976h.826v.98h-.63zm-3.22-.784c.28 0 .537-.032.77-.098a1.86 1.86 0 0 0 .602-.28c.168-.121.299-.261.392-.42a.995.995 0 0 0 .14-.518v-1.19h-1.484c-.644 0-1.115.094-1.414.28a.91.91 0 0 0-.434.812v.294c0 .355.126.63.378.826.262.196.612.294 1.05.294zm5.449.784v-7.224h1.12v1.176h.056c.084-.186.177-.359.28-.518.112-.168.242-.312.392-.434.158-.121.34-.214.546-.28.205-.074.448-.112.728-.112.476 0 .914.117 1.316.35.401.224.7.598.896 1.12h.028c.13-.392.373-.732.728-1.022.364-.298.854-.448 1.47-.448.737 0 1.311.243 1.722.728.42.476.63 1.153.63 2.03v4.634h-1.12v-4.438c0-.644-.126-1.129-.378-1.456-.252-.326-.654-.49-1.204-.49-.224 0-.439.028-.644.084a1.74 1.74 0 0 0-.532.252 1.211 1.211 0 0 0-.378.434c-.094.168-.14.369-.14.602v5.012h-1.12v-4.438c0-.644-.126-1.129-.378-1.456-.252-.326-.644-.49-1.176-.49-.224 0-.439.028-.644.084a1.71 1.71 0 0 0-.546.252c-.159.112-.29.257-.392.434-.094.168-.14.369-.14.602v5.012h-1.12zm14.952.168c-.485 0-.928-.088-1.33-.266a2.973 2.973 0 0 1-1.036-.756 3.765 3.765 0 0 1-.658-1.19 4.866 4.866 0 0 1-.238-1.568c0-.569.08-1.087.238-1.554.159-.466.378-.863.658-1.19.29-.336.635-.592 1.036-.77a3.264 3.264 0 0 1 1.33-.266c.486 0 .924.089 1.316.266.402.178.747.434 1.036.77.29.327.514.724.672 1.19.159.467.238.985.238 1.554 0 .579-.079 1.102-.238 1.568a3.59 3.59 0 0 1-.672 1.19 2.955 2.955 0 0 1-1.036.756c-.392.178-.83.266-1.316.266zm0-.994c.607 0 1.102-.186 1.484-.56.383-.373.574-.942.574-1.708v-1.036c0-.765-.191-1.334-.574-1.708-.382-.373-.877-.56-1.484-.56-.606 0-1.101.187-1.484.56-.382.374-.574.943-.574 1.708v1.036c0 .766.192 1.335.574 1.708.383.374.878.56 1.484.56zm7.274.994c-.672 0-1.236-.126-1.694-.378a3.947 3.947 0 0 1-1.162-1.036l.798-.644c.28.355.593.63.938.826.346.187.747.28 1.204.28.476 0 .845-.102 1.106-.308.271-.205.406-.494.406-.868a.996.996 0 0 0-.28-.714c-.177-.205-.504-.345-.98-.42l-.574-.084a5.06 5.06 0 0 1-.924-.21 2.92 2.92 0 0 1-.742-.392 1.87 1.87 0 0 1-.49-.616 2.055 2.055 0 0 1-.168-.868c0-.354.066-.662.196-.924.131-.27.308-.494.532-.672a2.35 2.35 0 0 1 .826-.392c.318-.093.658-.14 1.022-.14.588 0 1.078.103 1.47.308.402.206.752.49 1.05.854l-.742.672c-.158-.224-.392-.424-.7-.602-.308-.186-.695-.28-1.162-.28-.466 0-.821.103-1.064.308-.233.196-.35.467-.35.812 0 .355.117.612.35.77.243.159.588.276 1.036.35l.56.084c.803.122 1.372.355 1.708.7.336.336.504.78.504 1.33 0 .7-.238 1.251-.714 1.652-.476.402-1.129.602-1.96.602zm-176.52 8.914c-.243 0-.42-.056-.533-.168a.69.69 0 0 1-.154-.462v-.182c0-.186.051-.336.154-.448.112-.121.29-.182.532-.182.243 0 .415.061.518.182a.607.607 0 0 1 .168.448v.182a.653.653 0 0 1-.168.462c-.102.112-.275.168-.518.168zm-.56 1.694h1.12v7.224h-1.12v-7.224zm3.5 7.224v-7.224h1.12v1.176h.055a3.95 3.95 0 0 1 .28-.518 1.96 1.96 0 0 1 .392-.434 1.8 1.8 0 0 1 .546-.28c.206-.074.448-.112.728-.112.476 0 .915.117 1.316.35.401.224.7.598.896 1.12h.028c.13-.392.373-.732.728-1.022.364-.298.854-.448 1.47-.448.738 0 1.312.243 1.722.728.42.476.63 1.153.63 2.03v4.634h-1.12v-4.438c0-.644-.126-1.129-.378-1.456-.252-.326-.653-.49-1.204-.49-.224 0-.439.028-.644.084-.196.056-.373.14-.532.252a1.217 1.217 0 0 0-.378.434c-.093.168-.14.369-.14.602v5.012h-1.12v-4.438c0-.644-.126-1.129-.378-1.456-.252-.326-.644-.49-1.176-.49-.224 0-.439.028-.644.084-.205.056-.387.14-.546.252-.159.112-.29.257-.392.434-.093.168-.14.369-.14.602v5.012h-1.12zm12.222-7.224h1.12v1.176h.056c.186-.457.457-.793.812-1.008.364-.224.798-.336 1.302-.336.448 0 .854.089 1.218.266.364.178.672.43.924.756.261.327.457.724.588 1.19.14.467.21.99.21 1.568 0 .579-.07 1.102-.21 1.568-.13.467-.327.864-.588 1.19-.252.327-.56.579-.924.756-.364.178-.77.266-1.218.266-.98 0-1.685-.448-2.114-1.344h-.056v3.976h-1.12v-10.024zm2.982 6.384c.635 0 1.134-.196 1.498-.588.364-.401.546-.924.546-1.568v-1.232c0-.644-.182-1.162-.546-1.554-.364-.401-.863-.602-1.498-.602-.252 0-.495.038-.728.112a1.93 1.93 0 0 0-.588.28 1.444 1.444 0 0 0-.406.448c-.093.168-.14.35-.14.546v2.688c0 .234.047.444.14.63.102.178.238.332.406.462.168.122.364.215.588.28.233.066.476.098.728.098zm10.389.84c-.42 0-.723-.112-.91-.336a1.702 1.702 0 0 1-.336-.84h-.07c-.159.448-.42.784-.784 1.008-.364.224-.798.336-1.302.336-.765 0-1.363-.196-1.792-.588-.42-.392-.63-.924-.63-1.596 0-.681.247-1.204.742-1.568.504-.364 1.283-.546 2.338-.546h1.428v-.714c0-.513-.14-.905-.42-1.176-.28-.27-.71-.406-1.288-.406-.439 0-.807.098-1.106.294-.29.196-.532.458-.728.784l-.672-.63c.196-.392.509-.723.938-.994.43-.28.97-.42 1.624-.42.877 0 1.559.215 2.044.644.485.43.728 1.027.728 1.792v3.976h.826v.98h-.63zm-3.22-.784c.28 0 .537-.032.77-.098.233-.065.434-.158.602-.28a1.38 1.38 0 0 0 .392-.42 1 1 0 0 0 .14-.518v-1.19h-1.484c-.644 0-1.115.094-1.414.28a.909.909 0 0 0-.434.812v.294c0 .355.126.63.378.826.261.196.611.294 1.05.294zm8.137.952c-.505 0-.957-.088-1.358-.266a2.83 2.83 0 0 1-1.023-.756 3.516 3.516 0 0 1-.63-1.19 5.444 5.444 0 0 1-.21-1.568c0-.578.07-1.101.21-1.568.15-.466.36-.863.63-1.19.28-.326.621-.578 1.023-.756a3.332 3.332 0 0 1 1.358-.266c.718 0 1.292.159 1.721.476.44.308.766.714.98 1.218l-.938.476a1.705 1.705 0 0 0-.644-.868c-.298-.205-.671-.308-1.12-.308-.336 0-.63.056-.882.168a1.623 1.623 0 0 0-.63.448 1.82 1.82 0 0 0-.377.686 2.83 2.83 0 0 0-.127.868v1.232c0 .635.168 1.158.505 1.568.345.402.849.602 1.512.602.905 0 1.558-.42 1.96-1.26l.812.546a2.852 2.852 0 0 1-1.05 1.246c-.458.308-1.032.462-1.722.462zm5.949-.168c-.393 0-.691-.107-.897-.322-.195-.224-.293-.513-.293-.868v-5.054h-1.19v-.98h.672c.242 0 .406-.046.49-.14.093-.102.14-.275.14-.518v-1.344h1.008v2.002h1.581v.98h-1.581v5.264h1.47v.98h-1.4zm8.562 0c-.42 0-.724-.112-.91-.336a1.7 1.7 0 0 1-.336-.84h-.07c-.159.448-.42.784-.784 1.008-.364.224-.798.336-1.302.336-.766 0-1.363-.196-1.792-.588-.42-.392-.63-.924-.63-1.596 0-.681.247-1.204.742-1.568.504-.364 1.283-.546 2.338-.546h1.428v-.714c0-.513-.14-.905-.42-1.176-.28-.27-.71-.406-1.288-.406-.439 0-.808.098-1.106.294a2.46 2.46 0 0 0-.728.784l-.672-.63c.196-.392.508-.723.938-.994.429-.28.97-.42 1.624-.42.877 0 1.558.215 2.044.644.485.43.728 1.027.728 1.792v3.976h.826v.98h-.63zm-3.22-.784c.28 0 .536-.032.77-.098.233-.065.434-.158.602-.28.168-.121.298-.261.392-.42.093-.158.14-.331.14-.518v-1.19h-1.484c-.644 0-1.116.094-1.414.28a.909.909 0 0 0-.434.812v.294c0 .355.126.63.378.826.261.196.611.294 1.05.294zm5.448.784v-7.224h1.12v1.33h.07c.13-.345.364-.653.7-.924.336-.27.798-.406 1.386-.406h.434v1.12h-.658c-.606 0-1.082.117-1.428.35-.336.224-.504.509-.504.854v4.9h-1.12zm13.7 0c-.42 0-.724-.112-.91-.336a1.702 1.702 0 0 1-.337-.84h-.07c-.158.448-.42.784-.784 1.008-.364.224-.798.336-1.302.336-.765 0-1.362-.196-1.792-.588-.42-.392-.63-.924-.63-1.596 0-.681.248-1.204.742-1.568.504-.364 1.284-.546 2.338-.546h1.428v-.714c0-.513-.14-.905-.42-1.176-.28-.27-.709-.406-1.288-.406-.438 0-.807.098-1.106.294-.289.196-.532.458-.728.784l-.672-.63c.196-.392.51-.723.938-.994.43-.28.971-.42 1.624-.42.878 0 1.56.215 2.044.644.486.43.728 1.027.728 1.792v3.976h.826v.98h-.63zm-3.22-.784c.28 0 .536-.032.77-.098.233-.065.433-.158.601-.28a1.38 1.38 0 0 0 .392-.42c.094-.158.14-.331.14-.518v-1.19H83.34c-.644 0-1.115.094-1.414.28a.909.909 0 0 0-.434.812v.294c0 .355.126.63.378.826.262.196.612.294 1.05.294zm7.618.952c-.672 0-1.237-.126-1.694-.378a3.944 3.944 0 0 1-1.162-1.036l.798-.644c.28.355.593.63.938.826.345.187.747.28 1.204.28.476 0 .845-.102 1.106-.308.27-.205.406-.494.406-.868a.997.997 0 0 0-.28-.714c-.177-.205-.504-.345-.98-.42l-.574-.084a5.06 5.06 0 0 1-.924-.21 2.915 2.915 0 0 1-.742-.392 1.86 1.86 0 0 1-.49-.616 2.055 2.055 0 0 1-.168-.868c0-.354.065-.662.196-.924.13-.27.308-.494.532-.672.233-.177.509-.308.826-.392.317-.093.658-.14 1.022-.14.588 0 1.078.103 1.47.308.401.206.751.49 1.05.854l-.742.672c-.159-.224-.392-.424-.7-.602-.308-.186-.695-.28-1.162-.28-.467 0-.821.103-1.064.308-.233.196-.35.467-.35.812 0 .355.117.612.35.77.243.159.588.276 1.036.35l.56.084c.803.122 1.372.355 1.708.7.336.336.504.78.504 1.33 0 .7-.238 1.251-.714 1.652-.476.402-1.13.602-1.96.602zm7.96-7.392h1.12v1.176h.057c.186-.457.457-.793.812-1.008.364-.224.798-.336 1.302-.336.448 0 .854.089 1.218.266.364.178.672.43.924.756.261.327.457.724.588 1.19.14.467.21.99.21 1.568 0 .579-.07 1.102-.21 1.568a3.31 3.31 0 0 1-.588 1.19c-.252.327-.56.579-.924.756-.364.178-.77.266-1.218.266-.98 0-1.685-.448-2.114-1.344h-.056v3.976H98.5v-10.024zm2.983 6.384c.634 0 1.134-.196 1.498-.588.364-.401.546-.924.546-1.568v-1.232c0-.644-.182-1.162-.546-1.554-.364-.401-.864-.602-1.498-.602-.252 0-.495.038-.728.112a1.93 1.93 0 0 0-.588.28 1.442 1.442 0 0 0-.406.448c-.094.168-.14.35-.14.546v2.688c0 .234.046.444.14.63.102.178.238.332.406.462.168.122.364.215.588.28.233.066.476.098.728.098zm7.855 1.008c-.495 0-.943-.088-1.344-.266a2.996 2.996 0 0 1-1.022-.756 3.765 3.765 0 0 1-.658-1.19 5.137 5.137 0 0 1-.224-1.568c0-.569.075-1.087.224-1.554.159-.466.378-.863.658-1.19.289-.336.63-.592 1.022-.77a3.294 3.294 0 0 1 1.344-.266c.485 0 .919.089 1.302.266.383.178.709.425.98.742.271.308.476.677.616 1.106.149.43.224.901.224 1.414v.532h-5.194v.336c0 .308.047.598.14.868.103.262.243.49.42.686.187.196.411.35.672.462.271.112.574.168.91.168.457 0 .854-.107 1.19-.322.345-.214.611-.522.798-.924l.798.574a2.814 2.814 0 0 1-1.092 1.204c-.495.299-1.083.448-1.764.448zm0-6.622c-.308 0-.588.056-.84.168a1.883 1.883 0 0 0-.658.448 2.352 2.352 0 0 0-.574 1.568v.098h3.99v-.154c0-.644-.177-1.157-.532-1.54-.345-.392-.807-.588-1.386-.588zm7.137 6.622c-.672 0-1.236-.126-1.694-.378a3.947 3.947 0 0 1-1.162-1.036l.798-.644c.28.355.593.63.938.826.346.187.747.28 1.204.28.476 0 .845-.102 1.106-.308.271-.205.406-.494.406-.868a.996.996 0 0 0-.28-.714c-.177-.205-.504-.345-.98-.42l-.574-.084a5.06 5.06 0 0 1-.924-.21 2.92 2.92 0 0 1-.742-.392 1.87 1.87 0 0 1-.49-.616 2.055 2.055 0 0 1-.168-.868c0-.354.066-.662.196-.924.131-.27.308-.494.532-.672a2.35 2.35 0 0 1 .826-.392c.318-.093.658-.14 1.022-.14.588 0 1.078.103 1.47.308.402.206.752.49 1.05.854l-.742.672c-.158-.224-.392-.424-.7-.602-.308-.186-.695-.28-1.162-.28-.466 0-.821.103-1.064.308-.233.196-.35.467-.35.812 0 .355.117.612.35.77.243.159.588.276 1.036.35l.56.084c.803.122 1.372.355 1.708.7.336.336.504.78.504 1.33 0 .7-.238 1.251-.714 1.652-.476.402-1.129.602-1.96.602zm6.741 0c-.672 0-1.237-.126-1.694-.378a3.935 3.935 0 0 1-1.162-1.036l.798-.644c.28.355.592.63.938.826.345.187.746.28 1.204.28.476 0 .844-.102 1.106-.308.27-.205.406-.494.406-.868a1 1 0 0 0-.28-.714c-.178-.205-.504-.345-.98-.42l-.574-.084a5.06 5.06 0 0 1-.924-.21 2.903 2.903 0 0 1-.742-.392 1.845 1.845 0 0 1-.49-.616 2.055 2.055 0 0 1-.168-.868c0-.354.065-.662.196-.924.13-.27.308-.494.532-.672.233-.177.508-.308.826-.392.317-.093.658-.14 1.022-.14.588 0 1.078.103 1.47.308.401.206.751.49 1.05.854l-.742.672c-.159-.224-.392-.424-.7-.602-.308-.186-.696-.28-1.162-.28-.467 0-.822.103-1.064.308-.234.196-.35.467-.35.812 0 .355.116.612.35.77.242.159.588.276 1.036.35l.56.084c.802.122 1.372.355 1.708.7.336.336.504.78.504 1.33 0 .7-.238 1.251-.714 1.652-.476.402-1.13.602-1.96.602zm7.382 0c-.485 0-.929-.088-1.33-.266a2.964 2.964 0 0 1-1.036-.756 3.765 3.765 0 0 1-.658-1.19 4.839 4.839 0 0 1-.238-1.568c0-.569.079-1.087.238-1.554.159-.466.378-.863.658-1.19a2.905 2.905 0 0 1 1.036-.77 3.26 3.26 0 0 1 1.33-.266c.485 0 .924.089 1.316.266.401.178.747.434 1.036.77.289.327.513.724.672 1.19.159.467.238.985.238 1.554 0 .579-.079 1.102-.238 1.568a3.625 3.625 0 0 1-.672 1.19 2.964 2.964 0 0 1-1.036.756 3.148 3.148 0 0 1-1.316.266zm0-.994c.607 0 1.101-.186 1.484-.56.383-.373.574-.942.574-1.708v-1.036c0-.765-.191-1.334-.574-1.708-.383-.373-.877-.56-1.484-.56s-1.101.187-1.484.56c-.383.374-.574.943-.574 1.708v1.036c0 .766.191 1.335.574 1.708.383.374.877.56 1.484.56zm10.354.826c-.42 0-.723-.112-.91-.336a1.708 1.708 0 0 1-.336-.84h-.07c-.159.448-.42.784-.784 1.008-.364.224-.798.336-1.302.336-.765 0-1.363-.196-1.792-.588-.42-.392-.63-.924-.63-1.596 0-.681.247-1.204.742-1.568.504-.364 1.283-.546 2.338-.546h1.428v-.714c0-.513-.14-.905-.42-1.176-.28-.27-.709-.406-1.288-.406-.439 0-.807.098-1.106.294a2.464 2.464 0 0 0-.728.784l-.672-.63c.196-.392.509-.723.938-.994.429-.28.971-.42 1.624-.42.877 0 1.559.215 2.044.644.485.43.728 1.027.728 1.792v3.976h.826v.98h-.63zm-3.22-.784c.28 0 .537-.032.77-.098a1.87 1.87 0 0 0 .602-.28c.168-.121.299-.261.392-.42.093-.158.14-.331.14-.518v-1.19h-1.484c-.644 0-1.115.094-1.414.28a.91.91 0 0 0-.434.812v.294c0 .355.126.63.378.826.261.196.611.294 1.05.294zm7.618.952c-.672 0-1.236-.126-1.694-.378a3.947 3.947 0 0 1-1.162-1.036l.798-.644c.28.355.593.63.938.826.346.187.747.28 1.204.28.476 0 .845-.102 1.106-.308.271-.205.406-.494.406-.868a.996.996 0 0 0-.28-.714c-.177-.205-.504-.345-.98-.42l-.574-.084a5.06 5.06 0 0 1-.924-.21 2.92 2.92 0 0 1-.742-.392 1.87 1.87 0 0 1-.49-.616 2.055 2.055 0 0 1-.168-.868c0-.354.066-.662.196-.924.131-.27.308-.494.532-.672a2.35 2.35 0 0 1 .826-.392c.318-.093.658-.14 1.022-.14.588 0 1.078.103 1.47.308.402.206.752.49 1.05.854l-.742.672c-.158-.224-.392-.424-.7-.602-.308-.186-.695-.28-1.162-.28-.466 0-.821.103-1.064.308-.233.196-.35.467-.35.812 0 .355.117.612.35.77.243.159.588.276 1.036.35l.56.084c.803.122 1.372.355 1.708.7.336.336.504.78.504 1.33 0 .7-.238 1.251-.714 1.652-.476.402-1.129.602-1.96.602zm10.677 0c-.494 0-.942-.088-1.344-.266a3.006 3.006 0 0 1-1.022-.756 3.765 3.765 0 0 1-.658-1.19 5.137 5.137 0 0 1-.224-1.568c0-.569.075-1.087.224-1.554.159-.466.378-.863.658-1.19.29-.336.63-.592 1.022-.77a3.3 3.3 0 0 1 1.344-.266c.486 0 .92.089 1.302.266.383.178.71.425.98.742.271.308.476.677.616 1.106.15.43.224.901.224 1.414v.532h-5.194v.336c0 .308.047.598.14.868.103.262.243.49.42.686.187.196.411.35.672.462.271.112.574.168.91.168.458 0 .854-.107 1.19-.322.346-.214.612-.522.798-.924l.798.574a2.814 2.814 0 0 1-1.092 1.204c-.494.299-1.082.448-1.764.448zm0-6.622c-.308 0-.588.056-.84.168a1.883 1.883 0 0 0-.658.448c-.177.196-.317.43-.42.7a2.373 2.373 0 0 0-.154.868v.098h3.99v-.154c0-.644-.177-1.157-.532-1.54-.345-.392-.807-.588-1.386-.588zm9.873 6.454c-.392 0-.691-.107-.896-.322-.196-.224-.294-.513-.294-.868v-5.054h-1.19v-.98h.672c.242 0 .406-.046.49-.14.093-.102.14-.275.14-.518v-1.344h1.008v2.002h1.582v.98h-1.582v5.264h1.47v.98h-1.4zm3.312 0v-7.224h1.12v1.33h.07c.13-.345.364-.653.7-.924.336-.27.798-.406 1.386-.406h.434v1.12h-.658c-.607 0-1.083.117-1.428.35-.336.224-.504.509-.504.854v4.9h-1.12zm10.336 0c-.42 0-.724-.112-.91-.336a1.69 1.69 0 0 1-.336-.84h-.07c-.159.448-.42.784-.784 1.008-.364.224-.798.336-1.302.336-.766 0-1.363-.196-1.792-.588-.42-.392-.63-.924-.63-1.596 0-.681.247-1.204.742-1.568.504-.364 1.283-.546 2.338-.546h1.428v-.714c0-.513-.14-.905-.42-1.176-.28-.27-.71-.406-1.288-.406-.439 0-.808.098-1.106.294-.29.196-.532.458-.728.784l-.672-.63c.196-.392.508-.723.938-.994.429-.28.97-.42 1.624-.42.877 0 1.558.215 2.044.644.485.43.728 1.027.728 1.792v3.976h.826v.98h-.63zm-3.22-.784c.28 0 .536-.032.77-.098a1.87 1.87 0 0 0 .602-.28c.168-.121.298-.261.392-.42.093-.158.14-.331.14-.518v-1.19h-1.484c-.644 0-1.116.094-1.414.28a.907.907 0 0 0-.434.812v.294c0 .355.126.63.378.826.261.196.611.294 1.05.294zm4.72.784v-.938l4.102-5.306h-3.976v-.98h5.334v.84l-4.186 5.404h4.298v.98h-5.572zm9.802.168c-.495 0-.943-.088-1.344-.266a2.996 2.996 0 0 1-1.022-.756c-.28-.336-.5-.732-.658-1.19a5.106 5.106 0 0 1-.224-1.568c0-.569.074-1.087.224-1.554a3.57 3.57 0 0 1 .658-1.19c.289-.336.63-.592 1.022-.77a3.294 3.294 0 0 1 1.344-.266c.485 0 .919.089 1.302.266.382.178.709.425.98.742.27.308.476.677.616 1.106.149.43.224.901.224 1.414v.532h-5.194v.336c0 .308.046.598.14.868.102.262.242.49.42.686.186.196.41.35.672.462.27.112.574.168.91.168.457 0 .854-.107 1.19-.322.345-.214.611-.522.798-.924l.798.574a2.827 2.827 0 0 1-1.092 1.204c-.495.299-1.083.448-1.764.448zm0-6.622c-.308 0-.588.056-.84.168a1.874 1.874 0 0 0-.658.448 2.352 2.352 0 0 0-.574 1.568v.098h3.99v-.154c0-.644-.178-1.157-.532-1.54-.346-.392-.808-.588-1.386-.588zm4.967 6.454v-7.224h1.12v1.33h.07c.131-.345.364-.653.7-.924.336-.27.798-.406 1.386-.406h.434v1.12h-.658c-.606 0-1.082.117-1.428.35-.336.224-.504.509-.504.854v4.9h-1.12zM43.131 168.154c-.485 0-.928-.088-1.33-.266a2.963 2.963 0 0 1-1.036-.756c-.28-.336-.5-.732-.658-1.19a4.847 4.847 0 0 1-.238-1.568c0-.569.08-1.087.238-1.554a3.58 3.58 0 0 1 .658-1.19c.29-.336.635-.592 1.036-.77a3.26 3.26 0 0 1 1.33-.266c.486 0 .924.089 1.316.266.401.178.747.434 1.036.77.29.327.514.724.672 1.19.159.467.238.985.238 1.554a4.85 4.85 0 0 1-.238 1.568 3.615 3.615 0 0 1-.672 1.19c-.29.327-.634.579-1.036.756-.392.178-.83.266-1.316.266zm0-.994c.607 0 1.102-.186 1.484-.56.383-.373.574-.942.574-1.708v-1.036c0-.765-.191-1.334-.574-1.708-.383-.373-.877-.56-1.484-.56-.606 0-1.101.187-1.484.56-.383.374-.574.943-.574 1.708v1.036c0 .766.191 1.335.574 1.708.383.374.878.56 1.484.56zm8.413.826v-7.224h1.12v1.33h.07c.13-.345.364-.653.7-.924.336-.27.798-.406 1.386-.406h.434v1.12h-.658c-.607 0-1.083.117-1.428.35-.336.224-.504.509-.504.854v4.9h-1.12zm7.788.168a3.28 3.28 0 0 1-1.344-.266 3 3 0 0 1-1.022-.756 3.76 3.76 0 0 1-.658-1.19 5.127 5.127 0 0 1-.224-1.568c0-.569.075-1.087.224-1.554.159-.466.378-.863.658-1.19.29-.336.63-.592 1.022-.77.401-.177.85-.266 1.344-.266.485 0 .92.089 1.302.266.383.178.71.425.98.742.27.308.476.677.616 1.106.15.43.224.901.224 1.414v.532H57.26v.336c0 .308.047.598.14.868.103.262.243.49.42.686.187.196.41.35.672.462.27.112.574.168.91.168.457 0 .854-.107 1.19-.322a2.09 2.09 0 0 0 .798-.924l.798.574a2.818 2.818 0 0 1-1.092 1.204c-.495.299-1.083.448-1.764.448zm0-6.622c-.308 0-.588.056-.84.168a1.88 1.88 0 0 0-.658.448 2.358 2.358 0 0 0-.574 1.568v.098h3.99v-.154c0-.644-.177-1.157-.532-1.54-.345-.392-.807-.588-1.386-.588zm7.138 6.622c-.672 0-1.237-.126-1.694-.378a3.944 3.944 0 0 1-1.162-1.036l.798-.644c.28.355.592.63.938.826.345.187.746.28 1.204.28.476 0 .844-.102 1.106-.308.27-.205.406-.494.406-.868a.997.997 0 0 0-.28-.714c-.178-.205-.504-.345-.98-.42l-.574-.084a5.06 5.06 0 0 1-.924-.21 2.915 2.915 0 0 1-.742-.392 1.858 1.858 0 0 1-.49-.616 2.055 2.055 0 0 1-.168-.868c0-.354.065-.662.196-.924.13-.27.308-.494.532-.672.233-.177.508-.308.826-.392.317-.093.658-.14 1.022-.14.588 0 1.078.103 1.47.308.4.206.75.49 1.05.854l-.742.672c-.16-.224-.392-.424-.7-.602-.308-.186-.696-.28-1.162-.28-.467 0-.822.103-1.064.308-.234.196-.35.467-.35.812 0 .355.116.612.35.77.242.159.588.276 1.036.35l.56.084c.802.122 1.372.355 1.708.7.336.336.504.78.504 1.33 0 .7-.238 1.251-.714 1.652-.476.402-1.13.602-1.96.602zm9.104-1.344h-.056a3.403 3.403 0 0 1-.28.504 1.882 1.882 0 0 1-.392.434c-.159.122-.35.22-.574.294a2.473 2.473 0 0 1-.784.112c-.747 0-1.34-.238-1.778-.714-.439-.485-.658-1.166-.658-2.044v-4.634h1.12v4.438c0 1.298.55 1.946 1.652 1.946.224 0 .439-.028.644-.084a1.71 1.71 0 0 0 .56-.252 1.203 1.203 0 0 0 .546-1.05v-4.998h1.12v7.224h-1.12v-1.176zm4.695 1.176c-.392 0-.69-.107-.896-.322-.196-.224-.294-.504-.294-.84v-9.198h1.12v9.38h1.064v.98h-.994zm4.152 0c-.392 0-.69-.107-.896-.322-.196-.224-.294-.513-.294-.868v-5.054h-1.19v-.98h.672c.243 0 .406-.046.49-.14.093-.102.14-.275.14-.518v-1.344h1.008v2.002h1.582v.98h-1.582v5.264h1.47v.98h-1.4zm8.562 0c-.42 0-.723-.112-.91-.336a1.7 1.7 0 0 1-.336-.84h-.07c-.159.448-.42.784-.784 1.008-.364.224-.798.336-1.302.336-.765 0-1.362-.196-1.792-.588-.42-.392-.63-.924-.63-1.596 0-.681.247-1.204.742-1.568.504-.364 1.284-.546 2.338-.546h1.428v-.714c0-.513-.14-.905-.42-1.176-.28-.27-.71-.406-1.288-.406-.439 0-.807.098-1.106.294a2.46 2.46 0 0 0-.728.784l-.672-.63c.196-.392.509-.723.938-.994.43-.28.97-.42 1.624-.42.877 0 1.559.215 2.044.644.486.43.728 1.027.728 1.792v3.976h.826v.98h-.63zm-3.22-.784c.28 0 .537-.032.77-.098.233-.065.434-.158.602-.28.168-.121.299-.261.392-.42.094-.158.14-.331.14-.518v-1.19h-1.484c-.644 0-1.115.094-1.414.28a.909.909 0 0 0-.434.812v.294c0 .355.126.63.378.826.262.196.612.294 1.05.294zm10.069-.392h-.056c-.439.896-1.144 1.344-2.114 1.344-.448 0-.854-.088-1.218-.266a2.703 2.703 0 0 1-.938-.756 3.63 3.63 0 0 1-.588-1.19 5.807 5.807 0 0 1-.196-1.568c0-.578.065-1.101.196-1.568a3.65 3.65 0 0 1 .588-1.19c.261-.326.574-.578.938-.756.364-.177.77-.266 1.218-.266.504 0 .933.112 1.288.336.364.215.639.551.826 1.008h.056v-4.312h1.12v10.36h-1.12v-1.176zm-1.862.336c.252 0 .49-.032.714-.098.233-.065.434-.158.602-.28.168-.13.298-.284.392-.462.102-.186.154-.396.154-.63v-2.688c0-.196-.052-.378-.154-.546a1.295 1.295 0 0 0-.392-.448 1.91 1.91 0 0 0-.602-.28 2.262 2.262 0 0 0-.714-.112c-.635 0-1.134.201-1.498.602-.364.392-.546.91-.546 1.554v1.232c0 .644.182 1.167.546 1.568.364.392.863.588 1.498.588zm8.093 1.008a3.24 3.24 0 0 1-1.33-.266 2.955 2.955 0 0 1-1.036-.756c-.28-.336-.5-.732-.658-1.19a4.839 4.839 0 0 1-.238-1.568c0-.569.079-1.087.238-1.554a3.57 3.57 0 0 1 .658-1.19 2.896 2.896 0 0 1 1.036-.77 3.257 3.257 0 0 1 1.33-.266c.485 0 .924.089 1.316.266.401.178.746.434 1.036.77.289.327.513.724.672 1.19.158.467.238.985.238 1.554 0 .579-.08 1.102-.238 1.568a3.625 3.625 0 0 1-.672 1.19c-.29.327-.635.579-1.036.756a3.148 3.148 0 0 1-1.316.266zm0-.994c.606 0 1.101-.186 1.484-.56.382-.373.574-.942.574-1.708v-1.036c0-.765-.192-1.334-.574-1.708-.383-.373-.878-.56-1.484-.56-.607 0-1.102.187-1.484.56-.383.374-.574.943-.574 1.708v1.036c0 .766.191 1.335.574 1.708.382.374.877.56 1.484.56zm13.032-.35h-.056c-.438.896-1.143 1.344-2.114 1.344-.448 0-.854-.088-1.218-.266a2.71 2.71 0 0 1-.938-.756 3.63 3.63 0 0 1-.588-1.19 5.835 5.835 0 0 1-.196-1.568c0-.578.066-1.101.196-1.568a3.65 3.65 0 0 1 .588-1.19c.262-.326.574-.578.938-.756.364-.177.77-.266 1.218-.266.504 0 .934.112 1.288.336.364.215.64.551.826 1.008h.056v-1.176h1.12v10.024h-1.12v-3.976zm-1.862.336c.252 0 .49-.032.714-.098a1.86 1.86 0 0 0 .602-.28c.168-.13.299-.284.392-.462.103-.186.154-.396.154-.63v-2.688c0-.196-.051-.378-.154-.546a1.292 1.292 0 0 0-.392-.448 1.902 1.902 0 0 0-.602-.28 2.262 2.262 0 0 0-.714-.112c-.634 0-1.134.201-1.498.602-.364.392-.546.91-.546 1.554v1.232c0 .644.182 1.167.546 1.568.364.392.864.588 1.498.588zm9.815-.336h-.056a3.34 3.34 0 0 1-.28.504 1.857 1.857 0 0 1-.392.434c-.158.122-.35.22-.574.294a2.471 2.471 0 0 1-.784.112c-.746 0-1.339-.238-1.778-.714-.438-.485-.658-1.166-.658-2.044v-4.634h1.12v4.438c0 1.298.551 1.946 1.652 1.946.224 0 .439-.028.644-.084a1.7 1.7 0 0 0 .56-.252 1.2 1.2 0 0 0 .392-.42 1.23 1.23 0 0 0 .154-.63v-4.998h1.12v7.224h-1.12v-1.176zm6.221 1.344c-.494 0-.942-.088-1.344-.266a3.006 3.006 0 0 1-1.022-.756 3.765 3.765 0 0 1-.658-1.19 5.137 5.137 0 0 1-.224-1.568c0-.569.075-1.087.224-1.554.159-.466.378-.863.658-1.19.29-.336.63-.592 1.022-.77a3.3 3.3 0 0 1 1.344-.266c.486 0 .92.089 1.302.266.383.178.71.425.98.742.271.308.476.677.616 1.106.15.43.224.901.224 1.414v.532h-5.194v.336c0 .308.047.598.14.868.103.262.243.49.42.686.187.196.411.35.672.462.271.112.574.168.91.168.458 0 .854-.107 1.19-.322.346-.214.612-.522.798-.924l.798.574a2.814 2.814 0 0 1-1.092 1.204c-.494.299-1.082.448-1.764.448zm0-6.622c-.308 0-.588.056-.84.168a1.883 1.883 0 0 0-.658.448c-.177.196-.317.43-.42.7a2.373 2.373 0 0 0-.154.868v.098h3.99v-.154c0-.644-.177-1.157-.532-1.54-.345-.392-.807-.588-1.386-.588zm8.277 6.454v-7.224h1.12v1.176h.056a2.4 2.4 0 0 1 .742-.98c.326-.242.76-.364 1.302-.364.746 0 1.334.243 1.764.728.438.476.658 1.153.658 2.03v4.634h-1.12v-4.438c0-1.297-.546-1.946-1.638-1.946-.224 0-.444.028-.658.084-.206.056-.392.14-.56.252a1.289 1.289 0 0 0-.406.434c-.094.168-.14.369-.14.602v5.012h-1.12zm10.687.168a3.24 3.24 0 0 1-1.33-.266 2.955 2.955 0 0 1-1.036-.756c-.28-.336-.5-.732-.658-1.19a4.839 4.839 0 0 1-.238-1.568c0-.569.079-1.087.238-1.554a3.57 3.57 0 0 1 .658-1.19 2.896 2.896 0 0 1 1.036-.77 3.257 3.257 0 0 1 1.33-.266c.485 0 .924.089 1.316.266.401.178.746.434 1.036.77.289.327.513.724.672 1.19.158.467.238.985.238 1.554 0 .579-.08 1.102-.238 1.568a3.625 3.625 0 0 1-.672 1.19c-.29.327-.635.579-1.036.756a3.148 3.148 0 0 1-1.316.266zm0-.994c.606 0 1.101-.186 1.484-.56.382-.373.574-.942.574-1.708v-1.036c0-.765-.192-1.334-.574-1.708-.383-.373-.878-.56-1.484-.56-.607 0-1.102.187-1.484.56-.383.374-.574.943-.574 1.708v1.036c0 .766.191 1.335.574 1.708.382.374.877.56 1.484.56zm7.274.994c-.672 0-1.237-.126-1.694-.378a3.935 3.935 0 0 1-1.162-1.036l.798-.644c.28.355.592.63.938.826.345.187.746.28 1.204.28.476 0 .844-.102 1.106-.308.27-.205.406-.494.406-.868a1 1 0 0 0-.28-.714c-.178-.205-.504-.345-.98-.42l-.574-.084a5.06 5.06 0 0 1-.924-.21 2.903 2.903 0 0 1-.742-.392 1.845 1.845 0 0 1-.49-.616 2.055 2.055 0 0 1-.168-.868c0-.354.065-.662.196-.924.13-.27.308-.494.532-.672.233-.177.508-.308.826-.392.317-.093.658-.14 1.022-.14.588 0 1.078.103 1.47.308.401.206.751.49 1.05.854l-.742.672c-.159-.224-.392-.424-.7-.602-.308-.186-.696-.28-1.162-.28-.467 0-.822.103-1.064.308-.234.196-.35.467-.35.812 0 .355.116.612.35.77.242.159.588.276 1.036.35l.56.084c.802.122 1.372.355 1.708.7.336.336.504.78.504 1.33 0 .7-.238 1.251-.714 1.652-.476.402-1.13.602-1.96.602zm6.74 0c-.672 0-1.237-.126-1.694-.378a3.947 3.947 0 0 1-1.162-1.036l.798-.644c.28.355.593.63.938.826.345.187.747.28 1.204.28.476 0 .845-.102 1.106-.308.271-.205.406-.494.406-.868a.996.996 0 0 0-.28-.714c-.177-.205-.504-.345-.98-.42l-.574-.084a5.06 5.06 0 0 1-.924-.21 2.92 2.92 0 0 1-.742-.392 1.858 1.858 0 0 1-.49-.616 2.055 2.055 0 0 1-.168-.868c0-.354.065-.662.196-.924.131-.27.308-.494.532-.672.233-.177.509-.308.826-.392.317-.093.658-.14 1.022-.14.588 0 1.078.103 1.47.308.401.206.751.49 1.05.854l-.742.672c-.159-.224-.392-.424-.7-.602-.308-.186-.695-.28-1.162-.28-.467 0-.821.103-1.064.308-.233.196-.35.467-.35.812 0 .355.117.612.35.77.243.159.588.276 1.036.35l.56.084c.803.122 1.372.355 1.708.7.336.336.504.78.504 1.33 0 .7-.238 1.251-.714 1.652-.476.402-1.129.602-1.96.602zm7.382 0c-.485 0-.928-.088-1.33-.266a2.973 2.973 0 0 1-1.036-.756 3.765 3.765 0 0 1-.658-1.19 4.866 4.866 0 0 1-.238-1.568c0-.569.08-1.087.238-1.554.159-.466.378-.863.658-1.19.29-.336.635-.592 1.036-.77a3.264 3.264 0 0 1 1.33-.266c.486 0 .924.089 1.316.266.402.178.747.434 1.036.77.29.327.514.724.672 1.19.159.467.238.985.238 1.554 0 .579-.079 1.102-.238 1.568a3.59 3.59 0 0 1-.672 1.19 2.955 2.955 0 0 1-1.036.756c-.392.178-.83.266-1.316.266zm0-.994c.607 0 1.102-.186 1.484-.56.383-.373.574-.942.574-1.708v-1.036c0-.765-.191-1.334-.574-1.708-.382-.373-.877-.56-1.484-.56-.606 0-1.101.187-1.484.56-.382.374-.574.943-.574 1.708v1.036c0 .766.192 1.335.574 1.708.383.374.878.56 1.484.56zm7.274.994c-.672 0-1.236-.126-1.694-.378a3.947 3.947 0 0 1-1.162-1.036l.798-.644c.28.355.593.63.938.826.346.187.747.28 1.204.28.476 0 .845-.102 1.106-.308.271-.205.406-.494.406-.868a.996.996 0 0 0-.28-.714c-.177-.205-.504-.345-.98-.42l-.574-.084a5.06 5.06 0 0 1-.924-.21 2.92 2.92 0 0 1-.742-.392 1.87 1.87 0 0 1-.49-.616 2.055 2.055 0 0 1-.168-.868c0-.354.066-.662.196-.924.131-.27.308-.494.532-.672a2.35 2.35 0 0 1 .826-.392c.318-.093.658-.14 1.022-.14.588 0 1.078.103 1.47.308.402.206.752.49 1.05.854l-.742.672c-.158-.224-.392-.424-.7-.602-.308-.186-.695-.28-1.162-.28-.466 0-.821.103-1.064.308-.233.196-.35.467-.35.812 0 .355.117.612.35.77.243.159.588.276 1.036.35l.56.084c.803.122 1.372.355 1.708.7.336.336.504.78.504 1.33 0 .7-.238 1.251-.714 1.652-.476.402-1.129.602-1.96.602zm-129.96 10.608h1.12v1.176h.055c.187-.457.457-.793.812-1.008.364-.224.798-.336 1.302-.336.448 0 .854.089 1.218.266.364.178.672.43.924.756.261.327.457.724.588 1.19.14.467.21.99.21 1.568 0 .579-.07 1.102-.21 1.568a3.3 3.3 0 0 1-.588 1.19c-.252.327-.56.579-.924.756-.364.178-.77.266-1.218.266-.98 0-1.684-.448-2.114-1.344h-.056v3.976h-1.12v-10.024zm2.981 6.384c.635 0 1.134-.196 1.498-.588.364-.401.546-.924.546-1.568v-1.232c0-.644-.182-1.162-.546-1.554-.364-.401-.863-.602-1.498-.602-.252 0-.495.038-.728.112a1.93 1.93 0 0 0-.588.28 1.443 1.443 0 0 0-.406.448c-.093.168-.14.35-.14.546v2.688c0 .234.047.444.14.63.103.178.238.332.406.462.168.122.364.215.588.28.233.066.476.098.728.098zm10.39.84c-.42 0-.724-.112-.91-.336a1.7 1.7 0 0 1-.337-.84h-.07c-.158.448-.42.784-.784 1.008-.364.224-.798.336-1.302.336-.765 0-1.362-.196-1.792-.588-.42-.392-.63-.924-.63-1.596 0-.681.248-1.204.742-1.568.504-.364 1.284-.546 2.338-.546h1.428v-.714c0-.513-.14-.905-.42-1.176-.28-.27-.71-.406-1.288-.406-.438 0-.807.098-1.106.294a2.46 2.46 0 0 0-.728.784l-.672-.63c.196-.392.509-.723.938-.994.43-.28.97-.42 1.624-.42.878 0 1.559.215 2.044.644.486.43.728 1.027.728 1.792v3.976h.826v.98h-.63zm-3.22-.784c.28 0 .536-.032.77-.098.233-.065.433-.158.601-.28.168-.121.299-.261.392-.42.094-.158.14-.331.14-.518v-1.19h-1.484c-.644 0-1.115.094-1.414.28a.909.909 0 0 0-.434.812v.294c0 .355.126.63.378.826.262.196.612.294 1.05.294zm5.448.784v-7.224h1.12v1.33h.07c.13-.345.364-.653.7-.924.336-.27.798-.406 1.386-.406h.434v1.12h-.658c-.607 0-1.083.117-1.428.35-.336.224-.504.509-.504.854v4.9h-1.12zm7.76.168c-.504 0-.957-.088-1.358-.266a2.831 2.831 0 0 1-1.022-.756 3.519 3.519 0 0 1-.63-1.19 5.444 5.444 0 0 1-.21-1.568c0-.578.07-1.101.21-1.568.15-.466.36-.863.63-1.19.28-.326.62-.578 1.022-.756a3.332 3.332 0 0 1 1.358-.266c.719 0 1.293.159 1.722.476.439.308.765.714.98 1.218l-.938.476a1.704 1.704 0 0 0-.644-.868c-.299-.205-.672-.308-1.12-.308-.336 0-.63.056-.882.168a1.623 1.623 0 0 0-.63.448 1.82 1.82 0 0 0-.378.686 2.83 2.83 0 0 0-.126.868v1.232c0 .635.168 1.158.504 1.568.345.402.85.602 1.512.602.905 0 1.559-.42 1.96-1.26l.812.546a2.85 2.85 0 0 1-1.05 1.246c-.457.308-1.031.462-1.722.462zm6.987 0a3.28 3.28 0 0 1-1.344-.266 3 3 0 0 1-1.022-.756 3.76 3.76 0 0 1-.658-1.19 5.127 5.127 0 0 1-.224-1.568c0-.569.075-1.087.224-1.554.159-.466.378-.863.658-1.19a2.94 2.94 0 0 1 1.022-.77c.401-.177.85-.266 1.344-.266.485 0 .92.089 1.302.266.383.178.71.425.98.742.27.308.476.677.616 1.106.15.43.224.901.224 1.414v.532h-5.194v.336c0 .308.047.598.14.868.103.262.243.49.42.686.187.196.41.35.672.462.27.112.574.168.91.168.457 0 .854-.107 1.19-.322.345-.214.611-.522.798-.924l.798.574a2.818 2.818 0 0 1-1.092 1.204c-.495.299-1.083.448-1.764.448zm0-6.622c-.308 0-.588.056-.84.168a1.88 1.88 0 0 0-.658.448c-.177.196-.317.43-.42.7a2.36 2.36 0 0 0-.154.868v.098h3.99v-.154c0-.644-.177-1.157-.532-1.54-.345-.392-.807-.588-1.386-.588zm5.528-2.464c-.243 0-.42-.056-.532-.168a.69.69 0 0 1-.154-.462v-.182c0-.186.051-.336.154-.448.112-.121.289-.182.532-.182.242 0 .415.061.518.182a.607.607 0 0 1 .168.448v.182a.653.653 0 0 1-.168.462c-.103.112-.276.168-.518.168zm-.56 1.694h1.12v7.224h-1.12v-7.224zm3.5 7.224v-7.224h1.12v1.33h.07c.13-.345.364-.653.7-.924.336-.27.798-.406 1.386-.406h.434v1.12h-.658c-.607 0-1.083.117-1.428.35-.336.224-.504.509-.504.854v4.9h-1.12zm7.802.168c-.485 0-.929-.088-1.33-.266a2.964 2.964 0 0 1-1.036-.756 3.76 3.76 0 0 1-.658-1.19 4.847 4.847 0 0 1-.238-1.568c0-.569.08-1.087.238-1.554.159-.466.378-.863.658-1.19.29-.336.635-.592 1.036-.77a3.26 3.26 0 0 1 1.33-.266c.485 0 .924.089 1.316.266.401.178.747.434 1.036.77.289.327.513.724.672 1.19.159.467.238.985.238 1.554 0 .579-.079 1.102-.238 1.568a3.624 3.624 0 0 1-.672 1.19c-.29.327-.635.579-1.036.756-.392.178-.83.266-1.316.266zm0-.994c.607 0 1.101-.186 1.484-.56.383-.373.574-.942.574-1.708v-1.036c0-.765-.191-1.334-.574-1.708-.383-.373-.877-.56-1.484-.56s-1.101.187-1.484.56c-.383.374-.574.943-.574 1.708v1.036c0 .766.191 1.335.574 1.708.383.374.877.56 1.484.56zm7.274.994c-.672 0-1.237-.126-1.694-.378a3.947 3.947 0 0 1-1.162-1.036l.798-.644c.28.355.593.63.938.826.345.187.747.28 1.204.28.476 0 .845-.102 1.106-.308.271-.205.406-.494.406-.868a.996.996 0 0 0-.28-.714c-.177-.205-.504-.345-.98-.42l-.574-.084a5.06 5.06 0 0 1-.924-.21 2.92 2.92 0 0 1-.742-.392 1.858 1.858 0 0 1-.49-.616 2.055 2.055 0 0 1-.168-.868c0-.354.065-.662.196-.924.131-.27.308-.494.532-.672.233-.177.509-.308.826-.392.317-.093.658-.14 1.022-.14.588 0 1.078.103 1.47.308.401.206.751.49 1.05.854l-.742.672c-.159-.224-.392-.424-.7-.602-.308-.186-.695-.28-1.162-.28-.467 0-.821.103-1.064.308-.233.196-.35.467-.35.812 0 .355.117.612.35.77.243.159.588.276 1.036.35l.56.084c.803.122 1.372.355 1.708.7.336.336.504.78.504 1.33 0 .7-.238 1.251-.714 1.652-.476.402-1.129.602-1.96.602zm10.677 0c-.495 0-.943-.088-1.344-.266a2.996 2.996 0 0 1-1.022-.756c-.28-.336-.5-.732-.658-1.19a5.106 5.106 0 0 1-.224-1.568c0-.569.074-1.087.224-1.554a3.57 3.57 0 0 1 .658-1.19c.289-.336.63-.592 1.022-.77a3.294 3.294 0 0 1 1.344-.266c.485 0 .919.089 1.302.266.382.178.709.425.98.742.27.308.476.677.616 1.106.149.43.224.901.224 1.414v.532h-5.194v.336c0 .308.046.598.14.868.102.262.242.49.42.686.186.196.41.35.672.462.27.112.574.168.91.168.457 0 .854-.107 1.19-.322.345-.214.611-.522.798-.924l.798.574a2.827 2.827 0 0 1-1.092 1.204c-.495.299-1.083.448-1.764.448zm0-6.622c-.308 0-.588.056-.84.168a1.874 1.874 0 0 0-.658.448 2.352 2.352 0 0 0-.574 1.568v.098h3.99v-.154c0-.644-.178-1.157-.532-1.54-.346-.392-.808-.588-1.386-.588zm7.137 6.622c-.672 0-1.236-.126-1.694-.378a3.947 3.947 0 0 1-1.162-1.036l.798-.644c.28.355.593.63.938.826.346.187.747.28 1.204.28.476 0 .845-.102 1.106-.308.271-.205.406-.494.406-.868a.996.996 0 0 0-.28-.714c-.177-.205-.504-.345-.98-.42l-.574-.084a5.06 5.06 0 0 1-.924-.21 2.92 2.92 0 0 1-.742-.392 1.87 1.87 0 0 1-.49-.616 2.055 2.055 0 0 1-.168-.868c0-.354.066-.662.196-.924.131-.27.308-.494.532-.672a2.35 2.35 0 0 1 .826-.392c.318-.093.658-.14 1.022-.14.588 0 1.078.103 1.47.308.402.206.752.49 1.05.854l-.742.672c-.158-.224-.392-.424-.7-.602-.308-.186-.695-.28-1.162-.28-.466 0-.821.103-1.064.308-.233.196-.35.467-.35.812 0 .355.117.612.35.77.243.159.588.276 1.036.35l.56.084c.803.122 1.372.355 1.708.7.336.336.504.78.504 1.33 0 .7-.238 1.251-.714 1.652-.476.402-1.129.602-1.96.602zm4.653-7.392h1.12v1.176h.056c.186-.457.457-.793.812-1.008.364-.224.798-.336 1.302-.336.448 0 .854.089 1.218.266.364.178.672.43.924.756.261.327.457.724.588 1.19.14.467.21.99.21 1.568 0 .579-.07 1.102-.21 1.568a3.31 3.31 0 0 1-.588 1.19c-.252.327-.56.579-.924.756-.364.178-.77.266-1.218.266-.98 0-1.685-.448-2.114-1.344h-.056v3.976h-1.12v-10.024zm2.982 6.384c.634 0 1.134-.196 1.498-.588.364-.401.546-.924.546-1.568v-1.232c0-.644-.182-1.162-.546-1.554-.364-.401-.864-.602-1.498-.602-.252 0-.495.038-.728.112a1.93 1.93 0 0 0-.588.28 1.436 1.436 0 0 0-.406.448c-.094.168-.14.35-.14.546v2.688c0 .234.046.444.14.63.102.178.238.332.406.462.168.122.364.215.588.28.233.066.476.098.728.098zm7.855 1.008c-.495 0-.943-.088-1.344-.266a2.996 2.996 0 0 1-1.022-.756c-.28-.336-.5-.732-.658-1.19a5.106 5.106 0 0 1-.224-1.568c0-.569.074-1.087.224-1.554a3.57 3.57 0 0 1 .658-1.19c.289-.336.63-.592 1.022-.77a3.294 3.294 0 0 1 1.344-.266c.485 0 .919.089 1.302.266.382.178.709.425.98.742.27.308.476.677.616 1.106.149.43.224.901.224 1.414v.532h-5.194v.336c0 .308.046.598.14.868.102.262.242.49.42.686.186.196.41.35.672.462.27.112.574.168.91.168.457 0 .854-.107 1.19-.322.345-.214.611-.522.798-.924l.798.574a2.827 2.827 0 0 1-1.092 1.204c-.495.299-1.083.448-1.764.448zm0-6.622c-.308 0-.588.056-.84.168a1.874 1.874 0 0 0-.658.448 2.352 2.352 0 0 0-.574 1.568v.098h3.99v-.154c0-.644-.178-1.157-.532-1.54-.346-.392-.808-.588-1.386-.588zm4.967 6.454v-7.224h1.12v1.33h.07c.131-.345.364-.653.7-.924.336-.27.798-.406 1.386-.406h.434v1.12h-.658c-.606 0-1.082.117-1.428.35-.336.224-.504.509-.504.854v4.9h-1.12zm10.336 0c-.42 0-.723-.112-.91-.336a1.708 1.708 0 0 1-.336-.84h-.07c-.158.448-.42.784-.784 1.008-.364.224-.798.336-1.302.336-.765 0-1.362-.196-1.792-.588-.42-.392-.63-.924-.63-1.596 0-.681.248-1.204.742-1.568.504-.364 1.284-.546 2.338-.546h1.428v-.714c0-.513-.14-.905-.42-1.176-.28-.27-.709-.406-1.288-.406-.438 0-.807.098-1.106.294a2.464 2.464 0 0 0-.728.784l-.672-.63c.196-.392.509-.723.938-.994.43-.28.971-.42 1.624-.42.878 0 1.559.215 2.044.644.486.43.728 1.027.728 1.792v3.976h.826v.98h-.63zm-3.22-.784c.28 0 .537-.032.77-.098a1.86 1.86 0 0 0 .602-.28c.168-.121.299-.261.392-.42a.995.995 0 0 0 .14-.518v-1.19h-1.484c-.644 0-1.115.094-1.414.28a.91.91 0 0 0-.434.812v.294c0 .355.126.63.378.826.262.196.612.294 1.05.294zm5.449.784v-7.224h1.12v1.176h.056c.084-.186.177-.359.28-.518.112-.168.242-.312.392-.434.158-.121.34-.214.546-.28.205-.074.448-.112.728-.112.476 0 .914.117 1.316.35.401.224.7.598.896 1.12h.028c.13-.392.373-.732.728-1.022.364-.298.854-.448 1.47-.448.737 0 1.311.243 1.722.728.42.476.63 1.153.63 2.03v4.634h-1.12v-4.438c0-.644-.126-1.129-.378-1.456-.252-.326-.654-.49-1.204-.49-.224 0-.439.028-.644.084a1.74 1.74 0 0 0-.532.252 1.211 1.211 0 0 0-.378.434c-.094.168-.14.369-.14.602v5.012h-1.12v-4.438c0-.644-.126-1.129-.378-1.456-.252-.326-.644-.49-1.176-.49-.224 0-.439.028-.644.084a1.71 1.71 0 0 0-.546.252c-.159.112-.29.257-.392.434-.094.168-.14.369-.14.602v5.012h-1.12zm12.936.168c-.298 0-.518-.074-.658-.224-.13-.149-.196-.345-.196-.588v-.182c0-.242.066-.438.196-.588.14-.149.36-.224.658-.224.299 0 .514.075.644.224.14.15.21.346.21.588v.182c0 .243-.07.439-.21.588-.13.15-.345.224-.644.224zM94.225 46.636l-2.822 1.905a1.957 1.957 0 0 0-.529 2.693l2.252 3.416.254 3.246c.026.327.13.642.304.92a2 2 0 0 0 .692.668l7.944 4.6 1.895-1.278-1.146-9.188a2.021 2.021 0 0 0-1.067-1.54l-2.864-1.485-2.252-3.416a1.905 1.905 0 0 0-2.66-.54zm7.327 6.336a1 1 0 0 1 .533.77l1.069 8.572-.026.017-2.819-4.277c.228-.258.399-.574.47-.938.214-1.085-.485-2.147-1.558-2.365a1.982 1.982 0 0 0-2.333 1.574c-.213 1.085.486 2.146 1.56 2.365.359.073.713.034 1.036-.08l2.82 4.277-.026.018-7.411-4.292a1 1 0 0 1-.498-.794l-.255-3.246-.003-.04 4.54-3.065.036.019 2.865 1.485zm-2.911 4.733a1.007 1.007 0 0 1-.78-1.182.99.99 0 0 1 1.166-.787c.537.109.886.639.78 1.182a.99.99 0 0 1-1.166.787zm-2.58-9.971l1.95 2.958-4.362 2.944-1.95-2.958a.944.944 0 0 1 .255-1.3l2.823-1.906a.921.921 0 0 1 1.284.262z"/><path stroke="#282A2D" stroke-width="1.227" d="M106.704 63.666c1.532-1.654 2.364-1.515 3.816 0M121.894 63.59c1.533-1.654 2.421-1.451 3.873.063M114.262 63.666c1.532-1.654 2.439-1.628 3.891-.114M102.925 63.612c1.532 1.654 2.364 1.53 3.816.015M125.711 63.596c1.532 1.653 2.364 1.48 3.816-.034M110.483 63.627c1.532 1.654 2.364 1.515 3.816 0M118.115 63.514c1.533 1.653 2.365 1.544 3.817.03"/><path fill="#282A2D" d="M129.341 57.04h-21.367a1.194 1.194 0 0 1-1.187-1.201v-7.206c0-.663.531-1.2 1.187-1.2h21.367c.655 0 1.187.537 1.187 1.2v7.206c0 .663-.532 1.2-1.187 1.2zm0-8.407h-21.367v7.206h2.968v-2.102c0-.166.132-.3.296-.3h.594c.164 0 .297.134.297.3v2.102h2.374v-2.102c0-.166.133-.3.297-.3h.593c.164 0 .297.134.297.3v2.102h2.374v-2.102c0-.166.133-.3.297-.3h.593c.164 0 .297.134.297.3v2.102h2.374v-2.102c0-.166.133-.3.297-.3h.593c.164 0 .297.134.297.3v2.102h2.374v-2.102c0-.166.133-.3.297-.3h.594c.164 0 .296.134.296.3v2.102h2.968v-7.206z"/><defs><linearGradient id="paint0_linear" x1="110.641" x2="139.966" y1="11.017" y2="213.383" gradientUnits="userSpaceOnUse"><stop stop-opacity=".02"/><stop offset="1" stop-opacity=".05"/></linearGradient></defs></svg>