<svg width="337" height="318" viewBox="0 0 337 318" fill="none" xmlns="http://www.w3.org/2000/svg">
<path d="M334 159.05C334 72.8659 264.365 2.99992 178.466 2.99992C92.5677 2.99992 22.933 72.8659 22.933 159.05" stroke="#F98E64" stroke-width="6"/>
<path d="M334 158.95C334 245.134 264.365 315 178.466 315C92.5677 315 22.933 245.134 22.933 158.95" stroke="#282A2D" stroke-width="6"/>
<ellipse cx="17.9836" cy="160.099" rx="17.9836" ry="18.0433" fill="#F98E64"/>
<path d="M18.7081 160.586L11.4328 167.414L9.72095 165.807L15.2844 160.586L9.72095 155.366L11.4328 153.759L18.7081 160.586Z" fill="white"/>
<path d="M27.4569 160.586L20.1816 167.414L18.4697 165.807L24.0332 160.586L18.4697 155.366L20.1816 153.759L27.4569 160.586Z" fill="white"/>
<path d="M129.151 143.905H135.755C136.933 143.905 137.999 144.095 138.953 144.477C139.923 144.858 140.747 145.43 141.423 146.193C142.116 146.938 142.645 147.883 143.009 149.027C143.39 150.153 143.581 151.471 143.581 152.979C143.581 154.487 143.39 155.813 143.009 156.957C142.645 158.083 142.116 159.028 141.423 159.791C140.747 160.536 139.923 161.099 138.953 161.481C137.999 161.862 136.933 162.053 135.755 162.053H129.151V143.905ZM135.755 159.011C137.037 159.011 138.051 158.638 138.797 157.893C139.559 157.13 139.941 155.969 139.941 154.409V151.549C139.941 149.989 139.559 148.836 138.797 148.091C138.051 147.328 137.037 146.947 135.755 146.947H132.583V159.011H135.755ZM148.247 162.053V143.905H160.207V146.947H151.679V151.341H159.219V154.383H151.679V159.011H160.207V162.053H148.247ZM170.648 162.365C169.088 162.365 167.762 162.087 166.67 161.533C165.596 160.978 164.668 160.25 163.888 159.349L166.202 157.113C166.826 157.841 167.52 158.395 168.282 158.777C169.062 159.158 169.92 159.349 170.856 159.349C171.914 159.349 172.711 159.123 173.248 158.673C173.786 158.205 174.054 157.581 174.054 156.801C174.054 156.194 173.881 155.7 173.534 155.319C173.188 154.937 172.538 154.66 171.584 154.487L169.868 154.227C166.246 153.655 164.434 151.895 164.434 148.949C164.434 148.134 164.582 147.397 164.876 146.739C165.188 146.08 165.63 145.517 166.202 145.049C166.774 144.581 167.459 144.225 168.256 143.983C169.071 143.723 169.99 143.593 171.012 143.593C172.382 143.593 173.578 143.818 174.6 144.269C175.623 144.719 176.498 145.387 177.226 146.271L174.886 148.481C174.436 147.926 173.89 147.475 173.248 147.129C172.607 146.782 171.801 146.609 170.83 146.609C169.842 146.609 169.097 146.799 168.594 147.181C168.109 147.545 167.866 148.065 167.866 148.741C167.866 149.434 168.066 149.945 168.464 150.275C168.863 150.604 169.504 150.847 170.388 151.003L172.078 151.315C173.916 151.644 175.268 152.233 176.134 153.083C177.018 153.915 177.46 155.085 177.46 156.593C177.46 157.459 177.304 158.248 176.992 158.959C176.698 159.652 176.256 160.259 175.666 160.779C175.094 161.281 174.384 161.671 173.534 161.949C172.702 162.226 171.74 162.365 170.648 162.365ZM181.317 162.053V159.297H183.709V146.661H181.317V143.905H189.559V146.661H187.141V159.297H189.559V162.053H181.317ZM205.805 159.245H205.701C205.545 160.129 205.051 160.874 204.219 161.481C203.404 162.07 202.312 162.365 200.943 162.365C199.868 162.365 198.872 162.165 197.953 161.767C197.052 161.368 196.263 160.779 195.587 159.999C194.928 159.201 194.408 158.222 194.027 157.061C193.646 155.899 193.455 154.556 193.455 153.031C193.455 151.505 193.646 150.162 194.027 149.001C194.426 147.822 194.98 146.834 195.691 146.037C196.402 145.239 197.251 144.633 198.239 144.217C199.227 143.801 200.328 143.593 201.541 143.593C203.17 143.593 204.557 143.948 205.701 144.659C206.845 145.369 207.746 146.392 208.405 147.727L205.623 149.365C205.294 148.585 204.8 147.935 204.141 147.415C203.5 146.895 202.633 146.635 201.541 146.635C200.189 146.635 199.106 147.051 198.291 147.883C197.494 148.697 197.095 149.911 197.095 151.523V154.435C197.095 156.029 197.502 157.243 198.317 158.075C199.132 158.907 200.224 159.323 201.593 159.323C202.13 159.323 202.633 159.262 203.101 159.141C203.569 159.002 203.976 158.803 204.323 158.543C204.67 158.283 204.947 157.962 205.155 157.581C205.363 157.199 205.467 156.749 205.467 156.229V155.059H201.905V152.173H208.769V162.053H205.805V159.245ZM219.115 152.745L217.243 148.975H217.165V162.053H213.915V143.905H217.685L223.145 153.213L225.017 156.983H225.095V143.905H228.345V162.053H224.575L219.115 152.745Z" fill="#222222"/>
<path d="M185.108 230.89H179.276V236.742H177.331V230.89H171.499V228.94H177.331V223.088H179.276V228.94H185.108V230.89Z" fill="#222222" fill-opacity="0.6"/>
</svg>
