<svg width="40" height="39" viewBox="0 0 40 39" fill="none" xmlns="http://www.w3.org/2000/svg">
<path d="M0.523193 30.9154C0.523193 31.5532 1.04025 32.0703 1.67808 32.0703C2.31591 32.0703 2.83297 31.5532 2.83297 30.9154C2.83297 30.2776 2.31591 29.7605 1.67808 29.7605C1.04025 29.7605 0.523193 30.2776 0.523193 30.9154Z" fill="url(#paint0_linear)" fill-opacity="0.8"/>
<path d="M3.98785 37.8447C3.98785 38.4825 4.50491 38.9996 5.14274 38.9996C5.78056 38.9996 6.29762 38.4825 6.29762 37.8447C6.29762 37.2069 5.78056 36.6898 5.14274 36.6898C4.50491 36.6898 3.98785 37.2069 3.98785 37.8447Z" fill="url(#paint1_linear)" fill-opacity="0.8"/>
<path d="M1.67808 38.9996C1.04025 38.9996 0.523193 38.4825 0.523193 37.8447C0.523193 37.2069 1.04025 36.6898 1.67808 36.6898C2.31591 36.6898 2.83297 37.2069 2.83297 37.8447C2.83297 38.4825 2.31591 38.9996 1.67808 38.9996Z" fill="url(#paint2_linear)" fill-opacity="0.8"/>
<path d="M0.523193 34.38C0.523193 35.0179 1.04025 35.5349 1.67808 35.5349C2.31591 35.5349 2.83297 35.0179 2.83297 34.38C2.83297 33.7422 2.31591 33.2252 1.67808 33.2252C1.04025 33.2252 0.523193 33.7422 0.523193 34.38Z" fill="url(#paint3_linear)" fill-opacity="0.8"/>
<path d="M5.14274 35.5349C4.50491 35.5349 3.98785 35.0179 3.98785 34.38C3.98785 33.7422 4.50491 33.2252 5.14274 33.2252C5.78056 33.2252 6.29762 33.7422 6.29762 34.38C6.29762 35.0179 5.78056 35.5349 5.14274 35.5349Z" fill="url(#paint4_linear)" fill-opacity="0.8"/>
<path d="M8.6074 29.7605C7.96957 29.7605 7.45251 30.2776 7.45251 30.9154C7.45251 31.5532 7.96957 32.0703 8.6074 32.0703C9.24522 32.0703 9.76228 31.5532 9.76228 30.9154C9.76228 30.2776 9.24522 29.7605 8.6074 29.7605Z" fill="url(#paint5_linear)" fill-opacity="0.8"/>
<path d="M5.14274 32.0703C4.50491 32.0703 3.98785 31.5532 3.98785 30.9154C3.98785 30.2776 4.50491 29.7605 5.14274 29.7605C5.78056 29.7605 6.29762 30.2776 6.29762 30.9154C6.29762 31.5532 5.78056 32.0703 5.14274 32.0703Z" fill="url(#paint6_linear)" fill-opacity="0.8"/>
<path d="M7.45251 34.38C7.45251 35.0179 7.96957 35.5349 8.6074 35.5349C9.24522 35.5349 9.76228 35.0179 9.76228 34.38C9.76228 33.7422 9.24522 33.2252 8.6074 33.2252C7.96957 33.2252 7.45251 33.7422 7.45251 34.38Z" fill="url(#paint7_linear)" fill-opacity="0.8"/>
<path d="M8.6074 38.9996C7.96957 38.9996 7.45251 38.4825 7.45251 37.8447C7.45251 37.2069 7.96957 36.6898 8.6074 36.6898C9.24522 36.6898 9.76228 37.2069 9.76228 37.8447C9.76228 38.4825 9.24522 38.9996 8.6074 38.9996Z" fill="url(#paint8_linear)" fill-opacity="0.8"/>
<path d="M10.3397 30.9154C10.3397 31.5532 10.8568 32.0703 11.4946 32.0703C12.1324 32.0703 12.6495 31.5532 12.6495 30.9154C12.6495 30.2776 12.1324 29.7605 11.4946 29.7605C10.8568 29.7605 10.3397 30.2776 10.3397 30.9154Z" fill="url(#paint9_linear)" fill-opacity="0.8"/>
<path d="M13.8044 37.8447C13.8044 38.4825 14.3214 38.9996 14.9593 38.9996C15.5971 38.9996 16.1142 38.4825 16.1142 37.8447C16.1142 37.2069 15.5971 36.6898 14.9593 36.6898C14.3214 36.6898 13.8044 37.2069 13.8044 37.8447Z" fill="url(#paint10_linear)" fill-opacity="0.8"/>
<path d="M11.4946 38.9996C10.8568 38.9996 10.3397 38.4825 10.3397 37.8447C10.3397 37.2069 10.8568 36.6898 11.4946 36.6898C12.1324 36.6898 12.6495 37.2069 12.6495 37.8447C12.6495 38.4825 12.1324 38.9996 11.4946 38.9996Z" fill="url(#paint11_linear)" fill-opacity="0.8"/>
<path d="M10.3397 34.38C10.3397 35.0179 10.8568 35.5349 11.4946 35.5349C12.1324 35.5349 12.6495 35.0179 12.6495 34.38C12.6495 33.7422 12.1324 33.2252 11.4946 33.2252C10.8568 33.2252 10.3397 33.7422 10.3397 34.38Z" fill="url(#paint12_linear)" fill-opacity="0.8"/>
<path d="M14.9593 35.5349C14.3214 35.5349 13.8044 35.0179 13.8044 34.38C13.8044 33.7422 14.3214 33.2252 14.9593 33.2252C15.5971 33.2252 16.1142 33.7422 16.1142 34.38C16.1142 35.0179 15.5971 35.5349 14.9593 35.5349Z" fill="url(#paint13_linear)" fill-opacity="0.8"/>
<path d="M18.4239 29.7605C17.7861 29.7605 17.269 30.2776 17.269 30.9154C17.269 31.5532 17.7861 32.0703 18.4239 32.0703C19.0618 32.0703 19.5788 31.5532 19.5788 30.9154C19.5788 30.2776 19.0618 29.7605 18.4239 29.7605Z" fill="url(#paint14_linear)" fill-opacity="0.8"/>
<path d="M14.9593 32.0703C14.3214 32.0703 13.8044 31.5532 13.8044 30.9154C13.8044 30.2776 14.3214 29.7605 14.9593 29.7605C15.5971 29.7605 16.1142 30.2776 16.1142 30.9154C16.1142 31.5532 15.5971 32.0703 14.9593 32.0703Z" fill="url(#paint15_linear)" fill-opacity="0.8"/>
<path d="M17.269 34.38C17.269 35.0179 17.7861 35.5349 18.4239 35.5349C19.0618 35.5349 19.5788 35.0179 19.5788 34.38C19.5788 33.7422 19.0618 33.2252 18.4239 33.2252C17.7861 33.2252 17.269 33.7422 17.269 34.38Z" fill="url(#paint16_linear)" fill-opacity="0.8"/>
<path d="M18.4239 38.9996C17.7861 38.9996 17.269 38.4825 17.269 37.8447C17.269 37.2069 17.7861 36.6898 18.4239 36.6898C19.0618 36.6898 19.5788 37.2069 19.5788 37.8447C19.5788 38.4825 19.0618 38.9996 18.4239 38.9996Z" fill="url(#paint17_linear)" fill-opacity="0.8"/>
<path d="M20.1564 30.9154C20.1564 31.5532 20.6734 32.0703 21.3113 32.0703C21.9491 32.0703 22.4661 31.5532 22.4661 30.9154C22.4661 30.2776 21.9491 29.7605 21.3113 29.7605C20.6734 29.7605 20.1564 30.2776 20.1564 30.9154Z" fill="url(#paint18_linear)" fill-opacity="0.8"/>
<path d="M23.621 37.8447C23.621 38.4825 24.1381 38.9996 24.7759 38.9996C25.4137 38.9996 25.9308 38.4825 25.9308 37.8447C25.9308 37.2069 25.4137 36.6898 24.7759 36.6898C24.1381 36.6898 23.621 37.2069 23.621 37.8447Z" fill="url(#paint19_linear)" fill-opacity="0.8"/>
<path d="M21.3113 38.9996C20.6734 38.9996 20.1564 38.4825 20.1564 37.8447C20.1564 37.2069 20.6734 36.6898 21.3113 36.6898C21.9491 36.6898 22.4661 37.2069 22.4661 37.8447C22.4661 38.4825 21.9491 38.9996 21.3113 38.9996Z" fill="url(#paint20_linear)" fill-opacity="0.8"/>
<path d="M20.1564 34.38C20.1564 35.0179 20.6734 35.5349 21.3113 35.5349C21.9491 35.5349 22.4661 35.0179 22.4661 34.38C22.4661 33.7422 21.9491 33.2252 21.3113 33.2252C20.6734 33.2252 20.1564 33.7422 20.1564 34.38Z" fill="url(#paint21_linear)" fill-opacity="0.8"/>
<path d="M24.7759 35.5349C24.1381 35.5349 23.621 35.0179 23.621 34.38C23.621 33.7422 24.1381 33.2252 24.7759 33.2252C25.4137 33.2252 25.9308 33.7422 25.9308 34.38C25.9308 35.0179 25.4137 35.5349 24.7759 35.5349Z" fill="url(#paint22_linear)" fill-opacity="0.8"/>
<path d="M28.2406 29.7605C27.6027 29.7605 27.0857 30.2776 27.0857 30.9154C27.0857 31.5532 27.6027 32.0703 28.2406 32.0703C28.8784 32.0703 29.3955 31.5532 29.3955 30.9154C29.3955 30.2776 28.8784 29.7605 28.2406 29.7605Z" fill="url(#paint23_linear)" fill-opacity="0.8"/>
<path d="M24.7759 32.0703C24.1381 32.0703 23.621 31.5532 23.621 30.9154C23.621 30.2776 24.1381 29.7605 24.7759 29.7605C25.4137 29.7605 25.9308 30.2776 25.9308 30.9154C25.9308 31.5532 25.4137 32.0703 24.7759 32.0703Z" fill="url(#paint24_linear)" fill-opacity="0.8"/>
<path d="M27.0857 34.38C27.0857 35.0179 27.6027 35.5349 28.2406 35.5349C28.8784 35.5349 29.3955 35.0179 29.3955 34.38C29.3955 33.7422 28.8784 33.2252 28.2406 33.2252C27.6027 33.2252 27.0857 33.7422 27.0857 34.38Z" fill="url(#paint25_linear)" fill-opacity="0.8"/>
<path d="M28.2406 38.9996C27.6027 38.9996 27.0857 38.4825 27.0857 37.8447C27.0857 37.2069 27.6027 36.6898 28.2406 36.6898C28.8784 36.6898 29.3955 37.2069 29.3955 37.8447C29.3955 38.4825 28.8784 38.9996 28.2406 38.9996Z" fill="url(#paint26_linear)" fill-opacity="0.8"/>
<path d="M29.9729 30.9154C29.9729 31.5532 30.49 32.0703 31.1278 32.0703C31.7656 32.0703 32.2827 31.5532 32.2827 30.9154C32.2827 30.2776 31.7656 29.7605 31.1278 29.7605C30.49 29.7605 29.9729 30.2776 29.9729 30.9154Z" fill="url(#paint27_linear)" fill-opacity="0.8"/>
<path d="M33.4376 37.8447C33.4376 38.4825 33.9546 38.9996 34.5924 38.9996C35.2303 38.9996 35.7473 38.4825 35.7473 37.8447C35.7473 37.2069 35.2303 36.6898 34.5924 36.6898C33.9546 36.6898 33.4376 37.2069 33.4376 37.8447Z" fill="url(#paint28_linear)" fill-opacity="0.8"/>
<path d="M31.1278 38.9996C30.49 38.9996 29.9729 38.4825 29.9729 37.8447C29.9729 37.2069 30.49 36.6898 31.1278 36.6898C31.7656 36.6898 32.2827 37.2069 32.2827 37.8447C32.2827 38.4825 31.7656 38.9996 31.1278 38.9996Z" fill="url(#paint29_linear)" fill-opacity="0.8"/>
<path d="M29.9729 34.38C29.9729 35.0179 30.49 35.5349 31.1278 35.5349C31.7656 35.5349 32.2827 35.0179 32.2827 34.38C32.2827 33.7422 31.7656 33.2252 31.1278 33.2252C30.49 33.2252 29.9729 33.7422 29.9729 34.38Z" fill="url(#paint30_linear)" fill-opacity="0.8"/>
<path d="M34.5924 35.5349C33.9546 35.5349 33.4376 35.0179 33.4376 34.38C33.4376 33.7422 33.9546 33.2252 34.5924 33.2252C35.2303 33.2252 35.7473 33.7422 35.7473 34.38C35.7473 35.0179 35.2303 35.5349 34.5924 35.5349Z" fill="url(#paint31_linear)" fill-opacity="0.8"/>
<path d="M38.0571 29.7605C37.4193 29.7605 36.9022 30.2776 36.9022 30.9154C36.9022 31.5532 37.4193 32.0703 38.0571 32.0703C38.6949 32.0703 39.212 31.5532 39.212 30.9154C39.212 30.2776 38.6949 29.7605 38.0571 29.7605Z" fill="url(#paint32_linear)" fill-opacity="0.8"/>
<path d="M34.5924 32.0703C33.9546 32.0703 33.4376 31.5532 33.4376 30.9154C33.4376 30.2776 33.9546 29.7605 34.5924 29.7605C35.2303 29.7605 35.7473 30.2776 35.7473 30.9154C35.7473 31.5532 35.2303 32.0703 34.5924 32.0703Z" fill="url(#paint33_linear)" fill-opacity="0.8"/>
<path d="M36.9022 34.38C36.9022 35.0179 37.4193 35.5349 38.0571 35.5349C38.6949 35.5349 39.212 35.0179 39.212 34.38C39.212 33.7422 38.6949 33.2252 38.0571 33.2252C37.4193 33.2252 36.9022 33.7422 36.9022 34.38Z" fill="url(#paint34_linear)" fill-opacity="0.8"/>
<path d="M38.0571 38.9996C37.4193 38.9996 36.9022 38.4825 36.9022 37.8447C36.9022 37.2069 37.4193 36.6898 38.0571 36.6898C38.6949 36.6898 39.212 37.2069 39.212 37.8447C39.212 38.4825 38.6949 38.9996 38.0571 38.9996Z" fill="url(#paint35_linear)" fill-opacity="0.8"/>
<path d="M0.523193 21.099C0.523193 21.7368 1.04025 22.2539 1.67808 22.2539C2.31591 22.2539 2.83297 21.7368 2.83297 21.099C2.83297 20.4612 2.31591 19.9441 1.67808 19.9441C1.04025 19.9441 0.523193 20.4612 0.523193 21.099Z" fill="url(#paint36_linear)" fill-opacity="0.8"/>
<path d="M3.98785 28.0283C3.98785 28.6661 4.50491 29.1832 5.14274 29.1832C5.78056 29.1832 6.29762 28.6661 6.29762 28.0283C6.29762 27.3905 5.78056 26.8734 5.14274 26.8734C4.50491 26.8734 3.98785 27.3905 3.98785 28.0283Z" fill="url(#paint37_linear)" fill-opacity="0.8"/>
<path d="M1.67808 29.1832C1.04025 29.1832 0.523193 28.6661 0.523193 28.0283C0.523193 27.3905 1.04025 26.8734 1.67808 26.8734C2.31591 26.8734 2.83297 27.3905 2.83297 28.0283C2.83297 28.6661 2.31591 29.1832 1.67808 29.1832Z" fill="url(#paint38_linear)" fill-opacity="0.8"/>
<path d="M0.523193 24.5636C0.523193 25.2015 1.04025 25.7185 1.67808 25.7185C2.31591 25.7185 2.83297 25.2015 2.83297 24.5636C2.83297 23.9258 2.31591 23.4088 1.67808 23.4088C1.04025 23.4088 0.523193 23.9258 0.523193 24.5636Z" fill="url(#paint39_linear)" fill-opacity="0.8"/>
<path d="M5.14274 25.7185C4.50491 25.7185 3.98785 25.2015 3.98785 24.5636C3.98785 23.9258 4.50491 23.4088 5.14274 23.4088C5.78056 23.4088 6.29762 23.9258 6.29762 24.5636C6.29762 25.2015 5.78056 25.7185 5.14274 25.7185Z" fill="url(#paint40_linear)" fill-opacity="0.8"/>
<path d="M8.6074 19.9441C7.96957 19.9441 7.45251 20.4612 7.45251 21.099C7.45251 21.7368 7.96957 22.2539 8.6074 22.2539C9.24522 22.2539 9.76228 21.7368 9.76228 21.099C9.76228 20.4612 9.24522 19.9441 8.6074 19.9441Z" fill="url(#paint41_linear)" fill-opacity="0.8"/>
<path d="M5.14274 22.2539C4.50491 22.2539 3.98785 21.7368 3.98785 21.099C3.98785 20.4612 4.50491 19.9441 5.14274 19.9441C5.78056 19.9441 6.29762 20.4612 6.29762 21.099C6.29762 21.7368 5.78056 22.2539 5.14274 22.2539Z" fill="url(#paint42_linear)" fill-opacity="0.8"/>
<path d="M7.45251 24.5636C7.45251 25.2015 7.96957 25.7185 8.6074 25.7185C9.24522 25.7185 9.76228 25.2015 9.76228 24.5636C9.76228 23.9258 9.24522 23.4088 8.6074 23.4088C7.96957 23.4088 7.45251 23.9258 7.45251 24.5636Z" fill="url(#paint43_linear)" fill-opacity="0.8"/>
<path d="M8.6074 29.1832C7.96957 29.1832 7.45251 28.6661 7.45251 28.0283C7.45251 27.3905 7.96957 26.8734 8.6074 26.8734C9.24522 26.8734 9.76228 27.3905 9.76228 28.0283C9.76228 28.6661 9.24522 29.1832 8.6074 29.1832Z" fill="url(#paint44_linear)" fill-opacity="0.8"/>
<path d="M10.3395 21.0987C10.3395 21.7366 10.8565 22.2536 11.4944 22.2536C12.1322 22.2536 12.6492 21.7366 12.6492 21.0987C12.6492 20.4609 12.1322 19.9438 11.4944 19.9438C10.8565 19.9438 10.3395 20.4609 10.3395 21.0987Z" fill="url(#paint45_linear)" fill-opacity="0.8"/>
<path d="M13.8041 28.0281C13.8041 28.6659 14.3212 29.1829 14.959 29.1829C15.5968 29.1829 16.1139 28.6659 16.1139 28.0281C16.1139 27.3902 15.5968 26.8732 14.959 26.8732C14.3212 26.8732 13.8041 27.3902 13.8041 28.0281Z" fill="url(#paint46_linear)" fill-opacity="0.8"/>
<path d="M11.4944 29.1829C10.8565 29.1829 10.3395 28.6659 10.3395 28.0281C10.3395 27.3902 10.8565 26.8732 11.4944 26.8732C12.1322 26.8732 12.6492 27.3902 12.6492 28.0281C12.6492 28.6659 12.1322 29.1829 11.4944 29.1829Z" fill="url(#paint47_linear)" fill-opacity="0.8"/>
<path d="M10.3395 24.5634C10.3395 25.2012 10.8565 25.7183 11.4944 25.7183C12.1322 25.7183 12.6492 25.2012 12.6492 24.5634C12.6492 23.9256 12.1322 23.4085 11.4944 23.4085C10.8565 23.4085 10.3395 23.9256 10.3395 24.5634Z" fill="url(#paint48_linear)" fill-opacity="0.8"/>
<path d="M14.959 25.7183C14.3212 25.7183 13.8041 25.2012 13.8041 24.5634C13.8041 23.9256 14.3212 23.4085 14.959 23.4085C15.5968 23.4085 16.1139 23.9256 16.1139 24.5634C16.1139 25.2012 15.5968 25.7183 14.959 25.7183Z" fill="url(#paint49_linear)" fill-opacity="0.8"/>
<path d="M18.4237 19.9438C17.7859 19.9438 17.2688 20.4609 17.2688 21.0987C17.2688 21.7366 17.7859 22.2536 18.4237 22.2536C19.0615 22.2536 19.5786 21.7366 19.5786 21.0987C19.5786 20.4609 19.0615 19.9438 18.4237 19.9438Z" fill="url(#paint50_linear)" fill-opacity="0.8"/>
<path d="M14.959 22.2536C14.3212 22.2536 13.8041 21.7366 13.8041 21.0987C13.8041 20.4609 14.3212 19.9438 14.959 19.9438C15.5968 19.9438 16.1139 20.4609 16.1139 21.0987C16.1139 21.7366 15.5968 22.2536 14.959 22.2536Z" fill="url(#paint51_linear)" fill-opacity="0.8"/>
<path d="M17.2688 24.5634C17.2688 25.2012 17.7859 25.7183 18.4237 25.7183C19.0615 25.7183 19.5786 25.2012 19.5786 24.5634C19.5786 23.9256 19.0615 23.4085 18.4237 23.4085C17.7859 23.4085 17.2688 23.9256 17.2688 24.5634Z" fill="url(#paint52_linear)" fill-opacity="0.8"/>
<path d="M18.4237 29.1829C17.7859 29.1829 17.2688 28.6659 17.2688 28.0281C17.2688 27.3902 17.7859 26.8732 18.4237 26.8732C19.0615 26.8732 19.5786 27.3902 19.5786 28.0281C19.5786 28.6659 19.0615 29.1829 18.4237 29.1829Z" fill="url(#paint53_linear)" fill-opacity="0.8"/>
<path d="M20.1561 21.0987C20.1561 21.7366 20.6732 22.2536 21.311 22.2536C21.9488 22.2536 22.4659 21.7366 22.4659 21.0987C22.4659 20.4609 21.9488 19.9438 21.311 19.9438C20.6732 19.9438 20.1561 20.4609 20.1561 21.0987Z" fill="url(#paint54_linear)" fill-opacity="0.8"/>
<path d="M23.6208 28.0281C23.6208 28.6659 24.1378 29.1829 24.7757 29.1829C25.4135 29.1829 25.9306 28.6659 25.9306 28.0281C25.9306 27.3902 25.4135 26.8732 24.7757 26.8732C24.1378 26.8732 23.6208 27.3902 23.6208 28.0281Z" fill="url(#paint55_linear)" fill-opacity="0.8"/>
<path d="M21.311 29.1829C20.6732 29.1829 20.1561 28.6659 20.1561 28.0281C20.1561 27.3902 20.6732 26.8732 21.311 26.8732C21.9488 26.8732 22.4659 27.3902 22.4659 28.0281C22.4659 28.6659 21.9488 29.1829 21.311 29.1829Z" fill="url(#paint56_linear)" fill-opacity="0.8"/>
<path d="M20.1561 24.5634C20.1561 25.2012 20.6732 25.7183 21.311 25.7183C21.9488 25.7183 22.4659 25.2012 22.4659 24.5634C22.4659 23.9256 21.9488 23.4085 21.311 23.4085C20.6732 23.4085 20.1561 23.9256 20.1561 24.5634Z" fill="url(#paint57_linear)" fill-opacity="0.8"/>
<path d="M24.7757 25.7183C24.1378 25.7183 23.6208 25.2012 23.6208 24.5634C23.6208 23.9256 24.1378 23.4085 24.7757 23.4085C25.4135 23.4085 25.9306 23.9256 25.9306 24.5634C25.9306 25.2012 25.4135 25.7183 24.7757 25.7183Z" fill="url(#paint58_linear)" fill-opacity="0.8"/>
<path d="M28.2403 19.9438C27.6025 19.9438 27.0854 20.4609 27.0854 21.0987C27.0854 21.7366 27.6025 22.2536 28.2403 22.2536C28.8782 22.2536 29.3952 21.7366 29.3952 21.0987C29.3952 20.4609 28.8782 19.9438 28.2403 19.9438Z" fill="url(#paint59_linear)" fill-opacity="0.8"/>
<path d="M24.7757 22.2536C24.1378 22.2536 23.6208 21.7366 23.6208 21.0987C23.6208 20.4609 24.1378 19.9438 24.7757 19.9438C25.4135 19.9438 25.9306 20.4609 25.9306 21.0987C25.9306 21.7366 25.4135 22.2536 24.7757 22.2536Z" fill="url(#paint60_linear)" fill-opacity="0.8"/>
<path d="M27.0854 24.5634C27.0854 25.2012 27.6025 25.7183 28.2403 25.7183C28.8782 25.7183 29.3952 25.2012 29.3952 24.5634C29.3952 23.9256 28.8782 23.4085 28.2403 23.4085C27.6025 23.4085 27.0854 23.9256 27.0854 24.5634Z" fill="url(#paint61_linear)" fill-opacity="0.8"/>
<path d="M28.2403 29.1829C27.6025 29.1829 27.0854 28.6659 27.0854 28.0281C27.0854 27.3902 27.6025 26.8732 28.2403 26.8732C28.8782 26.8732 29.3952 27.3902 29.3952 28.0281C29.3952 28.6659 28.8782 29.1829 28.2403 29.1829Z" fill="url(#paint62_linear)" fill-opacity="0.8"/>
<path d="M29.9727 21.0987C29.9727 21.7366 30.4897 22.2536 31.1275 22.2536C31.7654 22.2536 32.2824 21.7366 32.2824 21.0987C32.2824 20.4609 31.7654 19.9438 31.1275 19.9438C30.4897 19.9438 29.9727 20.4609 29.9727 21.0987Z" fill="url(#paint63_linear)" fill-opacity="0.8"/>
<path d="M33.4373 28.0281C33.4373 28.6659 33.9544 29.1829 34.5922 29.1829C35.23 29.1829 35.7471 28.6659 35.7471 28.0281C35.7471 27.3902 35.23 26.8732 34.5922 26.8732C33.9544 26.8732 33.4373 27.3902 33.4373 28.0281Z" fill="url(#paint64_linear)" fill-opacity="0.8"/>
<path d="M31.1275 29.1829C30.4897 29.1829 29.9727 28.6659 29.9727 28.0281C29.9727 27.3902 30.4897 26.8732 31.1275 26.8732C31.7654 26.8732 32.2824 27.3902 32.2824 28.0281C32.2824 28.6659 31.7654 29.1829 31.1275 29.1829Z" fill="url(#paint65_linear)" fill-opacity="0.8"/>
<path d="M29.9727 24.5634C29.9727 25.2012 30.4897 25.7183 31.1275 25.7183C31.7654 25.7183 32.2824 25.2012 32.2824 24.5634C32.2824 23.9256 31.7654 23.4085 31.1275 23.4085C30.4897 23.4085 29.9727 23.9256 29.9727 24.5634Z" fill="url(#paint66_linear)" fill-opacity="0.8"/>
<path d="M34.5922 25.7183C33.9544 25.7183 33.4373 25.2012 33.4373 24.5634C33.4373 23.9256 33.9544 23.4085 34.5922 23.4085C35.23 23.4085 35.7471 23.9256 35.7471 24.5634C35.7471 25.2012 35.23 25.7183 34.5922 25.7183Z" fill="url(#paint67_linear)" fill-opacity="0.8"/>
<path d="M38.0569 19.9438C37.419 19.9438 36.902 20.4609 36.902 21.0987C36.902 21.7366 37.419 22.2536 38.0569 22.2536C38.6947 22.2536 39.2117 21.7366 39.2117 21.0987C39.2117 20.4609 38.6947 19.9438 38.0569 19.9438Z" fill="url(#paint68_linear)" fill-opacity="0.8"/>
<path d="M34.5922 22.2536C33.9544 22.2536 33.4373 21.7366 33.4373 21.0987C33.4373 20.4609 33.9544 19.9438 34.5922 19.9438C35.23 19.9438 35.7471 20.4609 35.7471 21.0987C35.7471 21.7366 35.23 22.2536 34.5922 22.2536Z" fill="url(#paint69_linear)" fill-opacity="0.8"/>
<path d="M36.902 24.5634C36.902 25.2012 37.419 25.7183 38.0569 25.7183C38.6947 25.7183 39.2117 25.2012 39.2117 24.5634C39.2117 23.9256 38.6947 23.4085 38.0569 23.4085C37.419 23.4085 36.902 23.9256 36.902 24.5634Z" fill="url(#paint70_linear)" fill-opacity="0.8"/>
<path d="M38.0569 29.1829C37.419 29.1829 36.902 28.6659 36.902 28.0281C36.902 27.3902 37.419 26.8732 38.0569 26.8732C38.6947 26.8732 39.2117 27.3902 39.2117 28.0281C39.2117 28.6659 38.6947 29.1829 38.0569 29.1829Z" fill="url(#paint71_linear)" fill-opacity="0.8"/>
<path d="M0.523071 11.2826C0.523071 11.9204 1.04013 12.4375 1.67796 12.4375C2.31578 12.4375 2.83284 11.9204 2.83284 11.2826C2.83284 10.6447 2.31578 10.1277 1.67796 10.1277C1.04013 10.1277 0.523071 10.6447 0.523071 11.2826Z" fill="url(#paint72_linear)" fill-opacity="0.8"/>
<path d="M3.98773 18.2119C3.98773 18.8497 4.50479 19.3668 5.14262 19.3668C5.78044 19.3668 6.2975 18.8497 6.2975 18.2119C6.2975 17.5741 5.78044 17.057 5.14262 17.057C4.50479 17.057 3.98773 17.5741 3.98773 18.2119Z" fill="url(#paint73_linear)" fill-opacity="0.8"/>
<path d="M1.67796 19.3668C1.04013 19.3668 0.523071 18.8497 0.523071 18.2119C0.523071 17.5741 1.04013 17.057 1.67796 17.057C2.31578 17.057 2.83284 17.5741 2.83284 18.2119C2.83284 18.8497 2.31578 19.3668 1.67796 19.3668Z" fill="url(#paint74_linear)" fill-opacity="0.8"/>
<path d="M0.523071 14.7472C0.523071 15.3851 1.04013 15.9021 1.67796 15.9021C2.31578 15.9021 2.83284 15.3851 2.83284 14.7472C2.83284 14.1094 2.31578 13.5923 1.67796 13.5923C1.04013 13.5923 0.523071 14.1094 0.523071 14.7472Z" fill="url(#paint75_linear)" fill-opacity="0.8"/>
<path d="M5.14262 15.9021C4.50479 15.9021 3.98773 15.3851 3.98773 14.7472C3.98773 14.1094 4.50479 13.5923 5.14262 13.5923C5.78044 13.5923 6.2975 14.1094 6.2975 14.7472C6.2975 15.3851 5.78044 15.9021 5.14262 15.9021Z" fill="url(#paint76_linear)" fill-opacity="0.8"/>
<path d="M8.60727 10.1277C7.96945 10.1277 7.45239 10.6447 7.45239 11.2826C7.45239 11.9204 7.96945 12.4375 8.60727 12.4375C9.2451 12.4375 9.76216 11.9204 9.76216 11.2826C9.76216 10.6447 9.2451 10.1277 8.60727 10.1277Z" fill="url(#paint77_linear)" fill-opacity="0.8"/>
<path d="M5.14262 12.4375C4.50479 12.4375 3.98773 11.9204 3.98773 11.2826C3.98773 10.6447 4.50479 10.1277 5.14262 10.1277C5.78044 10.1277 6.2975 10.6447 6.2975 11.2826C6.2975 11.9204 5.78044 12.4375 5.14262 12.4375Z" fill="url(#paint78_linear)" fill-opacity="0.8"/>
<path d="M7.45239 14.7472C7.45239 15.3851 7.96945 15.9021 8.60727 15.9021C9.2451 15.9021 9.76216 15.3851 9.76216 14.7472C9.76216 14.1094 9.2451 13.5923 8.60727 13.5923C7.96945 13.5923 7.45239 14.1094 7.45239 14.7472Z" fill="url(#paint79_linear)" fill-opacity="0.8"/>
<path d="M8.60727 19.3668C7.96945 19.3668 7.45239 18.8497 7.45239 18.2119C7.45239 17.5741 7.96945 17.057 8.60727 17.057C9.2451 17.057 9.76216 17.5741 9.76216 18.2119C9.76216 18.8497 9.2451 19.3668 8.60727 19.3668Z" fill="url(#paint80_linear)" fill-opacity="0.8"/>
<path d="M10.3396 11.2823C10.3396 11.9202 10.8567 12.4372 11.4945 12.4372C12.1323 12.4372 12.6494 11.9202 12.6494 11.2823C12.6494 10.6445 12.1323 10.1274 11.4945 10.1274C10.8567 10.1274 10.3396 10.6445 10.3396 11.2823Z" fill="url(#paint81_linear)" fill-opacity="0.8"/>
<path d="M13.8043 18.2116C13.8043 18.8495 14.3213 19.3665 14.9591 19.3665C15.597 19.3665 16.114 18.8495 16.114 18.2116C16.114 17.5738 15.597 17.0568 14.9591 17.0568C14.3213 17.0568 13.8043 17.5738 13.8043 18.2116Z" fill="url(#paint82_linear)" fill-opacity="0.8"/>
<path d="M11.4945 19.3665C10.8567 19.3665 10.3396 18.8495 10.3396 18.2116C10.3396 17.5738 10.8567 17.0568 11.4945 17.0568C12.1323 17.0568 12.6494 17.5738 12.6494 18.2116C12.6494 18.8495 12.1323 19.3665 11.4945 19.3665Z" fill="url(#paint83_linear)" fill-opacity="0.8"/>
<path d="M10.3396 14.747C10.3396 15.3848 10.8567 15.9019 11.4945 15.9019C12.1323 15.9019 12.6494 15.3848 12.6494 14.747C12.6494 14.1092 12.1323 13.5921 11.4945 13.5921C10.8567 13.5921 10.3396 14.1092 10.3396 14.747Z" fill="url(#paint84_linear)" fill-opacity="0.8"/>
<path d="M14.9591 15.9019C14.3213 15.9019 13.8043 15.3848 13.8043 14.747C13.8043 14.1092 14.3213 13.5921 14.9591 13.5921C15.597 13.5921 16.114 14.1092 16.114 14.747C16.114 15.3848 15.597 15.9019 14.9591 15.9019Z" fill="url(#paint85_linear)" fill-opacity="0.8"/>
<path d="M18.4238 10.1274C17.786 10.1274 17.2689 10.6445 17.2689 11.2823C17.2689 11.9202 17.786 12.4372 18.4238 12.4372C19.0616 12.4372 19.5787 11.9202 19.5787 11.2823C19.5787 10.6445 19.0616 10.1274 18.4238 10.1274Z" fill="url(#paint86_linear)" fill-opacity="0.8"/>
<path d="M14.9591 12.4372C14.3213 12.4372 13.8043 11.9202 13.8043 11.2823C13.8043 10.6445 14.3213 10.1274 14.9591 10.1274C15.597 10.1274 16.114 10.6445 16.114 11.2823C16.114 11.9202 15.597 12.4372 14.9591 12.4372Z" fill="url(#paint87_linear)" fill-opacity="0.8"/>
<path d="M17.2689 14.747C17.2689 15.3848 17.786 15.9019 18.4238 15.9019C19.0616 15.9019 19.5787 15.3848 19.5787 14.747C19.5787 14.1092 19.0616 13.5921 18.4238 13.5921C17.786 13.5921 17.2689 14.1092 17.2689 14.747Z" fill="url(#paint88_linear)" fill-opacity="0.8"/>
<path d="M18.4238 19.3665C17.786 19.3665 17.2689 18.8495 17.2689 18.2116C17.2689 17.5738 17.786 17.0568 18.4238 17.0568C19.0616 17.0568 19.5787 17.5738 19.5787 18.2116C19.5787 18.8495 19.0616 19.3665 18.4238 19.3665Z" fill="url(#paint89_linear)" fill-opacity="0.8"/>
<path d="M20.1562 11.2823C20.1562 11.9202 20.6733 12.4372 21.3111 12.4372C21.949 12.4372 22.466 11.9202 22.466 11.2823C22.466 10.6445 21.949 10.1274 21.3111 10.1274C20.6733 10.1274 20.1562 10.6445 20.1562 11.2823Z" fill="url(#paint90_linear)" fill-opacity="0.8"/>
<path d="M23.6209 18.2116C23.6209 18.8495 24.138 19.3665 24.7758 19.3665C25.4136 19.3665 25.9307 18.8495 25.9307 18.2116C25.9307 17.5738 25.4136 17.0568 24.7758 17.0568C24.138 17.0568 23.6209 17.5738 23.6209 18.2116Z" fill="url(#paint91_linear)" fill-opacity="0.8"/>
<path d="M21.3111 19.3665C20.6733 19.3665 20.1562 18.8495 20.1562 18.2116C20.1562 17.5738 20.6733 17.0568 21.3111 17.0568C21.949 17.0568 22.466 17.5738 22.466 18.2116C22.466 18.8495 21.949 19.3665 21.3111 19.3665Z" fill="url(#paint92_linear)" fill-opacity="0.8"/>
<path d="M20.1562 14.747C20.1562 15.3848 20.6733 15.9019 21.3111 15.9019C21.949 15.9019 22.466 15.3848 22.466 14.747C22.466 14.1092 21.949 13.5921 21.3111 13.5921C20.6733 13.5921 20.1562 14.1092 20.1562 14.747Z" fill="url(#paint93_linear)" fill-opacity="0.8"/>
<path d="M24.7758 15.9019C24.138 15.9019 23.6209 15.3848 23.6209 14.747C23.6209 14.1092 24.138 13.5921 24.7758 13.5921C25.4136 13.5921 25.9307 14.1092 25.9307 14.747C25.9307 15.3848 25.4136 15.9019 24.7758 15.9019Z" fill="url(#paint94_linear)" fill-opacity="0.8"/>
<path d="M28.2405 10.1274C27.6026 10.1274 27.0856 10.6445 27.0856 11.2823C27.0856 11.9202 27.6026 12.4372 28.2405 12.4372C28.8783 12.4372 29.3953 11.9202 29.3953 11.2823C29.3953 10.6445 28.8783 10.1274 28.2405 10.1274Z" fill="url(#paint95_linear)" fill-opacity="0.8"/>
<path d="M24.7758 12.4372C24.138 12.4372 23.6209 11.9202 23.6209 11.2823C23.6209 10.6445 24.138 10.1274 24.7758 10.1274C25.4136 10.1274 25.9307 10.6445 25.9307 11.2823C25.9307 11.9202 25.4136 12.4372 24.7758 12.4372Z" fill="url(#paint96_linear)" fill-opacity="0.8"/>
<path d="M27.0856 14.747C27.0856 15.3848 27.6026 15.9019 28.2405 15.9019C28.8783 15.9019 29.3953 15.3848 29.3953 14.747C29.3953 14.1092 28.8783 13.5921 28.2405 13.5921C27.6026 13.5921 27.0856 14.1092 27.0856 14.747Z" fill="url(#paint97_linear)" fill-opacity="0.8"/>
<path d="M28.2405 19.3665C27.6026 19.3665 27.0856 18.8495 27.0856 18.2116C27.0856 17.5738 27.6026 17.0568 28.2405 17.0568C28.8783 17.0568 29.3953 17.5738 29.3953 18.2116C29.3953 18.8495 28.8783 19.3665 28.2405 19.3665Z" fill="url(#paint98_linear)" fill-opacity="0.8"/>
<path d="M29.9728 11.2823C29.9728 11.9202 30.4898 12.4372 31.1277 12.4372C31.7655 12.4372 32.2826 11.9202 32.2826 11.2823C32.2826 10.6445 31.7655 10.1274 31.1277 10.1274C30.4898 10.1274 29.9728 10.6445 29.9728 11.2823Z" fill="url(#paint99_linear)" fill-opacity="0.8"/>
<path d="M33.4374 18.2116C33.4374 18.8495 33.9545 19.3665 34.5923 19.3665C35.2301 19.3665 35.7472 18.8495 35.7472 18.2116C35.7472 17.5738 35.2301 17.0568 34.5923 17.0568C33.9545 17.0568 33.4374 17.5738 33.4374 18.2116Z" fill="url(#paint100_linear)" fill-opacity="0.8"/>
<path d="M31.1277 19.3665C30.4898 19.3665 29.9728 18.8495 29.9728 18.2116C29.9728 17.5738 30.4898 17.0568 31.1277 17.0568C31.7655 17.0568 32.2826 17.5738 32.2826 18.2116C32.2826 18.8495 31.7655 19.3665 31.1277 19.3665Z" fill="url(#paint101_linear)" fill-opacity="0.8"/>
<path d="M29.9728 14.747C29.9728 15.3848 30.4898 15.9019 31.1277 15.9019C31.7655 15.9019 32.2826 15.3848 32.2826 14.747C32.2826 14.1092 31.7655 13.5921 31.1277 13.5921C30.4898 13.5921 29.9728 14.1092 29.9728 14.747Z" fill="url(#paint102_linear)" fill-opacity="0.8"/>
<path d="M34.5923 15.9019C33.9545 15.9019 33.4374 15.3848 33.4374 14.747C33.4374 14.1092 33.9545 13.5921 34.5923 13.5921C35.2301 13.5921 35.7472 14.1092 35.7472 14.747C35.7472 15.3848 35.2301 15.9019 34.5923 15.9019Z" fill="url(#paint103_linear)" fill-opacity="0.8"/>
<path d="M38.057 10.1274C37.4192 10.1274 36.9021 10.6445 36.9021 11.2823C36.9021 11.9202 37.4192 12.4372 38.057 12.4372C38.6948 12.4372 39.2119 11.9202 39.2119 11.2823C39.2119 10.6445 38.6948 10.1274 38.057 10.1274Z" fill="url(#paint104_linear)" fill-opacity="0.8"/>
<path d="M34.5923 12.4372C33.9545 12.4372 33.4374 11.9202 33.4374 11.2823C33.4374 10.6445 33.9545 10.1274 34.5923 10.1274C35.2301 10.1274 35.7472 10.6445 35.7472 11.2823C35.7472 11.9202 35.2301 12.4372 34.5923 12.4372Z" fill="url(#paint105_linear)" fill-opacity="0.8"/>
<path d="M36.9021 14.747C36.9021 15.3848 37.4192 15.9019 38.057 15.9019C38.6948 15.9019 39.2119 15.3848 39.2119 14.747C39.2119 14.1092 38.6948 13.5921 38.057 13.5921C37.4192 13.5921 36.9021 14.1092 36.9021 14.747Z" fill="url(#paint106_linear)" fill-opacity="0.8"/>
<path d="M38.057 19.3665C37.4192 19.3665 36.9021 18.8495 36.9021 18.2116C36.9021 17.5738 37.4192 17.0568 38.057 17.0568C38.6948 17.0568 39.2119 17.5738 39.2119 18.2116C39.2119 18.8495 38.6948 19.3665 38.057 19.3665Z" fill="url(#paint107_linear)" fill-opacity="0.8"/>
<path d="M0.523193 1.46617C0.523193 2.10399 1.04025 2.62105 1.67808 2.62105C2.31591 2.62105 2.83297 2.10399 2.83297 1.46617C2.83297 0.828339 2.31591 0.311279 1.67808 0.311279C1.04025 0.311279 0.523193 0.828339 0.523193 1.46617Z" fill="url(#paint108_linear)" fill-opacity="0.8"/>
<path d="M3.98785 8.39548C3.98785 9.03331 4.50491 9.55037 5.14274 9.55037C5.78056 9.55037 6.29762 9.03331 6.29762 8.39548C6.29762 7.75766 5.78056 7.2406 5.14274 7.2406C4.50491 7.2406 3.98785 7.75766 3.98785 8.39548Z" fill="url(#paint109_linear)" fill-opacity="0.8"/>
<path d="M1.67808 9.55037C1.04025 9.55037 0.523193 9.03331 0.523193 8.39548C0.523193 7.75766 1.04025 7.2406 1.67808 7.2406C2.31591 7.2406 2.83297 7.75766 2.83297 8.39548C2.83297 9.03331 2.31591 9.55037 1.67808 9.55037Z" fill="url(#paint110_linear)" fill-opacity="0.8"/>
<path d="M0.523193 4.93082C0.523193 5.56865 1.04025 6.08571 1.67808 6.08571C2.31591 6.08571 2.83297 5.56865 2.83297 4.93082C2.83297 4.293 2.31591 3.77594 1.67808 3.77594C1.04025 3.77594 0.523193 4.293 0.523193 4.93082Z" fill="url(#paint111_linear)" fill-opacity="0.8"/>
<path d="M5.14274 6.08571C4.50491 6.08571 3.98785 5.56865 3.98785 4.93082C3.98785 4.293 4.50491 3.77594 5.14274 3.77594C5.78056 3.77594 6.29762 4.293 6.29762 4.93082C6.29762 5.56865 5.78056 6.08571 5.14274 6.08571Z" fill="url(#paint112_linear)" fill-opacity="0.8"/>
<path d="M8.6074 0.311279C7.96957 0.311279 7.45251 0.828339 7.45251 1.46617C7.45251 2.10399 7.96957 2.62105 8.6074 2.62105C9.24522 2.62105 9.76228 2.10399 9.76228 1.46617C9.76228 0.828339 9.24522 0.311279 8.6074 0.311279Z" fill="url(#paint113_linear)" fill-opacity="0.8"/>
<path d="M5.14274 2.62105C4.50491 2.62105 3.98785 2.10399 3.98785 1.46617C3.98785 0.828339 4.50491 0.311279 5.14274 0.311279C5.78056 0.311279 6.29762 0.828339 6.29762 1.46617C6.29762 2.10399 5.78056 2.62105 5.14274 2.62105Z" fill="url(#paint114_linear)" fill-opacity="0.8"/>
<path d="M7.45251 4.93082C7.45251 5.56865 7.96957 6.08571 8.6074 6.08571C9.24522 6.08571 9.76228 5.56865 9.76228 4.93082C9.76228 4.293 9.24522 3.77594 8.6074 3.77594C7.96957 3.77594 7.45251 4.293 7.45251 4.93082Z" fill="url(#paint115_linear)" fill-opacity="0.8"/>
<path d="M8.6074 9.55037C7.96957 9.55037 7.45251 9.03331 7.45251 8.39548C7.45251 7.75766 7.96957 7.2406 8.6074 7.2406C9.24522 7.2406 9.76228 7.75766 9.76228 8.39548C9.76228 9.03331 9.24522 9.55037 8.6074 9.55037Z" fill="url(#paint116_linear)" fill-opacity="0.8"/>
<path d="M10.3395 1.46568C10.3395 2.1035 10.8565 2.62056 11.4944 2.62056C12.1322 2.62056 12.6492 2.1035 12.6492 1.46568C12.6492 0.827851 12.1322 0.310791 11.4944 0.310791C10.8565 0.310791 10.3395 0.827851 10.3395 1.46568Z" fill="url(#paint117_linear)" fill-opacity="0.8"/>
<path d="M13.8041 8.39499C13.8041 9.03282 14.3212 9.54988 14.959 9.54988C15.5968 9.54988 16.1139 9.03282 16.1139 8.39499C16.1139 7.75717 15.5968 7.24011 14.959 7.24011C14.3212 7.24011 13.8041 7.75717 13.8041 8.39499Z" fill="url(#paint118_linear)" fill-opacity="0.8"/>
<path d="M11.4944 9.54988C10.8565 9.54988 10.3395 9.03282 10.3395 8.39499C10.3395 7.75717 10.8565 7.24011 11.4944 7.24011C12.1322 7.24011 12.6492 7.75717 12.6492 8.39499C12.6492 9.03282 12.1322 9.54988 11.4944 9.54988Z" fill="url(#paint119_linear)" fill-opacity="0.8"/>
<path d="M10.3395 4.93034C10.3395 5.56816 10.8565 6.08522 11.4944 6.08522C12.1322 6.08522 12.6492 5.56816 12.6492 4.93034C12.6492 4.29251 12.1322 3.77545 11.4944 3.77545C10.8565 3.77545 10.3395 4.29251 10.3395 4.93034Z" fill="url(#paint120_linear)" fill-opacity="0.8"/>
<path d="M14.959 6.08522C14.3212 6.08522 13.8041 5.56816 13.8041 4.93034C13.8041 4.29251 14.3212 3.77545 14.959 3.77545C15.5968 3.77545 16.1139 4.29251 16.1139 4.93034C16.1139 5.56816 15.5968 6.08522 14.959 6.08522Z" fill="url(#paint121_linear)" fill-opacity="0.8"/>
<path d="M18.4237 0.310791C17.7859 0.310791 17.2688 0.827851 17.2688 1.46568C17.2688 2.1035 17.7859 2.62056 18.4237 2.62056C19.0615 2.62056 19.5786 2.1035 19.5786 1.46568C19.5786 0.827851 19.0615 0.310791 18.4237 0.310791Z" fill="url(#paint122_linear)" fill-opacity="0.8"/>
<path d="M14.959 2.62056C14.3212 2.62056 13.8041 2.1035 13.8041 1.46568C13.8041 0.827851 14.3212 0.310791 14.959 0.310791C15.5968 0.310791 16.1139 0.827851 16.1139 1.46568C16.1139 2.1035 15.5968 2.62056 14.959 2.62056Z" fill="url(#paint123_linear)" fill-opacity="0.8"/>
<path d="M17.2688 4.93034C17.2688 5.56816 17.7859 6.08522 18.4237 6.08522C19.0615 6.08522 19.5786 5.56816 19.5786 4.93034C19.5786 4.29251 19.0615 3.77545 18.4237 3.77545C17.7859 3.77545 17.2688 4.29251 17.2688 4.93034Z" fill="url(#paint124_linear)" fill-opacity="0.8"/>
<path d="M18.4237 9.54988C17.7859 9.54988 17.2688 9.03282 17.2688 8.39499C17.2688 7.75717 17.7859 7.24011 18.4237 7.24011C19.0615 7.24011 19.5786 7.75717 19.5786 8.39499C19.5786 9.03282 19.0615 9.54988 18.4237 9.54988Z" fill="url(#paint125_linear)" fill-opacity="0.8"/>
<path d="M20.1561 1.46568C20.1561 2.1035 20.6732 2.62056 21.311 2.62056C21.9488 2.62056 22.4659 2.1035 22.4659 1.46568C22.4659 0.827851 21.9488 0.310791 21.311 0.310791C20.6732 0.310791 20.1561 0.827851 20.1561 1.46568Z" fill="url(#paint126_linear)" fill-opacity="0.8"/>
<path d="M23.6208 8.39499C23.6208 9.03282 24.1378 9.54988 24.7757 9.54988C25.4135 9.54988 25.9306 9.03282 25.9306 8.39499C25.9306 7.75717 25.4135 7.24011 24.7757 7.24011C24.1378 7.24011 23.6208 7.75717 23.6208 8.39499Z" fill="url(#paint127_linear)" fill-opacity="0.8"/>
<path d="M21.311 9.54988C20.6732 9.54988 20.1561 9.03282 20.1561 8.39499C20.1561 7.75717 20.6732 7.24011 21.311 7.24011C21.9488 7.24011 22.4659 7.75717 22.4659 8.39499C22.4659 9.03282 21.9488 9.54988 21.311 9.54988Z" fill="url(#paint128_linear)" fill-opacity="0.8"/>
<path d="M20.1561 4.93034C20.1561 5.56816 20.6732 6.08522 21.311 6.08522C21.9488 6.08522 22.4659 5.56816 22.4659 4.93034C22.4659 4.29251 21.9488 3.77545 21.311 3.77545C20.6732 3.77545 20.1561 4.29251 20.1561 4.93034Z" fill="url(#paint129_linear)" fill-opacity="0.8"/>
<path d="M24.7757 6.08522C24.1378 6.08522 23.6208 5.56816 23.6208 4.93034C23.6208 4.29251 24.1378 3.77545 24.7757 3.77545C25.4135 3.77545 25.9306 4.29251 25.9306 4.93034C25.9306 5.56816 25.4135 6.08522 24.7757 6.08522Z" fill="url(#paint130_linear)" fill-opacity="0.8"/>
<path d="M28.2403 0.310791C27.6025 0.310791 27.0854 0.827851 27.0854 1.46568C27.0854 2.1035 27.6025 2.62056 28.2403 2.62056C28.8782 2.62056 29.3952 2.1035 29.3952 1.46568C29.3952 0.827851 28.8782 0.310791 28.2403 0.310791Z" fill="url(#paint131_linear)" fill-opacity="0.8"/>
<path d="M24.7757 2.62056C24.1378 2.62056 23.6208 2.1035 23.6208 1.46568C23.6208 0.827851 24.1378 0.310791 24.7757 0.310791C25.4135 0.310791 25.9306 0.827851 25.9306 1.46568C25.9306 2.1035 25.4135 2.62056 24.7757 2.62056Z" fill="url(#paint132_linear)" fill-opacity="0.8"/>
<path d="M27.0854 4.93034C27.0854 5.56816 27.6025 6.08522 28.2403 6.08522C28.8782 6.08522 29.3952 5.56816 29.3952 4.93034C29.3952 4.29251 28.8782 3.77545 28.2403 3.77545C27.6025 3.77545 27.0854 4.29251 27.0854 4.93034Z" fill="url(#paint133_linear)" fill-opacity="0.8"/>
<path d="M28.2403 9.54988C27.6025 9.54988 27.0854 9.03282 27.0854 8.39499C27.0854 7.75717 27.6025 7.24011 28.2403 7.24011C28.8782 7.24011 29.3952 7.75717 29.3952 8.39499C29.3952 9.03282 28.8782 9.54988 28.2403 9.54988Z" fill="url(#paint134_linear)" fill-opacity="0.8"/>
<path d="M29.9727 1.46568C29.9727 2.1035 30.4897 2.62056 31.1275 2.62056C31.7654 2.62056 32.2824 2.1035 32.2824 1.46568C32.2824 0.827851 31.7654 0.310791 31.1275 0.310791C30.4897 0.310791 29.9727 0.827851 29.9727 1.46568Z" fill="url(#paint135_linear)" fill-opacity="0.8"/>
<path d="M33.4373 8.39499C33.4373 9.03282 33.9544 9.54988 34.5922 9.54988C35.23 9.54988 35.7471 9.03282 35.7471 8.39499C35.7471 7.75717 35.23 7.24011 34.5922 7.24011C33.9544 7.24011 33.4373 7.75717 33.4373 8.39499Z" fill="url(#paint136_linear)" fill-opacity="0.8"/>
<path d="M31.1275 9.54988C30.4897 9.54988 29.9727 9.03282 29.9727 8.39499C29.9727 7.75717 30.4897 7.24011 31.1275 7.24011C31.7654 7.24011 32.2824 7.75717 32.2824 8.39499C32.2824 9.03282 31.7654 9.54988 31.1275 9.54988Z" fill="url(#paint137_linear)" fill-opacity="0.8"/>
<path d="M29.9727 4.93034C29.9727 5.56816 30.4897 6.08522 31.1275 6.08522C31.7654 6.08522 32.2824 5.56816 32.2824 4.93034C32.2824 4.29251 31.7654 3.77545 31.1275 3.77545C30.4897 3.77545 29.9727 4.29251 29.9727 4.93034Z" fill="url(#paint138_linear)" fill-opacity="0.8"/>
<path d="M34.5922 6.08522C33.9544 6.08522 33.4373 5.56816 33.4373 4.93034C33.4373 4.29251 33.9544 3.77545 34.5922 3.77545C35.23 3.77545 35.7471 4.29251 35.7471 4.93034C35.7471 5.56816 35.23 6.08522 34.5922 6.08522Z" fill="url(#paint139_linear)" fill-opacity="0.8"/>
<path d="M38.0569 0.310791C37.419 0.310791 36.902 0.827851 36.902 1.46568C36.902 2.1035 37.419 2.62056 38.0569 2.62056C38.6947 2.62056 39.2117 2.1035 39.2117 1.46568C39.2117 0.827851 38.6947 0.310791 38.0569 0.310791Z" fill="url(#paint140_linear)" fill-opacity="0.8"/>
<path d="M34.5922 2.62056C33.9544 2.62056 33.4373 2.1035 33.4373 1.46568C33.4373 0.827851 33.9544 0.310791 34.5922 0.310791C35.23 0.310791 35.7471 0.827851 35.7471 1.46568C35.7471 2.1035 35.23 2.62056 34.5922 2.62056Z" fill="url(#paint141_linear)" fill-opacity="0.8"/>
<path d="M36.902 4.93034C36.902 5.56816 37.419 6.08522 38.0569 6.08522C38.6947 6.08522 39.2117 5.56816 39.2117 4.93034C39.2117 4.29251 38.6947 3.77545 38.0569 3.77545C37.419 3.77545 36.902 4.29251 36.902 4.93034Z" fill="url(#paint142_linear)" fill-opacity="0.8"/>
<path d="M38.0569 9.54988C37.419 9.54988 36.902 9.03282 36.902 8.39499C36.902 7.75717 37.419 7.24011 38.0569 7.24011C38.6947 7.24011 39.2117 7.75717 39.2117 8.39499C39.2117 9.03282 38.6947 9.54988 38.0569 9.54988Z" fill="url(#paint143_linear)" fill-opacity="0.8"/>
<defs>
<linearGradient id="paint0_linear" x1="3.34703" y1="31.4495" x2="7.58629" y2="37.1431" gradientUnits="userSpaceOnUse">
<stop stop-color="#FC6E40"/>
<stop offset="1" stop-color="#EE4137"/>
</linearGradient>
<linearGradient id="paint1_linear" x1="3.34703" y1="31.4495" x2="7.58629" y2="37.1431" gradientUnits="userSpaceOnUse">
<stop stop-color="#FC6E40"/>
<stop offset="1" stop-color="#EE4137"/>
</linearGradient>
<linearGradient id="paint2_linear" x1="3.34703" y1="31.4495" x2="7.58629" y2="37.1431" gradientUnits="userSpaceOnUse">
<stop stop-color="#FC6E40"/>
<stop offset="1" stop-color="#EE4137"/>
</linearGradient>
<linearGradient id="paint3_linear" x1="3.34703" y1="31.4495" x2="7.58629" y2="37.1431" gradientUnits="userSpaceOnUse">
<stop stop-color="#FC6E40"/>
<stop offset="1" stop-color="#EE4137"/>
</linearGradient>
<linearGradient id="paint4_linear" x1="3.34703" y1="31.4495" x2="7.58629" y2="37.1431" gradientUnits="userSpaceOnUse">
<stop stop-color="#FC6E40"/>
<stop offset="1" stop-color="#EE4137"/>
</linearGradient>
<linearGradient id="paint5_linear" x1="3.34703" y1="31.4495" x2="7.58629" y2="37.1431" gradientUnits="userSpaceOnUse">
<stop stop-color="#FC6E40"/>
<stop offset="1" stop-color="#EE4137"/>
</linearGradient>
<linearGradient id="paint6_linear" x1="3.34703" y1="31.4495" x2="7.58629" y2="37.1431" gradientUnits="userSpaceOnUse">
<stop stop-color="#FC6E40"/>
<stop offset="1" stop-color="#EE4137"/>
</linearGradient>
<linearGradient id="paint7_linear" x1="3.34703" y1="31.4495" x2="7.58629" y2="37.1431" gradientUnits="userSpaceOnUse">
<stop stop-color="#FC6E40"/>
<stop offset="1" stop-color="#EE4137"/>
</linearGradient>
<linearGradient id="paint8_linear" x1="3.34703" y1="31.4495" x2="7.58629" y2="37.1431" gradientUnits="userSpaceOnUse">
<stop stop-color="#FC6E40"/>
<stop offset="1" stop-color="#EE4137"/>
</linearGradient>
<linearGradient id="paint9_linear" x1="13.1636" y1="31.4495" x2="17.4028" y2="37.1431" gradientUnits="userSpaceOnUse">
<stop stop-color="#FC6E40"/>
<stop offset="1" stop-color="#EE4137"/>
</linearGradient>
<linearGradient id="paint10_linear" x1="13.1636" y1="31.4495" x2="17.4028" y2="37.1431" gradientUnits="userSpaceOnUse">
<stop stop-color="#FC6E40"/>
<stop offset="1" stop-color="#EE4137"/>
</linearGradient>
<linearGradient id="paint11_linear" x1="13.1636" y1="31.4495" x2="17.4028" y2="37.1431" gradientUnits="userSpaceOnUse">
<stop stop-color="#FC6E40"/>
<stop offset="1" stop-color="#EE4137"/>
</linearGradient>
<linearGradient id="paint12_linear" x1="13.1636" y1="31.4495" x2="17.4028" y2="37.1431" gradientUnits="userSpaceOnUse">
<stop stop-color="#FC6E40"/>
<stop offset="1" stop-color="#EE4137"/>
</linearGradient>
<linearGradient id="paint13_linear" x1="13.1636" y1="31.4495" x2="17.4028" y2="37.1431" gradientUnits="userSpaceOnUse">
<stop stop-color="#FC6E40"/>
<stop offset="1" stop-color="#EE4137"/>
</linearGradient>
<linearGradient id="paint14_linear" x1="13.1636" y1="31.4495" x2="17.4028" y2="37.1431" gradientUnits="userSpaceOnUse">
<stop stop-color="#FC6E40"/>
<stop offset="1" stop-color="#EE4137"/>
</linearGradient>
<linearGradient id="paint15_linear" x1="13.1636" y1="31.4495" x2="17.4028" y2="37.1431" gradientUnits="userSpaceOnUse">
<stop stop-color="#FC6E40"/>
<stop offset="1" stop-color="#EE4137"/>
</linearGradient>
<linearGradient id="paint16_linear" x1="13.1636" y1="31.4495" x2="17.4028" y2="37.1431" gradientUnits="userSpaceOnUse">
<stop stop-color="#FC6E40"/>
<stop offset="1" stop-color="#EE4137"/>
</linearGradient>
<linearGradient id="paint17_linear" x1="13.1636" y1="31.4495" x2="17.4028" y2="37.1431" gradientUnits="userSpaceOnUse">
<stop stop-color="#FC6E40"/>
<stop offset="1" stop-color="#EE4137"/>
</linearGradient>
<linearGradient id="paint18_linear" x1="22.9802" y1="31.4495" x2="27.2195" y2="37.1431" gradientUnits="userSpaceOnUse">
<stop stop-color="#FC6E40"/>
<stop offset="1" stop-color="#EE4137"/>
</linearGradient>
<linearGradient id="paint19_linear" x1="22.9802" y1="31.4495" x2="27.2195" y2="37.1431" gradientUnits="userSpaceOnUse">
<stop stop-color="#FC6E40"/>
<stop offset="1" stop-color="#EE4137"/>
</linearGradient>
<linearGradient id="paint20_linear" x1="22.9802" y1="31.4495" x2="27.2195" y2="37.1431" gradientUnits="userSpaceOnUse">
<stop stop-color="#FC6E40"/>
<stop offset="1" stop-color="#EE4137"/>
</linearGradient>
<linearGradient id="paint21_linear" x1="22.9802" y1="31.4495" x2="27.2195" y2="37.1431" gradientUnits="userSpaceOnUse">
<stop stop-color="#FC6E40"/>
<stop offset="1" stop-color="#EE4137"/>
</linearGradient>
<linearGradient id="paint22_linear" x1="22.9802" y1="31.4495" x2="27.2195" y2="37.1431" gradientUnits="userSpaceOnUse">
<stop stop-color="#FC6E40"/>
<stop offset="1" stop-color="#EE4137"/>
</linearGradient>
<linearGradient id="paint23_linear" x1="22.9802" y1="31.4495" x2="27.2195" y2="37.1431" gradientUnits="userSpaceOnUse">
<stop stop-color="#FC6E40"/>
<stop offset="1" stop-color="#EE4137"/>
</linearGradient>
<linearGradient id="paint24_linear" x1="22.9802" y1="31.4495" x2="27.2195" y2="37.1431" gradientUnits="userSpaceOnUse">
<stop stop-color="#FC6E40"/>
<stop offset="1" stop-color="#EE4137"/>
</linearGradient>
<linearGradient id="paint25_linear" x1="22.9802" y1="31.4495" x2="27.2195" y2="37.1431" gradientUnits="userSpaceOnUse">
<stop stop-color="#FC6E40"/>
<stop offset="1" stop-color="#EE4137"/>
</linearGradient>
<linearGradient id="paint26_linear" x1="22.9802" y1="31.4495" x2="27.2195" y2="37.1431" gradientUnits="userSpaceOnUse">
<stop stop-color="#FC6E40"/>
<stop offset="1" stop-color="#EE4137"/>
</linearGradient>
<linearGradient id="paint27_linear" x1="32.7967" y1="31.4495" x2="37.036" y2="37.1431" gradientUnits="userSpaceOnUse">
<stop stop-color="#FC6E40"/>
<stop offset="1" stop-color="#EE4137"/>
</linearGradient>
<linearGradient id="paint28_linear" x1="32.7967" y1="31.4495" x2="37.036" y2="37.1431" gradientUnits="userSpaceOnUse">
<stop stop-color="#FC6E40"/>
<stop offset="1" stop-color="#EE4137"/>
</linearGradient>
<linearGradient id="paint29_linear" x1="32.7967" y1="31.4495" x2="37.036" y2="37.1431" gradientUnits="userSpaceOnUse">
<stop stop-color="#FC6E40"/>
<stop offset="1" stop-color="#EE4137"/>
</linearGradient>
<linearGradient id="paint30_linear" x1="32.7967" y1="31.4495" x2="37.036" y2="37.1431" gradientUnits="userSpaceOnUse">
<stop stop-color="#FC6E40"/>
<stop offset="1" stop-color="#EE4137"/>
</linearGradient>
<linearGradient id="paint31_linear" x1="32.7967" y1="31.4495" x2="37.036" y2="37.1431" gradientUnits="userSpaceOnUse">
<stop stop-color="#FC6E40"/>
<stop offset="1" stop-color="#EE4137"/>
</linearGradient>
<linearGradient id="paint32_linear" x1="32.7967" y1="31.4495" x2="37.036" y2="37.1431" gradientUnits="userSpaceOnUse">
<stop stop-color="#FC6E40"/>
<stop offset="1" stop-color="#EE4137"/>
</linearGradient>
<linearGradient id="paint33_linear" x1="32.7967" y1="31.4495" x2="37.036" y2="37.1431" gradientUnits="userSpaceOnUse">
<stop stop-color="#FC6E40"/>
<stop offset="1" stop-color="#EE4137"/>
</linearGradient>
<linearGradient id="paint34_linear" x1="32.7967" y1="31.4495" x2="37.036" y2="37.1431" gradientUnits="userSpaceOnUse">
<stop stop-color="#FC6E40"/>
<stop offset="1" stop-color="#EE4137"/>
</linearGradient>
<linearGradient id="paint35_linear" x1="32.7967" y1="31.4495" x2="37.036" y2="37.1431" gradientUnits="userSpaceOnUse">
<stop stop-color="#FC6E40"/>
<stop offset="1" stop-color="#EE4137"/>
</linearGradient>
<linearGradient id="paint36_linear" x1="3.34703" y1="21.6331" x2="7.58629" y2="27.3267" gradientUnits="userSpaceOnUse">
<stop stop-color="#FC6E40"/>
<stop offset="1" stop-color="#EE4137"/>
</linearGradient>
<linearGradient id="paint37_linear" x1="3.34703" y1="21.6331" x2="7.58629" y2="27.3267" gradientUnits="userSpaceOnUse">
<stop stop-color="#FC6E40"/>
<stop offset="1" stop-color="#EE4137"/>
</linearGradient>
<linearGradient id="paint38_linear" x1="3.34703" y1="21.6331" x2="7.58629" y2="27.3267" gradientUnits="userSpaceOnUse">
<stop stop-color="#FC6E40"/>
<stop offset="1" stop-color="#EE4137"/>
</linearGradient>
<linearGradient id="paint39_linear" x1="3.34703" y1="21.6331" x2="7.58629" y2="27.3267" gradientUnits="userSpaceOnUse">
<stop stop-color="#FC6E40"/>
<stop offset="1" stop-color="#EE4137"/>
</linearGradient>
<linearGradient id="paint40_linear" x1="3.34703" y1="21.6331" x2="7.58629" y2="27.3267" gradientUnits="userSpaceOnUse">
<stop stop-color="#FC6E40"/>
<stop offset="1" stop-color="#EE4137"/>
</linearGradient>
<linearGradient id="paint41_linear" x1="3.34703" y1="21.6331" x2="7.58629" y2="27.3267" gradientUnits="userSpaceOnUse">
<stop stop-color="#FC6E40"/>
<stop offset="1" stop-color="#EE4137"/>
</linearGradient>
<linearGradient id="paint42_linear" x1="3.34703" y1="21.6331" x2="7.58629" y2="27.3267" gradientUnits="userSpaceOnUse">
<stop stop-color="#FC6E40"/>
<stop offset="1" stop-color="#EE4137"/>
</linearGradient>
<linearGradient id="paint43_linear" x1="3.34703" y1="21.6331" x2="7.58629" y2="27.3267" gradientUnits="userSpaceOnUse">
<stop stop-color="#FC6E40"/>
<stop offset="1" stop-color="#EE4137"/>
</linearGradient>
<linearGradient id="paint44_linear" x1="3.34703" y1="21.6331" x2="7.58629" y2="27.3267" gradientUnits="userSpaceOnUse">
<stop stop-color="#FC6E40"/>
<stop offset="1" stop-color="#EE4137"/>
</linearGradient>
<linearGradient id="paint45_linear" x1="13.1633" y1="21.6328" x2="17.4026" y2="27.3264" gradientUnits="userSpaceOnUse">
<stop stop-color="#FC6E40"/>
<stop offset="1" stop-color="#EE4137"/>
</linearGradient>
<linearGradient id="paint46_linear" x1="13.1633" y1="21.6328" x2="17.4026" y2="27.3264" gradientUnits="userSpaceOnUse">
<stop stop-color="#FC6E40"/>
<stop offset="1" stop-color="#EE4137"/>
</linearGradient>
<linearGradient id="paint47_linear" x1="13.1633" y1="21.6328" x2="17.4026" y2="27.3264" gradientUnits="userSpaceOnUse">
<stop stop-color="#FC6E40"/>
<stop offset="1" stop-color="#EE4137"/>
</linearGradient>
<linearGradient id="paint48_linear" x1="13.1633" y1="21.6328" x2="17.4026" y2="27.3264" gradientUnits="userSpaceOnUse">
<stop stop-color="#FC6E40"/>
<stop offset="1" stop-color="#EE4137"/>
</linearGradient>
<linearGradient id="paint49_linear" x1="13.1633" y1="21.6328" x2="17.4026" y2="27.3264" gradientUnits="userSpaceOnUse">
<stop stop-color="#FC6E40"/>
<stop offset="1" stop-color="#EE4137"/>
</linearGradient>
<linearGradient id="paint50_linear" x1="13.1633" y1="21.6328" x2="17.4026" y2="27.3264" gradientUnits="userSpaceOnUse">
<stop stop-color="#FC6E40"/>
<stop offset="1" stop-color="#EE4137"/>
</linearGradient>
<linearGradient id="paint51_linear" x1="13.1633" y1="21.6328" x2="17.4026" y2="27.3264" gradientUnits="userSpaceOnUse">
<stop stop-color="#FC6E40"/>
<stop offset="1" stop-color="#EE4137"/>
</linearGradient>
<linearGradient id="paint52_linear" x1="13.1633" y1="21.6328" x2="17.4026" y2="27.3264" gradientUnits="userSpaceOnUse">
<stop stop-color="#FC6E40"/>
<stop offset="1" stop-color="#EE4137"/>
</linearGradient>
<linearGradient id="paint53_linear" x1="13.1633" y1="21.6328" x2="17.4026" y2="27.3264" gradientUnits="userSpaceOnUse">
<stop stop-color="#FC6E40"/>
<stop offset="1" stop-color="#EE4137"/>
</linearGradient>
<linearGradient id="paint54_linear" x1="22.98" y1="21.6328" x2="27.2192" y2="27.3264" gradientUnits="userSpaceOnUse">
<stop stop-color="#FC6E40"/>
<stop offset="1" stop-color="#EE4137"/>
</linearGradient>
<linearGradient id="paint55_linear" x1="22.98" y1="21.6328" x2="27.2192" y2="27.3264" gradientUnits="userSpaceOnUse">
<stop stop-color="#FC6E40"/>
<stop offset="1" stop-color="#EE4137"/>
</linearGradient>
<linearGradient id="paint56_linear" x1="22.98" y1="21.6328" x2="27.2192" y2="27.3264" gradientUnits="userSpaceOnUse">
<stop stop-color="#FC6E40"/>
<stop offset="1" stop-color="#EE4137"/>
</linearGradient>
<linearGradient id="paint57_linear" x1="22.98" y1="21.6328" x2="27.2192" y2="27.3264" gradientUnits="userSpaceOnUse">
<stop stop-color="#FC6E40"/>
<stop offset="1" stop-color="#EE4137"/>
</linearGradient>
<linearGradient id="paint58_linear" x1="22.98" y1="21.6328" x2="27.2192" y2="27.3264" gradientUnits="userSpaceOnUse">
<stop stop-color="#FC6E40"/>
<stop offset="1" stop-color="#EE4137"/>
</linearGradient>
<linearGradient id="paint59_linear" x1="22.98" y1="21.6328" x2="27.2192" y2="27.3264" gradientUnits="userSpaceOnUse">
<stop stop-color="#FC6E40"/>
<stop offset="1" stop-color="#EE4137"/>
</linearGradient>
<linearGradient id="paint60_linear" x1="22.98" y1="21.6328" x2="27.2192" y2="27.3264" gradientUnits="userSpaceOnUse">
<stop stop-color="#FC6E40"/>
<stop offset="1" stop-color="#EE4137"/>
</linearGradient>
<linearGradient id="paint61_linear" x1="22.98" y1="21.6328" x2="27.2192" y2="27.3264" gradientUnits="userSpaceOnUse">
<stop stop-color="#FC6E40"/>
<stop offset="1" stop-color="#EE4137"/>
</linearGradient>
<linearGradient id="paint62_linear" x1="22.98" y1="21.6328" x2="27.2192" y2="27.3264" gradientUnits="userSpaceOnUse">
<stop stop-color="#FC6E40"/>
<stop offset="1" stop-color="#EE4137"/>
</linearGradient>
<linearGradient id="paint63_linear" x1="32.7965" y1="21.6328" x2="37.0358" y2="27.3264" gradientUnits="userSpaceOnUse">
<stop stop-color="#FC6E40"/>
<stop offset="1" stop-color="#EE4137"/>
</linearGradient>
<linearGradient id="paint64_linear" x1="32.7965" y1="21.6328" x2="37.0358" y2="27.3264" gradientUnits="userSpaceOnUse">
<stop stop-color="#FC6E40"/>
<stop offset="1" stop-color="#EE4137"/>
</linearGradient>
<linearGradient id="paint65_linear" x1="32.7965" y1="21.6328" x2="37.0358" y2="27.3264" gradientUnits="userSpaceOnUse">
<stop stop-color="#FC6E40"/>
<stop offset="1" stop-color="#EE4137"/>
</linearGradient>
<linearGradient id="paint66_linear" x1="32.7965" y1="21.6328" x2="37.0358" y2="27.3264" gradientUnits="userSpaceOnUse">
<stop stop-color="#FC6E40"/>
<stop offset="1" stop-color="#EE4137"/>
</linearGradient>
<linearGradient id="paint67_linear" x1="32.7965" y1="21.6328" x2="37.0358" y2="27.3264" gradientUnits="userSpaceOnUse">
<stop stop-color="#FC6E40"/>
<stop offset="1" stop-color="#EE4137"/>
</linearGradient>
<linearGradient id="paint68_linear" x1="32.7965" y1="21.6328" x2="37.0358" y2="27.3264" gradientUnits="userSpaceOnUse">
<stop stop-color="#FC6E40"/>
<stop offset="1" stop-color="#EE4137"/>
</linearGradient>
<linearGradient id="paint69_linear" x1="32.7965" y1="21.6328" x2="37.0358" y2="27.3264" gradientUnits="userSpaceOnUse">
<stop stop-color="#FC6E40"/>
<stop offset="1" stop-color="#EE4137"/>
</linearGradient>
<linearGradient id="paint70_linear" x1="32.7965" y1="21.6328" x2="37.0358" y2="27.3264" gradientUnits="userSpaceOnUse">
<stop stop-color="#FC6E40"/>
<stop offset="1" stop-color="#EE4137"/>
</linearGradient>
<linearGradient id="paint71_linear" x1="32.7965" y1="21.6328" x2="37.0358" y2="27.3264" gradientUnits="userSpaceOnUse">
<stop stop-color="#FC6E40"/>
<stop offset="1" stop-color="#EE4137"/>
</linearGradient>
<linearGradient id="paint72_linear" x1="3.34691" y1="11.8167" x2="7.58617" y2="17.5103" gradientUnits="userSpaceOnUse">
<stop stop-color="#FC6E40"/>
<stop offset="1" stop-color="#EE4137"/>
</linearGradient>
<linearGradient id="paint73_linear" x1="3.34691" y1="11.8167" x2="7.58617" y2="17.5103" gradientUnits="userSpaceOnUse">
<stop stop-color="#FC6E40"/>
<stop offset="1" stop-color="#EE4137"/>
</linearGradient>
<linearGradient id="paint74_linear" x1="3.34691" y1="11.8167" x2="7.58617" y2="17.5103" gradientUnits="userSpaceOnUse">
<stop stop-color="#FC6E40"/>
<stop offset="1" stop-color="#EE4137"/>
</linearGradient>
<linearGradient id="paint75_linear" x1="3.34691" y1="11.8167" x2="7.58617" y2="17.5103" gradientUnits="userSpaceOnUse">
<stop stop-color="#FC6E40"/>
<stop offset="1" stop-color="#EE4137"/>
</linearGradient>
<linearGradient id="paint76_linear" x1="3.34691" y1="11.8167" x2="7.58617" y2="17.5103" gradientUnits="userSpaceOnUse">
<stop stop-color="#FC6E40"/>
<stop offset="1" stop-color="#EE4137"/>
</linearGradient>
<linearGradient id="paint77_linear" x1="3.34691" y1="11.8167" x2="7.58617" y2="17.5103" gradientUnits="userSpaceOnUse">
<stop stop-color="#FC6E40"/>
<stop offset="1" stop-color="#EE4137"/>
</linearGradient>
<linearGradient id="paint78_linear" x1="3.34691" y1="11.8167" x2="7.58617" y2="17.5103" gradientUnits="userSpaceOnUse">
<stop stop-color="#FC6E40"/>
<stop offset="1" stop-color="#EE4137"/>
</linearGradient>
<linearGradient id="paint79_linear" x1="3.34691" y1="11.8167" x2="7.58617" y2="17.5103" gradientUnits="userSpaceOnUse">
<stop stop-color="#FC6E40"/>
<stop offset="1" stop-color="#EE4137"/>
</linearGradient>
<linearGradient id="paint80_linear" x1="3.34691" y1="11.8167" x2="7.58617" y2="17.5103" gradientUnits="userSpaceOnUse">
<stop stop-color="#FC6E40"/>
<stop offset="1" stop-color="#EE4137"/>
</linearGradient>
<linearGradient id="paint81_linear" x1="13.1634" y1="11.8164" x2="17.4027" y2="17.51" gradientUnits="userSpaceOnUse">
<stop stop-color="#FC6E40"/>
<stop offset="1" stop-color="#EE4137"/>
</linearGradient>
<linearGradient id="paint82_linear" x1="13.1634" y1="11.8164" x2="17.4027" y2="17.51" gradientUnits="userSpaceOnUse">
<stop stop-color="#FC6E40"/>
<stop offset="1" stop-color="#EE4137"/>
</linearGradient>
<linearGradient id="paint83_linear" x1="13.1634" y1="11.8164" x2="17.4027" y2="17.51" gradientUnits="userSpaceOnUse">
<stop stop-color="#FC6E40"/>
<stop offset="1" stop-color="#EE4137"/>
</linearGradient>
<linearGradient id="paint84_linear" x1="13.1634" y1="11.8164" x2="17.4027" y2="17.51" gradientUnits="userSpaceOnUse">
<stop stop-color="#FC6E40"/>
<stop offset="1" stop-color="#EE4137"/>
</linearGradient>
<linearGradient id="paint85_linear" x1="13.1634" y1="11.8164" x2="17.4027" y2="17.51" gradientUnits="userSpaceOnUse">
<stop stop-color="#FC6E40"/>
<stop offset="1" stop-color="#EE4137"/>
</linearGradient>
<linearGradient id="paint86_linear" x1="13.1634" y1="11.8164" x2="17.4027" y2="17.51" gradientUnits="userSpaceOnUse">
<stop stop-color="#FC6E40"/>
<stop offset="1" stop-color="#EE4137"/>
</linearGradient>
<linearGradient id="paint87_linear" x1="13.1634" y1="11.8164" x2="17.4027" y2="17.51" gradientUnits="userSpaceOnUse">
<stop stop-color="#FC6E40"/>
<stop offset="1" stop-color="#EE4137"/>
</linearGradient>
<linearGradient id="paint88_linear" x1="13.1634" y1="11.8164" x2="17.4027" y2="17.51" gradientUnits="userSpaceOnUse">
<stop stop-color="#FC6E40"/>
<stop offset="1" stop-color="#EE4137"/>
</linearGradient>
<linearGradient id="paint89_linear" x1="13.1634" y1="11.8164" x2="17.4027" y2="17.51" gradientUnits="userSpaceOnUse">
<stop stop-color="#FC6E40"/>
<stop offset="1" stop-color="#EE4137"/>
</linearGradient>
<linearGradient id="paint90_linear" x1="22.9801" y1="11.8164" x2="27.2193" y2="17.51" gradientUnits="userSpaceOnUse">
<stop stop-color="#FC6E40"/>
<stop offset="1" stop-color="#EE4137"/>
</linearGradient>
<linearGradient id="paint91_linear" x1="22.9801" y1="11.8164" x2="27.2193" y2="17.51" gradientUnits="userSpaceOnUse">
<stop stop-color="#FC6E40"/>
<stop offset="1" stop-color="#EE4137"/>
</linearGradient>
<linearGradient id="paint92_linear" x1="22.9801" y1="11.8164" x2="27.2193" y2="17.51" gradientUnits="userSpaceOnUse">
<stop stop-color="#FC6E40"/>
<stop offset="1" stop-color="#EE4137"/>
</linearGradient>
<linearGradient id="paint93_linear" x1="22.9801" y1="11.8164" x2="27.2193" y2="17.51" gradientUnits="userSpaceOnUse">
<stop stop-color="#FC6E40"/>
<stop offset="1" stop-color="#EE4137"/>
</linearGradient>
<linearGradient id="paint94_linear" x1="22.9801" y1="11.8164" x2="27.2193" y2="17.51" gradientUnits="userSpaceOnUse">
<stop stop-color="#FC6E40"/>
<stop offset="1" stop-color="#EE4137"/>
</linearGradient>
<linearGradient id="paint95_linear" x1="22.9801" y1="11.8164" x2="27.2193" y2="17.51" gradientUnits="userSpaceOnUse">
<stop stop-color="#FC6E40"/>
<stop offset="1" stop-color="#EE4137"/>
</linearGradient>
<linearGradient id="paint96_linear" x1="22.9801" y1="11.8164" x2="27.2193" y2="17.51" gradientUnits="userSpaceOnUse">
<stop stop-color="#FC6E40"/>
<stop offset="1" stop-color="#EE4137"/>
</linearGradient>
<linearGradient id="paint97_linear" x1="22.9801" y1="11.8164" x2="27.2193" y2="17.51" gradientUnits="userSpaceOnUse">
<stop stop-color="#FC6E40"/>
<stop offset="1" stop-color="#EE4137"/>
</linearGradient>
<linearGradient id="paint98_linear" x1="22.9801" y1="11.8164" x2="27.2193" y2="17.51" gradientUnits="userSpaceOnUse">
<stop stop-color="#FC6E40"/>
<stop offset="1" stop-color="#EE4137"/>
</linearGradient>
<linearGradient id="paint99_linear" x1="32.7966" y1="11.8164" x2="37.0359" y2="17.51" gradientUnits="userSpaceOnUse">
<stop stop-color="#FC6E40"/>
<stop offset="1" stop-color="#EE4137"/>
</linearGradient>
<linearGradient id="paint100_linear" x1="32.7966" y1="11.8164" x2="37.0359" y2="17.51" gradientUnits="userSpaceOnUse">
<stop stop-color="#FC6E40"/>
<stop offset="1" stop-color="#EE4137"/>
</linearGradient>
<linearGradient id="paint101_linear" x1="32.7966" y1="11.8164" x2="37.0359" y2="17.51" gradientUnits="userSpaceOnUse">
<stop stop-color="#FC6E40"/>
<stop offset="1" stop-color="#EE4137"/>
</linearGradient>
<linearGradient id="paint102_linear" x1="32.7966" y1="11.8164" x2="37.0359" y2="17.51" gradientUnits="userSpaceOnUse">
<stop stop-color="#FC6E40"/>
<stop offset="1" stop-color="#EE4137"/>
</linearGradient>
<linearGradient id="paint103_linear" x1="32.7966" y1="11.8164" x2="37.0359" y2="17.51" gradientUnits="userSpaceOnUse">
<stop stop-color="#FC6E40"/>
<stop offset="1" stop-color="#EE4137"/>
</linearGradient>
<linearGradient id="paint104_linear" x1="32.7966" y1="11.8164" x2="37.0359" y2="17.51" gradientUnits="userSpaceOnUse">
<stop stop-color="#FC6E40"/>
<stop offset="1" stop-color="#EE4137"/>
</linearGradient>
<linearGradient id="paint105_linear" x1="32.7966" y1="11.8164" x2="37.0359" y2="17.51" gradientUnits="userSpaceOnUse">
<stop stop-color="#FC6E40"/>
<stop offset="1" stop-color="#EE4137"/>
</linearGradient>
<linearGradient id="paint106_linear" x1="32.7966" y1="11.8164" x2="37.0359" y2="17.51" gradientUnits="userSpaceOnUse">
<stop stop-color="#FC6E40"/>
<stop offset="1" stop-color="#EE4137"/>
</linearGradient>
<linearGradient id="paint107_linear" x1="32.7966" y1="11.8164" x2="37.0359" y2="17.51" gradientUnits="userSpaceOnUse">
<stop stop-color="#FC6E40"/>
<stop offset="1" stop-color="#EE4137"/>
</linearGradient>
<linearGradient id="paint108_linear" x1="3.34703" y1="2.00028" x2="7.58629" y2="7.69387" gradientUnits="userSpaceOnUse">
<stop stop-color="#FC6E40"/>
<stop offset="1" stop-color="#EE4137"/>
</linearGradient>
<linearGradient id="paint109_linear" x1="3.34703" y1="2.00028" x2="7.58629" y2="7.69387" gradientUnits="userSpaceOnUse">
<stop stop-color="#FC6E40"/>
<stop offset="1" stop-color="#EE4137"/>
</linearGradient>
<linearGradient id="paint110_linear" x1="3.34703" y1="2.00028" x2="7.58629" y2="7.69387" gradientUnits="userSpaceOnUse">
<stop stop-color="#FC6E40"/>
<stop offset="1" stop-color="#EE4137"/>
</linearGradient>
<linearGradient id="paint111_linear" x1="3.34703" y1="2.00028" x2="7.58629" y2="7.69387" gradientUnits="userSpaceOnUse">
<stop stop-color="#FC6E40"/>
<stop offset="1" stop-color="#EE4137"/>
</linearGradient>
<linearGradient id="paint112_linear" x1="3.34703" y1="2.00028" x2="7.58629" y2="7.69387" gradientUnits="userSpaceOnUse">
<stop stop-color="#FC6E40"/>
<stop offset="1" stop-color="#EE4137"/>
</linearGradient>
<linearGradient id="paint113_linear" x1="3.34703" y1="2.00028" x2="7.58629" y2="7.69387" gradientUnits="userSpaceOnUse">
<stop stop-color="#FC6E40"/>
<stop offset="1" stop-color="#EE4137"/>
</linearGradient>
<linearGradient id="paint114_linear" x1="3.34703" y1="2.00028" x2="7.58629" y2="7.69387" gradientUnits="userSpaceOnUse">
<stop stop-color="#FC6E40"/>
<stop offset="1" stop-color="#EE4137"/>
</linearGradient>
<linearGradient id="paint115_linear" x1="3.34703" y1="2.00028" x2="7.58629" y2="7.69387" gradientUnits="userSpaceOnUse">
<stop stop-color="#FC6E40"/>
<stop offset="1" stop-color="#EE4137"/>
</linearGradient>
<linearGradient id="paint116_linear" x1="3.34703" y1="2.00028" x2="7.58629" y2="7.69387" gradientUnits="userSpaceOnUse">
<stop stop-color="#FC6E40"/>
<stop offset="1" stop-color="#EE4137"/>
</linearGradient>
<linearGradient id="paint117_linear" x1="13.1633" y1="1.99979" x2="17.4026" y2="7.69338" gradientUnits="userSpaceOnUse">
<stop stop-color="#FC6E40"/>
<stop offset="1" stop-color="#EE4137"/>
</linearGradient>
<linearGradient id="paint118_linear" x1="13.1633" y1="1.99979" x2="17.4026" y2="7.69338" gradientUnits="userSpaceOnUse">
<stop stop-color="#FC6E40"/>
<stop offset="1" stop-color="#EE4137"/>
</linearGradient>
<linearGradient id="paint119_linear" x1="13.1633" y1="1.99979" x2="17.4026" y2="7.69338" gradientUnits="userSpaceOnUse">
<stop stop-color="#FC6E40"/>
<stop offset="1" stop-color="#EE4137"/>
</linearGradient>
<linearGradient id="paint120_linear" x1="13.1633" y1="1.99979" x2="17.4026" y2="7.69338" gradientUnits="userSpaceOnUse">
<stop stop-color="#FC6E40"/>
<stop offset="1" stop-color="#EE4137"/>
</linearGradient>
<linearGradient id="paint121_linear" x1="13.1633" y1="1.99979" x2="17.4026" y2="7.69338" gradientUnits="userSpaceOnUse">
<stop stop-color="#FC6E40"/>
<stop offset="1" stop-color="#EE4137"/>
</linearGradient>
<linearGradient id="paint122_linear" x1="13.1633" y1="1.99979" x2="17.4026" y2="7.69338" gradientUnits="userSpaceOnUse">
<stop stop-color="#FC6E40"/>
<stop offset="1" stop-color="#EE4137"/>
</linearGradient>
<linearGradient id="paint123_linear" x1="13.1633" y1="1.99979" x2="17.4026" y2="7.69338" gradientUnits="userSpaceOnUse">
<stop stop-color="#FC6E40"/>
<stop offset="1" stop-color="#EE4137"/>
</linearGradient>
<linearGradient id="paint124_linear" x1="13.1633" y1="1.99979" x2="17.4026" y2="7.69338" gradientUnits="userSpaceOnUse">
<stop stop-color="#FC6E40"/>
<stop offset="1" stop-color="#EE4137"/>
</linearGradient>
<linearGradient id="paint125_linear" x1="13.1633" y1="1.99979" x2="17.4026" y2="7.69338" gradientUnits="userSpaceOnUse">
<stop stop-color="#FC6E40"/>
<stop offset="1" stop-color="#EE4137"/>
</linearGradient>
<linearGradient id="paint126_linear" x1="22.98" y1="1.99979" x2="27.2192" y2="7.69338" gradientUnits="userSpaceOnUse">
<stop stop-color="#FC6E40"/>
<stop offset="1" stop-color="#EE4137"/>
</linearGradient>
<linearGradient id="paint127_linear" x1="22.98" y1="1.99979" x2="27.2192" y2="7.69338" gradientUnits="userSpaceOnUse">
<stop stop-color="#FC6E40"/>
<stop offset="1" stop-color="#EE4137"/>
</linearGradient>
<linearGradient id="paint128_linear" x1="22.98" y1="1.99979" x2="27.2192" y2="7.69338" gradientUnits="userSpaceOnUse">
<stop stop-color="#FC6E40"/>
<stop offset="1" stop-color="#EE4137"/>
</linearGradient>
<linearGradient id="paint129_linear" x1="22.98" y1="1.99979" x2="27.2192" y2="7.69338" gradientUnits="userSpaceOnUse">
<stop stop-color="#FC6E40"/>
<stop offset="1" stop-color="#EE4137"/>
</linearGradient>
<linearGradient id="paint130_linear" x1="22.98" y1="1.99979" x2="27.2192" y2="7.69338" gradientUnits="userSpaceOnUse">
<stop stop-color="#FC6E40"/>
<stop offset="1" stop-color="#EE4137"/>
</linearGradient>
<linearGradient id="paint131_linear" x1="22.98" y1="1.99979" x2="27.2192" y2="7.69338" gradientUnits="userSpaceOnUse">
<stop stop-color="#FC6E40"/>
<stop offset="1" stop-color="#EE4137"/>
</linearGradient>
<linearGradient id="paint132_linear" x1="22.98" y1="1.99979" x2="27.2192" y2="7.69338" gradientUnits="userSpaceOnUse">
<stop stop-color="#FC6E40"/>
<stop offset="1" stop-color="#EE4137"/>
</linearGradient>
<linearGradient id="paint133_linear" x1="22.98" y1="1.99979" x2="27.2192" y2="7.69338" gradientUnits="userSpaceOnUse">
<stop stop-color="#FC6E40"/>
<stop offset="1" stop-color="#EE4137"/>
</linearGradient>
<linearGradient id="paint134_linear" x1="22.98" y1="1.99979" x2="27.2192" y2="7.69338" gradientUnits="userSpaceOnUse">
<stop stop-color="#FC6E40"/>
<stop offset="1" stop-color="#EE4137"/>
</linearGradient>
<linearGradient id="paint135_linear" x1="32.7965" y1="1.99979" x2="37.0358" y2="7.69338" gradientUnits="userSpaceOnUse">
<stop stop-color="#FC6E40"/>
<stop offset="1" stop-color="#EE4137"/>
</linearGradient>
<linearGradient id="paint136_linear" x1="32.7965" y1="1.99979" x2="37.0358" y2="7.69338" gradientUnits="userSpaceOnUse">
<stop stop-color="#FC6E40"/>
<stop offset="1" stop-color="#EE4137"/>
</linearGradient>
<linearGradient id="paint137_linear" x1="32.7965" y1="1.99979" x2="37.0358" y2="7.69338" gradientUnits="userSpaceOnUse">
<stop stop-color="#FC6E40"/>
<stop offset="1" stop-color="#EE4137"/>
</linearGradient>
<linearGradient id="paint138_linear" x1="32.7965" y1="1.99979" x2="37.0358" y2="7.69338" gradientUnits="userSpaceOnUse">
<stop stop-color="#FC6E40"/>
<stop offset="1" stop-color="#EE4137"/>
</linearGradient>
<linearGradient id="paint139_linear" x1="32.7965" y1="1.99979" x2="37.0358" y2="7.69338" gradientUnits="userSpaceOnUse">
<stop stop-color="#FC6E40"/>
<stop offset="1" stop-color="#EE4137"/>
</linearGradient>
<linearGradient id="paint140_linear" x1="32.7965" y1="1.99979" x2="37.0358" y2="7.69338" gradientUnits="userSpaceOnUse">
<stop stop-color="#FC6E40"/>
<stop offset="1" stop-color="#EE4137"/>
</linearGradient>
<linearGradient id="paint141_linear" x1="32.7965" y1="1.99979" x2="37.0358" y2="7.69338" gradientUnits="userSpaceOnUse">
<stop stop-color="#FC6E40"/>
<stop offset="1" stop-color="#EE4137"/>
</linearGradient>
<linearGradient id="paint142_linear" x1="32.7965" y1="1.99979" x2="37.0358" y2="7.69338" gradientUnits="userSpaceOnUse">
<stop stop-color="#FC6E40"/>
<stop offset="1" stop-color="#EE4137"/>
</linearGradient>
<linearGradient id="paint143_linear" x1="32.7965" y1="1.99979" x2="37.0358" y2="7.69338" gradientUnits="userSpaceOnUse">
<stop stop-color="#FC6E40"/>
<stop offset="1" stop-color="#EE4137"/>
</linearGradient>
</defs>
</svg>
