<svg width="110" height="110" viewBox="0 0 110 110" fill="none" xmlns="http://www.w3.org/2000/svg">
<path d="M77.2964 21.8576C90.3876 30.1233 99.8061 46.925 96.0933 61.8122C92.3804 76.6995 75.5798 89.7285 57.3571 90.6789C39.0906 91.5729 19.4021 80.3883 14.6548 65.6518C9.92021 50.8152 20.1706 32.4832 33.7496 23.2165C47.2849 13.8934 64.1488 13.6356 77.2964 21.8576Z" fill="url(#paint0_linear)"/>
<path d="M65.888 47.1409L61.7696 46.5438L59.9285 42.8382L57.7812 43.891L60.1796 48.7193L65.5428 49.4956L65.888 47.1409ZM64.9263 66.9992L65.6317 71.0603L61.9705 69.1494L60.8573 71.2543L64.5199 73.1666C64.8711 73.3488 65.2432 73.4417 65.625 73.4417C66.3236 73.4417 67.0147 73.1198 67.4712 72.5822C67.8351 72.1569 68.0271 71.6365 68.0271 71.0788L67.2882 66.597L64.9263 66.9992ZM55.2796 65.681C54.9434 65.5063 54.5392 65.4735 54.1761 65.6624L43.8367 71.0617L45.9213 59.0147L37.1062 50.4807L49.2881 48.7186L54.7275 37.7563C54.7297 37.7563 54.7312 37.7548 54.7334 37.7548V37.7563L56.2622 40.8337L58.4095 39.7809L56.8808 36.702C56.4736 35.8849 55.6487 35.3771 54.7275 35.3771C53.7972 35.3771 52.9978 35.8723 52.5846 36.7013L47.6973 46.5438L36.7573 48.1268C35.8532 48.2591 35.1135 48.8792 34.8281 49.7483C34.5449 50.616 34.778 51.5514 35.4348 52.1856L43.3473 59.8437L41.4749 70.6617C41.3554 71.3644 41.5407 72.0476 41.9957 72.583C42.4529 73.122 43.1418 73.4439 43.8389 73.4439C44.22 73.4439 44.5921 73.351 44.9492 73.1651L54.7334 68.0572L58.4185 69.9807L59.5318 67.8758L55.2901 65.6616L55.2796 65.681ZM74.6366 49.7491C74.3549 48.8814 73.6145 48.2598 72.7051 48.1275L68.5994 47.5327L68.2535 49.8866L72.3592 50.4829L69.3952 53.3521L71.0681 55.0555L74.0276 52.1908C74.4991 51.7387 74.7591 51.1372 74.7591 50.4956C74.7584 50.2413 74.7165 49.9885 74.6366 49.7491ZM63.5448 59.0147L64.4631 64.3204L66.8234 63.9181L66.1181 59.8437L69.0986 56.9589L67.4256 55.2555L63.5448 59.0147Z" fill="url(#paint1_linear)"/>
<defs>
<linearGradient id="paint0_linear" x1="31.7766" y1="24.6431" x2="83.7615" y2="75.7333" gradientUnits="userSpaceOnUse">
<stop stop-opacity="0.02"/>
<stop offset="1" stop-opacity="0.05"/>
</linearGradient>
<linearGradient id="paint1_linear" x1="46.9503" y1="42.3361" x2="64.1444" y2="66.6315" gradientUnits="userSpaceOnUse">
<stop stop-color="#FC6E40"/>
<stop offset="1" stop-color="#EE4137"/>
</linearGradient>
</defs>
</svg>
