<svg width="165" height="164" viewBox="0 0 165 164" fill="none" xmlns="http://www.w3.org/2000/svg">
<path d="M115.801 32.7459C135.414 45.1291 149.524 70.3005 143.962 92.6038C138.399 114.907 113.229 134.426 85.9292 135.85C58.5635 137.19 29.0671 120.433 21.955 98.356C14.8619 76.1286 30.2185 48.6646 50.5618 34.7817C70.8397 20.8144 96.1042 20.4282 115.801 32.7459Z" fill="url(#paint0_linear)"/>
<path d="M98.7097 70.6239L92.5397 69.7294L89.7816 64.1778L86.5645 65.7551L90.1577 72.9886L98.1926 74.1515L98.7097 70.6239ZM97.2691 100.375L98.3258 106.459L92.8409 103.596L91.173 106.749L96.6601 109.614C97.1863 109.887 97.7437 110.026 98.3157 110.026C99.3623 110.026 100.398 109.544 101.082 108.739C101.627 108.102 101.914 107.322 101.914 106.486L100.807 99.7719L97.2691 100.375ZM82.8169 98.3996C82.3132 98.1379 81.7076 98.0889 81.1636 98.3718L65.6737 106.461L68.7968 88.4126L55.5905 75.6274L73.8407 72.9875L81.9897 56.5644C81.993 56.5644 81.9953 56.5622 81.9986 56.5622V56.5644L84.2889 61.1748L87.5059 59.5975L85.2157 54.9849C84.6057 53.7608 83.3699 53 81.9897 53C80.5961 53 79.3983 53.7418 78.7793 54.9838L71.4575 69.7294L55.0677 72.1009C53.7133 72.2991 52.6051 73.2281 52.1775 74.5302C51.7532 75.8301 52.1025 77.2314 53.0864 78.1816L64.9406 89.6546L62.1354 105.862C61.9563 106.914 62.2339 107.938 62.9156 108.74C63.6007 109.547 64.6327 110.03 65.6771 110.03C66.248 110.03 66.8054 109.89 67.3405 109.612L81.9986 101.96L87.5194 104.841L89.1872 101.688L82.8326 98.3707L82.8169 98.3996ZM111.816 74.5314C111.394 73.2315 110.285 72.3003 108.923 72.102L102.772 71.2109L102.254 74.7374L108.405 75.6308L103.964 79.9292L106.47 82.4811L110.904 78.1894C111.61 77.5121 112 76.611 112 75.6497C111.999 75.2688 111.936 74.89 111.816 74.5314ZM95.1994 88.4126L96.5751 96.3612L100.111 95.7586L99.0545 89.6546L103.52 85.3327L101.013 82.7808L95.1994 88.4126Z" fill="url(#paint1_linear)"/>
<defs>
<linearGradient id="paint0_linear" x1="47.606" y1="36.919" x2="125.487" y2="113.46" gradientUnits="userSpaceOnUse">
<stop stop-opacity="0.02"/>
<stop offset="1" stop-opacity="0.05"/>
</linearGradient>
<linearGradient id="paint1_linear" x1="70.3384" y1="63.4256" x2="96.0976" y2="99.8236" gradientUnits="userSpaceOnUse">
<stop stop-color="#FC6E40"/>
<stop offset="1" stop-color="#EE4137"/>
</linearGradient>
</defs>
</svg>
