<svg width="108" height="108" viewBox="0 0 108 108" fill="none" xmlns="http://www.w3.org/2000/svg">
<path d="M75.891 21.4602C88.7441 29.5756 97.9915 46.0718 94.3461 60.6884C90.7007 75.3049 74.2056 88.0971 56.3142 89.0302C38.3799 89.908 19.0493 78.9267 14.3884 64.4581C9.73984 49.8913 19.8039 31.8926 33.136 22.7944C46.4252 13.6408 62.9825 13.3877 75.891 21.4602Z" fill="url(#paint0_linear)"/>
<mask id="path-2-inside-1" fill="white">
<path d="M66.4958 59.3453L63.7802 62.0609L55.4583 53.7391L63.7802 45.4172L66.4958 48.1329C68.0704 49.7075 70.7785 48.5893 70.7785 46.3605V39.2101C70.7785 37.8256 69.6526 36.6998 68.2682 36.6998H61.1178C58.889 36.6998 57.7632 39.4002 59.3454 40.9825L62.0611 43.6981L53.7392 52.0199L45.4174 43.6981L48.133 40.9825C49.7076 39.4079 48.5894 36.6998 46.3606 36.6998H39.2102C37.8258 36.6998 36.7 37.8256 36.7 39.2101V46.3605C36.7 48.5893 39.4004 49.7151 40.9826 48.1329L43.6982 45.4172L52.0201 53.7391L43.6982 62.0609L40.9826 59.3453C39.408 57.7707 36.7 58.8889 36.7 61.1177V68.2681C36.7 69.6525 37.8258 70.7783 39.2102 70.7783H46.3606C48.5894 70.7783 49.7152 68.0779 48.133 66.4957L45.4174 63.7801L53.7392 55.4582L62.0611 63.7801L59.3454 66.4957C57.7708 68.0703 58.889 70.7783 61.1178 70.7783H68.2682C69.6526 70.7783 70.7785 69.6525 70.7785 68.2681V61.1177C70.7785 58.8889 68.0704 57.7631 66.4958 59.3453ZM61.1178 38.8982H68.2682C68.4432 38.8982 68.5801 39.0427 68.5801 39.2101V46.3605C68.5801 46.6419 68.2454 46.7789 68.0476 46.5811L60.8972 39.4307C60.6994 39.2329 60.8364 38.8982 61.1178 38.8982ZM39.4308 46.5811C39.233 46.7789 38.8983 46.6419 38.8983 46.3605V39.2101C38.8983 39.0351 39.0428 38.8982 39.2102 38.8982H46.3606C46.6421 38.8982 46.779 39.2329 46.5812 39.4307L39.4308 46.5811ZM46.3606 68.58H39.2102C39.0352 68.58 38.8983 68.4354 38.8983 68.2681V61.1177C38.8983 60.8362 39.233 60.6993 39.4308 60.8971L46.5812 68.0475C46.779 68.2453 46.6421 68.58 46.3606 68.58ZM68.2682 68.58H61.1178C60.8364 68.58 60.6994 68.2453 60.8972 68.0475L68.0476 60.8971C68.2454 60.6993 68.5801 60.8362 68.5801 61.1177V68.2681C68.5877 68.443 68.4432 68.58 68.2682 68.58Z"/>
</mask>
<path d="M66.4958 59.3453L69.3243 62.1737L69.3311 62.1669L66.4958 59.3453ZM63.7802 62.0609L60.9518 64.8894L63.7802 67.7178L66.6086 64.8894L63.7802 62.0609ZM55.4583 53.7391L52.6299 50.9107L49.8015 53.7391L52.6299 56.5675L55.4583 53.7391ZM63.7802 45.4172L66.6086 42.5888L63.7802 39.7604L60.9518 42.5888L63.7802 45.4172ZM66.4958 48.1329L69.3242 45.3044L66.4958 48.1329ZM59.3454 40.9825L62.1738 38.154V38.154L59.3454 40.9825ZM62.0611 43.6981L64.8895 46.5265L67.7179 43.6981L64.8895 40.8697L62.0611 43.6981ZM53.7392 52.0199L50.9108 54.8484L53.7392 57.6768L56.5676 54.8484L53.7392 52.0199ZM45.4174 43.6981L42.5889 40.8697L39.7605 43.6981L42.5889 46.5265L45.4174 43.6981ZM48.133 40.9825L50.9614 43.8109L50.9614 43.8109L48.133 40.9825ZM40.9826 48.1329L38.1542 45.3044H38.1542L40.9826 48.1329ZM43.6982 45.4172L46.5266 42.5888L43.6982 39.7604L40.8698 42.5888L43.6982 45.4172ZM52.0201 53.7391L54.8485 56.5675L57.6769 53.7391L54.8485 50.9107L52.0201 53.7391ZM43.6982 62.0609L40.8698 64.8894L43.6982 67.7178L46.5266 64.8894L43.6982 62.0609ZM40.9826 59.3453L38.1542 62.1737H38.1542L40.9826 59.3453ZM48.133 66.4957L45.3046 69.3241L48.133 66.4957ZM45.4174 63.7801L42.5889 60.9516L39.7605 63.7801L42.5889 66.6085L45.4174 63.7801ZM53.7392 55.4582L56.5676 52.6298L53.7392 49.8014L50.9108 52.6298L53.7392 55.4582ZM62.0611 63.7801L64.8895 66.6085L67.7179 63.7801L64.8895 60.9516L62.0611 63.7801ZM59.3454 66.4957L62.1738 69.3241H62.1739L59.3454 66.4957ZM68.0476 46.5811L70.876 43.7526L68.0476 46.5811ZM60.8972 39.4307L58.0688 42.2591L60.8972 39.4307ZM39.4308 60.8971L42.2592 58.0687L39.4308 60.8971ZM46.5812 68.0475L43.7528 70.8759L46.5812 68.0475ZM68.5801 68.2681H64.5801V68.355L64.5839 68.4418L68.5801 68.2681ZM63.6674 56.5169L60.9518 59.2325L66.6086 64.8894L69.3242 62.1737L63.6674 56.5169ZM66.6086 59.2325L58.2868 50.9107L52.6299 56.5675L60.9518 64.8894L66.6086 59.2325ZM58.2868 56.5675L66.6086 48.2457L60.9518 42.5888L52.6299 50.9107L58.2868 56.5675ZM60.9518 48.2457L63.6674 50.9613L69.3242 45.3044L66.6086 42.5888L60.9518 48.2457ZM63.6674 50.9613C67.7558 55.0497 74.7785 52.1615 74.7785 46.3605H66.7785C66.7785 45.0171 68.3851 44.3652 69.3242 45.3044L63.6674 50.9613ZM74.7785 46.3605V39.2101H66.7785V46.3605H74.7785ZM74.7785 39.2101C74.7785 35.6165 71.8618 32.6998 68.2682 32.6998V40.6998C67.4435 40.6998 66.7785 40.0348 66.7785 39.2101H74.7785ZM68.2682 32.6998H61.1178V40.6998H68.2682V32.6998ZM61.1178 32.6998C55.3351 32.6998 52.408 39.7019 56.517 43.8109L62.1738 38.154C63.1184 39.0986 62.4429 40.6998 61.1178 40.6998V32.6998ZM56.517 43.8109L59.2326 46.5265L64.8895 40.8697L62.1738 38.154L56.517 43.8109ZM59.2326 40.8697L50.9108 49.1915L56.5676 54.8484L64.8895 46.5265L59.2326 40.8697ZM56.5676 49.1915L48.2458 40.8697L42.5889 46.5265L50.9108 54.8484L56.5676 49.1915ZM48.2458 46.5265L50.9614 43.8109L45.3046 38.154L42.5889 40.8697L48.2458 46.5265ZM50.9614 43.8109C55.0498 39.7225 52.1616 32.6998 46.3606 32.6998V40.6998C45.0172 40.6998 44.3654 39.0932 45.3046 38.154L50.9614 43.8109ZM46.3606 32.6998H39.2102V40.6998H46.3606V32.6998ZM39.2102 32.6998C35.6166 32.6998 32.7 35.6165 32.7 39.2101H40.7C40.7 40.0348 40.0349 40.6998 39.2102 40.6998V32.6998ZM32.7 39.2101V46.3605H40.7V39.2101H32.7ZM32.7 46.3605C32.7 52.1431 39.702 55.0703 43.811 50.9613L38.1542 45.3044C39.0987 44.3599 40.7 45.0354 40.7 46.3605H32.7ZM43.811 50.9613L46.5266 48.2457L40.8698 42.5888L38.1542 45.3044L43.811 50.9613ZM40.8698 48.2457L49.1916 56.5675L54.8485 50.9107L46.5266 42.5888L40.8698 48.2457ZM49.1916 50.9107L40.8698 59.2325L46.5266 64.8894L54.8485 56.5675L49.1916 50.9107ZM46.5266 59.2325L43.811 56.5169L38.1542 62.1737L40.8698 64.8894L46.5266 59.2325ZM43.811 56.5169C39.7226 52.4285 32.7 55.3167 32.7 61.1177H40.7C40.7 62.4611 39.0933 63.1129 38.1542 62.1737L43.811 56.5169ZM32.7 61.1177V68.2681H40.7V61.1177H32.7ZM32.7 68.2681C32.7 71.8617 35.6166 74.7783 39.2102 74.7783V66.7783C40.0349 66.7783 40.7 67.4434 40.7 68.2681H32.7ZM39.2102 74.7783H46.3606V66.7783H39.2102V74.7783ZM46.3606 74.7783C52.1433 74.7783 55.0704 67.7762 50.9614 63.6673L45.3046 69.3241C44.36 68.3796 45.0355 66.7783 46.3606 66.7783V74.7783ZM50.9614 63.6673L48.2458 60.9516L42.5889 66.6085L45.3046 69.3241L50.9614 63.6673ZM48.2458 66.6085L56.5676 58.2866L50.9108 52.6298L42.5889 60.9516L48.2458 66.6085ZM50.9108 58.2866L59.2326 66.6085L64.8895 60.9516L56.5676 52.6298L50.9108 58.2866ZM59.2326 60.9516L56.517 63.6673L62.1739 69.3241L64.8895 66.6085L59.2326 60.9516ZM56.517 63.6673C52.4286 67.7557 55.3168 74.7783 61.1178 74.7783V66.7783C62.4612 66.7783 63.113 68.3849 62.1738 69.3241L56.517 63.6673ZM61.1178 74.7783H68.2682V66.7783H61.1178V74.7783ZM68.2682 74.7783C71.8618 74.7783 74.7785 71.8617 74.7785 68.2681H66.7785C66.7785 67.4434 67.4435 66.7783 68.2682 66.7783V74.7783ZM74.7785 68.2681V61.1177H66.7785V68.2681H74.7785ZM74.7785 61.1177C74.7785 55.3419 67.7672 52.3972 63.6606 56.5237L69.3311 62.1669C68.3736 63.1289 66.7785 62.4359 66.7785 61.1177H74.7785ZM61.1178 42.8982H68.2682V34.8982H61.1178V42.8982ZM68.2682 42.8982C66.1709 42.8982 64.5801 41.1882 64.5801 39.2101H72.5801C72.5801 36.8972 70.7154 34.8982 68.2682 34.8982V42.8982ZM64.5801 39.2101V46.3605H72.5801V39.2101H64.5801ZM64.5801 46.3605C64.5801 43.0553 68.5702 41.4468 70.876 43.7526L65.2192 49.4095C67.9205 52.1109 72.5801 50.2286 72.5801 46.3605H64.5801ZM70.876 43.7526L63.7256 36.6022L58.0688 42.2591L65.2192 49.4095L70.876 43.7526ZM63.7256 36.6022C66.0314 38.908 64.423 42.8982 61.1178 42.8982V34.8982C57.2497 34.8982 55.3674 39.5577 58.0688 42.2591L63.7256 36.6022ZM36.6024 43.7526C38.9082 41.4468 42.8983 43.0553 42.8983 46.3605H34.8983C34.8983 50.2286 39.5579 52.1109 42.2592 49.4095L36.6024 43.7526ZM42.8983 46.3605V39.2101H34.8983V46.3605H42.8983ZM42.8983 39.2101C42.8983 41.3074 41.1883 42.8982 39.2102 42.8982V34.8982C36.8974 34.8982 34.8983 36.7629 34.8983 39.2101H42.8983ZM39.2102 42.8982H46.3606V34.8982H39.2102V42.8982ZM46.3606 42.8982C43.0554 42.8982 41.447 38.908 43.7528 36.6022L49.4096 42.2591C52.111 39.5577 50.2287 34.8982 46.3606 34.8982V42.8982ZM43.7528 36.6022L36.6024 43.7526L42.2592 49.4095L49.4096 42.2591L43.7528 36.6022ZM46.3606 64.58H39.2102V72.58H46.3606V64.58ZM39.2102 64.58C41.3075 64.58 42.8983 66.2899 42.8983 68.2681H34.8983C34.8983 70.5809 36.763 72.58 39.2102 72.58V64.58ZM42.8983 68.2681V61.1177H34.8983V68.2681H42.8983ZM42.8983 61.1177C42.8983 64.4229 38.9082 66.0313 36.6024 63.7255L42.2592 58.0687C39.5579 55.3673 34.8983 57.2496 34.8983 61.1177H42.8983ZM36.6024 63.7255L43.7528 70.8759L49.4096 65.2191L42.2592 58.0687L36.6024 63.7255ZM43.7528 70.8759C41.447 68.5701 43.0554 64.58 46.3606 64.58V72.58C50.2287 72.58 52.111 67.9204 49.4096 65.2191L43.7528 70.8759ZM68.2682 64.58H61.1178V72.58H68.2682V64.58ZM61.1178 64.58C64.423 64.58 66.0314 68.5701 63.7256 70.8759L58.0688 65.2191C55.3674 67.9204 57.2497 72.58 61.1178 72.58V64.58ZM63.7256 70.8759L70.876 63.7255L65.2192 58.0687L58.0688 65.2191L63.7256 70.8759ZM70.876 63.7255C68.5702 66.0313 64.5801 64.4229 64.5801 61.1177H72.5801C72.5801 57.2496 67.9205 55.3673 65.2192 58.0687L70.876 63.7255ZM64.5801 61.1177V68.2681H72.5801V61.1177H64.5801ZM64.5839 68.4418C64.4826 66.1129 66.4015 64.58 68.2682 64.58V72.58C70.4848 72.58 72.6928 70.7732 72.5763 68.0943L64.5839 68.4418Z" fill="url(#paint1_linear)" mask="url(#path-2-inside-1)"/>
<defs>
<linearGradient id="paint0_linear" x1="31.1989" y1="24.195" x2="82.2386" y2="74.3564" gradientUnits="userSpaceOnUse">
<stop stop-opacity="0.02"/>
<stop offset="1" stop-opacity="0.05"/>
</linearGradient>
<linearGradient id="paint1_linear" x1="53.7392" y1="36.6998" x2="55.575" y2="71.5611" gradientUnits="userSpaceOnUse">
<stop stop-color="#FC6E40"/>
<stop offset="1" stop-color="#EE4137"/>
</linearGradient>
</defs>
</svg>
