<svg width="165" height="164" viewBox="0 0 165 164" fill="none" xmlns="http://www.w3.org/2000/svg">
<path d="M115.801 32.7459C135.414 45.1291 149.524 70.3005 143.962 92.6038C138.399 114.907 113.229 134.426 85.9292 135.85C58.5635 137.19 29.0671 120.433 21.955 98.356C14.8619 76.1286 30.2185 48.6646 50.5618 34.7817C70.8397 20.8144 96.1042 20.4282 115.801 32.7459Z" fill="url(#paint0_linear)"/>
<path d="M63.5417 88.5804C63.5417 90.0805 62.3297 91.2955 60.8333 91.2955C59.337 91.2955 58.125 90.0805 58.125 88.5804C58.125 87.0804 59.337 85.8654 60.8333 85.8654C62.3297 85.8654 63.5417 87.0804 63.5417 88.5804ZM82.5 69.5752C83.9964 69.5752 85.2083 68.3602 85.2083 66.8601C85.2083 65.3601 83.9964 64.1451 82.5 64.1451C81.0036 64.1451 79.7917 65.3601 79.7917 66.8601C79.7917 68.3602 81.0036 69.5752 82.5 69.5752ZM97.8472 75.9103C99.3436 75.9103 100.556 74.6953 100.556 73.1952C100.556 71.6952 99.3436 70.4802 97.8472 70.4802C96.3509 70.4802 95.1389 71.6952 95.1389 73.1952C95.1389 74.6953 96.3509 75.9103 97.8472 75.9103ZM105.947 88.2841C106.113 89.2705 105.446 90.2016 104.462 90.3667L89.6568 92.8408C89.3306 96.5332 86.2702 99.4406 82.5 99.4406C78.5109 99.4406 75.2778 96.1995 75.2778 92.2005C75.2778 88.2015 78.5109 84.9604 82.5 84.9604C85.4442 84.9604 87.9663 86.732 89.0914 89.2649L103.871 86.7953C104.834 86.6268 105.782 87.2976 105.947 88.2841ZM86.1111 92.2005C86.1111 90.2015 84.494 88.5804 82.5 88.5804C80.506 88.5804 78.8889 90.2015 78.8889 92.2005C78.8889 94.1994 80.506 95.8205 82.5 95.8205C84.494 95.8205 86.1111 94.1994 86.1111 92.2005ZM67.1528 70.4802C65.6564 70.4802 64.4444 71.6952 64.4444 73.1952C64.4444 74.6953 65.6564 75.9103 67.1528 75.9103C68.6491 75.9103 69.8611 74.6953 69.8611 73.1952C69.8611 71.6952 68.6491 70.4802 67.1528 70.4802ZM115 88.5804C115 94.5535 113.392 100.149 110.592 104.961C109.959 106.049 108.753 106.681 107.496 106.681H57.5043C56.2472 106.681 55.0409 106.049 54.4078 104.961C51.6081 100.149 50 94.5535 50 88.5804C50 70.5865 64.5505 56 82.5 56C100.449 56 115 70.5865 115 88.5804ZM111.389 88.5804C111.389 72.6115 98.4295 59.62 82.5 59.62C66.5705 59.62 53.6111 72.6115 53.6111 88.5804C53.6111 93.7006 54.9653 98.7336 57.5269 103.138L107.496 103.061C110.035 98.7336 111.389 93.7006 111.389 88.5804Z" fill="url(#paint1_linear)"/>
<defs>
<linearGradient id="paint0_linear" x1="47.606" y1="36.919" x2="125.487" y2="113.46" gradientUnits="userSpaceOnUse">
<stop stop-opacity="0.02"/>
<stop offset="1" stop-opacity="0.05"/>
</linearGradient>
<linearGradient id="paint1_linear" x1="69.8666" y1="65.2649" x2="90.9456" y2="101.574" gradientUnits="userSpaceOnUse">
<stop stop-color="#FC6E40"/>
<stop offset="1" stop-color="#EE4137"/>
</linearGradient>
</defs>
</svg>
