<svg width="110" height="109" viewBox="0 0 110 109" fill="none" xmlns="http://www.w3.org/2000/svg">
<path d="M77.1703 21.8221C90.2401 30.0743 99.6434 46.8487 95.9366 61.7116C92.2297 76.5746 75.4565 89.5824 57.2635 90.5312C39.0269 91.4238 19.3704 80.2574 14.6309 65.5449C9.90403 50.7325 20.1377 32.4304 33.6946 23.1788C47.2078 13.8709 64.0442 13.6136 77.1703 21.8221Z" fill="url(#paint0_linear)"/>
<path d="M67.1743 57.6959H56.397V52.6159H74.2981C74.4055 53.3505 74.4719 54.1104 74.4719 55.0522C74.4719 60.6896 72.5304 65.4532 69.2124 68.8042C65.8959 72.1538 61.1418 74.155 55.397 74.155C44.4658 74.155 35.653 65.3989 35.653 54.5708C35.653 43.7426 44.4658 34.9866 55.397 34.9866C60.3201 34.9866 64.5029 36.6371 67.8268 39.4036L63.6363 43.4016C55.4712 36.6857 41.5407 42.5006 41.5407 54.5708C41.5407 62.2935 47.7593 68.5687 55.397 68.5687C64.2272 68.5687 67.6204 62.2339 68.1617 58.854L68.3471 57.6959H67.1743Z" stroke="url(#paint1_linear)" stroke-width="2"/>
<defs>
<linearGradient id="paint0_linear" x1="31.7248" y1="24.6031" x2="83.6249" y2="75.61" gradientUnits="userSpaceOnUse">
<stop stop-opacity="0.02"/>
<stop offset="1" stop-opacity="0.05"/>
</linearGradient>
<linearGradient id="paint1_linear" x1="55.0624" y1="33.9866" x2="57.2991" y2="76.0986" gradientUnits="userSpaceOnUse">
<stop stop-color="#FC6E40"/>
<stop offset="1" stop-color="#EE4137"/>
</linearGradient>
</defs>
</svg>
