<svg  viewBox="0 0 209 218" fill="none" xmlns="http://www.w3.org/2000/svg">
<path opacity="0.4" d="M148.687 117.594C148.672 117.31 148.586 117.034 148.436 116.792C148.286 116.549 148.078 116.349 147.83 116.208L136.292 111.397L131.48 99.8593C131.352 99.6012 131.155 99.3841 130.91 99.2322C130.665 99.0804 130.382 99 130.094 99C129.806 99 129.524 99.0804 129.279 99.2322C129.034 99.3841 128.837 99.6012 128.708 99.8593L123.896 111.397L112.358 116.208C112.1 116.337 111.884 116.535 111.732 116.78C111.581 117.024 111.501 117.306 111.501 117.594C111.501 117.882 111.581 118.164 111.732 118.409C111.884 118.654 112.1 118.851 112.358 118.98L123.896 123.791L128.708 135.329C128.837 135.587 129.034 135.804 129.279 135.956C129.524 136.108 129.806 136.188 130.094 136.188C130.382 136.188 130.665 136.108 130.91 135.956C131.155 135.804 131.352 135.587 131.48 135.329L136.292 123.791L147.83 118.98C148.077 118.839 148.286 118.639 148.435 118.396C148.585 118.154 148.672 117.879 148.687 117.594ZM170.315 149.953L161.085 146.105L157.236 136.876C157.134 136.669 156.975 136.496 156.78 136.374C156.584 136.253 156.358 136.188 156.127 136.188C155.897 136.188 155.671 136.253 155.475 136.374C155.279 136.496 155.121 136.669 155.019 136.876L151.169 146.105L141.939 149.953C141.734 150.057 141.561 150.215 141.44 150.411C141.319 150.606 141.255 150.832 141.255 151.062C141.255 151.292 141.319 151.518 141.44 151.714C141.561 151.909 141.734 152.068 141.939 152.171L151.169 156.02L155.019 165.249C155.121 165.455 155.279 165.629 155.475 165.75C155.671 165.872 155.897 165.936 156.127 165.936C156.358 165.936 156.584 165.872 156.78 165.75C156.976 165.629 157.134 165.455 157.236 165.249L161.085 156.02L170.315 152.171C170.521 152.068 170.694 151.909 170.815 151.714C170.936 151.518 171 151.292 171 151.062C171 150.832 170.936 150.606 170.815 150.411C170.694 150.215 170.521 150.057 170.315 149.953H170.315Z" fill="url(#paint0_linear)"/>
<path d="M136.67 161.125L112.312 157.57L101.41 135.444C99.4599 131.493 93.8126 131.446 91.837 135.444L80.9348 157.57L56.5772 161.125C52.2083 161.753 50.4397 167.146 53.6247 170.236L71.2673 187.434L67.0836 211.742C66.3391 216.136 70.9622 219.437 74.8227 217.367L96.6236 205.889L118.424 217.367C119.306 217.83 120.299 218.037 121.291 217.965C122.284 217.893 123.237 217.545 124.042 216.96C124.847 216.374 125.472 215.576 125.847 214.654C126.222 213.732 126.332 212.723 126.163 211.742L122.005 187.434L139.644 170.236C142.807 167.146 141.039 161.753 136.67 161.125Z" fill="url(#paint1_linear)"/>
<path d="M94 135.611C94 162.713 75.3348 182 47.7705 182C21.3426 182 0 160.778 0 134.5C0 108.222 21.3426 87 47.7705 87C60.6377 87 71.4631 91.6925 79.8037 99.4304L66.8016 111.861C49.793 95.5423 18.1643 107.8 18.1643 134.5C18.1643 151.068 31.4746 164.494 47.7705 164.494C66.6861 164.494 73.7746 151.01 74.8918 144.019H47.7705V127.681H93.2488C93.6918 130.114 94 132.451 94 135.611Z" fill="white"/>
<path d="M189.402 4.5C190.557 2.5 193.443 2.5 194.598 4.5L204.124 21C205.279 23 203.836 25.5 201.526 25.5H182.474C180.164 25.5 178.721 23 179.876 21L189.402 4.5Z" fill="url(#paint2_linear)" fill-opacity="0.5"/>
<defs>
<linearGradient id="paint0_linear" x1="159.934" y1="93.7006" x2="140.665" y2="130.735" gradientUnits="userSpaceOnUse">
<stop stop-color="#FEDA7C"/>
<stop offset="1" stop-color="#F5C879"/>
</linearGradient>
<linearGradient id="paint1_linear" x1="124.653" y1="125.691" x2="102.375" y2="175.954" gradientUnits="userSpaceOnUse">
<stop stop-color="#FEDA7C"/>
<stop offset="1" stop-color="#F5C879"/>
</linearGradient>
<linearGradient id="paint2_linear" x1="185.392" y1="6.21554" x2="200.992" y2="27.168" gradientUnits="userSpaceOnUse">
<stop stop-color="#FC6E40"/>
<stop offset="1" stop-color="#EE4137"/>
</linearGradient>
</defs>
</svg>
