<svg width="165" height="164" viewBox="0 0 165 164" fill="none" xmlns="http://www.w3.org/2000/svg">
<path d="M115.801 32.7459C135.414 45.1291 149.524 70.3005 143.962 92.6038C138.399 114.907 113.229 134.426 85.9292 135.85C58.5635 137.19 29.0671 120.433 21.955 98.356C14.8619 76.1286 30.2185 48.6646 50.5618 34.7817C70.8397 20.8144 96.1042 20.4282 115.801 32.7459Z" fill="url(#paint0_linear)"/>
<path d="M100.801 86.5786H84.6283V78.9545H111.492C111.653 80.057 111.753 81.1975 111.753 82.6109C111.753 91.0704 108.839 98.2189 103.86 103.247C98.8832 108.274 91.7491 111.277 83.1283 111.277C66.7248 111.277 53.5 98.1374 53.5 81.8885C53.5 65.6395 66.7248 52.5 83.1283 52.5C90.5163 52.5 96.7933 54.977 101.781 59.1288L95.4923 65.1289C83.2402 55.0509 62.3363 63.7764 62.3363 81.8885C62.3363 93.4769 71.6676 102.893 83.1283 102.893C96.3785 102.893 101.47 93.3874 102.282 88.3158L102.561 86.5786H100.801Z" stroke="url(#paint1_linear)" stroke-width="3"/>
<defs>
<linearGradient id="paint0_linear" x1="47.606" y1="36.919" x2="125.487" y2="113.46" gradientUnits="userSpaceOnUse">
<stop stop-opacity="0.02"/>
<stop offset="1" stop-opacity="0.05"/>
</linearGradient>
<linearGradient id="paint1_linear" x1="82.6263" y1="51" x2="85.9826" y2="114.193" gradientUnits="userSpaceOnUse">
<stop stop-color="#FC6E40"/>
<stop offset="1" stop-color="#EE4137"/>
</linearGradient>
</defs>
</svg>
