<svg width="165" height="164" viewBox="0 0 165 164" fill="none" xmlns="http://www.w3.org/2000/svg">
<path d="M41.06 84.8407V83.1007L48.94 77.9207V80.9007L44.18 83.9007V84.0407L48.94 87.0407V90.0407L41.06 84.8407ZM58.0122 90.2407C57.2255 90.2407 56.5255 90.1141 55.9122 89.8607C55.2989 89.5941 54.7855 89.2274 54.3722 88.7607C53.9589 88.2807 53.6455 87.7007 53.4322 87.0207C53.2189 86.3407 53.1122 85.5807 53.1122 84.7407C53.1122 83.9007 53.2189 83.1474 53.4322 82.4807C53.6455 81.8007 53.9589 81.2207 54.3722 80.7407C54.7855 80.2607 55.2989 79.8941 55.9122 79.6407C56.5255 79.3874 57.2255 79.2607 58.0122 79.2607C59.0789 79.2607 59.9655 79.5007 60.6722 79.9807C61.3922 80.4607 61.9055 81.1341 62.2122 82.0007L59.8122 83.0407C59.7189 82.6407 59.5255 82.3007 59.2322 82.0207C58.9389 81.7407 58.5322 81.6007 58.0122 81.6007C57.4122 81.6007 56.9589 81.8007 56.6522 82.2007C56.3455 82.5874 56.1922 83.1141 56.1922 83.7807V85.7407C56.1922 86.4074 56.3455 86.9341 56.6522 87.3207C56.9589 87.7074 57.4122 87.9007 58.0122 87.9007C58.5455 87.9007 58.9655 87.7607 59.2722 87.4807C59.5922 87.1874 59.8255 86.8074 59.9722 86.3407L62.2722 87.3407C61.9255 88.3407 61.3855 89.0741 60.6522 89.5407C59.9322 90.0074 59.0522 90.2407 58.0122 90.2407ZM69.6666 90.2407C68.8932 90.2407 68.1999 90.1141 67.5866 89.8607C66.9866 89.6074 66.4732 89.2407 66.0466 88.7607C65.6332 88.2807 65.3132 87.7007 65.0866 87.0207C64.8599 86.3407 64.7466 85.5807 64.7466 84.7407C64.7466 83.9007 64.8599 83.1407 65.0866 82.4607C65.3132 81.7807 65.6332 81.2074 66.0466 80.7407C66.4732 80.2607 66.9866 79.8941 67.5866 79.6407C68.1999 79.3874 68.8932 79.2607 69.6666 79.2607C70.4399 79.2607 71.1266 79.3874 71.7266 79.6407C72.3399 79.8941 72.8532 80.2607 73.2666 80.7407C73.6932 81.2074 74.0199 81.7807 74.2466 82.4607C74.4732 83.1407 74.5866 83.9007 74.5866 84.7407C74.5866 85.5807 74.4732 86.3407 74.2466 87.0207C74.0199 87.7007 73.6932 88.2807 73.2666 88.7607C72.8532 89.2407 72.3399 89.6074 71.7266 89.8607C71.1266 90.1141 70.4399 90.2407 69.6666 90.2407ZM69.6666 87.9007C70.2532 87.9007 70.7066 87.7207 71.0266 87.3607C71.3466 87.0007 71.5066 86.4874 71.5066 85.8207V83.6807C71.5066 83.0141 71.3466 82.5007 71.0266 82.1407C70.7066 81.7807 70.2532 81.6007 69.6666 81.6007C69.0799 81.6007 68.6266 81.7807 68.3066 82.1407C67.9866 82.5007 67.8266 83.0141 67.8266 83.6807V85.8207C67.8266 86.4874 67.9866 87.0007 68.3066 87.3607C68.6266 87.7207 69.0799 87.9007 69.6666 87.9007ZM84.5356 88.2407H84.4356C84.3556 88.5207 84.229 88.7874 84.0556 89.0407C83.8823 89.2807 83.669 89.4941 83.4156 89.6807C83.1756 89.8541 82.8956 89.9874 82.5756 90.0807C82.269 90.1874 81.949 90.2407 81.6156 90.2407C80.2823 90.2407 79.2756 89.7741 78.5956 88.8407C77.9156 87.8941 77.5756 86.5274 77.5756 84.7407C77.5756 82.9541 77.9156 81.5941 78.5956 80.6607C79.2756 79.7274 80.2823 79.2607 81.6156 79.2607C82.2956 79.2607 82.8956 79.4474 83.4156 79.8207C83.949 80.1941 84.289 80.6741 84.4356 81.2607H84.5356V75.2007H87.4956V90.0007H84.5356V88.2407ZM82.5956 87.8407C83.1556 87.8407 83.6156 87.7074 83.9756 87.4407C84.349 87.1607 84.5356 86.7807 84.5356 86.3007V83.2007C84.5356 82.7207 84.349 82.3474 83.9756 82.0807C83.6156 81.8007 83.1556 81.6607 82.5956 81.6607C82.0356 81.6607 81.569 81.8607 81.1956 82.2607C80.8356 82.6474 80.6556 83.1741 80.6556 83.8407V85.6607C80.6556 86.3274 80.8356 86.8607 81.1956 87.2607C81.569 87.6474 82.0356 87.8407 82.5956 87.8407ZM96.0436 90.2407C95.2436 90.2407 94.5303 90.1141 93.9036 89.8607C93.2769 89.5941 92.7436 89.2274 92.3036 88.7607C91.8769 88.2807 91.5503 87.7007 91.3236 87.0207C91.1103 86.3407 91.0036 85.5807 91.0036 84.7407C91.0036 83.9141 91.1103 83.1674 91.3236 82.5007C91.5369 81.8207 91.8503 81.2407 92.2636 80.7607C92.6903 80.2807 93.2103 79.9141 93.8236 79.6607C94.4369 79.3941 95.1369 79.2607 95.9236 79.2607C96.7903 79.2607 97.5303 79.4074 98.1436 79.7007C98.7703 79.9941 99.2769 80.3874 99.6636 80.8807C100.064 81.3741 100.35 81.9474 100.524 82.6007C100.71 83.2407 100.804 83.9141 100.804 84.6207V85.5007H94.0636V85.6607C94.0636 86.3541 94.2503 86.9074 94.6236 87.3207C94.9969 87.7207 95.5836 87.9207 96.3836 87.9207C96.9969 87.9207 97.4969 87.8007 97.8836 87.5607C98.2703 87.3074 98.6303 87.0074 98.9636 86.6607L100.444 88.5007C99.9769 89.0474 99.3636 89.4741 98.6036 89.7807C97.8569 90.0874 97.0036 90.2407 96.0436 90.2407ZM95.9836 81.4407C95.3836 81.4407 94.9103 81.6407 94.5636 82.0407C94.2303 82.4274 94.0636 82.9474 94.0636 83.6007V83.7607H97.7436V83.5807C97.7436 82.9407 97.5969 82.4274 97.3036 82.0407C97.0236 81.6407 96.5836 81.4407 95.9836 81.4407ZM102.974 93.0207L108.934 75.2007H111.374L105.414 93.0207H102.974ZM115.573 87.0407L120.333 84.0407V83.9007L115.573 80.9007V77.9207L123.453 83.0807V84.8207L115.573 90.0407V87.0407Z" fill="url(#paint0_linear)"/>
<path d="M115.801 32.7487C135.414 45.1319 149.524 70.3034 143.962 92.6066C138.399 114.91 113.229 134.429 85.9292 135.853C58.5634 137.192 29.0671 120.436 21.955 98.3588C14.8619 76.1314 30.2185 48.6674 50.5618 34.7845C70.8397 20.8172 96.1042 20.431 115.801 32.7487Z" fill="url(#paint1_linear)"/>
<defs>
<linearGradient id="paint0_linear" x1="65.5907" y1="73.7538" x2="70.871" y2="97.4839" gradientUnits="userSpaceOnUse">
<stop stop-color="#FC6E40"/>
<stop offset="1" stop-color="#EE4137"/>
</linearGradient>
<linearGradient id="paint1_linear" x1="47.606" y1="36.9218" x2="125.487" y2="113.462" gradientUnits="userSpaceOnUse">
<stop stop-opacity="0.02"/>
<stop offset="1" stop-opacity="0.05"/>
</linearGradient>
</defs>
</svg>
