<svg width="112" height="54" viewBox="0 0 112 54" fill="none" xmlns="http://www.w3.org/2000/svg">
<path d="M20.2688 21.852V24.872H17V28.6H20.2688V37H24.1374V28.6H27.4338L27.8284 24.874H24.1374V21.852C24.1374 21.318 24.5536 21.052 24.7292 20.888C25.0389 20.62 26.5343 20.578 26.5343 20.578H28V17.2C27.2368 17.0844 26.4673 17.0176 25.6958 17C20.1564 17 20.2688 21.852 20.2688 21.852Z" stroke="url(#paint0_linear)" stroke-miterlimit="10"/>
<path d="M89.0045 21.8723C86.1661 21.8723 83.8767 24.1617 83.8767 27C83.8767 29.8383 86.1661 32.1277 89.0045 32.1277C91.8428 32.1277 94.1322 29.8383 94.1322 27C94.1322 24.1617 91.8428 21.8723 89.0045 21.8723ZM89.0045 30.3337C87.1702 30.3337 85.6708 28.8387 85.6708 27C85.6708 25.1613 87.1658 23.6663 89.0045 23.6663C90.8431 23.6663 92.3382 25.1613 92.3382 27C92.3382 28.8387 90.8387 30.3337 89.0045 30.3337ZM95.538 21.6625C95.538 22.3275 95.0024 22.8585 94.3419 22.8585C93.677 22.8585 93.1459 22.323 93.1459 21.6625C93.1459 21.002 93.6815 20.4665 94.3419 20.4665C95.0024 20.4665 95.538 21.002 95.538 21.6625ZM98.9342 22.8764C98.8583 21.2742 98.4923 19.8551 97.3186 18.6858C96.1494 17.5166 94.7302 17.1506 93.1281 17.0703C91.4768 16.9766 86.5276 16.9766 84.8764 17.0703C83.2787 17.1462 81.8595 17.5121 80.6858 18.6814C79.5121 19.8506 79.1506 21.2698 79.0703 22.8719C78.9766 24.5232 78.9766 29.4724 79.0703 31.1236C79.1462 32.7258 79.5121 34.1449 80.6858 35.3142C81.8595 36.4834 83.2742 36.8494 84.8764 36.9297C86.5276 37.0234 91.4768 37.0234 93.1281 36.9297C94.7302 36.8538 96.1494 36.4879 97.3186 35.3142C98.4879 34.1449 98.8538 32.7258 98.9342 31.1236C99.0279 29.4724 99.0279 24.5276 98.9342 22.8764ZM96.8009 32.8953C96.4528 33.7701 95.779 34.4439 94.8998 34.7965C93.5833 35.3186 90.4593 35.1981 89.0045 35.1981C87.5496 35.1981 84.4212 35.3142 83.1091 34.7965C82.2344 34.4484 81.5605 33.7745 81.208 32.8953C80.6858 31.5788 80.8063 28.4549 80.8063 27C80.8063 25.5451 80.6903 22.4167 81.208 21.1047C81.5561 20.2299 82.2299 19.5561 83.1091 19.2035C84.4256 18.6814 87.5496 18.8019 89.0045 18.8019C90.4593 18.8019 93.5877 18.6858 94.8998 19.2035C95.7745 19.5516 96.4484 20.2255 96.8009 21.1047C97.3231 22.4212 97.2026 25.5451 97.2026 27C97.2026 28.4549 97.3231 31.5833 96.8009 32.8953Z" fill="url(#paint1_linear)"/>
<rect x="1.5" y="1.5" width="109" height="51" rx="4.5" stroke="url(#paint2_linear)" stroke-width="3"/>
<path d="M61.4891 19.6652C62.0487 19.6728 62.601 19.7918 63.1131 20.0149C63.6252 20.2381 64.0866 20.5609 64.4698 20.9642C64.4698 20.9642 66.0965 20.6484 66.9949 20.0231C66.9949 20.0231 66.7693 21.261 65.2725 22.2084H65.2853C65.4002 22.2084 66.2391 22.1873 67.5592 21.5768C67.5592 21.5768 67.3058 22.2905 65.5791 23.6484C65.6834 26.861 64.076 32.7999 58.1272 34.9136C56.8208 35.3862 55.4412 35.6305 54.05 35.6357C51.8212 35.6457 49.6381 35.0113 47.7692 33.8104C48.0885 33.842 48.376 33.842 48.6634 33.842C52.1807 33.842 53.884 32.0568 53.7903 32.0568H53.6604C50.6797 32.0568 49.9536 29.2357 49.9536 29.2357C50.1924 29.3784 50.4693 29.446 50.7478 29.4294C51.1077 29.422 51.4653 29.3704 51.8123 29.2757C48.4484 28.4884 48.574 25.2968 48.574 25.2968C49.0286 25.5968 49.5605 25.7619 50.1069 25.7726C50.1968 25.7736 50.2866 25.7665 50.3752 25.7515C47.3029 23.3473 49.1531 20.4779 49.1531 20.4779C52.615 24.4505 56.8711 24.5915 57.4566 24.5915H57.5268C57.2117 22.7263 57.9889 20.9347 60.0818 19.96C60.5184 19.7617 60.9938 19.6611 61.4742 19.6652H61.4891ZM68.9537 17L66.2008 18.9116C65.7803 19.1608 65.3257 19.3487 64.8509 19.4695C63.8874 18.7255 62.703 18.3156 61.4806 18.3032C60.7972 18.2969 60.1209 18.4407 59.5005 18.7242C57.546 19.6316 56.358 21.1979 56.1216 23.0779C53.8078 22.606 51.7229 21.3753 50.2049 19.5852L48.9913 18.1937L47.9906 19.7368C47.3455 20.7876 47.0896 22.0274 47.2667 23.2442L47.1879 25.2505C47.1703 26.5241 47.5982 27.7646 48.3994 28.762L48.6123 29.5831C48.9177 30.6434 49.5377 31.5887 50.3922 32.2968C49.8237 32.4197 49.2432 32.4805 48.6613 32.4778C48.4079 32.4778 48.146 32.4673 47.882 32.4462L43 32.0441L46.9495 34.9136C49.0571 36.2848 51.5271 37.0105 54.05 36.9999C55.6028 36.9958 57.143 36.7251 58.602 36.1999C61.529 35.167 63.9444 33.0642 65.3513 30.3241C66.3245 28.453 66.8744 26.3949 66.963 24.2926C68.3746 23.0905 68.7621 22.3242 68.8664 22.0316L69.9565 18.9642L68.4662 19.6505L68.9537 17Z" fill="url(#paint3_linear)"/>
<defs>
<linearGradient id="paint0_linear" x1="22.5" y1="17" x2="22.5" y2="37" gradientUnits="userSpaceOnUse">
<stop stop-color="#FC6E40"/>
<stop offset="1" stop-color="#EE4137"/>
</linearGradient>
<linearGradient id="paint1_linear" x1="89.0022" y1="17" x2="89.0022" y2="37" gradientUnits="userSpaceOnUse">
<stop stop-color="#FC6E40"/>
<stop offset="1" stop-color="#EE4137"/>
</linearGradient>
<linearGradient id="paint2_linear" x1="56" y1="0" x2="56" y2="54" gradientUnits="userSpaceOnUse">
<stop stop-color="#FC6E40"/>
<stop offset="1" stop-color="#EE4137"/>
</linearGradient>
<linearGradient id="paint3_linear" x1="56.4783" y1="17" x2="56.4783" y2="37" gradientUnits="userSpaceOnUse">
<stop stop-color="#FC6E40"/>
<stop offset="1" stop-color="#EE4137"/>
</linearGradient>
</defs>
</svg>
