<svg width="78" height="83" viewBox="0 0 78 83" fill="none" xmlns="http://www.w3.org/2000/svg">
<path d="M30.818 49.8341C29.9733 49.6652 29.8044 50.003 29.8044 50.8477C30.1423 58.7873 30.3112 66.727 30.4801 74.6667C30.4801 75.6802 31.1558 75.8492 31.6626 76.187C32.6762 77.0317 33.0141 78.2142 32.5073 79.3967C32.1694 80.4103 30.818 81.2549 29.6355 81.086C28.453 80.917 27.4394 80.2413 27.1016 79.0588C26.7637 77.7074 27.1016 76.6938 28.2841 76.0181C29.1287 75.5113 29.2976 75.0045 29.2976 74.1599C29.1287 67.5716 28.9598 61.1523 28.6219 54.5641C28.6219 54.2262 28.7908 53.8884 28.453 53.7195C28.1151 53.5505 27.9462 54.0573 27.7773 54.0573C26.4258 54.902 26.088 56.2534 26.4258 57.6048C26.7637 59.2941 26.088 60.4766 24.9055 61.6591C22.8783 63.5173 21.0201 65.7134 19.1619 67.7406C18.824 68.0784 18.824 68.4163 18.824 68.9231C19.1619 70.4434 18.4862 71.457 17.1347 72.1327C16.1212 72.6395 14.7697 72.3017 13.9251 71.2881C13.0804 70.2745 13.0804 68.9231 13.7562 67.7406C14.4319 66.8959 15.7833 66.3891 16.9658 66.8959C17.6415 67.2338 17.9794 67.0649 18.4862 66.5581C20.5133 64.362 22.3715 62.3348 24.3987 60.3077C24.9055 59.8009 25.0744 59.1252 24.9055 58.6184C24.2298 55.9155 25.5812 53.8884 27.6083 52.1991C28.453 51.5234 28.1151 50.6787 28.1151 49.8341C28.1151 49.3273 27.7773 49.4962 27.4394 49.4962C26.5948 49.4962 25.7501 49.4962 24.9055 49.4962C23.3851 49.4962 22.8783 48.9894 22.8783 47.4691C22.8783 45.6109 22.8783 43.7526 22.8783 41.8944C22.8783 41.8944 22.8783 41.8944 22.7094 41.7255C21.5269 43.0769 20.1755 44.4284 18.993 45.7798C18.3172 46.6244 18.6551 47.9759 19.6687 48.4827C20.8512 49.1584 21.189 50.5098 20.8512 51.6923C20.5133 52.7059 19.3308 53.5505 18.1483 53.5505C17.1347 53.5505 15.7833 52.5369 15.4454 51.6923C15.1076 50.5098 15.6144 48.9894 16.7969 48.4827C17.6415 48.1448 17.8104 47.4691 17.8104 46.6244C17.6415 45.7798 17.9794 45.273 18.4862 44.5973C19.8376 43.2458 21.189 41.8944 22.3715 40.543C22.8783 40.0362 23.0473 39.6983 23.0473 39.0226C23.0473 35.1373 23.0473 31.2519 23.0473 27.3665C23.0473 26.5219 22.8783 26.5219 22.0337 26.5219C20.1755 26.5219 18.4862 26.6908 17.4726 28.549C16.7969 29.3937 15.9522 30.2383 15.1076 30.914C13.9251 31.9276 13.5872 32.9412 13.7562 34.4615C13.9251 36.4887 13.9251 38.6848 13.9251 40.7119C13.9251 41.5566 13.7562 42.2323 13.0804 42.7391C11.729 43.9216 10.5465 45.4419 9.364 46.6244C8.85721 47.1312 9.02614 47.638 9.19507 48.1448C10.0397 50.003 9.53293 52.368 8.18149 53.7195C6.4922 55.2398 4.46505 55.5777 2.43791 54.3952C0.579685 53.3816 -0.26496 51.5234 0.0728984 49.3273C0.410757 46.6244 3.45148 44.7662 5.98542 45.6109C6.83006 45.7798 7.33685 45.7798 7.84364 45.1041C8.85721 43.9216 9.87079 42.7391 11.0533 41.7255C11.3911 41.3876 11.5601 40.8808 11.5601 40.3741C11.3911 38.009 11.5601 35.644 11.3911 33.279C11.2222 32.0965 11.5601 31.4208 12.4047 30.5762C14.094 28.7179 15.9522 26.8597 17.6415 25.0015C18.1483 24.4947 18.6551 24.6636 19.1619 24.4947C20.3444 24.3258 21.8647 24.8326 22.5405 24.1569C23.3851 23.3122 22.7094 21.7919 22.7094 20.6093C22.7094 14.6968 22.7094 8.61538 22.7094 2.70286C22.7094 0.506786 23.2162 0 25.4123 0C28.1151 0 30.818 0 33.6898 0C35.548 0 36.2237 0.675716 36.2237 2.53394C36.2237 7.43288 36.2237 12.5008 36.2237 17.3997C36.2237 18.2443 36.3927 18.5822 37.4062 18.5822C42.3052 18.5822 47.0352 18.5822 51.9341 18.5822C52.7788 18.5822 52.9477 18.4133 52.9477 17.5686C52.9477 12.5008 52.9477 7.43288 52.9477 2.53394C52.9477 0.675716 53.4545 0 55.4816 0C58.3534 0 61.0563 0 63.9281 0C65.7863 0 66.2931 0.675716 66.2931 2.53394C66.2931 17.5686 66.2931 32.4344 66.2931 47.4691C66.2931 49.1584 65.9552 49.4962 64.266 49.6652C63.9281 49.6652 63.5902 49.6652 63.5902 50.1719C63.7592 51.0166 63.2524 51.8612 64.097 52.5369C66.462 54.733 68.6581 56.9291 71.0231 58.9563C72.3745 60.1388 73.0503 61.3213 73.0503 63.1795C72.8813 65.0377 73.2192 66.8959 73.0503 68.7541C73.0503 69.5988 73.3881 70.1056 74.0638 70.4434C76.9356 71.7949 78.456 75.6802 76.5978 78.721C74.0638 82.7753 69.5027 83.282 66.462 79.5656C63.7592 76.187 65.1106 71.7949 69.1649 70.1056C69.6717 69.9366 69.8406 69.5988 69.8406 69.092C69.8406 66.8959 69.6717 64.8688 69.6717 62.6727C69.6717 62.1659 69.5028 61.8281 69.1649 61.4902C66.9688 59.463 64.9417 57.4359 62.7456 55.4087C61.2252 54.0573 60.3806 52.7059 60.5495 50.6787C60.7184 49.1584 59.7049 49.6652 58.8602 49.4962C57.8466 49.3273 58.0156 50.1719 58.0156 50.6787C58.1845 55.0709 58.3534 59.2941 58.3534 63.6863C58.3534 64.362 58.5224 65.0377 59.1981 65.3756C61.3942 66.3891 62.4077 68.5852 61.732 70.9502C61.2252 72.9774 59.0292 74.4977 56.8331 74.3288C54.4681 74.3288 52.7788 72.3017 52.4409 70.6124C51.9341 68.7542 52.7788 66.5581 54.637 65.5445C55.9884 64.8688 56.1574 64.0241 56.1574 62.8416C55.9884 60.4766 55.9884 58.1116 55.9884 55.7466C55.9884 55.4087 56.1574 55.0709 55.8195 54.902C55.4816 54.733 55.3127 55.0709 55.1438 55.2398C52.7788 57.7737 50.2448 60.4766 47.8798 63.0106C47.373 63.5173 47.2041 63.8552 47.2041 64.5309C47.373 67.2338 47.373 69.9366 47.373 72.8084C47.373 73.4842 47.8798 73.822 48.3866 73.991C49.7381 74.6667 50.5827 75.8492 50.4138 77.3695C50.2448 78.8899 49.2313 80.2413 47.7109 80.5792C46.1905 80.917 44.6702 80.2413 43.8255 78.8899C42.9809 77.5385 43.1498 75.5113 44.5012 74.8356C46.0216 73.822 46.0216 72.6395 46.0216 71.1191C45.8527 68.7541 45.8527 66.5581 45.8527 64.1931C45.8527 63.3484 46.1905 62.8416 46.6973 62.1659C49.7381 58.9563 52.6098 55.9155 55.6506 52.7059C56.4952 51.6923 56.1574 50.6787 56.1574 49.8341C56.1574 49.3273 55.6506 49.4962 55.3127 49.4962C53.9613 49.3273 53.2856 48.8205 53.2856 47.4691C53.2856 41.8944 53.2856 36.1508 53.2856 30.5762C53.1166 30.5762 52.7788 30.7451 52.4409 30.7451C49.907 30.7451 47.373 30.7451 44.8391 30.7451C43.8255 30.7451 43.4877 31.083 43.4877 32.0965C43.8255 36.3198 43.8255 40.7119 43.9945 44.9351C43.9945 45.4419 44.1634 45.7798 44.6702 45.9487C46.1905 46.6244 47.2041 48.6516 46.8663 50.1719C46.3595 52.1991 44.6702 53.3816 42.643 53.2127C41.1227 53.0437 39.4334 51.6923 39.0955 50.1719C38.7577 48.6516 39.6023 46.6244 41.1227 46.1176C41.9673 45.7798 42.1362 45.273 42.1362 44.5973C41.9673 41.2187 42.1362 37.8401 41.7984 34.2926C41.7984 33.448 41.9673 32.6033 41.9673 31.7587C41.9673 31.083 41.6295 30.914 40.9537 30.914C39.9402 30.914 38.7577 30.914 37.7441 30.914C36.8994 30.914 36.5616 31.083 36.5616 32.0965C36.5616 36.9955 36.5616 41.8944 36.5616 46.7934C36.5616 47.4691 36.7305 48.1448 36.3927 48.8205C36.2237 49.6652 35.548 50.003 34.7034 50.003C33.8587 50.003 32.8451 50.003 32.0005 50.003C31.8316 50.1719 31.6626 50.5098 31.6626 50.8477C31.8316 54.0573 31.6626 57.098 32.0005 60.3077C32.0005 60.4766 31.8316 60.6455 31.6626 60.6455C30.9869 60.4766 31.1559 59.9698 31.1559 59.463C30.818 56.7602 31.1558 54.0573 30.818 51.3544C30.9869 50.6787 31.1558 50.1719 30.818 49.8341Z" fill="#F4F1D0"/>
<path d="M32.0005 60.3076C31.6627 59.8008 31.8316 59.294 31.6627 58.7872C31.4937 56.0843 31.8316 53.5504 31.4937 50.8475C31.4937 50.5097 31.3248 50.0029 32.0005 49.834C31.8316 53.0436 32.1695 56.0843 32.1695 59.294C32.1695 59.6319 32.3384 59.9697 32.6762 60.1386C33.352 60.8144 34.1966 61.4901 34.8723 62.1658C35.2102 62.5037 35.548 62.5037 35.8859 62.3347C37.2373 61.8279 38.7577 62.5037 39.2645 63.8551C39.7713 65.2065 39.2645 66.7269 37.913 67.4026C36.7305 67.9094 35.717 67.7405 34.8723 67.0647C34.0277 66.389 33.6898 65.3754 34.0277 64.1929C34.3655 63.5172 34.1966 62.8415 33.5209 62.5037C31.3248 61.1522 30.6491 59.1251 30.818 56.5911C30.987 54.3951 30.6491 52.03 30.6491 49.665C31.4937 49.665 31.1559 50.3408 31.1559 50.6786C31.1559 53.3815 30.987 56.2533 31.4937 58.9561C31.6627 59.6319 31.4937 60.1386 32.0005 60.3076C32.1695 60.4765 32.1695 60.6454 32.5073 60.8144C32.3384 60.6454 32.1695 60.4765 32.0005 60.3076Z" fill="#F4F1D0"/>
<path d="M68.996 76.0183C68.996 74.329 70.1785 73.1465 71.8678 73.1465C73.3881 73.1465 74.7395 74.4979 74.7395 76.1872C74.7395 77.7076 73.557 79.059 71.8678 79.059C70.1785 79.059 68.996 77.8765 68.996 76.0183Z" fill="#222222"/>
<path d="M5.3097 53.0439C3.78934 53.0439 2.60683 51.8614 2.60683 50.3411C2.60683 48.9896 3.95827 47.6382 5.3097 47.6382C6.83006 47.6382 8.01256 48.8207 8.01256 50.3411C8.01256 52.0303 6.99899 53.0439 5.3097 53.0439Z" fill="#222222"/>
<path d="M59.8738 71.4572C59.1981 72.3019 58.3534 72.9776 57.002 72.6397C55.9884 72.3019 55.1438 71.6262 54.9749 70.4437C54.637 68.7544 55.6506 67.5719 57.3399 67.4029C59.0292 67.234 60.2117 68.2476 60.3806 70.2747C60.2117 70.6126 60.3806 71.1194 59.8738 71.4572Z" fill="#222222"/>
<path d="M47.373 75.0044C48.7245 75.0044 49.7381 76.1869 49.7381 77.5383C49.7381 78.7208 48.5555 80.0723 47.2041 80.0723C45.8527 80.0723 44.8391 78.8898 44.8391 77.5383C45.008 75.849 46.0216 75.0044 47.373 75.0044Z" fill="#222222"/>
<path d="M43.1498 47.4692C44.1634 47.4692 45.1769 48.4828 45.1769 49.3275C45.1769 50.341 44.1634 51.3546 43.1498 51.3546C42.1362 51.3546 41.1227 50.51 41.1227 49.3275C41.1227 48.145 41.9673 47.4692 43.1498 47.4692Z" fill="#222222"/>
<path d="M17.9794 69.9368C17.9794 70.9504 17.3037 71.6261 16.2901 71.6261C15.2765 71.6261 14.6008 70.7815 14.4319 69.9368C14.4319 68.9233 15.2765 68.0786 16.2901 68.0786C17.1347 68.0786 17.9794 68.9233 17.9794 69.9368Z" fill="#222222"/>
<path d="M16.7969 51.1854C16.7969 50.3407 17.6415 49.4961 18.4862 49.4961C19.3308 49.4961 20.3444 50.3407 20.3444 51.1854C20.3444 52.03 19.4998 53.0436 18.4862 53.0436C17.6415 52.8747 16.7969 52.03 16.7969 51.1854Z" fill="#222222"/>
<path d="M29.9734 76.6938C30.987 76.6938 31.6627 77.3696 31.4937 78.5521C31.4937 79.5656 30.818 80.0724 29.8044 80.0724C28.7909 80.0724 28.1152 79.2278 28.1152 78.3831C28.2841 77.3696 28.9598 76.6938 29.9734 76.6938Z" fill="#222222"/>
<path d="M59.8738 71.4569C59.8738 70.9501 60.0427 70.4433 60.3806 70.1055C60.5495 70.6123 60.5495 71.1191 59.8738 71.4569Z" fill="#A09E9D"/>
<path d="M49.0623 38.8537C48.2177 38.8537 47.373 38.0091 47.373 37.1645C47.373 36.3198 48.3866 35.3062 49.2313 35.4752C50.0759 35.6441 50.9206 35.982 50.9206 37.1645C50.9206 38.0091 50.0759 38.8537 49.0623 38.8537Z" fill="#222222"/>
<path d="M36.8994 63.3482C37.913 63.3482 38.4198 64.0239 38.4198 65.0375C38.4198 66.051 37.7441 66.8957 36.7305 66.8957C35.7169 66.8957 35.0412 66.22 35.0412 65.2064C35.0412 64.0239 35.7169 63.1793 36.8994 63.3482Z" fill="#222222"/>
<path d="M32.0005 60.3076C32.6762 60.8144 32.6762 60.8144 33.183 61.659C32.5073 61.1523 32.1694 60.8144 32.0005 60.3076Z" fill="#F4F1D0"/>
</svg>
