<svg width="77" height="81" viewBox="0 0 77 81" fill="none" xmlns="http://www.w3.org/2000/svg">
<path d="M30.4128 49.1788C29.5792 49.0121 29.4125 49.3455 29.4125 50.179C29.7459 58.0143 29.9126 65.8496 30.0793 73.6848C30.0793 74.6851 30.7462 74.8518 31.2463 75.1852C32.2465 76.0188 32.58 77.1857 32.0798 78.3527C31.7464 79.3529 30.4128 80.1864 29.2458 80.0197C28.0788 79.853 27.0786 79.1862 26.7452 78.0192C26.4118 76.6856 26.7452 75.6853 27.9121 75.0185C28.7457 74.5184 28.9124 74.0183 28.9124 73.1847C28.7457 66.6831 28.579 60.3482 28.2456 53.8466C28.2456 53.5132 28.4123 53.1798 28.0788 53.0131C27.7454 52.8464 27.5787 53.3465 27.412 53.3465C26.0784 54.18 25.7449 55.5137 26.0784 56.8474C26.4118 58.5144 25.7449 59.6814 24.578 60.8483C22.5775 62.6821 20.7437 64.8493 18.9099 66.8498C18.5765 67.1832 18.5765 67.5167 18.5765 68.0168C18.9099 69.5172 18.2431 70.5174 16.9094 71.1842C15.9092 71.6843 14.5755 71.3509 13.742 70.3507C12.9084 69.3504 12.9084 68.0168 13.5753 66.8498C14.2421 66.0163 15.5758 65.5162 16.7427 66.0163C17.4095 66.3497 17.743 66.183 18.2431 65.6829C20.2436 63.5157 22.0774 61.5152 24.0779 59.5147C24.578 59.0146 24.7447 58.3477 24.578 57.8476C23.9112 55.1803 25.2448 53.1798 27.2453 51.5127C28.0788 50.8459 27.7454 50.0123 27.7454 49.1788C27.7454 48.6787 27.412 48.8454 27.0786 48.8454C26.2451 48.8454 25.4115 48.8454 24.578 48.8454C23.0776 48.8454 22.5775 48.3453 22.5775 46.8449C22.5775 45.0111 22.5775 43.1773 22.5775 41.3435C22.5775 41.3435 22.5775 41.3435 22.4108 41.1768C21.2438 42.5105 19.9102 43.8442 18.7432 45.1778C18.0764 46.0114 18.4098 47.345 19.41 47.8451C20.577 48.512 20.9104 49.8456 20.577 51.0126C20.2436 52.0128 19.0766 52.8464 17.9097 52.8464C16.9094 52.8464 15.5758 51.8461 15.2423 51.0126C14.9089 49.8456 15.4091 48.3453 16.576 47.8451C17.4095 47.5117 17.5763 46.8449 17.5763 46.0114C17.4095 45.1778 17.743 44.6777 18.2431 44.0109C19.5767 42.6772 20.9104 41.3435 22.0774 40.0099C22.5775 39.5097 22.7442 39.1763 22.7442 38.5095C22.7442 34.6752 22.7442 30.8409 22.7442 27.0067C22.7442 26.1731 22.5775 26.1731 21.7439 26.1731C19.9102 26.1731 18.2431 26.3398 17.2428 28.1736C16.576 29.0072 15.7425 29.8407 14.9089 30.5075C13.742 31.5078 13.4086 32.508 13.5753 34.0084C13.742 36.0089 13.742 38.1761 13.742 40.1766C13.742 41.0101 13.5753 41.6769 12.9084 42.1771C11.5748 43.344 10.4078 44.8444 9.24087 46.0114C8.74074 46.5115 8.90745 47.0116 9.07416 47.5117C9.9077 49.3455 9.40758 51.6794 8.07391 53.0131C6.40684 54.5135 4.40634 54.8469 2.40585 53.6799C0.572063 52.6797 -0.261476 50.8459 0.0719399 48.6787C0.405355 46.0113 3.4061 44.1776 5.90671 45.0111C6.74025 45.1778 7.24037 45.1778 7.7405 44.511C8.74074 43.344 9.74099 42.1771 10.9079 41.1768C11.2414 40.8434 11.4081 40.3433 11.4081 39.8432C11.2414 37.5093 11.4081 35.1753 11.2414 32.8414C11.0747 31.6745 11.4081 31.0077 12.2416 30.1741C13.9087 28.3403 15.7425 26.5065 17.4095 24.6728C17.9097 24.1726 18.4098 24.3393 18.9099 24.1726C20.0769 24.0059 21.5772 24.506 22.2441 23.8392C23.0776 23.0057 22.4108 21.5053 22.4108 20.3383C22.4108 14.5036 22.4108 8.5021 22.4108 2.66732C22.4108 0.500122 22.9109 0 25.0781 0C27.7454 0 30.4128 0 33.2468 0C35.0806 0 35.7474 0.666831 35.7474 2.50062C35.7474 7.33514 35.7474 12.3364 35.7474 17.1709C35.7474 18.0044 35.9141 18.3379 36.9144 18.3379C41.7489 18.3379 46.4167 18.3379 51.2512 18.3379C52.0848 18.3379 52.2515 18.1711 52.2515 17.3376C52.2515 12.3364 52.2515 7.33514 52.2515 2.50062C52.2515 0.666831 52.7516 0 54.7521 0C57.5861 0 60.2534 0 63.0875 0C64.9213 0 65.4214 0.666831 65.4214 2.50062C65.4214 17.3376 65.4214 32.0079 65.4214 46.8449C65.4214 48.512 65.088 48.8454 63.4209 49.0121C63.0875 49.0121 62.7541 49.0121 62.7541 49.5122C62.9208 50.3457 62.4207 51.1793 63.2542 51.8461C65.5881 54.0133 67.7553 56.1805 70.0892 58.181C71.4229 59.348 72.0897 60.5149 72.0897 62.3487C71.923 64.1825 72.2564 66.0163 72.0897 67.8501C72.0897 68.6836 72.4231 69.1837 73.0899 69.5171C75.924 70.8508 77.4243 74.6851 75.5906 77.6858C73.0899 81.6868 68.5888 82.1869 65.5881 78.5194C62.9208 75.1852 64.2544 70.8508 68.2554 69.1837C68.7555 69.017 68.9222 68.6836 68.9222 68.1835C68.9222 66.0163 68.7555 64.0158 68.7555 61.8486C68.7555 61.3485 68.5888 61.0151 68.2554 60.6816C66.0882 58.6811 64.0877 56.6807 61.9205 54.6802C60.4202 53.3465 59.5866 52.0128 59.7533 50.0123C59.92 48.512 58.9198 49.0121 58.0862 48.8454C57.086 48.6787 57.2527 49.5122 57.2527 50.0123C57.4194 54.3467 57.5861 58.5144 57.5861 62.8488C57.5861 63.5157 57.7528 64.1825 58.4197 64.5159C60.5869 65.5162 61.5871 67.6834 60.9203 70.0173C60.4202 72.0178 58.253 73.5181 56.0858 73.3514C53.7518 73.3514 52.0848 71.3509 51.7514 69.6839C51.2512 67.8501 52.0848 65.6829 53.9185 64.6826C55.2522 64.0158 55.4189 63.1822 55.4189 62.0153C55.2522 59.6814 55.2522 57.3475 55.2522 55.0136C55.2522 54.6802 55.4189 54.3467 55.0855 54.18C54.7521 54.0133 54.5854 54.3467 54.4187 54.5134C52.0848 57.0141 49.5841 59.6814 47.2502 62.182C46.7501 62.6821 46.5834 63.0155 46.5834 63.6824C46.7501 66.3497 46.7501 69.017 46.7501 71.8511C46.7501 72.5179 47.2502 72.8513 47.7504 73.018C49.084 73.6848 49.9176 74.8518 49.7509 76.3522C49.5841 77.8525 48.5839 79.1862 47.0835 79.5196C45.5832 79.853 44.0828 79.1862 43.2493 77.8525C42.4157 76.5189 42.5824 74.5184 43.9161 73.8516C45.4165 72.8513 45.4165 71.6843 45.4165 70.184C45.2497 67.8501 45.2497 65.6829 45.2497 63.349C45.2497 62.5154 45.5832 62.0153 46.0833 61.3485C49.084 58.181 51.9181 55.1803 54.9188 52.0128C55.7523 51.0126 55.4189 50.0123 55.4189 49.1788C55.4189 48.6787 54.9188 48.8454 54.5854 48.8454C53.2517 48.6787 52.5849 48.1786 52.5849 46.8449C52.5849 41.3435 52.5849 35.6755 52.5849 30.1741C52.4182 30.1741 52.0848 30.3408 51.7514 30.3408C49.2507 30.3408 46.7501 30.3408 44.2495 30.3408C43.2493 30.3408 42.9158 30.6742 42.9158 31.6745C43.2493 35.8422 43.2493 40.1766 43.416 44.3443C43.416 44.8444 43.5827 45.1778 44.0828 45.3445C45.5832 46.0113 46.5834 48.0118 46.25 49.5122C45.7499 51.5127 44.0828 52.6797 42.0823 52.513C40.5819 52.3462 38.9149 51.0126 38.5814 49.5122C38.248 48.0118 39.0816 46.0114 40.5819 45.5112C41.4155 45.1778 41.5822 44.6777 41.5822 44.0109C41.4155 40.6767 41.5822 37.3425 41.2488 33.8417C41.2488 33.0081 41.4155 32.1746 41.4155 31.3411C41.4155 30.6742 41.0821 30.5075 40.4152 30.5075C39.415 30.5075 38.248 30.5075 37.2478 30.5075C36.4142 30.5075 36.0808 30.6742 36.0808 31.6745C36.0808 36.509 36.0808 41.3435 36.0808 46.1781C36.0808 46.8449 36.2475 47.5117 35.9141 48.1786C35.7474 49.0121 35.0806 49.3455 34.247 49.3455C33.4135 49.3455 32.4132 49.3455 31.5797 49.3455C31.413 49.5122 31.2463 49.8456 31.2463 50.179C31.413 53.3465 31.2463 56.3472 31.5797 59.5147C31.5797 59.6814 31.413 59.8481 31.2463 59.8481C30.5795 59.6814 30.7462 59.1813 30.7462 58.6811C30.4128 56.0138 30.7462 53.3465 30.4128 50.6792C30.5795 50.0123 30.7462 49.5122 30.4128 49.1788Z" fill="#F98E64"/>
<path d="M31.5798 59.5146C31.2463 59.0144 31.413 58.5143 31.2463 58.0142C31.0796 55.3469 31.413 52.8462 31.0796 50.1789C31.0796 49.8455 30.9129 49.3454 31.5798 49.1787C31.4131 52.3461 31.7465 55.3469 31.7465 58.5143C31.7465 58.8477 31.9132 59.1811 32.2466 59.3478C32.9134 60.0147 33.747 60.6815 34.4138 61.3483C34.7472 61.6818 35.0806 61.6818 35.414 61.515C36.7477 61.0149 38.2481 61.6818 38.7482 63.0154C39.2483 64.3491 38.7482 65.8495 37.4145 66.5163C36.2476 67.0164 35.2473 66.8497 34.4138 66.1829C33.5802 65.516 33.2468 64.5158 33.5802 63.3488C33.9137 62.682 33.747 62.0152 33.0801 61.6818C30.9129 60.3481 30.2461 58.3476 30.4128 55.847C30.5795 53.6798 30.2461 51.3459 30.2461 49.012C31.0796 49.012 30.7462 49.6788 30.7462 50.0122C30.7462 52.6795 30.5795 55.5136 31.0796 58.1809C31.2463 58.8477 31.0796 59.3478 31.5798 59.5146C31.7465 59.6813 31.7465 59.848 32.0799 60.0147C31.9132 59.848 31.7465 59.6813 31.5798 59.5146Z" fill="#FC6E40"/>
<path d="M68.0887 75.0186C68.0887 73.3515 69.2557 72.1846 70.9228 72.1846C72.4231 72.1846 73.7568 73.5182 73.7568 75.1853C73.7568 76.6857 72.5899 78.0193 70.9228 78.0193C69.2557 78.0193 68.0887 76.8524 68.0887 75.0186Z" fill="#F4F1D0"/>
<path d="M5.23986 52.3461C3.73949 52.3461 2.57254 51.1792 2.57254 49.6788C2.57254 48.3451 3.9062 47.0115 5.23986 47.0115C6.74023 47.0115 7.90719 48.1784 7.90719 49.6788C7.90719 51.3459 6.90694 52.3461 5.23986 52.3461Z" fill="#F4F1D0"/>
<path d="M59.0865 70.5175C58.4197 71.351 57.5861 72.0178 56.2525 71.6844C55.2522 71.351 54.4187 70.6842 54.252 69.5172C53.9186 67.8501 54.9188 66.6832 56.5859 66.5165C58.253 66.3497 59.4199 67.35 59.5866 69.3505C59.4199 69.6839 59.5866 70.184 59.0865 70.5175Z" fill="#F4F1D0"/>
<path d="M46.7501 74.0181C48.0838 74.0181 49.084 75.185 49.084 76.5187C49.084 77.6856 47.9171 79.0193 46.5834 79.0193C45.2498 79.0193 44.2495 77.8523 44.2495 76.5187C44.4162 74.8516 45.4165 74.0181 46.7501 74.0181Z" fill="#F4F1D0"/>
<path d="M42.5824 46.8447C43.5826 46.8447 44.5829 47.845 44.5829 48.6785C44.5829 49.6788 43.5826 50.679 42.5824 50.679C41.5822 50.679 40.5819 49.8455 40.5819 48.6785C40.5819 47.5116 41.4154 46.8447 42.5824 46.8447Z" fill="#F4F1D0"/>
<path d="M17.743 69.0171C17.743 70.0174 17.0762 70.6842 16.0759 70.6842C15.0757 70.6842 14.4088 69.8507 14.2421 69.0171C14.2421 68.0169 15.0757 67.1833 16.0759 67.1833C16.9094 67.1833 17.743 68.0169 17.743 69.0171Z" fill="#F4F1D0"/>
<path d="M16.576 50.5128C16.576 49.6792 17.4095 48.8457 18.2431 48.8457C19.0766 48.8457 20.0769 49.6792 20.0769 50.5128C20.0769 51.3463 19.2433 52.3466 18.2431 52.3466C17.4095 52.1798 16.576 51.3463 16.576 50.5128Z" fill="#F4F1D0"/>
<path d="M29.5792 75.6855C30.5795 75.6855 31.2463 76.3524 31.0796 77.5193C31.0796 78.5196 30.4128 79.0197 29.4125 79.0197C28.4123 79.0197 27.7455 78.1862 27.7455 77.3526C27.9122 76.3524 28.579 75.6855 29.5792 75.6855Z" fill="#F4F1D0"/>
<path d="M48.4172 38.3428C47.5837 38.3428 46.7501 37.5092 46.7501 36.6757C46.7501 35.8422 47.7504 34.8419 48.5839 35.0086C49.4175 35.1753 50.251 35.5087 50.251 36.6757C50.251 37.5092 49.4174 38.3428 48.4172 38.3428Z" fill="#F4F1D0"/>
<path d="M36.4143 62.5154C37.4145 62.5154 37.9146 63.1822 37.9146 64.1825C37.9146 65.1827 37.2478 66.0162 36.2476 66.0162C35.2473 66.0162 34.5805 65.3494 34.5805 64.3492C34.5805 63.1822 35.2473 62.3487 36.4143 62.5154Z" fill="#F4F1D0"/>
<path d="M31.5797 59.5146C32.2466 60.0148 32.2466 60.0148 32.7467 60.8483C32.0799 60.3482 31.7465 60.0148 31.5797 59.5146Z" fill="#FC6E40"/>
</svg>
