<svg width="62" height="74" viewBox="0 0 62 74" fill="none" xmlns="http://www.w3.org/2000/svg">
<path d="M0.0117321 15.5615C0.182455 2.01744 12.318 -0.420107 18.3645 0.0541245V16.0594C18.3645 29.2194 24.98 27.2987 32.0224 27.2987C45.0542 26.502 48.2294 28.6673 52.1418 30.9436C64.2299 37.9767 62.3969 56.6774 60.7608 64.5733C57.8585 71.6868 47.7906 73.3703 43.1194 73.3229V56.6774C43.1194 52.2129 43.8901 50.15 41.1159 47.3046C38.3416 44.4592 29.2364 45.4802 27.8254 45.5803C19.2775 46.187 10.9548 44.6439 7.69428 41.3834C2.50147 36.1906 -0.201672 32.4916 0.0117321 15.5615Z" fill="#F4F1D0"/>
<path d="M18.7084 48.2293C6.18867 47.1481 1.30409 39.5746 0.426758 35.923V73.0554C14.796 73.8378 17.4991 66.6532 17.997 64.8749C18.9218 63.3099 18.7084 58.4727 18.7084 48.2293Z" fill="#F4F1D0"/>
<path d="M41.9656 12.2352C43.1037 2.50393 54.6276 0.260812 60.2472 0.355658V36.99C56.2067 28.2262 46.3759 25.4188 41.9656 25.1105V12.2352Z" fill="#F4F1D0"/>
<path d="M0.426928 15.0947C0.413671 14.8157 0.414227 14.5492 0.426928 14.2981V15.0947C0.63643 19.5046 4.29581 27.0657 17.9972 27.3869H42.5387C49.913 27.8848 64.3486 34.6995 61.6739 57.6903C60.3935 54.916 49.9367 49.8052 39.8356 46.3087C37.9861 45.6685 32.2953 44.8149 25.8932 45.8819C9.24764 45.0283 8.80018 42.9682 4.48161 37.1323C0.270439 31.4415 0.0238334 24.4229 0.426928 21.6249V15.0947Z" fill="#F4F1D0"/>
</svg>
