<svg width="165" height="164" viewBox="0 0 165 164" fill="none" xmlns="http://www.w3.org/2000/svg">
<path d="M115.801 32.9079C135.414 45.2911 149.524 70.4625 143.962 92.7658C138.399 115.069 113.229 134.588 85.9292 136.012C58.5634 137.352 29.0671 120.595 21.955 98.5179C14.8619 76.2906 30.2185 48.8265 50.5618 34.9437C70.8397 20.9764 96.1042 20.5902 115.801 32.9079Z" fill="url(#paint0_linear)"/>
<mask id="path-2-inside-1" fill="white">
<path d="M106.061 75.4831L105.792 75.0567C105.35 75.0895 104.919 75.0895 104.477 75.0567L104.207 75.494C103.582 76.4999 102.364 76.959 101.243 76.5983C99.7554 76.1281 98.7637 75.6362 97.5456 74.6194C96.5755 73.8104 96.3383 72.4 96.9635 71.2958L97.233 70.8257C96.9851 70.454 96.7695 70.0713 96.5755 69.6668H95.5945C94.3441 69.6668 93.2877 68.7703 93.0505 67.524C92.7703 66.0262 92.7595 64.8782 93.0613 63.3148C93.2877 62.0794 94.3656 61.1829 95.6053 61.1829H96.5755C96.7695 60.7784 96.9851 60.3958 97.233 60.024L96.9527 59.5321C96.3275 58.4388 96.5647 57.0503 97.5133 56.2194C98.6559 55.2245 99.6368 54.656 101.124 54.1422C102.289 53.7377 103.571 54.2187 104.197 55.3011L104.477 55.7821C104.919 55.7493 105.35 55.7493 105.792 55.7821L106.072 55.3011C106.697 54.2187 107.98 53.7377 109.155 54.1531C110.589 54.6451 111.559 55.2027 112.766 56.2413C113.715 57.0612 113.941 58.4497 113.316 59.543L113.036 60.024C113.284 60.3958 113.499 60.7784 113.693 61.1829H114.243C115.494 61.1829 116.55 62.0794 116.787 63.3258C117.067 64.8236 117.078 65.9715 116.776 67.5349C116.55 68.7703 115.472 69.6668 114.232 69.6668H113.693C113.499 70.0713 113.284 70.454 113.036 70.8257L113.305 71.2958C113.941 72.411 113.683 73.8213 112.712 74.6303C111.559 75.5924 110.567 76.0953 109.047 76.5873C107.916 76.9481 106.687 76.4999 106.061 75.4831ZM107.377 71.7113L108.519 73.712C109.241 73.4059 109.91 73.0123 110.535 72.5312L109.392 70.5305L110.082 69.7106C110.6 69.0874 111.009 68.3877 111.268 67.6224L111.624 66.6056H113.898C113.995 65.8294 113.995 65.0313 113.898 64.2551H111.624L111.268 63.2383C110.998 62.473 110.6 61.7733 110.082 61.1501L109.392 60.3302L110.524 58.3185C109.91 57.8375 109.231 57.4439 108.508 57.1378L107.366 59.1385L106.32 58.9417C105.533 58.7886 104.725 58.7886 103.938 58.9417L102.892 59.1385L101.75 57.1378C101.038 57.433 100.359 57.8375 99.7446 58.3185L100.887 60.3192L100.197 61.1392C99.68 61.7624 99.2703 62.4621 99.0116 63.2274L98.6559 64.2441H96.3814C96.2844 65.0204 96.2844 65.8185 96.3814 66.5947H98.6559L99.0116 67.6114C99.2811 68.3767 99.68 69.0764 100.197 69.6996L100.887 70.5196L99.7446 72.5312C100.359 73.0123 101.038 73.4059 101.76 73.712L102.903 71.7113L103.949 71.9081C104.736 72.0611 105.544 72.0611 106.331 71.9081L107.377 71.7113ZM63.6655 103.69V100.235C62.2749 99.6338 60.9598 98.8575 59.7417 97.9283L56.7774 99.6666C55.721 100.279 54.3951 100.071 53.5758 99.1637C50.9672 96.2883 49.4257 93.7519 48.1214 89.5318C47.7549 88.362 48.24 87.0938 49.2856 86.4706L52.2284 84.7323C52.0451 83.2017 52.0451 81.6602 52.2284 80.1296L49.2856 78.4022C48.24 77.7899 47.7549 76.5108 48.1214 75.341C49.4257 71.1428 50.9456 68.6063 53.5758 65.7091C54.3951 64.8017 55.7317 64.594 56.7774 65.2062L59.731 66.9445C60.949 66.0153 62.2641 65.25 63.6547 64.6377V61.1829C63.6547 59.9475 64.4955 58.887 65.6813 58.6246C69.4218 57.7719 72.3646 57.6735 76.6441 58.6246C77.8298 58.887 78.6814 59.9584 78.6814 61.1829V64.6377C80.072 65.239 81.3871 66.0153 82.6052 66.9336L85.5588 65.2062C86.6151 64.594 87.9518 64.8017 88.7711 65.7091C91.6708 68.9453 93.2446 71.8206 94.3872 75.3847C94.7537 76.5327 94.301 77.779 93.2877 78.4131L90.5928 80.1405C90.7761 81.6711 90.7761 83.2126 90.5928 84.7432L93.6219 86.6565C94.5489 87.2469 95.0232 88.362 94.786 89.4444C94.0423 92.8663 91.2288 96.507 88.7603 99.1965C87.941 100.093 86.6151 100.29 85.5695 99.6775L82.6052 97.9392C81.3871 98.8685 80.072 99.6338 78.6814 100.246V103.701C78.6814 104.925 77.8406 105.997 76.6548 106.259C72.6125 107.167 69.6589 107.156 65.6705 106.259C64.5063 105.986 63.6655 104.914 63.6655 103.69ZM67.1149 103.012C69.7883 103.559 72.5586 103.559 75.2319 103.012V97.7971L76.3854 97.3816C78.1963 96.7366 79.8671 95.7526 81.3332 94.4844L82.2602 93.6754L86.7229 96.2883C88.5339 94.2001 90.388 91.7731 91.2611 89.1601L86.7984 86.5471L87.0248 85.3336C87.3697 83.4094 87.3697 81.4524 87.0248 79.5283L86.7984 78.3147L91.2611 75.7018C90.388 73.0888 88.5339 70.6508 86.7229 68.5735L82.2602 71.1865L81.3332 70.3775C79.8671 69.0983 78.2071 68.1253 76.3854 67.4803L75.2319 67.0648V61.8608C72.5586 61.3141 69.7883 61.3141 67.1149 61.8608V67.0757L65.9615 67.4912C64.1506 68.1362 62.4797 69.1202 61.0137 70.3884L60.0867 71.1974L55.6239 68.5845C53.819 70.6655 52.4379 73.088 51.5601 75.7127L56.0228 78.3256L55.7964 79.5392C55.4515 81.4634 55.4515 83.4204 55.7964 85.3445L56.0228 86.5581L51.5601 89.171C52.4332 91.784 53.813 94.222 55.6239 96.2993L60.0867 93.6863L61.0137 94.4953C62.4797 95.7745 64.1398 96.7475 65.9615 97.3925L67.1149 97.808V103.012ZM71.2543 91.4997C66.328 91.4997 62.318 87.4327 62.318 82.4364C62.318 77.4401 66.328 73.3731 71.2543 73.3731C76.1805 73.3731 80.1905 77.4401 80.1905 82.4364C80.1905 87.4327 76.1805 91.4997 71.2543 91.4997ZM71.2543 76.8716C68.236 76.8716 65.7675 79.3643 65.7675 82.4364C65.7675 85.5085 68.2252 88.0012 71.2543 88.0012C74.2726 88.0012 76.7411 85.5085 76.7411 82.4364C76.7411 79.3643 74.2833 76.8716 71.2543 76.8716ZM106.061 108.763L105.792 108.336C105.35 108.369 104.919 108.369 104.477 108.336L104.207 108.774C103.582 109.779 102.364 110.239 101.243 109.878C99.7554 109.408 98.7637 108.916 97.5456 107.899C96.5755 107.09 96.3383 105.68 96.9635 104.575L97.233 104.105C96.9851 103.734 96.7695 103.351 96.5755 102.946H95.5945C94.3441 102.946 93.2877 102.05 93.0505 100.804C92.7703 99.3058 92.7595 98.1578 93.0613 96.5944C93.2877 95.359 94.3656 94.4625 95.6053 94.4625H96.5755C96.7695 94.058 96.9851 93.6754 97.233 93.3037L96.9527 92.8117C96.3275 91.7184 96.5647 90.3299 97.5133 89.499C98.6559 88.5041 99.6368 87.9356 101.124 87.4218C102.289 87.0173 103.571 87.4983 104.197 88.5807L104.477 89.0617C104.919 89.0289 105.35 89.0289 105.792 89.0617L106.072 88.5807C106.697 87.4983 107.98 87.0173 109.155 87.4327C110.589 87.9247 111.559 88.4823 112.766 89.5209C113.715 90.3409 113.941 91.7293 113.316 92.8226L113.036 93.3037C113.284 93.6754 113.499 94.058 113.693 94.4625H114.243C115.494 94.4625 116.55 95.359 116.787 96.6054C117.067 98.1032 117.078 99.2511 116.776 100.815C116.55 102.05 115.472 102.946 114.232 102.946H113.693C113.499 103.351 113.284 103.734 113.036 104.105L113.305 104.575C113.941 105.691 113.683 107.101 112.712 107.91C111.559 108.872 110.567 109.375 109.047 109.867C107.916 110.217 106.687 109.769 106.061 108.763ZM107.377 104.98L108.519 106.981C109.241 106.675 109.91 106.281 110.535 105.8L109.392 103.799L110.082 102.979C110.6 102.356 111.009 101.656 111.268 100.891L111.624 99.8743H113.898C113.995 99.0981 113.995 98.3 113.898 97.5237H111.624L111.268 96.507C110.998 95.7417 110.6 95.042 110.082 94.4188L109.392 93.5988L110.535 91.5981C109.921 91.1171 109.241 90.7235 108.519 90.4174L107.377 92.4181L106.331 92.2213C105.544 92.0682 104.736 92.0682 103.949 92.2213L102.903 92.4181L101.76 90.4174C101.038 90.7235 100.37 91.1171 99.7446 91.5981L100.887 93.5988L100.197 94.4188C99.68 95.042 99.2703 95.7417 99.0116 96.507L98.6559 97.5237H96.3814C96.2844 98.3 96.2844 99.0981 96.3814 99.8743H98.6559L99.0116 100.891C99.2811 101.656 99.68 102.356 100.197 102.979L100.887 103.799L99.7446 105.8C100.359 106.281 101.038 106.675 101.76 106.981L102.903 104.98L103.949 105.177C104.736 105.33 105.544 105.33 106.331 105.177L107.377 104.98ZM108.368 98.617C108.368 96.6819 106.827 95.1185 104.919 95.1185C103.011 95.1185 101.469 96.6819 101.469 98.617C101.469 100.552 103.011 102.116 104.919 102.116C106.827 102.116 108.368 100.552 108.368 98.617ZM108.368 65.3483C108.368 63.4132 106.827 61.8498 104.919 61.8498C103.011 61.8498 101.469 63.4132 101.469 65.3483C101.469 67.2835 103.011 68.8469 104.919 68.8469C106.827 68.8469 108.368 67.2725 108.368 65.3483Z"/>
</mask>
<path d="M106.061 75.4831L105.792 75.0567C105.35 75.0895 104.919 75.0895 104.477 75.0567L104.207 75.494C103.582 76.4999 102.364 76.959 101.243 76.5983C99.7554 76.1281 98.7637 75.6362 97.5456 74.6194C96.5755 73.8104 96.3383 72.4 96.9635 71.2958L97.233 70.8257C96.9851 70.454 96.7695 70.0713 96.5755 69.6668H95.5945C94.3441 69.6668 93.2877 68.7703 93.0505 67.524C92.7703 66.0262 92.7595 64.8782 93.0613 63.3148C93.2877 62.0794 94.3656 61.1829 95.6053 61.1829H96.5755C96.7695 60.7784 96.9851 60.3958 97.233 60.024L96.9527 59.5321C96.3275 58.4388 96.5647 57.0503 97.5133 56.2194C98.6559 55.2245 99.6368 54.656 101.124 54.1422C102.289 53.7377 103.571 54.2187 104.197 55.3011L104.477 55.7821C104.919 55.7493 105.35 55.7493 105.792 55.7821L106.072 55.3011C106.697 54.2187 107.98 53.7377 109.155 54.1531C110.589 54.6451 111.559 55.2027 112.766 56.2413C113.715 57.0612 113.941 58.4497 113.316 59.543L113.036 60.024C113.284 60.3958 113.499 60.7784 113.693 61.1829H114.243C115.494 61.1829 116.55 62.0794 116.787 63.3258C117.067 64.8236 117.078 65.9715 116.776 67.5349C116.55 68.7703 115.472 69.6668 114.232 69.6668H113.693C113.499 70.0713 113.284 70.454 113.036 70.8257L113.305 71.2958C113.941 72.411 113.683 73.8213 112.712 74.6303C111.559 75.5924 110.567 76.0953 109.047 76.5873C107.916 76.9481 106.687 76.4999 106.061 75.4831ZM107.377 71.7113L108.519 73.712C109.241 73.4059 109.91 73.0123 110.535 72.5312L109.392 70.5305L110.082 69.7106C110.6 69.0874 111.009 68.3877 111.268 67.6224L111.624 66.6056H113.898C113.995 65.8294 113.995 65.0313 113.898 64.2551H111.624L111.268 63.2383C110.998 62.473 110.6 61.7733 110.082 61.1501L109.392 60.3302L110.524 58.3185C109.91 57.8375 109.231 57.4439 108.508 57.1378L107.366 59.1385L106.32 58.9417C105.533 58.7886 104.725 58.7886 103.938 58.9417L102.892 59.1385L101.75 57.1378C101.038 57.433 100.359 57.8375 99.7446 58.3185L100.887 60.3192L100.197 61.1392C99.68 61.7624 99.2703 62.4621 99.0116 63.2274L98.6559 64.2441H96.3814C96.2844 65.0204 96.2844 65.8185 96.3814 66.5947H98.6559L99.0116 67.6114C99.2811 68.3767 99.68 69.0764 100.197 69.6996L100.887 70.5196L99.7446 72.5312C100.359 73.0123 101.038 73.4059 101.76 73.712L102.903 71.7113L103.949 71.9081C104.736 72.0611 105.544 72.0611 106.331 71.9081L107.377 71.7113ZM63.6655 103.69V100.235C62.2749 99.6338 60.9598 98.8575 59.7417 97.9283L56.7774 99.6666C55.721 100.279 54.3951 100.071 53.5758 99.1637C50.9672 96.2883 49.4257 93.7519 48.1214 89.5318C47.7549 88.362 48.24 87.0938 49.2856 86.4706L52.2284 84.7323C52.0451 83.2017 52.0451 81.6602 52.2284 80.1296L49.2856 78.4022C48.24 77.7899 47.7549 76.5108 48.1214 75.341C49.4257 71.1428 50.9456 68.6063 53.5758 65.7091C54.3951 64.8017 55.7317 64.594 56.7774 65.2062L59.731 66.9445C60.949 66.0153 62.2641 65.25 63.6547 64.6377V61.1829C63.6547 59.9475 64.4955 58.887 65.6813 58.6246C69.4218 57.7719 72.3646 57.6735 76.6441 58.6246C77.8298 58.887 78.6814 59.9584 78.6814 61.1829V64.6377C80.072 65.239 81.3871 66.0153 82.6052 66.9336L85.5588 65.2062C86.6151 64.594 87.9518 64.8017 88.7711 65.7091C91.6708 68.9453 93.2446 71.8206 94.3872 75.3847C94.7537 76.5327 94.301 77.779 93.2877 78.4131L90.5928 80.1405C90.7761 81.6711 90.7761 83.2126 90.5928 84.7432L93.6219 86.6565C94.5489 87.2469 95.0232 88.362 94.786 89.4444C94.0423 92.8663 91.2288 96.507 88.7603 99.1965C87.941 100.093 86.6151 100.29 85.5695 99.6775L82.6052 97.9392C81.3871 98.8685 80.072 99.6338 78.6814 100.246V103.701C78.6814 104.925 77.8406 105.997 76.6548 106.259C72.6125 107.167 69.6589 107.156 65.6705 106.259C64.5063 105.986 63.6655 104.914 63.6655 103.69ZM67.1149 103.012C69.7883 103.559 72.5586 103.559 75.2319 103.012V97.7971L76.3854 97.3816C78.1963 96.7366 79.8671 95.7526 81.3332 94.4844L82.2602 93.6754L86.7229 96.2883C88.5339 94.2001 90.388 91.7731 91.2611 89.1601L86.7984 86.5471L87.0248 85.3336C87.3697 83.4094 87.3697 81.4524 87.0248 79.5283L86.7984 78.3147L91.2611 75.7018C90.388 73.0888 88.5339 70.6508 86.7229 68.5735L82.2602 71.1865L81.3332 70.3775C79.8671 69.0983 78.2071 68.1253 76.3854 67.4803L75.2319 67.0648V61.8608C72.5586 61.3141 69.7883 61.3141 67.1149 61.8608V67.0757L65.9615 67.4912C64.1506 68.1362 62.4797 69.1202 61.0137 70.3884L60.0867 71.1974L55.6239 68.5845C53.819 70.6655 52.4379 73.088 51.5601 75.7127L56.0228 78.3256L55.7964 79.5392C55.4515 81.4634 55.4515 83.4204 55.7964 85.3445L56.0228 86.5581L51.5601 89.171C52.4332 91.784 53.813 94.222 55.6239 96.2993L60.0867 93.6863L61.0137 94.4953C62.4797 95.7745 64.1398 96.7475 65.9615 97.3925L67.1149 97.808V103.012ZM71.2543 91.4997C66.328 91.4997 62.318 87.4327 62.318 82.4364C62.318 77.4401 66.328 73.3731 71.2543 73.3731C76.1805 73.3731 80.1905 77.4401 80.1905 82.4364C80.1905 87.4327 76.1805 91.4997 71.2543 91.4997ZM71.2543 76.8716C68.236 76.8716 65.7675 79.3643 65.7675 82.4364C65.7675 85.5085 68.2252 88.0012 71.2543 88.0012C74.2726 88.0012 76.7411 85.5085 76.7411 82.4364C76.7411 79.3643 74.2833 76.8716 71.2543 76.8716ZM106.061 108.763L105.792 108.336C105.35 108.369 104.919 108.369 104.477 108.336L104.207 108.774C103.582 109.779 102.364 110.239 101.243 109.878C99.7554 109.408 98.7637 108.916 97.5456 107.899C96.5755 107.09 96.3383 105.68 96.9635 104.575L97.233 104.105C96.9851 103.734 96.7695 103.351 96.5755 102.946H95.5945C94.3441 102.946 93.2877 102.05 93.0505 100.804C92.7703 99.3058 92.7595 98.1578 93.0613 96.5944C93.2877 95.359 94.3656 94.4625 95.6053 94.4625H96.5755C96.7695 94.058 96.9851 93.6754 97.233 93.3037L96.9527 92.8117C96.3275 91.7184 96.5647 90.3299 97.5133 89.499C98.6559 88.5041 99.6368 87.9356 101.124 87.4218C102.289 87.0173 103.571 87.4983 104.197 88.5807L104.477 89.0617C104.919 89.0289 105.35 89.0289 105.792 89.0617L106.072 88.5807C106.697 87.4983 107.98 87.0173 109.155 87.4327C110.589 87.9247 111.559 88.4823 112.766 89.5209C113.715 90.3409 113.941 91.7293 113.316 92.8226L113.036 93.3037C113.284 93.6754 113.499 94.058 113.693 94.4625H114.243C115.494 94.4625 116.55 95.359 116.787 96.6054C117.067 98.1032 117.078 99.2511 116.776 100.815C116.55 102.05 115.472 102.946 114.232 102.946H113.693C113.499 103.351 113.284 103.734 113.036 104.105L113.305 104.575C113.941 105.691 113.683 107.101 112.712 107.91C111.559 108.872 110.567 109.375 109.047 109.867C107.916 110.217 106.687 109.769 106.061 108.763ZM107.377 104.98L108.519 106.981C109.241 106.675 109.91 106.281 110.535 105.8L109.392 103.799L110.082 102.979C110.6 102.356 111.009 101.656 111.268 100.891L111.624 99.8743H113.898C113.995 99.0981 113.995 98.3 113.898 97.5237H111.624L111.268 96.507C110.998 95.7417 110.6 95.042 110.082 94.4188L109.392 93.5988L110.535 91.5981C109.921 91.1171 109.241 90.7235 108.519 90.4174L107.377 92.4181L106.331 92.2213C105.544 92.0682 104.736 92.0682 103.949 92.2213L102.903 92.4181L101.76 90.4174C101.038 90.7235 100.37 91.1171 99.7446 91.5981L100.887 93.5988L100.197 94.4188C99.68 95.042 99.2703 95.7417 99.0116 96.507L98.6559 97.5237H96.3814C96.2844 98.3 96.2844 99.0981 96.3814 99.8743H98.6559L99.0116 100.891C99.2811 101.656 99.68 102.356 100.197 102.979L100.887 103.799L99.7446 105.8C100.359 106.281 101.038 106.675 101.76 106.981L102.903 104.98L103.949 105.177C104.736 105.33 105.544 105.33 106.331 105.177L107.377 104.98ZM108.368 98.617C108.368 96.6819 106.827 95.1185 104.919 95.1185C103.011 95.1185 101.469 96.6819 101.469 98.617C101.469 100.552 103.011 102.116 104.919 102.116C106.827 102.116 108.368 100.552 108.368 98.617ZM108.368 65.3483C108.368 63.4132 106.827 61.8498 104.919 61.8498C103.011 61.8498 101.469 63.4132 101.469 65.3483C101.469 67.2835 103.011 68.8469 104.919 68.8469C106.827 68.8469 108.368 67.2725 108.368 65.3483Z" stroke="url(#paint1_linear)" stroke-width="4" mask="url(#path-2-inside-1)"/>
<defs>
<linearGradient id="paint0_linear" x1="47.606" y1="37.081" x2="125.487" y2="113.622" gradientUnits="userSpaceOnUse">
<stop stop-opacity="0.02"/>
<stop offset="1" stop-opacity="0.05"/>
</linearGradient>
<linearGradient id="paint1_linear" x1="82.5" y1="54" x2="84.9507" y2="111.34" gradientUnits="userSpaceOnUse">
<stop stop-color="#FC6E40"/>
<stop offset="1" stop-color="#EE4137"/>
</linearGradient>
</defs>
</svg>
