<svg width="109" height="109" viewBox="0 0 109 109" fill="none" xmlns="http://www.w3.org/2000/svg">
<path d="M76.5937 21.6591C89.5658 29.8496 98.8988 46.4986 95.2197 61.2505C91.5406 76.0024 74.8927 88.913 56.8356 89.8547C38.7353 90.7406 19.2257 79.6577 14.5216 65.0551C9.83002 50.3534 19.9872 32.1881 33.4428 23.0056C46.855 13.7673 63.5656 13.5119 76.5937 21.6591Z" fill="url(#paint0_linear)"/>
<mask id="path-2-inside-1" fill="white">
<path d="M70.1515 49.8193L69.9733 49.5373C69.681 49.559 69.3958 49.559 69.1034 49.5373L68.9252 49.8265C68.5117 50.4918 67.706 50.7955 66.9645 50.5569C65.9806 50.2459 65.3246 49.9205 64.5189 49.248C63.8773 48.7129 63.7204 47.7801 64.1339 47.0497L64.3122 46.7388C64.1482 46.4929 64.0056 46.2398 63.8773 45.9723H63.2284C62.4014 45.9723 61.7027 45.3793 61.5458 44.555C61.3604 43.5643 61.3533 42.805 61.5529 41.7709C61.7027 40.9538 62.4156 40.3608 63.2356 40.3608H63.8773C64.0056 40.0933 64.1482 39.8402 64.3122 39.5943L64.1268 39.2689C63.7133 38.5458 63.8701 37.6274 64.4976 37.0778C65.2533 36.4198 65.9021 36.0438 66.8861 35.7039C67.6561 35.4363 68.5045 35.7545 68.9181 36.4704L69.1034 36.7886C69.3958 36.7669 69.681 36.7669 69.9733 36.7886L70.1587 36.4704C70.5722 35.7545 71.4206 35.4363 72.1978 35.7111C73.1461 36.0365 73.7878 36.4053 74.5863 37.0923C75.2137 37.6346 75.3635 38.553 74.9499 39.2761L74.7645 39.5943C74.9285 39.8402 75.0711 40.0933 75.1995 40.3608H75.5631C76.3901 40.3608 77.0889 40.9538 77.2457 41.7782C77.4311 42.7688 77.4382 43.5281 77.2386 44.5622C77.0889 45.3793 76.3759 45.9723 75.556 45.9723H75.1995C75.0711 46.2398 74.9285 46.4929 74.7645 46.7388L74.9428 47.0497C75.3634 47.7873 75.1923 48.7202 74.5506 49.2553C73.7878 49.8916 73.1318 50.2243 72.1265 50.5497C71.3779 50.7883 70.5651 50.4918 70.1515 49.8193ZM71.0214 47.3245L71.7771 48.6478C72.2548 48.4454 72.6969 48.185 73.1104 47.8669L72.3547 46.5435L72.811 46.0012C73.1532 45.589 73.4241 45.1262 73.5952 44.62L73.8305 43.9475H75.3349C75.3991 43.4341 75.3991 42.9062 75.3349 42.3928H73.8305L73.5952 41.7203C73.417 41.2141 73.1532 40.7513 72.811 40.3391L72.3547 39.7968L73.1033 38.4662C72.6969 38.1481 72.2477 37.8877 71.77 37.6853L71.0142 39.0086L70.3226 38.8784C69.8022 38.7772 69.2674 38.7772 68.7469 38.8784L68.0554 39.0086L67.2996 37.6853C66.829 37.8805 66.3798 38.1481 65.9734 38.4662L66.7292 39.7896L66.2729 40.3319C65.9307 40.7441 65.6597 41.2069 65.4886 41.7131L65.2533 42.3856H63.7489C63.6848 42.899 63.6848 43.4269 63.7489 43.9403H65.2533L65.4886 44.6128C65.6669 45.119 65.9307 45.5818 66.2729 45.994L66.7292 46.5363L65.9734 47.8669C66.3798 48.185 66.829 48.4454 67.3067 48.6478L68.0625 47.3245L68.7541 47.4547C69.2746 47.5559 69.8093 47.5559 70.3298 47.4547L71.0214 47.3245ZM42.1098 68.4759V66.1909C41.1901 65.7931 40.3202 65.2797 39.5146 64.6651L37.5538 65.8148C36.8551 66.2198 35.9781 66.0824 35.4363 65.4822C33.7109 63.5804 32.6913 61.9027 31.8286 59.1115C31.5862 58.3377 31.907 57.4989 32.5986 57.0867L34.545 55.9369C34.4238 54.9246 34.4238 53.905 34.545 52.8926L32.5986 51.75C31.907 51.3451 31.5862 50.499 31.8286 49.7253C32.6913 46.9485 33.6966 45.2708 35.4363 43.3546C35.9781 42.7544 36.8622 42.617 37.5538 43.0219L39.5074 44.1717C40.3131 43.557 41.1829 43.0509 42.1027 42.6459V40.3608C42.1027 39.5437 42.6588 38.8423 43.4431 38.6687C45.9172 38.1047 47.8636 38.0396 50.6942 38.6687C51.4784 38.8423 52.0417 39.5509 52.0417 40.3608V42.6459C52.9615 43.0436 53.8313 43.557 54.637 44.1645L56.5905 43.0219C57.2893 42.617 58.1734 42.7544 58.7152 43.3546C60.6332 45.495 61.6741 47.3968 62.4299 49.7542C62.6723 50.5135 62.3729 51.3379 61.7027 51.7573L59.9202 52.8998C60.0414 53.9122 60.0414 54.9318 59.9202 55.9442L61.9237 57.2096C62.5368 57.6001 62.8506 58.3377 62.6937 59.0536C62.2017 61.317 60.3408 63.725 58.7081 65.5039C58.1662 66.0968 57.2893 66.227 56.5977 65.8221L54.637 64.6723C53.8313 65.2869 52.9615 65.7931 52.0417 66.1981V68.4832C52.0417 69.2931 51.4856 70.0017 50.7013 70.1753C48.0276 70.7755 46.074 70.7682 43.436 70.1753C42.6659 69.9945 42.1098 69.2858 42.1098 68.4759ZM44.3914 68.0276C46.1596 68.3892 47.9919 68.3892 49.7601 68.0276V64.5783L50.523 64.3035C51.7209 63.8769 52.826 63.226 53.7956 62.3872L54.4088 61.8521L57.3606 63.5804C58.5584 62.1992 59.7847 60.5939 60.3622 58.8656L57.4105 57.1373L57.5602 56.3347C57.7884 55.062 57.7884 53.7676 57.5602 52.4949L57.4105 51.6922L60.3622 49.9639C59.7847 48.2357 58.5584 46.6231 57.3606 45.2492L54.4088 46.9774L53.7956 46.4423C52.826 45.5963 51.728 44.9527 50.523 44.526L49.7601 44.2512V40.8092C47.9919 40.4476 46.1596 40.4476 44.3914 40.8092V44.2585L43.6285 44.5333C42.4307 44.9599 41.3255 45.6107 40.3559 46.4495L39.7427 46.9847L36.7909 45.2564C35.5971 46.6328 34.6836 48.2352 34.103 49.9712L37.0548 51.6994L36.905 52.5021C36.6769 53.7748 36.6769 55.0692 36.905 56.3419L37.0548 57.1446L34.103 58.8728C34.6805 60.6011 35.5931 62.2137 36.7909 63.5876L39.7427 61.8593L40.3559 62.3944C41.3255 63.2405 42.4235 63.8841 43.6285 64.3107L44.3914 64.5855V68.0276ZM47.1292 60.4131C43.8709 60.4131 41.2186 57.7231 41.2186 54.4184C41.2186 51.1137 43.8709 48.4237 47.1292 48.4237C50.3876 48.4237 53.0399 51.1137 53.0399 54.4184C53.0399 57.7231 50.3876 60.4131 47.1292 60.4131ZM47.1292 50.7377C45.1329 50.7377 43.5001 52.3864 43.5001 54.4184C43.5001 56.4504 45.1257 58.0991 47.1292 58.0991C49.1256 58.0991 50.7583 56.4504 50.7583 54.4184C50.7583 52.3864 49.1327 50.7377 47.1292 50.7377ZM70.1515 71.8312L69.9733 71.5492C69.681 71.5709 69.3958 71.5709 69.1034 71.5492L68.9252 71.8385C68.5117 72.5037 67.706 72.8075 66.9645 72.5688C65.9806 72.2579 65.3246 71.9325 64.5189 71.26C63.8773 70.7248 63.7204 69.792 64.1339 69.0617L64.3122 68.7507C64.1482 68.5049 64.0056 68.2518 63.8773 67.9842H63.2284C62.4014 67.9842 61.7027 67.3912 61.5458 66.5669C61.3604 65.5762 61.3533 64.8169 61.5529 63.7829C61.7027 62.9657 62.4156 62.3728 63.2356 62.3728H63.8773C64.0056 62.1052 64.1482 61.8521 64.3122 61.6062L64.1268 61.2808C63.7133 60.5577 63.8701 59.6393 64.4976 59.0898C65.2533 58.4317 65.9021 58.0557 66.8861 57.7158C67.6561 57.4483 68.5045 57.7664 68.9181 58.4823L69.1034 58.8005C69.3958 58.7788 69.681 58.7788 69.9733 58.8005L70.1587 58.4823C70.5722 57.7664 71.4206 57.4483 72.1978 57.7231C73.1461 58.0485 73.7878 58.4173 74.5863 59.1042C75.2137 59.6466 75.3635 60.5649 74.9499 61.2881L74.7645 61.6062C74.9285 61.8521 75.0711 62.1052 75.1995 62.3728H75.5631C76.3901 62.3728 77.0889 62.9657 77.2457 63.7901C77.4311 64.7808 77.4382 65.54 77.2386 66.5741C77.0889 67.3912 76.3759 67.9842 75.556 67.9842H75.1995C75.0711 68.2518 74.9285 68.5049 74.7645 68.7507L74.9428 69.0617C75.3634 69.7992 75.1923 70.7321 74.5506 71.2672C73.7878 71.9035 73.1318 72.2362 72.1265 72.5616C71.3779 72.793 70.5651 72.4965 70.1515 71.8312ZM71.0214 69.3292L71.7771 70.6525C72.2548 70.4501 72.6969 70.1897 73.1104 69.8716L72.3547 68.5482L72.811 68.0059C73.1532 67.5937 73.4241 67.1309 73.5952 66.6247L73.8305 65.9522H75.3349C75.3991 65.4388 75.3991 64.9109 75.3349 64.3975H73.8305L73.5952 63.725C73.417 63.2188 73.1532 62.756 72.811 62.3438L72.3547 61.8015L73.1104 60.4782C72.704 60.16 72.2548 59.8997 71.7771 59.6972L71.0214 61.0205L70.3298 60.8903C69.8093 60.7891 69.2746 60.7891 68.7541 60.8903L68.0625 61.0205L67.3067 59.6972C66.829 59.8997 66.387 60.16 65.9734 60.4782L66.7292 61.8015L66.2729 62.3438C65.9307 62.756 65.6597 63.2188 65.4886 63.725L65.2533 64.3975H63.7489C63.6848 64.9109 63.6848 65.4388 63.7489 65.9522H65.2533L65.4886 66.6247C65.6669 67.1309 65.9307 67.5937 66.2729 68.0059L66.7292 68.5482L65.9734 69.8716C66.3798 70.1897 66.829 70.4501 67.3067 70.6525L68.0625 69.3292L68.7541 69.4594C69.2746 69.5606 69.8093 69.5606 70.3298 69.4594L71.0214 69.3292ZM71.6773 65.1206C71.6773 63.8407 70.6577 62.8066 69.3958 62.8066C68.1338 62.8066 67.1142 63.8407 67.1142 65.1206C67.1142 66.4006 68.1338 67.4346 69.3958 67.4346C70.6577 67.4346 71.6773 66.4006 71.6773 65.1206ZM71.6773 43.1159C71.6773 41.836 70.6577 40.8019 69.3958 40.8019C68.1338 40.8019 67.1142 41.836 67.1142 43.1159C67.1142 44.3959 68.1338 45.4299 69.3958 45.4299C70.6577 45.4299 71.6773 44.3886 71.6773 43.1159Z"/>
</mask>
<path d="M70.1515 49.8193L69.9733 49.5373C69.681 49.559 69.3958 49.559 69.1034 49.5373L68.9252 49.8265C68.5117 50.4918 67.706 50.7955 66.9645 50.5569C65.9806 50.2459 65.3246 49.9205 64.5189 49.248C63.8773 48.7129 63.7204 47.7801 64.1339 47.0497L64.3122 46.7388C64.1482 46.4929 64.0056 46.2398 63.8773 45.9723H63.2284C62.4014 45.9723 61.7027 45.3793 61.5458 44.555C61.3604 43.5643 61.3533 42.805 61.5529 41.7709C61.7027 40.9538 62.4156 40.3608 63.2356 40.3608H63.8773C64.0056 40.0933 64.1482 39.8402 64.3122 39.5943L64.1268 39.2689C63.7133 38.5458 63.8701 37.6274 64.4976 37.0778C65.2533 36.4198 65.9021 36.0438 66.8861 35.7039C67.6561 35.4363 68.5045 35.7545 68.9181 36.4704L69.1034 36.7886C69.3958 36.7669 69.681 36.7669 69.9733 36.7886L70.1587 36.4704C70.5722 35.7545 71.4206 35.4363 72.1978 35.7111C73.1461 36.0365 73.7878 36.4053 74.5863 37.0923C75.2137 37.6346 75.3635 38.553 74.9499 39.2761L74.7645 39.5943C74.9285 39.8402 75.0711 40.0933 75.1995 40.3608H75.5631C76.3901 40.3608 77.0889 40.9538 77.2457 41.7782C77.4311 42.7688 77.4382 43.5281 77.2386 44.5622C77.0889 45.3793 76.3759 45.9723 75.556 45.9723H75.1995C75.0711 46.2398 74.9285 46.4929 74.7645 46.7388L74.9428 47.0497C75.3634 47.7873 75.1923 48.7202 74.5506 49.2553C73.7878 49.8916 73.1318 50.2243 72.1265 50.5497C71.3779 50.7883 70.5651 50.4918 70.1515 49.8193ZM71.0214 47.3245L71.7771 48.6478C72.2548 48.4454 72.6969 48.185 73.1104 47.8669L72.3547 46.5435L72.811 46.0012C73.1532 45.589 73.4241 45.1262 73.5952 44.62L73.8305 43.9475H75.3349C75.3991 43.4341 75.3991 42.9062 75.3349 42.3928H73.8305L73.5952 41.7203C73.417 41.2141 73.1532 40.7513 72.811 40.3391L72.3547 39.7968L73.1033 38.4662C72.6969 38.1481 72.2477 37.8877 71.77 37.6853L71.0142 39.0086L70.3226 38.8784C69.8022 38.7772 69.2674 38.7772 68.7469 38.8784L68.0554 39.0086L67.2996 37.6853C66.829 37.8805 66.3798 38.1481 65.9734 38.4662L66.7292 39.7896L66.2729 40.3319C65.9307 40.7441 65.6597 41.2069 65.4886 41.7131L65.2533 42.3856H63.7489C63.6848 42.899 63.6848 43.4269 63.7489 43.9403H65.2533L65.4886 44.6128C65.6669 45.119 65.9307 45.5818 66.2729 45.994L66.7292 46.5363L65.9734 47.8669C66.3798 48.185 66.829 48.4454 67.3067 48.6478L68.0625 47.3245L68.7541 47.4547C69.2746 47.5559 69.8093 47.5559 70.3298 47.4547L71.0214 47.3245ZM42.1098 68.4759V66.1909C41.1901 65.7931 40.3202 65.2797 39.5146 64.6651L37.5538 65.8148C36.8551 66.2198 35.9781 66.0824 35.4363 65.4822C33.7109 63.5804 32.6913 61.9027 31.8286 59.1115C31.5862 58.3377 31.907 57.4989 32.5986 57.0867L34.545 55.9369C34.4238 54.9246 34.4238 53.905 34.545 52.8926L32.5986 51.75C31.907 51.3451 31.5862 50.499 31.8286 49.7253C32.6913 46.9485 33.6966 45.2708 35.4363 43.3546C35.9781 42.7544 36.8622 42.617 37.5538 43.0219L39.5074 44.1717C40.3131 43.557 41.1829 43.0509 42.1027 42.6459V40.3608C42.1027 39.5437 42.6588 38.8423 43.4431 38.6687C45.9172 38.1047 47.8636 38.0396 50.6942 38.6687C51.4784 38.8423 52.0417 39.5509 52.0417 40.3608V42.6459C52.9615 43.0436 53.8313 43.557 54.637 44.1645L56.5905 43.0219C57.2893 42.617 58.1734 42.7544 58.7152 43.3546C60.6332 45.495 61.6741 47.3968 62.4299 49.7542C62.6723 50.5135 62.3729 51.3379 61.7027 51.7573L59.9202 52.8998C60.0414 53.9122 60.0414 54.9318 59.9202 55.9442L61.9237 57.2096C62.5368 57.6001 62.8506 58.3377 62.6937 59.0536C62.2017 61.317 60.3408 63.725 58.7081 65.5039C58.1662 66.0968 57.2893 66.227 56.5977 65.8221L54.637 64.6723C53.8313 65.2869 52.9615 65.7931 52.0417 66.1981V68.4832C52.0417 69.2931 51.4856 70.0017 50.7013 70.1753C48.0276 70.7755 46.074 70.7682 43.436 70.1753C42.6659 69.9945 42.1098 69.2858 42.1098 68.4759ZM44.3914 68.0276C46.1596 68.3892 47.9919 68.3892 49.7601 68.0276V64.5783L50.523 64.3035C51.7209 63.8769 52.826 63.226 53.7956 62.3872L54.4088 61.8521L57.3606 63.5804C58.5584 62.1992 59.7847 60.5939 60.3622 58.8656L57.4105 57.1373L57.5602 56.3347C57.7884 55.062 57.7884 53.7676 57.5602 52.4949L57.4105 51.6922L60.3622 49.9639C59.7847 48.2357 58.5584 46.6231 57.3606 45.2492L54.4088 46.9774L53.7956 46.4423C52.826 45.5963 51.728 44.9527 50.523 44.526L49.7601 44.2512V40.8092C47.9919 40.4476 46.1596 40.4476 44.3914 40.8092V44.2585L43.6285 44.5333C42.4307 44.9599 41.3255 45.6107 40.3559 46.4495L39.7427 46.9847L36.7909 45.2564C35.5971 46.6328 34.6836 48.2352 34.103 49.9712L37.0548 51.6994L36.905 52.5021C36.6769 53.7748 36.6769 55.0692 36.905 56.3419L37.0548 57.1446L34.103 58.8728C34.6805 60.6011 35.5931 62.2137 36.7909 63.5876L39.7427 61.8593L40.3559 62.3944C41.3255 63.2405 42.4235 63.8841 43.6285 64.3107L44.3914 64.5855V68.0276ZM47.1292 60.4131C43.8709 60.4131 41.2186 57.7231 41.2186 54.4184C41.2186 51.1137 43.8709 48.4237 47.1292 48.4237C50.3876 48.4237 53.0399 51.1137 53.0399 54.4184C53.0399 57.7231 50.3876 60.4131 47.1292 60.4131ZM47.1292 50.7377C45.1329 50.7377 43.5001 52.3864 43.5001 54.4184C43.5001 56.4504 45.1257 58.0991 47.1292 58.0991C49.1256 58.0991 50.7583 56.4504 50.7583 54.4184C50.7583 52.3864 49.1327 50.7377 47.1292 50.7377ZM70.1515 71.8312L69.9733 71.5492C69.681 71.5709 69.3958 71.5709 69.1034 71.5492L68.9252 71.8385C68.5117 72.5037 67.706 72.8075 66.9645 72.5688C65.9806 72.2579 65.3246 71.9325 64.5189 71.26C63.8773 70.7248 63.7204 69.792 64.1339 69.0617L64.3122 68.7507C64.1482 68.5049 64.0056 68.2518 63.8773 67.9842H63.2284C62.4014 67.9842 61.7027 67.3912 61.5458 66.5669C61.3604 65.5762 61.3533 64.8169 61.5529 63.7829C61.7027 62.9657 62.4156 62.3728 63.2356 62.3728H63.8773C64.0056 62.1052 64.1482 61.8521 64.3122 61.6062L64.1268 61.2808C63.7133 60.5577 63.8701 59.6393 64.4976 59.0898C65.2533 58.4317 65.9021 58.0557 66.8861 57.7158C67.6561 57.4483 68.5045 57.7664 68.9181 58.4823L69.1034 58.8005C69.3958 58.7788 69.681 58.7788 69.9733 58.8005L70.1587 58.4823C70.5722 57.7664 71.4206 57.4483 72.1978 57.7231C73.1461 58.0485 73.7878 58.4173 74.5863 59.1042C75.2137 59.6466 75.3635 60.5649 74.9499 61.2881L74.7645 61.6062C74.9285 61.8521 75.0711 62.1052 75.1995 62.3728H75.5631C76.3901 62.3728 77.0889 62.9657 77.2457 63.7901C77.4311 64.7808 77.4382 65.54 77.2386 66.5741C77.0889 67.3912 76.3759 67.9842 75.556 67.9842H75.1995C75.0711 68.2518 74.9285 68.5049 74.7645 68.7507L74.9428 69.0617C75.3634 69.7992 75.1923 70.7321 74.5506 71.2672C73.7878 71.9035 73.1318 72.2362 72.1265 72.5616C71.3779 72.793 70.5651 72.4965 70.1515 71.8312ZM71.0214 69.3292L71.7771 70.6525C72.2548 70.4501 72.6969 70.1897 73.1104 69.8716L72.3547 68.5482L72.811 68.0059C73.1532 67.5937 73.4241 67.1309 73.5952 66.6247L73.8305 65.9522H75.3349C75.3991 65.4388 75.3991 64.9109 75.3349 64.3975H73.8305L73.5952 63.725C73.417 63.2188 73.1532 62.756 72.811 62.3438L72.3547 61.8015L73.1104 60.4782C72.704 60.16 72.2548 59.8997 71.7771 59.6972L71.0214 61.0205L70.3298 60.8903C69.8093 60.7891 69.2746 60.7891 68.7541 60.8903L68.0625 61.0205L67.3067 59.6972C66.829 59.8997 66.387 60.16 65.9734 60.4782L66.7292 61.8015L66.2729 62.3438C65.9307 62.756 65.6597 63.2188 65.4886 63.725L65.2533 64.3975H63.7489C63.6848 64.9109 63.6848 65.4388 63.7489 65.9522H65.2533L65.4886 66.6247C65.6669 67.1309 65.9307 67.5937 66.2729 68.0059L66.7292 68.5482L65.9734 69.8716C66.3798 70.1897 66.829 70.4501 67.3067 70.6525L68.0625 69.3292L68.7541 69.4594C69.2746 69.5606 69.8093 69.5606 70.3298 69.4594L71.0214 69.3292ZM71.6773 65.1206C71.6773 63.8407 70.6577 62.8066 69.3958 62.8066C68.1338 62.8066 67.1142 63.8407 67.1142 65.1206C67.1142 66.4006 68.1338 67.4346 69.3958 67.4346C70.6577 67.4346 71.6773 66.4006 71.6773 65.1206ZM71.6773 43.1159C71.6773 41.836 70.6577 40.8019 69.3958 40.8019C68.1338 40.8019 67.1142 41.836 67.1142 43.1159C67.1142 44.3959 68.1338 45.4299 69.3958 45.4299C70.6577 45.4299 71.6773 44.3886 71.6773 43.1159Z" stroke="url(#paint1_linear)" stroke-width="2.6457" mask="url(#path-2-inside-1)"/>
<defs>
<linearGradient id="paint0_linear" x1="31.4877" y1="24.4193" x2="83" y2="75.045" gradientUnits="userSpaceOnUse">
<stop stop-opacity="0.02"/>
<stop offset="1" stop-opacity="0.05"/>
</linearGradient>
<linearGradient id="paint1_linear" x1="54.5674" y1="35.6099" x2="56.1884" y2="73.5362" gradientUnits="userSpaceOnUse">
<stop stop-color="#FC6E40"/>
<stop offset="1" stop-color="#EE4137"/>
</linearGradient>
</defs>
</svg>
