<svg width="17" height="14" viewBox="0 0 17 14" fill="none" xmlns="http://www.w3.org/2000/svg">
<path d="M0.54793 2.77399L12.0932 2.77401C12.2385 2.77401 12.3779 2.70094 12.4807 2.57089C12.5834 2.44083 12.6411 2.26444 12.6411 2.08051V0.693514C12.6411 0.693514 12.5834 0.333193 12.4807 0.203136C12.3779 0.0730801 12.2385 1.52588e-05 12.0932 1.52588e-05L0.54793 -9.53674e-07C0.40261 -9.53674e-07 0.263242 0.0730648 0.160485 0.20312C0.0577281 0.333177 0 0.509571 0 0.693498V2.08049C0 2.26442 0.0577281 2.44082 0.160485 2.57087C0.263242 2.70093 0.40261 2.77399 0.54793 2.77399Z" fill="#F4F1D0"/>
<path d="M0.54793 8.32199L14.4454 8.37586C14.5907 8.37586 14.7301 8.30279 14.8329 8.17274C14.9356 8.04268 14.9933 7.86629 14.9933 7.68236V6.29536C14.9933 6.11144 14.9356 5.93504 14.8329 5.80499C14.7301 5.67493 14.5907 5.60186 14.4454 5.60186L0.54793 5.54799C0.40261 5.54799 0.263242 5.62106 0.160485 5.75111C0.0577281 5.88117 0 6.05756 0 6.24149V7.62849C0 7.81242 0.0577281 7.98881 0.160485 8.11887C0.263242 8.24892 0.40261 8.32199 0.54793 8.32199Z" fill="#F4F1D0"/>
<path d="M0.54793 13.87L16.4521 14C16.5974 14 16.7368 13.9269 16.8395 13.7969C16.9423 13.6668 17 13.4904 17 13.3065V11.9195C17 11.7356 16.9423 11.5592 16.8395 11.4291C16.7368 11.2991 16.5974 11.226 16.4521 11.226L0.54793 11.096C0.40261 11.096 0.263242 11.169 0.160485 11.2991C0.0577281 11.4292 0 11.6055 0 11.7895V13.1765C0 13.3604 0.0577281 13.5368 0.160485 13.6668C0.263242 13.7969 0.40261 13.87 0.54793 13.87Z" fill="#F4F1D0"/>
</svg>
