<svg width="281" height="211" viewBox="0 0 281 211" fill="none" xmlns="http://www.w3.org/2000/svg">
<rect x="15" y="72" width="29" height="30" fill="#97BE71"/>
<path d="M16.0991 191.967L21.5954 159.042L49.4799 191.885L16.0991 191.967Z" fill="#97BE71"/>
<rect x="196" y="150" width="24" height="26" fill="#97BE71"/>
<path d="M46.5 86.5L22 112L14.5 156.5L41 175.5L46.5 196.5H66.5L115.5 185.5L190 173.5L204.5 151L222 144.5V92L197.5 76.5L190 56.5H163L77.5 76.5H46.5V86.5Z" fill="#EDEDED" fill-opacity="0.52"/>
<rect x="201.825" y="50.2178" width="33.7603" height="23.3476" transform="rotate(34.0212 201.825 50.2178)" fill="#97BE71"/>
<path d="M120 86.5C101.774 86.5 87 103.736 87 125C87 146.261 101.774 163.5 120 163.5C138.219 163.5 153 146.268 153 125C153 103.736 138.226 86.5 120 86.5ZM120 152.5C107.869 152.5 98 140.163 98 125C98 109.837 107.869 97.5 120 97.5C132.131 97.5 142 109.837 142 125C142 140.163 132.131 152.5 120 152.5ZM223.524 55.7206C210.19 50.1278 196.845 48 183.508 48C141.168 47.9966 98.8319 69.4294 56.4922 69.4294C34.1794 69.4294 26.1219 64.1562 21.0859 64.1562C15.17 64.1562 10 68.735 10 75.0909V184.149C10 188.491 12.4853 192.605 16.4763 194.276C29.8103 199.872 43.1547 202 56.4922 202C98.8319 202 141.168 180.567 183.508 180.567C205.821 180.567 213.875 185.844 218.914 185.844C224.83 185.844 230 181.265 230 174.909V65.8509C230 61.5059 227.515 57.3947 223.524 55.7206ZM21.3266 75.2456C28.2772 77.4525 35.4306 78.8653 42.8694 79.6766C42.1922 91.1613 32.8216 100.315 21.2509 100.449L21.3266 75.2456ZM21 184.149L21.0447 169.526C32.5878 169.55 41.9722 178.57 42.8316 189.955C35.1144 188.91 27.8337 187.05 21 184.149ZM218.673 174.754C211.743 172.554 204.614 171.142 197.199 170.33C198.193 159.158 207.405 150.345 218.749 150.214L218.673 174.754ZM218.78 139.163C201.592 139.279 187.64 152.679 186.268 169.619C161.955 169.127 139.113 175.057 117.312 180.574C91.5066 187.105 73.8138 191.303 53.9209 190.842C53.4981 172.96 38.9747 158.526 21.0756 158.485L21.2166 111.504C38.6275 111.388 52.7453 97.6444 53.7972 80.3881C78.0419 80.8728 100.898 74.9466 122.685 69.4328C148.394 62.9222 166.166 58.7009 186.01 59.1581C186.072 77.3528 200.795 92.1375 218.921 92.1822L218.78 139.163ZM218.955 81.1375C207.185 81.1134 197.629 71.7394 197.1 60.0381C204.844 61.0797 212.149 62.9428 219 65.8509L218.955 81.1375Z" fill="white"/>
<ellipse cx="119.5" cy="124.5" rx="22.5" ry="29.5" fill="#97BE71"/>
<circle cx="269.5" cy="11.5" r="11.5" fill="url(#paint0_linear)" fill-opacity="0.5"/>
<defs>
<linearGradient id="paint0_linear" x1="265.03" y1="4.20463" x2="275.583" y2="18.3784" gradientUnits="userSpaceOnUse">
<stop stop-color="#FC6E40"/>
<stop offset="1" stop-color="#EE4137"/>
</linearGradient>
</defs>
</svg>
