<svg width="264" height="216" viewBox="0 0 264 216" fill="none" xmlns="http://www.w3.org/2000/svg">
<path d="M188.5 33.6426H17.4593C8.01641 33.6426 0.355194 41.2954 0.355194 50.7279V153.24C0.355194 162.672 8.01641 170.325 17.4593 170.325H85.8757L77.3237 204.496H51.6675C48.5318 204.496 45.9661 207.058 45.9661 210.191C45.9661 213.323 48.5318 215.886 51.6675 215.886H154.292C157.428 215.886 159.993 213.323 159.993 210.191C159.993 207.058 157.428 204.496 154.292 204.496H128.636L120.084 170.325H188.5C197.943 170.325 205.604 162.672 205.604 153.24V50.7279C205.604 41.2954 197.943 33.6426 188.5 33.6426ZM89.0827 204.496L94.7841 181.715H111.176L116.877 204.496H89.0827ZM194.202 153.24C194.202 156.372 191.636 158.935 188.5 158.935H17.4593C14.3235 158.935 11.7579 156.372 11.7579 153.24V50.7279C11.7579 47.5956 14.3235 45.0328 17.4593 45.0328H188.5C191.636 45.0328 194.202 47.5956 194.202 50.7279V153.24Z" fill="white"/>
<rect x="8.02386" y="42.6646" width="190.363" height="116.383" fill="#EDEDED"/>
<rect x="11.6326" y="49.8823" width="182.694" height="41.0499" rx="20" fill="url(#paint0_linear)"/>
<rect x="11.6326" y="98.1494" width="124.503" height="17.5928" rx="8.7964" fill="#F98164"/>
<rect x="11.6326" y="124.765" width="145.704" height="6.76646" rx="3.38323" fill="#F98164"/>
<rect x="11.6326" y="134.688" width="132.171" height="6.76646" rx="3.38323" fill="#F98164"/>
<rect x="11.6326" y="144.612" width="148.411" height="6.76646" rx="3.38323" fill="#F98164"/>
<rect x="230.377" y="17.541" width="23.6489" height="23.6489" rx="3" transform="rotate(-47.4016 230.377 17.541)" fill="url(#paint1_linear)" fill-opacity="0.5"/>
<defs>
<linearGradient id="paint0_linear" x1="160.348" y1="46.6324" x2="157.381" y2="75.1843" gradientUnits="userSpaceOnUse">
<stop stop-color="#FEDA7C"/>
<stop offset="1" stop-color="#F5C879"/>
</linearGradient>
<linearGradient id="paint1_linear" x1="237.606" y1="21.8643" x2="248.457" y2="36.4379" gradientUnits="userSpaceOnUse">
<stop stop-color="#FC6E40"/>
<stop offset="1" stop-color="#EE4137"/>
</linearGradient>
</defs>
</svg>
