<svg width="202" height="238" viewBox="0 0 202 238" fill="none" xmlns="http://www.w3.org/2000/svg">
<path d="M0.038081 50.5107C0.592228 6.54837 39.9828 -1.36361 59.6088 0.175681V52.1269C59.6088 94.8424 81.082 88.6082 103.941 88.6082C146.24 86.0222 156.546 93.0504 169.246 100.439C208.482 123.268 202.532 183.968 197.222 209.597C187.801 232.686 155.122 238.151 139.96 237.997V183.968C139.96 169.476 142.462 162.781 133.457 153.545C124.452 144.309 94.8976 147.623 90.3178 147.948C62.5724 149.917 35.5577 144.908 24.9747 134.325C8.11945 117.47 -0.654602 105.464 0.038081 50.5107Z" fill="url(#paint0_linear)"/>
<path d="M60.7249 156.547C20.0875 153.037 4.23271 128.454 1.38501 116.602V237.129C48.0257 239.669 56.7997 216.348 58.4159 210.576C61.4175 205.496 60.7249 189.795 60.7249 156.547Z" fill="url(#paint1_linear)"/>
<path d="M139.461 39.7139C143.155 8.1275 180.56 0.846636 198.801 1.1545V120.065C185.686 91.6189 153.776 82.5063 139.461 81.5057V39.7139Z" fill="url(#paint2_linear)"/>
<path d="M1.38605 48.9958C1.34302 48.0901 1.34482 47.2253 1.38605 46.41V48.9958C2.06607 63.3098 13.944 87.8522 58.417 88.8945H138.076C162.012 90.5108 208.868 112.63 200.186 187.256C196.03 178.251 162.089 161.662 129.302 150.312C123.298 148.234 104.827 145.464 84.0462 148.927C30.017 146.156 28.5646 139.47 14.5471 120.527C0.878105 102.056 0.0776541 79.2739 1.38605 70.1921V48.9958Z" fill="url(#paint3_linear)"/>
<defs>
<linearGradient id="paint0_linear" x1="61.225" y1="43.5088" x2="174.363" y2="171.401" gradientUnits="userSpaceOnUse">
<stop stop-color="#FC6E40"/>
<stop offset="1" stop-color="#EE4137"/>
</linearGradient>
<linearGradient id="paint1_linear" x1="19.4749" y1="138.671" x2="72.5887" y2="173.645" gradientUnits="userSpaceOnUse">
<stop stop-color="#FC6E40"/>
<stop offset="1" stop-color="#EE4137"/>
</linearGradient>
<linearGradient id="paint2_linear" x1="157.597" y1="22.885" x2="210.278" y2="58.19" gradientUnits="userSpaceOnUse">
<stop stop-color="#FC6E40"/>
<stop offset="1" stop-color="#EE4137"/>
</linearGradient>
<linearGradient id="paint3_linear" x1="-5.07898" y1="63.4962" x2="196.062" y2="183.34" gradientUnits="userSpaceOnUse">
<stop stop-opacity="0.15"/>
<stop offset="1" stop-opacity="0.08"/>
</linearGradient>
</defs>
</svg>
