<svg width="211" height="250" viewBox="0 0 211 250" fill="none" xmlns="http://www.w3.org/2000/svg">
<path d="M0.0692041 52.933C0.649926 6.86241 41.9296 -1.42901 62.4968 0.184106V54.6268C62.4968 99.3907 84.9997 92.8576 108.955 92.8576C153.283 90.1476 164.083 97.5129 177.391 105.256C218.51 129.179 212.275 192.79 206.709 219.649C196.837 243.845 162.591 249.572 146.701 249.411V192.79C146.701 177.604 149.323 170.587 139.886 160.908C130.45 151.23 99.4779 154.703 94.6784 155.043C65.6025 157.107 37.2923 151.858 26.2017 140.767C8.53813 123.104 -0.656698 110.521 0.0692041 52.933Z" fill="url(#paint0_linear)"/>
<path d="M63.6672 164.054C21.0809 160.376 4.46583 134.615 1.48157 122.194V248.501C50.359 251.162 59.5537 226.723 61.2475 220.674C64.3931 215.351 63.6672 198.897 63.6672 164.054Z" fill="url(#paint1_linear)"/>
<path d="M142.777 41.6183C146.649 8.51719 185.848 0.887155 204.963 1.20978V125.823C191.219 96.0126 157.779 86.463 142.777 85.4144V41.6183Z" fill="url(#paint2_linear)"/>
<path d="M0.0296531 58.4913C-0.0104955 57.6849 -0.00926483 56.8949 0.029642 56.1254L0.0296531 58.4913C0.738576 72.7298 14.349 92.0582 61.2479 93.1574C66.7943 93.1574 99.3297 91.8415 124.186 91.8415C133.162 91.8415 137.792 91.8415 144.727 93.1574C173.508 95.243 218.914 118.032 209.816 196.236C205.46 186.799 207.523 164.975 135.532 157.521C129.241 155.343 110.58 156.471 88.1063 156.069C42.5489 156.471 28.9428 149.668 13.6358 129.258C12.3075 127.487 1.73046 110.55 0.02973 74.8338L0.0296531 58.4913Z" fill="url(#paint3_linear)"/>
<defs>
<linearGradient id="paint0_linear" x1="64.4313" y1="45.5953" x2="182.94" y2="180.061" gradientUnits="userSpaceOnUse">
<stop stop-color="#FC6E40"/>
<stop offset="1" stop-color="#EE4137"/>
</linearGradient>
<linearGradient id="paint1_linear" x1="20.5101" y1="145.321" x2="76.2533" y2="182.164" gradientUnits="userSpaceOnUse">
<stop stop-color="#FC6E40"/>
<stop offset="1" stop-color="#EE4137"/>
</linearGradient>
<linearGradient id="paint2_linear" x1="161.784" y1="23.9824" x2="216.99" y2="60.9805" gradientUnits="userSpaceOnUse">
<stop stop-color="#FC6E40"/>
<stop offset="1" stop-color="#EE4137"/>
</linearGradient>
<linearGradient id="paint3_linear" x1="-6.3403" y1="73.1223" x2="199.014" y2="202.685" gradientUnits="userSpaceOnUse">
<stop stop-opacity="0.15"/>
<stop offset="1" stop-opacity="0.08"/>
</linearGradient>
</defs>
</svg>
