<svg width="110" height="85" viewBox="0 0 110 85" fill="none" xmlns="http://www.w3.org/2000/svg">
<g style="mix-blend-mode:multiply" opacity="0.65">
<g style="mix-blend-mode:multiply" opacity="0.65">
<path d="M66.094 27.8108C70.3426 34.3449 71.8402 42.8924 71.3351 51.7284C70.8544 60.6385 68.3217 69.812 62.3689 75.3431C56.4406 80.9483 47.1663 82.8865 37.9941 84.0106C28.8464 85.2089 19.7515 85.568 11.5349 82.5977C3.24401 79.6519 -4.24274 73.4012 -8.92982 65.2854C-13.5924 57.2438 -15.4552 47.3369 -14.3288 37.6395C-13.2026 27.9419 -9.01285 18.4294 -1.90132 13.5448C5.23518 8.61089 15.3429 8.32981 24.113 8.85819C32.9075 9.46081 40.3889 10.9469 47.6171 13.9132C54.8454 16.8794 61.8205 21.3259 66.094 27.8108Z" fill="url(#paint0_linear)" fill-opacity="0.8"/>
</g>
<g style="mix-blend-mode:multiply" opacity="0.65">
<path d="M10.9596 48.9967C11.4 43.3307 19.3909 27.5627 27.1343 22.8912C30.3208 12.6118 38.6614 7.92157 42.4693 13.8395C47.1554 9.2687 56.0991 8.91033 60.7728 7.92157C65.35 6.92227 70.332 11.391 76.3226 13.8395C82.2524 16.33 89.2516 16.7584 94.3499 19.9809C99.3882 23.2452 102.49 29.251 101.798 35.3251C101.104 41.3992 107.398 49.9705 105.336 58.7032C103.335 67.394 92.8212 76.2774 87.7794 79.3081C82.7977 82.297 72.3267 77.1295 62.6473 77.4725C52.968 77.8156 44.0803 83.669 38.6614 82.3C33.2061 80.8787 31.3162 72.2454 25.6747 65.6705C20.0331 59.0955 10.5429 54.5684 10.9596 48.9967Z" fill="url(#paint1_linear)" fill-opacity="0.8"/>
</g>
<g style="mix-blend-mode:multiply" opacity="0.65">
<path d="M0.0722274 48.9967C0.512694 43.3307 8.50362 27.5627 16.247 22.8912C19.4334 12.6118 27.7741 7.92157 31.5819 13.8395C36.2681 9.2687 45.2117 8.91033 49.8855 7.92157C54.4626 6.92227 59.4446 11.391 65.4351 13.8395C71.3653 16.33 78.3646 16.7584 83.463 19.9809C88.5012 23.2452 91.6034 29.251 90.9097 35.3251C90.2172 41.3992 96.5109 49.9705 94.4487 58.7032C92.4478 67.394 81.9331 76.2774 76.8925 79.3081C71.9105 82.297 61.4394 77.1295 51.76 77.4725C42.0806 77.8156 33.1929 83.669 27.7741 82.3C22.3188 80.8787 20.429 72.2454 14.7873 65.6705C9.14571 59.0955 -0.344331 54.5684 0.0722274 48.9967Z" fill="url(#paint2_linear)" fill-opacity="0.8"/>
</g>
<g style="mix-blend-mode:multiply" opacity="0.65">
<path d="M94.3204 37.4344C94.5465 43.1129 88.4554 59.7061 81.3125 65.25C79.3504 75.8311 71.616 81.4634 67.1416 76.0307C63.0226 81.1176 54.1823 82.5181 49.6562 84.046C45.2275 85.5731 39.7567 81.7169 33.5206 79.9848C27.3397 78.2041 20.3386 78.5962 14.8978 75.9913C9.51182 73.3379 5.7284 67.7355 5.70567 61.6221C5.68294 55.5088 -1.57027 47.7314 -0.544711 38.8177C0.425964 29.9527 9.8278 19.9023 14.4803 16.3035C19.0777 12.7533 30.0818 16.6622 39.6547 15.191C49.2275 13.7198 57.3691 6.86833 62.9111 7.59503C68.4953 8.36943 71.3825 16.7228 77.7546 22.5937C84.1273 28.4646 94.0825 31.8522 94.3204 37.4344Z" fill="url(#paint3_linear)" fill-opacity="0.8"/>
</g>
<g style="mix-blend-mode:multiply" opacity="0.65">
<path d="M109.86 38.0381C110.085 43.7166 103.995 60.3098 96.8514 65.8538C94.8905 76.4348 87.1552 82.0671 82.6811 76.6345C78.5626 81.7213 69.7218 83.1219 65.1959 84.6497C60.7671 86.1767 55.2962 82.3206 49.0603 80.5885C42.8793 78.8079 35.8782 79.1998 30.4373 76.595C25.0513 73.9416 21.2679 68.3392 21.2452 62.2258C21.2225 56.1124 13.9692 48.335 14.9949 39.4215C15.9656 30.5564 25.3673 20.506 30.0198 16.9072C34.6172 13.357 45.6214 17.266 55.1942 15.7947C64.767 14.3234 72.9087 7.47204 78.4507 8.19866C84.0343 8.97317 86.922 17.3264 93.2947 23.1973C99.6673 29.0682 109.621 32.4559 109.86 38.0381Z" fill="url(#paint4_linear)" fill-opacity="0.8"/>
</g>
<g style="mix-blend-mode:multiply" opacity="0.65">
<path d="M67.1987 35.7442C67.4245 41.4227 61.3338 58.0159 54.1902 63.5597C52.2286 74.1409 44.4942 79.7732 40.0198 74.3405C35.9008 79.4274 27.0605 80.8279 22.5344 82.3558C18.1057 83.8828 12.6348 80.0267 6.39882 78.2945C0.217808 76.5139 -6.78325 76.9058 -12.2241 74.301C-17.61 71.6477 -21.3934 66.0453 -21.4162 59.9319C-21.4389 53.8185 -28.6921 46.0411 -27.6665 37.1276C-26.6959 28.2625 -17.294 18.2121 -12.6416 14.6133C-8.04412 11.063 2.96 14.972 12.5328 13.5008C22.1057 12.0295 30.2472 5.17813 35.7892 5.90478C41.3735 6.67924 44.2607 15.0325 50.6332 20.9034C57.0056 26.7743 66.9604 30.162 67.1987 35.7442Z" fill="url(#paint5_linear)" fill-opacity="0.8"/>
</g>
<g style="mix-blend-mode:multiply" opacity="0.65">
<path d="M-12.2462 75.2484C-16.6548 72.1125 -25.0649 58.5393 -24.49 50.6674C-31.1264 43.2679 -30.2261 34.9588 -23.1869 35.1772C-24.273 29.5452 -19.4662 22.9606 -17.6133 19.1206C-15.8242 15.3447 -9.30718 14.0007 -3.87625 10.9287C1.55467 7.92065 5.89951 3.12073 11.4582 1.07273C17.0169 -0.911253 23.7257 -0.143248 28.326 3.37674C32.9264 6.89672 43.5655 6.65578 49.5715 12.4797C55.5774 18.2398 56.8863 30.1926 56.503 35.3126C56.1196 40.3686 45.8967 45.2966 40.6574 52.4005C35.4182 59.5045 35.1626 68.7844 30.9457 71.9845C26.6648 75.1844 18.4865 72.2405 9.86088 73.0084C1.23528 73.7764 -7.90145 78.3204 -12.2462 75.2484Z" fill="url(#paint6_linear)" fill-opacity="0.8"/>
</g>
<g style="mix-blend-mode:multiply" opacity="0.65">
<path d="M-6.08253 77.4215C-10.4912 74.2856 -18.9013 60.7124 -18.3263 52.8405C-24.9628 45.441 -24.0625 37.1319 -17.0233 37.3504C-18.1094 31.7183 -13.3025 25.1337 -11.4496 21.2938C-9.66055 17.5178 -3.14354 16.1739 2.28739 13.1018C7.71832 10.0938 12.0632 5.29386 17.6219 3.24586C23.1806 1.26187 29.8893 2.02988 34.4896 5.54986C39.09 9.06984 49.7292 8.82889 55.7352 14.6528C61.7411 20.4129 63.05 32.3658 62.6666 37.4857C62.2833 42.5417 52.0603 47.4697 46.821 54.5736C41.5818 61.6776 41.3263 70.9575 37.1093 74.1576C32.8284 77.3575 24.6501 74.4136 16.0245 75.1815C7.39892 75.9496 -1.73781 80.4936 -6.08253 77.4215Z" fill="url(#paint7_linear)" fill-opacity="0.8"/>
</g>
</g>
<defs>
<linearGradient id="paint0_linear" x1="11.6603" y1="22.6026" x2="45.215" y2="73.4936" gradientUnits="userSpaceOnUse">
<stop stop-color="#FC6E40"/>
<stop offset="1" stop-color="#EE4137"/>
</linearGradient>
<linearGradient id="paint1_linear" x1="39.9229" y1="21.4395" x2="71.1706" y2="74.6824" gradientUnits="userSpaceOnUse">
<stop stop-color="#FC6E40"/>
<stop offset="1" stop-color="#EE4137"/>
</linearGradient>
<linearGradient id="paint2_linear" x1="29.0357" y1="21.4395" x2="60.2833" y2="74.6825" gradientUnits="userSpaceOnUse">
<stop stop-color="#FC6E40"/>
<stop offset="1" stop-color="#EE4137"/>
</linearGradient>
<linearGradient id="paint3_linear" x1="28.3828" y1="21.5911" x2="60.926" y2="75.6009" gradientUnits="userSpaceOnUse">
<stop stop-color="#FC6E40"/>
<stop offset="1" stop-color="#EE4137"/>
</linearGradient>
<linearGradient id="paint4_linear" x1="43.9225" y1="22.1948" x2="76.4657" y2="76.2047" gradientUnits="userSpaceOnUse">
<stop stop-color="#FC6E40"/>
<stop offset="1" stop-color="#EE4137"/>
</linearGradient>
<linearGradient id="paint5_linear" x1="1.26097" y1="19.9009" x2="33.8042" y2="73.9107" gradientUnits="userSpaceOnUse">
<stop stop-color="#FC6E40"/>
<stop offset="1" stop-color="#EE4137"/>
</linearGradient>
<linearGradient id="paint6_linear" x1="-2.84814" y1="13.9489" x2="30.8326" y2="64.675" gradientUnits="userSpaceOnUse">
<stop stop-color="#FC6E40"/>
<stop offset="1" stop-color="#EE4137"/>
</linearGradient>
<linearGradient id="paint7_linear" x1="3.31551" y1="16.122" x2="36.9963" y2="66.8481" gradientUnits="userSpaceOnUse">
<stop stop-color="#FC6E40"/>
<stop offset="1" stop-color="#EE4137"/>
</linearGradient>
</defs>
</svg>
