<svg width="387" height="302" viewBox="0 0 387 302" fill="none" xmlns="http://www.w3.org/2000/svg">
<g style="mix-blend-mode:multiply" opacity="0.65">
<g style="mix-blend-mode:multiply" opacity="0.65">
<path d="M337.863 98.8103C352.958 122.026 358.279 152.394 356.484 183.788C354.777 215.445 345.778 248.038 324.628 267.69C303.565 287.605 270.614 294.491 238.026 298.485C205.525 302.742 173.211 304.018 144.018 293.465C114.561 282.998 87.9611 260.79 71.3081 231.955C54.7423 203.384 48.1238 168.185 52.1258 133.731C56.1273 99.2759 71.0131 65.4786 96.28 48.1239C121.636 30.594 157.548 29.5954 188.707 31.4727C219.954 33.6137 246.535 38.8937 272.216 49.4327C297.898 59.9717 322.68 75.7697 337.863 98.8103Z" fill="url(#paint0_linear)"/>
</g>
<g style="mix-blend-mode:multiply" opacity="0.65">
<path d="M141.974 174.082C143.539 153.951 171.93 97.9287 199.442 81.331C210.763 44.8091 240.397 28.1449 253.926 49.1711C270.575 32.9312 302.352 31.6579 318.957 28.1449C335.22 24.5945 352.921 40.4718 374.205 49.1711C395.273 58.0196 420.141 59.5416 438.255 70.991C456.156 82.5888 467.177 103.927 464.717 125.508C462.252 147.089 484.613 177.542 477.287 208.569C470.177 239.447 432.824 271.009 414.91 281.777C397.21 292.396 360.008 274.037 325.617 275.255C291.227 276.474 259.65 297.271 240.397 292.407C221.015 287.357 214.3 256.684 194.256 233.323C174.212 209.963 140.494 193.878 141.974 174.082Z" fill="url(#paint1_linear)"/>
</g>
<g style="mix-blend-mode:multiply" opacity="0.65">
<path d="M103.292 174.082C104.857 153.951 133.248 97.9287 160.76 81.331C172.081 44.8091 201.715 28.1449 215.244 49.1711C231.894 32.9312 263.67 31.6579 280.276 28.1449C296.538 24.5945 314.239 40.4718 335.522 49.1711C356.592 58.0196 381.46 59.5416 399.575 70.991C417.475 82.5888 428.497 103.927 426.032 125.508C423.572 147.089 445.933 177.542 438.606 208.569C431.497 239.447 394.139 271.009 376.23 281.777C358.529 292.396 321.326 274.037 286.936 275.255C252.545 276.474 220.968 297.271 201.715 292.407C182.333 287.357 175.618 256.684 155.574 233.323C135.53 209.963 101.812 193.878 103.292 174.082Z" fill="url(#paint2_linear)"/>
</g>
<g style="mix-blend-mode:multiply" opacity="0.65">
<path d="M438.15 133.002C438.954 153.178 417.312 212.132 391.934 231.83C384.963 269.423 357.483 289.435 341.586 270.133C326.951 288.206 295.542 293.182 279.461 298.61C263.726 304.036 244.288 290.335 222.132 284.181C200.172 277.855 175.297 279.248 155.966 269.993C136.83 260.565 123.388 240.66 123.307 218.94C123.226 197.22 97.4561 169.587 101.1 137.917C104.549 106.42 137.953 70.7116 154.483 57.9254C170.817 45.3118 209.914 59.1999 243.926 53.9726C277.938 48.7458 306.864 24.4028 326.554 26.9848C346.395 29.7361 356.653 59.4152 379.293 80.2741C401.934 101.133 437.305 113.169 438.15 133.002Z" fill="url(#paint3_linear)"/>
</g>
<g style="mix-blend-mode:multiply" opacity="0.65">
<path d="M493.363 135.147C494.162 155.323 472.525 214.277 447.142 233.975C440.175 271.568 412.693 291.58 396.796 272.278C382.163 290.351 350.753 295.327 334.672 300.755C318.937 306.181 299.499 292.48 277.344 286.326C255.383 280 230.508 281.392 211.177 272.138C192.041 262.71 178.599 242.805 178.518 221.085C178.437 199.364 152.667 171.731 156.311 140.062C159.76 108.565 193.164 72.8566 209.694 60.0704C226.028 47.4568 265.125 61.3449 299.137 56.1176C333.149 50.8904 362.076 26.5477 381.766 29.1294C401.604 31.8812 411.864 61.5598 434.506 82.4187C457.147 103.278 492.513 115.314 493.363 135.147Z" fill="url(#paint4_linear)"/>
</g>
<g style="mix-blend-mode:multiply" opacity="0.65">
<path d="M341.788 126.997C342.591 147.172 320.951 206.127 295.57 225.824C288.601 263.418 261.121 283.429 245.223 264.128C230.589 282.201 199.18 287.177 183.099 292.605C167.364 298.031 147.926 284.33 125.77 278.176C103.809 271.85 78.9349 273.242 59.604 263.987C40.4681 254.56 27.0258 234.655 26.9451 212.935C26.8643 191.214 1.09407 163.581 4.73781 131.912C8.18656 100.415 41.5907 64.7065 58.1206 51.9203C74.4551 39.3063 113.552 53.1948 147.564 47.9676C181.576 42.7403 210.502 18.3976 230.192 20.9794C250.033 23.731 260.291 53.4097 282.932 74.2686C305.573 95.1276 340.942 107.164 341.788 126.997Z" fill="url(#paint5_linear)"/>
</g>
<g style="mix-blend-mode:multiply" opacity="0.65">
<path d="M59.5254 267.353C43.8616 256.211 13.9811 207.987 16.0239 180.018C-7.55495 153.728 -4.35642 124.206 20.6535 124.983C16.7947 104.972 33.8731 81.5777 40.4564 67.9345C46.8129 54.5188 69.9674 49.7438 89.2632 38.829C108.559 28.1416 123.996 11.0878 143.746 3.81136C163.495 -3.23763 187.331 -0.508952 203.676 11.9973C220.021 24.5036 257.821 23.6476 279.16 44.3397C300.499 64.8049 305.149 107.273 303.787 125.463C302.425 143.427 266.103 160.936 247.489 186.176C228.874 211.416 227.966 244.387 212.983 255.757C197.774 267.126 168.717 256.666 138.07 259.395C107.424 262.123 74.9619 278.268 59.5254 267.353Z" fill="url(#paint6_linear)"/>
</g>
<g style="mix-blend-mode:multiply" opacity="0.65">
<path d="M81.4243 275.074C65.7606 263.932 35.88 215.708 37.9229 187.739C14.344 161.449 17.5425 131.927 42.5524 132.704C38.6936 112.693 55.7721 89.2987 62.3553 75.6555C68.7118 62.2398 91.8664 57.4648 111.162 46.55C130.458 35.8626 145.895 18.8088 165.645 11.5324C185.394 4.48338 209.23 7.21206 225.575 19.7183C241.92 32.2246 279.72 31.3686 301.059 52.0607C322.397 72.5259 327.048 114.994 325.686 133.184C324.324 151.148 288.002 168.657 269.387 193.897C250.773 219.137 249.865 252.108 234.882 263.478C219.673 274.847 190.616 264.387 159.969 267.116C129.323 269.844 96.8608 285.989 81.4243 275.074Z" fill="url(#paint7_linear)"/>
</g>
</g>
<defs>
<linearGradient id="paint0_linear" x1="144.464" y1="80.3056" x2="263.682" y2="261.118" gradientUnits="userSpaceOnUse">
<stop stop-color="#FC6E40"/>
<stop offset="1" stop-color="#EE4137"/>
</linearGradient>
<linearGradient id="paint1_linear" x1="244.879" y1="76.1732" x2="355.9" y2="265.342" gradientUnits="userSpaceOnUse">
<stop stop-color="#FC6E40"/>
<stop offset="1" stop-color="#EE4137"/>
</linearGradient>
<linearGradient id="paint2_linear" x1="206.198" y1="76.1732" x2="317.218" y2="265.343" gradientUnits="userSpaceOnUse">
<stop stop-color="#FC6E40"/>
<stop offset="1" stop-color="#EE4137"/>
</linearGradient>
<linearGradient id="paint3_linear" x1="203.877" y1="76.712" x2="319.502" y2="268.606" gradientUnits="userSpaceOnUse">
<stop stop-color="#FC6E40"/>
<stop offset="1" stop-color="#EE4137"/>
</linearGradient>
<linearGradient id="paint4_linear" x1="259.089" y1="78.8567" x2="374.713" y2="270.751" gradientUnits="userSpaceOnUse">
<stop stop-color="#FC6E40"/>
<stop offset="1" stop-color="#EE4137"/>
</linearGradient>
<linearGradient id="paint5_linear" x1="107.516" y1="70.7067" x2="223.14" y2="262.601" gradientUnits="userSpaceOnUse">
<stop stop-color="#FC6E40"/>
<stop offset="1" stop-color="#EE4137"/>
</linearGradient>
<linearGradient id="paint6_linear" x1="92.916" y1="49.5595" x2="212.582" y2="229.786" gradientUnits="userSpaceOnUse">
<stop stop-color="#FC6E40"/>
<stop offset="1" stop-color="#EE4137"/>
</linearGradient>
<linearGradient id="paint7_linear" x1="114.815" y1="57.2805" x2="234.481" y2="237.507" gradientUnits="userSpaceOnUse">
<stop stop-color="#FC6E40"/>
<stop offset="1" stop-color="#EE4137"/>
</linearGradient>
</defs>
</svg>
