<svg  viewBox="0 0 1440 295" fill="none" xmlns="http://www.w3.org/2000/svg">
<mask id="mask0" mask-type="alpha" maskUnits="userSpaceOnUse" x="-7" y="0" width="1447" height="295">
<rect x="1439.12" y="294.835" width="1446" height="294" transform="rotate(-180 1439.12 294.835)" fill="#C4C4C4"/>
</mask>
<g mask="url(#mask0)">
<path fill-rule="evenodd" clip-rule="evenodd" d="M-29.0778 231.939C-19.4428 309.065 89.5652 346.392 181.649 308.75C273.732 271.108 291.026 375.469 288.93 211.361C288.234 156.856 414.3 130.461 373.505 89.4428C312.701 28.306 151.41 110.213 112.52 129.087C73.6302 147.962 -38.7134 154.813 -29.0781 231.94L-29.0778 231.939Z" fill="url(#paint0_linear)"/>
<path fill-rule="evenodd" clip-rule="evenodd" d="M1077.82 220.015C1089.05 143.104 993.898 78.1255 895.119 89.9157C796.34 101.706 807.431 -3.49549 765.796 155.258C751.968 207.984 623.424 199.892 651.837 250.285C694.187 325.394 871.455 289.343 913.965 281.494C956.474 273.645 1066.59 296.925 1077.82 220.014L1077.82 220.015Z" fill="url(#paint1_linear)"/>
<path fill-rule="evenodd" clip-rule="evenodd" d="M1336.09 69.745C1281.62 -12.9191 1143.82 -13.4448 1067.03 63.5205C990.252 140.486 912 30.2413 1008.25 213.098C1040.21 273.829 920.694 351.066 987.76 381.533C1087.72 426.944 1213.06 274.256 1243.78 238.42C1274.5 202.584 1390.56 152.409 1336.09 69.7441L1336.09 69.745Z" fill="url(#paint2_linear)"/>
<path d="M1530.12 -7.16455L1498.69 13.6926C1467.26 34.5497 1404.4 76.264 1341.54 76.264C1278.68 76.264 1215.82 34.5497 1152.96 48.4979C1090.1 61.9247 1027.24 132.318 964.376 138.835C901.515 145.353 838.654 90.6033 775.794 69.3551C712.933 48.889 650.072 61.9247 587.211 55.4069C524.35 48.889 461.49 20.2104 398.629 34.5497C335.768 48.889 272.907 103.639 210.046 145.744C147.185 187.068 84.3245 215.746 21.4636 194.498C-41.3972 174.032 -104.258 103.639 -167.119 62.3158C-229.98 20.2104 -292.841 7.17474 -324.271 -0.255615L-355.701 -7.16455V284.835H-324.271C-292.841 284.835 -229.98 284.835 -167.119 284.835C-104.258 284.835 -41.3972 284.835 21.4636 284.835C84.3245 284.835 147.185 284.835 210.046 284.835C272.907 284.835 335.768 284.835 398.629 284.835C461.49 284.835 524.35 284.835 587.211 284.835C650.072 284.835 712.933 284.835 775.794 284.835C838.654 284.835 901.515 284.835 964.376 284.835C1027.24 284.835 1090.1 284.835 1152.96 284.835C1215.82 284.835 1278.68 284.835 1341.54 284.835C1404.4 284.835 1467.26 284.835 1498.69 284.835H1530.12V-7.16455Z" fill="#424242"/>
<path d="M1498.41 -26.1646L1466.98 -4.66455C1435.55 16.8354 1372.69 59.8354 1309.83 59.8354C1246.97 59.8354 1184.11 16.8354 1121.25 31.2136C1058.39 45.0542 995.524 117.617 932.664 124.335C869.803 131.054 806.942 74.6167 744.081 52.7136C681.22 31.6167 618.359 45.0542 555.499 38.3354C492.638 31.6167 429.777 2.0542 366.916 16.8354C304.055 31.6167 241.194 88.0542 178.334 131.457C115.473 174.054 52.6119 203.617 -10.2489 181.714C-73.1097 160.617 -135.971 88.0542 -198.831 45.4573C-261.692 2.0542 -324.553 -11.3833 -355.984 -19.0427L-387.414 -26.1646V274.835H-355.984C-324.553 274.835 -261.692 274.835 -198.831 274.835C-135.971 274.835 -73.1097 274.835 -10.2489 274.835C52.6119 274.835 115.473 274.835 178.334 274.835C241.194 274.835 304.055 274.835 366.916 274.835C429.777 274.835 492.638 274.835 555.499 274.835C618.359 274.835 681.22 274.835 744.081 274.835C806.942 274.835 869.803 274.835 932.664 274.835C995.524 274.835 1058.39 274.835 1121.25 274.835C1184.11 274.835 1246.97 274.835 1309.83 274.835C1372.69 274.835 1435.55 274.835 1466.98 274.835H1498.41V-26.1646Z" fill="#282A2D" fill-opacity="0.9"/>
<path d="M1515.12 0.835449L1483.69 21.6926C1452.26 42.5497 1389.4 84.264 1326.54 84.264C1263.68 84.264 1200.82 42.5497 1137.96 56.4979C1075.1 69.9247 1012.24 140.318 949.376 146.835C886.515 153.353 823.654 98.6033 760.794 77.3551C697.933 56.889 635.072 69.9247 572.211 63.4069C509.35 56.889 446.49 28.2104 383.629 42.5497C320.768 56.889 257.907 111.639 195.046 153.744C132.185 195.068 69.3245 223.746 6.46362 202.498C-56.3972 182.032 -119.258 111.639 -182.119 70.3158C-244.98 28.2104 -307.841 15.1747 -339.271 7.74438L-370.701 0.835449V292.835H-339.271C-307.841 292.835 -244.98 292.835 -182.119 292.835C-119.258 292.835 -56.3972 292.835 6.46362 292.835C69.3245 292.835 132.185 292.835 195.046 292.835C257.907 292.835 320.768 292.835 383.629 292.835C446.49 292.835 509.35 292.835 572.211 292.835C635.072 292.835 697.933 292.835 760.794 292.835C823.654 292.835 886.515 292.835 949.376 292.835C1012.24 292.835 1075.1 292.835 1137.96 292.835C1200.82 292.835 1263.68 292.835 1326.54 292.835C1389.4 292.835 1452.26 292.835 1483.69 292.835H1515.12V0.835449Z" fill="#282A2D"/>
</g>
<defs>
<linearGradient id="paint0_linear" x1="388.874" y1="116.719" x2="78.9172" y2="377.871" gradientUnits="userSpaceOnUse">
<stop stop-opacity="0.02"/>
<stop offset="1" stop-opacity="0.05"/>
</linearGradient>
<linearGradient id="paint1_linear" x1="644.277" y1="219.903" x2="1012.54" y2="50.6129" gradientUnits="userSpaceOnUse">
<stop stop-opacity="0.02"/>
<stop offset="1" stop-opacity="0.05"/>
</linearGradient>
<linearGradient id="paint2_linear" x1="955.721" y1="356.824" x2="1168.89" y2="-35.4533" gradientUnits="userSpaceOnUse">
<stop stop-opacity="0.02"/>
<stop offset="1" stop-opacity="0.05"/>
</linearGradient>
</defs>
</svg>
