<svg width="337" height="318" viewBox="0 0 337 318" fill="none" xmlns="http://www.w3.org/2000/svg">
<path d="M334 157.941C334 243.781 262.892 315 175.83 315C88.7684 315 18.1907 245.413 18.1907 159.573" stroke="#F98E64" stroke-width="6"/>
<path d="M18.1907 159.933C18.1907 74.0936 88.8177 2.99999 175.88 2.99999C262.942 2.99999 334 72.1015 334 157.941" stroke="white" stroke-width="6"/>
<ellipse cx="18.2271" cy="153.493" rx="18.2271" ry="17.9712" fill="#F98E64"/>
<path d="M20.6901 153.978C20.6901 155.588 19.3668 156.893 17.7344 156.893C16.102 156.893 14.7786 155.588 14.7786 153.978C14.7786 152.369 16.102 151.064 17.7344 151.064C19.3668 151.064 20.6901 152.369 20.6901 153.978Z" fill="white"/>
<path fill-rule="evenodd" clip-rule="evenodd" d="M17.7344 160.778C21.5434 160.778 24.6311 157.734 24.6311 153.978C24.6311 150.223 21.5434 147.178 17.7344 147.178C13.9254 147.178 10.8376 150.223 10.8376 153.978C10.8376 157.734 13.9254 160.778 17.7344 160.778ZM17.7344 158.835C20.4551 158.835 22.6606 156.661 22.6606 153.978C22.6606 151.296 20.4551 149.121 17.7344 149.121C15.0137 149.121 12.8081 151.296 12.8081 153.978C12.8081 156.661 15.0137 158.835 17.7344 158.835Z" fill="white"/>
<path d="M95.7853 147.576V129.428H104.365C105.215 129.428 105.977 129.575 106.653 129.87C107.329 130.147 107.901 130.537 108.369 131.04C108.855 131.542 109.227 132.158 109.487 132.886C109.747 133.596 109.877 134.376 109.877 135.226C109.877 136.092 109.747 136.881 109.487 137.592C109.227 138.302 108.855 138.909 108.369 139.412C107.901 139.914 107.329 140.313 106.653 140.608C105.977 140.885 105.215 141.024 104.365 141.024H99.7373V147.576H95.7853ZM99.7373 137.592H103.897C104.487 137.592 104.946 137.444 105.275 137.15C105.622 136.838 105.795 136.387 105.795 135.798V134.654C105.795 134.064 105.622 133.622 105.275 133.328C104.946 133.016 104.487 132.86 103.897 132.86H99.7373V137.592ZM114.018 147.576V129.428H126.368V132.938H117.97V136.656H125.172V140.14H117.97V144.066H126.368V147.576H114.018ZM136.857 147.888C135.262 147.888 133.91 147.619 132.801 147.082C131.691 146.527 130.747 145.816 129.967 144.95L132.567 142.324C133.797 143.71 135.314 144.404 137.117 144.404C138.087 144.404 138.807 144.204 139.275 143.806C139.743 143.407 139.977 142.878 139.977 142.22C139.977 141.717 139.838 141.301 139.561 140.972C139.283 140.625 138.72 140.391 137.871 140.27L136.077 140.036C134.153 139.793 132.74 139.212 131.839 138.294C130.955 137.375 130.513 136.153 130.513 134.628C130.513 133.813 130.669 133.068 130.981 132.392C131.293 131.716 131.735 131.135 132.307 130.65C132.896 130.164 133.607 129.792 134.439 129.532C135.288 129.254 136.25 129.116 137.325 129.116C138.694 129.116 139.899 129.332 140.939 129.766C141.979 130.199 142.871 130.832 143.617 131.664L140.991 134.316C140.557 133.813 140.029 133.406 139.405 133.094C138.798 132.764 138.027 132.6 137.091 132.6C136.207 132.6 135.548 132.756 135.115 133.068C134.681 133.38 134.465 133.813 134.465 134.368C134.465 134.992 134.629 135.442 134.959 135.72C135.305 135.997 135.86 136.196 136.623 136.318L138.417 136.604C140.289 136.898 141.675 137.479 142.577 138.346C143.478 139.195 143.929 140.408 143.929 141.986C143.929 142.852 143.773 143.65 143.461 144.378C143.149 145.106 142.689 145.73 142.083 146.25C141.493 146.77 140.757 147.177 139.873 147.472C138.989 147.749 137.983 147.888 136.857 147.888ZM160.465 152.36H158.021C156.617 152.36 155.595 152.03 154.953 151.372C154.312 150.713 153.991 149.76 153.991 148.512V147.758C152.05 147.411 150.507 146.466 149.363 144.924C148.237 143.364 147.673 141.223 147.673 138.502C147.673 136.959 147.864 135.607 148.245 134.446C148.627 133.267 149.164 132.288 149.857 131.508C150.551 130.71 151.391 130.112 152.379 129.714C153.367 129.315 154.459 129.116 155.655 129.116C156.851 129.116 157.943 129.315 158.931 129.714C159.919 130.112 160.76 130.71 161.453 131.508C162.147 132.288 162.684 133.267 163.065 134.446C163.447 135.607 163.637 136.959 163.637 138.502C163.637 141.136 163.1 143.225 162.025 144.768C160.968 146.31 159.521 147.281 157.683 147.68V149.136H160.465V152.36ZM155.655 144.378C156.851 144.378 157.779 143.988 158.437 143.208C159.113 142.428 159.451 141.31 159.451 139.854V137.15C159.451 135.694 159.113 134.576 158.437 133.796C157.779 133.016 156.851 132.626 155.655 132.626C154.459 132.626 153.523 133.016 152.847 133.796C152.189 134.576 151.859 135.694 151.859 137.15V139.854C151.859 141.31 152.189 142.428 152.847 143.208C153.523 143.988 154.459 144.378 155.655 144.378ZM171.85 129.428V140.556C171.85 141.838 172.101 142.8 172.604 143.442C173.107 144.066 173.947 144.378 175.126 144.378C176.305 144.378 177.145 144.066 177.648 143.442C178.151 142.8 178.402 141.838 178.402 140.556V129.428H182.25V140.14C182.25 141.474 182.12 142.636 181.86 143.624C181.617 144.594 181.21 145.4 180.638 146.042C180.066 146.666 179.329 147.134 178.428 147.446C177.527 147.74 176.426 147.888 175.126 147.888C173.826 147.888 172.725 147.74 171.824 147.446C170.923 147.134 170.186 146.666 169.614 146.042C169.042 145.4 168.626 144.594 168.366 143.624C168.123 142.636 168.002 141.474 168.002 140.14V129.428H171.85ZM186.627 147.576V144.43H188.967V132.574H186.627V129.428H195.259V132.574H192.919V144.43H195.259V147.576H186.627ZM205.597 147.888C204.003 147.888 202.651 147.619 201.541 147.082C200.432 146.527 199.487 145.816 198.707 144.95L201.307 142.324C202.538 143.71 204.055 144.404 205.857 144.404C206.828 144.404 207.547 144.204 208.015 143.806C208.483 143.407 208.717 142.878 208.717 142.22C208.717 141.717 208.579 141.301 208.301 140.972C208.024 140.625 207.461 140.391 206.611 140.27L204.817 140.036C202.893 139.793 201.481 139.212 200.579 138.294C199.695 137.375 199.253 136.153 199.253 134.628C199.253 133.813 199.409 133.068 199.721 132.392C200.033 131.716 200.475 131.135 201.047 130.65C201.637 130.164 202.347 129.792 203.179 129.532C204.029 129.254 204.991 129.116 206.065 129.116C207.435 129.116 208.639 129.332 209.679 129.766C210.719 130.199 211.612 130.832 212.357 131.664L209.731 134.316C209.298 133.813 208.769 133.406 208.145 133.094C207.539 132.764 206.767 132.6 205.831 132.6C204.947 132.6 204.289 132.756 203.855 133.068C203.422 133.38 203.205 133.813 203.205 134.368C203.205 134.992 203.37 135.442 203.699 135.72C204.046 135.997 204.601 136.196 205.363 136.318L207.157 136.604C209.029 136.898 210.416 137.479 211.317 138.346C212.219 139.195 212.669 140.408 212.669 141.986C212.669 142.852 212.513 143.65 212.201 144.378C211.889 145.106 211.43 145.73 210.823 146.25C210.234 146.77 209.497 147.177 208.613 147.472C207.729 147.749 206.724 147.888 205.597 147.888ZM228.296 147.576L226.996 143.26H220.938L219.638 147.576H215.634L221.614 129.428H226.502L232.404 147.576H228.296ZM224.006 133.016H223.876L221.874 139.906H226.034L224.006 133.016ZM243.399 147.576V129.428H255.749V132.938H247.351V136.656H254.553V140.14H247.351V144.066H255.749V147.576H243.399ZM114.146 163.428H122.96C124.468 163.428 125.638 163.852 126.47 164.702C127.319 165.551 127.744 166.678 127.744 168.082C127.744 168.775 127.648 169.364 127.458 169.85C127.284 170.335 127.042 170.734 126.73 171.046C126.435 171.358 126.08 171.592 125.664 171.748C125.265 171.886 124.832 171.964 124.364 171.982V172.138C124.797 172.138 125.248 172.216 125.716 172.372C126.201 172.528 126.643 172.779 127.042 173.126C127.44 173.455 127.77 173.888 128.03 174.426C128.307 174.963 128.446 175.622 128.446 176.402C128.446 177.112 128.324 177.788 128.082 178.43C127.856 179.054 127.536 179.6 127.12 180.068C126.704 180.536 126.21 180.908 125.638 181.186C125.066 181.446 124.442 181.576 123.766 181.576H114.146V163.428ZM118.098 178.248H122.648C123.168 178.248 123.575 178.109 123.87 177.832C124.182 177.537 124.338 177.13 124.338 176.61V175.726C124.338 175.206 124.182 174.807 123.87 174.53C123.575 174.235 123.168 174.088 122.648 174.088H118.098V178.248ZM118.098 170.864H122.024C122.544 170.864 122.951 170.716 123.246 170.422C123.54 170.127 123.688 169.72 123.688 169.2V168.42C123.688 167.9 123.54 167.492 123.246 167.198C122.951 166.903 122.544 166.756 122.024 166.756H118.098V170.864ZM136.61 181.576H132.658V163.428H141.264C142.096 163.428 142.85 163.566 143.526 163.844C144.202 164.121 144.774 164.52 145.242 165.04C145.727 165.542 146.1 166.149 146.36 166.86C146.62 167.57 146.75 168.359 146.75 169.226C146.75 170.456 146.472 171.531 145.918 172.45C145.38 173.368 144.557 174.036 143.448 174.452L147.01 181.576H142.616L139.444 174.92H136.61V181.576ZM140.77 171.592C141.359 171.592 141.818 171.444 142.148 171.15C142.494 170.838 142.668 170.387 142.668 169.798V168.654C142.668 168.064 142.494 167.622 142.148 167.328C141.818 167.016 141.359 166.86 140.77 166.86H136.61V171.592H140.77ZM150.645 181.576V178.43H152.985V166.574H150.645V163.428H159.277V166.574H156.937V178.43H159.277V181.576H150.645ZM163.74 181.576V163.428H176.09V166.938H167.692V170.656H174.894V174.14H167.692V178.066H176.09V181.576H163.74ZM180.703 181.576V163.428H192.741V166.938H184.655V170.656H191.545V174.14H184.655V181.576H180.703ZM196.38 181.576V178.43H198.72V166.574H196.38V163.428H205.012V166.574H202.672V178.43H205.012V181.576H196.38ZM215.012 172.996L213.27 169.356H213.192V181.576H209.474V163.428H213.79L218.756 172.008L220.498 175.648H220.576V163.428H224.294V181.576H219.978L215.012 172.996ZM240.977 178.69H240.847C240.708 179.608 240.24 180.371 239.443 180.978C238.645 181.584 237.562 181.888 236.193 181.888C235.153 181.888 234.182 181.688 233.281 181.29C232.379 180.891 231.591 180.302 230.915 179.522C230.239 178.742 229.71 177.771 229.329 176.61C228.947 175.448 228.757 174.105 228.757 172.58C228.757 171.054 228.956 169.702 229.355 168.524C229.753 167.345 230.308 166.357 231.019 165.56C231.747 164.762 232.613 164.156 233.619 163.74C234.624 163.324 235.742 163.116 236.973 163.116C238.602 163.116 240.006 163.471 241.185 164.182C242.363 164.875 243.291 165.924 243.967 167.328L240.743 169.174C240.465 168.463 240.032 167.865 239.443 167.38C238.853 166.877 238.03 166.626 236.973 166.626C235.742 166.626 234.763 166.981 234.035 167.692C233.307 168.402 232.943 169.52 232.943 171.046V173.958C232.943 175.466 233.307 176.584 234.035 177.312C234.763 178.022 235.742 178.378 236.973 178.378C237.458 178.378 237.917 178.326 238.351 178.222C238.784 178.1 239.165 177.927 239.495 177.702C239.824 177.459 240.075 177.173 240.249 176.844C240.439 176.514 240.535 176.124 240.535 175.674V174.764H237.155V171.462H244.305V181.576H240.977V178.69Z" fill="#222222"/>
<path d="M182.562 224.002H176.65V229.83H174.68V224.002H168.768V222.059H174.68V216.23H176.65V222.059H182.562V224.002Z" fill="#222222" fill-opacity="0.6"/>
</svg>
