<svg width="155" height="94" viewBox="0 0 155 94" fill="none" xmlns="http://www.w3.org/2000/svg">
<rect x="-1" y="1" width="153" height="91.4815" rx="7" transform="matrix(1 0 0 -1 2 93.4815)" stroke="url(#paint0_linear)" stroke-opacity="0.7" stroke-width="2" stroke-miterlimit="1"/>
<rect x="-1" y="1" width="34" height="26" rx="4" transform="matrix(1 0 0 -1 60 61)" stroke="url(#paint1_linear)" stroke-opacity="0.7" stroke-width="2" stroke-miterlimit="1" stroke-dasharray="4 2"/>
<rect x="-1" y="1" width="34" height="26" rx="4" transform="matrix(1 0 0 -1 12 61)" stroke="url(#paint2_linear)" stroke-opacity="0.7" stroke-width="2" stroke-miterlimit="1" stroke-dasharray="4 2"/>
<rect x="-1" y="1" width="34" height="26" rx="4" transform="matrix(1 0 0 -1 108 61)" stroke="url(#paint3_linear)" stroke-opacity="0.7" stroke-width="2" stroke-miterlimit="1" stroke-dasharray="4 2"/>
<line x1="17" y1="73" x2="39.3704" y2="73" stroke="url(#paint4_linear)" stroke-opacity="0.7" stroke-width="2" stroke-miterlimit="1"/>
<line x1="67" y1="73" x2="89.3704" y2="73" stroke="url(#paint5_linear)" stroke-opacity="0.7" stroke-width="2" stroke-miterlimit="1"/>
<line x1="116" y1="73" x2="138.37" y2="73" stroke="url(#paint6_linear)" stroke-opacity="0.7" stroke-width="2" stroke-miterlimit="1"/>
<defs>
<linearGradient id="paint0_linear" x1="75.5" y1="0" x2="75.5" y2="89.4815" gradientUnits="userSpaceOnUse">
<stop stop-color="#FEDA7C"/>
<stop offset="1" stop-color="#F5C879"/>
</linearGradient>
<linearGradient id="paint1_linear" x1="16" y1="0" x2="16" y2="24" gradientUnits="userSpaceOnUse">
<stop stop-color="#FEDA7C"/>
<stop offset="1" stop-color="#F5C879"/>
</linearGradient>
<linearGradient id="paint2_linear" x1="16" y1="0" x2="16" y2="24" gradientUnits="userSpaceOnUse">
<stop stop-color="#FEDA7C"/>
<stop offset="1" stop-color="#F5C879"/>
</linearGradient>
<linearGradient id="paint3_linear" x1="16" y1="0" x2="16" y2="24" gradientUnits="userSpaceOnUse">
<stop stop-color="#FEDA7C"/>
<stop offset="1" stop-color="#F5C879"/>
</linearGradient>
<linearGradient id="paint4_linear" x1="28.1852" y1="74" x2="28.1852" y2="75" gradientUnits="userSpaceOnUse">
<stop stop-color="#FEDA7C"/>
<stop offset="1" stop-color="#F5C879"/>
</linearGradient>
<linearGradient id="paint5_linear" x1="78.1852" y1="74" x2="78.1852" y2="75" gradientUnits="userSpaceOnUse">
<stop stop-color="#FEDA7C"/>
<stop offset="1" stop-color="#F5C879"/>
</linearGradient>
<linearGradient id="paint6_linear" x1="127.185" y1="74" x2="127.185" y2="75" gradientUnits="userSpaceOnUse">
<stop stop-color="#FEDA7C"/>
<stop offset="1" stop-color="#F5C879"/>
</linearGradient>
</defs>
</svg>
