<svg width="109" height="109" viewBox="0 0 109 109" fill="none" xmlns="http://www.w3.org/2000/svg">
<path d="M76.5937 21.659C89.5658 29.8495 98.8988 46.4985 95.2197 61.2504C91.5406 76.0023 74.8927 88.9129 56.8356 89.8546C38.7353 90.7405 19.2257 79.6575 14.5216 65.055C9.83002 50.3533 19.9872 32.1879 33.4428 23.0055C46.855 13.7672 63.5656 13.5117 76.5937 21.659Z" fill="url(#paint0_linear)"/>
<path d="M42.0279 58.5893C42.0279 59.5815 41.2263 60.3851 40.2366 60.3851C39.2469 60.3851 38.4452 59.5815 38.4452 58.5893C38.4452 57.5971 39.2469 56.7935 40.2366 56.7935C41.2263 56.7935 42.0279 57.5971 42.0279 58.5893ZM54.5674 46.0187C55.5572 46.0187 56.3588 45.2151 56.3588 44.223C56.3588 43.2308 55.5572 42.4272 54.5674 42.4272C53.5777 42.4272 52.7761 43.2308 52.7761 44.223C52.7761 45.2151 53.5777 46.0187 54.5674 46.0187ZM64.7185 50.2089C65.7082 50.2089 66.5098 49.4053 66.5098 48.4131C66.5098 47.421 65.7082 46.6173 64.7185 46.6173C63.7287 46.6173 62.9271 47.421 62.9271 48.4131C62.9271 49.4053 63.7287 50.2089 64.7185 50.2089ZM70.0761 58.3932C70.1858 59.0457 69.7447 59.6615 69.0938 59.7708L59.3011 61.4072C59.0854 63.8495 57.0612 65.7724 54.5674 65.7724C51.9289 65.7724 49.7905 63.6287 49.7905 60.9837C49.7905 58.3386 51.9289 56.1949 54.5674 56.1949C56.5148 56.1949 58.183 57.3666 58.9272 59.042L68.7027 57.4086C69.3394 57.2971 69.9664 57.7408 70.0761 58.3932ZM56.9559 60.9837C56.9559 59.6615 55.8863 58.5893 54.5674 58.5893C53.2486 58.5893 52.179 59.6615 52.179 60.9837C52.179 62.3058 53.2486 63.3781 54.5674 63.3781C55.8863 63.3781 56.9559 62.3058 56.9559 60.9837ZM44.4164 46.6173C43.4267 46.6173 42.6251 47.421 42.6251 48.4131C42.6251 49.4053 43.4267 50.2089 44.4164 50.2089C45.4061 50.2089 46.2078 49.4053 46.2078 48.4131C46.2078 47.421 45.4061 46.6173 44.4164 46.6173ZM76.0637 58.5893C76.0637 62.54 75.0001 66.2408 73.1483 69.4239C72.7296 70.1437 71.9317 70.5612 71.1002 70.5612H38.0347C37.2032 70.5612 36.4053 70.1437 35.9866 69.4239C34.1348 66.2408 33.0712 62.54 33.0712 58.5893C33.0712 46.6877 42.6952 37.0398 54.5674 37.0398C66.4397 37.0398 76.0637 46.6877 76.0637 58.5893ZM73.6752 58.5893C73.6752 48.027 65.1036 39.4342 54.5674 39.4342C44.0313 39.4342 35.4596 48.027 35.4596 58.5893C35.4596 61.9758 36.3553 65.3048 38.0496 68.2177L71.1002 68.1668C72.7796 65.3048 73.6752 61.9758 73.6752 58.5893Z" fill="url(#paint1_linear)"/>
<defs>
<linearGradient id="paint0_linear" x1="31.4877" y1="24.4191" x2="83" y2="75.0449" gradientUnits="userSpaceOnUse">
<stop stop-opacity="0.02"/>
<stop offset="1" stop-opacity="0.05"/>
</linearGradient>
<linearGradient id="paint1_linear" x1="46.2114" y1="43.1678" x2="60.1536" y2="67.1836" gradientUnits="userSpaceOnUse">
<stop stop-color="#FC6E40"/>
<stop offset="1" stop-color="#EE4137"/>
</linearGradient>
</defs>
</svg>
