<svg width="236" height="709" viewBox="0 0 236 709" fill="none" xmlns="http://www.w3.org/2000/svg">
<path d="M123.485 695.488C60.6457 695.488 9.70402 644.547 9.70402 581.707C9.70402 518.867 60.6457 467.926 123.485 467.926" stroke="#F98E64" stroke-width="4.37654"/>
<path d="M119.219 695.488C182.058 695.488 233 644.547 233 581.707C233 518.867 182.058 467.926 119.219 467.926" stroke="#F98E64" stroke-width="4.37654"/>
<path d="M123.485 240.363C60.6457 240.363 9.70402 189.421 9.70402 126.582C9.70402 63.7421 60.6457 12.8004 123.485 12.8004" stroke="#F98E64" stroke-width="4.37654"/>
<path d="M119.219 12.8004C182.058 12.8004 233 63.742 233 126.582C233 189.421 182.058 240.363 119.219 240.363" stroke="white" stroke-width="4.37654"/>
<path d="M119.219 467.926C182.058 467.926 233 416.984 233 354.144C233 291.305 182.058 240.363 119.219 240.363" stroke="#F98E64" stroke-width="4.37654"/>
<path d="M116.374 467.926C53.5343 467.926 2.59269 416.984 2.59269 354.144C2.59269 291.305 53.5343 240.363 116.374 240.363" stroke="#282A2D" stroke-width="4.37654"/>
<circle cx="119.574" cy="240.719" r="13.156" transform="rotate(90 119.574 240.719)" fill="#F98E64"/>
<circle cx="125.263" cy="468.281" r="13.156" transform="rotate(90 125.263 468.281)" fill="#F98E64"/>
<circle cx="125.263" cy="695.844" r="13.156" transform="rotate(90 125.263 695.844)" fill="#F98E64"/>
<path d="M119.93 699.755H129.886V701.178H119.93V699.755Z" fill="white"/>
<path d="M128.172 691.222L123.485 695.908L121.644 694.073L120.641 695.076L123.485 697.921L129.174 692.232L128.172 691.222Z" fill="white"/>
<path d="M119.219 241.249L114.241 235.926L115.412 234.674L119.219 238.744L123.025 234.674L124.197 235.926L119.219 241.249Z" fill="white"/>
<path d="M119.219 247.649L114.241 242.327L115.412 241.074L119.219 245.144L123.025 241.074L124.197 242.327L119.219 247.649Z" fill="white"/>
<path d="M124.908 468.811L119.93 463.489L121.101 462.237L124.908 466.307L128.714 462.237L129.885 463.489L124.908 468.811Z" fill="white"/>
<path d="M124.908 475.212L119.93 469.889L121.101 468.637L124.908 472.707L128.714 468.637L129.885 469.889L124.908 475.212Z" fill="white"/>
<circle cx="117.785" cy="13.156" r="13.156" transform="rotate(90 117.785 13.156)" fill="#F98E64"/>
<path d="M117.43 14.9338C116.252 14.9338 115.296 13.9786 115.296 12.8004C115.296 11.6221 116.252 10.667 117.43 10.667C118.608 10.667 119.563 11.6221 119.563 12.8004C119.563 13.9786 118.608 14.9338 117.43 14.9338Z" fill="white"/>
<path fill-rule="evenodd" clip-rule="evenodd" d="M112.452 12.8004C112.452 15.5496 114.681 17.7783 117.43 17.7783C120.179 17.7783 122.408 15.5496 122.408 12.8004C122.408 10.0511 120.179 7.82245 117.43 7.82245C114.681 7.82245 112.452 10.0511 112.452 12.8004ZM113.874 12.8004C113.874 14.7641 115.466 16.356 117.43 16.356C119.394 16.356 120.985 14.7641 120.985 12.8004C120.985 10.8366 119.394 9.24472 117.43 9.24472C115.466 9.24472 113.874 10.8366 113.874 12.8004Z" fill="white"/>
<path d="M61.6009 114.731V101.493H67.5559C68.1628 101.493 68.7065 101.595 69.1869 101.797C69.68 101.986 70.0972 102.265 70.4386 102.631C70.78 102.985 71.0392 103.415 71.2162 103.921C71.3932 104.427 71.4817 104.983 71.4817 105.59C71.4817 106.209 71.3932 106.772 71.2162 107.278C71.0392 107.771 70.78 108.201 70.4386 108.567C70.0972 108.921 69.68 109.199 69.1869 109.402C68.7065 109.591 68.1628 109.686 67.5559 109.686H64.1043V114.731H61.6009ZM64.1043 107.524H67.3283C67.8088 107.524 68.1881 107.398 68.4662 107.145C68.7444 106.879 68.8835 106.506 68.8835 106.026V105.154C68.8835 104.673 68.7444 104.307 68.4662 104.054C68.1881 103.801 67.8088 103.674 67.3283 103.674H64.1043V107.524ZM74.6038 114.731V101.493H83.3277V103.712H77.1072V106.917H82.607V109.136H77.1072V112.512H83.3277V114.731H74.6038ZM90.9442 114.959C89.8063 114.959 88.8391 114.756 88.0426 114.352C87.2587 113.947 86.5823 113.416 86.0133 112.759L87.7012 111.128C88.1564 111.659 88.6621 112.063 89.2184 112.341C89.7874 112.62 90.4132 112.759 91.0959 112.759C91.8672 112.759 92.4488 112.594 92.8407 112.266C93.2327 111.924 93.4286 111.469 93.4286 110.9C93.4286 110.458 93.3022 110.097 93.0493 109.819C92.7965 109.541 92.3224 109.339 91.627 109.212L90.3753 109.022C87.7328 108.605 86.4116 107.322 86.4116 105.173C86.4116 104.578 86.5191 104.041 86.734 103.561C86.9616 103.08 87.284 102.669 87.7012 102.328C88.1184 101.986 88.6179 101.727 89.1994 101.55C89.7937 101.361 90.4638 101.266 91.2097 101.266C92.2086 101.266 93.081 101.43 93.8269 101.759C94.5729 102.088 95.2114 102.574 95.7424 103.219L94.0355 104.831C93.7068 104.427 93.3085 104.098 92.8407 103.845C92.3729 103.592 91.785 103.466 91.077 103.466C90.3563 103.466 89.8126 103.605 89.446 103.883C89.092 104.148 88.915 104.528 88.915 105.021C88.915 105.527 89.0604 105.9 89.3512 106.14C89.642 106.38 90.1098 106.557 90.7546 106.671L91.9873 106.898C93.3275 107.139 94.3137 107.569 94.9458 108.188C95.5907 108.795 95.9131 109.648 95.9131 110.748C95.9131 111.38 95.7993 111.956 95.5717 112.474C95.3568 112.98 95.0344 113.422 94.6045 113.802C94.1872 114.168 93.6689 114.453 93.0493 114.655C92.4425 114.857 91.7408 114.959 90.9442 114.959ZM107.81 118.107H105.971C105.098 118.107 104.454 117.892 104.036 117.462C103.632 117.045 103.429 116.45 103.429 115.679V114.883C101.988 114.668 100.838 113.985 99.9778 112.834C99.1307 111.684 98.7071 110.11 98.7071 108.112C98.7071 107 98.8462 106.02 99.1244 105.173C99.4025 104.313 99.7881 103.592 100.281 103.011C100.787 102.429 101.394 101.993 102.102 101.702C102.81 101.411 103.6 101.266 104.473 101.266C105.345 101.266 106.135 101.411 106.843 101.702C107.551 101.993 108.158 102.429 108.664 103.011C109.17 103.592 109.555 104.313 109.821 105.173C110.099 106.02 110.238 107 110.238 108.112C110.238 110.072 109.84 111.614 109.043 112.74C108.247 113.865 107.159 114.56 105.781 114.826V116.059H107.81V118.107ZM104.473 112.74C105.421 112.74 106.173 112.424 106.729 111.791C107.298 111.159 107.583 110.274 107.583 109.136V107.088C107.583 105.95 107.298 105.065 106.729 104.433C106.173 103.801 105.421 103.485 104.473 103.485C103.524 103.485 102.766 103.801 102.197 104.433C101.64 105.065 101.362 105.95 101.362 107.088V109.136C101.362 110.274 101.64 111.159 102.197 111.791C102.766 112.424 103.524 112.74 104.473 112.74ZM116.002 101.493V109.629C116.002 110.666 116.198 111.444 116.59 111.962C116.994 112.48 117.671 112.74 118.619 112.74C119.567 112.74 120.237 112.48 120.629 111.962C121.034 111.444 121.236 110.666 121.236 109.629V101.493H123.701V109.307C123.701 110.28 123.607 111.121 123.417 111.829C123.24 112.537 122.949 113.125 122.545 113.593C122.14 114.061 121.609 114.409 120.951 114.636C120.307 114.851 119.523 114.959 118.6 114.959C117.664 114.959 116.874 114.851 116.229 114.636C115.597 114.409 115.079 114.061 114.674 113.593C114.269 113.125 113.979 112.537 113.802 111.829C113.625 111.121 113.536 110.28 113.536 109.307V101.493H116.002ZM127.028 114.731V112.721H128.773V103.504H127.028V101.493H133.04V103.504H131.277V112.721H133.04V114.731H127.028ZM140.567 114.959C139.429 114.959 138.462 114.756 137.665 114.352C136.881 113.947 136.205 113.416 135.636 112.759L137.324 111.128C137.779 111.659 138.285 112.063 138.841 112.341C139.41 112.62 140.036 112.759 140.718 112.759C141.49 112.759 142.071 112.594 142.463 112.266C142.855 111.924 143.051 111.469 143.051 110.9C143.051 110.458 142.925 110.097 142.672 109.819C142.419 109.541 141.945 109.339 141.249 109.212L139.998 109.022C137.355 108.605 136.034 107.322 136.034 105.173C136.034 104.578 136.141 104.041 136.356 103.561C136.584 103.08 136.906 102.669 137.324 102.328C137.741 101.986 138.24 101.727 138.822 101.55C139.416 101.361 140.086 101.266 140.832 101.266C141.831 101.266 142.703 101.43 143.449 101.759C144.195 102.088 144.834 102.574 145.365 103.219L143.658 104.831C143.329 104.427 142.931 104.098 142.463 103.845C141.995 103.592 141.407 103.466 140.699 103.466C139.979 103.466 139.435 103.605 139.068 103.883C138.714 104.148 138.537 104.528 138.537 105.021C138.537 105.527 138.683 105.9 138.974 106.14C139.264 106.38 139.732 106.557 140.377 106.671L141.61 106.898C142.95 107.139 143.936 107.569 144.568 108.188C145.213 108.795 145.535 109.648 145.535 110.748C145.535 111.38 145.422 111.956 145.194 112.474C144.979 112.98 144.657 113.422 144.227 113.802C143.81 114.168 143.291 114.453 142.672 114.655C142.065 114.857 141.363 114.959 140.567 114.959ZM157.091 114.731L156.029 111.355H151.326L150.283 114.731H147.742L152.179 101.493H155.29L159.69 114.731H157.091ZM153.716 103.769H153.621L151.933 109.212H155.422L153.716 103.769ZM167.829 114.731V101.493H176.553V103.712H170.333V106.917H175.833V109.136H170.333V112.512H176.553V114.731H167.829ZM74.7527 126.493H80.8784C81.4221 126.493 81.9088 126.576 82.3387 126.74C82.7812 126.904 83.1542 127.132 83.4576 127.423C83.7611 127.713 83.9887 128.074 84.1404 128.504C84.3047 128.921 84.3869 129.382 84.3869 129.888C84.3869 130.394 84.3174 130.824 84.1783 131.178C84.0519 131.519 83.8749 131.804 83.6473 132.031C83.4323 132.259 83.1795 132.429 82.8887 132.543C82.6105 132.657 82.3197 132.72 82.0163 132.733V132.847C82.3071 132.847 82.6168 132.904 82.9456 133.017C83.2869 133.131 83.5967 133.314 83.8749 133.567C84.1657 133.808 84.4059 134.124 84.5955 134.516C84.7852 134.895 84.88 135.369 84.88 135.938C84.88 136.469 84.7915 136.968 84.6145 137.436C84.4501 137.891 84.2162 138.29 83.9128 138.631C83.6094 138.972 83.249 139.244 82.8318 139.446C82.4146 139.636 81.9594 139.731 81.4663 139.731H74.7527V126.493ZM77.2561 137.607H80.7456C81.2261 137.607 81.5991 137.487 81.8646 137.247C82.1301 136.994 82.2628 136.633 82.2628 136.166V135.521C82.2628 135.053 82.1301 134.693 81.8646 134.44C81.5991 134.187 81.2261 134.06 80.7456 134.06H77.2561V137.607ZM77.2561 132.012H80.3474C80.8025 132.012 81.1565 131.892 81.4094 131.652C81.6623 131.399 81.7887 131.051 81.7887 130.609V130.021C81.7887 129.578 81.6623 129.237 81.4094 128.997C81.1565 128.744 80.8025 128.617 80.3474 128.617H77.2561V132.012ZM90.6849 139.731H88.1816V126.493H94.1555C94.7624 126.493 95.3061 126.588 95.7865 126.778C96.267 126.967 96.6716 127.246 97.0003 127.612C97.3417 127.966 97.6008 128.396 97.7779 128.902C97.9675 129.408 98.0623 129.97 98.0623 130.59C98.0623 131.5 97.8537 132.284 97.4365 132.941C97.0319 133.599 96.4187 134.067 95.5969 134.345L98.3089 139.731H95.521L93.0556 134.629H90.6849V139.731ZM93.909 132.524C94.3894 132.524 94.7687 132.398 95.0469 132.145C95.325 131.879 95.4641 131.506 95.4641 131.026V130.154C95.4641 129.673 95.325 129.307 95.0469 129.054C94.7687 128.801 94.3894 128.674 93.909 128.674H90.6849V132.524H93.909ZM101.079 139.731V137.721H102.824V128.504H101.079V126.493H107.091V128.504H105.327V137.721H107.091V139.731H101.079ZM110.502 139.731V126.493H119.226V128.712H113.005V131.917H118.505V134.136H113.005V137.512H119.226V139.731H110.502ZM122.727 139.731V126.493H131.242V128.712H125.23V131.917H130.465V134.136H125.23V139.731H122.727ZM133.976 139.731V137.721H135.721V128.504H133.976V126.493H139.988V128.504H138.224V137.721H139.988V139.731H133.976ZM147.192 132.941L145.826 130.192H145.769V139.731H143.399V126.493H146.149L150.131 133.283L151.497 136.033H151.554V126.493H153.924V139.731H151.174L147.192 132.941ZM166.323 137.683H166.247C166.133 138.328 165.773 138.871 165.166 139.314C164.572 139.744 163.775 139.959 162.776 139.959C161.992 139.959 161.265 139.813 160.595 139.522C159.938 139.232 159.362 138.802 158.869 138.233C158.389 137.651 158.01 136.937 157.731 136.09C157.453 135.243 157.314 134.263 157.314 133.15C157.314 132.037 157.453 131.058 157.731 130.211C158.022 129.351 158.427 128.63 158.945 128.049C159.464 127.467 160.083 127.024 160.804 126.721C161.524 126.418 162.327 126.266 163.212 126.266C164.401 126.266 165.412 126.525 166.247 127.043C167.081 127.562 167.739 128.308 168.219 129.281L166.19 130.476C165.95 129.907 165.589 129.433 165.109 129.054C164.641 128.674 164.009 128.485 163.212 128.485C162.226 128.485 161.436 128.788 160.842 129.395C160.26 129.989 159.969 130.874 159.969 132.05V134.174C159.969 135.337 160.266 136.222 160.861 136.829C161.455 137.436 162.251 137.74 163.25 137.74C163.642 137.74 164.009 137.695 164.35 137.607C164.692 137.506 164.989 137.36 165.242 137.171C165.494 136.981 165.697 136.747 165.849 136.469C166 136.191 166.076 135.862 166.076 135.483V134.629H163.478V132.524H168.485V139.731H166.323V137.683Z" fill="#222222"/>
<path d="M81.3387 340.995H86.1558C87.0155 340.995 87.7931 341.134 88.4885 341.412C89.1965 341.691 89.7971 342.108 90.2901 342.664C90.7959 343.208 91.1815 343.897 91.447 344.731C91.7252 345.553 91.8642 346.514 91.8642 347.614C91.8642 348.714 91.7252 349.681 91.447 350.516C91.1815 351.337 90.7959 352.027 90.2901 352.583C89.7971 353.126 89.1965 353.537 88.4885 353.816C87.7931 354.094 87.0155 354.233 86.1558 354.233H81.3387V340.995ZM86.1558 352.014C87.0914 352.014 87.831 351.742 88.3747 351.198C88.931 350.642 89.2091 349.795 89.2091 348.657V346.571C89.2091 345.433 88.931 344.592 88.3747 344.049C87.831 343.492 87.0914 343.214 86.1558 343.214H83.842V352.014H86.1558ZM95.2676 354.233V340.995H103.991V343.214H97.771V346.419H103.271V348.638H97.771V352.014H103.991V354.233H95.2676ZM111.608 354.46C110.47 354.46 109.503 354.258 108.706 353.853C107.922 353.449 107.246 352.918 106.677 352.26L108.365 350.629C108.82 351.16 109.326 351.565 109.882 351.843C110.451 352.121 111.077 352.26 111.76 352.26C112.531 352.26 113.113 352.096 113.505 351.767C113.896 351.426 114.092 350.971 114.092 350.402C114.092 349.959 113.966 349.599 113.713 349.321C113.46 349.043 112.986 348.84 112.291 348.714L111.039 348.524C108.397 348.107 107.075 346.824 107.075 344.674C107.075 344.08 107.183 343.543 107.398 343.062C107.625 342.582 107.948 342.171 108.365 341.83C108.782 341.488 109.282 341.229 109.863 341.052C110.457 340.862 111.128 340.768 111.874 340.768C112.872 340.768 113.745 340.932 114.491 341.261C115.237 341.589 115.875 342.076 116.406 342.721L114.699 344.333C114.371 343.928 113.972 343.6 113.505 343.347C113.037 343.094 112.449 342.968 111.741 342.968C111.02 342.968 110.476 343.107 110.11 343.385C109.756 343.65 109.579 344.03 109.579 344.523C109.579 345.028 109.724 345.401 110.015 345.642C110.306 345.882 110.774 346.059 111.418 346.173L112.651 346.4C113.991 346.64 114.977 347.07 115.61 347.69C116.254 348.297 116.577 349.15 116.577 350.25C116.577 350.882 116.463 351.458 116.235 351.976C116.021 352.482 115.698 352.924 115.268 353.304C114.851 353.67 114.333 353.955 113.713 354.157C113.106 354.359 112.405 354.46 111.608 354.46ZM119.39 354.233V352.222H121.135V343.005H119.39V340.995H125.402V343.005H123.638V352.222H125.402V354.233H119.39ZM137.252 352.185H137.176C137.062 352.829 136.702 353.373 136.095 353.816C135.501 354.245 134.704 354.46 133.706 354.46C132.922 354.46 132.195 354.315 131.525 354.024C130.867 353.733 130.292 353.304 129.799 352.735C129.318 352.153 128.939 351.439 128.661 350.592C128.383 349.744 128.244 348.765 128.244 347.652C128.244 346.539 128.383 345.559 128.661 344.712C128.952 343.853 129.356 343.132 129.875 342.55C130.393 341.969 131.013 341.526 131.733 341.223C132.454 340.919 133.257 340.768 134.142 340.768C135.33 340.768 136.342 341.027 137.176 341.545C138.011 342.064 138.668 342.81 139.149 343.783L137.119 344.978C136.879 344.409 136.519 343.935 136.038 343.555C135.571 343.176 134.938 342.987 134.142 342.987C133.156 342.987 132.365 343.29 131.771 343.897C131.19 344.491 130.899 345.376 130.899 346.552V348.676C130.899 349.839 131.196 350.724 131.79 351.331C132.384 351.938 133.181 352.241 134.18 352.241C134.572 352.241 134.938 352.197 135.28 352.109C135.621 352.008 135.918 351.862 136.171 351.673C136.424 351.483 136.626 351.249 136.778 350.971C136.93 350.693 137.006 350.364 137.006 349.985V349.131H134.407V347.026H139.414V354.233H137.252V352.185ZM146.961 347.443L145.595 344.693H145.538V354.233H143.168V340.995H145.918L149.9 347.785L151.266 350.535H151.323V340.995H153.693V354.233H150.943L146.961 347.443Z" fill="#222222"/>
<path d="M24.0545 570.804H28.8716C29.7313 570.804 30.5089 570.943 31.2043 571.221C31.9123 571.499 32.5129 571.916 33.006 572.473C33.5117 573.016 33.8973 573.705 34.1628 574.54C34.441 575.362 34.5801 576.322 34.5801 577.422C34.5801 578.522 34.441 579.49 34.1628 580.324C33.8973 581.146 33.5117 581.835 33.006 582.391C32.5129 582.935 31.9123 583.346 31.2043 583.624C30.5089 583.902 29.7313 584.041 28.8716 584.041H24.0545V570.804ZM28.8716 581.822C29.8072 581.822 30.5468 581.551 31.0905 581.007C31.6468 580.451 31.925 579.603 31.925 578.466V576.379C31.925 575.241 31.6468 574.401 31.0905 573.857C30.5468 573.301 29.8072 573.023 28.8716 573.023H26.5579V581.822H28.8716ZM37.9834 584.041V570.804H46.7073V573.023H40.4868V576.228H45.9866V578.447H40.4868V581.822H46.7073V584.041H37.9834ZM54.3238 584.269C53.1859 584.269 52.2187 584.067 51.4222 583.662C50.6383 583.257 49.9619 582.726 49.3929 582.069L51.0808 580.438C51.536 580.969 52.0417 581.374 52.598 581.652C53.167 581.93 53.7928 582.069 54.4755 582.069C55.2468 582.069 55.8284 581.905 56.2203 581.576C56.6123 581.234 56.8082 580.779 56.8082 580.21C56.8082 579.768 56.6818 579.407 56.4289 579.129C56.1761 578.851 55.702 578.649 55.0066 578.522L53.7549 578.333C51.1124 577.916 49.7912 576.632 49.7912 574.483C49.7912 573.889 49.8987 573.351 50.1136 572.871C50.3412 572.39 50.6636 571.98 51.0808 571.638C51.498 571.297 51.9975 571.038 52.579 570.861C53.1733 570.671 53.8434 570.576 54.5893 570.576C55.5882 570.576 56.4606 570.74 57.2065 571.069C57.9525 571.398 58.591 571.885 59.122 572.529L57.4151 574.142C57.0864 573.737 56.6881 573.408 56.2203 573.155C55.7525 572.902 55.1646 572.776 54.4566 572.776C53.7359 572.776 53.1922 572.915 52.8256 573.193C52.4716 573.459 52.2946 573.838 52.2946 574.331C52.2946 574.837 52.44 575.21 52.7308 575.45C53.0216 575.69 53.4894 575.867 54.1342 575.981L55.3669 576.209C56.7071 576.449 57.6933 576.879 58.3254 577.498C58.9703 578.105 59.2927 578.959 59.2927 580.059C59.2927 580.691 59.1789 581.266 58.9513 581.784C58.7364 582.29 58.414 582.733 57.9841 583.112C57.5668 583.479 57.0485 583.763 56.4289 583.965C55.8221 584.168 55.1204 584.269 54.3238 584.269ZM62.6557 584.041V570.804H71.3796V573.023H65.1591V576.228H70.6589V578.447H65.1591V581.822H71.3796V584.041H62.6557ZM78.6737 577.252L77.3082 574.502H77.2514V584.041H74.8807V570.804H77.6307L81.6133 577.593L82.9788 580.343H83.0357V570.804H85.4063V584.041H82.6564L78.6737 577.252ZM92.4376 584.041L88.1136 570.804H90.6738L92.7031 577.252L93.8789 581.652H93.9358L95.0927 577.252L97.122 570.804H99.6064L95.2823 584.041H92.4376ZM107.027 584.269C106.155 584.269 105.365 584.123 104.657 583.833C103.949 583.542 103.342 583.106 102.836 582.524C102.343 581.942 101.957 581.228 101.679 580.381C101.401 579.534 101.262 578.548 101.262 577.422C101.262 576.31 101.401 575.33 101.679 574.483C101.957 573.623 102.343 572.902 102.836 572.321C103.342 571.739 103.949 571.303 104.657 571.012C105.365 570.721 106.155 570.576 107.027 570.576C107.9 570.576 108.69 570.721 109.398 571.012C110.106 571.303 110.713 571.739 111.219 572.321C111.724 572.902 112.11 573.623 112.376 574.483C112.654 575.33 112.793 576.31 112.793 577.422C112.793 578.548 112.654 579.534 112.376 580.381C112.11 581.228 111.724 581.942 111.219 582.524C110.713 583.106 110.106 583.542 109.398 583.833C108.69 584.123 107.9 584.269 107.027 584.269ZM107.027 582.05C107.976 582.05 108.728 581.734 109.284 581.102C109.853 580.47 110.138 579.584 110.138 578.447V576.398C110.138 575.26 109.853 574.375 109.284 573.743C108.728 573.111 107.976 572.795 107.027 572.795C106.079 572.795 105.321 573.111 104.752 573.743C104.195 574.375 103.917 575.26 103.917 576.398V578.447C103.917 579.584 104.195 580.47 104.752 581.102C105.321 581.734 106.079 582.05 107.027 582.05ZM116.186 584.041V570.804H118.689V581.822H123.905V584.041H116.186ZM128.687 584.041L124.363 570.804H126.923L128.952 577.252L130.128 581.652H130.185L131.342 577.252L133.371 570.804H135.855L131.531 584.041H128.687ZM138.012 584.041V582.031H139.757V572.814H138.012V570.804H144.024V572.814H142.26V582.031H144.024V584.041H138.012ZM157.429 574.54H157.353L156.329 576.645L153.617 581.652L150.905 576.645L149.881 574.54H149.805V584.041H147.435V570.804H150.26L153.655 577.271H153.731L157.088 570.804H159.8V584.041H157.429V574.54ZM163.771 584.041V570.804H172.495V573.023H166.274V576.228H171.774V578.447H166.274V581.822H172.495V584.041H163.771ZM179.789 577.252L178.424 574.502H178.367V584.041H175.996V570.804H178.746L182.729 577.593L184.094 580.343H184.151V570.804H186.522V584.041H183.772L179.789 577.252ZM195.677 573.023V584.041H193.174V573.023H189.419V570.804H199.432V573.023H195.677ZM207.069 584.269C206.196 584.269 205.406 584.123 204.698 583.833C203.99 583.542 203.383 583.106 202.877 582.524C202.384 581.942 201.999 581.228 201.721 580.381C201.442 579.534 201.303 578.548 201.303 577.422C201.303 576.31 201.442 575.33 201.721 574.483C201.999 573.623 202.384 572.902 202.877 572.321C203.383 571.739 203.99 571.303 204.698 571.012C205.406 570.721 206.196 570.576 207.069 570.576C207.941 570.576 208.731 570.721 209.439 571.012C210.147 571.303 210.754 571.739 211.26 572.321C211.766 572.902 212.151 573.623 212.417 574.483C212.695 575.33 212.834 576.31 212.834 577.422C212.834 578.548 212.695 579.534 212.417 580.381C212.151 581.228 211.766 581.942 211.26 582.524C210.754 583.106 210.147 583.542 209.439 583.833C208.731 584.123 207.941 584.269 207.069 584.269ZM207.069 582.05C208.017 582.05 208.769 581.734 209.326 581.102C209.895 580.47 210.179 579.584 210.179 578.447V576.398C210.179 575.26 209.895 574.375 209.326 573.743C208.769 573.111 208.017 572.795 207.069 572.795C206.12 572.795 205.362 573.111 204.793 573.743C204.237 574.375 203.958 575.26 203.958 576.398V578.447C203.958 579.584 204.237 580.47 204.793 581.102C205.362 581.734 206.12 582.05 207.069 582.05Z" fill="#222222"/>
<path d="M120.697 417.122V412.856H116.43V411.433H120.697V407.167H122.119V411.433H126.386V412.856H122.119V417.122H120.697Z" fill="#222222" fill-opacity="0.6"/>
<path d="M120.311 631.663V627.396H116.044V625.974H120.311V621.707H121.733V625.974H126V627.396H121.733V631.663H120.311Z" fill="#222222" fill-opacity="0.6"/>
<path d="M120.311 187.293V183.026H116.044V181.604H120.311V177.337H121.733V181.604H126V183.026H121.733V187.293H120.311Z" fill="#222222" fill-opacity="0.6"/>
</svg>
