<svg width="993" height="326" viewBox="0 0 993 326" fill="none" xmlns="http://www.w3.org/2000/svg">
<path d="M970.976 159.138C970.976 245.288 901.138 315.126 814.988 315.126C728.838 315.126 659 245.288 659 159.138" stroke="#F98E64" stroke-width="6"/>
<path d="M971 160C971 73.8501 901.638 2.99995 815.488 2.99995C729.339 2.99995 659 73.3501 659 159.5" stroke="#F98E64" stroke-width="6"/>
<path d="M330.5 164.5C330.5 250.65 260.138 322.126 173.988 322.126C87.8382 322.126 18 252.288 18 166.138" stroke="#F98E64" stroke-width="6"/>
<path d="M18.0002 166.5C18.0002 80.3502 87.8872 8.99995 174.037 8.99995C260.187 8.99995 330.5 78.351 330.5 164.501" stroke="white" stroke-width="6"/>
<path d="M652.976 158.988C652.976 72.8381 583.138 2.99995 496.988 2.99995C410.838 2.99995 341 72.8381 341 158.988" stroke="#F98E64" stroke-width="6"/>
<path d="M652.976 158.888C652.976 245.037 583.138 314.876 496.988 314.876C410.838 314.876 341 245.037 341 158.888" stroke="#282A2D" stroke-width="6"/>
<circle cx="974.036" cy="160.036" r="18.0361" fill="#F98E64"/>
<path d="M967.699 165.398H981.348V167.348H967.699V165.398Z" fill="white"/>
<path d="M978.999 153.699L972.574 160.124L970.049 157.609L968.674 158.983L972.574 162.883L980.373 155.084L978.999 153.699Z" fill="white"/>
<circle cx="336.036" cy="160.036" r="18.0361" fill="#F98E64"/>
<path d="M336.763 160.524L329.466 167.348L327.749 165.742L333.329 160.524L327.749 155.305L329.466 153.699L336.763 160.524Z" fill="white"/>
<path d="M345.537 160.524L338.24 167.348L336.524 165.742L342.103 160.524L336.524 155.305L338.24 153.699L345.537 160.524Z" fill="white"/>
<circle cx="655.036" cy="160.036" r="18.0361" fill="#F98E64"/>
<path d="M655.763 160.524L648.466 167.348L646.749 165.742L652.329 160.524L646.749 155.305L648.466 153.699L655.763 160.524Z" fill="white"/>
<path d="M664.537 160.524L657.24 167.348L655.524 165.742L661.103 160.524L655.524 155.305L657.24 153.699L664.537 160.524Z" fill="white"/>
<circle cx="18.0361" cy="160.036" r="18.0361" fill="#F98E64"/>
<path d="M20.4734 160.523C20.4734 162.139 19.164 163.448 17.5487 163.448C15.9333 163.448 14.6239 162.139 14.6239 160.523C14.6239 158.908 15.9333 157.599 17.5487 157.599C19.164 157.599 20.4734 158.908 20.4734 160.523Z" fill="white"/>
<path fill-rule="evenodd" clip-rule="evenodd" d="M17.5487 167.348C21.3177 167.348 24.3731 164.293 24.3731 160.523C24.3731 156.754 21.3177 153.699 17.5487 153.699C13.7796 153.699 10.7242 156.754 10.7242 160.523C10.7242 164.293 13.7796 167.348 17.5487 167.348ZM17.5487 165.398C20.2408 165.398 22.4233 163.216 22.4233 160.523C22.4233 157.831 20.2408 155.649 17.5487 155.649C14.8565 155.649 12.674 157.831 12.674 160.523C12.674 163.216 14.8565 165.398 17.5487 165.398Z" fill="white"/>
<path d="M93.9081 154V135.852H102.488C103.337 135.852 104.1 135.999 104.776 136.294C105.452 136.571 106.024 136.961 106.492 137.464C106.977 137.967 107.35 138.582 107.61 139.31C107.87 140.021 108 140.801 108 141.65C108 142.517 107.87 143.305 107.61 144.016C107.35 144.727 106.977 145.333 106.492 145.836C106.024 146.339 105.452 146.737 104.776 147.032C104.1 147.309 103.337 147.448 102.488 147.448H97.8601V154H93.9081ZM97.8601 144.016H102.02C102.609 144.016 103.069 143.869 103.398 143.574C103.745 143.262 103.918 142.811 103.918 142.222V141.078C103.918 140.489 103.745 140.047 103.398 139.752C103.069 139.44 102.609 139.284 102.02 139.284H97.8601V144.016ZM112.141 154V135.852H124.491V139.362H116.093V143.08H123.295V146.564H116.093V150.49H124.491V154H112.141ZM134.98 154.312C133.385 154.312 132.033 154.043 130.924 153.506C129.814 152.951 128.87 152.241 128.09 151.374L130.69 148.748C131.92 150.135 133.437 150.828 135.24 150.828C136.21 150.828 136.93 150.629 137.398 150.23C137.866 149.831 138.1 149.303 138.1 148.644C138.1 148.141 137.961 147.725 137.684 147.396C137.406 147.049 136.843 146.815 135.994 146.694L134.2 146.46C132.276 146.217 130.863 145.637 129.962 144.718C129.078 143.799 128.636 142.577 128.636 141.052C128.636 140.237 128.792 139.492 129.104 138.816C129.416 138.14 129.858 137.559 130.43 137.074C131.019 136.589 131.73 136.216 132.562 135.956C133.411 135.679 134.373 135.54 135.448 135.54C136.817 135.54 138.022 135.757 139.062 136.19C140.102 136.623 140.994 137.256 141.74 138.088L139.114 140.74C138.68 140.237 138.152 139.83 137.528 139.518C136.921 139.189 136.15 139.024 135.214 139.024C134.33 139.024 133.671 139.18 133.238 139.492C132.804 139.804 132.588 140.237 132.588 140.792C132.588 141.416 132.752 141.867 133.082 142.144C133.428 142.421 133.983 142.621 134.746 142.742L136.54 143.028C138.412 143.323 139.798 143.903 140.7 144.77C141.601 145.619 142.052 146.833 142.052 148.41C142.052 149.277 141.896 150.074 141.584 150.802C141.272 151.53 140.812 152.154 140.206 152.674C139.616 153.194 138.88 153.601 137.996 153.896C137.112 154.173 136.106 154.312 134.98 154.312ZM158.588 158.784H156.144C154.74 158.784 153.717 158.455 153.076 157.796C152.435 157.137 152.114 156.184 152.114 154.936V154.182C150.173 153.835 148.63 152.891 147.486 151.348C146.359 149.788 145.796 147.647 145.796 144.926C145.796 143.383 145.987 142.031 146.368 140.87C146.749 139.691 147.287 138.712 147.98 137.932C148.673 137.135 149.514 136.537 150.502 136.138C151.49 135.739 152.582 135.54 153.778 135.54C154.974 135.54 156.066 135.739 157.054 136.138C158.042 136.537 158.883 137.135 159.576 137.932C160.269 138.712 160.807 139.691 161.188 140.87C161.569 142.031 161.76 143.383 161.76 144.926C161.76 147.561 161.223 149.649 160.148 151.192C159.091 152.735 157.643 153.705 155.806 154.104V155.56H158.588V158.784ZM153.778 150.802C154.974 150.802 155.901 150.412 156.56 149.632C157.236 148.852 157.574 147.734 157.574 146.278V143.574C157.574 142.118 157.236 141 156.56 140.22C155.901 139.44 154.974 139.05 153.778 139.05C152.582 139.05 151.646 139.44 150.97 140.22C150.311 141 149.982 142.118 149.982 143.574V146.278C149.982 147.734 150.311 148.852 150.97 149.632C151.646 150.412 152.582 150.802 153.778 150.802ZM169.973 135.852V146.98C169.973 148.263 170.224 149.225 170.727 149.866C171.229 150.49 172.07 150.802 173.249 150.802C174.427 150.802 175.268 150.49 175.771 149.866C176.273 149.225 176.525 148.263 176.525 146.98V135.852H180.373V146.564C180.373 147.899 180.243 149.06 179.983 150.048C179.74 151.019 179.333 151.825 178.761 152.466C178.189 153.09 177.452 153.558 176.551 153.87C175.649 154.165 174.549 154.312 173.249 154.312C171.949 154.312 170.848 154.165 169.947 153.87C169.045 153.558 168.309 153.09 167.737 152.466C167.165 151.825 166.749 151.019 166.489 150.048C166.246 149.06 166.125 147.899 166.125 146.564V135.852H169.973ZM184.749 154V150.854H187.089V138.998H184.749V135.852H193.381V138.998H191.041V150.854H193.381V154H184.749ZM203.72 154.312C202.125 154.312 200.773 154.043 199.664 153.506C198.555 152.951 197.61 152.241 196.83 151.374L199.43 148.748C200.661 150.135 202.177 150.828 203.98 150.828C204.951 150.828 205.67 150.629 206.138 150.23C206.606 149.831 206.84 149.303 206.84 148.644C206.84 148.141 206.701 147.725 206.424 147.396C206.147 147.049 205.583 146.815 204.734 146.694L202.94 146.46C201.016 146.217 199.603 145.637 198.702 144.718C197.818 143.799 197.376 142.577 197.376 141.052C197.376 140.237 197.532 139.492 197.844 138.816C198.156 138.14 198.598 137.559 199.17 137.074C199.759 136.589 200.47 136.216 201.302 135.956C202.151 135.679 203.113 135.54 204.188 135.54C205.557 135.54 206.762 135.757 207.802 136.19C208.842 136.623 209.735 137.256 210.48 138.088L207.854 140.74C207.421 140.237 206.892 139.83 206.268 139.518C205.661 139.189 204.89 139.024 203.954 139.024C203.07 139.024 202.411 139.18 201.978 139.492C201.545 139.804 201.328 140.237 201.328 140.792C201.328 141.416 201.493 141.867 201.822 142.144C202.169 142.421 202.723 142.621 203.486 142.742L205.28 143.028C207.152 143.323 208.539 143.903 209.44 144.77C210.341 145.619 210.792 146.833 210.792 148.41C210.792 149.277 210.636 150.074 210.324 150.802C210.012 151.53 209.553 152.154 208.946 152.674C208.357 153.194 207.62 153.601 206.736 153.896C205.852 154.173 204.847 154.312 203.72 154.312ZM226.419 154L225.119 149.684H219.061L217.761 154H213.757L219.737 135.852H224.625L230.527 154H226.419ZM222.129 139.44H221.999L219.997 146.33H224.157L222.129 139.44ZM241.522 154V135.852H253.872V139.362H245.474V143.08H252.676V146.564H245.474V150.49H253.872V154H241.522ZM112.269 169.852H121.083C122.591 169.852 123.761 170.277 124.593 171.126C125.442 171.975 125.867 173.102 125.867 174.506C125.867 175.199 125.771 175.789 125.581 176.274C125.407 176.759 125.165 177.158 124.853 177.47C124.558 177.782 124.203 178.016 123.787 178.172C123.388 178.311 122.955 178.389 122.487 178.406V178.562C122.92 178.562 123.371 178.64 123.839 178.796C124.324 178.952 124.766 179.203 125.165 179.55C125.563 179.879 125.893 180.313 126.153 180.85C126.43 181.387 126.569 182.046 126.569 182.826C126.569 183.537 126.447 184.213 126.205 184.854C125.979 185.478 125.659 186.024 125.243 186.492C124.827 186.96 124.333 187.333 123.761 187.61C123.189 187.87 122.565 188 121.889 188H112.269V169.852ZM116.221 184.672H120.771C121.291 184.672 121.698 184.533 121.993 184.256C122.305 183.961 122.461 183.554 122.461 183.034V182.15C122.461 181.63 122.305 181.231 121.993 180.954C121.698 180.659 121.291 180.512 120.771 180.512H116.221V184.672ZM116.221 177.288H120.147C120.667 177.288 121.074 177.141 121.369 176.846C121.663 176.551 121.811 176.144 121.811 175.624V174.844C121.811 174.324 121.663 173.917 121.369 173.622C121.074 173.327 120.667 173.18 120.147 173.18H116.221V177.288ZM134.732 188H130.78V169.852H139.386C140.218 169.852 140.972 169.991 141.648 170.268C142.324 170.545 142.896 170.944 143.364 171.464C143.85 171.967 144.222 172.573 144.482 173.284C144.742 173.995 144.872 174.783 144.872 175.65C144.872 176.881 144.595 177.955 144.04 178.874C143.503 179.793 142.68 180.46 141.57 180.876L145.132 188H140.738L137.566 181.344H134.732V188ZM138.892 178.016C139.482 178.016 139.941 177.869 140.27 177.574C140.617 177.262 140.79 176.811 140.79 176.222V175.078C140.79 174.489 140.617 174.047 140.27 173.752C139.941 173.44 139.482 173.284 138.892 173.284H134.732V178.016H138.892ZM148.768 188V184.854H151.108V172.998H148.768V169.852H157.4V172.998H155.06V184.854H157.4V188H148.768ZM161.863 188V169.852H174.213V173.362H165.815V177.08H173.017V180.564H165.815V184.49H174.213V188H161.863ZM178.825 188V169.852H190.863V173.362H182.777V177.08H189.667V180.564H182.777V188H178.825ZM194.502 188V184.854H196.842V172.998H194.502V169.852H203.134V172.998H200.794V184.854H203.134V188H194.502ZM213.135 179.42L211.393 175.78H211.315V188H207.597V169.852H211.913L216.879 178.432L218.621 182.072H218.699V169.852H222.417V188H218.101L213.135 179.42ZM239.1 185.114H238.97C238.831 186.033 238.363 186.795 237.566 187.402C236.768 188.009 235.685 188.312 234.316 188.312C233.276 188.312 232.305 188.113 231.404 187.714C230.502 187.315 229.714 186.726 229.038 185.946C228.362 185.166 227.833 184.195 227.452 183.034C227.07 181.873 226.88 180.529 226.88 179.004C226.88 177.479 227.079 176.127 227.478 174.948C227.876 173.769 228.431 172.781 229.142 171.984C229.87 171.187 230.736 170.58 231.742 170.164C232.747 169.748 233.865 169.54 235.096 169.54C236.725 169.54 238.129 169.895 239.308 170.606C240.486 171.299 241.414 172.348 242.09 173.752L238.866 175.598C238.588 174.887 238.155 174.289 237.566 173.804C236.976 173.301 236.153 173.05 235.096 173.05C233.865 173.05 232.886 173.405 232.158 174.116C231.43 174.827 231.066 175.945 231.066 177.47V180.382C231.066 181.89 231.43 183.008 232.158 183.736C232.886 184.447 233.865 184.802 235.096 184.802C235.581 184.802 236.04 184.75 236.474 184.646C236.907 184.525 237.288 184.351 237.618 184.126C237.947 183.883 238.198 183.597 238.372 183.268C238.562 182.939 238.658 182.549 238.658 182.098V181.188H235.278V177.886H242.428V188H239.1V185.114Z" fill="#222222"/>
<path d="M447.673 143.852H454.277C455.456 143.852 456.522 144.043 457.475 144.424C458.446 144.805 459.269 145.377 459.945 146.14C460.638 146.885 461.167 147.83 461.531 148.974C461.912 150.101 462.103 151.418 462.103 152.926C462.103 154.434 461.912 155.76 461.531 156.904C461.167 158.031 460.638 158.975 459.945 159.738C459.269 160.483 458.446 161.047 457.475 161.428C456.522 161.809 455.456 162 454.277 162H447.673V143.852ZM454.277 158.958C455.56 158.958 456.574 158.585 457.319 157.84C458.082 157.077 458.463 155.916 458.463 154.356V151.496C458.463 149.936 458.082 148.783 457.319 148.038C456.574 147.275 455.56 146.894 454.277 146.894H451.105V158.958H454.277ZM466.769 162V143.852H478.729V146.894H470.201V151.288H477.741V154.33H470.201V158.958H478.729V162H466.769ZM489.171 162.312C487.611 162.312 486.285 162.035 485.193 161.48C484.118 160.925 483.191 160.197 482.411 159.296L484.725 157.06C485.349 157.788 486.042 158.343 486.805 158.724C487.585 159.105 488.443 159.296 489.379 159.296C490.436 159.296 491.233 159.071 491.771 158.62C492.308 158.152 492.577 157.528 492.577 156.748C492.577 156.141 492.403 155.647 492.057 155.266C491.71 154.885 491.06 154.607 490.107 154.434L488.391 154.174C484.768 153.602 482.957 151.843 482.957 148.896C482.957 148.081 483.104 147.345 483.399 146.686C483.711 146.027 484.153 145.464 484.725 144.996C485.297 144.528 485.981 144.173 486.779 143.93C487.593 143.67 488.512 143.54 489.535 143.54C490.904 143.54 492.1 143.765 493.123 144.216C494.145 144.667 495.021 145.334 495.749 146.218L493.409 148.428C492.958 147.873 492.412 147.423 491.771 147.076C491.129 146.729 490.323 146.556 489.353 146.556C488.365 146.556 487.619 146.747 487.117 147.128C486.631 147.492 486.389 148.012 486.389 148.688C486.389 149.381 486.588 149.893 486.987 150.222C487.385 150.551 488.027 150.794 488.911 150.95L490.601 151.262C492.438 151.591 493.79 152.181 494.657 153.03C495.541 153.862 495.983 155.032 495.983 156.54C495.983 157.407 495.827 158.195 495.515 158.906C495.22 159.599 494.778 160.206 494.189 160.726C493.617 161.229 492.906 161.619 492.057 161.896C491.225 162.173 490.263 162.312 489.171 162.312ZM499.839 162V159.244H502.231V146.608H499.839V143.852H508.081V146.608H505.663V159.244H508.081V162H499.839ZM524.327 159.192H524.223C524.067 160.076 523.573 160.821 522.741 161.428C521.927 162.017 520.835 162.312 519.465 162.312C518.391 162.312 517.394 162.113 516.475 161.714C515.574 161.315 514.785 160.726 514.109 159.946C513.451 159.149 512.931 158.169 512.549 157.008C512.168 155.847 511.977 154.503 511.977 152.978C511.977 151.453 512.168 150.109 512.549 148.948C512.948 147.769 513.503 146.781 514.213 145.984C514.924 145.187 515.773 144.58 516.761 144.164C517.749 143.748 518.85 143.54 520.063 143.54C521.693 143.54 523.079 143.895 524.223 144.606C525.367 145.317 526.269 146.339 526.927 147.674L524.145 149.312C523.816 148.532 523.322 147.882 522.663 147.362C522.022 146.842 521.155 146.582 520.063 146.582C518.711 146.582 517.628 146.998 516.813 147.83C516.016 148.645 515.617 149.858 515.617 151.47V154.382C515.617 155.977 516.025 157.19 516.839 158.022C517.654 158.854 518.746 159.27 520.115 159.27C520.653 159.27 521.155 159.209 521.623 159.088C522.091 158.949 522.499 158.75 522.845 158.49C523.192 158.23 523.469 157.909 523.677 157.528C523.885 157.147 523.989 156.696 523.989 156.176V155.006H520.427V152.12H527.291V162H524.327V159.192ZM537.637 152.692L535.765 148.922H535.687V162H532.437V143.852H536.207L541.667 153.16L543.539 156.93H543.617V143.852H546.867V162H543.097L537.637 152.692Z" fill="#222222"/>
<path d="M686.639 143.852H693.243C694.422 143.852 695.488 144.043 696.441 144.424C697.412 144.805 698.235 145.377 698.911 146.14C699.604 146.885 700.133 147.83 700.497 148.974C700.878 150.101 701.069 151.418 701.069 152.926C701.069 154.434 700.878 155.76 700.497 156.904C700.133 158.031 699.604 158.975 698.911 159.738C698.235 160.483 697.412 161.047 696.441 161.428C695.488 161.809 694.422 162 693.243 162H686.639V143.852ZM693.243 158.958C694.526 158.958 695.54 158.585 696.285 157.84C697.048 157.077 697.429 155.916 697.429 154.356V151.496C697.429 149.936 697.048 148.783 696.285 148.038C695.54 147.275 694.526 146.894 693.243 146.894H690.071V158.958H693.243ZM705.735 162V143.852H717.695V146.894H709.167V151.288H716.707V154.33H709.167V158.958H717.695V162H705.735ZM728.136 162.312C726.576 162.312 725.25 162.035 724.158 161.48C723.084 160.925 722.156 160.197 721.376 159.296L723.69 157.06C724.314 157.788 725.008 158.343 725.77 158.724C726.55 159.105 727.408 159.296 728.344 159.296C729.402 159.296 730.199 159.071 730.736 158.62C731.274 158.152 731.542 157.528 731.542 156.748C731.542 156.141 731.369 155.647 731.022 155.266C730.676 154.885 730.026 154.607 729.072 154.434L727.356 154.174C723.734 153.602 721.922 151.843 721.922 148.896C721.922 148.081 722.07 147.345 722.364 146.686C722.676 146.027 723.118 145.464 723.69 144.996C724.262 144.528 724.947 144.173 725.744 143.93C726.559 143.67 727.478 143.54 728.5 143.54C729.87 143.54 731.066 143.765 732.088 144.216C733.111 144.667 733.986 145.334 734.714 146.218L732.374 148.428C731.924 147.873 731.378 147.423 730.736 147.076C730.095 146.729 729.289 146.556 728.318 146.556C727.33 146.556 726.585 146.747 726.082 147.128C725.597 147.492 725.354 148.012 725.354 148.688C725.354 149.381 725.554 149.893 725.952 150.222C726.351 150.551 726.992 150.794 727.876 150.95L729.566 151.262C731.404 151.591 732.756 152.181 733.622 153.03C734.506 153.862 734.948 155.032 734.948 156.54C734.948 157.407 734.792 158.195 734.48 158.906C734.186 159.599 733.744 160.206 733.154 160.726C732.582 161.229 731.872 161.619 731.022 161.896C730.19 162.173 729.228 162.312 728.136 162.312ZM739.559 162V143.852H751.519V146.894H742.991V151.288H750.531V154.33H742.991V158.958H751.519V162H739.559ZM761.519 152.692L759.647 148.922H759.569V162H756.319V143.852H760.089L765.549 153.16L767.421 156.93H767.499V143.852H770.749V162H766.979L761.519 152.692ZM780.388 162L774.46 143.852H777.97L780.752 152.692L782.364 158.724H782.442L784.028 152.692L786.81 143.852H790.216L784.288 162H780.388ZM800.39 162.312C799.194 162.312 798.111 162.113 797.14 161.714C796.17 161.315 795.338 160.717 794.644 159.92C793.968 159.123 793.44 158.143 793.058 156.982C792.677 155.821 792.486 154.469 792.486 152.926C792.486 151.401 792.677 150.057 793.058 148.896C793.44 147.717 793.968 146.729 794.644 145.932C795.338 145.135 796.17 144.537 797.14 144.138C798.111 143.739 799.194 143.54 800.39 143.54C801.586 143.54 802.67 143.739 803.64 144.138C804.611 144.537 805.443 145.135 806.136 145.932C806.83 146.729 807.358 147.717 807.722 148.896C808.104 150.057 808.294 151.401 808.294 152.926C808.294 154.469 808.104 155.821 807.722 156.982C807.358 158.143 806.83 159.123 806.136 159.92C805.443 160.717 804.611 161.315 803.64 161.714C802.67 162.113 801.586 162.312 800.39 162.312ZM800.39 159.27C801.69 159.27 802.722 158.837 803.484 157.97C804.264 157.103 804.654 155.89 804.654 154.33V151.522C804.654 149.962 804.264 148.749 803.484 147.882C802.722 147.015 801.69 146.582 800.39 146.582C799.09 146.582 798.05 147.015 797.27 147.882C796.508 148.749 796.126 149.962 796.126 151.522V154.33C796.126 155.89 796.508 157.103 797.27 157.97C798.05 158.837 799.09 159.27 800.39 159.27ZM812.946 162V143.852H816.378V158.958H823.528V162H812.946ZM830.084 162L824.156 143.852H827.666L830.448 152.692L832.06 158.724H832.138L833.724 152.692L836.506 143.852H839.912L833.984 162H830.084ZM842.868 162V159.244H845.26V146.608H842.868V143.852H851.11V146.608H848.692V159.244H851.11V162H842.868ZM869.488 148.974H869.384L867.98 151.86L864.262 158.724L860.544 151.86L859.14 148.974H859.036V162H855.786V143.852H859.66L864.314 152.718H864.418L869.02 143.852H872.738V162H869.488V148.974ZM878.183 162V143.852H890.143V146.894H881.615V151.288H889.155V154.33H881.615V158.958H890.143V162H878.183ZM900.143 152.692L898.271 148.922H898.193V162H894.943V143.852H898.713L904.173 153.16L906.045 156.93H906.123V143.852H909.373V162H905.603L900.143 152.692ZM921.924 146.894V162H918.492V146.894H913.344V143.852H927.072V146.894H921.924ZM937.541 162.312C936.345 162.312 935.262 162.113 934.291 161.714C933.321 161.315 932.489 160.717 931.795 159.92C931.119 159.123 930.591 158.143 930.209 156.982C929.828 155.821 929.637 154.469 929.637 152.926C929.637 151.401 929.828 150.057 930.209 148.896C930.591 147.717 931.119 146.729 931.795 145.932C932.489 145.135 933.321 144.537 934.291 144.138C935.262 143.739 936.345 143.54 937.541 143.54C938.737 143.54 939.821 143.739 940.791 144.138C941.762 144.537 942.594 145.135 943.287 145.932C943.981 146.729 944.509 147.717 944.873 148.896C945.255 150.057 945.445 151.401 945.445 152.926C945.445 154.469 945.255 155.821 944.873 156.982C944.509 158.143 943.981 159.123 943.287 159.92C942.594 160.717 941.762 161.315 940.791 161.714C939.821 162.113 938.737 162.312 937.541 162.312ZM937.541 159.27C938.841 159.27 939.873 158.837 940.635 157.97C941.415 157.103 941.805 155.89 941.805 154.33V151.522C941.805 149.962 941.415 148.749 940.635 147.882C939.873 147.015 938.841 146.582 937.541 146.582C936.241 146.582 935.201 147.015 934.421 147.882C933.659 148.749 933.277 149.962 933.277 151.522V154.33C933.277 155.89 933.659 157.103 934.421 157.97C935.201 158.837 936.241 159.27 937.541 159.27Z" fill="#222222"/>
<path d="M180.649 230.8H174.799V236.649H172.85V230.8H167V228.85H172.85V223H174.799V228.85H180.649V230.8Z" fill="#222222" fill-opacity="0.6"/>
<path d="M821.649 230.8H815.799V236.649H813.85V230.8H808V228.85H813.85V223H815.799V228.85H821.649V230.8Z" fill="#222222" fill-opacity="0.6"/>
<path d="M503.649 230.8H497.799V236.649H495.85V230.8H490V228.85H495.85V223H497.799V228.85H503.649V230.8Z" fill="#222222" fill-opacity="0.6"/>
</svg>
